<?xml version="1.0" encoding="utf-8"?>
<!-- Generator: Adobe Illustrator 18.1.1, SVG Export Plug-In . SVG Version: 6.00 Build 0)  -->
<svg version="1.1" id="Слой_1" xmlns="http://www.w3.org/2000/svg" xmlns:xlink="http://www.w3.org/1999/xlink" x="0px" y="0px"
	 viewBox="0 0 14.8 15.9" enable-background="new 0 0 14.8 15.9" xml:space="preserve">
<path fill="#FFFFFF" d="M5.9,1.1C5.9,0.3,6,0,7.2,0c1.6,0,1.6,0.7,1.6,1.1l0,9l3.4-3.4c0.2-0.2,0.5-0.4,0.8-0.4c0.3,0,0.6,0.2,1,0.6
	c0.5,0.5,0.7,0.9,0.7,1.2l0,0c0,0.1,0,0.3-0.4,0.7l-6.7,6.7c-0.1,0.1-0.2,0.2-0.3,0.3c-0.1-0.1-0.2-0.2-0.3-0.3L0.4,8.9
	C0.2,8.7,0,8.5,0,8.2c0-0.2,0.2-0.6,0.7-1c0.5-0.5,0.9-0.8,1.2-0.8c0.2,0,0.4,0.1,0.6,0.3l3.4,3.4L5.9,1.1z"/>
</svg>
