<?xml version="1.0" encoding="utf-8"?>
<!-- Generator: Adobe Illustrator 18.1.1, SVG Export Plug-In . SVG Version: 6.00 Build 0)  -->
<svg version="1.1" id="Слой_1" xmlns="http://www.w3.org/2000/svg" xmlns:xlink="http://www.w3.org/1999/xlink" x="0px" y="0px"
	 viewBox="0 0 13 14" enable-background="new 0 0 13 14" xml:space="preserve">
<path fill="#515457" d="M5.2,1c0-0.7,0.1-1,1.1-1c1.4,0,1.4,0.6,1.4,1v7.9l3-3c0.2-0.2,0.4-0.4,0.7-0.4c0.3,0,0.5,0.2,0.9,0.5
	c0.4,0.4,0.6,0.8,0.6,1.1l0,0c0,0.1,0,0.3-0.4,0.6l-5.9,5.9c-0.1,0.1-0.2,0.2-0.3,0.3c-0.1-0.1-0.2-0.2-0.3-0.3L0.4,7.8
	C0.2,7.7,0,7.5,0,7.2C0,7,0.2,6.7,0.6,6.3c0.4-0.4,0.8-0.7,1.1-0.7c0.2,0,0.4,0.1,0.5,0.3l3,3V1z"/>
</svg>
