<?xml version="1.0" encoding="utf-8"?>
<!-- Generator: Adobe Illustrator 16.0.0, SVG Export Plug-In . SVG Version: 6.00 Build 0)  -->
<!DOCTYPE svg PUBLIC "-//W3C//DTD SVG 1.1//EN" "http://www.w3.org/Graphics/SVG/1.1/DTD/svg11.dtd">
<svg version="1.1" id="Layer_1" xmlns="http://www.w3.org/2000/svg" xmlns:xlink="http://www.w3.org/1999/xlink" x="0px" y="0px"
	 width="20px" height="20px" viewBox="0 0 20 20" enable-background="new 0 0 20 20" xml:space="preserve">
<path fill="#696767" d="M18.939,7.015L18.938,6.9c0.016-0.121-0.016-0.234-0.09-0.318c-0.076-0.086-0.186-0.134-0.311-0.134h-0.679
	c-0.078,0-0.174,0.035-0.245,0.072l-0.656,0.438L15.81,4.283c-0.248-0.597-0.79-0.985-1.414-1.013l-3.269-0.209
	c-0.382-0.026-0.739-0.026-1.117-0.026c-0.376,0-0.732,0-1.114,0.026L5.627,3.269C4.999,3.297,4.456,3.686,4.21,4.281L3.062,6.958
	L2.394,6.513c-0.056-0.029-0.125-0.064-0.23-0.064H1.485c-0.247,0-0.427,0.184-0.427,0.437v0.13c0,0.119,0.047,0.23,0.153,0.335
	c0.541,0.389,0.797,0.57,0.926,0.655C1.914,8.6,1.359,10.108,1.383,10.361l0.528,5.589c0,0.147,0.131,0.281,0.276,0.281h1.485
	c0.144,0,0.274-0.134,0.274-0.281v-1.016c0-0.102,0.076-0.191,0.163-0.191v-0.118c0,0,0.001,0,0.002,0l0.031,0.122l3.722,0.182
	c0.176,0.013,0.352,0.019,0.527,0.025c0.177,0.006,0.353,0.012,0.534,0.025c0.708,0.025,1.445,0.025,2.143,0
	c0.35,0,0.704-0.025,1.062-0.05l3.716-0.182c0.1,0,0.203,0.07,0.203,0.188v1.016c0,0.147,0.131,0.281,0.275,0.281h1.485
	c0.157,0,0.275-0.121,0.275-0.27l0.527-5.599c0.024-0.231-0.53-1.759-0.753-2.36c0.129-0.084,0.385-0.264,0.925-0.65
	C18.881,7.285,18.939,7.159,18.939,7.015z M12.875,11.173c0,0.504-0.31,0.914-0.691,0.914H7.688c-0.381,0-0.691-0.41-0.691-0.914
	c0-0.504,0.31-0.915,0.691-0.915h4.497C12.565,10.258,12.875,10.669,12.875,11.173z M9.935,3.407c0.009,0,0.017-0.001,0.025-0.003
	l0.041,0.001l0.039-0.001c0.008,0.002,0.016,0.003,0.025,0.003c1.921,0.052,4.285,0.182,4.623,0.375
	c0.347,0.197,1.206,2.006,1.675,3.121C16.338,7,16.126,7.042,16.082,7.047l-12.152,0C3.875,7.042,3.662,7,3.637,6.903
	c0.47-1.115,1.329-2.924,1.676-3.122C5.65,3.588,8.014,3.459,9.935,3.407z M15.397,10.311c0.532,0,0.982,0.45,0.982,0.983
	c0,0.532-0.45,0.981-0.982,0.981c-0.533,0-0.983-0.449-0.983-0.981C14.415,10.761,14.865,10.311,15.397,10.311z M5.457,11.274
	c-0.002,0.532-0.451,0.981-0.982,0.981c-0.533,0-0.982-0.449-0.982-0.981c0-0.533,0.45-0.983,0.982-0.983
	C5.007,10.292,5.457,10.742,5.457,11.274z"/>
</svg>
