<?xml version="1.0" encoding="utf-8"?>
<!-- Generator: Adobe Illustrator 16.0.0, SVG Export Plug-In . SVG Version: 6.00 Build 0)  -->
<!DOCTYPE svg PUBLIC "-//W3C//DTD SVG 1.1//EN" "http://www.w3.org/Graphics/SVG/1.1/DTD/svg11.dtd">
<svg version="1.1" id="Layer_1" xmlns="http://www.w3.org/2000/svg" xmlns:xlink="http://www.w3.org/1999/xlink" x="0px" y="0px"
	 width="40px" height="40px" viewBox="0 0 40 40" enable-background="new 0 0 40 40" xml:space="preserve">
<g>
	<path fill="#FFFFFF" d="M30.221,20.672c-1.364,0-2.474,1.11-2.474,2.475c0,1.339,1.133,2.47,2.474,2.47
		c1.339,0,2.471-1.131,2.471-2.47C32.692,21.782,31.584,20.672,30.221,20.672z M30.221,24.866c-0.934,0-1.724-0.788-1.724-1.72
		c0-0.935,0.79-1.725,1.724-1.725c0.933,0,1.721,0.79,1.721,1.725C31.942,24.079,31.154,24.866,30.221,24.866z"/>
	<path fill="#FFFFFF" d="M9.536,20.636c-1.363,0-2.473,1.11-2.473,2.474c0,1.339,1.132,2.47,2.473,2.47
		c1.334,0,2.466-1.13,2.471-2.47C12.007,21.746,10.898,20.636,9.536,20.636z M9.536,24.83c-0.934,0-1.723-0.788-1.723-1.72
		c0-0.935,0.789-1.724,1.723-1.724c0.933,0,1.721,0.79,1.721,1.723C11.253,24.042,10.465,24.83,9.536,24.83z"/>
	<path fill="#FFFFFF" d="M37.067,15.041l-0.003-0.197c0.036-0.269-0.037-0.521-0.204-0.712s-0.42-0.301-0.692-0.301h-1.285
		c-0.216,0-0.454,0.112-0.542,0.159l-1.102,0.736l-2.106-4.912c-0.49-1.179-1.565-1.947-2.799-2.004l-6.19-0.396
		c-1.454-0.099-2.788-0.099-4.244,0L11.71,7.81c-1.243,0.057-2.318,0.825-2.804,2l-2.108,4.917l-1.146-0.762
		c-0.106-0.053-0.268-0.134-0.496-0.134H3.873c-0.539,0-0.946,0.415-0.946,0.965v0.247c0,0.263,0.103,0.507,0.347,0.748
		c0.897,0.645,1.385,0.993,1.665,1.182c-0.508,1.356-1.443,3.933-1.396,4.421l0.999,10.57c0,0.358,0.308,0.672,0.659,0.672h2.813
		c0.351,0,0.658-0.314,0.658-0.672v-1.923c0-0.115,0.103-0.222,0.227-0.218l7.044,0.344c0.344,0.025,0.687,0.038,1.029,0.05
		c0.324,0.012,0.648,0.023,0.984,0.047c1.345,0.05,2.747,0.049,4.064,0c0.702,0,1.406-0.052,2.018-0.097l7.034-0.344
		c0.119,0,0.245,0.076,0.245,0.217v1.923c0,0.358,0.309,0.672,0.661,0.672h2.813c0.376,0,0.66-0.289,0.658-0.637l0.997-10.6
		c0.047-0.438-0.809-2.847-1.395-4.43c0.28-0.188,0.766-0.534,1.659-1.174C36.934,15.643,37.067,15.361,37.067,15.041z
		 M9.598,10.102c0.375-0.908,1.198-1.499,2.153-1.543l6.197-0.396c1.408-0.095,2.739-0.095,4.145,0l6.199,0.396
		c0.947,0.043,1.77,0.635,2.149,1.547l2.137,4.983c0,0.002-0.001,0.003-0.001,0.004c0,0.094-0.286,0.193-0.434,0.211H20.001l0,0
		c0,0,0,0,0,0L7.895,15.307c-0.165-0.018-0.399-0.099-0.45-0.183L9.598,10.102z M36.317,15.041c0,0.071-0.022,0.125-0.037,0.139
		c-0.79,0.565-1.688,1.2-1.844,1.295c-0.06,0.027-0.113,0.071-0.151,0.126c-0.07,0.101-0.086,0.229-0.043,0.345
		c0.709,1.902,1.447,4.064,1.457,4.376l-0.992,10.562h-2.641v-1.845c0-0.542-0.437-0.967-1.012-0.967h0l-7.061,0.345
		c-0.608,0.044-1.297,0.095-1.986,0.096c-1.326,0.048-2.71,0.047-4.01,0c-0.333-0.024-0.665-0.036-0.998-0.048
		c-0.333-0.012-0.667-0.024-1.01-0.049l-7.014-0.341c-0.019-0.003-0.113-0.01-0.132-0.01c-0.507,0-0.92,0.437-0.92,0.973v1.845
		H5.286L4.29,21.333c0.002-0.335,0.743-2.49,1.458-4.379c0.044-0.115,0.028-0.245-0.042-0.346c-0.039-0.056-0.091-0.099-0.15-0.126
		c-0.154-0.095-1.052-0.731-1.795-1.258c-0.075-0.076-0.083-0.14-0.083-0.181v-0.247c0-0.081,0.025-0.215,0.196-0.215h1.284
		c0.047,0,0.077,0.013,0.123,0.033l1.479,0.987c0.045,0.03,0.096,0.05,0.149,0.058c0.25,0.255,0.653,0.369,0.95,0.396H20
		c0,0,0,0,0,0l0,0l12.179-0.001c0.274-0.026,0.669-0.141,0.917-0.396c0.065-0.004,0.128-0.02,0.184-0.057l1.436-0.963
		c0.064-0.032,0.145-0.055,0.167-0.057h1.285c0.056,0,0.103,0.017,0.128,0.045c0.029,0.033,0.029,0.083,0.021,0.168V15.041z"/>
	<path fill="#FFFFFF" d="M24.134,20.573h-8.514c-1.059,0-1.921,1.051-1.921,2.343s0.862,2.343,1.921,2.343h8.514
		c1.06,0,1.922-1.051,1.922-2.343S25.194,20.573,24.134,20.573z M24.134,24.51h-8.514c-0.646,0-1.171-0.715-1.171-1.593
		s0.525-1.593,1.171-1.593h8.514c0.646,0,1.172,0.715,1.172,1.593S24.78,24.51,24.134,24.51z"/>
</g>
</svg>
