<?xml version="1.0" encoding="utf-8"?>
<!-- Generator: Adobe Illustrator 16.0.0, SVG Export Plug-In . SVG Version: 6.00 Build 0)  -->
<!DOCTYPE svg PUBLIC "-//W3C//DTD SVG 1.0//EN" "http://www.w3.org/TR/2001/REC-SVG-20010904/DTD/svg10.dtd">
<svg version="1.0" id="Layer_1" xmlns="http://www.w3.org/2000/svg" xmlns:xlink="http://www.w3.org/1999/xlink" x="0px" y="0px"
	 width="54px" height="54px" viewBox="-4 0 54 54" enable-background="new -4 0 54 54" xml:space="preserve">
<path fill="#D6E2E5" d="M50,48.307L50,48.307l-0.001-0.632c-2.741-0.077-4.929-2.179-4.929-4.759s2.188-4.68,4.929-4.76v-6.361
	c-2.741-0.08-4.929-2.182-4.929-4.76c0-2.576,2.188-4.681,4.929-4.759V15.91c-2.741-0.076-4.929-2.179-4.929-4.755
	c0-2.58,2.188-4.683,4.929-4.759V5.693V0.03V0h-0.248h-5.563h-0.514c-0.078,2.741-2.179,4.93-4.759,4.93S34.235,2.741,34.156,0
	h-6.362c-0.08,2.741-2.181,4.93-4.759,4.93c-2.576,0-4.682-2.188-4.759-4.93H11.91c-0.076,2.741-2.179,4.93-4.755,4.93
	c-2.58,0-4.684-2.188-4.759-4.93H1.812H-3.97h-0.029v0.24C-3.999,0.243-4,0.246-4,0.249v5.444h0.001v0.632
	c2.741,0.078,4.929,2.179,4.929,4.759c0,2.58-2.188,4.679-4.929,4.759v6.362c2.741,0.08,4.929,2.181,4.929,4.759
	c0,2.576-2.188,4.681-4.929,4.759v6.366c2.741,0.076,4.929,2.179,4.929,4.755c0,2.58-2.188,4.683-4.929,4.759v0.703v5.663V54h0.248
	h5.563h0.514c0.078-2.741,2.179-4.93,4.759-4.93s4.68,2.188,4.759,4.93h6.362c0.08-2.741,2.181-4.93,4.759-4.93
	c2.576,0,4.682,2.188,4.759,4.93h6.366c0.076-2.741,2.179-4.93,4.755-4.93c2.58,0,4.684,2.188,4.759,4.93h0.584h5.782h0.029v-0.24
	c0-0.003,0.001-0.006,0.001-0.008V48.307z"/>
</svg>
