<?xml version="1.0" encoding="utf-8"?>
<!-- Generator: Adobe Illustrator 16.0.0, SVG Export Plug-In . SVG Version: 6.00 Build 0)  -->
<!DOCTYPE svg PUBLIC "-//W3C//DTD SVG 1.1//EN" "http://www.w3.org/Graphics/SVG/1.1/DTD/svg11.dtd">
<svg version="1.1" id="Layer_1" xmlns="http://www.w3.org/2000/svg" xmlns:xlink="http://www.w3.org/1999/xlink" x="0px" y="0px"
	 width="124px" height="124px" viewBox="0 0 124 124" enable-background="new 0 0 124 124" xml:space="preserve">
<g opacity="0.1">
	<g>
		<g>
			<defs>
				<rect id="SVGID_1_" width="124" height="124"/>
			</defs>
			<clipPath id="SVGID_2_">
				<use xlink:href="#SVGID_1_"  overflow="visible"/>
			</clipPath>
			<g clip-path="url(#SVGID_2_)">
				<g>
					<g>
						<g>
							<path fill="#231F20" d="M69.96,80.484c-0.133,0-0.26-0.053-0.354-0.146L50.114,60.846c-0.195-0.195-0.195-0.512,0-0.707
								L81.882,28.37c0.188-0.188,0.521-0.188,0.707,0l19.493,19.492c0.094,0.094,0.146,0.221,0.146,0.354
								c0,0.133-0.054,0.26-0.146,0.354l-31.77,31.768C70.221,80.432,70.093,80.484,69.96,80.484z M51.175,60.492L69.96,79.277
								l31.062-31.062L82.234,29.43L51.175,60.492z"/>
						</g>
					</g>
				</g>
				<g>
					<g>
						<g>
							<g>
								<path fill="#231F20" d="M107.814-4.683c-0.133,0-0.26-0.053-0.354-0.146L80.18-32.083c-0.195-0.195-0.195-0.512,0-0.707
									l19.111-19.131c0.094-0.094,0.221-0.146,0.354-0.146l0,0c0.133,0,0.26,0.053,0.354,0.146l27.278,27.252
									c0.195,0.195,0.195,0.512,0,0.707L108.169-4.83C108.075-4.736,107.948-4.683,107.814-4.683L107.814-4.683z M81.24-32.438
									L107.814-5.89l18.401-18.425L99.645-50.861L81.24-32.438z"/>
							</g>
						</g>
						<g>
							<g>
								<path fill="#231F20" d="M105.341-17.334c-2.596,0-5.039-1.01-6.88-2.844c-3.804-3.79-3.814-9.972-0.027-13.781
									c1.848-1.852,4.303-2.872,6.912-2.872c2.594,0,5.034,1.009,6.872,2.841c3.81,3.795,3.822,9.981,0.029,13.791
									C110.4-18.352,107.949-17.334,105.341-17.334z M105.346-35.831c-2.343,0-4.546,0.916-6.203,2.577
									c-3.399,3.418-3.39,8.966,0.023,12.367c1.652,1.646,3.846,2.552,6.175,2.552c2.341,0,4.542-0.913,6.198-2.571
									c3.402-3.418,3.393-8.97-0.025-12.376C109.861-34.926,107.673-35.831,105.346-35.831z"/>
							</g>
						</g>
						<g>
							<g>
								<path fill="#231F20" d="M105.342-19.107c-2.125,0-4.124-0.827-5.629-2.327c-1.51-1.503-2.343-3.503-2.346-5.632
									c-0.004-2.128,0.822-4.132,2.326-5.642c1.509-1.514,3.516-2.348,5.652-2.348c2.119,0,4.114,0.824,5.616,2.319
									c1.513,1.506,2.349,3.509,2.353,5.639c0.004,2.129-0.822,4.133-2.328,5.643C109.482-19.941,107.479-19.107,105.342-19.107z
									 M105.346-34.056c-1.867,0-3.623,0.729-4.941,2.054c-1.316,1.32-2.039,3.073-2.036,4.934
									c0.002,1.861,0.729,3.611,2.051,4.925c1.317,1.312,3.065,2.036,4.924,2.036c1.868,0,3.621-0.729,4.937-2.053
									c1.316-1.32,2.041-3.073,2.037-4.935c-0.004-1.863-0.734-3.615-2.058-4.932C108.943-33.335,107.199-34.056,105.346-34.056z"
									/>
							</g>
						</g>
						<g>
							<g>
								<path fill="#231F20" d="M84.771-27.703c-0.127,0-0.256-0.049-0.354-0.146c-0.195-0.195-0.195-0.512,0-0.707l19.132-19.133
									c0.195-0.195,0.513-0.195,0.707,0c0.195,0.195,0.195,0.512,0,0.707L85.126-27.849C85.027-27.751,84.9-27.703,84.771-27.703z
									"/>
							</g>
						</g>
						<g>
							<g>
								<path fill="#231F20" d="M99.348-46.08c-0.312,0-0.606-0.122-0.828-0.343c-0.457-0.459-0.459-1.206-0.002-1.665
									c0.446-0.447,1.221-0.445,1.666,0.001c0.221,0.22,0.344,0.515,0.344,0.829c0,0.315-0.123,0.61-0.344,0.833
									C99.958-46.202,99.662-46.08,99.348-46.08z M99.35-47.433c-0.026,0-0.08,0.006-0.125,0.051
									c-0.068,0.069-0.068,0.181,0.002,0.252c0.078,0.077,0.15,0.097,0.25-0.004c0.043-0.043,0.051-0.096,0.051-0.123
									c0-0.027-0.008-0.079-0.051-0.123C99.43-47.427,99.377-47.433,99.35-47.433z"/>
							</g>
						</g>
						<g>
							<g>
								<path fill="#231F20" d="M97.583-44.314c-0.313,0-0.608-0.122-0.83-0.343c-0.458-0.459-0.459-1.206-0.003-1.665
									c0.452-0.448,1.223-0.444,1.667,0.001c0.457,0.459,0.456,1.204-0.001,1.662C98.193-44.437,97.896-44.314,97.583-44.314z
									 M97.584-45.667c-0.027,0-0.082,0.007-0.128,0.052c-0.067,0.068-0.067,0.18,0.004,0.25c0.082,0.083,0.161,0.085,0.249-0.002
									c0.068-0.068,0.068-0.18-0.001-0.249C97.666-45.658,97.617-45.667,97.584-45.667z"/>
							</g>
						</g>
						<g>
							<g>
								<path fill="#231F20" d="M95.814-42.547c-0.313,0-0.607-0.122-0.83-0.343c-0.457-0.459-0.457-1.206-0.002-1.665
									c0.447-0.447,1.223-0.445,1.668,0.001c0.221,0.22,0.343,0.515,0.343,0.829c0,0.315-0.122,0.61-0.345,0.833
									C96.425-42.669,96.129-42.547,95.814-42.547z M95.816-43.9c-0.027,0-0.08,0.006-0.127,0.051
									c-0.067,0.069-0.067,0.181,0.004,0.252c0.076,0.078,0.149,0.097,0.25-0.004c0.043-0.043,0.05-0.096,0.05-0.123
									s-0.007-0.079-0.05-0.123C95.896-43.894,95.844-43.9,95.816-43.9z"/>
							</g>
						</g>
					</g>
					<g>
						<g>
							<g>
								<path fill="#231F20" d="M13.019,14.811c-0.033,0-0.066-0.003-0.099-0.01c-0.165-0.033-0.302-0.146-0.364-0.302L6.515-0.346
									C6.433-0.574,4.764-5.479,9.286-10l13.925-13.926c0.175-0.174,0.452-0.194,0.648-0.05l12.198,8.922
									c0.118,0.086,0.192,0.22,0.203,0.365c0.012,0.146-0.041,0.289-0.145,0.392l-4.221,4.221l3.254,2.107
									c0.127,0.083,0.21,0.217,0.226,0.367s-0.037,0.299-0.144,0.406L13.372,14.665C13.277,14.759,13.149,14.811,13.019,14.811z
									 M23.615-22.915L9.993-9.292c-4.062,4.06-2.607,8.408-2.544,8.591l5.748,14.125l20.89-20.89l-3.254-2.107
									c-0.127-0.083-0.21-0.217-0.226-0.367s0.037-0.299,0.144-0.406l4.245-4.246L23.615-22.915z"/>
							</g>
						</g>
						<g>
							<g>
								<path fill="#231F20" d="M11.208,10.405c-0.128,0-0.256-0.049-0.354-0.146c-0.195-0.195-0.195-0.512,0-0.707L30.75-10.344
									c0.195-0.195,0.512-0.195,0.707,0c0.195,0.195,0.195,0.512,0,0.707L11.562,10.258
									C11.464,10.356,11.336,10.405,11.208,10.405z"/>
							</g>
						</g>
						<g>
							<g>
								<path fill="#231F20" d="M14.564-1.853c-0.021,0-0.043-0.001-0.064-0.004c-0.153-0.02-0.289-0.11-0.367-0.244
									c-0.102-0.173-2.451-4.286,0.078-6.816l6.655-6.656c0.188-0.188,0.52-0.188,0.707,0l3.105,3.105
									c0.195,0.195,0.195,0.512,0,0.707L14.918-2C14.823-1.905,14.696-1.853,14.564-1.853z M21.22-14.513L14.918-8.21
									c-1.495,1.496-0.704,3.901-0.214,5.011l8.914-8.915L21.22-14.513z"/>
							</g>
						</g>
						<g>
							<g>
								<path fill="#231F20" d="M23.564-23.072c-0.276,0-0.5-0.224-0.5-0.5v-4.244c0-0.276,0.224-0.5,0.5-0.5s0.5,0.224,0.5,0.5
									v4.244C24.064-23.295,23.841-23.072,23.564-23.072z"/>
							</g>
						</g>
					</g>
					<g>
						<g>
							<path fill="#231F20" d="M39.042,25.129c-0.129,0-0.257-0.05-0.354-0.146l-3.82-3.82c-0.161-0.161-0.193-0.411-0.077-0.608
								c0.001-0.001,3.333-5.642,8.444-14.45c1.254-2.159,2.686-3.983,4.257-5.421c3.895-3.562,7.379-3.604,7.525-3.604
								c0.003,0,0.007,0,0.011,0c0.611,0,2.506,0.214,4.964,2.796c2.945,2.805,2.783,4.913,2.775,5.001
								c0.002,0.216-0.066,6.538-9.022,11.737c-8.809,5.112-14.449,8.445-14.449,8.445C39.217,25.106,39.129,25.129,39.042,25.129z
								 M35.85,20.729l3.272,3.272c1.332-0.786,6.56-3.864,14.121-8.252c8.46-4.911,8.526-10.857,8.526-10.917
								c0.003-0.06,0.087-1.802-2.484-4.25c-2.271-2.385-3.891-2.505-4.192-2.505c-0.106,0.002-3.317,0.043-6.925,3.344
								c-1.497,1.369-2.865,3.113-4.067,5.185C39.712,14.169,36.635,19.397,35.85,20.729z"/>
						</g>
					</g>
					<g>
						<g>
							<path fill="#231F20" d="M70.82,27.862c-0.119,0-0.238-0.042-0.334-0.129L56.112,14.766c-0.205-0.185-0.222-0.501-0.036-0.706
								c0.186-0.204,0.501-0.221,0.706-0.036l14.021,12.648l1.396-1.397L59.552,11.253c-0.186-0.205-0.169-0.521,0.036-0.706
								c0.205-0.186,0.521-0.169,0.706,0.036L73.26,24.958c0.18,0.198,0.172,0.5-0.018,0.688l-2.067,2.068
								C71.078,27.812,70.949,27.862,70.82,27.862z"/>
						</g>
					</g>
					<g>
						<g>
							<path fill="#231F20" d="M41.072,23.745c-0.128,0-0.256-0.049-0.354-0.146l-4.468-4.467c-0.195-0.195-0.195-0.512,0-0.707
								c0.195-0.195,0.512-0.195,0.707,0l4.468,4.467c0.195,0.195,0.195,0.512,0,0.707C41.328,23.696,41.2,23.745,41.072,23.745z"/>
						</g>
					</g>
					<g>
						<g>
							<g>
								<path fill="#231F20" d="M30.062,62.633c-0.128,0-0.256-0.049-0.354-0.146l-3.811-3.809L12.07,42.134l-5.342-2.209
									c-0.154-0.063-0.267-0.2-0.299-0.364c-0.033-0.164,0.019-0.333,0.137-0.451L20.8,24.875c0.195-0.195,0.512-0.195,0.707,0
									c0.195,0.195,0.195,0.512,0,0.707L7.803,39.288l4.764,1.97c0.074,0.031,0.141,0.079,0.192,0.141l13.877,16.605l3.427,3.422
									l7.36-7.359c0.195-0.195,0.512-0.195,0.707,0c0.195,0.195,0.195,0.511,0,0.707l-7.714,7.713
									C30.318,62.584,30.19,62.633,30.062,62.633z"/>
							</g>
						</g>
						<g>
							<g>
								<path fill="#231F20" d="M37.776,54.92c-0.128,0-0.256-0.049-0.354-0.146c-0.195-0.195-0.195-0.511,0-0.707l7.359-7.361
									l-3.456-3.455c-0.195-0.195-0.195-0.512,0-0.707c0.195-0.195,0.512-0.195,0.707,0l3.81,3.809
									c0.094,0.094,0.146,0.221,0.146,0.354c0,0.132-0.053,0.26-0.146,0.354l-7.713,7.714
									C38.032,54.871,37.904,54.92,37.776,54.92z"/>
							</g>
						</g>
						<g>
							<g>
								<path fill="#231F20" d="M41.68,43.397c-0.115,0-0.231-0.04-0.326-0.121L20.821,25.614c-0.105-0.09-0.168-0.221-0.174-0.36
									c-0.005-0.139,0.048-0.274,0.146-0.372l3.799-3.799c0.195-0.195,0.512-0.195,0.707,0l7.755,7.754
									c0.023,0.019,1.085,0.976,1.133,2.539c0.033,1.089-0.426,2.178-1.366,3.242l9.185,7.901c0.209,0.18,0.233,0.496,0.053,0.705
									C41.96,43.338,41.82,43.397,41.68,43.397z M21.882,25.208l10.182,8.758c0.768-0.865,1.146-1.72,1.125-2.546
									c-0.028-1.128-0.812-1.85-0.82-1.857l-7.422-7.419L21.882,25.208z"/>
							</g>
						</g>
						<g>
							<g>
								<path fill="#231F20" d="M26.252,58.824c-0.128,0-0.256-0.049-0.354-0.146c-0.195-0.195-0.195-0.512,0-0.707l15.428-15.427
									c0.195-0.195,0.512-0.195,0.707,0c0.195,0.195,0.195,0.512,0,0.707L26.605,58.678C26.508,58.775,26.38,58.824,26.252,58.824
									z"/>
							</g>
						</g>
						<g>
							<g>
								<path fill="#231F20" d="M33.277,42.708c-0.128,0-0.256-0.049-0.354-0.146l-9.269-9.27c-0.195-0.195-0.195-0.512,0-0.707
									c0.195-0.195,0.512-0.195,0.707,0l9.269,9.27c0.195,0.195,0.195,0.512,0,0.707C33.533,42.659,33.405,42.708,33.277,42.708z"
									/>
							</g>
						</g>
					</g>
					<g>
						<g>
							<path fill="#231F20" d="M109.455,41.812c-0.67,0-1.297-0.259-1.768-0.729l-9.942-9.943c-0.472-0.47-0.729-1.098-0.729-1.768
								s0.26-1.297,0.729-1.768l3.387-3.386c0.574-0.575,0.688-1.434,0.247-1.875c-0.418-0.418-0.615-1.001-0.554-1.642
								c0.058-0.604,0.342-1.19,0.8-1.648l6.941-6.941c0.936-0.938,2.479-1.055,3.289-0.246c0.225,0.223,0.511,0.271,0.711,0.271
								c0.41,0,0.834-0.189,1.164-0.519l3.643-3.643c0.941-0.941,2.595-0.939,3.535,0l9.941,9.943c0.471,0.47,0.73,1.098,0.73,1.768
								s-0.26,1.297-0.73,1.768l-19.627,19.628C110.752,41.553,110.124,41.812,109.455,41.812z M110.436,12.301
								c-0.408,0-0.832,0.189-1.162,0.518l-6.94,6.941c-0.295,0.294-0.478,0.662-0.513,1.036c-0.031,0.338,0.062,0.636,0.267,0.839
								c0.838,0.839,0.728,2.314-0.247,3.289l-3.387,3.387c-0.282,0.282-0.438,0.658-0.438,1.061c0,0.403,0.154,0.779,0.438,1.06
								l9.941,9.944c0.562,0.562,1.558,0.563,2.121,0l19.629-19.628c0.281-0.282,0.438-0.658,0.438-1.061s-0.155-0.779-0.438-1.06
								l-9.942-9.944c-0.562-0.562-1.558-0.563-2.121,0l-3.644,3.642c-0.936,0.937-2.48,1.055-3.287,0.249
								C110.924,12.348,110.637,12.301,110.436,12.301z"/>
						</g>
					</g>
					<g>
						<g>
							<path fill="#231F20" d="M113.857,29.286c-1.385,0-2.687-0.538-3.668-1.515c-2.026-2.024-2.032-5.32-0.014-7.348
								c0.984-0.987,2.292-1.531,3.684-1.531c1.384,0,2.685,0.538,3.664,1.515c0.983,0.979,1.526,2.283,1.531,3.671
								c0.002,1.389-0.535,2.696-1.516,3.68C116.557,28.743,115.248,29.286,113.857,29.286z M113.859,19.892
								c-1.123,0-2.18,0.439-2.975,1.237c-1.632,1.637-1.627,4.299,0.012,5.934c0.791,0.789,1.844,1.223,2.961,1.223
								c1.123,0,2.18-0.438,2.975-1.234c0.791-0.794,1.227-1.85,1.223-2.971c-0.003-1.121-0.441-2.174-1.236-2.965
								C116.025,20.326,114.977,19.892,113.859,19.892z"/>
						</g>
					</g>
					<g>
						<g>
							<path fill="#231F20" d="M113.857,30.936c-1.823,0-3.539-0.709-4.83-1.997c-2.674-2.663-2.68-7.005-0.016-9.68
								c1.295-1.3,3.018-2.016,4.852-2.016c1.82,0,3.531,0.707,4.822,1.991c2.676,2.667,2.686,7.012,0.021,9.686
								C117.414,30.219,115.691,30.936,113.857,30.936z M113.863,18.243c-1.565,0-3.037,0.611-4.143,1.722
								c-2.275,2.283-2.271,5.991,0.012,8.266c1.104,1.099,2.567,1.705,4.125,1.705c1.565,0,3.037-0.611,4.141-1.721
								c2.275-2.283,2.268-5.994-0.018-8.272C116.879,18.847,115.417,18.243,113.863,18.243z"/>
						</g>
					</g>
					<g>
						<g>
							<g>
								<path fill="#231F20" d="M88.782-56.462c-0.128,0-0.257-0.049-0.354-0.146l-2.938-2.938c-0.195-0.195-0.195-0.512,0-0.707
									c0.195-0.195,0.512-0.195,0.707,0l2.938,2.938c0.195,0.195,0.195,0.512,0,0.707C89.038-56.511,88.91-56.462,88.782-56.462z"
									/>
							</g>
						</g>
						<g>
							<g>
								<path fill="#231F20" d="M84.205-51.884c-0.128,0-0.256-0.049-0.354-0.146c-0.195-0.195-0.195-0.512,0-0.707l9.154-9.156
									c0.195-0.195,0.512-0.195,0.707,0s0.195,0.512,0,0.707l-9.154,9.156C84.461-51.933,84.333-51.884,84.205-51.884z"/>
							</g>
						</g>
					</g>
					<g>
						<g>
							<path fill="#231F20" d="M69.96-43.515c-0.133,0-0.26-0.053-0.354-0.146L50.114-63.154c-0.195-0.195-0.195-0.512,0-0.707
								l31.768-31.77c0.188-0.188,0.521-0.188,0.707,0l19.493,19.492c0.094,0.094,0.146,0.221,0.146,0.354
								c0,0.133-0.054,0.26-0.146,0.354l-31.77,31.77C70.221-43.568,70.093-43.515,69.96-43.515z M51.175-63.507L69.96-44.722
								l31.062-31.062L82.234-94.57L51.175-63.507z"/>
						</g>
					</g>
					<g>
						<g>
							<g>
								<path fill="#231F20" d="M121.062-45.186c-0.922,0-1.728-0.336-2.391-0.999l-10.301-10.303
									c-0.121-0.141-2.268-2.772,1.6-6.637c3.592-3.59,18.311-11.804,18.936-12.152c0.195-0.108,0.438-0.075,0.597,0.083
									l11.37,11.367c0.094,0.094,0.146,0.221,0.146,0.354c0,0.132-0.054,0.26-0.146,0.354l-16.932,16.934
									C123.829-46.095,122.561-45.186,121.062-45.186z M129.062-74.218c-2.236,1.258-15.181,8.598-18.386,11.801
									c-3.186,3.185-1.635,5.174-1.567,5.257l10.271,10.269c0.476,0.475,1.026,0.706,1.683,0.706c1.176,0,2.224-0.75,2.232-0.757
									l16.518-16.529L129.062-74.218z"/>
							</g>
						</g>
						<g>
							<g>
								<path fill="#231F20" d="M128.042-40.667L128.042-40.667c-0.133,0-0.26-0.053-0.354-0.146
									c-0.797-0.798-1.291-1.812-1.388-2.854c-0.083-0.894,0.13-1.72,0.606-2.375l-0.584-0.584c-0.195-0.195-0.195-0.512,0-0.707
									s0.512-0.195,0.707,0l0.584,0.584c0.656-0.476,1.49-0.691,2.375-0.606c1.043,0.097,2.056,0.589,2.854,1.388
									c0.195,0.195,0.195,0.512,0,0.707l-2.224,2.225c-0.001,0-0.001,0.001-0.002,0.002l-2.222,2.221
									C128.302-40.72,128.175-40.667,128.042-40.667z M127.628-45.322c-0.271,0.438-0.386,0.978-0.332,1.562
									c0.062,0.657,0.33,1.305,0.769,1.864l1.494-1.494L127.628-45.322z M128.335-46.028l1.931,1.931l1.496-1.496
									c-0.56-0.438-1.207-0.706-1.863-0.767C129.316-46.414,128.775-46.298,128.335-46.028z"/>
							</g>
						</g>
						<g>
							<g>
								<path fill="#231F20" d="M124.05-56.986L124.05-56.986c-0.133,0-0.26-0.053-0.354-0.146l-4.692-4.695
									c-0.169-0.169-0.194-0.434-0.062-0.632c3.226-4.814,10.988-7.773,11.316-7.897c0.184-0.067,0.391-0.024,0.529,0.115
									l3.008,3.01c0.195,0.195,0.195,0.512,0,0.707l-9.393,9.393C124.311-57.039,124.184-56.986,124.05-56.986z M120.007-62.238
									l4.043,4.045l8.687-8.686l-2.422-2.424C128.9-68.727,122.829-66.092,120.007-62.238z"/>
							</g>
						</g>
						<g>
							<g>
								<path fill="#231F20" d="M131.768-61.822c-0.127,0-0.256-0.049-0.354-0.146c-0.195-0.195-0.195-0.512,0-0.707l3.115-3.115
									c0.195-0.195,0.513-0.195,0.707,0c0.195,0.195,0.195,0.512,0,0.707l-3.115,3.115
									C132.023-61.871,131.896-61.822,131.768-61.822z"/>
							</g>
						</g>
						<g>
							<g>
								<path fill="#231F20" d="M133.046-60.542c-0.128,0-0.256-0.049-0.354-0.146c-0.194-0.195-0.194-0.512,0-0.707l3.117-3.115
									c0.194-0.195,0.512-0.195,0.707,0c0.194,0.195,0.194,0.512,0,0.707l-3.117,3.115
									C133.302-60.591,133.174-60.542,133.046-60.542z"/>
							</g>
						</g>
						<g>
							<g>
								<path fill="#231F20" d="M109.053-60.968c-0.128,0-0.256-0.049-0.354-0.146l-1.324-1.324
									c-0.094-0.094-0.146-0.221-0.146-0.354s0.054-0.26,0.146-0.354l3.173-3.17c0.195-0.195,0.513-0.195,0.707,0l1.323,1.324
									c0.195,0.195,0.195,0.512,0,0.707c-0.195,0.195-0.512,0.195-0.707,0l-0.971-0.971l-2.465,2.463l0.971,0.971
									c0.195,0.195,0.195,0.512,0,0.707C109.309-61.017,109.182-60.968,109.053-60.968z"/>
							</g>
						</g>
						<g>
							<g>
								<path fill="#231F20" d="M124.949-45.037c-0.129,0-0.256-0.049-0.354-0.146l-1.184-1.182c-0.195-0.195-0.195-0.512,0-0.707
									c0.195-0.195,0.512-0.195,0.707,0l0.829,0.828l2.464-2.463l-0.828-0.83c-0.195-0.195-0.195-0.512,0-0.707
									c0.195-0.194,0.512-0.195,0.707,0.001l1.182,1.184c0.195,0.195,0.195,0.512,0,0.707l-3.17,3.17
									C125.205-45.085,125.077-45.037,124.949-45.037z"/>
							</g>
						</g>
					</g>
					<g>
						<g>
							<path fill="#231F20" d="M47.834-17.318L23.16-41.994l15.497-15.498l24.675,24.676L47.834-17.318z M24.574-41.994
								l23.26,23.262l14.084-14.084L38.657-56.078L24.574-41.994z"/>
						</g>
					</g>
					<g>
						<g>
							<path fill="#231F20" d="M31.301-33.853l-8.16-8.16l15.498-15.496l8.16,8.16L31.301-33.853z M24.555-42.013l6.746,6.746
								l14.084-14.082l-6.746-6.746L24.555-42.013z"/>
						</g>
					</g>
					<g>
						<g>
							
								<rect x="31.561" y="-43.946" transform="matrix(-0.7071 -0.7071 0.7071 -0.7071 84.3989 -48.9515)" fill="#231F20" width="1" height="3.981"/>
						</g>
					</g>
					<g>
						<g>
							
								<rect x="37.387" y="-31.426" transform="matrix(-0.7072 -0.707 0.707 -0.7072 89.09 -24.9543)" fill="#231F20" width="3.98" height="1"/>
						</g>
					</g>
					<g>
						<g>
							<g>
								<g>
									<path fill="#231F20" d="M87.203,15.049c-0.02,0-0.037-0.001-0.057-0.003c-0.149-0.017-0.285-0.102-0.367-0.23L80.452,4.795
										c-0.125-0.198-0.097-0.456,0.069-0.621l4.246-4.246c0.194-0.195,0.512-0.195,0.707,0c0.194,0.195,0.194,0.512,0,0.707
										L81.51,4.598l5.781,9.155l5.65-5.651c0.195-0.195,0.512-0.195,0.707,0c0.194,0.195,0.194,0.512,0,0.707l-6.094,6.094
										C87.463,14.997,87.335,15.049,87.203,15.049z"/>
								</g>
							</g>
							<g>
								<g>
									<path fill="#231F20" d="M79.762,3.201c-0.107,0-0.217-0.035-0.307-0.104L64.7-8.323l-3.719-1.372
										c-0.16-0.059-0.279-0.196-0.315-0.362c-0.037-0.167,0.015-0.34,0.135-0.46l6.604-6.602c0.195-0.195,0.512-0.195,0.707,0
										c0.195,0.195,0.195,0.512,0,0.707l-6.05,6.049l3.058,1.128c0.048,0.018,0.093,0.042,0.133,0.074L79.719,2.036l3.493-3.494
										c0.195-0.195,0.513-0.195,0.707,0c0.195,0.195,0.195,0.512,0,0.707l-3.805,3.806C80.018,3.151,79.891,3.201,79.762,3.201z"
										/>
								</g>
							</g>
							<g>
								<g>
									<path fill="#231F20" d="M92.977,9.277c-0.129,0-0.256-0.049-0.354-0.146c-0.195-0.195-0.195-0.512,0-0.707l5.649-5.652
										l-9.152-5.779l-3.965,3.962c-0.195,0.195-0.512,0.195-0.707,0c-0.195-0.195-0.195-0.512,0-0.707l4.246-4.245
										c0.166-0.166,0.424-0.193,0.621-0.069L99.335,2.26c0.129,0.081,0.214,0.216,0.229,0.367
										c0.018,0.151-0.035,0.302-0.144,0.409L93.329,9.13C93.23,9.228,93.104,9.277,92.977,9.277z"/>
								</g>
							</g>
							<g>
								<g>
									<path fill="#231F20" d="M83.189-0.228c-0.129,0-0.256-0.049-0.354-0.146c-0.194-0.195-0.194-0.512,0-0.707l3.485-3.488
										L72.857-21.16l-4.977,4.976c-0.195,0.195-0.512,0.195-0.707,0s-0.195-0.512,0-0.707l5.369-5.368
										c0.1-0.101,0.239-0.155,0.38-0.146c0.142,0.007,0.272,0.075,0.362,0.185L87.383-4.85c0.161,0.199,0.146,0.487-0.035,0.668
										l-3.805,3.807C83.445-0.277,83.316-0.228,83.189-0.228z"/>
								</g>
							</g>
							<g>
								<g>
									<path fill="#231F20" d="M77.34,1.326c-0.128,0-0.256-0.049-0.354-0.146c-0.195-0.195-0.195-0.512,0-0.707l2.017-2.017
										c0.195-0.195,0.513-0.195,0.707,0c0.194,0.195,0.194,0.512,0,0.707L77.693,1.18C77.596,1.277,77.468,1.326,77.34,1.326z"/>
								</g>
							</g>
							<g>
								<g>
									<path fill="#231F20" d="M74.939-0.537c-0.129,0-0.256-0.049-0.354-0.146c-0.194-0.195-0.194-0.512,0-0.707l2.017-2.018
										c0.195-0.195,0.513-0.195,0.707,0c0.195,0.195,0.195,0.512,0,0.707l-2.017,2.018C75.195-0.585,75.066-0.537,74.939-0.537z"
										/>
								</g>
							</g>
							<g>
								<g>
									<path fill="#231F20" d="M72.661-2.525c-0.128,0-0.257-0.049-0.354-0.146c-0.195-0.195-0.195-0.512,0-0.707l1.715-1.715
										c0.195-0.195,0.513-0.195,0.707,0c0.195,0.195,0.195,0.512,0,0.707l-1.715,1.715C72.917-2.574,72.789-2.525,72.661-2.525z"
										/>
								</g>
							</g>
							<g>
								<g>
									<path fill="#231F20" d="M70.279-4.408c-0.127,0-0.256-0.049-0.354-0.146c-0.195-0.195-0.195-0.512,0-0.707l1.717-1.715
										c0.194-0.195,0.512-0.195,0.707,0c0.194,0.195,0.194,0.512,0,0.707l-1.717,1.715C70.536-4.457,70.408-4.408,70.279-4.408z"
										/>
								</g>
							</g>
							<g>
								<g>
									<path fill="#231F20" d="M67.802-6.193c-0.128,0-0.256-0.049-0.354-0.146c-0.195-0.195-0.195-0.512,0-0.707l2.018-2.02
										c0.195-0.195,0.513-0.195,0.707,0c0.195,0.195,0.195,0.512,0,0.707l-2.019,2.02C68.059-6.242,67.93-6.193,67.802-6.193z"/>
								</g>
							</g>
							<g>
								<g>
									<path fill="#231F20" d="M80.512,5.008c-0.379,0-0.734-0.147-1.003-0.414l-0.171-0.17c-0.268-0.267-0.415-0.623-0.415-1.003
										c-0.001-0.38,0.146-0.737,0.414-1.005l7.642-7.642c0.537-0.536,1.474-0.534,2.008,0l0.171,0.17
										C89.709-4.5,89.709-3.6,89.158-3.047l-7.643,7.641C81.248,4.861,80.893,5.008,80.512,5.008z M87.98-4.64
										c-0.111,0-0.217,0.043-0.295,0.122l-7.643,7.642c-0.078,0.079-0.122,0.184-0.121,0.297c0,0.113,0.043,0.218,0.121,0.295
										l0.171,0.17c0.16,0.158,0.438,0.157,0.595,0l7.642-7.64c0.159-0.161,0.159-0.432-0.001-0.593l-0.172-0.17
										C88.199-4.597,88.094-4.64,87.98-4.64z"/>
								</g>
							</g>
							<g>
								<g>
									<path fill="#231F20" d="M62.984-11.876c-0.381,0-0.736-0.147-1.004-0.415l-0.171-0.171
										c-0.268-0.267-0.414-0.624-0.414-1.003s0.146-0.736,0.414-1.003l7.641-7.641c0.536-0.536,1.473-0.535,2.007,0l0.172,0.172
										c0.268,0.268,0.415,0.624,0.414,1.004c0,0.379-0.146,0.735-0.414,1.002l-7.643,7.64
										C63.721-12.023,63.363-11.876,62.984-11.876z M70.453-21.523c-0.112,0-0.219,0.043-0.296,0.122l-7.642,7.641
										c-0.078,0.079-0.121,0.184-0.121,0.296c0,0.112,0.043,0.217,0.121,0.296l0.172,0.172c0.156,0.157,0.437,0.157,0.592,0
										l7.643-7.641c0.078-0.078,0.121-0.183,0.121-0.295c0.001-0.112-0.043-0.218-0.121-0.296L70.75-21.4
										C70.672-21.48,70.566-21.523,70.453-21.523z"/>
								</g>
							</g>
							<g>
								<g>
									<path fill="#231F20" d="M88.775,6.573c-0.705,0-1.366-0.274-1.864-0.772c-1.028-1.028-1.028-2.702,0-3.73
										c0.996-0.995,2.733-0.997,3.729,0c0.498,0.497,0.771,1.159,0.772,1.864c0,0.706-0.274,1.369-0.772,1.867
										C90.143,6.299,89.48,6.573,88.775,6.573z M88.775,2.299c-0.438,0-0.85,0.17-1.157,0.479c-0.64,0.639-0.64,1.678,0,2.316
										c0.616,0.617,1.696,0.619,2.315,0c0.31-0.31,0.479-0.721,0.479-1.159c-0.001-0.438-0.171-0.848-0.479-1.157
										S89.214,2.299,88.775,2.299z"/>
								</g>
							</g>
						</g>
						<g>
							<g>
								<path fill="#231F20" d="M90.539,5.033c-0.03,0-0.062-0.002-0.092-0.008l-2.102-0.388c-0.271-0.05-0.451-0.311-0.4-0.583
									s0.312-0.454,0.582-0.401l2.102,0.388c0.271,0.05,0.451,0.311,0.4,0.583C90.984,4.864,90.775,5.033,90.539,5.033z"/>
							</g>
						</g>
					</g>
				</g>
				<g>
					<g>
						<g>
							<g>
								<path fill="#231F20" d="M-16.185-4.683c-0.133,0-0.26-0.053-0.354-0.146L-43.82-32.083c-0.195-0.195-0.195-0.512,0-0.707
									l19.111-19.131c0.094-0.094,0.221-0.146,0.354-0.146l0,0c0.133,0,0.26,0.053,0.354,0.146L3.277-24.669
									c0.195,0.195,0.195,0.512,0,0.707L-15.831-4.83C-15.925-4.736-16.052-4.683-16.185-4.683L-16.185-4.683z M-42.76-32.438
									L-16.185-5.89L2.217-24.315L-24.355-50.86L-42.76-32.438z"/>
							</g>
						</g>
					</g>
					<g>
						<g>
							<path fill="#231F20" d="M-14.545,41.812c-0.67,0-1.297-0.259-1.768-0.729l-9.942-9.943c-0.471-0.47-0.73-1.098-0.73-1.768
								s0.26-1.297,0.73-1.768l3.387-3.386c0.574-0.575,0.688-1.434,0.247-1.875c-0.418-0.418-0.615-1.001-0.554-1.642
								c0.058-0.604,0.342-1.19,0.8-1.648l6.941-6.941c0.936-0.938,2.48-1.055,3.289-0.246c0.225,0.223,0.511,0.271,0.712,0.271
								c0.41,0,0.834-0.189,1.163-0.519l3.643-3.643c0.942-0.941,2.595-0.939,3.535,0l9.942,9.943c0.471,0.47,0.73,1.098,0.73,1.768
								s-0.26,1.297-0.73,1.768l-19.628,19.628C-13.248,41.553-13.876,41.812-14.545,41.812z M-13.564,12.301
								c-0.409,0-0.833,0.189-1.162,0.518l-6.941,6.941c-0.295,0.294-0.477,0.662-0.512,1.036c-0.032,0.338,0.062,0.636,0.266,0.839
								c0.838,0.839,0.727,2.314-0.247,3.289l-3.387,3.387c-0.282,0.282-0.438,0.658-0.438,1.061c0,0.403,0.155,0.779,0.438,1.06
								l9.942,9.944c0.562,0.562,1.557,0.563,2.121,0L6.144,20.747c0.282-0.282,0.438-0.658,0.438-1.061s-0.155-0.779-0.438-1.06
								l-9.942-9.944c-0.562-0.562-1.557-0.563-2.121,0l-3.643,3.642c-0.936,0.937-2.48,1.055-3.288,0.249
								C-13.076,12.348-13.363,12.301-13.564,12.301z"/>
						</g>
					</g>
					<g>
						<g>
							<g>
								<path fill="#231F20" d="M-2.938-45.186c-0.922,0-1.727-0.336-2.39-0.999l-10.301-10.303
									c-0.121-0.141-2.268-2.772,1.599-6.637c3.592-3.59,18.311-11.804,18.936-12.152c0.195-0.108,0.438-0.075,0.597,0.083
									l11.37,11.367c0.094,0.094,0.146,0.221,0.146,0.354c0,0.132-0.053,0.26-0.146,0.354L-0.058-46.185
									C-0.171-46.095-1.44-45.186-2.938-45.186z M5.063-74.218c-2.237,1.258-15.18,8.598-18.385,11.801
									c-3.186,3.185-1.635,5.174-1.567,5.257l10.27,10.269c0.476,0.475,1.026,0.706,1.683,0.706c1.176,0,2.223-0.75,2.232-0.757
									l16.518-16.529L5.063-74.218z"/>
							</g>
						</g>
						<g>
							<g>
								<path fill="#231F20" d="M4.042-40.667L4.042-40.667c-0.133,0-0.26-0.053-0.354-0.146C2.89-41.611,2.397-42.625,2.3-43.667
									c-0.083-0.894,0.13-1.72,0.606-2.375l-0.584-0.584c-0.195-0.195-0.195-0.512,0-0.707c0.195-0.195,0.512-0.195,0.707,0
									l0.584,0.584c0.656-0.476,1.489-0.691,2.375-0.606c1.043,0.097,2.056,0.589,2.854,1.388c0.195,0.195,0.195,0.512,0,0.707
									l-2.224,2.225c-0.001,0-0.001,0.001-0.002,0.002l-2.222,2.221C4.302-40.72,4.175-40.667,4.042-40.667z M3.628-45.322
									c-0.27,0.438-0.386,0.978-0.332,1.562c0.062,0.657,0.33,1.305,0.768,1.864l1.495-1.494L3.628-45.322z M4.335-46.028
									l1.931,1.931l1.495-1.496c-0.559-0.438-1.206-0.706-1.863-0.767C5.315-46.414,4.775-46.298,4.335-46.028z"/>
							</g>
						</g>
						<g>
							<g>
								<path fill="#231F20" d="M0.05-56.986L0.05-56.986c-0.133,0-0.26-0.053-0.354-0.146l-4.693-4.695
									c-0.169-0.169-0.194-0.434-0.062-0.632c3.226-4.814,10.988-7.773,11.317-7.897c0.183-0.067,0.39-0.024,0.529,0.115
									l3.008,3.01c0.195,0.195,0.195,0.512,0,0.707l-9.393,9.393C0.31-57.039,0.183-56.986,0.05-56.986z M-3.993-62.238
									l4.043,4.045l8.686-8.686l-2.422-2.424C4.9-68.727-1.171-66.092-3.993-62.238z"/>
							</g>
						</g>
						<g>
							<g>
								<path fill="#231F20" d="M7.768-61.822c-0.128,0-0.256-0.049-0.354-0.146c-0.195-0.195-0.195-0.512,0-0.707l3.116-3.115
									c0.195-0.195,0.512-0.195,0.707,0c0.195,0.195,0.195,0.512,0,0.707l-3.116,3.115C8.023-61.871,7.896-61.822,7.768-61.822z"
									/>
							</g>
						</g>
						<g>
							<g>
								<path fill="#231F20" d="M9.046-60.542c-0.128,0-0.256-0.049-0.354-0.146c-0.195-0.195-0.195-0.512,0-0.707l3.116-3.115
									c0.195-0.195,0.512-0.195,0.707,0c0.195,0.195,0.195,0.512,0,0.707l-3.116,3.115C9.302-60.591,9.174-60.542,9.046-60.542z"
									/>
							</g>
						</g>
						<g>
							<g>
								<path fill="#231F20" d="M0.949-45.037c-0.128,0-0.256-0.049-0.354-0.146l-1.183-1.182c-0.195-0.195-0.195-0.512,0-0.707
									c0.195-0.195,0.512-0.195,0.707,0l0.829,0.828l2.464-2.463l-0.828-0.83c-0.195-0.195-0.195-0.512,0-0.707
									c0.195-0.194,0.512-0.195,0.707,0.001l1.182,1.184c0.195,0.195,0.195,0.512,0,0.707l-3.171,3.17
									C1.205-45.085,1.077-45.037,0.949-45.037z"/>
							</g>
						</g>
					</g>
				</g>
				<g>
					<g>
						<g>
							<g>
								<path fill="#231F20" d="M30.062-61.367c-0.128,0-0.256-0.049-0.354-0.146l-3.811-3.809L12.07-81.866l-5.342-2.209
									c-0.154-0.063-0.267-0.2-0.299-0.364c-0.033-0.164,0.019-0.333,0.137-0.451L20.8-99.125c0.195-0.195,0.512-0.195,0.707,0
									c0.195,0.195,0.195,0.512,0,0.707L7.803-84.712l4.764,1.97c0.074,0.031,0.141,0.079,0.192,0.141l13.877,16.605l3.427,3.422
									l7.36-7.359c0.195-0.195,0.512-0.195,0.707,0c0.195,0.195,0.195,0.512,0,0.707l-7.714,7.713
									C30.318-61.416,30.19-61.367,30.062-61.367z"/>
							</g>
						</g>
						<g>
							<g>
								<path fill="#231F20" d="M37.776-69.08c-0.128,0-0.256-0.049-0.354-0.146c-0.195-0.195-0.195-0.512,0-0.707l7.359-7.361
									l-3.456-3.455c-0.195-0.195-0.195-0.512,0-0.707c0.195-0.195,0.512-0.195,0.707,0l3.81,3.809
									c0.094,0.094,0.146,0.221,0.146,0.354c0,0.132-0.053,0.26-0.146,0.354l-7.713,7.715
									C38.032-69.128,37.904-69.08,37.776-69.08z"/>
							</g>
						</g>
						<g>
							<g>
								<path fill="#231F20" d="M26.252-65.175c-0.128,0-0.256-0.049-0.354-0.146c-0.195-0.195-0.195-0.512,0-0.707l15.428-15.428
									c0.195-0.195,0.512-0.195,0.707,0c0.195,0.195,0.195,0.512,0,0.707L26.605-65.322C26.508-65.224,26.38-65.175,26.252-65.175
									z"/>
							</g>
						</g>
					</g>
				</g>
				<g>
					<g>
						<rect y="-79" fill="none" width="124" height="124"/>
					</g>
				</g>
			</g>
		</g>
		<g>
			<defs>
				<rect id="SVGID_3_" width="124" height="124"/>
			</defs>
			<clipPath id="SVGID_4_">
				<use xlink:href="#SVGID_3_"  overflow="visible"/>
			</clipPath>
			<g clip-path="url(#SVGID_4_)">
				<g>
					<g>
						<path fill="#231F20" d="M69.96,204.484c-0.133,0-0.26-0.053-0.354-0.146l-19.492-19.492c-0.195-0.195-0.195-0.512,0-0.707
							l31.768-31.77c0.188-0.188,0.521-0.188,0.707,0l19.493,19.492c0.094,0.094,0.146,0.221,0.146,0.354s-0.054,0.26-0.146,0.354
							l-31.77,31.771C70.221,204.432,70.093,204.484,69.96,204.484z M51.175,184.492l18.785,18.785l31.062-31.062L82.234,153.43
							L51.175,184.492z"/>
					</g>
				</g>
			</g>
		</g>
		<g>
			<defs>
				<rect id="SVGID_5_" width="124" height="124"/>
			</defs>
			<clipPath id="SVGID_6_">
				<use xlink:href="#SVGID_5_"  overflow="visible"/>
			</clipPath>
			<g clip-path="url(#SVGID_6_)">
				<g>
					<g>
						<g>
							<path fill="#231F20" d="M107.814,119.316c-0.133,0-0.26-0.053-0.354-0.146L80.18,91.916c-0.195-0.193-0.195-0.512,0-0.707
								l19.111-19.131c0.094-0.094,0.221-0.146,0.354-0.146l0,0c0.133,0,0.26,0.053,0.354,0.146l27.278,27.252
								c0.195,0.195,0.195,0.512,0,0.707L108.17,119.17C108.075,119.264,107.948,119.316,107.814,119.316L107.814,119.316z
								 M81.24,91.562l26.574,26.547l18.401-18.426L99.645,73.139L81.24,91.562z"/>
						</g>
					</g>
					<g>
						<g>
							<path fill="#231F20" d="M105.341,106.666c-2.596,0-5.039-1.012-6.88-2.846c-3.804-3.789-3.814-9.971-0.027-13.779
								c1.848-1.854,4.303-2.872,6.912-2.872c2.594,0,5.034,1.009,6.872,2.841c3.81,3.795,3.822,9.981,0.029,13.791
								C110.4,105.648,107.949,106.666,105.341,106.666z M105.346,88.169c-2.343,0-4.546,0.915-6.203,2.577
								c-3.399,3.418-3.39,8.966,0.023,12.367c1.652,1.646,3.846,2.553,6.175,2.553c2.341,0,4.542-0.914,6.198-2.572
								c3.402-3.418,3.393-8.97-0.025-12.376C109.861,89.074,107.673,88.169,105.346,88.169z"/>
						</g>
					</g>
					<g>
						<g>
							<path fill="#231F20" d="M105.342,104.893c-2.125,0-4.124-0.826-5.629-2.326c-1.51-1.504-2.343-3.504-2.346-5.633
								c-0.004-2.129,0.822-4.132,2.326-5.642c1.509-1.515,3.516-2.349,5.652-2.349c2.119,0,4.114,0.824,5.616,2.32
								c1.513,1.506,2.349,3.508,2.353,5.639c0.004,2.129-0.822,4.133-2.328,5.643C109.482,104.059,107.479,104.893,105.342,104.893
								z M105.346,89.943c-1.867,0-3.623,0.729-4.941,2.055c-1.316,1.32-2.039,3.072-2.036,4.934
								c0.002,1.861,0.729,3.611,2.051,4.926c1.317,1.312,3.065,2.035,4.924,2.035c1.868,0,3.621-0.729,4.937-2.053
								c1.316-1.32,2.041-3.072,2.037-4.936s-0.734-3.615-2.058-4.932C108.943,90.664,107.199,89.943,105.346,89.943z"/>
						</g>
					</g>
					<g>
						<g>
							<path fill="#231F20" d="M84.771,96.297c-0.127,0-0.256-0.049-0.354-0.146c-0.195-0.194-0.195-0.512,0-0.707l19.132-19.133
								c0.195-0.194,0.513-0.194,0.707,0c0.195,0.195,0.195,0.513,0,0.707L85.126,96.15C85.027,96.248,84.9,96.297,84.771,96.297z"
								/>
						</g>
					</g>
					<g>
						<g>
							<path fill="#231F20" d="M99.348,77.92c-0.312,0-0.606-0.122-0.828-0.344c-0.457-0.459-0.459-1.205-0.002-1.664
								c0.446-0.447,1.221-0.445,1.666,0.001c0.221,0.22,0.344,0.515,0.344,0.829s-0.123,0.609-0.344,0.832
								C99.958,77.798,99.662,77.92,99.348,77.92z M99.35,76.566c-0.026,0-0.08,0.007-0.125,0.052
								c-0.068,0.069-0.068,0.181,0.002,0.252c0.078,0.077,0.15,0.097,0.25-0.004c0.043-0.043,0.051-0.097,0.051-0.123
								c0-0.027-0.008-0.079-0.051-0.123C99.43,76.573,99.377,76.566,99.35,76.566z"/>
						</g>
					</g>
					<g>
						<g>
							<path fill="#231F20" d="M97.583,79.686c-0.313,0-0.608-0.121-0.83-0.343c-0.458-0.46-0.459-1.206-0.003-1.665
								c0.452-0.447,1.223-0.443,1.667,0.002c0.457,0.459,0.456,1.203-0.001,1.66C98.193,79.562,97.896,79.686,97.583,79.686z
								 M97.584,78.333c-0.027,0-0.082,0.007-0.128,0.052c-0.067,0.068-0.067,0.18,0.004,0.251c0.082,0.083,0.161,0.085,0.249-0.003
								c0.068-0.068,0.068-0.18-0.001-0.248C97.666,78.342,97.617,78.333,97.584,78.333z"/>
						</g>
					</g>
					<g>
						<g>
							<path fill="#231F20" d="M95.814,81.453c-0.313,0-0.607-0.122-0.83-0.344c-0.457-0.459-0.457-1.205-0.002-1.664
								c0.447-0.447,1.223-0.445,1.668,0c0.221,0.221,0.343,0.516,0.343,0.83c0,0.313-0.122,0.609-0.345,0.832
								C96.425,81.331,96.129,81.453,95.814,81.453z M95.816,80.1c-0.027,0-0.08,0.008-0.127,0.053
								c-0.067,0.068-0.067,0.181,0.004,0.252c0.076,0.076,0.149,0.097,0.25-0.004c0.043-0.043,0.05-0.096,0.05-0.123
								s-0.007-0.079-0.05-0.123C95.896,80.105,95.844,80.1,95.816,80.1z"/>
						</g>
					</g>
				</g>
				<g>
					<g>
						<g>
							<path fill="#231F20" d="M13.019,138.811c-0.033,0-0.066-0.002-0.099-0.01c-0.165-0.033-0.302-0.146-0.364-0.301
								l-6.041-14.846c-0.082-0.229-1.751-5.133,2.771-9.654l13.925-13.926c0.175-0.174,0.452-0.193,0.648-0.051l12.198,8.922
								c0.118,0.088,0.192,0.221,0.203,0.365c0.012,0.146-0.041,0.289-0.145,0.393l-4.221,4.222l3.254,2.106
								c0.127,0.083,0.21,0.218,0.226,0.367s-0.037,0.3-0.144,0.406l-21.859,21.858C13.277,138.76,13.149,138.811,13.019,138.811z
								 M23.615,101.085L9.993,114.707c-4.062,4.061-2.607,8.409-2.544,8.592l5.748,14.126l20.89-20.89l-3.254-2.107
								c-0.127-0.082-0.21-0.217-0.226-0.367c-0.016-0.149,0.037-0.299,0.144-0.406l4.245-4.244L23.615,101.085z"/>
						</g>
					</g>
					<g>
						<g>
							<path fill="#231F20" d="M11.208,134.404c-0.128,0-0.256-0.049-0.354-0.146c-0.195-0.195-0.195-0.512,0-0.707l19.896-19.896
								c0.195-0.195,0.512-0.195,0.707,0c0.195,0.194,0.195,0.512,0,0.706l-19.896,19.896
								C11.464,134.355,11.336,134.404,11.208,134.404z"/>
						</g>
					</g>
					<g>
						<g>
							<path fill="#231F20" d="M14.564,122.146c-0.021,0-0.043-0.002-0.064-0.004c-0.153-0.021-0.289-0.109-0.367-0.244
								c-0.102-0.174-2.451-4.285,0.078-6.816l6.655-6.656c0.188-0.188,0.52-0.188,0.707,0l3.105,3.105
								c0.195,0.195,0.195,0.512,0,0.707L14.918,122C14.823,122.096,14.696,122.146,14.564,122.146z M21.22,109.486l-6.302,6.303
								c-1.495,1.496-0.704,3.902-0.214,5.012l8.914-8.916L21.22,109.486z"/>
						</g>
					</g>
					<g>
						<g>
							<path fill="#231F20" d="M23.564,100.928c-0.276,0-0.5-0.223-0.5-0.5v-4.244c0-0.274,0.224-0.5,0.5-0.5s0.5,0.226,0.5,0.5
								v4.244C24.064,100.705,23.841,100.928,23.564,100.928z"/>
						</g>
					</g>
				</g>
				<g>
					<g>
						<path fill="#231F20" d="M39.042,149.129c-0.129,0-0.257-0.05-0.354-0.146l-3.82-3.819c-0.161-0.16-0.193-0.41-0.077-0.606
							c0.001-0.002,3.333-5.644,8.444-14.449c1.254-2.16,2.686-3.983,4.257-5.422c3.895-3.562,7.379-3.604,7.525-3.604
							c0.003,0,0.007,0,0.011,0c0.611,0,2.506,0.215,4.964,2.797c2.945,2.806,2.783,4.912,2.775,5.001
							c0.002,0.217-0.066,6.538-9.022,11.737c-8.809,5.11-14.449,8.444-14.449,8.444C39.217,149.105,39.129,149.129,39.042,149.129z
							 M35.85,144.729l3.272,3.272c1.332-0.785,6.56-3.862,14.121-8.252c8.46-4.911,8.526-10.856,8.526-10.917
							c0.003-0.061,0.087-1.803-2.484-4.249c-2.271-2.386-3.891-2.506-4.192-2.506c-0.106,0.002-3.317,0.043-6.925,3.344
							c-1.497,1.369-2.865,3.113-4.067,5.187C39.712,138.169,36.635,143.396,35.85,144.729z"/>
					</g>
				</g>
				<g>
					<g>
						<path fill="#231F20" d="M70.82,151.861c-0.119,0-0.238-0.043-0.334-0.129l-14.375-12.967c-0.205-0.185-0.222-0.5-0.036-0.705
							s0.501-0.223,0.706-0.037l14.021,12.647l1.396-1.396l-12.647-14.021c-0.186-0.205-0.169-0.521,0.036-0.707
							s0.521-0.168,0.706,0.037l12.966,14.375c0.18,0.197,0.172,0.5-0.018,0.688l-2.067,2.068
							C71.078,151.812,70.949,151.861,70.82,151.861z"/>
					</g>
				</g>
				<g>
					<g>
						<path fill="#231F20" d="M41.072,147.744c-0.128,0-0.256-0.049-0.354-0.146l-4.468-4.467c-0.195-0.195-0.195-0.512,0-0.707
							s0.512-0.195,0.707,0l4.468,4.467c0.195,0.195,0.195,0.512,0,0.707C41.328,147.695,41.2,147.744,41.072,147.744z"/>
					</g>
				</g>
				<g>
					<g>
						<g>
							<path fill="#231F20" d="M30.062,186.633c-0.128,0-0.256-0.049-0.354-0.146l-3.811-3.809L12.07,166.135l-5.342-2.209
								c-0.154-0.064-0.267-0.201-0.299-0.365c-0.033-0.162,0.019-0.332,0.137-0.451L20.8,148.875c0.195-0.195,0.512-0.195,0.707,0
								c0.195,0.195,0.195,0.512,0,0.707L7.803,163.287l4.764,1.971c0.074,0.03,0.141,0.078,0.192,0.141l13.877,16.605l3.427,3.422
								l7.36-7.359c0.195-0.194,0.512-0.194,0.707,0c0.195,0.195,0.195,0.513,0,0.707l-7.714,7.713
								C30.318,186.584,30.19,186.633,30.062,186.633z"/>
						</g>
					</g>
					<g>
						<g>
							<path fill="#231F20" d="M37.776,178.92c-0.128,0-0.256-0.049-0.354-0.146c-0.195-0.194-0.195-0.512,0-0.707l7.359-7.36
								l-3.456-3.455c-0.195-0.194-0.195-0.512,0-0.707c0.195-0.194,0.512-0.194,0.707,0l3.81,3.81
								c0.094,0.094,0.146,0.221,0.146,0.354s-0.053,0.26-0.146,0.354l-7.713,7.715C38.032,178.871,37.904,178.92,37.776,178.92z"/>
						</g>
					</g>
					<g>
						<g>
							<path fill="#231F20" d="M41.68,167.396c-0.115,0-0.231-0.039-0.326-0.121l-20.532-17.662
								c-0.105-0.09-0.168-0.221-0.174-0.359c-0.005-0.139,0.048-0.273,0.146-0.373l3.799-3.799c0.195-0.195,0.512-0.195,0.707,0
								l7.755,7.754c0.023,0.02,1.085,0.977,1.133,2.539c0.033,1.09-0.426,2.178-1.366,3.242l9.185,7.9
								c0.209,0.181,0.233,0.496,0.053,0.705C41.96,167.338,41.82,167.396,41.68,167.396z M21.882,149.207l10.182,8.758
								c0.768-0.865,1.146-1.72,1.125-2.545c-0.028-1.129-0.812-1.85-0.82-1.857l-7.422-7.42L21.882,149.207z"/>
						</g>
					</g>
					<g>
						<g>
							<path fill="#231F20" d="M26.252,182.824c-0.128,0-0.256-0.049-0.354-0.146c-0.195-0.195-0.195-0.512,0-0.707l15.428-15.428
								c0.195-0.195,0.512-0.195,0.707,0c0.195,0.195,0.195,0.512,0,0.707l-15.428,15.428
								C26.508,182.775,26.38,182.824,26.252,182.824z"/>
						</g>
					</g>
					<g>
						<g>
							<path fill="#231F20" d="M33.277,166.707c-0.128,0-0.256-0.049-0.354-0.146l-9.269-9.27c-0.195-0.195-0.195-0.512,0-0.707
								c0.195-0.195,0.512-0.195,0.707,0l9.269,9.27c0.195,0.195,0.195,0.513,0,0.707C33.533,166.658,33.405,166.707,33.277,166.707
								z"/>
						</g>
					</g>
				</g>
				<g>
					<g>
						<path fill="#231F20" d="M109.455,165.812c-0.67,0-1.297-0.261-1.768-0.73l-9.942-9.943c-0.472-0.47-0.729-1.098-0.729-1.768
							c0-0.669,0.26-1.297,0.729-1.768l3.387-3.388c0.574-0.573,0.688-1.434,0.247-1.875c-0.418-0.418-0.615-1-0.554-1.641
							c0.058-0.604,0.342-1.19,0.8-1.648l6.941-6.94c0.936-0.938,2.479-1.055,3.289-0.246c0.225,0.224,0.511,0.271,0.711,0.271
							c0.41,0,0.834-0.188,1.164-0.52l3.643-3.644c0.941-0.94,2.595-0.938,3.535,0l9.941,9.943c0.471,0.471,0.73,1.1,0.73,1.768
							c0,0.67-0.26,1.299-0.73,1.77l-19.627,19.628C110.752,165.553,110.124,165.812,109.455,165.812z M110.436,136.301
							c-0.408,0-0.832,0.189-1.162,0.518l-6.94,6.941c-0.295,0.295-0.478,0.662-0.513,1.036c-0.031,0.338,0.062,0.636,0.267,0.839
							c0.838,0.84,0.728,2.314-0.247,3.289l-3.387,3.387c-0.282,0.282-0.438,0.658-0.438,1.062s0.154,0.778,0.438,1.062l9.941,9.942
							c0.562,0.562,1.558,0.563,2.121,0l19.629-19.629c0.281-0.281,0.438-0.658,0.438-1.062c0-0.402-0.155-0.777-0.438-1.06
							l-9.942-9.944c-0.562-0.562-1.558-0.562-2.121,0.002l-3.644,3.642c-0.936,0.938-2.48,1.055-3.287,0.249
							C110.924,136.348,110.637,136.301,110.436,136.301z"/>
					</g>
				</g>
				<g>
					<g>
						<path fill="#231F20" d="M113.857,153.285c-1.385,0-2.687-0.537-3.668-1.514c-2.026-2.025-2.032-5.32-0.014-7.35
							c0.984-0.986,2.292-1.531,3.684-1.531c1.384,0,2.685,0.539,3.664,1.516c0.983,0.979,1.526,2.283,1.531,3.672
							c0.002,1.389-0.535,2.695-1.516,3.68C116.557,152.743,115.248,153.285,113.857,153.285z M113.859,143.893
							c-1.123,0-2.18,0.438-2.975,1.236c-1.632,1.637-1.627,4.299,0.012,5.934c0.791,0.789,1.844,1.224,2.961,1.224
							c1.123,0,2.18-0.438,2.975-1.234c0.791-0.794,1.227-1.85,1.223-2.971c-0.003-1.121-0.441-2.174-1.236-2.965
							C116.025,144.326,114.977,143.893,113.859,143.893z"/>
					</g>
				</g>
				<g>
					<g>
						<path fill="#231F20" d="M113.857,154.936c-1.823,0-3.539-0.709-4.83-1.996c-2.674-2.664-2.68-7.006-0.016-9.681
							c1.295-1.3,3.018-2.016,4.852-2.016c1.82,0,3.531,0.707,4.822,1.991c2.676,2.666,2.686,7.012,0.021,9.686
							C117.414,154.219,115.691,154.936,113.857,154.936z M113.863,142.243c-1.565,0-3.037,0.61-4.143,1.722
							c-2.275,2.283-2.271,5.991,0.012,8.266c1.104,1.101,2.567,1.705,4.125,1.705c1.565,0,3.037-0.61,4.141-1.721
							c2.275-2.283,2.268-5.994-0.018-8.271C116.879,142.848,115.417,142.243,113.863,142.243z"/>
					</g>
				</g>
				<g>
					<g>
						<g>
							<path fill="#231F20" d="M88.782,67.537c-0.128,0-0.257-0.049-0.354-0.146l-2.938-2.938c-0.195-0.195-0.195-0.512,0-0.707
								s0.512-0.195,0.707,0l2.938,2.938c0.195,0.195,0.195,0.512,0,0.707C89.038,67.488,88.91,67.537,88.782,67.537z"/>
						</g>
					</g>
					<g>
						<g>
							<path fill="#231F20" d="M84.205,72.115c-0.128,0-0.256-0.049-0.354-0.146c-0.195-0.195-0.195-0.512,0-0.707l9.154-9.156
								c0.195-0.195,0.512-0.195,0.707,0s0.195,0.512,0,0.707l-9.154,9.156C84.461,72.066,84.333,72.115,84.205,72.115z"/>
						</g>
					</g>
				</g>
				<g>
					<g>
						<path fill="#231F20" d="M69.96,80.484c-0.133,0-0.26-0.053-0.354-0.146L50.114,60.846c-0.195-0.195-0.195-0.512,0-0.707
							L81.882,28.37c0.188-0.188,0.521-0.188,0.707,0l19.493,19.492c0.094,0.094,0.146,0.221,0.146,0.354
							c0,0.133-0.054,0.26-0.146,0.354l-31.77,31.768C70.221,80.432,70.093,80.484,69.96,80.484z M51.175,60.492L69.96,79.277
							l31.062-31.062L82.234,29.43L51.175,60.492z"/>
					</g>
				</g>
				<g>
					<g>
						<g>
							<path fill="#231F20" d="M121.062,78.814c-0.922,0-1.728-0.336-2.391-1l-10.301-10.304c-0.121-0.141-2.268-2.771,1.6-6.637
								c3.592-3.59,18.311-11.803,18.936-12.151c0.195-0.108,0.438-0.074,0.597,0.083l11.37,11.367
								c0.094,0.094,0.146,0.221,0.146,0.354c0,0.133-0.054,0.26-0.146,0.354l-16.932,16.934
								C123.829,77.904,122.561,78.814,121.062,78.814z M129.062,49.782c-2.236,1.258-15.181,8.598-18.386,11.8
								c-3.186,3.186-1.635,5.174-1.567,5.258l10.271,10.268c0.476,0.477,1.026,0.707,1.683,0.707c1.176,0,2.224-0.75,2.232-0.758
								l16.518-16.529L129.062,49.782z"/>
						</g>
					</g>
					<g>
						<g>
							<path fill="#231F20" d="M128.042,83.332L128.042,83.332c-0.133,0-0.26-0.053-0.354-0.146
								c-0.797-0.797-1.291-1.812-1.388-2.854c-0.083-0.893,0.13-1.719,0.606-2.375l-0.584-0.584c-0.195-0.195-0.195-0.512,0-0.707
								s0.512-0.195,0.707,0l0.584,0.584c0.656-0.477,1.49-0.689,2.375-0.605c1.043,0.097,2.056,0.59,2.854,1.388
								c0.195,0.194,0.195,0.512,0,0.707l-2.224,2.225c-0.001,0.001-0.001,0.002-0.002,0.002l-2.222,2.222
								C128.302,83.279,128.175,83.332,128.042,83.332z M127.628,78.678c-0.271,0.439-0.386,0.979-0.332,1.562
								c0.062,0.656,0.33,1.305,0.769,1.863l1.494-1.494L127.628,78.678z M128.335,77.973l1.931,1.93l1.496-1.495
								c-0.56-0.438-1.207-0.705-1.863-0.767C129.316,77.583,128.775,77.701,128.335,77.973z"/>
						</g>
					</g>
					<g>
						<g>
							<path fill="#231F20" d="M124.05,67.014L124.05,67.014c-0.133,0-0.26-0.053-0.354-0.146l-4.692-4.695
								c-0.169-0.168-0.194-0.434-0.062-0.631c3.226-4.814,10.988-7.773,11.316-7.897c0.184-0.069,0.391-0.025,0.529,0.115
								l3.008,3.009c0.195,0.195,0.195,0.512,0,0.707l-9.393,9.393C124.311,66.961,124.184,67.014,124.05,67.014z M120.007,61.762
								l4.043,4.044l8.687-8.686l-2.422-2.424C128.9,55.273,122.829,57.908,120.007,61.762z"/>
						</g>
					</g>
					<g>
						<g>
							<path fill="#231F20" d="M131.768,62.178c-0.127,0-0.256-0.049-0.354-0.146c-0.195-0.195-0.195-0.512,0-0.707l3.115-3.115
								c0.195-0.195,0.513-0.195,0.707,0c0.195,0.195,0.195,0.512,0,0.707l-3.115,3.115
								C132.023,62.129,131.896,62.178,131.768,62.178z"/>
						</g>
					</g>
					<g>
						<g>
							<path fill="#231F20" d="M133.046,63.457c-0.128,0-0.256-0.049-0.354-0.146c-0.194-0.194-0.194-0.512,0-0.707l3.117-3.114
								c0.194-0.195,0.512-0.195,0.707,0c0.194,0.195,0.194,0.512,0,0.707l-3.117,3.115
								C133.302,63.408,133.174,63.457,133.046,63.457z"/>
						</g>
					</g>
					<g>
						<g>
							<path fill="#231F20" d="M109.053,63.031c-0.128,0-0.256-0.049-0.354-0.146l-1.324-1.324
								c-0.094-0.094-0.146-0.221-0.146-0.354s0.054-0.26,0.146-0.354l3.173-3.17c0.195-0.195,0.513-0.195,0.707,0l1.323,1.324
								c0.195,0.195,0.195,0.513,0,0.707c-0.195,0.195-0.512,0.195-0.707,0l-0.971-0.971l-2.465,2.463l0.971,0.971
								c0.195,0.195,0.195,0.513,0,0.707C109.309,62.982,109.182,63.031,109.053,63.031z"/>
						</g>
					</g>
					<g>
						<g>
							<path fill="#231F20" d="M124.949,78.963c-0.129,0-0.256-0.049-0.354-0.146l-1.184-1.182c-0.195-0.193-0.195-0.512,0-0.707
								s0.512-0.195,0.707,0l0.829,0.828l2.464-2.463l-0.828-0.83c-0.195-0.195-0.195-0.512,0-0.707
								c0.195-0.193,0.512-0.195,0.707,0.001l1.182,1.185c0.195,0.194,0.195,0.512,0,0.705l-3.17,3.17
								C125.205,78.914,125.077,78.963,124.949,78.963z"/>
						</g>
					</g>
				</g>
				<g>
					<g>
						<path fill="#231F20" d="M47.834,106.682L23.16,82.006l15.497-15.498l24.675,24.676L47.834,106.682z M24.574,82.006
							l23.26,23.262l14.084-14.084L38.657,67.922L24.574,82.006z"/>
					</g>
				</g>
				<g>
					<g>
						<path fill="#231F20" d="M31.301,90.146l-8.16-8.16L38.639,66.49l8.16,8.16L31.301,90.146z M24.555,81.986l6.746,6.746
							L45.385,74.65l-6.746-6.746L24.555,81.986z"/>
					</g>
				</g>
				<g>
					<g>
						
							<rect x="31.563" y="80.052" transform="matrix(-0.7071 -0.7071 0.7071 -0.7071 -3.2783 162.7271)" fill="#231F20" width="1" height="3.981"/>
					</g>
				</g>
				<g>
					<g>
						
							<rect x="37.389" y="92.572" transform="matrix(-0.707 -0.7072 0.7072 -0.707 1.4034 186.7259)" fill="#231F20" width="3.98" height="1"/>
					</g>
				</g>
				<g>
					<g>
						<g>
							<g>
								<path fill="#231F20" d="M87.203,139.049c-0.02,0-0.037,0-0.057-0.002c-0.149-0.018-0.285-0.102-0.367-0.23l-6.327-10.021
									c-0.125-0.196-0.097-0.455,0.069-0.621l4.246-4.245c0.194-0.195,0.512-0.195,0.707,0c0.194,0.194,0.194,0.512,0,0.706
									L81.51,128.6l5.781,9.155l5.65-5.651c0.195-0.195,0.512-0.195,0.707,0c0.194,0.194,0.194,0.512,0,0.707l-6.094,6.094
									C87.463,138.997,87.335,139.049,87.203,139.049z"/>
							</g>
						</g>
						<g>
							<g>
								<path fill="#231F20" d="M79.762,127.201c-0.107,0-0.217-0.035-0.307-0.105L64.7,115.678l-3.719-1.371
									c-0.16-0.061-0.279-0.197-0.315-0.363c-0.037-0.166,0.015-0.34,0.135-0.461l6.604-6.602c0.195-0.195,0.512-0.195,0.707,0
									s0.195,0.512,0,0.707l-6.05,6.051l3.058,1.127c0.048,0.019,0.093,0.043,0.133,0.074l14.469,11.195l3.492-3.494
									c0.195-0.195,0.512-0.195,0.707,0s0.195,0.512,0,0.707l-3.805,3.807C80.018,127.15,79.891,127.201,79.762,127.201z"/>
							</g>
						</g>
						<g>
							<g>
								<path fill="#231F20" d="M92.977,133.277c-0.129,0-0.256-0.049-0.354-0.146c-0.195-0.195-0.195-0.512,0-0.707l5.649-5.652
									l-9.152-5.778l-3.965,3.963c-0.195,0.194-0.512,0.194-0.707,0c-0.195-0.195-0.195-0.513,0-0.707l4.246-4.246
									c0.166-0.166,0.424-0.192,0.621-0.067l10.021,6.325c0.129,0.08,0.214,0.216,0.229,0.367
									c0.018,0.149-0.035,0.302-0.144,0.408l-6.093,6.096C93.23,133.229,93.104,133.277,92.977,133.277z"/>
							</g>
						</g>
						<g>
							<g>
								<path fill="#231F20" d="M83.189,123.771c-0.129,0-0.256-0.049-0.354-0.146c-0.194-0.195-0.194-0.512,0-0.707l3.485-3.486
									L72.857,102.84l-4.977,4.977c-0.195,0.195-0.512,0.195-0.707,0c-0.195-0.194-0.195-0.512,0-0.707l5.369-5.368
									c0.1-0.101,0.239-0.154,0.38-0.146c0.142,0.007,0.272,0.075,0.362,0.185l14.097,17.371c0.161,0.199,0.146,0.488-0.034,0.668
									l-3.806,3.808C83.445,123.723,83.316,123.771,83.189,123.771z"/>
							</g>
						</g>
						<g>
							<g>
								<path fill="#231F20" d="M77.34,125.326c-0.128,0-0.256-0.049-0.354-0.146c-0.195-0.195-0.195-0.512,0-0.707l2.017-2.018
									c0.195-0.195,0.513-0.195,0.707,0s0.194,0.512,0,0.707l-2.017,2.018C77.596,125.277,77.468,125.326,77.34,125.326z"/>
							</g>
						</g>
						<g>
							<g>
								<path fill="#231F20" d="M74.939,123.463c-0.129,0-0.256-0.049-0.354-0.146c-0.194-0.194-0.194-0.512,0-0.707l2.017-2.018
									c0.195-0.195,0.513-0.195,0.707,0c0.195,0.195,0.195,0.512,0,0.707l-2.017,2.018
									C75.195,123.414,75.066,123.463,74.939,123.463z"/>
							</g>
						</g>
						<g>
							<g>
								<path fill="#231F20" d="M72.661,121.475c-0.128,0-0.257-0.049-0.354-0.146c-0.195-0.195-0.195-0.513,0-0.707l1.715-1.715
									c0.195-0.195,0.513-0.195,0.707,0c0.195,0.194,0.195,0.512,0,0.707l-1.715,1.715
									C72.917,121.426,72.789,121.475,72.661,121.475z"/>
							</g>
						</g>
						<g>
							<g>
								<path fill="#231F20" d="M70.279,119.592c-0.127,0-0.256-0.049-0.354-0.146c-0.195-0.194-0.195-0.512,0-0.706l1.717-1.716
									c0.194-0.194,0.512-0.194,0.707,0c0.194,0.195,0.194,0.514,0,0.707l-1.717,1.715
									C70.536,119.543,70.408,119.592,70.279,119.592z"/>
							</g>
						</g>
						<g>
							<g>
								<path fill="#231F20" d="M67.802,117.807c-0.128,0-0.256-0.049-0.354-0.146c-0.195-0.194-0.195-0.513,0-0.707l2.018-2.021
									c0.195-0.194,0.513-0.194,0.707,0c0.195,0.195,0.195,0.512,0,0.707l-2.019,2.021
									C68.059,117.758,67.93,117.807,67.802,117.807z"/>
							</g>
						</g>
						<g>
							<g>
								<path fill="#231F20" d="M80.512,129.008c-0.379,0-0.734-0.146-1.003-0.412l-0.171-0.172
									c-0.268-0.267-0.415-0.623-0.415-1.002c-0.001-0.381,0.146-0.738,0.414-1.006l7.642-7.641c0.537-0.537,1.474-0.534,2.008,0
									l0.171,0.17c0.553,0.555,0.553,1.455,0.002,2.008l-7.644,7.641C81.248,128.861,80.893,129.008,80.512,129.008z
									 M87.98,119.359c-0.111,0-0.217,0.043-0.295,0.123l-7.643,7.641c-0.078,0.079-0.122,0.186-0.121,0.297
									c0,0.113,0.043,0.219,0.121,0.296l0.171,0.171c0.16,0.158,0.438,0.156,0.595,0l7.642-7.641
									c0.159-0.16,0.159-0.432-0.001-0.594l-0.172-0.17C88.199,119.402,88.094,119.359,87.98,119.359z"/>
							</g>
						</g>
						<g>
							<g>
								<path fill="#231F20" d="M62.984,112.124c-0.381,0-0.736-0.147-1.004-0.415l-0.171-0.172
									c-0.268-0.268-0.414-0.623-0.414-1.002c0-0.381,0.146-0.736,0.414-1.004l7.641-7.641c0.536-0.535,1.473-0.535,2.007,0
									l0.172,0.172c0.268,0.268,0.415,0.625,0.414,1.004c0,0.381-0.146,0.735-0.414,1.002l-7.643,7.641
									C63.721,111.977,63.363,112.124,62.984,112.124z M70.453,102.477c-0.112,0-0.219,0.043-0.296,0.121l-7.642,7.642
									c-0.078,0.079-0.121,0.184-0.121,0.297c0,0.11,0.043,0.217,0.121,0.295l0.172,0.172c0.156,0.158,0.437,0.158,0.592,0
									l7.643-7.642c0.078-0.077,0.121-0.182,0.121-0.295c0.001-0.111-0.043-0.217-0.121-0.297l-0.172-0.172
									C70.672,102.52,70.566,102.477,70.453,102.477z"/>
							</g>
						</g>
						<g>
							<g>
								<path fill="#231F20" d="M88.775,130.573c-0.705,0-1.366-0.274-1.864-0.772c-1.028-1.027-1.028-2.701,0-3.73
									c0.996-0.993,2.733-0.995,3.729,0c0.498,0.498,0.771,1.16,0.772,1.865c0,0.705-0.274,1.367-0.772,1.866
									C90.143,130.299,89.48,130.573,88.775,130.573z M88.775,126.299c-0.438,0-0.85,0.17-1.157,0.479
									c-0.64,0.64-0.64,1.679,0,2.316c0.616,0.618,1.696,0.619,2.315,0c0.31-0.309,0.479-0.721,0.479-1.158
									c-0.001-0.438-0.171-0.849-0.479-1.156C89.625,126.469,89.214,126.299,88.775,126.299z"/>
							</g>
						</g>
					</g>
					<g>
						<g>
							<path fill="#231F20" d="M90.539,129.033c-0.03,0-0.062-0.004-0.092-0.01l-2.102-0.388c-0.271-0.051-0.451-0.311-0.4-0.581
								c0.051-0.271,0.312-0.455,0.582-0.402l2.102,0.389c0.271,0.051,0.451,0.311,0.4,0.582
								C90.984,128.864,90.775,129.033,90.539,129.033z"/>
						</g>
					</g>
				</g>
			</g>
		</g>
		<g>
			<defs>
				<rect id="SVGID_7_" width="124" height="124"/>
			</defs>
			<clipPath id="SVGID_8_">
				<use xlink:href="#SVGID_7_"  overflow="visible"/>
			</clipPath>
			<g clip-path="url(#SVGID_8_)">
				<g>
					<g>
						<g>
							<path fill="#231F20" d="M-16.185,119.316c-0.133,0-0.26-0.053-0.354-0.146L-43.82,91.916c-0.195-0.193-0.195-0.512,0-0.707
								l19.111-19.131c0.094-0.094,0.221-0.146,0.354-0.146l0,0c0.133,0,0.26,0.053,0.354,0.146L3.277,99.33
								c0.195,0.195,0.195,0.512,0,0.707l-19.108,19.133C-15.925,119.264-16.052,119.316-16.185,119.316L-16.185,119.316z
								 M-42.76,91.562l26.575,26.547L2.217,99.686l-26.572-26.547L-42.76,91.562z"/>
						</g>
					</g>
				</g>
				<g>
					<g>
						<path fill="#231F20" d="M-14.545,165.812c-0.67,0-1.297-0.261-1.768-0.73l-9.942-9.943c-0.471-0.47-0.73-1.098-0.73-1.768
							c0-0.669,0.26-1.297,0.73-1.768l3.387-3.388c0.574-0.573,0.688-1.434,0.247-1.875c-0.418-0.418-0.615-1-0.554-1.641
							c0.058-0.604,0.342-1.19,0.8-1.648l6.941-6.94c0.936-0.938,2.48-1.055,3.289-0.246c0.225,0.224,0.511,0.271,0.712,0.271
							c0.41,0,0.834-0.188,1.163-0.52l3.643-3.644c0.942-0.94,2.595-0.938,3.535,0l9.942,9.943c0.471,0.471,0.73,1.1,0.73,1.768
							c0,0.67-0.26,1.299-0.73,1.77l-19.628,19.628C-13.248,165.553-13.876,165.812-14.545,165.812z M-13.564,136.301
							c-0.409,0-0.833,0.189-1.162,0.518l-6.941,6.941c-0.295,0.295-0.477,0.662-0.512,1.036c-0.032,0.338,0.062,0.636,0.266,0.839
							c0.838,0.84,0.727,2.314-0.247,3.289l-3.387,3.387c-0.282,0.282-0.438,0.658-0.438,1.062s0.155,0.778,0.438,1.062l9.942,9.942
							c0.562,0.562,1.557,0.563,2.121,0l19.628-19.629c0.282-0.281,0.438-0.658,0.438-1.062c0-0.402-0.155-0.777-0.438-1.06
							l-9.942-9.944c-0.562-0.562-1.557-0.562-2.121,0.002l-3.643,3.642c-0.936,0.938-2.48,1.055-3.288,0.249
							C-13.076,136.348-13.363,136.301-13.564,136.301z"/>
					</g>
				</g>
				<g>
					<g>
						<g>
							<path fill="#231F20" d="M-2.938,78.814c-0.922,0-1.727-0.336-2.39-1l-10.301-10.304c-0.121-0.141-2.268-2.771,1.599-6.637
								c3.592-3.59,18.311-11.803,18.936-12.151c0.195-0.108,0.438-0.074,0.597,0.083l11.37,11.367
								c0.094,0.094,0.146,0.221,0.146,0.354c0,0.133-0.053,0.26-0.146,0.354L-0.058,77.814C-0.171,77.904-1.44,78.814-2.938,78.814
								z M5.063,49.782c-2.237,1.258-15.181,8.598-18.386,11.8c-3.186,3.186-1.635,5.174-1.567,5.258l10.27,10.268
								c0.476,0.477,1.026,0.707,1.683,0.707c1.176,0,2.223-0.75,2.232-0.758l16.518-16.529L5.063,49.782z"/>
						</g>
					</g>
					<g>
						<g>
							<path fill="#231F20" d="M4.042,83.332L4.042,83.332c-0.133,0-0.26-0.053-0.354-0.146C2.89,82.389,2.397,81.374,2.3,80.332
								c-0.083-0.893,0.13-1.719,0.606-2.375l-0.584-0.584c-0.195-0.195-0.195-0.512,0-0.707c0.195-0.195,0.512-0.195,0.707,0
								l0.584,0.584c0.656-0.477,1.489-0.689,2.375-0.605c1.043,0.097,2.056,0.59,2.854,1.388c0.195,0.194,0.195,0.512,0,0.707
								l-2.224,2.225c-0.001,0.001-0.001,0.002-0.002,0.002l-2.222,2.222C4.302,83.279,4.175,83.332,4.042,83.332z M3.628,78.678
								c-0.27,0.439-0.386,0.979-0.332,1.562c0.062,0.656,0.33,1.305,0.768,1.863l1.495-1.494L3.628,78.678z M4.335,77.973
								l1.931,1.93l1.495-1.495c-0.559-0.438-1.206-0.705-1.863-0.767C5.315,77.583,4.775,77.701,4.335,77.973z"/>
						</g>
					</g>
					<g>
						<g>
							<path fill="#231F20" d="M0.05,67.014L0.05,67.014c-0.133,0-0.26-0.053-0.354-0.146l-4.693-4.695
								c-0.169-0.168-0.194-0.434-0.062-0.631c3.226-4.814,10.988-7.773,11.317-7.897c0.183-0.069,0.39-0.025,0.529,0.115
								l3.008,3.009c0.195,0.195,0.195,0.512,0,0.707l-9.393,9.393C0.31,66.961,0.183,67.014,0.05,67.014z M-3.993,61.762
								l4.043,4.044l8.686-8.686l-2.422-2.424C4.9,55.273-1.171,57.908-3.993,61.762z"/>
						</g>
					</g>
					<g>
						<g>
							<path fill="#231F20" d="M7.768,62.178c-0.128,0-0.256-0.049-0.354-0.146c-0.195-0.195-0.195-0.512,0-0.707l3.116-3.115
								c0.195-0.195,0.512-0.195,0.707,0c0.195,0.195,0.195,0.512,0,0.707l-3.116,3.115C8.023,62.129,7.896,62.178,7.768,62.178z"/>
						</g>
					</g>
					<g>
						<g>
							<path fill="#231F20" d="M9.046,63.457c-0.128,0-0.256-0.049-0.354-0.146c-0.195-0.194-0.195-0.512,0-0.707l3.116-3.114
								c0.195-0.195,0.512-0.195,0.707,0c0.195,0.195,0.195,0.512,0,0.707l-3.116,3.115C9.302,63.408,9.174,63.457,9.046,63.457z"/>
						</g>
					</g>
					<g>
						<g>
							<path fill="#231F20" d="M0.949,78.963c-0.128,0-0.256-0.049-0.354-0.146l-1.183-1.182c-0.195-0.193-0.195-0.512,0-0.707
								c0.195-0.195,0.512-0.195,0.707,0l0.829,0.828l2.464-2.463l-0.828-0.83c-0.195-0.195-0.195-0.512,0-0.707
								c0.195-0.193,0.512-0.195,0.707,0.001l1.182,1.185c0.195,0.194,0.195,0.512,0,0.705l-3.171,3.17
								C1.205,78.914,1.077,78.963,0.949,78.963z"/>
						</g>
					</g>
				</g>
			</g>
		</g>
		<g>
			<defs>
				<rect id="SVGID_9_" width="124" height="124"/>
			</defs>
			<clipPath id="SVGID_10_">
				<use xlink:href="#SVGID_9_"  overflow="visible"/>
			</clipPath>
			<g clip-path="url(#SVGID_10_)">
				<g>
					<g>
						<g>
							<path fill="#231F20" d="M30.062,62.633c-0.128,0-0.256-0.049-0.354-0.146l-3.811-3.809L12.07,42.134l-5.342-2.209
								c-0.154-0.063-0.267-0.2-0.299-0.364c-0.033-0.164,0.019-0.333,0.137-0.451L20.8,24.875c0.195-0.195,0.512-0.195,0.707,0
								c0.195,0.195,0.195,0.512,0,0.707L7.803,39.288l4.764,1.97c0.074,0.031,0.141,0.079,0.192,0.141l13.877,16.605l3.427,3.422
								l7.36-7.359c0.195-0.195,0.512-0.195,0.707,0c0.195,0.195,0.195,0.511,0,0.707l-7.714,7.713
								C30.318,62.584,30.19,62.633,30.062,62.633z"/>
						</g>
					</g>
					<g>
						<g>
							<path fill="#231F20" d="M37.776,54.92c-0.128,0-0.256-0.049-0.354-0.146c-0.195-0.195-0.195-0.511,0-0.707l7.359-7.361
								l-3.456-3.455c-0.195-0.195-0.195-0.512,0-0.707c0.195-0.195,0.512-0.195,0.707,0l3.81,3.809
								c0.094,0.094,0.146,0.221,0.146,0.354c0,0.132-0.053,0.26-0.146,0.354l-7.713,7.714C38.032,54.871,37.904,54.92,37.776,54.92
								z"/>
						</g>
					</g>
					<g>
						<g>
							<path fill="#231F20" d="M26.252,58.824c-0.128,0-0.256-0.049-0.354-0.146c-0.195-0.195-0.195-0.512,0-0.707l15.428-15.427
								c0.195-0.195,0.512-0.195,0.707,0c0.195,0.195,0.195,0.512,0,0.707L26.605,58.678C26.508,58.775,26.38,58.824,26.252,58.824z
								"/>
						</g>
					</g>
				</g>
			</g>
		</g>
		<g>
			<defs>
				<rect id="SVGID_11_" width="124" height="124"/>
			</defs>
			<clipPath id="SVGID_12_">
				<use xlink:href="#SVGID_11_"  overflow="visible"/>
			</clipPath>
			<g clip-path="url(#SVGID_12_)">
				<g>
					<rect y="45" fill="none" width="124" height="124"/>
				</g>
			</g>
		</g>
	</g>
</g>
</svg>
