<?xml version="1.0" encoding="utf-8"?>
<!-- Generator: Adobe Illustrator 16.0.0, SVG Export Plug-In . SVG Version: 6.00 Build 0)  -->
<!DOCTYPE svg PUBLIC "-//W3C//DTD SVG 1.1//EN" "http://www.w3.org/Graphics/SVG/1.1/DTD/svg11.dtd">
<svg version="1.1" id="Layer_1" xmlns="http://www.w3.org/2000/svg" xmlns:xlink="http://www.w3.org/1999/xlink" x="0px" y="0px"
	 width="40px" height="40px" viewBox="0 0 40 40" enable-background="new 0 0 40 40" xml:space="preserve">
<path fill="#696767" d="M35.831,23.045c0.01-0.019,0.018-0.037,0.023-0.058c0.068-0.14,0.071-0.303-0.045-0.419l-3.02-3.023
	c-0.111-0.111-0.266-0.11-0.401-0.053h-0.125c0-0.006,0.004-0.012,0.004-0.019c0.002-1.095-0.889-1.989-1.989-1.992
	c-1.095,0.003-1.987,0.896-1.991,1.989c0,0.007,0.004,0.014,0.004,0.021H17.147c0.08-0.651,0.377-1.21,0.899-1.702
	c2.66-2.5,9.996-2.076,10.051-2.073c0.095,0.011,0.924,0.089,1.489-0.416c0.217-0.193,0.476-0.553,0.476-1.167
	c0-1.229-1.002-1.675-1.675-1.675h-3.123c-16.96,0-18.652,12.734-18.794,14.268l-2.273,2.166c-0.149,0.143-0.155,0.38-0.013,0.53
	c0.073,0.077,0.173,0.116,0.271,0.116c0.03,0,0.055-0.026,0.085-0.034c0.047,0.021,0.098,0.034,0.152,0.034h26.754
	c0.207,0,0.375-0.168,0.375-0.375v-0.479c0-0.057-0.015-0.108-0.037-0.157c0.022-0.048,0.037-0.1,0.037-0.156V27.05
	c0.02-0.044,0.03-0.093,0.031-0.144c0.003-0.149,0.104-3.658,3.649-3.658c0.117,0,0.218-0.057,0.286-0.142
	c0.006-0.005,0.015-0.003,0.02-0.008C35.823,23.084,35.819,23.062,35.831,23.045z M29.037,19.474c0.002-0.683,0.56-1.24,1.241-1.242
	c0.685,0.002,1.241,0.558,1.239,1.24c0,0.007,0.004,0.013,0.004,0.021h-2.488C29.034,19.486,29.037,19.48,29.037,19.474z
	 M31.109,28.529c-0.022,0.049-0.037,0.101-0.037,0.157v0.104H5.394l1.59-1.515h24.089v1.098
	C31.072,28.43,31.087,28.481,31.109,28.529z M31.135,26.525H7.244c0.118-0.994,0.597-3.729,2.438-6.448
	c3.045-4.493,8.433-6.868,15.582-6.868h3.121c0.154,0.002,0.927,0.056,0.927,0.925c0,0.273-0.073,0.471-0.223,0.606
	c-0.268,0.24-0.75,0.248-0.926,0.229c-0.314-0.019-7.732-0.448-10.63,2.273c-0.77,0.723-1.159,1.605-1.159,2.624
	c0,0.207,0.168,0.375,0.375,0.375h15.675l2.311,2.312C31.861,22.951,31.258,25.548,31.135,26.525z"/>
</svg>
