<?xml version="1.0" encoding="utf-8"?>
<!-- Generator: Adobe Illustrator 16.0.0, SVG Export Plug-In . SVG Version: 6.00 Build 0)  -->
<!DOCTYPE svg PUBLIC "-//W3C//DTD SVG 1.1//EN" "http://www.w3.org/Graphics/SVG/1.1/DTD/svg11.dtd">
<svg version="1.1" id="Layer_1" xmlns="http://www.w3.org/2000/svg" xmlns:xlink="http://www.w3.org/1999/xlink" x="0px" y="0px"
	 width="124px" height="124px" viewBox="0 0 124 124" enable-background="new 0 0 124 124" xml:space="preserve">
<g opacity="0.1">
	<g>
		<g>
			<g>
				<defs>
					<rect id="SVGID_1_" width="124" height="124"/>
				</defs>
				<clipPath id="SVGID_2_">
					<use xlink:href="#SVGID_1_"  overflow="visible"/>
				</clipPath>
				<g clip-path="url(#SVGID_2_)">
					<g>
						<rect y="-79" fill="none" width="124" height="124"/>
					</g>
				</g>
			</g>
		</g>
		<rect fill="none" width="124" height="124"/>
		<rect fill="none" width="124" height="124"/>
		<rect fill="none" width="124" height="124"/>
		<g>
			<g>
				<defs>
					<rect id="SVGID_3_" width="124" height="124"/>
				</defs>
				<clipPath id="SVGID_4_">
					<use xlink:href="#SVGID_3_"  overflow="visible"/>
				</clipPath>
				<g clip-path="url(#SVGID_4_)">
					<path fill="#FFFFFF" d="M98.434-33.959c-3.787,3.809-3.776,9.991,0.027,13.781c1.841,1.834,4.284,2.844,6.88,2.844
						c2.608,0,5.06-1.018,6.906-2.865c3.793-3.81,3.78-9.996-0.029-13.791c-1.838-1.832-4.278-2.841-6.872-2.841
						C102.736-36.831,100.282-35.811,98.434-33.959z M111.539-20.906c-1.656,1.658-3.857,2.571-6.198,2.571
						c-2.329,0-4.522-0.906-6.175-2.552c-3.413-3.401-3.422-8.949-0.023-12.367c1.657-1.661,3.86-2.577,6.203-2.577
						c2.327,0,4.516,0.905,6.168,2.549C114.932-29.876,114.941-24.324,111.539-20.906z"/>
					<path fill="#FFFFFF" d="M99.693-32.708c-1.504,1.51-2.33,3.514-2.326,5.642c0.003,2.129,0.836,4.129,2.346,5.632
						c1.505,1.5,3.504,2.327,5.629,2.327c2.137,0,4.141-0.834,5.645-2.348c1.506-1.51,2.332-3.514,2.328-5.643
						c-0.004-2.13-0.84-4.133-2.354-5.639c-1.502-1.495-3.497-2.319-5.615-2.319C103.209-35.056,101.202-34.222,99.693-32.708z
						 M112.318-27.095c0.004,1.862-0.721,3.615-2.037,4.935c-1.316,1.324-3.069,2.053-4.938,2.053c-1.859,0-3.607-0.724-4.924-2.036
						c-1.322-1.314-2.049-3.064-2.051-4.925c-0.003-1.861,0.72-3.614,2.035-4.934c1.318-1.325,3.074-2.054,4.941-2.054
						c1.854,0,3.598,0.721,4.914,2.029C111.584-30.71,112.314-28.958,112.318-27.095z"/>
					<path fill="#FFFFFF" d="M104.193-47.73l-4.194-4.19c-0.095-0.093-0.222-0.146-0.354-0.146s-0.26,0.052-0.354,0.146L80.18-32.79
						c-0.195,0.195-0.195,0.512,0,0.707l4.236,4.232c0,0,0,0.001,0.001,0.002s0.001,0,0.002,0.001L107.46-4.829
						c0.095,0.093,0.222,0.146,0.354,0.146c0.134,0,0.261-0.053,0.354-0.147l19.108-19.132c0.195-0.195,0.195-0.512,0-0.707
						l-22.98-22.958c-0.015-0.021-0.022-0.044-0.041-0.062C104.237-47.708,104.214-47.716,104.193-47.73z M99.645-50.861l3.54,3.537
						L84.771-28.911l-3.531-3.527L99.645-50.861z M107.814-5.89L85.479-28.203l18.412-18.415l22.323,22.303L107.814-5.89z"/>
					<path fill="#FFFFFF" d="M99.348-46.08c0.314,0,0.61-0.122,0.836-0.345c0.221-0.223,0.344-0.518,0.344-0.833
						c0-0.314-0.123-0.609-0.344-0.829c-0.445-0.446-1.22-0.448-1.666-0.001c-0.457,0.459-0.455,1.206,0.002,1.665
						C98.742-46.202,99.036-46.08,99.348-46.08z M99.225-47.382c0.045-0.045,0.1-0.051,0.125-0.051c0.027,0,0.08,0.006,0.127,0.053
						c0.043,0.044,0.051,0.096,0.051,0.123c0,0.027-0.008,0.08-0.051,0.123c-0.1,0.101-0.172,0.081-0.25,0.004
						C99.157-47.201,99.157-47.313,99.225-47.382z"/>
					<path fill="#FFFFFF" d="M97.583-44.314c0.313,0,0.61-0.123,0.833-0.345c0.457-0.458,0.458-1.203,0.001-1.662
						c-0.444-0.445-1.215-0.449-1.667-0.001c-0.456,0.459-0.455,1.206,0.003,1.665C96.975-44.436,97.27-44.314,97.583-44.314z
						 M97.456-45.615c0.046-0.045,0.101-0.052,0.128-0.052c0.033,0,0.082,0.009,0.124,0.051c0.069,0.069,0.069,0.181,0.001,0.249
						c-0.088,0.087-0.167,0.085-0.249,0.002C97.389-45.435,97.389-45.547,97.456-45.615z"/>
					<path fill="#FFFFFF" d="M94.984-42.89c0.223,0.221,0.517,0.343,0.83,0.343c0.314,0,0.61-0.122,0.834-0.345
						c0.223-0.223,0.345-0.518,0.345-0.833c0-0.314-0.122-0.609-0.343-0.829c-0.445-0.446-1.221-0.448-1.668-0.001
						C94.527-44.096,94.527-43.349,94.984-42.89z M95.689-43.849c0.047-0.045,0.1-0.051,0.127-0.051s0.08,0.006,0.127,0.053
						c0.043,0.044,0.05,0.096,0.05,0.123s-0.007,0.08-0.05,0.123c-0.102,0.101-0.174,0.082-0.25,0.004
						C95.622-43.668,95.622-43.78,95.689-43.849z"/>
					<path fill="#FFFFFF" d="M20.866-15.573l-6.655,6.656c-2.529,2.53-0.18,6.643-0.078,6.816c0.078,0.134,0.214,0.224,0.367,0.244
						c0.021,0.003,0.043,0.004,0.064,0.004c0.132,0,0.259-0.052,0.354-0.147l9.76-9.761c0.195-0.195,0.195-0.512,0-0.707
						l-3.105-3.105C21.386-15.761,21.054-15.761,20.866-15.573z M14.704-3.199c-0.49-1.11-1.281-3.515,0.214-5.011l6.302-6.303
						l2.398,2.399L14.704-3.199z"/>
					<path fill="#FFFFFF" d="M23.064-23.779L9.286-10C4.764-5.479,6.433-0.574,6.515-0.346l4.212,10.351
						c0.012,0.058,0.034,0.112,0.066,0.163l1.763,4.332c0.062,0.156,0.199,0.269,0.364,0.302c0.033,0.007,0.066,0.01,0.099,0.01
						c0.13,0,0.258-0.052,0.353-0.146L35.23-7.196c0.107-0.107,0.16-0.256,0.144-0.406s-0.099-0.284-0.226-0.367l-3.254-2.107
						l4.221-4.221c0.104-0.103,0.157-0.246,0.145-0.392c-0.011-0.145-0.085-0.279-0.203-0.365l-11.993-8.772v-3.99
						c0-0.276-0.224-0.5-0.5-0.5s-0.5,0.224-0.5,0.5V-23.779z M34.087-7.466l-20.89,20.89l-1.389-3.412L31.173-9.353L34.087-7.466z
						 M30.751-10.346c-0.001,0.001-0.001,0.003-0.002,0.004L11.399,9.006l-3.95-9.708C7.386-0.884,5.931-5.232,9.993-9.292
						l13.622-13.623l11.381,8.323L30.751-10.346z"/>
					<path fill="#FFFFFF" d="M59.992-0.124c-2.458-2.582-4.353-2.796-4.964-2.796c-0.004,0-0.008,0-0.011,0
						c-0.146,0-3.63,0.042-7.525,3.604c-1.571,1.438-3.003,3.262-4.257,5.421c-5.111,8.808-8.443,14.449-8.444,14.45
						c-0.116,0.197-0.084,0.447,0.077,0.608l3.82,3.82c0.097,0.096,0.225,0.146,0.354,0.146c0.087,0,0.175-0.023,0.254-0.07
						c0,0,5.64-3.333,14.449-8.445c0.952-0.552,1.783-1.119,2.544-1.688l14.197,12.806c0.096,0.087,0.215,0.129,0.334,0.129
						c0.129,0,0.258-0.05,0.354-0.148l2.067-2.068c0.189-0.188,0.197-0.49,0.018-0.688L60.462,10.77
						c2.273-3.185,2.306-5.756,2.305-5.893C62.775,4.789,62.938,2.681,59.992-0.124z M39.122,24.001l-3.272-3.272
						c0.157-0.266,0.408-0.693,0.74-1.257l3.789,3.789C39.815,23.592,39.388,23.844,39.122,24.001z M72.199,25.275l-1.396,1.397
						L57.09,14.302c1.121-0.917,2.035-1.836,2.756-2.722L72.199,25.275z M61.769,4.832c0,0.06-0.066,6.006-8.526,10.917
						c-5.343,3.101-9.512,5.542-11.974,6.988l-4.156-4.156C38.559,16.119,41,11.95,44.101,6.606c1.202-2.072,2.57-3.816,4.067-5.185
						c3.608-3.301,6.819-3.342,6.925-3.344c0.301,0,1.921,0.12,4.192,2.505C61.856,3.03,61.772,4.772,61.769,4.832z"/>
					<path fill="#FFFFFF" d="M33.054,28.837l-7.755-7.754c-0.195-0.195-0.512-0.195-0.707,0l-3.799,3.799l0,0L6.566,39.11
						c-0.118,0.118-0.17,0.287-0.137,0.451c0.032,0.164,0.145,0.301,0.299,0.364l5.342,2.209l13.827,16.544l3.811,3.809
						c0.098,0.097,0.226,0.146,0.354,0.146s0.256-0.049,0.354-0.146l7.713-7.712l0,0l0,0l0,0l0,0l7.712-7.713
						c0.093-0.094,0.146-0.222,0.146-0.354c0-0.133-0.052-0.26-0.146-0.354l-3.807-3.806c-0.001-0.001-0.001-0.002-0.002-0.003
						c-0.005-0.005-0.012-0.006-0.017-0.011c-0.004-0.004-0.006-0.01-0.011-0.014l-9.185-7.901c0.94-1.064,1.399-2.153,1.366-3.242
						C34.139,29.813,33.077,28.856,33.054,28.837z M37.422,54.067c-0.001,0.001-0.001,0.002-0.002,0.003l-7.357,7.356l-3.105-3.101
						l14.721-14.72l3.102,3.101L37.422,54.067z M40.945,42.925l-14.66,14.659L12.759,41.399c-0.051-0.062-0.118-0.11-0.192-0.141
						l-4.764-1.97l13.369-13.372L40.945,42.925z M32.064,33.966l-10.182-8.758l3.065-3.064l7.422,7.419
						c0.008,0.007,0.792,0.729,0.82,1.857C33.21,32.246,32.832,33.101,32.064,33.966z"/>
					<path fill="#FFFFFF" d="M23.654,33.292l9.269,9.27c0.098,0.097,0.226,0.146,0.354,0.146s0.256-0.049,0.353-0.146
						c0.195-0.195,0.195-0.512,0-0.707l-9.269-9.27c-0.195-0.195-0.512-0.195-0.707,0C23.459,32.78,23.459,33.097,23.654,33.292z"/>
					<path fill="#FFFFFF" d="M109.455,41.812c0.669,0,1.297-0.259,1.768-0.73l19.627-19.628c0.469-0.471,0.729-1.098,0.729-1.768
						s-0.259-1.298-0.729-1.768l-9.941-9.943c-0.94-0.939-2.594-0.941-3.535,0l-3.643,3.643c-0.33,0.33-0.754,0.519-1.164,0.519
						c-0.2,0-0.486-0.048-0.711-0.271c-0.811-0.809-2.354-0.692-3.289,0.246l-6.941,6.941c-0.458,0.458-0.742,1.044-0.8,1.648
						c-0.062,0.641,0.136,1.224,0.554,1.642c0.441,0.441,0.327,1.3-0.247,1.875l-3.387,3.386c-0.47,0.471-0.729,1.098-0.729,1.768
						s0.258,1.298,0.729,1.768l9.942,9.943C108.158,41.553,108.785,41.812,109.455,41.812z M98.016,29.372
						c0-0.403,0.156-0.779,0.438-1.061l3.387-3.387c0.976-0.975,1.085-2.45,0.247-3.289c-0.205-0.203-0.298-0.501-0.268-0.839
						c0.035-0.374,0.219-0.742,0.514-1.036l6.939-6.941c0.33-0.329,0.754-0.518,1.162-0.518c0.201,0,0.488,0.047,0.715,0.273
						c0.808,0.806,2.352,0.688,3.287-0.249l3.645-3.642c0.562-0.563,1.559-0.562,2.121,0l9.941,9.944
						c0.283,0.281,0.438,0.657,0.438,1.06s-0.157,0.779-0.438,1.061l-19.629,19.628c-0.562,0.563-1.559,0.562-2.121,0l-9.94-9.944
						C98.17,30.151,98.016,29.775,98.016,29.372z"/>
					<path fill="#FFFFFF" d="M113.857,29.286c1.391,0,2.699-0.543,3.681-1.528c0.981-0.984,1.519-2.291,1.517-3.68
						c-0.006-1.388-0.549-2.692-1.531-3.671c-0.979-0.977-2.28-1.515-3.664-1.515c-1.393,0-2.7,0.544-3.685,1.531
						c-2.018,2.028-2.012,5.324,0.015,7.348C111.17,28.748,112.473,29.286,113.857,29.286z M110.884,21.129
						c0.796-0.798,1.853-1.237,2.976-1.237c1.117,0,2.166,0.434,2.959,1.224c0.795,0.791,1.233,1.844,1.236,2.965
						c0.004,1.121-0.432,2.177-1.223,2.971c-0.795,0.796-1.852,1.234-2.975,1.234c-1.117,0-2.17-0.434-2.961-1.223
						C109.257,25.428,109.252,22.766,110.884,21.129z"/>
					<path fill="#FFFFFF" d="M113.857,30.936c1.834,0,3.557-0.717,4.849-2.016c2.665-2.674,2.655-7.019-0.021-9.686
						c-1.291-1.284-3.002-1.991-4.822-1.991c-1.834,0-3.557,0.716-4.852,2.016c-2.664,2.675-2.658,7.017,0.016,9.68
						C110.318,30.227,112.034,30.936,113.857,30.936z M109.721,19.965c1.105-1.111,2.577-1.722,4.143-1.722
						c1.554,0,3.016,0.604,4.117,1.7c2.285,2.278,2.293,5.989,0.018,8.272c-1.104,1.11-2.576,1.721-4.141,1.721
						c-1.559,0-3.021-0.606-4.125-1.705C107.449,25.956,107.445,22.248,109.721,19.965z"/>
					<path fill="#FFFFFF" d="M69.605-43.661c0.095,0.093,0.222,0.146,0.354,0.146s0.261-0.053,0.353-0.146l15.531-15.531l2.23,2.231
						l-4.223,4.224c-0.195,0.195-0.195,0.512,0,0.707c0.098,0.097,0.226,0.146,0.354,0.146s0.256-0.049,0.354-0.146l9.153-9.156
						c0.195-0.195,0.195-0.512,0-0.707c-0.194-0.195-0.512-0.195-0.707,0l-4.224,4.225l-2.23-2.231l15.531-15.532
						c0.092-0.094,0.146-0.221,0.146-0.354c0-0.133-0.053-0.26-0.146-0.354L82.589-95.631c-0.187-0.188-0.519-0.188-0.707,0
						l-31.768,31.77c-0.195,0.195-0.195,0.512,0,0.707L69.605-43.661z M82.234-94.57l18.787,18.786l-15.53,15.531
						c-0.001,0-0.001,0-0.001,0s0,0,0,0.001l-15.53,15.53L51.175-63.507L82.234-94.57z"/>
					<path fill="#FFFFFF" d="M123.695-57.132c0.095,0.093,0.222,0.146,0.354,0.146c0.134,0,0.261-0.053,0.353-0.145l9.393-9.393
						c0.195-0.195,0.195-0.512,0-0.707l-3.008-3.01c-0.139-0.139-0.346-0.182-0.529-0.115c-0.328,0.124-8.09,3.083-11.316,7.897
						c-0.131,0.198-0.106,0.463,0.062,0.632L123.695-57.132z M130.314-69.303l2.422,2.424l-8.687,8.686l-4.043-4.045
						C122.829-66.092,128.9-68.727,130.314-69.303z"/>
					<path fill="#FFFFFF" d="M131.414-61.968c0.098,0.097,0.227,0.146,0.354,0.146c0.129,0,0.256-0.049,0.354-0.146l3.115-3.115
						c0.195-0.195,0.195-0.512,0-0.707c-0.194-0.195-0.512-0.195-0.707,0l-3.115,3.115C131.219-62.48,131.219-62.163,131.414-61.968
						z"/>
					<path fill="#FFFFFF" d="M132.691-60.688c0.099,0.097,0.227,0.146,0.354,0.146s0.256-0.049,0.353-0.146l3.117-3.115
						c0.194-0.195,0.194-0.512,0-0.707c-0.195-0.195-0.513-0.195-0.707,0l-3.117,3.115C132.498-61.2,132.498-60.883,132.691-60.688z
						"/>
					<path fill="#FFFFFF" d="M108.511-61.302c-1.736,2.848-0.241,4.697-0.141,4.814l10.301,10.303
						c0.663,0.663,1.47,0.999,2.392,0.999c1.201,0,2.243-0.579,2.672-0.857l0.861,0.86c0.098,0.097,0.225,0.146,0.354,0.146
						c0.128,0,0.256-0.048,0.353-0.145l1.232-1.232l0.372,0.372c-0.477,0.655-0.689,1.481-0.606,2.375
						c0.097,1.042,0.591,2.056,1.388,2.854c0.095,0.093,0.222,0.146,0.354,0.146s0.26-0.053,0.353-0.145l2.222-2.221
						c0.001-0.001,0.001-0.002,0.002-0.002l2.224-2.225c0.195-0.195,0.195-0.512,0-0.707c-0.798-0.799-1.811-1.291-2.854-1.388
						c-0.885-0.085-1.719,0.13-2.375,0.606l-0.372-0.372l1.231-1.231c0.194-0.195,0.194-0.512,0-0.707l-0.828-0.83l13.229-13.23
						c0.092-0.094,0.146-0.222,0.146-0.354c0-0.133-0.053-0.26-0.146-0.354l-11.37-11.367c-0.159-0.158-0.401-0.191-0.597-0.083
						c-0.525,0.292-11.015,6.146-16.476,10.137l-1.176-1.176c-0.194-0.195-0.512-0.195-0.707,0l-3.173,3.17
						c-0.092,0.094-0.146,0.221-0.146,0.354s0.053,0.26,0.146,0.354L108.511-61.302z M129.898-46.36
						c0.656,0.061,1.304,0.329,1.863,0.767l-1.496,1.496l-1.931-1.931C128.775-46.298,129.316-46.414,129.898-46.36z
						 M127.628-45.322l1.931,1.932l-1.494,1.494c-0.438-0.559-0.707-1.207-0.769-1.864
						C127.242-44.344,127.357-44.884,127.628-45.322z M127.411-48.707l-2.464,2.463l-0.474-0.473l2.464-2.464L127.411-48.707z
						 M129.062-74.218l10.75,10.747l-13.194,13.204c-0.011,0.009-0.024,0.013-0.035,0.023s-0.014,0.024-0.023,0.035l-3.106,3.109
						c-0.014,0.011-0.029,0.016-0.042,0.028s-0.017,0.029-0.028,0.042l-0.088,0.088c-0.008,0.007-1.057,0.757-2.232,0.757
						c-0.656,0-1.207-0.231-1.683-0.706L109.109-57.16c-0.068-0.083-1.619-2.072,1.566-5.257
						C113.881-65.62,126.826-72.96,129.062-74.218z M110.9-65.256l0.723,0.722c-0.671,0.518-1.238,0.995-1.652,1.409
						c-0.342,0.342-0.622,0.67-0.876,0.992l-0.659-0.66L110.9-65.256z"/>
					<path fill="#FFFFFF" d="M38.656-57.491l-0.017-0.018L23.141-42.013l0.048,0.048l24.645,24.647l15.498-15.498L38.656-57.491
						L38.656-57.491z M24.617-41.952l-0.042-0.042l14.082-14.083l6.729,6.728L31.301-35.267L24.617-41.952z M47.834-18.732
						L32.008-34.56l14.084-14.083l15.826,15.827L47.834-18.732z"/>
					
						<rect x="30.071" y="-42.455" transform="matrix(0.7071 -0.7071 0.7071 0.7071 39.0574 10.3827)" fill="#FFFFFF" width="3.981" height="1"/>
					
						<rect x="37.388" y="-31.423" transform="matrix(-0.7072 -0.707 0.707 -0.7072 89.0891 -24.9528)" fill="#FFFFFF" width="3.98" height="1"/>
					<path fill="#FFFFFF" d="M89.158-5.056l-0.172-0.17c-0.515-0.515-1.398-0.523-1.942-0.042L73.284-22.22
						c-0.091-0.11-0.22-0.178-0.362-0.185c-0.141-0.009-0.279,0.045-0.38,0.146l-0.676,0.676c-0.066-0.125-0.134-0.251-0.237-0.354
						l-0.172-0.172c-0.534-0.535-1.471-0.536-2.007,0l-7.641,7.641c-0.268,0.267-0.414,0.624-0.414,1.003s0.146,0.736,0.414,1.003
						l0.171,0.171c0.104,0.104,0.23,0.173,0.356,0.239l-1.536,1.535c-0.12,0.12-0.172,0.293-0.135,0.46
						c0.036,0.166,0.155,0.303,0.315,0.362L64.7-8.323L79.077,2.805c-0.094,0.191-0.155,0.396-0.154,0.616
						c0,0.38,0.147,0.736,0.415,1.003l0.171,0.17c0.269,0.267,0.624,0.414,1.003,0.414c0.023,0,0.044-0.012,0.066-0.013l6.201,9.821
						c0.082,0.128,0.218,0.213,0.367,0.23c0.02,0.002,0.037,0.003,0.057,0.003c0.132,0,0.26-0.052,0.352-0.146l5.77-5.77
						c0.002-0.001,0.004-0.001,0.005-0.003l6.091-6.094c0.109-0.107,0.162-0.258,0.145-0.409c-0.016-0.151-0.101-0.286-0.229-0.367
						l-9.789-6.18C89.584-4.326,89.467-4.744,89.158-5.056z M62.516-13.76l7.642-7.641c0.077-0.079,0.184-0.122,0.296-0.122
						c0.113,0,0.219,0.043,0.297,0.123l0.172,0.172c0.078,0.078,0.122,0.184,0.121,0.296c0,0.11-0.042,0.212-0.117,0.289
						l-3.753,3.752c-0.002,0.002-0.002,0.004-0.004,0.006l-3.89,3.889c-0.155,0.157-0.437,0.157-0.592,0l-0.172-0.172
						c-0.079-0.079-0.122-0.184-0.122-0.296C62.394-13.576,62.437-13.681,62.516-13.76z M65.12-9.235l-3.058-1.128l6.049-6.049
						c0.002-0.002,0.003-0.005,0.005-0.008l3.513-3.511c0.001,0,0.001-0.002,0.002-0.002l1.227-1.227L86.32-4.569L84.72-2.968
						l-5.002,5.003l-1.623-1.256l1.615-1.616c0.194-0.195,0.194-0.512,0-0.707c-0.194-0.195-0.512-0.195-0.707,0l-1.705,1.706
						L75.69-1.082l1.618-1.619c0.195-0.195,0.195-0.512,0-0.707c-0.193-0.195-0.512-0.195-0.707,0l-1.708,1.709l-1.607-1.245
						l1.442-1.442c0.195-0.195,0.195-0.512,0-0.707c-0.193-0.195-0.512-0.195-0.707,0L72.489-3.56l-1.607-1.244l1.468-1.465
						c0.193-0.195,0.193-0.512,0-0.707c-0.195-0.195-0.514-0.195-0.707,0l-1.558,1.555l-1.605-1.243l1.693-1.695
						c0.195-0.195,0.195-0.512,0-0.707c-0.194-0.195-0.512-0.195-0.707,0L67.683-7.28l-2.43-1.881
						C65.213-9.193,65.168-9.217,65.12-9.235z M80.042,3.716c-0.078-0.077-0.121-0.182-0.121-0.295
						c-0.001-0.113,0.043-0.218,0.121-0.297l0.062-0.062c0.003-0.003,0.007-0.004,0.01-0.007l3.805-3.806c0,0,0,0,0.001-0.001
						l1.162-1.163l2.604-2.604c0.078-0.079,0.184-0.122,0.295-0.122c0.113,0,0.219,0.043,0.297,0.123l0.172,0.17
						c0.16,0.161,0.16,0.432,0.001,0.593l-7.642,7.64c-0.158,0.157-0.436,0.158-0.596,0L80.042,3.716z M92.951,8.096
						c-0.003,0.003-0.007,0.003-0.01,0.006l-5.65,5.651L81.51,4.598l0.002-0.001c0.001-0.001,0.003-0.001,0.004-0.003l4.913-4.912
						l2.691-2.688l9.151,5.779L92.951,8.096z"/>
					<path fill="#FFFFFF" d="M86.911,2.071c-1.028,1.028-1.028,2.702,0,3.73c0.498,0.498,1.159,0.772,1.864,0.772
						s1.367-0.274,1.865-0.771c0.498-0.498,0.771-1.161,0.771-1.867c-0.001-0.705-0.273-1.367-0.771-1.864
						C89.645,1.074,87.907,1.076,86.911,2.071z M90.412,3.935c0,0.022-0.006,0.043-0.006,0.065l-1.879-0.347
						c-0.271-0.053-0.531,0.129-0.582,0.401s0.129,0.533,0.4,0.583l1.705,0.314C90.012,5,89.978,5.05,89.934,5.094
						c-0.619,0.619-1.699,0.617-2.315,0c-0.64-0.638-0.64-1.677,0-2.316c0.307-0.309,0.719-0.479,1.157-0.479s0.85,0.17,1.158,0.479
						C90.241,3.087,90.411,3.497,90.412,3.935z"/>
					<path fill="#FFFFFF" d="M-16.539-4.829c0.094,0.093,0.221,0.146,0.354,0.146c0.133,0,0.26-0.053,0.354-0.147L3.277-23.962
						c0.195-0.195,0.195-0.512,0-0.707l-27.278-27.252c-0.094-0.093-0.221-0.146-0.354-0.146s-0.26,0.052-0.354,0.146L-43.82-32.79
						c-0.195,0.195-0.195,0.512,0,0.707L-16.539-4.829z M-24.355-50.86L2.217-24.315L-16.185-5.89L-42.76-32.438L-24.355-50.86z"/>
					<path fill="#FFFFFF" d="M-26.255,27.604c-0.47,0.471-0.73,1.098-0.73,1.768s0.259,1.298,0.73,1.768l9.942,9.943
						c0.471,0.47,1.098,0.729,1.768,0.729c0.669,0,1.297-0.259,1.767-0.73L6.85,21.454c0.47-0.471,0.73-1.098,0.73-1.768
						s-0.259-1.298-0.73-1.768l-9.942-9.943c-0.94-0.939-2.593-0.941-3.535,0l-3.643,3.643c-0.329,0.33-0.753,0.519-1.163,0.519
						c-0.201,0-0.487-0.048-0.712-0.271c-0.809-0.809-2.353-0.692-3.289,0.246l-6.941,6.941c-0.458,0.458-0.742,1.044-0.8,1.648
						c-0.061,0.641,0.136,1.224,0.554,1.642c0.441,0.441,0.327,1.3-0.247,1.875L-26.255,27.604z M-21.913,21.635
						c-0.204-0.203-0.298-0.501-0.266-0.839c0.035-0.374,0.217-0.742,0.512-1.036l6.941-6.941c0.329-0.329,0.753-0.518,1.162-0.518
						c0.201,0,0.488,0.047,0.714,0.272c0.808,0.806,2.352,0.688,3.288-0.249l3.643-3.642c0.564-0.563,1.559-0.562,2.121,0
						l9.942,9.944c0.283,0.281,0.438,0.657,0.438,1.06s-0.156,0.779-0.438,1.061l-19.628,19.629c-0.564,0.563-1.559,0.562-2.121,0
						l-9.942-9.944c-0.283-0.281-0.438-0.657-0.438-1.06c0-0.403,0.156-0.779,0.438-1.061l3.387-3.387
						C-21.186,23.949-21.075,22.474-21.913,21.635z"/>
					<path fill="#FFFFFF" d="M-5.328-46.185c0.663,0.663,1.468,0.999,2.39,0.999c1.201,0,2.244-0.579,2.673-0.857l0.86,0.86
						c0.098,0.097,0.226,0.146,0.354,0.146c0.128,0,0.256-0.048,0.353-0.145l1.232-1.232l0.372,0.372
						C2.43-45.387,2.217-44.561,2.3-43.667c0.097,1.042,0.59,2.056,1.388,2.854c0.094,0.093,0.221,0.146,0.354,0.146
						s0.26-0.053,0.352-0.145l2.222-2.221c0.001-0.001,0.001-0.002,0.002-0.002l2.224-2.225c0.195-0.195,0.195-0.512,0-0.707
						c-0.798-0.799-1.811-1.291-2.854-1.388c-0.886-0.085-1.719,0.13-2.375,0.606l-0.372-0.372l1.232-1.231
						c0.195-0.195,0.195-0.512,0-0.707l-0.828-0.83l13.228-13.23c0.093-0.094,0.146-0.222,0.146-0.354
						c0-0.133-0.052-0.26-0.146-0.354L5.503-75.194c-0.159-0.158-0.402-0.191-0.597-0.083c-0.625,0.348-15.344,8.562-18.936,12.152
						c-3.867,3.865-1.72,6.496-1.599,6.637L-5.328-46.185z M5.898-46.36c0.657,0.061,1.304,0.329,1.863,0.767l-1.495,1.496
						l-1.931-1.931C4.775-46.298,5.315-46.414,5.898-46.36z M3.628-45.322l1.931,1.932l-1.495,1.494
						c-0.438-0.559-0.706-1.207-0.768-1.864C3.242-44.344,3.358-44.884,3.628-45.322z M3.412-48.707l-2.464,2.463l-0.474-0.474
						l2.464-2.464L3.412-48.707z M-13.322-62.417C-10.117-65.62,2.826-72.96,5.063-74.218l10.751,10.747L2.619-50.268
						c-0.011,0.009-0.025,0.013-0.035,0.023S2.57-50.22,2.561-50.209L-0.546-47.1c-0.014,0.011-0.03,0.016-0.042,0.028
						s-0.017,0.029-0.028,0.042l-0.088,0.088c-0.009,0.007-1.056,0.757-2.232,0.757c-0.657,0-1.207-0.231-1.683-0.706l-10.27-10.269
						C-14.957-57.243-16.508-59.232-13.322-62.417z"/>
					<path fill="#FFFFFF" d="M-0.304-57.132c0.094,0.093,0.221,0.146,0.354,0.146c0.133,0,0.26-0.053,0.352-0.145l9.393-9.393
						c0.195-0.195,0.195-0.512,0-0.707l-3.008-3.01c-0.139-0.139-0.346-0.182-0.529-0.115c-0.329,0.124-8.091,3.083-11.317,7.897
						c-0.132,0.198-0.107,0.463,0.062,0.632L-0.304-57.132z M6.314-69.303l2.422,2.424L0.05-58.193l-4.043-4.045
						C-1.171-66.092,4.9-68.727,6.314-69.303z"/>
					<path fill="#FFFFFF" d="M7.414-61.968c0.098,0.097,0.226,0.146,0.354,0.146s0.255-0.049,0.353-0.146l3.116-3.115
						c0.195-0.195,0.195-0.512,0-0.707c-0.195-0.195-0.512-0.195-0.707,0l-3.116,3.115C7.219-62.48,7.219-62.163,7.414-61.968z"/>
					<path fill="#FFFFFF" d="M8.692-60.688c0.098,0.097,0.226,0.146,0.354,0.146s0.256-0.049,0.353-0.146l3.116-3.115
						c0.195-0.195,0.195-0.512,0-0.707c-0.195-0.195-0.512-0.195-0.707,0l-3.116,3.115C8.497-61.2,8.497-60.883,8.692-60.688z"/>
					<path fill="#FFFFFF" d="M6.728-84.075l5.342,2.209l13.827,16.544l0,0c0,0,0,0.001,0.001,0.001s0.001,0,0.001,0.001l3.809,3.807
						c0.098,0.097,0.226,0.146,0.354,0.146s0.256-0.049,0.354-0.146l7.71-7.709c0.001-0.001,0.002-0.001,0.003-0.002l7.713-7.715
						c0.093-0.094,0.146-0.222,0.146-0.354c0-0.133-0.052-0.26-0.146-0.354l-3.807-3.806c-0.001-0.001-0.001-0.002-0.002-0.003
						c-0.098-0.098-0.226-0.146-0.354-0.146c-0.128,0-0.256,0.048-0.354,0.146c-0.001,0.001-0.001,0.002-0.002,0.003L26.286-66.416
						L12.759-82.601c-0.051-0.062-0.118-0.11-0.192-0.141l-4.764-1.97l13.704-13.706c0.195-0.195,0.195-0.512,0-0.707
						c-0.195-0.195-0.512-0.195-0.707,0L6.566-84.89c-0.118,0.118-0.17,0.287-0.137,0.451C6.461-84.275,6.574-84.138,6.728-84.075z
						 M37.422-69.933c-0.001,0.001-0.001,0.002-0.002,0.003l-7.357,7.356l-3.105-3.101l14.721-14.72l3.102,3.101L37.422-69.933z"/>
					<path fill="#FFFFFF" d="M82.589,152.369c-0.187-0.188-0.519-0.188-0.707,0l-31.768,31.77c-0.195,0.195-0.195,0.512,0,0.707
						l19.492,19.492c0.095,0.094,0.222,0.146,0.354,0.146s0.261-0.053,0.353-0.145l31.77-31.771
						c0.092-0.094,0.146-0.221,0.146-0.354s-0.053-0.26-0.146-0.354L82.589,152.369z M69.96,203.277l-18.785-18.785l31.06-31.062
						l18.787,18.785L69.96,203.277z"/>
					<path fill="#FFFFFF" d="M107.814,119.316c0.134,0,0.261-0.053,0.355-0.146l19.107-19.133c0.195-0.195,0.195-0.512,0-0.707
						l-22.981-22.959c-0.015-0.02-0.022-0.043-0.04-0.061s-0.041-0.025-0.061-0.04l-4.196-4.192
						c-0.095-0.094-0.222-0.146-0.354-0.146s-0.26,0.053-0.354,0.146L80.18,91.209c-0.195,0.195-0.195,0.514,0,0.707l4.235,4.23
						c0.001,0.002,0.001,0.003,0.002,0.004s0.002,0.001,0.003,0.002l23.04,23.018C107.555,119.264,107.682,119.316,107.814,119.316z
						 M107.814,118.109L85.479,95.797l18.412-18.415l22.323,22.302L107.814,118.109z M99.645,73.139l3.54,3.536L84.771,95.09
						l-3.53-3.527L99.645,73.139z"/>
					<path fill="#FFFFFF" d="M98.434,90.041c-3.787,3.809-3.776,9.99,0.027,13.779c1.841,1.834,4.284,2.846,6.88,2.846
						c2.608,0,5.06-1.018,6.906-2.865c3.793-3.81,3.78-9.996-0.029-13.791c-1.838-1.832-4.278-2.841-6.872-2.841
						C102.736,87.169,100.282,88.188,98.434,90.041z M111.539,103.094c-1.656,1.658-3.857,2.572-6.198,2.572
						c-2.329,0-4.522-0.907-6.175-2.553c-3.413-3.401-3.422-8.949-0.023-12.367c1.657-1.662,3.86-2.577,6.203-2.577
						c2.327,0,4.516,0.905,6.168,2.549C114.932,94.124,114.941,99.676,111.539,103.094z"/>
					<path fill="#FFFFFF" d="M99.693,91.292c-1.504,1.51-2.33,3.513-2.326,5.642c0.003,2.129,0.836,4.129,2.346,5.633
						c1.505,1.5,3.504,2.326,5.629,2.326c2.137,0,4.141-0.834,5.645-2.348c1.506-1.51,2.332-3.514,2.328-5.643
						c-0.004-2.131-0.84-4.133-2.354-5.639c-1.502-1.496-3.497-2.32-5.615-2.32C103.209,88.943,101.202,89.777,99.693,91.292z
						 M112.318,96.904c0.004,1.863-0.721,3.615-2.037,4.936c-1.316,1.324-3.069,2.053-4.938,2.053c-1.859,0-3.607-0.723-4.924-2.035
						c-1.322-1.314-2.049-3.064-2.051-4.926c-0.003-1.861,0.72-3.613,2.035-4.934c1.318-1.326,3.074-2.055,4.941-2.055
						c1.854,0,3.598,0.721,4.914,2.029C111.584,93.289,112.314,95.04,112.318,96.904z"/>
					<path fill="#FFFFFF" d="M99.348,77.92c0.314,0,0.61-0.122,0.836-0.346c0.221-0.223,0.344-0.518,0.344-0.832
						s-0.123-0.609-0.344-0.829c-0.445-0.446-1.22-0.448-1.666-0.001c-0.457,0.459-0.455,1.205,0.002,1.664
						C98.742,77.798,99.036,77.92,99.348,77.92z M99.225,76.618c0.045-0.045,0.1-0.052,0.125-0.052c0.027,0,0.08,0.007,0.127,0.054
						c0.043,0.044,0.051,0.096,0.051,0.123c0,0.026-0.008,0.08-0.051,0.123c-0.1,0.101-0.172,0.081-0.25,0.004
						C99.157,76.799,99.157,76.688,99.225,76.618z"/>
					<path fill="#FFFFFF" d="M97.583,79.686c0.313,0,0.61-0.123,0.833-0.346c0.457-0.457,0.458-1.201,0.001-1.66
						c-0.444-0.445-1.215-0.449-1.667-0.002c-0.456,0.459-0.455,1.205,0.003,1.665C96.975,79.564,97.27,79.686,97.583,79.686z
						 M97.456,78.385c0.046-0.045,0.101-0.052,0.128-0.052c0.033,0,0.082,0.009,0.124,0.052c0.069,0.068,0.069,0.18,0.001,0.248
						c-0.088,0.088-0.167,0.086-0.249,0.003C97.389,78.564,97.389,78.453,97.456,78.385z"/>
					<path fill="#FFFFFF" d="M94.984,81.109c0.223,0.222,0.517,0.344,0.83,0.344c0.314,0,0.61-0.122,0.834-0.346
						c0.223-0.224,0.345-0.52,0.345-0.832c0-0.314-0.122-0.609-0.343-0.83c-0.445-0.445-1.221-0.447-1.668,0
						C94.527,79.904,94.527,80.65,94.984,81.109z M95.689,80.152c0.047-0.045,0.1-0.053,0.127-0.053s0.08,0.006,0.127,0.055
						c0.043,0.045,0.05,0.097,0.05,0.123c0,0.027-0.007,0.08-0.05,0.123c-0.102,0.102-0.174,0.08-0.25,0.004
						C95.622,80.334,95.622,80.221,95.689,80.152z"/>
					<path fill="#FFFFFF" d="M10.728,134.007c0.012,0.056,0.033,0.106,0.063,0.156l1.765,4.337c0.062,0.155,0.199,0.268,0.364,0.301
						c0.033,0.008,0.066,0.01,0.099,0.01c0.13,0,0.258-0.051,0.352-0.148l21.859-21.857c0.107-0.106,0.16-0.258,0.144-0.406
						c-0.016-0.149-0.099-0.284-0.226-0.367l-3.254-2.106l4.221-4.222c0.104-0.104,0.157-0.247,0.145-0.393
						c-0.011-0.145-0.085-0.277-0.203-0.365l-11.993-8.771v-3.99c0-0.273-0.224-0.5-0.5-0.5s-0.5,0.227-0.5,0.5v4.037L9.286,114
						c-4.522,4.521-2.853,9.425-2.771,9.654L10.728,134.007z M34.087,116.535l-20.89,20.89l-1.389-3.414l19.364-19.364
						L34.087,116.535z M9.993,114.707l13.622-13.622l11.381,8.326l-4.245,4.243c0,0,0,0,0,0.001h0l-19.351,19.351l-3.95-9.707
						C7.386,123.116,5.931,118.768,9.993,114.707z"/>
					<path fill="#FFFFFF" d="M14.5,122.143c0.021,0.002,0.043,0.004,0.064,0.004c0.132,0,0.259-0.051,0.354-0.146l9.76-9.762
						c0.195-0.195,0.195-0.512,0-0.707l-3.105-3.105c-0.187-0.188-0.519-0.188-0.707,0l-6.655,6.656
						c-2.529,2.531-0.18,6.643-0.078,6.816C14.211,122.033,14.347,122.121,14.5,122.143z M14.918,115.789l6.302-6.303l2.398,2.398
						l-8.914,8.916C14.214,119.691,13.423,117.285,14.918,115.789z"/>
					<path fill="#FFFFFF" d="M38.688,148.982c0.097,0.097,0.225,0.146,0.354,0.146c0.087,0,0.175-0.023,0.254-0.066
						c0,0,5.64-3.334,14.449-8.444c0.953-0.553,1.785-1.119,2.547-1.689l14.194,12.804c0.096,0.086,0.215,0.129,0.334,0.129
						c0.129,0,0.258-0.049,0.354-0.147l2.067-2.067c0.19-0.188,0.198-0.491,0.018-0.688l-12.795-14.186
						c2.273-3.185,2.305-5.755,2.304-5.892c0.008-0.089,0.17-2.195-2.775-5.001c-2.458-2.582-4.353-2.797-4.964-2.797
						c-0.004,0-0.008,0-0.011,0c-0.146,0-3.63,0.042-7.525,3.604c-1.571,1.438-3.003,3.262-4.257,5.422
						c-5.111,8.805-8.443,14.447-8.444,14.449c-0.116,0.195-0.084,0.445,0.077,0.605L38.688,148.982z M72.198,149.273l-1.396,1.396
						l-13.709-12.366c1.121-0.917,2.035-1.836,2.755-2.722L72.198,149.273z M44.101,130.607c1.202-2.073,2.57-3.817,4.067-5.187
						c3.608-3.301,6.819-3.342,6.925-3.344c0.301,0,1.921,0.12,4.192,2.506c2.571,2.446,2.487,4.188,2.484,4.249
						c0,0.061-0.066,6.006-8.526,10.917c-5.342,3.102-9.51,5.542-11.972,6.988l-4.158-4.157
						C38.559,140.119,41,135.95,44.101,130.607z M36.59,143.471l3.79,3.79c-0.564,0.331-0.992,0.583-1.258,0.74l-3.272-3.272
						C36.007,144.463,36.259,144.035,36.59,143.471z"/>
					<path fill="#FFFFFF" d="M42.039,166.552c-0.002-0.003-0.003-0.006-0.006-0.009c-0.004-0.004-0.01-0.005-0.014-0.009
						c-0.005-0.005-0.007-0.012-0.013-0.017l-9.185-7.9c0.94-1.064,1.399-2.152,1.366-3.242c-0.048-1.562-1.11-2.52-1.133-2.539
						l-7.755-7.754c-0.195-0.195-0.512-0.195-0.707,0l-3.799,3.799l0,0L6.566,163.109c-0.118,0.119-0.17,0.289-0.137,0.451
						c0.032,0.164,0.145,0.301,0.299,0.365l5.342,2.209l13.827,16.543l3.811,3.809c0.098,0.098,0.226,0.146,0.354,0.146
						s0.256-0.049,0.354-0.146l7.705-7.703c0.002-0.003,0.006-0.004,0.008-0.006l7.713-7.715c0.093-0.094,0.146-0.221,0.146-0.354
						s-0.052-0.26-0.146-0.354L42.039,166.552z M24.947,146.143l7.422,7.42c0.008,0.008,0.792,0.729,0.82,1.857
						c0.021,0.825-0.357,1.68-1.125,2.545l-10.182-8.758L24.947,146.143z M12.567,165.258l-4.764-1.971l13.37-13.371l19.772,17.008
						l-14.66,14.66l-13.526-16.186C12.708,165.336,12.641,165.288,12.567,165.258z M37.422,178.066
						c-0.001,0.001-0.001,0.002-0.002,0.003l-7.357,7.356l-3.105-3.101l14.72-14.721l3.103,3.103L37.422,178.066z"/>
					<path fill="#FFFFFF" d="M32.923,166.561c0.098,0.098,0.226,0.146,0.354,0.146s0.256-0.049,0.353-0.146
						c0.195-0.193,0.195-0.512,0-0.707l-9.269-9.27c-0.195-0.195-0.512-0.195-0.707,0c-0.195,0.195-0.195,0.512,0,0.707
						L32.923,166.561z"/>
					<path fill="#FFFFFF" d="M120.908,131.973c-0.94-0.938-2.594-0.94-3.535,0l-3.643,3.644c-0.33,0.332-0.754,0.52-1.164,0.52
						c-0.2,0-0.486-0.047-0.711-0.271c-0.811-0.809-2.354-0.692-3.289,0.246l-6.941,6.939c-0.458,0.458-0.742,1.044-0.8,1.648
						c-0.062,0.641,0.136,1.223,0.554,1.641c0.441,0.441,0.327,1.303-0.247,1.875l-3.387,3.389c-0.47,0.471-0.729,1.099-0.729,1.768
						c0,0.67,0.258,1.298,0.729,1.768l9.942,9.943c0.471,0.469,1.098,0.73,1.768,0.73c0.669,0,1.297-0.26,1.768-0.731l19.627-19.628
						c0.469-0.471,0.729-1.1,0.729-1.77c0-0.668-0.259-1.298-0.729-1.769L120.908,131.973z M130.145,144.748l-19.629,19.629
						c-0.562,0.562-1.559,0.562-2.121,0l-9.94-9.941c-0.284-0.285-0.438-0.658-0.438-1.062s0.156-0.78,0.438-1.062l3.387-3.387
						c0.976-0.975,1.085-2.449,0.247-3.289c-0.205-0.203-0.298-0.501-0.268-0.839c0.035-0.374,0.219-0.741,0.514-1.036l6.939-6.941
						c0.33-0.328,0.754-0.518,1.162-0.518c0.201,0,0.488,0.047,0.715,0.274c0.808,0.806,2.352,0.688,3.287-0.249l3.645-3.643
						c0.562-0.563,1.559-0.563,2.121-0.002l9.941,9.944c0.283,0.283,0.438,0.658,0.438,1.06
						C130.583,144.09,130.426,144.467,130.145,144.748z"/>
					<path fill="#FFFFFF" d="M113.859,142.891c-1.393,0-2.7,0.545-3.685,1.53c-2.018,2.03-2.012,5.325,0.015,7.351
						c0.98,0.977,2.283,1.514,3.668,1.514c1.391,0,2.699-0.542,3.681-1.527c0.981-0.984,1.519-2.291,1.517-3.68
						c-0.006-1.389-0.549-2.693-1.531-3.672C116.544,143.43,115.243,142.891,113.859,142.891z M116.832,151.053
						c-0.795,0.797-1.852,1.234-2.975,1.234c-1.117,0-2.17-0.436-2.961-1.225c-1.64-1.635-1.645-4.297-0.013-5.934
						c0.796-0.798,1.853-1.236,2.976-1.236c1.117,0,2.166,0.434,2.959,1.225c0.795,0.791,1.233,1.844,1.236,2.965
						C118.059,149.203,117.623,150.259,116.832,151.053z"/>
					<path fill="#FFFFFF" d="M113.863,141.243c-1.834,0-3.557,0.716-4.852,2.016c-2.664,2.675-2.658,7.017,0.016,9.681
						c1.291,1.287,3.007,1.996,4.83,1.996c1.834,0,3.557-0.717,4.849-2.016c2.665-2.674,2.655-7.02-0.021-9.686
						C117.395,141.95,115.684,141.243,113.863,141.243z M117.998,152.215c-1.104,1.111-2.576,1.721-4.141,1.721
						c-1.559,0-3.021-0.604-4.125-1.705c-2.283-2.274-2.287-5.982-0.012-8.266c1.105-1.111,2.577-1.722,4.143-1.722
						c1.554,0,3.016,0.604,4.117,1.7C120.266,146.221,120.273,149.932,117.998,152.215z"/>
					<path fill="#FFFFFF" d="M102.082,48.57c0.092-0.094,0.146-0.221,0.146-0.354c0-0.133-0.053-0.26-0.146-0.354L82.589,28.37
						c-0.187-0.188-0.519-0.188-0.707,0L50.114,60.139c-0.195,0.195-0.195,0.512,0,0.707l19.492,19.492
						c0.095,0.094,0.222,0.146,0.354,0.146s0.261-0.053,0.353-0.146l15.531-15.531l2.23,2.23l-4.223,4.225
						c-0.195,0.195-0.195,0.512,0,0.707c0.098,0.098,0.226,0.146,0.354,0.146s0.256-0.049,0.354-0.146l9.153-9.156
						c0.195-0.194,0.195-0.512,0-0.707c-0.194-0.195-0.512-0.195-0.707,0l-4.224,4.224l-2.23-2.23L102.082,48.57z M69.96,79.277
						L51.175,60.492l31.06-31.062l18.787,18.785l-15.529,15.53c-0.001,0-0.002,0.001-0.002,0.001s-0.001,0.001-0.001,0.002
						L69.96,79.277z"/>
					<path fill="#FFFFFF" d="M129.503,48.805c-0.159-0.157-0.401-0.191-0.597-0.083c-0.525,0.292-11.016,6.146-16.477,10.136
						l-1.175-1.175c-0.194-0.195-0.512-0.195-0.707,0l-3.173,3.17c-0.092,0.094-0.146,0.221-0.146,0.354s0.053,0.26,0.146,0.354
						l1.136,1.135c-1.736,2.848-0.241,4.696-0.141,4.813l10.301,10.305c0.663,0.664,1.47,1,2.392,1c1.201,0,2.243-0.579,2.672-0.857
						l0.861,0.859c0.098,0.098,0.225,0.146,0.354,0.146c0.128,0,0.256-0.049,0.353-0.146l1.232-1.231l0.372,0.372
						c-0.477,0.656-0.689,1.482-0.606,2.375c0.097,1.042,0.591,2.057,1.388,2.854c0.095,0.094,0.222,0.146,0.354,0.146
						s0.26-0.053,0.353-0.143l2.222-2.223c0.001,0,0.001-0.001,0.002-0.002l2.224-2.225c0.195-0.195,0.195-0.514,0-0.707
						c-0.798-0.799-1.811-1.291-2.854-1.389c-0.885-0.084-1.719,0.129-2.375,0.605l-0.372-0.372l1.231-1.231
						c0.194-0.192,0.194-0.511,0-0.705l-0.829-0.83l13.229-13.231c0.092-0.094,0.146-0.221,0.146-0.354
						c0-0.133-0.053-0.26-0.146-0.354L129.503,48.805z M129.898,77.641c0.656,0.062,1.304,0.33,1.863,0.768l-1.496,1.494
						l-1.931-1.93C128.775,77.701,129.316,77.583,129.898,77.641z M127.628,78.678l1.931,1.932l-1.494,1.494
						c-0.438-0.559-0.707-1.207-0.769-1.863C127.242,79.657,127.357,79.117,127.628,78.678z M108.436,61.206l2.465-2.463
						l0.722,0.722c-0.671,0.518-1.237,0.995-1.651,1.408c-0.342,0.342-0.622,0.67-0.876,0.992L108.436,61.206z M127.411,75.293
						l-2.464,2.463l-0.474-0.474l2.464-2.464L127.411,75.293z M126.613,73.735c-0.009,0.009-0.021,0.012-0.03,0.021
						s-0.012,0.021-0.021,0.031l-3.113,3.115c-0.013,0.01-0.027,0.015-0.038,0.025s-0.015,0.025-0.024,0.037l-0.092,0.092
						c-0.008,0.008-1.057,0.758-2.232,0.758c-0.656,0-1.207-0.229-1.683-0.707L109.109,66.84c-0.068-0.084-1.619-2.072,1.566-5.258
						c3.205-3.202,16.15-10.542,18.387-11.8l10.75,10.746L126.613,73.735z"/>
					<path fill="#FFFFFF" d="M118.941,61.542c-0.131,0.197-0.106,0.463,0.062,0.631l4.691,4.695
						c0.095,0.093,0.222,0.146,0.354,0.146c0.134,0,0.261-0.053,0.353-0.145l9.393-9.393c0.195-0.195,0.195-0.512,0-0.707
						l-3.008-3.009c-0.139-0.14-0.346-0.184-0.529-0.115C129.93,53.769,122.168,56.728,118.941,61.542z M130.314,54.696l2.422,2.424
						l-8.687,8.687l-4.043-4.044C122.829,57.908,128.9,55.273,130.314,54.696z"/>
					<path fill="#FFFFFF" d="M131.414,62.032c0.098,0.097,0.227,0.146,0.354,0.146c0.129,0,0.256-0.049,0.354-0.146l3.115-3.115
						c0.195-0.195,0.195-0.512,0-0.707c-0.194-0.195-0.512-0.195-0.707,0l-3.115,3.115C131.219,61.52,131.219,61.837,131.414,62.032
						z"/>
					<path fill="#FFFFFF" d="M132.691,63.311c0.099,0.098,0.227,0.146,0.354,0.146s0.256-0.049,0.353-0.145l3.117-3.116
						c0.194-0.195,0.194-0.512,0-0.707c-0.195-0.195-0.513-0.195-0.707,0l-3.117,3.113
						C132.498,62.799,132.498,63.117,132.691,63.311z"/>
					<path fill="#FFFFFF" d="M47.834,106.682l15.498-15.498L38.657,66.508l0,0l-0.018-0.018L23.141,81.986l0.019,0.02l0,0
						L47.834,106.682z M45.385,74.65L31.301,88.732l-6.727-6.727l14.083-14.084L45.385,74.65z M47.834,105.268L32.008,89.439
						l14.084-14.082l15.826,15.826L47.834,105.268z"/>
					
						<rect x="30.072" y="81.544" transform="matrix(-0.707 0.7072 -0.7072 -0.707 112.7502 117.3785)" fill="#FFFFFF" width="3.981" height="1"/>
					
						<rect x="37.393" y="92.575" transform="matrix(-0.707 -0.7072 0.7072 -0.707 1.4089 186.734)" fill="#FFFFFF" width="3.98" height="1"/>
					<path fill="#FFFFFF" d="M79.338,128.424l0.171,0.172c0.269,0.266,0.624,0.412,1.003,0.412c0.023,0,0.043-0.012,0.066-0.013
						l6.201,9.821c0.082,0.129,0.218,0.213,0.367,0.23c0.02,0.002,0.037,0.002,0.057,0.002c0.132,0,0.26-0.052,0.352-0.145
						l5.768-5.768c0.002-0.002,0.004-0.002,0.006-0.004l6.093-6.096c0.108-0.105,0.162-0.26,0.144-0.408
						c-0.015-0.15-0.1-0.287-0.229-0.367l-9.789-6.178c0.039-0.407-0.077-0.826-0.389-1.139l-0.172-0.17
						c-0.515-0.516-1.4-0.524-1.944-0.041l-13.758-16.953c-0.091-0.11-0.22-0.178-0.362-0.186c-0.141-0.008-0.279,0.045-0.38,0.146
						l-0.676,0.676c-0.065-0.127-0.134-0.252-0.237-0.355l-0.172-0.172c-0.534-0.535-1.471-0.535-2.007,0l-7.641,7.641
						c-0.268,0.268-0.414,0.623-0.414,1.004c0,0.379,0.146,0.734,0.414,1.002l0.171,0.172c0.104,0.104,0.23,0.173,0.356,0.238
						l-1.535,1.535c-0.12,0.121-0.172,0.295-0.135,0.461c0.036,0.166,0.155,0.303,0.315,0.363l3.719,1.371l14.377,11.126
						c-0.093,0.191-0.155,0.397-0.154,0.618C78.923,127.801,79.07,128.157,79.338,128.424z M92.946,132.101
						c-0.001,0.001-0.003,0.001-0.005,0.003l-5.65,5.651L81.51,128.6l0.012-0.012l3.633-3.631l0,0l3.966-3.963l9.151,5.777
						L92.946,132.101z M87.98,119.359c0.113,0,0.219,0.043,0.297,0.123l0.172,0.17c0.16,0.162,0.16,0.434,0.001,0.594l-7.642,7.641
						c-0.158,0.156-0.436,0.158-0.596,0l-0.171-0.171c-0.078-0.077-0.121-0.183-0.121-0.296c-0.001-0.111,0.043-0.218,0.121-0.297
						l0.058-0.057c0.005-0.005,0.012-0.007,0.017-0.012l3.805-3.807l0,0l3.427-3.428l0,0l0.338-0.338
						C87.764,119.402,87.869,119.359,87.98,119.359z M62.516,110.24l7.642-7.643c0.077-0.078,0.184-0.121,0.296-0.121
						c0.113,0,0.219,0.043,0.297,0.121l0.172,0.172c0.078,0.08,0.122,0.187,0.121,0.297c0,0.113-0.043,0.219-0.121,0.295
						l-1.064,1.064l-2.685,2.684c-0.001,0.001-0.001,0.002-0.002,0.003l-3.892,3.892c-0.155,0.158-0.437,0.158-0.592,0l-0.172-0.172
						c-0.079-0.078-0.122-0.186-0.122-0.295C62.394,110.424,62.437,110.318,62.516,110.24z M65.12,114.766l-3.058-1.127l6.049-6.051
						c0.003-0.003,0.003-0.006,0.006-0.009l3.512-3.511v-0.001l1.229-1.228l13.463,16.592l-3.485,3.486l-0.001,0.001l-3.114,3.114
						l-1.624-1.257l1.614-1.614c0.194-0.195,0.194-0.512,0-0.707s-0.512-0.195-0.707,0l-1.704,1.705l-1.607-1.244l1.617-1.617
						c0.195-0.195,0.195-0.512,0-0.707c-0.193-0.195-0.512-0.195-0.707,0l-1.707,1.708l-1.607-1.244l1.441-1.441
						c0.195-0.195,0.195-0.513,0-0.707c-0.193-0.195-0.512-0.195-0.707,0l-1.531,1.532l-1.608-1.244l1.468-1.465
						c0.193-0.192,0.193-0.512,0-0.707c-0.195-0.193-0.514-0.193-0.707,0l-1.557,1.556l-1.606-1.243l1.693-1.695
						c0.195-0.195,0.195-0.513,0-0.707c-0.194-0.194-0.512-0.194-0.707,0l-1.783,1.786l-2.43-1.88
						C65.213,114.809,65.168,114.785,65.12,114.766z"/>
					<path fill="#FFFFFF" d="M86.911,126.07c-1.028,1.029-1.028,2.703,0,3.73c0.498,0.498,1.159,0.772,1.864,0.772
						s1.367-0.274,1.865-0.771c0.498-0.499,0.771-1.161,0.771-1.866c-0.001-0.705-0.273-1.367-0.771-1.865
						C89.645,125.076,87.907,125.078,86.911,126.07z M90.412,127.936c0,0.021-0.006,0.043-0.006,0.064l-1.879-0.348
						c-0.271-0.053-0.531,0.131-0.582,0.402c-0.051,0.27,0.129,0.529,0.4,0.58l1.706,0.315c-0.039,0.049-0.073,0.1-0.118,0.144
						c-0.619,0.619-1.699,0.618-2.315,0c-0.64-0.637-0.64-1.676,0-2.316c0.307-0.309,0.719-0.479,1.157-0.479s0.85,0.17,1.158,0.48
						C90.241,127.087,90.411,127.498,90.412,127.936z"/>
					<path fill="#FFFFFF" d="M-16.185,119.316c0.133,0,0.26-0.053,0.354-0.146l19.108-19.133c0.195-0.195,0.195-0.512,0-0.707
						l-27.278-27.252c-0.094-0.094-0.221-0.146-0.354-0.146s-0.26,0.053-0.354,0.146L-43.82,91.209
						c-0.195,0.195-0.195,0.514,0,0.707l27.281,27.254C-16.445,119.264-16.318,119.316-16.185,119.316z M-24.355,73.139
						L2.217,99.686l-18.402,18.424L-42.76,91.562L-24.355,73.139z"/>
					<path fill="#FFFFFF" d="M7.58,143.684c0-0.668-0.259-1.298-0.73-1.769l-9.942-9.942c-0.94-0.938-2.593-0.94-3.535,0
						l-3.643,3.644c-0.329,0.332-0.753,0.52-1.163,0.52c-0.201,0-0.487-0.047-0.712-0.271c-0.809-0.809-2.353-0.692-3.289,0.246
						l-6.941,6.939c-0.458,0.458-0.742,1.044-0.8,1.648c-0.061,0.641,0.136,1.223,0.554,1.641c0.441,0.441,0.327,1.303-0.247,1.875
						l-3.387,3.389c-0.47,0.471-0.73,1.099-0.73,1.768c0,0.67,0.259,1.298,0.73,1.768l9.942,9.943
						c0.471,0.469,1.098,0.73,1.768,0.73c0.669,0,1.297-0.26,1.767-0.731L6.85,145.453C7.32,144.982,7.58,144.354,7.58,143.684z
						 M6.144,144.748l-19.628,19.629c-0.564,0.562-1.559,0.562-2.121,0l-9.942-9.941c-0.283-0.285-0.438-0.658-0.438-1.062
						s0.156-0.78,0.438-1.062l3.387-3.387c0.974-0.975,1.085-2.449,0.247-3.289c-0.204-0.203-0.298-0.501-0.266-0.839
						c0.035-0.374,0.217-0.741,0.512-1.036l6.941-6.941c0.329-0.328,0.753-0.518,1.162-0.518c0.201,0,0.488,0.047,0.714,0.274
						c0.808,0.806,2.352,0.688,3.288-0.249l3.643-3.643c0.564-0.563,1.559-0.563,2.121-0.002l9.942,9.944
						c0.283,0.283,0.438,0.658,0.438,1.06C6.582,144.09,6.426,144.467,6.144,144.748z"/>
					<path fill="#FFFFFF" d="M2.3,80.332c0.097,1.042,0.59,2.057,1.388,2.854c0.094,0.094,0.221,0.146,0.354,0.146
						s0.26-0.053,0.352-0.143l2.222-2.223c0.001,0,0.001-0.001,0.002-0.002l2.224-2.225c0.195-0.195,0.195-0.514,0-0.707
						c-0.798-0.799-1.811-1.291-2.854-1.389c-0.886-0.084-1.719,0.129-2.375,0.605l-0.372-0.372l1.232-1.231
						c0.195-0.192,0.195-0.511,0-0.705l-0.829-0.83L16.873,60.88c0.093-0.094,0.146-0.221,0.146-0.354
						c0-0.133-0.052-0.26-0.146-0.354L5.503,48.805c-0.159-0.157-0.402-0.191-0.597-0.083C4.281,49.07-10.438,57.283-14.03,60.873
						c-3.867,3.866-1.72,6.496-1.599,6.637l10.301,10.305c0.663,0.664,1.468,1,2.39,1c1.201,0,2.244-0.579,2.672-0.857l0.861,0.859
						c0.098,0.098,0.226,0.146,0.354,0.146c0.128,0,0.256-0.049,0.353-0.146l1.232-1.231l0.373,0.372
						C2.43,78.613,2.217,79.439,2.3,80.332z M-4.62,77.107L-14.89,66.84c-0.068-0.084-1.619-2.072,1.567-5.258
						c3.205-3.202,16.149-10.542,18.386-11.8l10.75,10.746L2.612,73.737c-0.009,0.008-0.02,0.011-0.028,0.019
						c-0.008,0.009-0.011,0.02-0.019,0.028l-3.119,3.12c-0.011,0.01-0.024,0.014-0.035,0.023s-0.014,0.023-0.023,0.034l-0.094,0.095
						c-0.009,0.008-1.056,0.758-2.232,0.758C-3.594,77.814-4.144,77.585-4.62,77.107z M0.948,77.756l-0.474-0.474l2.464-2.465
						l0.474,0.476L0.948,77.756z M5.898,77.641c0.657,0.062,1.304,0.33,1.863,0.768l-1.495,1.494l-1.931-1.93
						C4.775,77.701,5.315,77.583,5.898,77.641z M3.628,78.678l1.931,1.932l-1.495,1.494c-0.438-0.559-0.706-1.207-0.768-1.863
						C3.242,79.657,3.358,79.117,3.628,78.678z"/>
					<path fill="#FFFFFF" d="M0.05,67.014c0.133,0,0.26-0.053,0.352-0.145l9.393-9.393c0.195-0.195,0.195-0.512,0-0.707L6.787,53.76
						c-0.139-0.14-0.346-0.184-0.529-0.115c-0.329,0.124-8.091,3.083-11.317,7.897c-0.132,0.197-0.107,0.463,0.062,0.631
						l4.693,4.695C-0.21,66.961-0.083,67.014,0.05,67.014z M6.314,54.696l2.422,2.424L0.05,65.807l-4.043-4.044
						C-1.171,57.908,4.9,55.273,6.314,54.696z"/>
					<path fill="#FFFFFF" d="M7.414,62.032c0.098,0.097,0.226,0.146,0.354,0.146s0.255-0.049,0.353-0.146l3.116-3.115
						c0.195-0.195,0.195-0.512,0-0.707c-0.195-0.195-0.512-0.195-0.707,0l-3.116,3.115C7.219,61.52,7.219,61.837,7.414,62.032z"/>
					<path fill="#FFFFFF" d="M8.692,63.311c0.098,0.098,0.226,0.146,0.354,0.146s0.256-0.049,0.353-0.145l3.116-3.116
						c0.195-0.195,0.195-0.512,0-0.707c-0.195-0.195-0.512-0.195-0.707,0l-3.116,3.113C8.497,62.799,8.497,63.117,8.692,63.311z"/>
				</g>
			</g>
		</g>
		<g>
			<g>
				<defs>
					<rect id="SVGID_5_" width="124" height="124"/>
				</defs>
				<clipPath id="SVGID_6_">
					<use xlink:href="#SVGID_5_"  overflow="visible"/>
				</clipPath>
				<g clip-path="url(#SVGID_6_)">
					<g>
						<rect y="45" fill="none" width="124" height="124"/>
					</g>
				</g>
			</g>
		</g>
	</g>
</g>
</svg>
