<?xml version="1.0" encoding="utf-8"?>
<!-- Generator: Adobe Illustrator 18.1.1, SVG Export Plug-In . SVG Version: 6.00 Build 0)  -->
<svg version="1.1" id="Слой_1" xmlns="http://www.w3.org/2000/svg" xmlns:xlink="http://www.w3.org/1999/xlink" x="0px" y="0px"
	 viewBox="0 0 90.1 31.5" enable-background="new 0 0 90.1 31.5" xml:space="preserve">
<g>
	<path fill="#FFFFFF" d="M19,6.7c0,3.7-3,8.3-6.7,8.3l0,0c-3.7,0-6.7-4.6-6.7-8.3l0,0C5.5,3,8.5,0,12.3,0l0,0C16,0,19,3,19,6.7
		L19,6.7z"/>
	<path fill="#FFFFFF" d="M24.5,26.4c0,5-6.1,5.1-12.3,5.1C6.1,31.5,0,31.4,0,26.4v-1.8C0,20.4,4.7,17,10.7,17h3.1
		c6.8,0,10.7,3.4,10.7,7.6V26.4z"/>
	<path opacity="0.3" fill="#FFFFFF" d="M84.6,6.7c0,3.7-3,8.3-6.7,8.3l0,0c-3.7,0-6.7-4.6-6.7-8.3l0,0c0-3.7,3-6.7,6.7-6.7l0,0
		C81.6,0,84.6,3,84.6,6.7L84.6,6.7z"/>
	<path opacity="0.3" fill="#FFFFFF" d="M90.1,26.4c0,5-6.1,5.1-12.3,5.1c-6.1,0-12.3-0.1-12.3-5.1v-1.8c0-4.2,4.7-7.6,10.7-7.6h3.1
		c6.8,0,10.7,3.4,10.7,7.6V26.4z"/>
</g>
</svg>
