<?xml version="1.0" encoding="utf-8"?>
<!-- Generator: Adobe Illustrator 18.1.1, SVG Export Plug-In . SVG Version: 6.00 Build 0)  -->
<svg version="1.1" id="Слой_1" xmlns="http://www.w3.org/2000/svg" xmlns:xlink="http://www.w3.org/1999/xlink" x="0px" y="0px"
	 viewBox="0 0 16 28.4" enable-background="new 0 0 16 28.4" xml:space="preserve">
<g>
	<path fill="#FFFFFF" d="M1.2,20.7c0,0,0,4.7,0,4.8h13.6c0-0.1,0-4.8,0-4.8c0-3-1.7-5.2-5-6.7c3.3-1.4,5-3.6,5-6.6c0,0,0-4.6,0-4.6
		c0,0-13.6,0-13.6,0l0,4.6c0,3,1.7,5.2,5,6.6C2.9,15.5,1.2,17.8,1.2,20.7z M2.4,7.5l0-3.4h11.2l0,3.4c0,2.9-1.8,4.8-5.6,6
		C4.2,12.3,2.4,10.3,2.4,7.5z M8,14.7c3.7,1.2,5.6,3.2,5.6,6l0,3.6H2.4l0-3.6C2.4,17.9,4.3,15.9,8,14.7z"/>
	<path opacity="0.5" fill="#FFFFFF" d="M16,0H0v1.2h16V0z"/>
	<path opacity="0.5" fill="#FFFFFF" d="M0,28.4h16v-1.2H0V28.4z"/>
</g>
</svg>
