<?xml version="1.0" encoding="utf-8"?>
<!-- Generator: Adobe Illustrator 16.0.0, SVG Export Plug-In . SVG Version: 6.00 Build 0)  -->
<!DOCTYPE svg PUBLIC "-//W3C//DTD SVG 1.1//EN" "http://www.w3.org/Graphics/SVG/1.1/DTD/svg11.dtd">
<svg version="1.1" id="Layer_1" xmlns="http://www.w3.org/2000/svg" xmlns:xlink="http://www.w3.org/1999/xlink" x="0px" y="0px"
	 width="40px" height="40px" viewBox="0 0 40 40" enable-background="new 0 0 40 40" xml:space="preserve">
<path fill="#FFFFFF" d="M22.602,20.002l3.072-3.082c0.867-0.869,0.463-1.549-0.248-2.261c-0.712-0.715-1.465-1.194-2.332-0.324
	l-3.069,3.08l-3.072-3.08c-0.867-0.87-1.555-0.485-2.266,0.229c-0.714,0.714-1.182,1.486-0.312,2.355l3.07,3.082l-3.07,3.08
	c-0.869,0.871-0.586,1.633,0.126,2.348c0.712,0.714,1.585,1.108,2.452,0.238l3.071-3.079l3.07,3.079
	c0.867,0.87,1.525,0.287,2.238-0.426c0.712-0.715,1.209-1.289,0.342-2.16L22.602,20.002z"/>
</svg>
