<?xml version="1.0" encoding="utf-8"?>
<!-- Generator: Adobe Illustrator 16.0.0, SVG Export Plug-In . SVG Version: 6.00 Build 0)  -->
<!DOCTYPE svg PUBLIC "-//W3C//DTD SVG 1.1//EN" "http://www.w3.org/Graphics/SVG/1.1/DTD/svg11.dtd">
<svg version="1.1" id="Layer_1" xmlns="http://www.w3.org/2000/svg" xmlns:xlink="http://www.w3.org/1999/xlink" x="0px" y="0px"
	 width="20px" height="20px" viewBox="0 0 20 20" enable-background="new 0 0 20 20" xml:space="preserve">
<path fill="#FFFFFF" d="M11.688,10.001l1.993-2c0.562-0.564,0.301-1.005-0.161-1.467c-0.461-0.464-0.95-0.775-1.513-0.21
	l-1.991,1.998L8.023,6.325C7.46,5.76,7.014,6.01,6.553,6.474C6.09,6.937,5.787,7.438,6.35,8.002l1.992,2L6.35,11.999
	c-0.563,0.565-0.38,1.06,0.082,1.523s1.028,0.719,1.591,0.154l1.992-1.997l1.992,1.997c0.562,0.564,0.989,0.187,1.452-0.276
	c0.461-0.463,0.784-0.836,0.222-1.401L11.688,10.001z"/>
</svg>
