<?xml version="1.0" encoding="utf-8"?>
<!-- Generator: Adobe Illustrator 16.0.0, SVG Export Plug-In . SVG Version: 6.00 Build 0)  -->
<!DOCTYPE svg PUBLIC "-//W3C//DTD SVG 1.1//EN" "http://www.w3.org/Graphics/SVG/1.1/DTD/svg11.dtd">
<svg version="1.1" id="Layer_1" xmlns="http://www.w3.org/2000/svg" xmlns:xlink="http://www.w3.org/1999/xlink" x="0px" y="0px"
	 width="20px" height="20px" viewBox="0 0 20 20" enable-background="new 0 0 20 20" xml:space="preserve">
<path fill="#696767" d="M11.688,10.001l1.993-2c0.562-0.564,0.301-1.005-0.161-1.467c-0.461-0.464-0.949-0.774-1.513-0.21
	l-1.99,1.998L8.023,6.325C7.46,5.761,7.014,6.01,6.553,6.474C6.09,6.937,5.787,7.438,6.351,8.002l1.991,2L6.351,12
	c-0.564,0.564-0.38,1.059,0.082,1.522c0.461,0.464,1.028,0.72,1.591,0.154l1.992-1.998l1.991,1.998
	c0.563,0.565,0.99,0.187,1.453-0.276c0.461-0.463,0.783-0.836,0.221-1.4L11.688,10.001z"/>
</svg>
