<?xml version="1.0" encoding="utf-8"?>
<!-- Generator: Adobe Illustrator 16.0.0, SVG Export Plug-In . SVG Version: 6.00 Build 0)  -->
<!DOCTYPE svg PUBLIC "-//W3C//DTD SVG 1.1//EN" "http://www.w3.org/Graphics/SVG/1.1/DTD/svg11.dtd">
<svg version="1.1" id="Layer_1" xmlns="http://www.w3.org/2000/svg" xmlns:xlink="http://www.w3.org/1999/xlink" x="0px" y="0px"
	 width="40px" height="40px" viewBox="0 0 40 40" enable-background="new 0 0 40 40" xml:space="preserve">
<g>
	<path fill="#696767" d="M20.415,34.76l-4.117-0.002c-0.872,0-1.639-0.098-2.343-0.3c-6.93-2.007-7.225-11.409-7.234-11.809
		c-0.374-3.551,1.092-6.1,2-7.301c0.353-0.473,1.111-0.532,1.54-0.113l3.566,3.488c0.636,0.621,1.332,1.063,2.071,1.314
		c0.424,0.145,0.807,0.218,1.138,0.218c1.445,0,1.664-1.451,1.687-2.144c-0.064-0.056-0.154-0.125-0.263-0.209
		c-0.999-0.776-3.338-2.595-3.339-5.828c-0.001-1.826,0.727-3.543,2.046-4.835c1.318-1.289,3.069-1.999,4.931-1.999
		c3.517,0.002,6.427,2.503,6.908,5.871l5.988-0.001c0.239,0,0.457,0.121,0.581,0.323c0.122,0.198,0.132,0.44,0.026,0.647
		c-0.423,0.854-1.587,2.957-3.23,3.996c-0.497,0.314-1.107,0.48-1.765,0.48h-3.341c-0.383,0.551-0.744,0.999-0.985,1.286
		c1.198,0.722,2.152,1.759,2.835,3.084c2.18,4.231,0.663,9.503-3.527,12.261l-0.147,0.096C23.941,34.251,22.206,34.76,20.415,34.76z
		 M9.539,15.69c-0.088,0-0.167,0.04-0.219,0.108c-0.843,1.115-2.201,3.478-1.852,6.803c0.004,0.123,0.296,9.283,6.694,11.136
		c0.635,0.182,1.334,0.271,2.135,0.271l4.117,0.002c1.646,0,3.241-0.468,4.614-1.353l0.154-0.1
		c3.861-2.541,5.269-7.396,3.266-11.285c-0.64-1.24-1.537-2.199-2.668-2.851c-0.169-0.104-0.278-0.265-0.31-0.446
		c-0.029-0.176,0.02-0.356,0.133-0.495c0.443-0.515,1.533-1.857,2.199-3.346c0-0.001,0.001-0.002,0.002-0.004
		c0-0.001,0-0.002,0.001-0.002c0.31-0.694,0.481-1.324,0.513-1.875c0.003-0.048,0.004-0.095,0.005-0.142
		c-0.001-0.222-0.013-0.409-0.029-0.591l-0.021-0.218c-0.392-3.042-3.008-5.311-6.177-5.312c-1.664,0-3.229,0.634-4.406,1.785
		c-1.174,1.149-1.82,2.676-1.82,4.299c0.001,2.866,2.137,4.526,3.049,5.236c0.157,0.122,0.28,0.219,0.355,0.289
		c0.123,0.116,0.19,0.268,0.198,0.439c-0.023,1.445-0.676,2.966-2.438,2.966c-0.413,0-0.877-0.087-1.379-0.257
		c-0.846-0.288-1.639-0.789-2.354-1.489l-3.567-3.488C9.683,15.719,9.613,15.69,9.539,15.69z M27.759,15.809h2.848
		c0.516,0,0.987-0.126,1.364-0.364c1.415-0.895,2.466-2.723,2.902-3.583l-5.802,0.001c0.002,0.07,0.003,0.141,0.003,0.212l0,0
		c0,0.001,0,0.001,0,0.002c-0.009,0.731-0.204,1.51-0.583,2.358c0,0-0.001,0.001-0.001,0.002c-0.001,0.002-0.001,0.003-0.002,0.005
		C28.293,14.879,28.048,15.337,27.759,15.809z"/>
</g>
<g>
	<path fill="#696767" d="M23.864,13.629h-0.007c-1.197-0.001-2.175-0.962-2.177-2.141c0-1.18,0.978-2.14,2.179-2.141
		c1.201,0,2.179,0.959,2.179,2.138C26.038,12.667,25.062,13.629,23.864,13.629z M23.859,10.098c-0.788,0.001-1.429,0.624-1.429,1.39
		c0.002,0.767,0.643,1.391,1.428,1.392l0.006,0.375v-0.375c0.785,0,1.424-0.625,1.424-1.394
		C25.288,10.72,24.647,10.098,23.859,10.098z"/>
</g>
<g>
	<path fill="#696767" d="M19.341,30.667c-0.177,0-0.281-0.012-0.281-0.012c-0.001,0-0.002,0-0.003,0
		c-3.777,0-5.672-3.928-6.162-5.131c-0.08-0.19-0.071-0.41,0.025-0.599c0.1-0.194,0.281-0.334,0.498-0.383l0.23-0.052
		c1.922-0.417,3.544-0.962,4.962-1.665c0.748-0.371,1.44-0.56,2.058-0.56c2.091,0,2.879,2.143,3.004,3.275
		C23.674,30.422,20.064,30.667,19.341,30.667z M20.668,23.017c-0.5,0-1.08,0.162-1.724,0.481c-1.475,0.731-3.154,1.296-5.135,1.726
		l-0.228,0.052c0.453,1.061,2.166,4.632,5.516,4.632c0.049,0.003,0.123,0.01,0.243,0.01c1.077,0,3.583-0.423,3.583-4.334
		C22.914,25.519,22.608,23.017,20.668,23.017z"/>
</g>
</svg>
