<?xml version="1.0" encoding="utf-8"?>
<!-- Generator: Adobe Illustrator 16.0.0, SVG Export Plug-In . SVG Version: 6.00 Build 0)  -->
<!DOCTYPE svg PUBLIC "-//W3C//DTD SVG 1.1//EN" "http://www.w3.org/Graphics/SVG/1.1/DTD/svg11.dtd">
<svg version="1.1" id="Layer_1" xmlns="http://www.w3.org/2000/svg" xmlns:xlink="http://www.w3.org/1999/xlink" x="0px" y="0px"
	 width="20px" height="20px" viewBox="0 0 20 20" enable-background="new 0 0 20 20" xml:space="preserve">
<g>
	<defs>
		<path id="SVGID_1_" d="M15.496,7.341C15.335,7.445,15.13,7.5,14.902,7.5h-1.16c0.042-0.073,0.083-0.148,0.122-0.226
			c0.004-0.008,0.008-0.016,0.013-0.023c0.03-0.062,0.06-0.122,0.088-0.185c0.009-0.017,0.017-0.035,0.024-0.053
			c0.022-0.05,0.043-0.1,0.062-0.148l0.029-0.071c0.016-0.041,0.029-0.083,0.043-0.124c0.01-0.029,0.021-0.057,0.031-0.086
			c0.007-0.022,0.013-0.047,0.02-0.068c0.029-0.104,0.055-0.203,0.072-0.299c0.001-0.012,0.005-0.02,0.007-0.03
			c0.008-0.05,0.014-0.097,0.02-0.144c0.002-0.018,0.005-0.037,0.007-0.055c0.006-0.066,0.009-0.131,0.009-0.193h2.471
			C16.523,6.24,16.071,6.97,15.496,7.341 M12.82,5.57c-0.086-0.203-0.287-0.344-0.521-0.344c-0.313,0-0.568,0.254-0.568,0.568
			c0,0.312,0.251,0.564,0.561,0.566c-0.236,0.178-0.527,0.287-0.845,0.287c-0.782,0-1.421-0.639-1.421-1.422
			s0.639-1.422,1.421-1.422c0.784,0,1.422,0.639,1.422,1.422C12.868,5.345,12.849,5.459,12.82,5.57 M9.571,14.9
			c-0.062,0-0.106-0.002-0.128-0.005c-1.869-0.008-2.787-1.953-3.025-2.551c-0.049-0.123-0.043-0.262,0.021-0.379
			c0.062-0.119,0.173-0.204,0.306-0.233l0.106-0.023c0.901-0.201,1.663-0.461,2.325-0.798c0.369-0.188,0.714-0.283,1.025-0.283
			c1.065,0,1.465,1.099,1.527,1.679l0.002,0.03C11.73,14.777,9.933,14.9,9.571,14.9 M17.353,5.428
			c-0.08-0.127-0.215-0.201-0.365-0.201h-2.75c-0.271-1.611-1.673-2.844-3.36-2.844c-1.879,0-3.412,1.531-3.412,3.412
			c0,1.614,1.179,2.55,1.621,2.901C9.119,8.721,9.146,8.743,9.17,8.763C9.153,9.08,9.045,9.654,8.48,9.654
			c-0.145,0-0.314-0.033-0.503-0.1c-0.336-0.116-0.651-0.322-0.94-0.611l-1.69-1.689C5.103,7.01,4.658,7.043,4.453,7.321
			c-0.439,0.594-1.148,1.853-0.968,3.598c0.005,0.196,0.147,4.821,3.504,5.814c0.341,0.1,0.714,0.149,1.142,0.149h1.949
			c0.873,0,1.715-0.252,2.438-0.729l0.074-0.049c2.029-1.363,2.762-3.972,1.706-6.067c-0.312-0.62-0.744-1.115-1.283-1.472
			c0.107-0.137,0.237-0.305,0.369-0.496h1.518c0.337,0,0.648-0.087,0.902-0.251c0.767-0.494,1.312-1.451,1.568-1.978
			C17.438,5.708,17.43,5.554,17.353,5.428"/>
	</defs>
	<use xlink:href="#SVGID_1_"  overflow="visible" fill-rule="evenodd" clip-rule="evenodd" fill="#696767"/>
	<clipPath id="SVGID_2_">
		<use xlink:href="#SVGID_1_"  overflow="visible"/>
	</clipPath>
	<g clip-path="url(#SVGID_2_)">
		<defs>
			<rect id="SVGID_3_" x="-44.438" y="-197.74" width="100" height="258"/>
		</defs>
		<use xlink:href="#SVGID_3_"  overflow="visible" fill="#696767"/>
		<clipPath id="SVGID_4_">
			<use xlink:href="#SVGID_3_"  overflow="visible"/>
		</clipPath>
		<rect x="-1.543" y="-2.617" clip-path="url(#SVGID_4_)" fill="#696767" width="23.96" height="24.5"/>
	</g>
</g>
</svg>
