<?xml version="1.0" encoding="utf-8"?>
<!-- Generator: Adobe Illustrator 16.0.0, SVG Export Plug-In . SVG Version: 6.00 Build 0)  -->
<!DOCTYPE svg PUBLIC "-//W3C//DTD SVG 1.1//EN" "http://www.w3.org/Graphics/SVG/1.1/DTD/svg11.dtd">
<svg version="1.1" id="Layer_1" xmlns="http://www.w3.org/2000/svg" xmlns:xlink="http://www.w3.org/1999/xlink" x="0px" y="0px"
	 width="20px" height="20px" viewBox="0 0 20 20" enable-background="new 0 0 20 20" xml:space="preserve">
<g>
	<path fill="#696767" d="M16.945,4.002L5.164,4H2.529v1.516v9.458C2.529,15.538,2.992,16,3.555,16h13.391
		c0.562,0,1.025-0.463,1.025-1.025V12.85H17.85h-0.658h-3.42c-0.807,0-1.467-0.646-1.467-1.435V8.583
		c0-0.788,0.66-1.432,1.465-1.432h4.201V5.027C17.971,4.463,17.508,4.002,16.945,4.002z"/>
	<path fill="#696767" d="M13.574,9.033l0.002,1.933c-0.002,0.537,0.512,0.978,1.134,0.978h2.518h0.648h0.095V8.057H14.71
		C14.088,8.057,13.574,8.496,13.574,9.033z M16.017,9.098c0.498,0,0.904,0.404,0.904,0.903c0,0.497-0.406,0.902-0.904,0.902
		s-0.902-0.405-0.902-0.902C15.114,9.502,15.519,9.098,16.017,9.098z"/>
</g>
</svg>
