<?xml version="1.0" encoding="utf-8"?>
<!-- Generator: Adobe Illustrator 16.0.0, SVG Export Plug-In . SVG Version: 6.00 Build 0)  -->
<!DOCTYPE svg PUBLIC "-//W3C//DTD SVG 1.1//EN" "http://www.w3.org/Graphics/SVG/1.1/DTD/svg11.dtd">
<svg version="1.1" id="Layer_1" xmlns="http://www.w3.org/2000/svg" xmlns:xlink="http://www.w3.org/1999/xlink" x="0px" y="0px"
	 width="40px" height="40px" viewBox="0 0 40 40" enable-background="new 0 0 40 40" xml:space="preserve">
<g>
	<path fill="#FFFFFF" d="M24.816,22.781c0,0.572,0.23,1.121,0.623,1.499c0.39,0.403,0.939,0.636,1.509,0.641h0.003h0.003
		c0.567-0.004,1.121-0.236,1.517-0.635c0.389-0.384,0.622-0.945,0.624-1.506c-0.002-0.574-0.228-1.113-0.633-1.514
		c-0.759-0.763-2.255-0.765-3.018-0.004C25.039,21.666,24.816,22.205,24.816,22.781z M25.974,21.793
		c0.241-0.241,0.598-0.379,0.979-0.379s0.737,0.139,0.98,0.382c0.264,0.262,0.41,0.613,0.412,0.983
		c-0.002,0.362-0.151,0.726-0.404,0.975c-0.259,0.261-0.619,0.412-0.989,0.416c-0.368-0.003-0.723-0.153-0.982-0.421
		c-0.256-0.247-0.402-0.599-0.402-0.968C25.566,22.406,25.711,22.055,25.974,21.793z"/>
	<path fill="#FFFFFF" d="M30.136,13.979h-1.787v-2.073c0-1.003-0.817-1.819-1.821-1.819h-8.563h-7.092
		c-0.739,0-1.438,0.231-1.967,0.651c-0.459,0.365-0.736,0.835-0.821,1.347c-0.023,0.049-0.039,0.102-0.039,0.16v4.078
		c0,0.028,0.01,0.054,0.017,0.081c-0.007,0.026-0.017,0.052-0.017,0.08v13.304c0,1.004,0.815,1.82,1.818,1.82l20.272,0.001
		c1.003,0,1.819-0.816,1.819-1.819V15.797C31.955,14.794,31.139,13.979,30.136,13.979z M31.205,26.426h-5.633
		c-0.459,0-0.889-0.178-1.211-0.5c-0.309-0.31-0.479-0.714-0.478-1.141L23.882,20.8c0-0.904,0.758-1.64,1.689-1.64h5.634V26.426z
		 M9.371,11.325c0.397-0.315,0.931-0.489,1.501-0.489h7.092h8.563c0.591,0,1.071,0.479,1.071,1.069v2.073l-16.38-0.002
		c-0.004,0-0.008,0.002-0.012,0.002h-0.335c-0.279,0-0.548-0.041-0.798-0.122h-0.001c-0.001,0-0.001,0-0.001,0
		c-0.775-0.247-1.277-0.815-1.277-1.448C8.795,12.005,8.999,11.621,9.371,11.325z M30.136,30.858L9.863,30.857
		c-0.589,0-1.068-0.48-1.068-1.07V16.482c0-0.028-0.01-0.054-0.017-0.08c0.007-0.027,0.017-0.052,0.017-0.081v-2.333
		c0.284,0.25,0.639,0.451,1.047,0.581c0.001,0,0.001,0.001,0.002,0.001s0.001,0,0.002,0l0,0l0,0c0.324,0.104,0.67,0.158,1.026,0.158
		h2.693c0.004,0,0.007-0.002,0.011-0.002l14.396,0.001c0,0,0,0,0.001,0s0.001,0,0.001,0l2.161,0c0.59,0,1.069,0.479,1.069,1.069
		v2.613h-5.634c-1.345,0-2.439,1.072-2.439,2.39l0.002,3.983c-0.001,0.626,0.246,1.22,0.696,1.671
		c0.464,0.465,1.083,0.721,1.742,0.721h5.633v2.613C31.205,30.378,30.726,30.858,30.136,30.858z"/>
</g>
</svg>
