<?xml version="1.0" encoding="utf-8"?>
<!-- Generator: Adobe Illustrator 16.0.0, SVG Export Plug-In . SVG Version: 6.00 Build 0)  -->
<!DOCTYPE svg PUBLIC "-//W3C//DTD SVG 1.1//EN" "http://www.w3.org/Graphics/SVG/1.1/DTD/svg11.dtd">
<svg version="1.1" id="Layer_1" xmlns="http://www.w3.org/2000/svg" xmlns:xlink="http://www.w3.org/1999/xlink" x="0px" y="0px"
	 width="124px" height="124px" viewBox="0 0 124 124" enable-background="new 0 0 124 124" xml:space="preserve">
<g opacity="0.09">
	<g>
		<rect fill="none" width="124" height="124"/>
		<rect fill="none" width="124" height="124"/>
		<rect fill="none" width="124" height="124"/>
		<g>
			<defs>
				<rect id="SVGID_1_" width="124" height="124"/>
			</defs>
			<clipPath id="SVGID_2_">
				<use xlink:href="#SVGID_1_"  overflow="visible"/>
			</clipPath>
			<g clip-path="url(#SVGID_2_)">
				<path fill="#FFFFFF" d="M205.714,0.218l21.929,21.929c0.098,0.097,0.226,0.146,0.354,0.146s0.256-0.049,0.354-0.147
					l28.228-28.223c0.194-0.195,0.194-0.512,0-0.707l-21.931-21.933c-0.187-0.188-0.519-0.188-0.707,0L205.714-0.489
					C205.52-0.294,205.52,0.023,205.714,0.218z M234.293-27.657l21.223,21.226l-27.52,27.517L206.773-0.136L234.293-27.657z"/>
				<path fill="#FFFFFF" d="M105.625-10.978c-2.538,2.541-2.536,6.673,0.003,9.21c1.229,1.23,2.865,1.908,4.604,1.908
					c1.74,0,3.373-0.678,4.602-1.909c1.23-1.229,1.908-2.864,1.908-4.604c0-1.74-0.678-3.375-1.907-4.605s-2.864-1.907-4.604-1.907
					C108.491-12.885,106.855-12.207,105.625-10.978z M104.771-5.874l2.439,0.002c0.075,0.458,0.256,0.897,0.537,1.289
					c-0.012,0.01-0.026,0.014-0.037,0.025l-1.693,1.693C105.285-3.746,104.869-4.792,104.771-5.874z M111.697-7.84
					c0,0,0,0.001,0.001,0.002s0.001,0,0.002,0.001c0.806,0.808,0.805,2.123-0.002,2.93c-0.784,0.782-2.147,0.782-2.931,0
					c-0.808-0.808-0.808-2.123,0-2.932c0.393-0.391,0.912-0.607,1.465-0.607S111.306-8.23,111.697-7.84z M108.451-8.861
					l-1.729-1.729c0.851-0.71,1.875-1.137,2.978-1.243v2.465C109.253-9.293,108.827-9.123,108.451-8.861z M108.418-3.851
					c0.011-0.011,0.015-0.024,0.023-0.036c0.388,0.28,0.83,0.463,1.302,0.538l-0.001,2.441c-1.117-0.099-2.157-0.529-3.019-1.249
					L108.418-3.851z M110.743-3.351c0.462-0.077,0.895-0.257,1.273-0.531l1.724,1.725c-0.856,0.715-1.888,1.145-2.998,1.247
					L110.743-3.351z M112.015-8.861c-0.395-0.275-0.846-0.445-1.315-0.513v-2.465c1.128,0.095,2.176,0.526,3.043,1.251
					L112.015-8.861z M106.016-9.882l1.728,1.726c-0.279,0.391-0.458,0.829-0.532,1.284l-2.439-0.002
					C104.869-7.955,105.284-9.001,106.016-9.882z M114.447-2.864l-1.726-1.726c0.28-0.391,0.458-0.829,0.533-1.284l2.439,0.002
					C115.594-4.758,115.164-3.723,114.447-2.864z M115.694-6.872l-2.439-0.002c-0.075-0.455-0.253-0.892-0.532-1.282l1.727-1.725
					C115.165-9.022,115.594-7.986,115.694-6.872z"/>
				<path fill="#FFFFFF" d="M98.227,0.503c-0.194-0.195-0.512-0.195-0.707,0c-0.194,0.195-0.194,0.512,0,0.707l5.129,5.13
					c0.098,0.097,0.226,0.146,0.354,0.146s0.256-0.048,0.354-0.146c0.195-0.195,0.195-0.512,0-0.707L98.227,0.503z"/>
				<path fill="#FFFFFF" d="M211.62-60.557c-0.003,0-0.006,0-0.009,0c-0.725,0.002-1.405,0.285-1.912,0.797l-17.418,17.552
					c-0.518,0.521-0.814,1.233-0.811,1.955c0.002,0.683,0.262,1.316,0.733,1.782l1.233,1.223l-1.472,1.472
					c-1.055,1.057-1.055,2.774,0,3.828l1.164,1.164l0,0l3.438,3.441c0.003,0.002,0.007,0.003,0.01,0.006l5.441,5.441
					c0.526,0.527,1.22,0.791,1.912,0.791c0.693,0,1.387-0.263,1.914-0.793l17.486-17.486c1.057-1.055,1.057-2.773,0-3.828
					l-1.204-1.204l1.507-1.517c1.047-1.059,1.041-2.775-0.016-3.826l-10.094-10.015C213.018-60.279,212.342-60.557,211.62-60.557z
					 M192.673-35.07l1.82-1.82c0.002-0.002,0.004-0.002,0.006-0.004l15.66-15.66c0.64-0.641,1.771-0.642,2.413,0l0.811,0.811
					l-19.898,19.898l-0.812-0.811C192.008-33.321,192.008-34.404,192.673-35.07z M194.189-31.14l19.899-19.897l2.731,2.732
					l-19.897,19.899L194.189-31.14z M223.121-41.296c0,0.458-0.176,0.887-0.496,1.207l-17.486,17.486
					c-0.664,0.664-1.748,0.666-2.412,0l-5.096-5.095l19.898-19.899l3.529,3.53c0.004,0.003,0.004,0.008,0.008,0.012
					c0.005,0.005,0.012,0.006,0.018,0.011l1.541,1.542C222.945-42.183,223.121-41.754,223.121-41.296z M222.925-46.637l-1.506,1.516
					l-8.14-8.14c-1.055-1.056-2.772-1.055-3.827,0l-15.308,15.307l-1.236-1.228c-0.281-0.279-0.436-0.661-0.438-1.076
					c-0.002-0.458,0.188-0.912,0.52-1.246l17.418-17.552c0.32-0.322,0.748-0.5,1.206-0.502c0.002,0,0.004,0,0.006,0
					c0.455,0,0.882,0.175,1.2,0.493l10.094,10.015C223.58-48.387,223.585-47.304,222.925-46.637z"/>
				<path fill="#FFFFFF" d="M203.283,13.255c-0.129-0.198-0.379-0.277-0.6-0.194l-22.633,8.715
					c-0.133,0.052-0.236,0.157-0.287,0.289l-8.638,22.659c-0.085,0.221-0.003,0.469,0.194,0.598c0.084,0.054,0.178,0.08,0.271,0.08
					c0.129,0,0.258-0.05,0.356-0.147l2.103-2.109l14.087,14.042l-1.245,1.249c-0.115,0.116-0.166,0.278-0.14,0.438l0.483,2.854
					c0.031,0.184,0.162,0.336,0.342,0.393c0.049,0.015,0.1,0.023,0.15,0.023c0.131,0,0.26-0.051,0.354-0.147l31.599-31.702
					c0.125-0.126,0.174-0.311,0.127-0.483c-0.045-0.173-0.181-0.307-0.354-0.353l-2.632-0.697c-0.171-0.045-0.355,0.004-0.482,0.13
					l-1.349,1.354l-14.089-14.043l2.315-2.323C203.385,13.714,203.412,13.453,203.283,13.255z M180.617,22.63l20.232-7.791
					l-1.006,1.01c-0.001,0-0.002,0.001-0.003,0.001s-0.001,0.002-0.002,0.002l-26.944,27.033L180.617,22.63z M191.42,53.895
					l-14.087-14.042l1.875-1.881l14.087,14.042L191.42,53.895z M194,51.306l-14.087-14.042l15.127-15.177l14.089,14.042L194,51.306z
					 M209.834,35.421l-14.088-14.042l1.874-1.881l14.088,14.043L209.834,35.421z M174.755,42.438l1.873-1.879l14.087,14.042
					l-1.873,1.879L174.755,42.438z M216.846,29.804l1.514,0.401l-30.299,30.4l-0.278-1.644l1.409-1.414
					c0.003-0.002,0.006-0.003,0.008-0.005c0.002-0.002,0.003-0.005,0.005-0.008l2.564-2.572c0.003-0.002,0.006-0.003,0.009-0.006
					s0.003-0.006,0.006-0.009l2.566-2.575c0.003-0.002,0.006-0.003,0.008-0.005s0.003-0.005,0.005-0.007l15.823-15.874
					c0.002-0.001,0.004-0.002,0.006-0.004s0.002-0.004,0.004-0.006l2.572-2.581c0.001,0,0.002,0,0.002-0.001
					s0.001-0.001,0.001-0.001L216.846,29.804z M214.286,30.954l-1.873,1.879l-14.088-14.043l1.873-1.879L214.286,30.954z"/>
				<path fill="#FFFFFF" d="M198.583,37.378l-0.462-0.461c-0.023-0.024-0.055-0.037-0.088-0.037s-0.066,0.014-0.09,0.037
					l-3.172,3.181l-1.265-1.257l2.403-2.412c0.892-0.895,1.373-1.811,1.43-2.723c0.059-0.917-0.312-1.779-1.1-2.563
					c-0.53-0.531-1.057-0.879-1.567-1.035c-0.522-0.157-1.005-0.191-1.442-0.103c-0.453,0.086-0.863,0.255-1.221,0.502
					c-0.354,0.241-0.658,0.491-0.91,0.741l-3.217,3.229c-0.049,0.049-0.048,0.129,0.001,0.177l4.274,4.259l-1.051,1.053
					c-0.049,0.049-0.049,0.127,0,0.176l0.463,0.463c0.023,0.023,0.056,0.037,0.089,0.037c0.032,0,0.065-0.014,0.089-0.037
					l1.05-1.054l1.267,1.261l-1.053,1.055c-0.023,0.024-0.035,0.055-0.035,0.088c0,0.033,0.014,0.066,0.037,0.089l0.461,0.459
					c0.049,0.048,0.129,0.048,0.178-0.001l1.051-1.052l1.883,1.876c0.025,0.025,0.057,0.037,0.088,0.037
					c0.032,0,0.064-0.011,0.09-0.037l0.532-0.533c0.022-0.024,0.036-0.055,0.036-0.088c0-0.033-0.014-0.065-0.037-0.088
					l-1.885-1.879l3.174-3.183C198.633,37.506,198.632,37.427,198.583,37.378z M195.355,35.706l-2.487,2.496l-3.724-3.71l2.56-2.567
					c0.421-0.424,0.829-0.695,1.214-0.808c0.389-0.116,0.751-0.148,1.077-0.092c0.346,0.061,0.639,0.17,0.894,0.333
					c0.266,0.171,0.478,0.335,0.629,0.485c0.226,0.223,0.408,0.479,0.551,0.761c0.146,0.274,0.231,0.585,0.256,0.922
					c0.021,0.332-0.039,0.686-0.184,1.053C195.995,34.952,195.738,35.321,195.355,35.706z"/>
				<path fill="#FFFFFF" d="M197.715-15.776l-2.527-2.528l-0.707,0.707l0.001,0.001l-0.007,0.007
					c0.031,0.032,0.049,0.083,0.061,0.136c0.002,0.011,0.004,0.024,0.006,0.037c0.006,0.043,0.01,0.086,0.01,0.119
					c0,0.004,0,0.01,0,0.015c-0.001,0.135-0.027,0.294-0.072,0.472c-0.009,0.035-0.022,0.075-0.033,0.112
					c-0.041,0.142-0.097,0.296-0.163,0.459c-0.026,0.065-0.052,0.129-0.083,0.2c-0.076,0.172-0.168,0.356-0.27,0.547
					c-0.048,0.09-0.098,0.181-0.152,0.277c-0.048,0.085-0.106,0.177-0.159,0.266c-0.169,0.282-0.355,0.572-0.56,0.869
					c-0.065,0.096-0.131,0.191-0.201,0.29c-0.207,0.292-0.434,0.59-0.67,0.891c-0.078,0.099-0.15,0.195-0.231,0.296
					c-0.255,0.314-0.529,0.632-0.811,0.951c-0.082,0.093-0.155,0.183-0.24,0.277c-0.319,0.353-0.657,0.706-1.004,1.056
					c-0.058,0.059-0.107,0.116-0.167,0.175c-0.411,0.412-0.826,0.805-1.24,1.179c-0.019,0.016-0.036,0.033-0.055,0.049
					c-0.41,0.37-0.82,0.719-1.225,1.044c-0.016,0.013-0.032,0.026-0.048,0.039c-0.396,0.317-0.785,0.609-1.166,0.877
					c-0.028,0.02-0.058,0.042-0.087,0.062c-0.37,0.258-0.73,0.488-1.078,0.693c-0.033,0.02-0.069,0.042-0.103,0.062
					c-0.131,0.076-0.255,0.142-0.375,0.206c-0.039,0.021-0.081,0.045-0.119,0.064c-1.162,0.592-1.797,0.616-1.949,0.464
					l-0.707,0.707c0.001,0,0.001,0,0.002,0.001l-0.008,0.008l2.528,2.527l-0.001,0.001l2.583,2.582l0.707-0.708l-1.553-1.552
					c1.925-0.448,4.791-2.619,7.186-5.013c2.391-2.392,4.564-5.256,5.016-7.181l1.548,1.549l0.707-0.707L197.715-15.776
					L197.715-15.776z M183.559-4.51c0.135-0.042,0.275-0.092,0.421-0.15c0.15-0.059,0.301-0.121,0.459-0.195
					c0.064-0.03,0.133-0.068,0.199-0.101c0.587-0.292,1.21-0.67,1.856-1.124c0.016-0.01,0.03-0.022,0.046-0.033
					c0.375-0.265,0.754-0.55,1.136-0.854c0.088-0.069,0.175-0.14,0.262-0.211c0.328-0.267,0.652-0.543,0.977-0.831
					c0.103-0.09,0.202-0.176,0.305-0.269c0.415-0.378,0.826-0.764,1.223-1.161c0.044-0.044,0.083-0.089,0.126-0.133
					c0.365-0.369,0.717-0.738,1.051-1.106c0.127-0.141,0.243-0.28,0.366-0.42c0.238-0.273,0.474-0.544,0.692-0.813
					c0.136-0.167,0.261-0.33,0.389-0.495c0.185-0.237,0.361-0.471,0.527-0.702c0.127-0.176,0.247-0.348,0.363-0.521
					c0.143-0.21,0.272-0.415,0.397-0.617c0.07-0.115,0.159-0.237,0.225-0.35c0.054-0.092,0.095-0.176,0.144-0.264
					c0.012-0.021,0.022-0.042,0.034-0.062c0.34-0.624,0.57-1.175,0.69-1.652c0.003-0.014,0.009-0.029,0.013-0.043l1.551,1.552
					l-0.007,0.006c0.175,0.175,0.117,0.982-0.76,2.49c-0.875,1.503-2.288,3.263-3.979,4.955c-3.94,3.942-6.981,5.201-7.445,4.74
					l-0.005,0.005l-1.554-1.553C183.356-4.447,183.458-4.479,183.559-4.51z"/>
				<path fill="#FFFFFF" d="M192.598-20.882c-0.244-0.244-0.581-0.368-1-0.368c-1.642,0-4.797,2.054-7.854,5.111
					c-3.059,3.057-5.113,6.213-5.112,7.854c0,0.419,0.124,0.758,0.369,1.001l-0.001,0l2.582,2.582l0.707-0.707l-1.599-1.598
					c1.746-0.435,4.497-2.34,7.171-5.015c2.391-2.391,4.563-5.255,5.015-7.18l1.603,1.603l0.707-0.707l-2.582-2.583L192.598-20.882z
					 M187.152-12.728c-3.161,3.161-5.987,4.815-7.146,4.815c-0.082,0-0.231-0.01-0.299-0.078c-0.065-0.065-0.076-0.212-0.076-0.294
					c-0.001-1.157,1.654-3.983,4.819-7.146c3.162-3.163,5.988-4.818,7.146-4.818c0.082,0,0.229,0.01,0.295,0.075
					C192.352-19.715,191.094-16.67,187.152-12.728z"/>
				<path fill="#FFFFFF" d="M170.055,12.382l-0.707,0.707c0.254,0.254,0.596,0.37,1.006,0.37c1.875,0,5.166-2.42,7.853-5.107
					c3.274-3.275,6.153-7.444,4.737-8.86l-0.707,0.707c0.461,0.459-0.797,3.504-4.737,7.446
					C173.557,11.585,170.518,12.842,170.055,12.382z"/>
				<path fill="#FFFFFF" d="M177.832-5.62l-0.707,0.707c0,0,0,0.001,0.001,0.001l-0.006,0.006l0.019,0.019
					c0.021,0.026,0.04,0.054,0.053,0.092c0.223,0.729-1.113,3.634-4.807,7.328c-0.42,0.42-0.845,0.822-1.268,1.204
					c-0.005,0.004-0.01,0.009-0.015,0.013c-0.842,0.758-1.68,1.432-2.476,1.991c-0.015,0.01-0.029,0.021-0.043,0.031
					c-0.384,0.268-0.755,0.506-1.113,0.716c-0.023,0.013-0.047,0.029-0.069,0.042c-1.487,0.858-2.285,0.915-2.46,0.741l-0.707,0.707
					l0,0l-0.006,0.006l2.582,2.585l0.002-0.002l2.527,2.527l0.707-0.707l-1.549-1.549c1.925-0.45,4.788-2.621,7.179-5.014
					c2.393-2.392,4.565-5.257,5.017-7.182l1.549,1.55l0.707-0.707l-2.583-2.584l-0.012,0.012l-2.491-2.49
					C177.852-5.59,177.845-5.607,177.832-5.62z M178.895,0.106c-0.873,1.502-2.287,3.262-3.979,4.954
					c-3.938,3.942-6.979,5.2-7.444,4.74l-0.006,0.005v0l-0.002,0.002l-1.552-1.553c0.002,0,0.003,0,0.004-0.001
					c0.092-0.021,0.188-0.053,0.284-0.082c0.141-0.043,0.287-0.095,0.439-0.156c0.146-0.058,0.292-0.118,0.445-0.189
					c0.07-0.033,0.146-0.074,0.219-0.111c0.579-0.29,1.193-0.662,1.831-1.109c0.028-0.02,0.058-0.042,0.086-0.062
					c0.359-0.254,0.722-0.527,1.088-0.818c0.101-0.08,0.201-0.162,0.304-0.245c0.311-0.254,0.619-0.517,0.927-0.79
					c0.114-0.101,0.228-0.198,0.342-0.302c0.412-0.374,0.819-0.757,1.212-1.149c2.385-2.385,4.552-5.239,5.013-7.163l1.565,1.565
					C179.822-2.146,179.74-1.349,178.895,0.106z"/>
				<path fill="#FFFFFF" d="M199.585-12.477c0.067,0.067,0.078,0.216,0.078,0.299c0.001,1.157-1.653,3.983-4.815,7.144
					c-1.693,1.693-3.453,3.107-4.955,3.981c-1.509,0.877-2.315,0.934-2.49,0.759l-0.707,0.707c0.248,0.249,0.582,0.373,1.003,0.373
					c0.68,0,1.581-0.326,2.696-0.974c1.574-0.916,3.407-2.386,5.16-4.139c3.057-3.055,5.109-6.21,5.108-7.851
					c0-0.423-0.125-0.761-0.371-1.007L199.585-12.477z"/>
				<path fill="#FFFFFF" d="M170.156-13.306l-0.011,0.011l-2.551-2.552c-0.011-0.011-0.016-0.025-0.026-0.036
					c-0.244-0.245-0.582-0.369-1.002-0.369c-1.641,0-4.797,2.054-7.854,5.111c-3.273,3.275-6.154,7.443-4.742,8.856l-0.006,0.006
					l2.583,2.582l0.011-0.01v0.001l-0.004,0.004c0.007,0.006,0.016,0.008,0.022,0.014l2.509,2.51l-0.004,0.004l0.055,0.055v0
					c0.001,0.001,0.002,0.001,0.003,0.002l2.514,2.513l-0.001,0.001c0.002,0.002,0.005,0.002,0.007,0.004l0.007,0.007l0.002-0.001
					l0,0l-0.002,0.002c0.007,0.007,0.017,0.008,0.023,0.015l2.55,2.548l0.706-0.708l-1.586-1.584
					c1.925-0.459,4.779-2.625,7.164-5.008c1.459-1.458,2.701-2.965,3.611-4.341c0.103-0.154,0.2-0.307,0.294-0.458
					c0.073-0.119,0.164-0.245,0.231-0.36c0.453-0.779,0.738-1.448,0.876-2.015l1.589,1.589l0.707-0.707l-2.569-2.569l0.005-0.005
					l-2.53-2.53l0.001-0.001L170.156-13.306z M174.543-7.496l0.002,0.002c0.057,0.057,0.086,0.153,0.089,0.286
					c0,0.005-0.001,0.013-0.001,0.019c-0.002,0.959-1.396,3.709-4.828,7.14c-3.891,3.895-6.904,5.166-7.423,4.752l-0.019-0.019
					l-0.004,0.003l-1.534-1.533c0.567-0.137,1.235-0.421,2.012-0.873c1.576-0.916,3.408-2.386,5.159-4.138
					c2.393-2.392,4.564-5.256,5.015-7.182l1.537,1.538L174.543-7.496z M171.214-7.575c-0.874,1.503-2.287,3.262-3.979,4.955
					c-3.164,3.163-5.988,4.817-7.145,4.817c-0.078,0-0.212-0.013-0.284-0.071l-1.557-1.557c1.926-0.458,4.779-2.624,7.163-5.008
					c1.751-1.751,3.22-3.584,4.137-5.16c0.456-0.783,0.742-1.454,0.878-2.023l1.553,1.551l-0.001,0l0.002,0.001l-0.006,0.005
					C172.15-9.889,172.091-9.082,171.214-7.575z M159.42-10.434c3.163-3.163,5.99-4.818,7.146-4.818
					c0.082,0,0.229,0.009,0.293,0.075l-0.004,0.004l0.018,0.018c0.415,0.513-0.854,3.528-4.749,7.424
					c-3.162,3.162-5.989,4.817-7.146,4.817c-0.084,0-0.233-0.011-0.301-0.078C154.221-3.449,155.48-6.491,159.42-10.434z
					 M155.652-2.007c1.744-0.43,4.498-2.337,7.179-5.017c2.384-2.384,4.55-5.238,5.01-7.163l1.598,1.599l0.011-0.011l0.002,0.001
					l-0.006,0.005c0.175,0.175,0.117,0.982-0.76,2.49c-0.875,1.503-2.289,3.263-3.979,4.955c-3.896,3.894-6.909,5.165-7.423,4.749
					l-0.018-0.018l-0.239,0.239l0.229-0.229L155.652-2.007z"/>
				<path fill="#FFFFFF" d="M152.148,18.079c0,0,0,0,0.002,0h0.029c0.437,0,0.868-0.179,1.188-0.494
					c0.318-0.322,0.5-0.765,0.496-1.208c0.004-0.444-0.178-0.882-0.497-1.203c-0.322-0.32-0.75-0.497-1.21-0.497
					c-0.905,0-1.699,0.794-1.699,1.696c-0.003,0.455,0.175,0.885,0.503,1.214C151.279,17.904,151.697,18.079,152.148,18.079z
					 M151.674,15.894c0.137-0.138,0.314-0.217,0.487-0.217c0.188,0,0.364,0.073,0.497,0.204c0.128,0.128,0.205,0.316,0.205,0.496
					c0,0.185-0.074,0.369-0.204,0.5c-0.13,0.129-0.304,0.202-0.479,0.202h-0.041c-0.174,0-0.347-0.074-0.474-0.2
					c-0.136-0.136-0.21-0.314-0.209-0.503C151.456,16.207,151.535,16.032,151.674,15.894z"/>
				<path fill="#FFFFFF" d="M145.16,4.799l-1.938,1.937l-2.238-2.238c-0.036-0.037-0.079-0.062-0.117-0.096
					c-0.014-0.018-0.021-0.038-0.036-0.054c-0.049-0.048-0.104-0.085-0.165-0.109c-1.043-0.761-2.511-0.68-3.451,0.259l-9.074,9.075
					c0,0-0.001,0.001-0.001,0.001l-7.51,7.51c-0.772,0.773-1.263,1.745-1.377,2.737c-0.12,1.036,0.179,1.971,0.84,2.632
					c0.216,0.216,0.467,0.378,0.732,0.514l3.439,3.44c-0.003,0.131,0.045,0.263,0.145,0.362l14.096,14.096
					c0.502,0.501,1.171,0.778,1.884,0.778c0.715,0,1.383-0.278,1.885-0.778l21.479-21.476c1.038-1.039,1.038-2.729,0-3.769
					L148.93,4.799C147.889,3.76,146.198,3.762,145.16,4.799z M142.516,7.443L125.119,24.84l0,0l-0.369,0.369
					c-0.171,0.171-0.354,0.319-0.546,0.454c-0.114-0.073-0.229-0.147-0.323-0.242c-0.441-0.439-0.637-1.081-0.554-1.808
					c0.089-0.77,0.476-1.532,1.09-2.146l7.515-7.513c0.001-0.001,0.001-0.002,0.002-0.003l8.546-8.544L142.516,7.443z
					 M120.246,23.937c0.089-0.769,0.477-1.531,1.091-2.145l7.51-7.51c0.001-0.001,0.002-0.001,0.003-0.002l9.073-9.075
					c0.467-0.466,1.145-0.592,1.73-0.386l-8.431,8.429c-0.001,0.001-0.001,0.002-0.002,0.003l-7.511,7.509
					c-0.772,0.773-1.262,1.745-1.376,2.738c-0.119,1.036,0.18,1.97,0.838,2.628c0.013,0.013,0.031,0.021,0.045,0.033
					c-0.641,0.209-1.27,0.209-1.787-0.001l-0.643-0.642c-0.075-0.075-0.17-0.113-0.268-0.13
					C120.279,24.984,120.183,24.485,120.246,23.937z M163.045,22.684L141.566,44.16c-0.625,0.624-1.729,0.626-2.354,0L125.25,30.198
					c0.003-0.131-0.045-0.263-0.145-0.362l-2.532-2.533c0.54-0.042,1.098-0.195,1.642-0.476c0.001,0,0.002,0,0.003,0
					c0.45-0.232,0.868-0.539,1.24-0.912l2.854-2.854c0,0,0-0.001,0.001-0.001l15.264-15.263l0,0c0,0,0,0,0,0l2.291-2.291
					c0.647-0.648,1.705-0.649,2.354,0l4.014,4.015l-4.139,4.139c-0.502,0.501-0.777,1.17-0.777,1.884s0.275,1.384,0.777,1.885
					l3.026,3.024c0.501,0.502,1.17,0.778,1.884,0.778c0.715,0,1.383-0.276,1.885-0.778l4.137-4.138l4.016,4.016
					C163.693,20.979,163.693,22.035,163.045,22.684z M158.323,15.607l-4.138,4.138c-0.625,0.624-1.729,0.626-2.354,0l-3.026-3.024
					c-0.312-0.313-0.484-0.731-0.484-1.178c0-0.447,0.173-0.865,0.484-1.177l4.139-4.139L158.323,15.607z"/>
				<path fill="#FFFFFF" d="M122.596-36.189l1.275,0.188c0.281,0.044,0.527-0.148,0.568-0.421c0.039-0.274-0.149-0.527-0.422-0.568
					l-2.668-0.394c-0.183-0.08-0.403-0.048-0.554,0.102c-0.004,0.004-0.005,0.009-0.009,0.013c-0.003,0.003-0.007,0.003-0.01,0.006
					c-0.039,0.039-0.06,0.087-0.083,0.135c-0.002,0.004-0.006,0.008-0.008,0.013c-0.041,0.088-0.064,0.182-0.05,0.281l0.422,2.745
					c0.037,0.247,0.25,0.424,0.492,0.424c0.025,0,0.051-0.002,0.078-0.005c0.271-0.042,0.46-0.297,0.418-0.57l-0.196-1.279
					l18.847,18.849c0.094,0.093,0.221,0.146,0.354,0.146s0.26-0.053,0.354-0.146l37.373-37.373l-0.188,1.274
					c-0.041,0.273,0.147,0.527,0.421,0.568c0.024,0.003,0.051,0.005,0.074,0.005c0.243,0,0.457-0.178,0.494-0.427l0.417-2.812
					c0.022-0.157-0.03-0.316-0.142-0.428c-0.113-0.112-0.273-0.164-0.43-0.14l-2.746,0.424c-0.273,0.042-0.46,0.297-0.418,0.57
					c0.042,0.273,0.305,0.463,0.57,0.418l1.278-0.197L141.529-18.21V-32.67h7.367c0.133,0,0.261-0.052,0.354-0.146
					c0.093-0.094,0.146-0.221,0.146-0.354l-0.002-18.975h11.164c0.275,0,0.5-0.224,0.5-0.5v-19.95c0-0.276-0.225-0.5-0.5-0.5
					c-0.276,0-0.5,0.224-0.5,0.5v19.45h-11.164c-0.133,0-0.261,0.052-0.354,0.146c-0.094,0.094-0.146,0.221-0.146,0.354
					l0.002,18.975h-7.367c-0.275,0-0.5,0.224-0.5,0.5v14.917L122.596-36.189z"/>
				<path fill="#FFFFFF" d="M188.138-66.812l-1.245,1.25c-0.115,0.115-0.166,0.278-0.14,0.437l0.483,2.854
					c0.031,0.185,0.162,0.336,0.342,0.393c0.049,0.015,0.1,0.023,0.15,0.023c0.131,0,0.26-0.052,0.354-0.148l31.599-31.701
					c0.125-0.126,0.174-0.311,0.127-0.483c-0.045-0.173-0.181-0.307-0.354-0.353l-2.632-0.697c-0.171-0.046-0.355,0.004-0.482,0.13
					l-27.498,27.588L174.4-81.916c-0.193-0.194-0.512-0.195-0.707,0.001c-0.194,0.196-0.194,0.512,0.002,0.707L188.138-66.812z
					 M216.846-94.197l1.514,0.401l-30.299,30.4l-0.278-1.643l1.412-1.417c0.001-0.001,0.003-0.002,0.005-0.003
					s0.002-0.003,0.003-0.005L216.846-94.197z"/>
				<path fill="#FFFFFF" d="M125.064-59.395l0.354-0.353c2.924-2.923,4.534-6.81,4.534-10.944c0-4.134-1.61-8.021-4.534-10.943
					l-0.354-0.354l-11.297,11.297L125.064-59.395z M128.953-70.691c0,3.699-1.379,7.187-3.895,9.877l-9.877-9.877l9.877-9.876
					C127.574-77.879,128.953-74.391,128.953-70.691z"/>
				<path fill="#FFFFFF" d="M99.768-59.525c2.955,2.956,6.885,4.584,11.066,4.584c4.18,0,8.109-1.628,11.066-4.584
					c0.195-0.195,0.195-0.512,0-0.707l-10.359-10.359L121.9-80.952c0.195-0.195,0.195-0.512,0-0.707
					c-2.955-2.956-6.885-4.583-11.064-4.583c-4.182,0-8.111,1.628-11.068,4.585c-2.955,2.955-4.584,6.886-4.584,11.066
					C95.184-66.411,96.812-62.481,99.768-59.525z M100.475-80.951c2.768-2.768,6.447-4.292,10.361-4.292
					c3.746,0,7.277,1.396,9.998,3.943L110.48-70.945c-0.195,0.195-0.195,0.512,0,0.707l10.354,10.353
					c-2.723,2.547-6.255,3.944-10.001,3.944c-3.913-0.001-7.591-1.525-10.358-4.292c-2.768-2.766-4.291-6.446-4.291-10.359
					C96.184-74.505,97.708-78.184,100.475-80.951z"/>
				<path fill="#FFFFFF" d="M160.559,174.904c-0.276,0-0.5,0.225-0.5,0.5v19.451h-11.164c-0.133,0-0.261,0.052-0.354,0.146
					c-0.094,0.095-0.146,0.222-0.146,0.354l0.002,18.975h-7.367c-0.275,0-0.5,0.225-0.5,0.5v15.584c0,0.275,0.225,0.5,0.5,0.5
					c0.277,0,0.5-0.225,0.5-0.5V215.33h7.367c0.133,0,0.261-0.053,0.354-0.146s0.146-0.221,0.146-0.354l-0.002-18.975h11.164
					c0.275,0,0.5-0.225,0.5-0.5v-19.951C161.059,175.129,160.834,174.904,160.559,174.904z"/>
				<path fill="#FFFFFF" d="M234.646,95.283c-0.188-0.188-0.52-0.188-0.707,0l-28.227,28.228c-0.195,0.195-0.195,0.513,0,0.707
					l21.93,21.929c0.098,0.098,0.226,0.146,0.354,0.146s0.256-0.049,0.354-0.146l28.227-28.224c0.195-0.194,0.195-0.512,0-0.707
					L234.646,95.283z M227.996,145.086l-21.223-21.222l27.52-27.521l21.223,21.226L227.996,145.086z"/>
				<path fill="#FFFFFF" d="M114.835,113.021c-1.229-1.229-2.864-1.905-4.604-1.905c-1.739,0-3.375,0.677-4.605,1.905
					c-2.538,2.541-2.536,6.674,0.003,9.211c1.229,1.229,2.865,1.908,4.604,1.908c1.74,0,3.373-0.679,4.602-1.91
					c1.23-1.229,1.908-2.863,1.908-4.604S116.064,114.252,114.835,113.021z M115.694,117.128l-2.44-0.002
					c-0.074-0.454-0.252-0.892-0.531-1.282l1.727-1.725C115.166,114.978,115.594,116.014,115.694,117.128z M104.771,118.126
					l2.439,0.002c0.075,0.457,0.256,0.897,0.537,1.289c-0.012,0.01-0.026,0.014-0.037,0.024l-1.692,1.693
					C105.285,120.254,104.87,119.208,104.771,118.126z M111.698,119.093c-0.784,0.782-2.147,0.782-2.931,0
					c-0.808-0.808-0.808-2.122,0-2.932c0.393-0.392,0.912-0.606,1.465-0.606s1.073,0.215,1.465,0.605c0,0,0,0.001,0.001,0.002
					c0.001,0,0.001,0.001,0.002,0.001C112.506,116.971,112.505,118.286,111.698,119.093z M112.015,115.14
					c-0.395-0.275-0.846-0.445-1.315-0.514v-2.465c1.128,0.095,2.176,0.525,3.044,1.25L112.015,115.14z M109.699,114.632
					c-0.446,0.074-0.872,0.245-1.247,0.507l-1.731-1.729c0.852-0.71,1.876-1.137,2.979-1.242V114.632z M108.418,120.148
					c0.011-0.011,0.015-0.024,0.023-0.035c0.388,0.28,0.83,0.463,1.302,0.538l-0.001,2.439c-1.117-0.099-2.156-0.528-3.018-1.248
					L108.418,120.148z M110.743,120.649c0.462-0.077,0.895-0.258,1.273-0.53l1.724,1.724c-0.856,0.716-1.889,1.144-2.998,1.246
					L110.743,120.649z M106.016,114.118l1.728,1.726c-0.279,0.391-0.458,0.828-0.532,1.284l-2.439-0.002
					C104.869,116.045,105.283,114.999,106.016,114.118z M114.447,121.136l-1.726-1.726c0.28-0.391,0.458-0.828,0.533-1.284
					l2.439,0.002C115.594,119.242,115.164,120.277,114.447,121.136z"/>
				<path fill="#FFFFFF" d="M98.227,124.503c-0.195-0.194-0.513-0.194-0.707,0c-0.195,0.195-0.195,0.513,0,0.707l5.129,5.13
					c0.098,0.098,0.226,0.146,0.354,0.146s0.256-0.049,0.354-0.146c0.194-0.195,0.194-0.512,0-0.707L98.227,124.503z"/>
				<path fill="#FFFFFF" d="M129.719,125.775c0.094,0.094,0.221,0.146,0.354,0.146c0.133,0,0.26-0.053,0.353-0.146l2.362-2.363
					c0.194-0.195,0.194-0.514,0-0.707l-2.498-2.497l2.286-2.285c0.195-0.194,0.195-0.512,0-0.707l-21.93-21.933
					c-0.188-0.188-0.52-0.188-0.707,0l-28.227,28.228c-0.195,0.195-0.195,0.513,0,0.707l21.93,21.929
					c0.098,0.098,0.226,0.146,0.354,0.146s0.256-0.049,0.354-0.146l2.313-2.313l2.498,2.499c0.098,0.098,0.226,0.146,0.354,0.146
					c0.127,0,0.256-0.049,0.353-0.146l2.362-2.36c0.094-0.095,0.146-0.222,0.146-0.354c0-0.134-0.052-0.261-0.146-0.354l-2.5-2.498
					l17.491-17.489L129.719,125.775z M109.516,145.271l-2.145-2.145l1.654-1.654l2.146,2.145L109.516,145.271z M131.729,123.059
					l-1.654,1.655l-2.145-2.146l1.654-1.654L131.729,123.059z M103.996,145.086l-21.223-21.222l27.52-27.521l21.223,21.226
					l-2.282,2.281c-0.001,0.002-0.003,0.002-0.005,0.004l-2.361,2.361c-0.001,0.001-0.002,0.003-0.003,0.005L103.996,145.086z"/>
				<path fill="#FFFFFF" d="M223.619,74.24l-10.094-10.016c-0.508-0.504-1.184-0.783-1.905-0.783c-0.003,0-0.006,0-0.009,0
					c-0.725,0.004-1.405,0.287-1.912,0.799l-17.418,17.552c-0.518,0.521-0.814,1.233-0.811,1.954
					c0.002,0.684,0.262,1.316,0.733,1.781l1.234,1.225l-1.473,1.473c-1.055,1.057-1.055,2.772,0,3.827l1.164,1.164l3.438,3.441
					c0.003,0.003,0.006,0.003,0.009,0.006l5.442,5.442c0.526,0.526,1.22,0.791,1.912,0.791c0.693,0,1.387-0.264,1.914-0.791
					l17.486-17.486c1.057-1.055,1.057-2.773,0-3.828l-1.206-1.206l1.509-1.519C224.682,77.008,224.676,75.291,223.619,74.24z
					 M192.673,88.932l1.826-1.826l15.66-15.66c0.64-0.641,1.771-0.641,2.413,0l0.812,0.812l-19.9,19.899l-0.811-0.811
					C192.008,90.68,192.008,89.598,192.673,88.932z M195.211,93.884l-1.021-1.022l19.899-19.898l2.731,2.732l-19.897,19.899
					L195.211,93.884z M223.121,82.705c0,0.458-0.176,0.887-0.496,1.207l-17.486,17.486c-0.664,0.664-1.748,0.666-2.412,0
					l-5.097-5.096l19.899-19.9l3.529,3.529c0.004,0.004,0.004,0.008,0.008,0.012c0.003,0.003,0.008,0.004,0.011,0.007l1.548,1.548
					C222.945,81.818,223.121,82.247,223.121,82.705z M222.925,77.361l-1.506,1.517l-8.14-8.139c-1.055-1.056-2.772-1.056-3.827,0
					l-15.308,15.307l-1.236-1.228c-0.281-0.278-0.436-0.66-0.438-1.076c-0.002-0.457,0.188-0.911,0.52-1.246l17.418-17.553
					c0.32-0.321,0.748-0.5,1.206-0.502c0.002,0,0.004,0,0.006,0c0.455,0,0.882,0.176,1.2,0.494l10.094,10.015
					C223.58,75.613,223.585,76.695,222.925,77.361z"/>
				<path fill="#FFFFFF" d="M219.455,153.459l-2.632-0.697c-0.171-0.046-0.355,0.004-0.482,0.131l-1.35,1.354l-14.087-14.042
					l2.314-2.322c0.166-0.168,0.193-0.429,0.064-0.627c-0.129-0.196-0.379-0.274-0.6-0.192l-22.633,8.715
					c-0.133,0.051-0.236,0.156-0.287,0.289l-8.638,22.658c-0.085,0.221-0.003,0.469,0.194,0.598c0.084,0.054,0.178,0.08,0.271,0.08
					c0.129,0,0.258-0.051,0.356-0.147l2.103-2.109l14.087,14.043l-1.245,1.249c-0.115,0.115-0.166,0.277-0.14,0.438l0.483,2.854
					c0.031,0.185,0.162,0.336,0.342,0.394c0.049,0.015,0.1,0.022,0.15,0.022c0.131,0,0.26-0.051,0.354-0.147l31.599-31.701
					c0.125-0.127,0.174-0.312,0.127-0.483C219.764,153.641,219.628,153.505,219.455,153.459z M214.286,154.954l-1.874,1.88
					l-14.087-14.043l1.874-1.879L214.286,154.954z M191.42,177.895l-14.087-14.042l1.875-1.881l14.087,14.042L191.42,177.895z
					 M194,175.307l-14.087-14.042l15.128-15.178l14.088,14.041L194,175.307z M209.834,159.421l-14.088-14.042l1.875-1.881
					l14.087,14.043L209.834,159.421z M180.617,146.631l20.232-7.791l-1.002,1.005c-0.002,0.002-0.005,0.003-0.007,0.005
					s-0.003,0.005-0.005,0.007l-2.572,2.581l0,0l0,0l-2.578,2.587c0,0-0.001,0-0.002,0.001s-0.001,0.002-0.001,0.002l-20.988,21.057
					c0,0.001-0.001,0.001-0.001,0.001s0,0.001-0.001,0.001l-0.798,0.801L180.617,146.631z M174.755,166.438l1.873-1.879
					l14.087,14.043l-1.872,1.879L174.755,166.438z M188.061,184.605l-0.278-1.645l1.409-1.414c0.003-0.002,0.006-0.003,0.008-0.005
					s0.003-0.005,0.005-0.008l2.564-2.572c0.003-0.003,0.006-0.003,0.009-0.006s0.003-0.006,0.006-0.009l2.564-2.572
					c0.003-0.003,0.007-0.004,0.01-0.007s0.004-0.007,0.007-0.01l15.82-15.872c0.002-0.002,0.005-0.002,0.007-0.004
					s0.002-0.005,0.004-0.007l2.572-2.58c0.001,0,0.001,0,0.002-0.001s0.001-0.001,0.001-0.002l4.075-4.088l1.514,0.401
					L188.061,184.605z"/>
				<path fill="#FFFFFF" d="M198.583,161.377l-0.462-0.461c-0.023-0.023-0.055-0.037-0.088-0.037s-0.066,0.014-0.09,0.037
					l-3.172,3.182l-1.265-1.258l2.403-2.412c0.892-0.895,1.373-1.811,1.43-2.723c0.059-0.916-0.312-1.779-1.1-2.562
					c-0.53-0.531-1.057-0.879-1.567-1.035c-0.522-0.156-1.005-0.191-1.442-0.104c-0.453,0.087-0.863,0.256-1.221,0.502
					c-0.354,0.242-0.658,0.492-0.91,0.742l-3.217,3.229c-0.049,0.049-0.048,0.129,0.001,0.176l4.274,4.261l-1.051,1.053
					c-0.049,0.05-0.049,0.127,0,0.177l0.463,0.463c0.023,0.022,0.056,0.037,0.089,0.037c0.032,0,0.065-0.015,0.089-0.037l1.05-1.055
					l1.267,1.262l-1.053,1.055c-0.023,0.023-0.035,0.055-0.035,0.088s0.014,0.066,0.037,0.089l0.461,0.459
					c0.049,0.048,0.129,0.048,0.178-0.001l1.051-1.052l1.883,1.876c0.025,0.025,0.057,0.037,0.088,0.037
					c0.032,0,0.064-0.012,0.09-0.038l0.532-0.533c0.022-0.024,0.036-0.055,0.036-0.088s-0.014-0.065-0.037-0.088l-1.885-1.879
					l3.174-3.185C198.633,161.504,198.632,161.426,198.583,161.377z M195.355,159.707l-2.487,2.495l-3.724-3.71l2.56-2.568
					c0.421-0.424,0.829-0.695,1.214-0.809c0.389-0.115,0.751-0.149,1.077-0.092c0.346,0.061,0.639,0.17,0.894,0.334
					c0.266,0.17,0.478,0.334,0.629,0.483c0.226,0.226,0.408,0.479,0.551,0.763c0.146,0.274,0.231,0.584,0.256,0.922
					c0.021,0.332-0.039,0.688-0.184,1.054C195.995,158.953,195.738,159.32,195.355,159.707z"/>
				<path fill="#FFFFFF" d="M182.946,123.497l0.009-0.009l-2.584-2.584l-0.008,0.008c-0.001-0.001-0.001-0.002-0.002-0.003
					l-0.004,0.005l-2.505-2.505c-0.008-0.009-0.012-0.02-0.021-0.028l-0.004,0.004l0,0l0.006-0.007l-2.566-2.565l0.004-0.005
					l-2.529-2.531l0,0l-0.025-0.025l-0.025-0.025l0,0l-2.53-2.528l-0.007,0.007c-0.001,0-0.001-0.001-0.002-0.002l-0.707,0.707
					c0.175,0.175,0.117,0.981-0.76,2.489c-0.875,1.504-2.289,3.265-3.979,4.955c-3.889,3.888-6.897,5.158-7.42,4.751l-0.017-0.017
					l-0.005,0.005c-0.001-0.001-0.002-0.001-0.003-0.002l-0.707,0.707c0.008,0.009,0.021,0.011,0.029,0.019l2.504,2.504
					l-0.005,0.004l0.001,0.001l-0.001,0.001c0.002,0.002,0.004,0.002,0.005,0.004l0.051,0.049l-0.002,0.002
					c0.002,0.002,0.006,0.003,0.008,0.005l2.51,2.511l-0.002,0.002c0.003,0.003,0.008,0.004,0.011,0.007l0.003,0.003l0.001-0.001
					c0,0,0,0,0,0.001l-0.001,0.001c0.008,0.008,0.021,0.011,0.029,0.019l2.541,2.539l-0.012,0.012l2.582,2.585l0.002-0.002
					l2.527,2.527l0.707-0.707l-1.544-1.544c1.925-0.451,4.787-2.621,7.178-5.013c2.394-2.394,4.567-5.26,5.017-7.185l1.551,1.551
					l-0.008,0.009c0.461,0.459-0.797,3.504-4.737,7.446c-3.942,3.939-6.981,5.197-7.444,4.736l-0.707,0.707
					c0.254,0.254,0.596,0.369,1.006,0.369c1.875,0,5.166-2.42,7.853-5.105C181.478,129.082,184.354,124.917,182.946,123.497z
					 M162.837,126.282c1.576-0.916,3.408-2.388,5.159-4.14c2.393-2.392,4.565-5.257,5.015-7.183l1.538,1.538l-0.005,0.005
					l0.001,0.001l-0.001,0.001c0.057,0.058,0.087,0.154,0.089,0.288c0.001,0.006-0.001,0.014-0.001,0.021
					c-0.002,0.96-1.397,3.709-4.827,7.138c-3.873,3.876-6.875,5.15-7.414,4.758l-0.021-0.021l-0.004,0.004l-1.538-1.537
					C161.394,127.017,162.062,126.733,162.837,126.282z M170.523,124.671c1.072-1.071,2.018-2.168,2.816-3.224
					c0.007-0.01,0.015-0.02,0.021-0.029c0.271-0.358,0.522-0.71,0.752-1.055c0.122-0.183,0.237-0.362,0.348-0.541
					c0.062-0.102,0.141-0.211,0.199-0.311c0.453-0.78,0.739-1.449,0.876-2.017l1.588,1.587l-0.007,0.007l0.02,0.019
					c0.021,0.027,0.041,0.057,0.054,0.097c0.211,0.679-0.939,3.256-4.098,6.601c-0.226,0.239-0.462,0.482-0.708,0.729
					c-0.415,0.415-0.834,0.812-1.253,1.189c-0.012,0.011-0.024,0.022-0.036,0.033c-0.418,0.376-0.835,0.731-1.246,1.062
					c-0.007,0.006-0.015,0.012-0.022,0.018c-0.402,0.323-0.798,0.62-1.185,0.893c-0.023,0.016-0.047,0.033-0.07,0.05
					c-0.374,0.261-0.738,0.494-1.09,0.7c-0.029,0.018-0.062,0.038-0.092,0.056c-0.152,0.088-0.297,0.166-0.435,0.238
					c-0.02,0.01-0.041,0.022-0.061,0.032c-1.158,0.591-1.792,0.618-1.95,0.469l0.006-0.006l-1.59-1.589
					C165.286,129.219,168.14,127.055,170.523,124.671z M166.201,132.17c0.143-0.044,0.289-0.096,0.443-0.157
					c0.141-0.056,0.281-0.113,0.428-0.183c0.09-0.042,0.185-0.093,0.277-0.141c0.56-0.283,1.15-0.641,1.764-1.069
					c0.053-0.037,0.107-0.078,0.16-0.116c0.333-0.237,0.667-0.487,1.006-0.755c0.121-0.097,0.242-0.194,0.365-0.295
					c0.284-0.233,0.566-0.474,0.849-0.723c0.137-0.12,0.271-0.235,0.407-0.36c0.405-0.368,0.806-0.745,1.191-1.131
					c0.205-0.205,0.408-0.413,0.608-0.623c2.138-2.246,3.984-4.782,4.404-6.541l1.562,1.562c0.157,0.206,0.079,1.005-0.772,2.469
					c-0.873,1.502-2.287,3.262-3.979,4.953c-3.938,3.941-6.979,5.198-7.444,4.74l-0.004,0.004l-0.006-0.005l-0.002,0.001
					l-1.547-1.548C166.006,132.231,166.104,132.2,166.201,132.17z M165.412,119.561c1.751-1.75,3.22-3.584,4.137-5.16
					c0.456-0.782,0.742-1.454,0.879-2.023l1.554,1.554l-0.007,0.007c0.176,0.174,0.116,0.98-0.761,2.488
					c-0.874,1.502-2.287,3.262-3.979,4.954c-3.164,3.163-5.988,4.817-7.145,4.817c-0.077,0-0.208-0.013-0.28-0.069l-1.559-1.559
					C160.176,124.109,163.029,121.944,165.412,119.561z"/>
				<path fill="#FFFFFF" d="M189.893,122.947c-1.509,0.877-2.315,0.934-2.49,0.759l-0.707,0.707
					c0.248,0.249,0.582,0.372,1.003,0.372c0.68,0,1.581-0.324,2.696-0.973c1.574-0.916,3.407-2.387,5.16-4.14
					c3.057-3.056,5.109-6.21,5.108-7.851c0-0.422-0.125-0.758-0.368-1.004l0.008-0.008l-2.583-2.584h-0.001l-2.526-2.527
					l-0.008,0.008c-0.001,0-0.001-0.001-0.001-0.002l0.008-0.008l-2.582-2.582l-0.008,0.008c-0.001-0.001-0.001-0.002-0.002-0.003
					c-0.244-0.245-0.582-0.369-1.002-0.369c-1.642,0-4.797,2.054-7.854,5.11c-3.059,3.058-5.113,6.214-5.112,7.854
					c0,0.421,0.124,0.759,0.369,1.002c0.002,0.002,0.004,0.002,0.005,0.003l2.574,2.576l-0.006,0.006l2.527,2.527v0.001l2.582,2.582
					l0.707-0.707l-1.548-1.548c1.925-0.448,4.791-2.619,7.185-5.012c2.392-2.392,4.565-5.257,5.016-7.182l1.551,1.551l-0.009,0.008
					c0.067,0.066,0.078,0.216,0.078,0.299c0.001,1.156-1.653,3.982-4.815,7.144C193.154,120.66,191.395,122.074,189.893,122.947z
					 M194.475,106.411L194.475,106.411c0.001,0.001,0.001,0.003,0.002,0.004c0.029,0.032,0.047,0.081,0.059,0.132
					c0.002,0.011,0.004,0.024,0.006,0.036c0.006,0.043,0.01,0.087,0.01,0.119c0,0.005,0,0.011,0,0.016
					c-0.001,0.135-0.027,0.294-0.072,0.472c-0.009,0.035-0.022,0.076-0.034,0.113c-0.04,0.14-0.096,0.293-0.161,0.454
					c-0.027,0.069-0.056,0.138-0.089,0.212c-0.075,0.168-0.164,0.348-0.263,0.535c-0.049,0.092-0.101,0.186-0.156,0.283
					c-0.047,0.083-0.104,0.172-0.154,0.258c-0.17,0.285-0.359,0.578-0.564,0.878c-0.064,0.093-0.128,0.186-0.195,0.281
					c-0.212,0.297-0.441,0.6-0.683,0.905c-0.073,0.094-0.142,0.185-0.219,0.28c-0.265,0.326-0.55,0.657-0.843,0.988
					c-0.071,0.08-0.133,0.156-0.206,0.237c-0.374,0.413-0.767,0.828-1.177,1.238c-0.397,0.397-0.799,0.777-1.199,1.141
					c-0.039,0.035-0.078,0.072-0.117,0.106c-0.388,0.35-0.774,0.678-1.157,0.987c-0.042,0.034-0.085,0.069-0.127,0.103
					c-0.366,0.293-0.727,0.563-1.08,0.813c-0.059,0.042-0.118,0.085-0.176,0.124c-0.338,0.234-0.667,0.444-0.986,0.634
					c-0.354,0.21-0.681,0.384-0.974,0.52c-0.04,0.019-0.085,0.042-0.124,0.059c-0.023,0.011-0.045,0.018-0.068,0.028
					c-0.835,0.354-1.308,0.353-1.436,0.225l-0.006,0.006l-0.001-0.001l0.008-0.007l-1.599-1.598
					c1.746-0.436,4.495-2.341,7.169-5.013c2.392-2.393,4.566-5.259,5.016-7.184l1.605,1.605L194.475,106.411
					C194.475,106.41,194.475,106.41,194.475,106.411z M189.081,115.85c0.025-0.023,0.052-0.048,0.078-0.071
					c0.437-0.395,0.867-0.802,1.282-1.218c0.416-0.416,0.809-0.833,1.186-1.248c0.112-0.125,0.215-0.248,0.324-0.373
					c0.255-0.29,0.503-0.578,0.735-0.864c0.126-0.154,0.241-0.305,0.36-0.457c0.195-0.252,0.383-0.5,0.559-0.745
					c0.118-0.164,0.23-0.324,0.339-0.484c0.152-0.226,0.291-0.443,0.423-0.658c0.066-0.108,0.149-0.223,0.211-0.328
					c0.051-0.087,0.09-0.166,0.137-0.25c0.016-0.029,0.031-0.057,0.046-0.085c0.337-0.62,0.566-1.168,0.686-1.643
					c0.004-0.015,0.009-0.03,0.013-0.044l1.551,1.551l-0.007,0.008c0.175,0.174,0.117,0.98-0.76,2.49
					c-0.875,1.502-2.288,3.262-3.979,4.954c-3.94,3.942-6.981,5.198-7.445,4.74l-0.004,0.005l-1.548-1.548
					C184.836,119.21,187.028,117.693,189.081,115.85z M184.451,108.568c3.162-3.162,5.988-4.817,7.146-4.817
					c0.082,0,0.229,0.01,0.295,0.076c0.459,0.46-0.799,3.505-4.74,7.446c-3.161,3.16-5.987,4.813-7.146,4.813
					c-0.082,0-0.231-0.01-0.299-0.078c-0.065-0.065-0.076-0.213-0.076-0.294C179.631,114.559,181.286,111.732,184.451,108.568z"/>
				<path fill="#FFFFFF" d="M167.841,109.812l1.595,1.597l0.707-0.707l-2.556-2.559c-0.008-0.008-0.011-0.018-0.019-0.025
					c-0.244-0.245-0.582-0.368-1.002-0.368c-1.641,0-4.797,2.052-7.854,5.11c-3.27,3.271-6.146,7.433-4.746,8.851l-0.005,0.005
					l2.583,2.582l0.707-0.707l-1.598-1.597c1.744-0.432,4.497-2.338,7.177-5.017C165.216,114.592,167.383,111.736,167.841,109.812z
					 M154.979,121.085c-0.084,0-0.233-0.01-0.301-0.077c-0.457-0.458,0.803-3.501,4.742-7.443c3.163-3.162,5.99-4.816,7.146-4.816
					c0.08,0,0.222,0.011,0.288,0.072l-0.002,0.002l0.019,0.02c0.422,0.505-0.845,3.523-4.747,7.428
					C158.962,119.432,156.135,121.085,154.979,121.085z"/>
				<path fill="#FFFFFF" d="M125.064,166.011l-11.297,11.298l11.297,11.297l0.354-0.354c2.924-2.923,4.534-6.81,4.534-10.942
					c0-4.135-1.61-8.021-4.534-10.943L125.064,166.011z M125.059,187.186l-9.877-9.877l9.877-9.877
					c2.516,2.689,3.895,6.178,3.895,9.877S127.574,184.497,125.059,187.186z"/>
				<path fill="#FFFFFF" d="M111.541,177.409l10.359-10.361c0.195-0.194,0.195-0.512,0-0.707c-2.955-2.954-6.885-4.583-11.064-4.583
					c-4.182,0-8.111,1.629-11.068,4.585c-2.955,2.955-4.584,6.886-4.584,11.066c0,4.18,1.629,8.11,4.584,11.065
					c2.955,2.957,6.885,4.584,11.066,4.584c4.18,0,8.109-1.627,11.066-4.584c0.195-0.195,0.195-0.512,0-0.707L111.541,177.409z
					 M110.833,192.059c-3.913,0-7.591-1.523-10.358-4.291c-2.768-2.767-4.291-6.445-4.291-10.359s1.524-7.592,4.291-10.359
					c2.768-2.768,6.447-4.292,10.361-4.292c3.746,0,7.277,1.396,9.998,3.942l-10.354,10.355c-0.195,0.194-0.195,0.512,0,0.706
					l10.354,10.354C118.111,190.662,114.579,192.059,110.833,192.059z"/>
				<path fill="#FFFFFF" d="M152.148,142.079c0,0,0,0,0.002,0h0.029c0.437,0,0.868-0.179,1.188-0.495
					c0.318-0.32,0.5-0.764,0.496-1.207c0.004-0.443-0.178-0.882-0.497-1.203c-0.322-0.32-0.75-0.497-1.21-0.497
					c-0.905,0-1.699,0.794-1.699,1.696c-0.003,0.455,0.175,0.886,0.503,1.215C151.279,141.904,151.697,142.079,152.148,142.079z
					 M151.674,139.895c0.137-0.139,0.314-0.218,0.487-0.218c0.188,0,0.364,0.073,0.497,0.204c0.128,0.129,0.205,0.316,0.205,0.496
					c0,0.186-0.074,0.369-0.204,0.5c-0.13,0.129-0.304,0.202-0.479,0.202h-0.041c-0.174,0-0.347-0.073-0.474-0.2
					c-0.136-0.136-0.21-0.314-0.209-0.503C151.456,140.207,151.535,140.033,151.674,139.895z"/>
				<path fill="#FFFFFF" d="M148.93,128.8c-1.039-1.039-2.73-1.036-3.769,0l-1.938,1.937l-2.239-2.238
					c-0.036-0.036-0.079-0.062-0.117-0.096c-0.014-0.018-0.02-0.038-0.036-0.055c-0.049-0.049-0.105-0.086-0.166-0.11
					c-1.043-0.76-2.511-0.679-3.45,0.261l-9.074,9.075c-0.001,0.001-0.001,0.002-0.002,0.003l-7.509,7.509
					c-0.772,0.772-1.263,1.745-1.377,2.737c-0.12,1.035,0.179,1.971,0.84,2.632c0.216,0.216,0.467,0.378,0.732,0.514l3.439,3.441
					c-0.003,0.131,0.045,0.263,0.145,0.362l14.096,14.096c0.502,0.501,1.171,0.777,1.884,0.777c0.715,0,1.383-0.277,1.885-0.776
					l21.479-21.476c1.038-1.041,1.038-2.729,0-3.77L148.93,128.8z M158.322,139.607l-4.137,4.138c-0.625,0.624-1.729,0.626-2.354,0
					l-3.026-3.024c-0.312-0.312-0.484-0.73-0.484-1.178s0.173-0.865,0.484-1.177l4.139-4.138L158.322,139.607z M142.517,131.443
					l-14.908,14.908c-0.001,0.001-0.002,0.001-0.003,0.002l-2.855,2.855c-0.171,0.171-0.355,0.318-0.546,0.453
					c-0.115-0.073-0.229-0.146-0.323-0.241c-0.441-0.44-0.637-1.081-0.554-1.808c0.089-0.771,0.476-1.533,1.09-2.146l7.515-7.513
					c0.001-0.001,0.001-0.002,0.002-0.003l8.545-8.545L142.517,131.443z M120.246,147.938c0.089-0.77,0.477-1.531,1.091-2.146
					l7.513-7.513l9.073-9.074c0.466-0.466,1.144-0.592,1.729-0.387l-8.43,8.43c-0.001,0.001-0.001,0.002-0.002,0.003l-7.511,7.509
					c-0.772,0.773-1.262,1.745-1.376,2.738c-0.119,1.036,0.18,1.971,0.838,2.628c0.013,0.013,0.031,0.021,0.045,0.033
					c-0.64,0.209-1.269,0.21-1.786,0l-0.644-0.644c-0.076-0.076-0.171-0.113-0.269-0.13
					C120.278,148.984,120.183,148.485,120.246,147.938z M163.045,146.684l-21.479,21.477c-0.625,0.624-1.729,0.626-2.354,0
					l-13.962-13.962c0.003-0.131-0.045-0.263-0.145-0.362l-2.531-2.532c0.541-0.043,1.1-0.196,1.645-0.477
					c0.004-0.002,0.005-0.005,0.009-0.007c0.446-0.229,0.861-0.535,1.23-0.905l0.365-0.365c0.001-0.001,0.002-0.001,0.003-0.002
					l20.042-20.041c0.647-0.647,1.705-0.647,2.354,0l4.014,4.015l-4.139,4.138c-0.502,0.501-0.777,1.17-0.777,1.884
					s0.275,1.383,0.777,1.885l3.026,3.024c0.501,0.501,1.17,0.778,1.884,0.778c0.715,0,1.383-0.277,1.885-0.778l4.137-4.138
					l4.016,4.016C163.693,144.979,163.693,146.036,163.045,146.684z"/>
				<path fill="#FFFFFF" d="M179.01,71.797c0.024,0.004,0.051,0.006,0.074,0.006c0.243,0,0.457-0.178,0.494-0.427l0.417-2.812
					c0.022-0.157-0.029-0.315-0.142-0.429c-0.113-0.112-0.273-0.165-0.43-0.14l-2.746,0.424c-0.273,0.042-0.46,0.297-0.418,0.57
					s0.305,0.459,0.57,0.418l1.278-0.197l-36.579,36.578V91.33h7.367c0.133,0,0.261-0.053,0.354-0.146s0.146-0.221,0.146-0.354
					l-0.002-18.975h11.164c0.275,0,0.5-0.225,0.5-0.5V51.405c0-0.276-0.225-0.5-0.5-0.5c-0.276,0-0.5,0.224-0.5,0.5v19.451h-11.164
					c-0.133,0-0.261,0.052-0.354,0.146c-0.094,0.095-0.146,0.222-0.146,0.354l0.002,18.975h-7.367c-0.275,0-0.5,0.225-0.5,0.5
					v14.916l-17.936-17.938l1.277,0.188c0.281,0.045,0.527-0.149,0.568-0.421c0.039-0.273-0.149-0.527-0.422-0.567l-2.672-0.396
					c-0.183-0.077-0.401-0.044-0.55,0.104c-0.004,0.004-0.005,0.009-0.008,0.012s-0.008,0.004-0.011,0.007
					c-0.04,0.04-0.062,0.09-0.085,0.139c-0.001,0.003-0.005,0.006-0.006,0.009c-0.041,0.088-0.064,0.183-0.05,0.28l0.422,2.746
					c0.037,0.247,0.25,0.424,0.492,0.424c0.025,0,0.051-0.002,0.078-0.007c0.271-0.042,0.46-0.298,0.418-0.57l-0.196-1.276
					l18.847,18.848c0.094,0.093,0.221,0.146,0.354,0.146s0.26-0.054,0.354-0.146l37.373-37.372l-0.188,1.274
					C178.548,71.502,178.736,71.757,179.01,71.797z"/>
				<path fill="#FFFFFF" d="M125.418,64.251c2.924-2.923,4.534-6.81,4.534-10.943c0-4.134-1.61-8.021-4.534-10.943l-0.354-0.354
					l-11.297,11.297l11.297,11.297L125.418,64.251z M115.182,53.309l9.877-9.877c2.516,2.689,3.895,6.177,3.895,9.877
					c0,3.699-1.379,7.188-3.895,9.876L115.182,53.309z"/>
				<path fill="#FFFFFF" d="M110.834,69.059c4.18,0,8.109-1.627,11.066-4.584c0.195-0.195,0.195-0.512,0-0.707l-10.359-10.358
					L121.9,43.048c0.195-0.195,0.195-0.512,0-0.707c-2.955-2.955-6.885-4.583-11.064-4.583c-4.182,0-8.111,1.628-11.068,4.585
					c-2.955,2.955-4.584,6.886-4.584,11.066c0,4.18,1.629,8.111,4.584,11.065C102.723,67.432,106.652,69.059,110.834,69.059z
					 M100.475,43.049c2.768-2.768,6.447-4.292,10.361-4.292c3.746,0,7.277,1.395,9.998,3.943L110.48,53.055
					c-0.195,0.195-0.195,0.512,0,0.707l10.354,10.353c-2.723,2.547-6.255,3.943-10.001,3.943c-3.913,0-7.591-1.523-10.358-4.291
					c-2.768-2.767-4.291-6.446-4.291-10.359C96.184,49.494,97.708,45.817,100.475,43.049z"/>
				<path fill="#FFFFFF" d="M132.577-6.784l-21.931-21.933c-0.187-0.188-0.519-0.188-0.707,0L81.714-0.489
					c-0.194,0.195-0.194,0.512,0,0.707l21.929,21.929c0.098,0.097,0.226,0.146,0.354,0.146s0.256-0.049,0.354-0.147l2.313-2.313
					l2.498,2.499c0.098,0.097,0.226,0.146,0.354,0.146c0.127,0,0.256-0.049,0.353-0.145l2.362-2.361
					c0.094-0.094,0.146-0.221,0.146-0.354c0-0.133-0.052-0.26-0.146-0.354l-2.5-2.499l17.491-17.488l2.497,2.499
					c0.094,0.093,0.221,0.146,0.354,0.146c0.133,0,0.26-0.053,0.353-0.146l2.362-2.364c0.194-0.195,0.194-0.512,0-0.707
					l-2.497-2.496l2.286-2.286C132.771-6.272,132.771-6.589,132.577-6.784z M109.516,21.271l-2.145-2.144l1.654-1.654l2.146,2.144
					L109.516,21.271z M131.729-0.942l-1.654,1.656l-2.144-2.145l1.653-1.654L131.729-0.942z M129.233-4.149
					c-0.001,0.001-0.003,0.002-0.005,0.003l-2.361,2.361c-0.002,0.002-0.002,0.004-0.004,0.006l-22.867,22.865L82.773-0.136
					l27.52-27.521l21.223,21.226L129.233-4.149z"/>
				<path fill="#FFFFFF" d="M-20.358,22.147c0.098,0.097,0.226,0.146,0.354,0.146s0.256-0.049,0.354-0.147l2.312-2.312l2.499,2.499
					c0.098,0.097,0.226,0.146,0.354,0.146s0.256-0.049,0.353-0.145l2.363-2.361c0.093-0.094,0.146-0.221,0.146-0.354
					c0-0.133-0.052-0.26-0.146-0.354l-2.5-2.499L3.222-0.724l2.497,2.5C5.813,1.869,5.94,1.922,6.073,1.922
					c0.133,0,0.26-0.053,0.354-0.147l2.362-2.363c0.195-0.195,0.195-0.512,0-0.707L6.291-3.792l2.286-2.285
					c0.195-0.195,0.195-0.512,0-0.707l-21.929-21.933c-0.187-0.188-0.519-0.188-0.707,0L-42.286-0.489
					c-0.195,0.195-0.195,0.512,0,0.707L-20.358,22.147z M-14.485,21.271l-2.144-2.144l1.654-1.654l2.146,2.144L-14.485,21.271z
					 M7.729-0.942L6.074,0.714L3.93-1.432l1.654-1.653L7.729-0.942z M-13.707-27.657L7.516-6.431L5.234-4.149
					C5.232-4.148,5.23-4.147,5.229-4.146L2.868-1.785C2.867-1.784,2.867-1.782,2.865-1.781l-22.869,22.867L-41.226-0.136
					L-13.707-27.657z"/>
				<path fill="#FFFFFF" d="M-13.768,0.14c1.74,0,3.374-0.678,4.602-1.909c1.23-1.229,1.908-2.864,1.908-4.604
					c0-1.74-0.678-3.375-1.907-4.605s-2.865-1.907-4.605-1.907c-1.739,0-3.375,0.678-4.605,1.907
					c-2.538,2.541-2.536,6.673,0.003,9.21C-17.142-0.538-15.507,0.14-13.768,0.14z M-16.789-5.872
					c0.075,0.458,0.256,0.897,0.538,1.289c-0.012,0.01-0.026,0.014-0.038,0.025l-1.693,1.693c-0.733-0.881-1.148-1.927-1.246-3.009
					L-16.789-5.872z M-13.767-8.446c0.553,0,1.073,0.215,1.464,0.606c0,0,0.001,0.001,0.001,0.002s0.001,0,0.002,0.001
					c0.805,0.808,0.805,2.123-0.002,2.93c-0.784,0.782-2.147,0.782-2.93,0c-0.808-0.808-0.808-2.123,0-2.932
					C-14.84-8.23-14.32-8.446-13.767-8.446z M-15.582-3.851c0.011-0.011,0.015-0.025,0.024-0.036
					c0.387,0.28,0.829,0.463,1.301,0.539l-0.001,2.441c-1.117-0.099-2.157-0.529-3.019-1.249L-15.582-3.851z M-13.257-3.351
					c0.462-0.077,0.894-0.257,1.274-0.531l1.724,1.724c-0.856,0.715-1.889,1.145-2.999,1.248L-13.257-3.351z M-11.985-8.861
					c-0.394-0.275-0.845-0.445-1.315-0.513v-2.465c1.127,0.095,2.176,0.526,3.044,1.25L-11.985-8.861z M-14.301-9.368
					c-0.446,0.074-0.872,0.245-1.248,0.506l-1.73-1.729c0.851-0.71,1.875-1.137,2.978-1.243V-9.368z M-9.552-2.864l-1.726-1.726
					c0.279-0.391,0.458-0.829,0.532-1.284l2.44,0.002C-8.406-4.758-8.835-3.723-9.552-2.864z M-8.305-6.872l-2.44-0.002
					c-0.074-0.455-0.253-0.892-0.532-1.282l1.727-1.726C-8.834-9.022-8.405-7.987-8.305-6.872z M-17.984-9.882l1.727,1.726
					c-0.279,0.39-0.458,0.828-0.532,1.284l-2.439-0.002C-19.131-7.955-18.716-9.001-17.984-9.882z"/>
				<path fill="#FFFFFF" d="M-25.774,0.503c-0.195-0.195-0.512-0.195-0.707,0c-0.195,0.195-0.195,0.512,0,0.707l5.129,5.13
					c0.098,0.097,0.226,0.146,0.354,0.146s0.256-0.048,0.353-0.146c0.195-0.195,0.195-0.512,0-0.707L-25.774,0.503z"/>
				<path fill="#FFFFFF" d="M67.966-31.947l1.973,1.973l2.63,2.632c0.002,0.002,0.006,0.003,0.008,0.005l5.443,5.443
					c0.526,0.527,1.219,0.791,1.912,0.791s1.387-0.263,1.914-0.791l17.486-17.487c1.057-1.055,1.057-2.773,0-3.828l-1.204-1.205
					l1.507-1.518c1.047-1.059,1.041-2.775-0.016-3.826L89.525-59.773c-0.508-0.506-1.184-0.784-1.905-0.784
					c-0.003,0-0.007,0-0.009,0c-0.726,0.002-1.405,0.285-1.912,0.797L68.281-42.208c-0.518,0.521-0.814,1.233-0.811,1.955
					c0.002,0.683,0.262,1.316,0.733,1.782l1.233,1.224l-1.472,1.473C66.911-34.718,66.911-33.001,67.966-31.947z M70.189-31.139
					l19.899-19.898l2.731,2.732L72.923-28.406l-2.19-2.19L70.189-31.139z M99.121-41.295c0,0.458-0.176,0.887-0.496,1.207
					L81.139-22.602c-0.666,0.664-1.748,0.666-2.412,0l-5.097-5.096l19.899-19.899l3.529,3.53c0.004,0.003,0.004,0.008,0.008,0.012
					c0.004,0.004,0.01,0.005,0.015,0.009l1.544,1.545C98.945-42.182,99.121-41.753,99.121-41.295z M68.471-40.257
					c-0.002-0.458,0.188-0.912,0.52-1.246l17.418-17.553c0.32-0.322,0.748-0.5,1.205-0.502c0.478,0.004,0.888,0.174,1.207,0.493
					l10.094,10.016c0.666,0.662,0.671,1.745,0.011,2.412l-1.506,1.516l-8.14-8.14c-1.057-1.056-2.773-1.055-3.827,0L70.145-37.954
					l-1.236-1.228C68.627-39.46,68.473-39.842,68.471-40.257z M68.673-35.069l1.823-1.823c0.001-0.001,0.002-0.001,0.003-0.002
					l15.66-15.66c0.64-0.641,1.771-0.642,2.413,0l0.811,0.811L69.483-31.845l-0.811-0.811C68.008-33.32,68.008-34.403,68.673-35.069
					z"/>
				<path fill="#FFFFFF" d="M74.584,37.38l-0.462-0.461c-0.024-0.024-0.056-0.037-0.088-0.037c-0.033,0-0.066,0.014-0.089,0.037
					L70.771,40.1l-1.264-1.257l2.403-2.412c0.892-0.895,1.373-1.811,1.43-2.723c0.058-0.917-0.312-1.779-1.099-2.563
					c-0.531-0.531-1.059-0.879-1.568-1.035c-0.521-0.157-1.005-0.191-1.443-0.103c-0.451,0.086-0.862,0.255-1.219,0.502
					C67.658,30.75,67.352,31,67.1,31.25l-3.217,3.227c-0.049,0.049-0.048,0.129,0.001,0.177l4.274,4.259l-1.051,1.053
					c-0.049,0.049-0.049,0.127,0,0.176l0.463,0.463c0.023,0.023,0.056,0.037,0.089,0.037c0.032,0,0.065-0.014,0.089-0.037
					l1.05-1.054l1.267,1.261l-1.053,1.055c-0.023,0.024-0.035,0.055-0.035,0.088c0,0.033,0.014,0.066,0.037,0.089l0.461,0.459
					c0.049,0.048,0.129,0.048,0.178-0.001l1.051-1.052l1.883,1.876c0.025,0.025,0.057,0.037,0.088,0.037
					c0.032,0,0.064-0.011,0.09-0.035l0.533-0.533c0.023-0.024,0.036-0.055,0.036-0.088s-0.015-0.065-0.037-0.088l-1.885-1.879
					l3.174-3.183C74.634,37.508,74.633,37.429,74.584,37.38z M71.355,35.706l-2.487,2.496l-3.724-3.71l2.56-2.567
					c0.421-0.424,0.829-0.695,1.214-0.808c0.389-0.116,0.752-0.148,1.077-0.092c0.346,0.061,0.639,0.17,0.894,0.333
					c0.266,0.171,0.478,0.335,0.629,0.485c0.226,0.223,0.408,0.479,0.551,0.761c0.146,0.274,0.231,0.585,0.256,0.922
					c0.021,0.332-0.039,0.686-0.184,1.053C71.995,34.952,71.738,35.321,71.355,35.706z"/>
				<path fill="#FFFFFF" d="M75.663-12.178c0.001,1.157-1.653,3.983-4.815,7.144c-1.693,1.693-3.453,3.107-4.955,3.981
					c-1.508,0.877-2.315,0.934-2.49,0.759l-0.707,0.707c0.248,0.249,0.582,0.373,1.003,0.373c0.68,0,1.581-0.326,2.696-0.974
					c1.574-0.916,3.407-2.386,5.16-4.139c3.057-3.055,5.109-6.21,5.108-7.851c0-0.423-0.125-0.761-0.371-1.007l-0.707,0.708
					C75.652-12.41,75.663-12.261,75.663-12.178z"/>
				<path fill="#FFFFFF" d="M54.632-8.285c0,0.42,0.124,0.758,0.369,1.002c0,0,0,0,0,0l0,0L57.583-4.7l0,0
					c0.001,0,0.002,0,0.002,0.001l-0.004,0.004l2.528,2.527l-0.001,0.001l2.582,2.582l0.707-0.708l-1.55-1.55
					c1.925-0.451,4.788-2.621,7.179-5.012c2.389-2.389,4.56-5.25,5.014-7.174l1.547,1.547l0.704-0.704l0.003-0.003l-2.527-2.528l0,0
					L71.184-18.3l-0.707,0.707v0l-0.002,0.002c0.031,0.032,0.049,0.083,0.061,0.136c0.002,0.011,0.004,0.024,0.006,0.037
					c0.006,0.043,0.01,0.086,0.01,0.119c0,0.004,0,0.01,0,0.015c-0.001,0.135-0.027,0.294-0.072,0.472
					c-0.009,0.035-0.022,0.075-0.033,0.112c-0.041,0.142-0.097,0.296-0.163,0.459c-0.026,0.065-0.052,0.129-0.083,0.2
					c-0.076,0.172-0.168,0.356-0.27,0.547c-0.048,0.09-0.098,0.181-0.152,0.277c-0.048,0.085-0.106,0.177-0.159,0.266
					c-0.169,0.282-0.355,0.572-0.56,0.869c-0.065,0.096-0.131,0.191-0.201,0.29c-0.207,0.292-0.434,0.59-0.67,0.891
					c-0.078,0.099-0.15,0.195-0.231,0.296c-0.255,0.314-0.529,0.632-0.811,0.951c-0.082,0.093-0.155,0.183-0.24,0.277
					c-0.319,0.353-0.657,0.706-1.004,1.056c-0.058,0.059-0.107,0.116-0.167,0.175c-0.41,0.411-0.825,0.804-1.239,1.178
					c-0.019,0.017-0.037,0.034-0.056,0.051c-0.41,0.369-0.818,0.716-1.222,1.042c-0.018,0.014-0.035,0.029-0.053,0.043
					c-0.393,0.314-0.779,0.604-1.157,0.871c-0.032,0.023-0.065,0.047-0.098,0.069c-0.365,0.253-0.719,0.48-1.062,0.683
					c-0.041,0.024-0.084,0.052-0.125,0.075c-0.083,0.047-0.158,0.086-0.236,0.129c-0.094,0.052-0.19,0.105-0.28,0.15
					c-1.14,0.575-1.767,0.6-1.918,0.449l0,0l-1.599-1.599c1.745-0.435,4.496-2.34,7.17-5.014c2.389-2.389,4.56-5.249,5.014-7.174
					l1.601,1.601l0.707-0.707l-2.581-2.583L68.6-20.881c-0.244-0.245-0.582-0.369-1.002-0.369c-1.642,0-4.797,2.054-7.854,5.111
					C56.686-13.082,54.631-9.926,54.632-8.285z M59.98-4.66c0.15-0.059,0.301-0.121,0.458-0.195
					c0.065-0.031,0.134-0.069,0.201-0.102c0.586-0.292,1.209-0.67,1.856-1.124c0.015-0.01,0.03-0.022,0.045-0.033
					c0.375-0.265,0.754-0.55,1.136-0.854c0.088-0.069,0.175-0.14,0.262-0.211c0.328-0.267,0.652-0.543,0.977-0.831
					c0.103-0.09,0.202-0.176,0.305-0.269c0.415-0.378,0.826-0.764,1.223-1.161c0.044-0.044,0.083-0.089,0.126-0.133
					c0.365-0.369,0.717-0.738,1.051-1.106c0.127-0.141,0.243-0.28,0.366-0.42c0.238-0.273,0.474-0.544,0.692-0.813
					c0.136-0.167,0.261-0.33,0.389-0.495c0.185-0.237,0.361-0.471,0.527-0.702c0.127-0.176,0.247-0.348,0.363-0.521
					c0.143-0.21,0.272-0.415,0.397-0.617c0.07-0.115,0.159-0.237,0.225-0.35c0.054-0.092,0.095-0.176,0.144-0.264
					c0.012-0.021,0.022-0.042,0.034-0.062c0.34-0.624,0.57-1.175,0.69-1.652c0.003-0.011,0.009-0.025,0.012-0.036l1.546,1.546v0
					l0.002,0.001l-0.003,0.002c0.175,0.175,0.117,0.982-0.76,2.49c-0.875,1.503-2.288,3.263-3.979,4.955
					c-3.939,3.942-6.982,5.201-7.445,4.74l-0.001,0.001l-1.55-1.55c0.094-0.022,0.193-0.055,0.291-0.085
					C59.693-4.553,59.834-4.602,59.98-4.66z M67.598-20.249c0.082,0,0.229,0.01,0.295,0.075c0.459,0.459-0.799,3.504-4.74,7.446
					c-3.161,3.161-5.987,4.815-7.146,4.815c-0.082,0-0.232-0.01-0.299-0.078c-0.066-0.065-0.076-0.212-0.076-0.294
					c-0.001-1.157,1.654-3.983,4.819-7.146C63.613-18.594,66.439-20.249,67.598-20.249z"/>
				<path fill="#FFFFFF" d="M46.153-13.301l-0.003,0.003l-2.576-2.579c-0.002-0.002-0.003-0.005-0.005-0.007
					c-0.245-0.245-0.582-0.369-1.002-0.369c-1.641,0-4.797,2.054-7.854,5.111c-3.273,3.275-6.154,7.444-4.742,8.857c0,0,0,0,0,0
					L29.97-2.283l2.583,2.582l0.002-0.002l2.528,2.529l0,0l0.054,0.054l0,0.001c0.001,0.001,0.003,0.001,0.004,0.002l2.513,2.513
					l0,0c0,0,0.002,0.001,0.002,0.001l0.011,0.011c0,0,0.001,0,0.001,0.001l2.568,2.565l-0.001,0.001c0,0,0.001,0,0.001,0.001
					L40.233,7.98l2.583,2.585l0.002-0.002l2.527,2.527l0.707-0.708l-1.546-1.546c1.924-0.454,4.784-2.623,7.171-5.013
					c2.39-2.39,4.561-5.25,5.015-7.175l1.547,1.548l-0.002,0.002c0.46,0.459-0.797,3.504-4.738,7.446
					c-3.942,3.94-6.982,5.197-7.445,4.737l-0.707,0.707c0.254,0.254,0.596,0.37,1.006,0.37c1.876,0,5.166-2.42,7.853-5.107
					c3.273-3.274,6.153-7.443,4.738-8.859l0.002-0.002l-2.583-2.584l-0.002,0.002L56.359-3.09l-2.52-2.519
					c-0.003-0.003-0.004-0.007-0.007-0.01l0.001-0.001l-2.57-2.57l0,0l-2.53-2.531l0,0L46.153-13.301z M54.895,0.106
					c-0.874,1.502-2.287,3.262-3.98,4.954c-3.939,3.942-6.98,5.2-7.444,4.74L43.47,9.802l0,0l-0.001,0.001l-1.55-1.551
					C42.009,8.23,42.104,8.2,42.199,8.17c0.141-0.043,0.287-0.095,0.439-0.156c0.146-0.058,0.293-0.118,0.446-0.19
					c0.071-0.034,0.146-0.075,0.219-0.111c0.579-0.29,1.193-0.662,1.832-1.108c0.028-0.02,0.057-0.042,0.085-0.062
					c0.36-0.255,0.723-0.528,1.09-0.819c0.1-0.079,0.199-0.16,0.3-0.242c0.313-0.256,0.623-0.52,0.934-0.794
					c0.112-0.1,0.223-0.195,0.335-0.297c0.413-0.375,0.821-0.758,1.214-1.151c2.387-2.387,4.557-5.246,5.014-7.17l1.552,1.552
					C55.828-2.193,55.764-1.389,54.895,0.106z M53.127-4.908c0.027,0.028,0.049,0.065,0.063,0.112
					c0.224,0.729-1.113,3.634-4.806,7.328c-0.419,0.419-0.843,0.821-1.266,1.203c-0.005,0.005-0.011,0.01-0.016,0.015
					c-0.844,0.76-1.685,1.435-2.482,1.995c-0.011,0.008-0.022,0.016-0.034,0.024c-0.386,0.27-0.761,0.511-1.123,0.722
					c-0.019,0.011-0.041,0.025-0.06,0.036c-1.489,0.86-2.288,0.917-2.463,0.744l0.001-0.001l-1.589-1.588
					c1.925-0.456,4.783-2.623,7.171-5.009c1.458-1.458,2.698-2.963,3.609-4.338c0.104-0.157,0.203-0.311,0.298-0.465
					c0.073-0.117,0.163-0.242,0.229-0.357c0.453-0.78,0.739-1.448,0.876-2.016l1.59,1.589l-0.001,0.001c0,0,0.001,0.002,0.001,0.002
					l0,0l0,0L53.127-4.908z M50.544-7.496L50.544-7.496L50.544-7.496c0.057,0.058,0.087,0.155,0.089,0.288
					c0,0.005-0.001,0.013-0.001,0.018c0,0.958-1.396,3.709-4.827,7.14c-3.93,3.933-6.965,5.193-7.441,4.742l-0.003-0.003l0,0
					l-1.535-1.535c0.567-0.137,1.234-0.421,2.011-0.873c1.576-0.916,3.408-2.386,5.159-4.138c2.389-2.389,4.559-5.25,5.013-7.175
					L50.544-7.496L50.544-7.496C50.544-7.496,50.544-7.496,50.544-7.496z M46.425-11.616l1.55,1.549l0,0l0.001,0.001l-0.001,0.001
					c0.175,0.175,0.116,0.982-0.761,2.489c-0.874,1.503-2.287,3.262-3.979,4.955c-3.164,3.163-5.989,4.817-7.145,4.817
					c-0.082,0-0.229-0.012-0.297-0.077l-0.002-0.002h0L34.241,0.57c1.925-0.454,4.783-2.621,7.171-5.009
					c1.751-1.751,3.22-3.584,4.137-5.16C46.002-10.379,46.288-11.048,46.425-11.616z M35.42-10.434
					c3.163-3.163,5.99-4.818,7.147-4.818c0.082,0,0.229,0.009,0.294,0.076l0,0l0.003,0.003c0.452,0.467-0.806,3.508-4.74,7.442
					c-3.162,3.162-5.989,4.817-7.146,4.817c-0.083,0-0.233-0.011-0.3-0.078C30.221-3.449,31.48-6.491,35.42-10.434z M31.66-2.008
					c1.745-0.434,4.496-2.34,7.171-5.016c2.386-2.387,4.554-5.245,5.011-7.169l1.601,1.603l0.003-0.003l0,0l-0.001,0.002
					c0.175,0.175,0.117,0.982-0.76,2.49c-0.875,1.503-2.288,3.263-3.979,4.955c-3.938,3.937-6.977,5.195-7.444,4.737l0,0l0,0h0
					L33.26-0.408L31.66-2.008z"/>
				<path fill="#FFFFFF" d="M28.149,18.079C28.149,18.079,28.149,18.079,28.149,18.079h0.03c0.437,0,0.869-0.179,1.188-0.494
					c0.318-0.322,0.5-0.765,0.497-1.208c0.003-0.444-0.178-0.882-0.498-1.203c-0.322-0.32-0.75-0.497-1.21-0.497
					c-0.905,0-1.699,0.794-1.699,1.696c-0.003,0.455,0.175,0.885,0.503,1.214C27.279,17.904,27.697,18.079,28.149,18.079z
					 M27.674,15.894c0.137-0.138,0.314-0.217,0.487-0.217c0.189,0,0.365,0.073,0.497,0.204c0.128,0.128,0.206,0.316,0.205,0.496
					c0.001,0.185-0.074,0.369-0.204,0.5c-0.129,0.129-0.304,0.202-0.48,0.202h-0.041c-0.173,0-0.346-0.074-0.473-0.2
					c-0.136-0.136-0.21-0.314-0.209-0.503C27.456,16.207,27.535,16.032,27.674,15.894z"/>
				<path fill="#FFFFFF" d="M21.16,4.799l-1.937,1.937l-2.239-2.238c-0.036-0.036-0.079-0.062-0.116-0.095
					c-0.014-0.018-0.021-0.039-0.037-0.055c-0.049-0.049-0.105-0.085-0.166-0.11c-1.042-0.761-2.511-0.679-3.451,0.26l-9.071,9.073
					c0,0-0.001,0-0.001,0.001l-7.512,7.513c-0.773,0.773-1.263,1.745-1.377,2.737c-0.12,1.036,0.179,1.971,0.84,2.632
					c0.216,0.216,0.467,0.379,0.732,0.515l3.439,3.439c-0.002,0.131,0.044,0.263,0.145,0.363l14.096,14.096
					c0.502,0.501,1.171,0.778,1.884,0.778c0.714,0,1.382-0.278,1.884-0.779l21.479-21.475c1.038-1.039,1.038-2.729,0-3.769
					L24.929,4.799C23.889,3.76,22.199,3.762,21.16,4.799z M18.516,7.443L1.118,24.84c-0.001,0.001-0.001,0.002-0.002,0.003
					L0.75,25.209c-0.171,0.171-0.355,0.319-0.546,0.454c-0.115-0.073-0.229-0.147-0.323-0.242c-0.441-0.439-0.637-1.081-0.554-1.808
					c0.089-0.77,0.476-1.532,1.09-2.146l7.513-7.512l0,0l8.549-8.548L18.516,7.443z M-3.754,23.937
					c0.089-0.769,0.477-1.531,1.091-2.145l7.509-7.51c0.001-0.001,0.002-0.001,0.003-0.002l9.074-9.075
					c0.467-0.466,1.145-0.592,1.73-0.386l-8.429,8.428l0,0L-0.29,20.76c-0.772,0.773-1.262,1.745-1.376,2.738
					c-0.119,1.036,0.179,1.97,0.838,2.628c0.013,0.013,0.031,0.021,0.044,0.033c-0.64,0.209-1.269,0.209-1.787-0.001l-0.642-0.642
					c-0.075-0.075-0.17-0.112-0.268-0.13C-3.721,24.984-3.817,24.485-3.754,23.937z M39.045,22.684L17.566,44.16
					c-0.625,0.624-1.729,0.626-2.354,0L1.25,30.198c0.002-0.131-0.045-0.263-0.145-0.362l-2.532-2.533
					c0.54-0.042,1.098-0.195,1.642-0.476c0,0,0.001,0,0.002,0c0.45-0.232,0.868-0.539,1.24-0.912l2.855-2.854
					c0.001-0.001,0.002-0.003,0.003-0.005l15.26-15.259c0,0,0,0,0,0s0,0,0,0l2.291-2.291c0.647-0.648,1.705-0.649,2.354,0
					l4.015,4.015l-4.139,4.138c-0.502,0.501-0.777,1.17-0.777,1.884s0.275,1.384,0.777,1.885l3.026,3.024
					c0.501,0.502,1.17,0.778,1.884,0.778c0.714,0,1.383-0.276,1.884-0.778l4.137-4.138l4.016,4.016
					C39.693,20.979,39.693,22.035,39.045,22.684z M34.322,15.607l-4.137,4.138c-0.625,0.624-1.729,0.626-2.354,0l-3.026-3.024
					c-0.312-0.313-0.484-0.731-0.484-1.178c0-0.447,0.172-0.865,0.484-1.177l4.139-4.138L34.322,15.607z"/>
				<path fill="#FFFFFF" d="M-1.403-36.189l1.274,0.188c0.28,0.044,0.527-0.148,0.568-0.421c0.04-0.274-0.149-0.527-0.422-0.568
					l-2.666-0.394c-0.184-0.081-0.405-0.05-0.556,0.101c-0.004,0.004-0.005,0.01-0.009,0.014c-0.003,0.002-0.007,0.003-0.01,0.006
					c-0.035,0.035-0.052,0.08-0.075,0.123c-0.004,0.009-0.012,0.016-0.016,0.025c-0.041,0.088-0.064,0.182-0.049,0.28l0.421,2.745
					c0.038,0.247,0.251,0.424,0.493,0.424c0.025,0,0.051-0.002,0.078-0.005c0.272-0.042,0.46-0.297,0.418-0.57l-0.196-1.28
					l18.846,18.849c0.094,0.093,0.221,0.146,0.354,0.146c0.133,0,0.26-0.053,0.353-0.147l37.374-37.372l-0.189,1.275
					c-0.041,0.273,0.148,0.527,0.421,0.568c0.024,0.003,0.05,0.005,0.074,0.005c0.243,0,0.457-0.178,0.494-0.427l0.417-2.812
					c0.023-0.157-0.03-0.316-0.142-0.428c-0.114-0.112-0.272-0.164-0.429-0.14l-2.746,0.424c-0.273,0.042-0.46,0.297-0.418,0.57
					c0.042,0.273,0.302,0.463,0.57,0.418l1.278-0.197L17.53-18.212V-32.67h7.367c0.133,0,0.261-0.052,0.354-0.146
					c0.093-0.094,0.146-0.221,0.146-0.354l-0.001-18.975h11.162c0.276,0,0.5-0.224,0.5-0.5v-19.95c0-0.276-0.224-0.5-0.5-0.5
					s-0.5,0.224-0.5,0.5v19.45H24.895c-0.133,0-0.261,0.052-0.354,0.146c-0.093,0.094-0.146,0.221-0.146,0.354l0.001,18.975H17.03
					c-0.276,0-0.5,0.224-0.5,0.5v14.916L-1.403-36.189z"/>
				<path fill="#FFFFFF" d="M-56.034-31.948l1.164,1.164l3.439,3.441c0.002,0.002,0.005,0.003,0.007,0.005l5.443,5.443
					c0.527,0.527,1.22,0.791,1.913,0.791s1.386-0.263,1.914-0.793l17.486-17.486c1.056-1.055,1.056-2.773,0-3.828l-1.204-1.204
					l1.507-1.517c1.047-1.059,1.041-2.775-0.016-3.826l-10.093-10.015c-0.508-0.506-1.184-0.784-1.906-0.784
					c-0.003,0-0.006,0-0.009,0c-0.725,0.002-1.405,0.285-1.912,0.797l-17.418,17.552c-0.518,0.521-0.814,1.233-0.811,1.955
					c0.003,0.683,0.263,1.316,0.734,1.782l1.233,1.223l-1.471,1.472C-57.089-34.719-57.089-33.002-56.034-31.948z M-31.179-48.305
					l-19.898,19.899l-2.733-2.733l19.899-19.898L-31.179-48.305z M-24.879-41.296c0,0.458-0.176,0.887-0.496,1.207l-17.486,17.486
					c-0.666,0.664-1.749,0.666-2.413,0l-5.095-5.095l19.898-19.899l3.532,3.532c0.002,0.002,0.003,0.006,0.006,0.009
					c0.004,0.004,0.01,0.005,0.014,0.009l1.544,1.544C-25.055-42.183-24.879-41.754-24.879-41.296z M-55.53-40.257
					c-0.001-0.458,0.188-0.912,0.52-1.246l17.418-17.552c0.32-0.322,0.748-0.5,1.206-0.502c0.002,0,0.004,0,0.006,0
					c0.455,0,0.882,0.175,1.201,0.493l10.093,10.015c0.666,0.662,0.671,1.745,0.011,2.412l-1.506,1.516l-8.14-8.14
					c-1.055-1.056-2.772-1.055-3.827,0l-15.308,15.307l-1.236-1.228C-55.373-39.46-55.528-39.842-55.53-40.257z M-55.327-35.07
					l1.82-1.82c0.002-0.002,0.004-0.002,0.006-0.004l15.66-15.66c0.64-0.641,1.771-0.642,2.413,0l0.811,0.811l-19.899,19.898
					l-0.811-0.811C-55.992-33.321-55.992-34.404-55.327-35.07z"/>
				<path fill="#FFFFFF" d="M64.138-66.812l-1.245,1.25c-0.115,0.115-0.166,0.278-0.14,0.437l0.483,2.854
					c0.031,0.185,0.162,0.336,0.342,0.393c0.049,0.015,0.1,0.023,0.15,0.023c0.131,0,0.26-0.052,0.355-0.147l31.598-31.702
					c0.125-0.126,0.174-0.311,0.127-0.483c-0.045-0.173-0.181-0.307-0.354-0.353l-2.632-0.697c-0.171-0.046-0.355,0.004-0.482,0.13
					L64.843-67.519L50.4-81.916c-0.193-0.194-0.512-0.195-0.707,0.001c-0.194,0.196-0.194,0.512,0.002,0.707L64.138-66.812z
					 M92.846-94.197l1.514,0.401l-30.299,30.4l-0.278-1.643l1.412-1.417c0.001-0.001,0.003-0.002,0.005-0.003
					s0.002-0.003,0.003-0.005L92.846-94.197z"/>
				<path fill="#FFFFFF" d="M1.064-59.395l0.354-0.352c2.924-2.923,4.534-6.81,4.534-10.944c0-4.134-1.61-8.021-4.534-10.943
					l-0.354-0.354l-11.297,11.296L1.064-59.395z M4.953-70.691c0,3.699-1.379,7.187-3.894,9.877l-9.877-9.877l9.877-9.876
					C3.574-77.879,4.953-74.391,4.953-70.691z"/>
				<path fill="#FFFFFF" d="M-24.232-59.525c2.955,2.956,6.885,4.584,11.066,4.584c4.18,0,8.11-1.628,11.066-4.584
					c0.195-0.195,0.195-0.512,0-0.707l-10.359-10.359l10.36-10.361c0.195-0.195,0.195-0.512,0-0.707
					c-2.955-2.956-6.885-4.583-11.065-4.583c-4.181,0-8.112,1.628-11.068,4.585c-2.956,2.955-4.584,6.886-4.584,11.066
					C-28.816-66.411-27.188-62.481-24.232-59.525z M-23.525-80.951c2.767-2.768,6.447-4.292,10.361-4.292
					c3.746,0,7.277,1.396,9.998,3.943L-13.52-70.945c-0.195,0.195-0.195,0.512,0,0.707l10.354,10.353
					c-2.723,2.547-6.255,3.944-10.001,3.944c-3.913-0.001-7.591-1.525-10.358-4.292c-2.768-2.766-4.291-6.446-4.291-10.359
					C-27.816-74.505-26.292-78.184-23.525-80.951z"/>
				<path fill="#FFFFFF" d="M-60.422-61.878c0.049,0.015,0.1,0.023,0.151,0.023c0.131,0,0.259-0.052,0.354-0.148l31.598-31.701
					c0.126-0.126,0.175-0.311,0.128-0.483c-0.046-0.173-0.181-0.307-0.354-0.353l-2.632-0.697c-0.17-0.046-0.355,0.004-0.482,0.13
					l-29.449,29.545c-0.114,0.115-0.165,0.278-0.139,0.437l0.483,2.854C-60.733-62.086-60.601-61.935-60.422-61.878z
					 M-31.155-94.197l1.515,0.401l-30.3,30.4l-0.278-1.643L-31.155-94.197z"/>
				<path fill="#FFFFFF" d="M36.558,174.904c-0.276,0-0.5,0.225-0.5,0.5v19.451H24.895c-0.133,0-0.261,0.052-0.354,0.146
					c-0.093,0.095-0.146,0.222-0.146,0.354l0.001,18.975H17.03c-0.276,0-0.5,0.225-0.5,0.5v15.584c0,0.275,0.224,0.5,0.5,0.5
					c0.277,0,0.5-0.225,0.5-0.5V215.33h7.367c0.133,0,0.261-0.053,0.354-0.146s0.146-0.221,0.146-0.354l-0.001-18.975h11.162
					c0.276,0,0.5-0.225,0.5-0.5v-19.951C37.058,175.129,36.834,174.904,36.558,174.904z"/>
				<path fill="#FFFFFF" d="M-9.165,113.021c-1.229-1.229-2.865-1.905-4.605-1.905c-1.739,0-3.375,0.677-4.605,1.905
					c-2.538,2.541-2.536,6.674,0.003,9.211c1.23,1.229,2.865,1.908,4.604,1.908c1.74,0,3.374-0.679,4.602-1.91
					c1.23-1.229,1.908-2.863,1.908-4.604S-7.936,114.252-9.165,113.021z M-8.306,117.128l-2.439-0.002
					c-0.075-0.454-0.253-0.892-0.532-1.282l1.726-1.726C-8.834,114.978-8.406,116.014-8.306,117.128z M-19.229,118.126l2.439,0.002
					c0.075,0.457,0.256,0.897,0.538,1.289c-0.012,0.01-0.026,0.014-0.038,0.024l-1.692,1.693
					C-18.715,120.254-19.13,119.208-19.229,118.126z M-12.302,119.093c-0.784,0.782-2.147,0.782-2.93,0
					c-0.808-0.808-0.808-2.122,0-2.932c0.392-0.392,0.912-0.606,1.465-0.606s1.073,0.215,1.464,0.605c0,0,0.001,0.001,0.001,0.002
					c0,0,0.001,0.001,0.002,0.001C-11.495,116.971-11.495,118.286-12.302,119.093z M-11.985,115.139
					c-0.394-0.274-0.845-0.444-1.315-0.513v-2.465c1.128,0.095,2.176,0.525,3.044,1.25L-11.985,115.139z M-14.301,114.632
					c-0.446,0.074-0.872,0.245-1.247,0.507l-1.731-1.729c0.851-0.71,1.875-1.137,2.978-1.242V114.632z M-15.582,120.148
					c0.011-0.011,0.015-0.024,0.024-0.036c0.387,0.28,0.829,0.464,1.301,0.539l-0.001,2.439c-1.117-0.099-2.156-0.528-3.018-1.248
					L-15.582,120.148z M-13.257,120.649c0.462-0.077,0.894-0.257,1.274-0.53l1.723,1.724c-0.856,0.716-1.888,1.144-2.998,1.246
					L-13.257,120.649z M-17.984,114.118l1.728,1.726c-0.279,0.391-0.458,0.828-0.532,1.284l-2.44-0.002
					C-19.131,116.045-18.716,114.999-17.984,114.118z M-9.553,121.136l-1.725-1.726c0.279-0.391,0.458-0.828,0.532-1.284
					l2.439,0.002C-8.407,119.242-8.836,120.277-9.553,121.136z"/>
				<path fill="#FFFFFF" d="M-25.774,124.503c-0.195-0.194-0.512-0.194-0.707,0c-0.195,0.195-0.195,0.513,0,0.707l5.129,5.13
					c0.098,0.098,0.226,0.146,0.354,0.146s0.256-0.049,0.353-0.146c0.195-0.195,0.195-0.512,0-0.707L-25.774,124.503z"/>
				<path fill="#FFFFFF" d="M5.719,125.775c0.094,0.094,0.221,0.146,0.354,0.146c0.133,0,0.26-0.053,0.353-0.146l2.362-2.363
					c0.195-0.195,0.195-0.514,0-0.707l-2.498-2.496l2.286-2.286c0.195-0.194,0.195-0.512,0-0.707l-21.93-21.933
					c-0.187-0.188-0.519-0.188-0.707,0l-28.226,28.228c-0.195,0.195-0.195,0.513,0,0.707l21.929,21.929
					c0.098,0.098,0.226,0.146,0.354,0.146s0.256-0.049,0.353-0.146l2.313-2.313l2.499,2.499c0.098,0.098,0.226,0.146,0.354,0.146
					s0.256-0.049,0.353-0.146l2.363-2.36c0.093-0.095,0.146-0.222,0.146-0.354c0-0.134-0.052-0.261-0.146-0.354l-2.5-2.498
					l17.491-17.489L5.719,125.775z M-14.485,145.271l-2.144-2.145l1.654-1.654l2.146,2.145L-14.485,145.271z M7.729,123.059
					l-1.655,1.655l-2.145-2.146l1.655-1.654L7.729,123.059z M-20.004,145.086l-21.222-21.222l27.519-27.521l21.223,21.226
					l-2.28,2.28c-0.002,0.002-0.006,0.003-0.008,0.005l-2.361,2.361c-0.002,0.002-0.002,0.004-0.004,0.006L-20.004,145.086z"/>
				<path fill="#FFFFFF" d="M79.932,102.896c0.693,0,1.387-0.264,1.914-0.791L99.332,84.62c1.057-1.056,1.057-2.772,0-3.828
					l-1.206-1.207l1.509-1.519c1.047-1.059,1.041-2.775-0.016-3.826L89.525,64.225c-0.508-0.504-1.184-0.783-1.905-0.783
					c-0.003,0-0.007,0-0.009,0c-0.726,0.004-1.405,0.287-1.912,0.799L68.281,81.792c-0.518,0.521-0.814,1.233-0.811,1.954
					c0.002,0.684,0.262,1.316,0.733,1.781l1.234,1.225l-1.473,1.473c-1.055,1.058-1.055,2.773,0,3.828l2.074,2.073l2.528,2.531
					c0.002,0.002,0.005,0.003,0.007,0.005l5.444,5.443C78.546,102.632,79.238,102.896,79.932,102.896z M99.121,82.706
					c0,0.458-0.176,0.887-0.496,1.207l-17.486,17.485c-0.666,0.664-1.748,0.666-2.412,0l-5.097-5.097l19.899-19.899l3.529,3.529
					c0.004,0.004,0.004,0.008,0.008,0.012c0.003,0.003,0.008,0.004,0.011,0.007l1.548,1.549
					C98.945,81.818,99.121,82.248,99.121,82.706z M71.211,93.884l-1.021-1.022l19.899-19.898l2.731,2.732L72.923,95.595
					L71.211,93.884z M68.471,83.742c-0.002-0.457,0.188-0.911,0.52-1.246l17.418-17.553c0.32-0.32,0.748-0.5,1.206-0.502
					c0.002,0,0.004,0,0.006,0c0.455,0,0.882,0.177,1.2,0.494L98.914,74.95c0.666,0.663,0.671,1.745,0.011,2.411l-1.506,1.517
					l-8.14-8.139c-1.057-1.056-2.773-1.056-3.827,0L70.145,86.046l-1.236-1.228C68.627,84.54,68.473,84.158,68.471,83.742z
					 M68.673,88.932l1.826-1.826l15.66-15.66c0.64-0.641,1.771-0.641,2.413,0l0.812,0.812l-19.9,19.899l-0.811-0.811
					C68.008,90.682,68.008,89.598,68.673,88.932z"/>
				<path fill="#FFFFFF" d="M95.809,153.812c-0.045-0.172-0.181-0.308-0.354-0.354l-2.632-0.697
					c-0.171-0.046-0.355,0.004-0.482,0.131l-1.35,1.354l-14.087-14.042l2.314-2.322c0.166-0.168,0.193-0.429,0.064-0.627
					c-0.129-0.196-0.381-0.274-0.6-0.192l-22.633,8.715c-0.133,0.051-0.237,0.156-0.287,0.289l-8.638,22.658
					c-0.085,0.221-0.003,0.469,0.195,0.598c0.083,0.054,0.177,0.08,0.271,0.08c0.129,0,0.258-0.051,0.356-0.147l2.102-2.108
					l14.087,14.042l-1.245,1.249c-0.115,0.115-0.166,0.277-0.14,0.438l0.483,2.854c0.031,0.185,0.162,0.336,0.342,0.394
					c0.049,0.015,0.1,0.022,0.15,0.022c0.131,0,0.26-0.051,0.354-0.147l31.599-31.701C95.807,154.169,95.855,153.984,95.809,153.812
					z M90.286,154.954l-1.874,1.88l-14.087-14.043l1.874-1.879L90.286,154.954z M67.42,177.895l-14.087-14.042l1.875-1.881
					l14.087,14.042L67.42,177.895z M70,175.307l-14.087-14.042l15.128-15.178l14.088,14.041L70,175.307z M85.834,159.421
					l-14.088-14.042l1.875-1.881l14.087,14.043L85.834,159.421z M56.617,146.631l20.232-7.791l-1.002,1.005
					c-0.002,0.002-0.005,0.003-0.007,0.005s-0.003,0.005-0.005,0.007l-2.572,2.581l0,0l0,0l-2.578,2.586
					c0,0.001-0.001,0.001-0.002,0.002s-0.001,0.002-0.002,0.002l-18.409,18.471c0,0-0.001,0-0.001,0.001s0,0.001-0.001,0.002
					l-2.573,2.581c-0.001,0.002-0.003,0.002-0.004,0.003s-0.001,0.003-0.002,0.004l-0.795,0.798L56.617,146.631z M50.755,166.438
					l1.873-1.879l14.087,14.043l-1.872,1.879L50.755,166.438z M64.061,184.605l-0.278-1.645l1.409-1.414
					c0.003-0.002,0.006-0.003,0.008-0.005s0.003-0.005,0.005-0.008l2.564-2.572c0.003-0.003,0.006-0.003,0.009-0.006
					s0.003-0.006,0.006-0.009l2.564-2.572c0.003-0.003,0.007-0.004,0.01-0.007s0.004-0.007,0.007-0.01l15.82-15.872
					c0.002-0.002,0.005-0.002,0.007-0.004s0.002-0.005,0.004-0.007l2.572-2.58c0.001,0,0.001,0,0.002-0.001s0.001-0.001,0.001-0.002
					l4.075-4.088l1.514,0.401L64.061,184.605z"/>
				<path fill="#FFFFFF" d="M74.583,161.377l-0.462-0.461c-0.023-0.023-0.055-0.037-0.088-0.037s-0.066,0.014-0.09,0.037
					l-3.172,3.182l-1.265-1.258l2.403-2.412c0.893-0.895,1.373-1.811,1.43-2.723c0.059-0.916-0.312-1.779-1.099-2.562
					c-0.531-0.531-1.058-0.879-1.568-1.035c-0.522-0.156-1.005-0.191-1.442-0.104c-0.453,0.087-0.863,0.256-1.221,0.502
					c-0.353,0.242-0.658,0.492-0.91,0.742l-3.217,3.229c-0.049,0.049-0.048,0.129,0.001,0.176l4.274,4.261l-1.051,1.053
					c-0.049,0.05-0.049,0.127,0,0.177l0.463,0.463c0.023,0.022,0.056,0.037,0.089,0.037c0.032,0,0.065-0.015,0.089-0.037l1.05-1.055
					l1.267,1.262l-1.053,1.055c-0.023,0.023-0.035,0.055-0.035,0.088s0.014,0.066,0.037,0.089l0.461,0.459
					c0.049,0.048,0.129,0.048,0.178-0.001l1.051-1.052l1.883,1.876c0.025,0.025,0.057,0.037,0.088,0.037
					c0.032,0,0.064-0.012,0.09-0.038l0.532-0.533c0.022-0.024,0.036-0.055,0.036-0.088s-0.014-0.065-0.037-0.088l-1.885-1.879
					l3.174-3.185C74.633,161.504,74.632,161.426,74.583,161.377z M71.355,159.707l-2.487,2.495l-3.724-3.71l2.56-2.568
					c0.421-0.424,0.829-0.695,1.214-0.809c0.389-0.115,0.752-0.149,1.077-0.092c0.346,0.061,0.639,0.17,0.894,0.334
					c0.266,0.17,0.478,0.334,0.629,0.483c0.226,0.226,0.408,0.479,0.551,0.763c0.146,0.274,0.231,0.584,0.256,0.922
					c0.021,0.332-0.039,0.688-0.184,1.054C71.995,158.953,71.738,159.32,71.355,159.707z"/>
				<path fill="#FFFFFF" d="M58.947,123.498l0.004-0.004l-2.583-2.584l-0.003,0.003l-0.004-0.004l0,0l0,0l-2.529-2.528l0.002-0.002
					l-2.566-2.565l0-0.001l-2.53-2.531h0l-2.581-2.579l-0.003,0.004c-0.001-0.001-0.002-0.003-0.003-0.004l-0.707,0.707
					c0.175,0.175,0.117,0.981-0.76,2.489c-0.875,1.504-2.288,3.265-3.979,4.955c-3.923,3.923-6.954,5.184-7.437,4.742l-0.002-0.003
					l0,0.001c-0.001-0.001-0.004-0.002-0.005-0.003l-0.707,0.707c0.002,0.003,0.006,0.003,0.009,0.006l2.521,2.521l0,0l-0.001,0.001
					c0.001,0.002,0.004,0.002,0.005,0.004l0.049,0.049l-0.001,0.002c0.002,0.003,0.007,0.003,0.009,0.006l2.51,2.51l-0.002,0.002
					c0.003,0.003,0.008,0.004,0.012,0.007l0.002,0.003l-0.001,0.001c0.002,0.002,0.005,0.002,0.007,0.004l2.561,2.559l-0.004,0.004
					l2.583,2.585l0.001-0.002l0.005,0.005l0,0.001c0.001,0.001,0.003,0.001,0.004,0.003l2.52,2.519l0.707-0.707l-1.542-1.542
					c1.924-0.455,4.784-2.624,7.171-5.012c2.39-2.391,4.562-5.252,5.015-7.177l1.549,1.549l-0.003,0.003
					c0.46,0.459-0.797,3.504-4.738,7.446c-3.942,3.939-6.982,5.197-7.445,4.736l-0.707,0.707c0.254,0.254,0.596,0.369,1.006,0.369
					c1.876,0,5.166-2.42,7.853-5.105C57.477,129.082,60.354,124.918,58.947,123.498z M38.837,126.282
					c1.576-0.916,3.408-2.388,5.159-4.14c2.39-2.39,4.56-5.251,5.013-7.176l1.537,1.537h0l0,0l-0.001,0.001
					c0.057,0.058,0.087,0.154,0.089,0.288c0,0.006-0.001,0.014-0.001,0.02c-0.002,0.96-1.397,3.709-4.827,7.139
					c-3.918,3.92-6.946,5.183-7.435,4.746l-0.005-0.005l-1.538-1.538C37.394,127.017,38.061,126.733,38.837,126.282z
					 M46.524,124.671c1.069-1.069,2.012-2.162,2.81-3.216c0.014-0.018,0.027-0.035,0.041-0.054c0.265-0.352,0.512-0.696,0.736-1.034
					c0.124-0.186,0.241-0.367,0.352-0.548c0.062-0.101,0.14-0.209,0.198-0.308c0.454-0.78,0.739-1.449,0.876-2.017l1.589,1.588
					l-0.003,0.003l0.004,0.004l0,0c0.028,0.028,0.05,0.066,0.065,0.114c0.21,0.679-0.94,3.256-4.098,6.601
					c-0.226,0.239-0.462,0.482-0.708,0.729c-0.415,0.414-0.833,0.811-1.251,1.188c-0.013,0.011-0.025,0.023-0.038,0.034
					c-0.419,0.377-0.837,0.733-1.249,1.065c-0.005,0.004-0.011,0.009-0.017,0.013c-0.405,0.325-0.804,0.625-1.193,0.898
					c-0.02,0.014-0.041,0.029-0.061,0.043c-0.377,0.264-0.745,0.499-1.099,0.707c-0.027,0.016-0.056,0.034-0.083,0.05
					c-0.161,0.093-0.313,0.176-0.458,0.25c-0.013,0.007-0.027,0.016-0.04,0.022c-1.158,0.591-1.792,0.618-1.952,0.469l0.002-0.002
					l-1.593-1.592C41.279,129.225,44.137,127.058,46.524,124.671z M42.201,132.17c0.142-0.044,0.289-0.096,0.442-0.157
					c0.141-0.056,0.282-0.113,0.43-0.183c0.089-0.042,0.185-0.094,0.277-0.141c0.559-0.284,1.149-0.642,1.763-1.069
					c0.053-0.037,0.107-0.078,0.16-0.116c0.333-0.237,0.668-0.488,1.007-0.757c0.121-0.095,0.241-0.192,0.362-0.291
					c0.287-0.235,0.571-0.478,0.855-0.729c0.135-0.118,0.268-0.232,0.402-0.354c0.406-0.369,0.806-0.746,1.193-1.133
					c0.205-0.205,0.408-0.413,0.608-0.623c2.14-2.249,3.988-4.788,4.406-6.548l1.549,1.549c0.174,0.179,0.114,0.986-0.76,2.489
					c-0.874,1.502-2.287,3.262-3.98,4.953c-3.939,3.941-6.98,5.198-7.444,4.74l0,0.001l-0.005-0.005l-0.001,0.002l-1.545-1.547
					C42.011,132.23,42.106,132.199,42.201,132.17z M41.412,119.561c1.751-1.75,3.22-3.584,4.137-5.16
					c0.455-0.78,0.74-1.449,0.877-2.018l1.553,1.551l-0.003,0.004c0.175,0.174,0.116,0.98-0.761,2.488
					c-0.874,1.502-2.287,3.262-3.979,4.954c-3.164,3.163-5.989,4.817-7.145,4.817c-0.082,0-0.227-0.011-0.296-0.076l-1.549-1.551
					C36.168,124.115,39.025,121.947,41.412,119.561z"/>
				<path fill="#FFFFFF" d="M65.893,122.947c-1.508,0.877-2.315,0.934-2.49,0.759l-0.707,0.707c0.248,0.249,0.582,0.372,1.003,0.372
					c0.68,0,1.581-0.324,2.696-0.973c1.574-0.916,3.407-2.387,5.16-4.14c3.057-3.056,5.109-6.21,5.108-7.851
					c0-0.421-0.125-0.757-0.368-1.002l0.005-0.005l-2.527-2.528l0,0l-2.583-2.584l-0.005,0.005c0,0,0-0.001-0.001-0.001l0.004-0.004
					l-2.582-2.583l-0.004,0.003c0-0.001-0.001-0.002-0.002-0.003c-0.244-0.245-0.582-0.369-1.002-0.369
					c-1.642,0-4.797,2.054-7.854,5.11c-3.058,3.058-5.113,6.214-5.112,7.854c0,0.421,0.124,0.759,0.369,1.002
					c0.001,0.002,0.004,0.002,0.005,0.003l2.575,2.575l-0.002,0.003l2.529,2.527l-0.001,0.002l2.583,2.582l0.707-0.707l-1.546-1.546
					c1.924-0.452,4.787-2.621,7.177-5.011c2.39-2.39,4.561-5.251,5.014-7.176l1.548,1.549l-0.004,0.004
					c0.067,0.066,0.078,0.216,0.078,0.299c0.001,1.156-1.653,3.982-4.815,7.144C69.154,120.66,67.395,122.074,65.893,122.947z
					 M56.692,116.993c1.746-0.436,4.496-2.341,7.169-5.013c2.389-2.39,4.561-5.251,5.014-7.177l1.603,1.604l-0.003,0.003
					c0,0,0,0,0,0.001l0,0c0.001,0.001,0.001,0.003,0.002,0.004c0.029,0.032,0.047,0.081,0.059,0.132
					c0.002,0.011,0.004,0.024,0.006,0.036c0.006,0.043,0.01,0.087,0.01,0.119c0,0.005,0,0.011,0,0.016
					c-0.001,0.135-0.027,0.294-0.072,0.472c-0.009,0.035-0.022,0.076-0.034,0.113c-0.04,0.14-0.096,0.293-0.161,0.454
					c-0.027,0.069-0.056,0.138-0.089,0.212c-0.075,0.168-0.164,0.348-0.263,0.535c-0.049,0.092-0.101,0.186-0.156,0.283
					c-0.047,0.083-0.104,0.172-0.154,0.258c-0.17,0.285-0.359,0.578-0.564,0.878c-0.064,0.093-0.128,0.186-0.195,0.281
					c-0.212,0.297-0.441,0.6-0.683,0.905c-0.073,0.094-0.142,0.185-0.219,0.28c-0.265,0.326-0.55,0.657-0.843,0.988
					c-0.071,0.08-0.133,0.156-0.206,0.237c-0.374,0.413-0.767,0.828-1.177,1.238c-0.397,0.397-0.798,0.776-1.198,1.14
					c-0.039,0.035-0.079,0.073-0.118,0.108c-0.388,0.348-0.773,0.676-1.154,0.984c-0.044,0.035-0.089,0.072-0.132,0.106
					c-0.363,0.291-0.721,0.559-1.072,0.808c-0.062,0.044-0.125,0.089-0.187,0.131c-0.332,0.23-0.655,0.437-0.969,0.624
					c-0.396,0.234-0.759,0.427-1.077,0.569c-0.007,0.004-0.017,0.009-0.024,0.012c-0.037,0.017-0.069,0.027-0.105,0.043
					c-0.817,0.341-1.281,0.341-1.408,0.214l0.001-0.001L56.692,116.993z M65.081,115.85c0.025-0.023,0.052-0.048,0.078-0.071
					c0.437-0.395,0.867-0.802,1.282-1.218c0.416-0.416,0.809-0.833,1.186-1.248c0.112-0.125,0.215-0.248,0.324-0.373
					c0.255-0.29,0.503-0.578,0.735-0.864c0.126-0.154,0.241-0.305,0.36-0.457c0.195-0.252,0.383-0.5,0.559-0.745
					c0.118-0.164,0.23-0.324,0.339-0.484c0.152-0.226,0.291-0.443,0.423-0.658c0.066-0.108,0.149-0.223,0.211-0.328
					c0.051-0.087,0.09-0.166,0.137-0.25c0.016-0.029,0.031-0.057,0.046-0.085c0.337-0.62,0.566-1.168,0.686-1.643
					c0.003-0.012,0.009-0.025,0.012-0.038l1.548,1.549l-0.003,0.004c0.175,0.174,0.117,0.98-0.76,2.49
					c-0.875,1.502-2.288,3.262-3.979,4.954c-3.939,3.942-6.982,5.198-7.445,4.74h0l-1.545-1.545
					C60.843,119.205,63.031,117.69,65.081,115.85z M60.451,108.568c3.162-3.162,5.988-4.817,7.146-4.817
					c0.082,0,0.229,0.01,0.295,0.076c0.459,0.46-0.799,3.505-4.74,7.446c-3.161,3.16-5.987,4.813-7.146,4.813
					c-0.082,0-0.232-0.01-0.299-0.078c-0.066-0.065-0.076-0.213-0.076-0.294C55.631,114.559,57.286,111.732,60.451,108.568z"/>
				<path fill="#FFFFFF" d="M43.843,109.806l1.598,1.599l0.707-0.707l-2.579-2.58l0,0l0,0l-0.004-0.004l-0.001,0.001
					c-0.244-0.242-0.58-0.365-0.997-0.365c-1.641,0-4.797,2.052-7.854,5.11c-3.27,3.271-6.147,7.435-4.745,8.852l-0.001,0.001
					l2.583,2.582l0.707-0.708l-1.595-1.595c1.745-0.435,4.495-2.341,7.169-5.015C41.218,114.589,43.387,111.73,43.843,109.806z
					 M30.978,121.085c-0.083,0-0.233-0.01-0.3-0.077c-0.457-0.458,0.802-3.501,4.742-7.443c3.163-3.162,5.99-4.816,7.147-4.816
					c0.082,0,0.227,0.011,0.292,0.074l0.004,0.004c0.452,0.469-0.806,3.508-4.74,7.443
					C34.962,119.432,32.135,121.085,30.978,121.085z"/>
				<path fill="#FFFFFF" d="M1.064,166.011l-11.297,11.298l11.297,11.297l0.354-0.354c2.924-2.923,4.534-6.81,4.534-10.942
					c0-4.135-1.61-8.021-4.534-10.943L1.064,166.011z M1.059,187.186l-9.877-9.877l9.877-9.877c2.515,2.689,3.894,6.178,3.894,9.877
					S3.574,184.497,1.059,187.186z"/>
				<path fill="#FFFFFF" d="M-12.459,177.409l10.36-10.361c0.195-0.194,0.195-0.512,0-0.707c-2.955-2.954-6.885-4.583-11.065-4.583
					c-4.181,0-8.112,1.629-11.068,4.585c-2.956,2.955-4.584,6.886-4.584,11.066c0,4.18,1.628,8.11,4.584,11.065
					c2.955,2.957,6.885,4.584,11.066,4.584c4.18,0,8.11-1.627,11.066-4.584c0.195-0.195,0.195-0.512,0-0.707L-12.459,177.409z
					 M-13.167,192.059c-3.913,0-7.591-1.523-10.358-4.291c-2.768-2.767-4.291-6.445-4.291-10.359s1.524-7.592,4.291-10.359
					s6.447-4.292,10.361-4.292c3.746,0,7.277,1.396,9.998,3.942l-10.354,10.355c-0.195,0.194-0.195,0.512,0,0.706l10.354,10.354
					C-5.889,190.662-9.421,192.059-13.167,192.059z"/>
				<path fill="#FFFFFF" d="M28.149,142.079C28.149,142.079,28.149,142.079,28.149,142.079h0.03c0.437,0,0.869-0.179,1.188-0.495
					c0.318-0.32,0.5-0.764,0.497-1.207c0.003-0.443-0.178-0.882-0.498-1.203c-0.322-0.32-0.75-0.497-1.21-0.497
					c-0.905,0-1.699,0.794-1.699,1.696c-0.003,0.455,0.175,0.886,0.503,1.215C27.279,141.904,27.697,142.079,28.149,142.079z
					 M27.674,139.895c0.137-0.139,0.314-0.218,0.487-0.218c0.189,0,0.365,0.073,0.497,0.204c0.128,0.129,0.206,0.316,0.205,0.496
					c0.001,0.186-0.074,0.369-0.204,0.5c-0.129,0.129-0.304,0.202-0.48,0.202h-0.041c-0.173,0-0.346-0.073-0.473-0.2
					c-0.136-0.136-0.21-0.314-0.209-0.503C27.456,140.207,27.535,140.033,27.674,139.895z"/>
				<path fill="#FFFFFF" d="M24.929,128.799c-1.04-1.039-2.73-1.037-3.769,0l-1.937,1.938l-2.239-2.238
					c-0.036-0.036-0.078-0.061-0.116-0.095c-0.014-0.018-0.021-0.039-0.037-0.056c-0.049-0.049-0.106-0.086-0.167-0.11
					c-1.042-0.76-2.51-0.678-3.45,0.261l-9.074,9.075l0,0l-7.511,7.512c-0.773,0.772-1.263,1.745-1.377,2.737
					c-0.12,1.035,0.179,1.971,0.84,2.632c0.216,0.216,0.467,0.378,0.732,0.515l3.439,3.439c-0.002,0.132,0.044,0.264,0.145,0.363
					l14.096,14.096c0.502,0.501,1.171,0.777,1.884,0.777c0.714,0,1.382-0.277,1.884-0.777l21.479-21.477
					c1.038-1.039,1.038-2.729,0-3.769L24.929,128.799z M34.322,139.607l-4.137,4.138c-0.625,0.624-1.729,0.626-2.354,0l-3.026-3.024
					c-0.312-0.312-0.484-0.73-0.484-1.178s0.172-0.865,0.484-1.177l4.139-4.138L34.322,139.607z M18.516,131.443L1.118,148.84
					c-0.001,0.001-0.001,0.002-0.002,0.003l-0.366,0.366c-0.171,0.171-0.355,0.318-0.546,0.453
					c-0.114-0.073-0.229-0.146-0.323-0.241c-0.441-0.44-0.637-1.081-0.554-1.808c0.089-0.771,0.476-1.533,1.09-2.146l7.513-7.512
					l0,0l8.549-8.548L18.516,131.443z M-3.754,147.938c0.089-0.77,0.477-1.531,1.091-2.146l7.512-7.513l9.074-9.074
					c0.467-0.466,1.145-0.592,1.73-0.387l-8.429,8.429l0,0l-7.514,7.513c-0.772,0.773-1.262,1.745-1.376,2.738
					c-0.119,1.036,0.179,1.971,0.838,2.628c0.013,0.013,0.032,0.021,0.045,0.034c-0.64,0.208-1.268,0.209-1.787-0.001l-0.643-0.644
					c-0.076-0.075-0.171-0.113-0.269-0.13C-3.721,148.984-3.817,148.485-3.754,147.938z M39.045,146.684L17.566,168.16
					c-0.625,0.624-1.729,0.626-2.354,0L1.25,154.198c0.002-0.131-0.045-0.263-0.145-0.362l-2.532-2.532
					c0.541-0.043,1.1-0.196,1.645-0.477c0.003-0.002,0.005-0.005,0.009-0.007c0.446-0.229,0.861-0.535,1.23-0.905l2.855-2.854
					c0.001-0.001,0.001-0.002,0.002-0.003l17.553-17.551c0.647-0.647,1.705-0.647,2.354,0l4.015,4.015l-4.139,4.138
					c-0.502,0.501-0.777,1.17-0.777,1.884s0.275,1.383,0.777,1.885l3.026,3.024c0.501,0.501,1.17,0.778,1.884,0.778
					c0.714,0,1.383-0.277,1.884-0.778l4.137-4.138l4.016,4.016C39.693,144.979,39.693,146.036,39.045,146.684z"/>
				<path fill="#FFFFFF" d="M55.01,71.797c0.024,0.004,0.05,0.006,0.074,0.006c0.243,0,0.457-0.178,0.494-0.427l0.417-2.812
					c0.023-0.157-0.03-0.316-0.142-0.429c-0.114-0.112-0.272-0.165-0.429-0.14l-2.746,0.424c-0.273,0.042-0.46,0.297-0.418,0.57
					s0.302,0.459,0.57,0.418l1.278-0.197L17.53,105.789V91.33h7.367c0.133,0,0.261-0.053,0.354-0.146s0.146-0.221,0.146-0.354
					l-0.001-18.975h11.162c0.276,0,0.5-0.225,0.5-0.5V51.405c0-0.276-0.224-0.5-0.5-0.5s-0.5,0.224-0.5,0.5v19.451H24.895
					c-0.133,0-0.261,0.052-0.354,0.146c-0.093,0.095-0.146,0.222-0.146,0.354l0.001,18.975H17.03c-0.276,0-0.5,0.225-0.5,0.5v14.916
					L-1.405,87.81l1.276,0.188c0.28,0.045,0.527-0.149,0.568-0.421c0.04-0.273-0.149-0.527-0.422-0.567l-2.669-0.395
					c-0.183-0.08-0.403-0.047-0.552,0.103c-0.004,0.004-0.005,0.009-0.009,0.014c-0.003,0.002-0.007,0.003-0.01,0.006
					c-0.036,0.035-0.053,0.081-0.076,0.124c-0.004,0.009-0.011,0.016-0.015,0.024c-0.041,0.088-0.064,0.182-0.049,0.279l0.421,2.746
					c0.038,0.247,0.251,0.424,0.493,0.424c0.025,0,0.051-0.002,0.078-0.007c0.272-0.042,0.46-0.298,0.418-0.57l-0.196-1.277
					l18.846,18.849c0.094,0.093,0.221,0.146,0.354,0.146c0.133,0,0.26-0.054,0.354-0.147l37.373-37.372l-0.189,1.275
					C54.548,71.502,54.737,71.757,55.01,71.797z"/>
				<path fill="#FFFFFF" d="M-56.034,92.052l1.25,1.25l3.354,3.355c0.002,0.002,0.004,0.003,0.006,0.004l5.444,5.444
					c0.527,0.526,1.22,0.791,1.913,0.791s1.386-0.264,1.914-0.791l17.486-17.486c1.056-1.055,1.056-2.773,0-3.828l-1.206-1.206
					l1.509-1.519c1.047-1.059,1.041-2.775-0.016-3.826l-10.093-10.016c-0.508-0.504-1.184-0.783-1.906-0.783
					c-0.003,0-0.006,0-0.009,0c-0.725,0.004-1.405,0.287-1.912,0.799l-17.418,17.552c-0.518,0.521-0.814,1.233-0.811,1.954
					c0.003,0.684,0.263,1.316,0.734,1.781l1.234,1.226l-1.472,1.472C-57.089,89.281-57.089,90.997-56.034,92.052z M-53.81,92.861
					l19.899-19.898l2.732,2.732l-19.898,19.899l-1.256-1.256L-53.81,92.861z M-24.879,82.705c0,0.458-0.176,0.887-0.496,1.207
					l-17.486,17.486c-0.666,0.664-1.749,0.666-2.413,0l-5.096-5.096l19.899-19.9l3.532,3.532c0.002,0.003,0.003,0.006,0.006,0.009
					c0.002,0.002,0.006,0.003,0.008,0.006l1.55,1.549C-25.055,81.818-24.879,82.247-24.879,82.705z M-55.53,83.742
					c-0.001-0.457,0.188-0.911,0.52-1.246l17.418-17.553c0.32-0.321,0.748-0.5,1.206-0.502c0.002,0,0.004,0,0.006,0
					c0.455,0,0.882,0.176,1.201,0.494l10.093,10.015c0.666,0.663,0.671,1.745,0.011,2.411l-1.506,1.517l-8.14-8.139
					c-1.055-1.056-2.772-1.056-3.827,0l-15.308,15.307l-1.236-1.228C-55.373,84.54-55.528,84.158-55.53,83.742z M-55.327,88.932
					l1.826-1.826l15.66-15.66c0.64-0.641,1.771-0.641,2.413,0l0.812,0.812l-19.9,19.899l-0.81-0.811
					C-55.992,90.68-55.992,89.598-55.327,88.932z"/>
				<path fill="#FFFFFF" d="M-28.191,153.812c-0.046-0.172-0.181-0.308-0.354-0.354l-2.632-0.697
					c-0.17-0.046-0.355,0.004-0.482,0.131l-1.35,1.354l-14.443-14.397c-0.193-0.195-0.512-0.195-0.707,0
					c-0.194,0.196-0.194,0.514,0.002,0.707l14.443,14.397l-27.394,27.483c-0.114,0.115-0.165,0.277-0.139,0.438l0.483,2.854
					c0.031,0.185,0.163,0.336,0.342,0.394c0.049,0.015,0.1,0.022,0.151,0.022c0.131,0,0.259-0.051,0.354-0.147l31.598-31.701
					C-28.193,154.169-28.144,153.984-28.191,153.812z M-59.94,184.605l-0.278-1.645l29.063-29.156l1.515,0.401L-59.94,184.605z"/>
				<path fill="#FFFFFF" d="M62.753,58.875l0.483,2.854c0.031,0.184,0.162,0.336,0.342,0.393c0.049,0.015,0.1,0.023,0.15,0.023
					c0.131,0,0.26-0.051,0.355-0.147l31.598-31.702c0.125-0.126,0.174-0.311,0.127-0.483c-0.045-0.173-0.181-0.307-0.354-0.353
					l-2.632-0.697c-0.171-0.045-0.355,0.004-0.482,0.13l-1.349,1.354L76.903,16.204l2.315-2.323
					c0.166-0.167,0.193-0.428,0.064-0.626c-0.129-0.198-0.381-0.277-0.6-0.194l-22.633,8.715c-0.133,0.052-0.237,0.157-0.287,0.289
					l-8.638,22.659c-0.085,0.221-0.003,0.469,0.195,0.598c0.083,0.054,0.177,0.08,0.271,0.08c0.129,0,0.258-0.05,0.354-0.146
					l2.104-2.11l14.088,14.043l-1.245,1.249C62.777,58.553,62.727,58.715,62.753,58.875z M90.286,30.954l-1.873,1.879L74.325,18.791
					l1.873-1.879L90.286,30.954z M67.42,53.895L53.332,39.852l1.875-1.881l14.088,14.042L67.42,53.895z M70,51.306L55.912,37.263
					L71.04,22.086l14.089,14.042L70,51.306z M85.834,35.421L71.745,21.378l1.875-1.88l14.088,14.043L85.834,35.421z M56.617,22.63
					l20.234-7.79l-1,1.003c-0.003,0.003-0.008,0.004-0.011,0.007s-0.004,0.008-0.007,0.011l-2.566,2.574
					c-0.001,0.001-0.003,0.001-0.004,0.002s-0.001,0.002-0.002,0.003l-2.573,2.581c-0.001,0.001-0.003,0.002-0.005,0.003
					s-0.002,0.003-0.003,0.005L49.694,42.084c0,0,0,0-0.001,0.001s0,0.001,0,0.001l-0.797,0.8L56.617,22.63z M50.754,42.438
					l1.873-1.879l14.088,14.043l-1.873,1.879L50.754,42.438z M65.191,57.547c0.003-0.002,0.006-0.003,0.008-0.005
					c0.002-0.002,0.003-0.005,0.005-0.008l2.564-2.572c0.003-0.002,0.006-0.003,0.009-0.006s0.003-0.006,0.006-0.009l2.566-2.575
					c0.003-0.002,0.006-0.003,0.008-0.005s0.003-0.005,0.005-0.007l15.823-15.874c0.002-0.001,0.004-0.002,0.006-0.004
					s0.002-0.004,0.004-0.006l2.572-2.581c0.001,0,0.002,0,0.002-0.001s0.001-0.001,0.001-0.001l4.075-4.088l1.514,0.401
					l-30.299,30.4l-0.278-1.644L65.191,57.547z"/>
				<path fill="#FFFFFF" d="M-10.233,53.308L1.064,64.605l0.354-0.354c2.924-2.923,4.534-6.81,4.534-10.943
					c0-4.134-1.61-8.021-4.534-10.943l-0.354-0.354L-10.233,53.308z M4.953,53.309c0,3.699-1.379,7.188-3.894,9.876l-9.877-9.876
					l9.877-9.877C3.574,46.121,4.953,49.609,4.953,53.309z"/>
				<path fill="#FFFFFF" d="M-24.232,64.475c2.955,2.957,6.885,4.584,11.066,4.584c4.18,0,8.11-1.627,11.066-4.584
					c0.195-0.195,0.195-0.512,0-0.707l-10.359-10.358l10.36-10.361c0.195-0.195,0.195-0.512,0-0.707
					c-2.955-2.955-6.885-4.583-11.065-4.583c-4.181,0-8.112,1.628-11.068,4.585c-2.956,2.955-4.584,6.886-4.584,11.066
					C-28.816,57.589-27.188,61.52-24.232,64.475z M-23.525,43.049c2.767-2.768,6.447-4.292,10.361-4.292
					c3.746,0,7.277,1.395,9.998,3.943L-13.52,53.055c-0.195,0.195-0.195,0.512,0,0.707l10.354,10.353
					c-2.723,2.547-6.255,3.943-10.001,3.943c-3.913,0-7.591-1.523-10.358-4.291c-2.768-2.767-4.291-6.446-4.291-10.359
					C-27.816,49.494-26.292,45.817-23.525,43.049z"/>
				<path fill="#FFFFFF" d="M-60.422,62.122c0.049,0.015,0.1,0.023,0.151,0.023c0.131,0,0.259-0.051,0.354-0.147l31.598-31.702
					c0.126-0.126,0.175-0.311,0.128-0.483c-0.046-0.173-0.181-0.307-0.354-0.353l-2.632-0.697c-0.17-0.045-0.355,0.004-0.482,0.13
					l-1.349,1.354l-14.444-14.397c-0.193-0.194-0.512-0.195-0.707,0.001c-0.194,0.196-0.194,0.512,0.002,0.707l14.443,14.397
					l-27.394,27.483c-0.114,0.116-0.165,0.278-0.139,0.438l0.483,2.854C-60.733,61.913-60.601,62.065-60.422,62.122z
					 M-31.155,29.804l1.515,0.401l-30.3,30.4l-0.278-1.644L-31.155,29.804z"/>
			</g>
		</g>
	</g>
</g>
</svg>
