<?xml version="1.0" encoding="utf-8"?>
<!-- Generator: Adobe Illustrator 16.0.0, SVG Export Plug-In . SVG Version: 6.00 Build 0)  -->
<!DOCTYPE svg PUBLIC "-//W3C//DTD SVG 1.1//EN" "http://www.w3.org/Graphics/SVG/1.1/DTD/svg11.dtd">
<svg version="1.1" id="Layer_1" xmlns="http://www.w3.org/2000/svg" xmlns:xlink="http://www.w3.org/1999/xlink" x="0px" y="0px"
	 width="40px" height="40px" viewBox="0 0 40 40" enable-background="new 0 0 40 40" xml:space="preserve">
<path fill="#FFFFFF" d="M33.077,16.449c-0.07-0.07-0.166-0.109-0.265-0.109h-2.416V9.201c0-0.207-0.168-0.375-0.375-0.375
	L9.979,8.825c-0.207,0-0.375,0.168-0.375,0.375v7.141L7.188,16.34c-0.1,0-0.195,0.039-0.265,0.109s-0.11,0.166-0.11,0.266
	L6.814,28.9c0,0.207,0.168,0.375,0.375,0.375h2.225l0.001,2.86c0,0.207,0.168,0.375,0.375,0.375c0.208,0,0.375-0.168,0.375-0.375
	l-0.001-2.86h19.671l0.001,2.86c0,0.207,0.168,0.375,0.375,0.375c0.208,0,0.375-0.168,0.375-0.375l-0.001-2.86h2.226
	c0.207,0,0.375-0.168,0.375-0.375l0.001-12.186C33.187,16.615,33.147,16.521,33.077,16.449z M27.574,16.34
	c-0.207,0-0.375,0.168-0.375,0.375v5.549H12.575v-5.549c0-0.1-0.04-0.195-0.11-0.266S12.299,16.34,12.2,16.34l-1.845,0.001V9.575
	l19.291,0.001v6.764H27.574z M32.436,28.525H7.564L7.563,17.09l2.416,0.001c0,0,0,0,0,0s0,0,0,0h0.168l1.677-0.001v5.549
	c0,0.207,0.168,0.375,0.375,0.375h15.374c0.207,0,0.375-0.168,0.375-0.375V17.09h4.488L32.436,28.525z"/>
</svg>
