<?xml version="1.0" encoding="utf-8"?>
<!-- Generator: Adobe Illustrator 16.0.0, SVG Export Plug-In . SVG Version: 6.00 Build 0)  -->
<!DOCTYPE svg PUBLIC "-//W3C//DTD SVG 1.1//EN" "http://www.w3.org/Graphics/SVG/1.1/DTD/svg11.dtd">
<svg version="1.1" id="Layer_1" xmlns="http://www.w3.org/2000/svg" xmlns:xlink="http://www.w3.org/1999/xlink" x="0px" y="0px"
	 width="124px" height="124px" viewBox="0 0 124 124" enable-background="new 0 0 124 124" xml:space="preserve">
<g opacity="0.09">
	<g>
		<g>
			<defs>
				<rect id="SVGID_1_" width="124" height="124"/>
			</defs>
			<clipPath id="SVGID_2_">
				<use xlink:href="#SVGID_1_"  overflow="visible"/>
			</clipPath>
			<g clip-path="url(#SVGID_2_)">
				<g>
					<g>
						<path fill="none" stroke="#231F20" stroke-linecap="round" stroke-linejoin="round" stroke-miterlimit="10" d="
							M104.859,84.051"/>
					</g>
				</g>
				<g>
					<g>
						<path fill="none" stroke="#231F20" stroke-linecap="round" stroke-linejoin="round" stroke-miterlimit="10" d="
							M196.436,49.895"/>
					</g>
				</g>
			</g>
		</g>
		<g>
			<defs>
				<rect id="SVGID_3_" width="124" height="124"/>
			</defs>
			<clipPath id="SVGID_4_">
				<use xlink:href="#SVGID_3_"  overflow="visible"/>
			</clipPath>
			<g clip-path="url(#SVGID_4_)">
				<g>
					<g>
						<path fill="none" stroke="#231F20" stroke-linecap="round" stroke-linejoin="round" stroke-miterlimit="10" d="
							M104.859,208.051"/>
					</g>
				</g>
				<g>
					<g>
						<path fill="none" stroke="#231F20" stroke-linecap="round" stroke-linejoin="round" stroke-miterlimit="10" d="
							M196.436,173.895"/>
					</g>
				</g>
			</g>
		</g>
		<g>
			<defs>
				<rect id="SVGID_5_" width="124" height="124"/>
			</defs>
			<clipPath id="SVGID_6_">
				<use xlink:href="#SVGID_5_"  overflow="visible"/>
			</clipPath>
			<g clip-path="url(#SVGID_6_)">
				<g>
					<g>
						<path fill="none" stroke="#231F20" stroke-linecap="round" stroke-linejoin="round" stroke-miterlimit="10" d="
							M-19.141,84.051"/>
					</g>
				</g>
				<g>
					<g>
						<path fill="none" stroke="#231F20" stroke-linecap="round" stroke-linejoin="round" stroke-miterlimit="10" d="M72.436,49.895
							"/>
					</g>
				</g>
			</g>
		</g>
		<g>
			<defs>
				<rect id="SVGID_7_" width="124" height="124"/>
			</defs>
			<clipPath id="SVGID_8_">
				<use xlink:href="#SVGID_7_"  overflow="visible"/>
			</clipPath>
			<g clip-path="url(#SVGID_8_)">
				<g>
					<g>
						<g>
							<g>
								<path fill="none" stroke="#231F20" stroke-linecap="round" stroke-linejoin="round" stroke-miterlimit="10" d="
									M-19.141,208.051"/>
							</g>
						</g>
						<g>
							<g>
								<path fill="none" stroke="#231F20" stroke-linecap="round" stroke-linejoin="round" stroke-miterlimit="10" d="
									M72.436,173.895"/>
							</g>
						</g>
					</g>
					<g>
						<path fill="#FFFFFF" d="M219.682,63.639c0.194-0.195,0.194-0.512,0-0.707c-0.195-0.195-0.513-0.195-0.707,0l-27.947,27.945
							c-0.127,0.128-0.162,0.306-0.123,0.469c0.021,0.087,0.056,0.171,0.123,0.239l5.514,5.514l-2.135,2.134
							c-0.195,0.195-0.195,0.513,0,0.707l9.51,9.513c0.094,0.093,0.221,0.146,0.354,0.146s0.26-0.053,0.353-0.145l10.09-10.092
							c0.195-0.195,0.195-0.512,0-0.707c-0.194-0.195-0.512-0.195-0.707,0l-9.735,9.738l-8.804-8.806l2.135-2.134
							c0-0.001,0.001-0.001,0.001-0.001s0-0.001,0.001-0.001l1.067-1.067l4.268,4.269c0.195,0.195,0.513,0.195,0.707,0l6.002-6.002
							c0.195-0.195,0.195-0.512,0-0.707c-0.194-0.195-0.512-0.195-0.707,0l-5.647,5.647l-4.269-4.268
							c-0.194-0.195-0.512-0.195-0.707,0l-1.068,1.067l-5.16-5.16L219.682,63.639z"/>
						<path fill="#FFFFFF" d="M145.369,22.155l-2.135,2.134c-0.094,0.094-0.146,0.221-0.146,0.354c0,0.133,0.053,0.26,0.146,0.354
							l9.511,9.51c0.098,0.097,0.226,0.146,0.354,0.146c0.127,0,0.254-0.049,0.353-0.147l1.838-1.838l3.313,3.311
							c0.098,0.097,0.226,0.146,0.354,0.146s0.256-0.048,0.354-0.146c0.194-0.195,0.194-0.512,0-0.707l-3.312-3.311l15.232-15.231
							l3.312,3.311c0.099,0.097,0.226,0.146,0.354,0.146c0.127,0,0.254-0.049,0.353-0.146c0.194-0.195,0.194-0.512,0-0.707
							l-3.312-3.311l1.513-1.513c0.194-0.195,0.194-0.512,0-0.707l-9.511-9.512c-0.188-0.188-0.52-0.188-0.707,0l-1.513,1.513
							l-5.511-5.511c-0.195-0.195-0.512-0.195-0.707,0l-15.645,15.643c-0.098,0.098-0.146,0.226-0.146,0.354
							s0.048,0.257,0.146,0.354L145.369,22.155z M163.586,5.352l8.805,8.805l-1.509,1.508c-0.001,0.001-0.003,0.002-0.005,0.003
							s-0.002,0.004-0.004,0.005l-15.935,15.933c-0.001,0-0.001,0-0.001,0v0l-1.838,1.837l-8.805-8.803l2.133-2.133
							c0.001,0,0.002,0,0.002-0.001s0-0.001,0.001-0.001l1.067-1.067l4.27,4.27c0.094,0.093,0.221,0.146,0.354,0.146
							s0.26-0.052,0.354-0.146l12-12c0.195-0.195,0.195-0.512,0-0.707l-4.27-4.27l1.865-1.865c0.001-0.001,0.003-0.001,0.004-0.003
							s0.002-0.003,0.003-0.004L163.586,5.352z M159.145,8.379c-0.195,0.195-0.195,0.512,0,0.707l4.27,4.27l-11.293,11.293
							l-4.27-4.27c-0.187-0.188-0.519-0.188-0.707,0l-1.068,1.068l-5.158-5.158l14.938-14.936l5.156,5.158L159.145,8.379z"/>
						<path fill="#FFFFFF" d="M180.887,104.755c-0.037-0.166-0.158-0.302-0.318-0.36l-6.252-2.244
							c-0.18-0.065-0.385-0.021-0.522,0.117l-0.272,0.272c-0.002,0.002-0.002,0.002-0.002,0.002l-3.107,3.106
							c-0.001,0.002-0.001,0.002-0.002,0.002l-0.271,0.271c-0.137,0.137-0.182,0.339-0.117,0.521l2.242,6.257
							c0.057,0.161,0.193,0.282,0.36,0.319c0.036,0.008,0.073,0.012,0.108,0.012c0.131,0,0.26-0.051,0.353-0.146l3.481-3.482
							l4.058,4.057l-1.019,1.019c-0.195,0.195-0.195,0.513,0,0.707c0.098,0.098,0.226,0.146,0.354,0.146s0.256-0.049,0.354-0.146
							l2.744-2.744c0.194-0.194,0.194-0.512,0-0.707c-0.195-0.194-0.513-0.194-0.707,0l-1.019,1.019l-4.058-4.057l3.479-3.479
							C180.873,105.098,180.924,104.923,180.887,104.755z M172.938,111.62l-1.869-5.216l3.209-3.207l5.211,1.871L172.938,111.62z"/>
						<path fill="#FFFFFF" d="M102.911,87.126c0.036-0.021,0.073-0.038,0.104-0.069l7.688-7.688l3.312,3.312
							c0.098,0.098,0.227,0.146,0.354,0.146s0.256-0.049,0.353-0.146c0.195-0.195,0.195-0.512,0-0.707l-3.312-3.312l1.513-1.513
							c0.195-0.195,0.195-0.513,0-0.707l-9.51-9.51c-0.195-0.195-0.512-0.195-0.707,0l-1.514,1.514l-5.512-5.514
							c-0.195-0.195-0.513-0.195-0.707,0L67.027,90.877c-0.127,0.128-0.162,0.306-0.123,0.469c0.021,0.087,0.056,0.171,0.123,0.239
							l5.514,5.514l-2.135,2.134c-0.195,0.195-0.195,0.513,0,0.707l9.51,9.513c0.094,0.093,0.221,0.146,0.354,0.146
							s0.26-0.053,0.353-0.145l1.841-1.842l3.311,3.311c0.099,0.098,0.227,0.146,0.354,0.146s0.256-0.049,0.353-0.146
							c0.195-0.195,0.195-0.512,0-0.707l-3.311-3.311l7.542-7.543l12.127-12.127C102.871,87.202,102.89,87.164,102.911,87.126z
							 M68.088,91.23l27.24-27.238l5.158,5.16l-1.867,1.867c-0.195,0.194-0.195,0.512,0,0.707l4.268,4.268l-5.644,5.645
							L84.939,93.941c-0.002,0.002-0.002,0.004-0.004,0.006l-5.644,5.644l-4.269-4.268c-0.194-0.195-0.512-0.195-0.707,0
							l-1.068,1.067L68.088,91.23z M90.008,98.652c-0.001,0.001-0.002,0.001-0.003,0.002l-7.892,7.894
							c-0.001,0.001-0.003,0.002-0.004,0.003s-0.002,0.003-0.003,0.004l-1.837,1.838l-8.804-8.806l2.135-2.134
							c0-0.001,0.001-0.001,0.001-0.001s0-0.001,0.001-0.001l1.067-1.067l4.268,4.269c0.195,0.195,0.513,0.195,0.707,0l6.002-6.002
							c0.002-0.002,0.002-0.004,0.004-0.006l12.3-12.299l5.997-5.998c0.195-0.195,0.195-0.512,0-0.707l-4.268-4.268l1.865-1.865
							c0.001-0.001,0.002-0.001,0.003-0.002s0.001-0.002,0.002-0.003l1.511-1.511l8.803,8.803l-9.555,9.555
							c-0.032,0.032-0.051,0.071-0.072,0.108c-0.036,0.021-0.073,0.039-0.104,0.069L90.008,98.652z"/>
						<path fill="#FFFFFF" d="M123.275,16.251c-0.188-0.188-0.52-0.188-0.707,0L95.191,43.628c-0.094,0.094-0.146,0.221-0.146,0.354
							c0,0.133,0.053,0.26,0.146,0.354l27.377,27.375c0.098,0.098,0.226,0.146,0.354,0.146s0.256-0.049,0.354-0.146l1.361-1.361
							l1.221,1.221c0.099,0.098,0.227,0.146,0.354,0.146s0.256-0.049,0.353-0.146c0.195-0.194,0.195-0.512,0-0.706l-1.221-1.221
							l22.689-22.689l1.221,1.22c0.098,0.097,0.227,0.146,0.354,0.146c0.129,0,0.256-0.049,0.354-0.146
							c0.195-0.195,0.195-0.512,0-0.707l-1.221-1.22l1.912-1.912c0.093-0.094,0.146-0.221,0.146-0.354
							c0-0.133-0.052-0.26-0.146-0.354L123.275,16.251z M122.57,43.625c-0.001,0.001-0.003,0.001-0.004,0.003
							s-0.002,0.003-0.003,0.004l-13.222,13.221c-0.039,0.039-0.063,0.085-0.087,0.131l-5.938-5.937
							c0.047-0.023,0.094-0.049,0.133-0.088l26.45-26.451c0.039-0.039,0.063-0.084,0.087-0.13l5.938,5.938
							c-0.047,0.023-0.093,0.048-0.132,0.087L122.57,43.625z M122.922,17.313l6.402,6.402c-0.046,0.023-0.092,0.048-0.131,0.086
							l-26.45,26.451c-0.039,0.039-0.064,0.085-0.088,0.133l-6.403-6.403L122.922,17.313z M122.922,70.65l-13.004-13.003
							c0.047-0.024,0.093-0.049,0.132-0.088l12.871-12.87l12.894,12.894c0.031,0.031,0.069,0.049,0.105,0.07L122.922,70.65z
							 M147.682,45.893c0,0-0.001,0.001-0.002,0.001s-0.001,0.001-0.002,0.002l-11.086,11.085c-0.021-0.037-0.039-0.075-0.07-0.106
							l-12.894-12.894L136.5,31.111c0.039-0.039,0.064-0.085,0.088-0.132l13.004,13.004L147.682,45.893z"/>
						<path fill="#FFFFFF" d="M125.02,52.783c-0.195-0.195-0.513-0.195-0.707,0c-0.195,0.195-0.195,0.512,0,0.707l3.276,3.277
							c0.099,0.097,0.226,0.146,0.354,0.146c0.127,0,0.256-0.049,0.353-0.146c0.195-0.195,0.195-0.512,0-0.707L125.02,52.783z"/>
						<path fill="#FFFFFF" d="M132.532,45.271c-0.195-0.195-0.513-0.195-0.707,0c-0.195,0.195-0.195,0.512,0,0.707l3.276,3.277
							c0.099,0.097,0.227,0.146,0.354,0.146s0.256-0.049,0.353-0.146c0.195-0.195,0.195-0.512,0-0.707L132.532,45.271z"/>
						
							<rect x="99.45" y="45.044" transform="matrix(0.9133 0.4072 -0.4072 0.9133 27.4471 -37.869)" fill="#FFFFFF" width="6.47" height="0.999"/>
						
							<rect x="102.383" y="42.119" transform="matrix(0.9133 0.4073 -0.4073 0.9133 26.5207 -39.3271)" fill="#FFFFFF" width="6.469" height="1"/>
						
							<rect x="105.315" y="39.179" transform="matrix(0.9133 0.4073 -0.4073 0.9133 25.5719 -40.7705)" fill="#FFFFFF" width="6.469" height="1"/>
						
							<rect x="114.48" y="32.728" transform="matrix(0.7071 0.7071 -0.7071 0.7071 58.8417 -70.8791)" fill="#FFFFFF" width="1" height="5.721"/>
						
							<rect x="126.605" y="29.8" transform="matrix(-0.1438 -0.9896 0.9896 -0.1438 119.384 163.8916)" fill="#FFFFFF" width="7.973" height="1.001"/>
						
							<rect x="123.234" y="33.171" transform="matrix(-0.1438 -0.9896 0.9896 -0.1438 112.1913 164.412)" fill="#FFFFFF" width="7.974" height="1.002"/>
						
							<rect x="119.868" y="36.542" transform="matrix(-0.1438 -0.9896 0.9896 -0.1438 105.0039 164.9371)" fill="#FFFFFF" width="7.975" height="1.002"/>
						
							<rect x="119.624" y="37.514" transform="matrix(-0.9747 -0.2236 0.2236 -0.9747 227.8741 109.2548)" fill="#FFFFFF" width="1" height="8.419"/>
						<path fill="#FFFFFF" d="M150.234,72.965c0,0.133,0.052,0.26,0.146,0.354c6.833,6.834,13.817,2.4,15.478,1.166l9.541,9.539
							c0.099,0.098,0.227,0.146,0.354,0.146s0.256-0.049,0.353-0.146l0.225-0.225c0.002-0.002,0.004-0.002,0.006-0.004l3.716-3.717
							c0.195-0.195,0.195-0.512,0-0.707l-9.54-9.539c1.235-1.662,5.668-8.645-1.164-15.478c-0.195-0.195-0.513-0.195-0.707,0
							l-0.917,0.917l-0.001-0.001l-8.272,8.272l-2.981-2.981l1.428-1.428c0.195-0.195,0.195-0.512,0-0.707
							c-0.194-0.195-0.512-0.195-0.707,0l-1.78,1.781c-0.093,0.094-0.146,0.222-0.146,0.354c0,0.133,0.051,0.26,0.146,0.354
							l1.53,1.529l-1.572,1.571c-0.195,0.195-0.195,0.512,0,0.707c0.098,0.098,0.226,0.146,0.354,0.146
							c0.129,0,0.256-0.049,0.354-0.145l1.572-1.573l1.098,1.097l-6.758,6.757l-0.688,0.688l0,0l-0.918,0.918
							C150.287,72.705,150.234,72.832,150.234,72.965z M168.986,55.42c6.566,6.993,0.738,13.83,0.481,14.122
							c-0.173,0.199-0.165,0.497,0.022,0.683l9.5,9.5l-1.618,1.619l-1.619,1.618l-9.501-9.5c-0.188-0.185-0.484-0.194-0.684-0.021
							c-0.293,0.256-7.117,6.1-14.121-0.481l16.982-16.983v0L168.986,55.42z"/>
						<path fill="#FFFFFF" d="M139.044,99.951c0.128,0,0.256-0.049,0.353-0.146l9.143-9.141c0.093-0.094,0.146-0.221,0.146-0.354
							c0-0.134-0.053-0.261-0.146-0.354l-1.913-1.914c-0.002-0.001-0.002-0.003-0.004-0.005s-0.004-0.002-0.005-0.004l-1.003-1.003
							l1.971-1.97c0.093-0.094,0.146-0.221,0.146-0.354s-0.051-0.26-0.146-0.354l-7.28-7.279l1.26-1.26
							c0.194-0.195,0.194-0.513,0-0.707c-0.195-0.195-0.513-0.195-0.707,0l-1.26,1.26l-0.219-0.219
							c-0.865-0.866-2.25-0.894-3.087-0.058c-0.003,0.003-0.005,0.007-0.009,0.011l-9.131,9.131
							c-0.836,0.838-0.812,2.223,0.054,3.088l0.22,0.219l-2.639,2.639c-0.195,0.195-0.195,0.512,0,0.707
							c0.098,0.098,0.227,0.146,0.354,0.146c0.129,0,0.256-0.049,0.354-0.146l2.638-2.638l10.558,10.558
							C138.788,99.902,138.916,99.951,139.044,99.951z M139.044,98.744l-1.21-1.211l8.434-8.435l1.211,1.212L139.044,98.744z
							 M128.488,88.188c-0.001-0.001-0.001-0.002-0.002-0.003s-0.002-0.001-0.003-0.002l-0.57-0.57
							c-0.476-0.477-0.5-1.228-0.054-1.674l7.877-7.877c0.09,0.406,0.293,0.797,0.611,1.117l1.334,1.334
							c0.002,0.002,0.004,0.002,0.006,0.004l6.864,6.865c0,0.001,0.001,0.002,0.001,0.002s0.001,0.001,0.002,0.001l1.006,1.006
							l-8.434,8.435L128.488,88.188z M146.525,84.707l-1.618,1.617l-6.926-6.927l1.616-1.616L146.525,84.707z M138.672,76.855
							l0.219,0.219l-1.616,1.616l-0.218-0.218c-0.478-0.477-0.503-1.227-0.06-1.671L137,76.799c0,0,0-0.001,0.001-0.001
							C137.445,76.354,138.196,76.38,138.672,76.855z"/>
						<path fill="#FFFFFF" d="M193.618,38.375c-0.001,0.001-0.002,0.003-0.003,0.004l-2.438,2.438c-0.195,0.195-0.195,0.512,0,0.707
							c0.098,0.097,0.227,0.146,0.354,0.146s0.256-0.048,0.353-0.146l2.087-2.087l9.589,9.589c0.099,0.097,0.227,0.146,0.354,0.146
							s0.256-0.048,0.353-0.147c0.195-0.195,0.195-0.512,0-0.707l-6.749-6.749l16.812-16.812l6.748,6.749
							c0.194,0.195,0.512,0.195,0.707,0c0.194-0.195,0.194-0.512,0-0.707l-9.588-9.589l2.085-2.085c0.195-0.195,0.195-0.512,0-0.707
							s-0.512-0.195-0.707,0l-2.436,2.436c-0.001,0.001-0.003,0.001-0.004,0.002L193.618,38.375z M213.624,24.051l-16.812,16.812
							l-2.132-2.133l16.812-16.812L213.624,24.051z"/>
						<path fill="#FFFFFF" d="M189.87,25.508l5.521,5.52c0.098,0.097,0.226,0.146,0.354,0.146s0.256-0.049,0.354-0.146l3.491-3.492
							l1.157,1.156l-1.298,1.299c-0.195,0.195-0.195,0.512,0,0.707c0.098,0.097,0.226,0.146,0.354,0.146s0.257-0.049,0.353-0.146
							l1.65-1.651c0,0,0.001-0.001,0.002-0.001s0.001-0.001,0.001-0.002l1.652-1.653c0.194-0.195,0.194-0.512,0-0.707
							s-0.512-0.195-0.707,0l-1.3,1.301l-1.157-1.156l3.494-3.494c0.194-0.195,0.194-0.512,0-0.707l-5.521-5.52
							c-0.194-0.195-0.512-0.195-0.707,0l-7.692,7.693C189.675,24.996,189.675,25.313,189.87,25.508z M197.918,18.169l4.812,4.812
							l-6.986,6.986l-4.812-4.812L197.918,18.169z"/>
						<path fill="#FFFFFF" d="M186.427,47.149c0.158-0.159,0.192-0.403,0.083-0.598c-0.123-0.219-3.044-5.367-6.734-5.877
							c-1.43-0.194-2.77,0.317-3.979,1.526c-0.002,0.002-0.003,0.005-0.005,0.008c-1.205,1.207-1.715,2.543-1.519,3.969
							c0.512,3.691,5.66,6.612,5.879,6.735c0.076,0.042,0.16,0.063,0.244,0.063c0.127,0,0.256-0.05,0.353-0.147l2.485-2.486
							l2.026,2.026l-1.717,1.717c-0.541,0.54-0.835,1.547-0.671,2.292l0.329,1.497c0.149,0.689,0.612,0.935,0.996,0.935
							c0.206,0,0.521-0.068,0.848-0.395l3.131-3.13l3.411,3.412l-0.996,0.996c-0.093,0.094-0.146,0.221-0.146,0.354l0.002,1.97
							c0,0.277,0.224,0.5,0.5,0.5c0.277,0,0.5-0.224,0.5-0.5l-0.002-1.763l0.85-0.85l0.632,0.633
							c0.099,0.097,0.226,0.146,0.354,0.146c0.128,0,0.256-0.049,0.353-0.146c0.195-0.195,0.195-0.512,0-0.707l-0.632-0.632
							l0.795-0.795l1.764,0.002c0.276,0,0.5-0.224,0.5-0.5c0-0.276-0.224-0.5-0.498-0.5l-1.967-0.002
							c-0.13-0.001-0.26,0.046-0.359,0.145l-0.941,0.942l-3.412-3.411l3.133-3.132c0.334-0.333,0.463-0.736,0.356-1.104
							c-0.106-0.368-0.433-0.638-0.896-0.74l-1.5-0.331c-0.736-0.16-1.761,0.144-2.291,0.672l-1.718,1.718l-2.026-2.026
							L186.427,47.149z M188.393,50.652c0.242-0.242,0.733-0.425,1.142-0.425c0.084,0,0.161,0.007,0.228,0.022l1.498,0.33
							c0.077,0.017,0.12,0.039,0.141,0.041c-0.014,0.026-0.041,0.068-0.094,0.12l-6.969,6.968c-0.048,0.048-0.087,0.075-0.113,0.089
							c-0.015-0.026-0.031-0.069-0.047-0.135l-0.328-1.499c-0.093-0.415,0.099-1.068,0.4-1.369L188.393,50.652z M180.318,51.846
							c-1.104-0.684-4.68-3.093-5.053-5.808c-0.156-1.117,0.252-2.141,1.24-3.131c0.001-0.001,0.001-0.003,0.003-0.004
							c0.988-0.987,2.007-1.394,3.127-1.239c2.716,0.375,5.124,3.95,5.81,5.054l-2.564,2.564c-0.001,0.001-0.001,0.002-0.002,0.003
							L180.318,51.846z"/>
						<polygon fill="#FFFFFF" points="182.766,-8.394 192.891,1.731 191.555,3.067 192.262,3.774 195.642,0.394 194.935,-0.313 
							193.598,1.024 183.473,-9.101 191.326,-16.954 190.619,-17.661 174.205,-1.247 174.912,-0.54 						"/>
						<path fill="#FFFFFF" d="M100.412,9.438c0,0.007-0.004,0.014-0.003,0.021c0.002,0.022,0.015,0.042,0.02,0.063
							c0.008,0.038,0.017,0.075,0.033,0.11c0.015,0.031,0.035,0.056,0.056,0.083c0.014,0.018,0.021,0.04,0.037,0.056
							c0.01,0.01,0.023,0.013,0.033,0.022c0.012,0.009,0.018,0.023,0.029,0.032c0.298,0.213,5.57,3.911,10.277,3.911
							c1.521,0,2.981-0.393,4.197-1.409l-0.002,3.695c0,0.276,0.225,0.5,0.5,0.5c0.276,0,0.5-0.224,0.5-0.5l0.002-4.654l6.336-6.338
							c0.002-0.002,0.004-0.002,0.006-0.004l5.688-5.686h4.652c0.276,0,0.5-0.224,0.5-0.5c0-0.276-0.225-0.5-0.5-0.5h-3.652
							l0.255-0.255c4.872-4.872-1.856-14.466-2.146-14.872c-0.006-0.009-0.018-0.013-0.024-0.022
							c-0.011-0.014-0.016-0.03-0.028-0.043c-0.021-0.021-0.047-0.03-0.069-0.046c-0.021-0.015-0.04-0.03-0.062-0.042
							c-0.044-0.022-0.089-0.034-0.136-0.042c-0.016-0.003-0.028-0.012-0.044-0.014c-0.006,0-0.011,0.002-0.016,0.002
							c-0.052-0.003-0.103,0.006-0.153,0.02c-0.018,0.005-0.037,0.004-0.055,0.011c-0.062,0.024-0.121,0.061-0.172,0.111
							L100.555,9.064c-0.051,0.051-0.087,0.11-0.111,0.173c-0.01,0.024-0.009,0.049-0.015,0.074
							C100.42,9.353,100.41,9.395,100.412,9.438z M128.669-2.622l-1.105,1.105c-0.003,0.002-0.005,0.005-0.008,0.007l-5.825,5.824
							c-0.002,0.001-0.004,0.002-0.006,0.004l-6.942,6.945c-3.704,3.704-11.113-0.648-13.091-1.923l3.746-3.746l21.31-21.307
							C128.021-13.733,132.372-6.325,128.669-2.622z"/>
						<path fill="#FFFFFF" d="M113.227,9.655c-1.516,1.519-5.425,0.018-6.803-0.689c-0.248-0.126-0.548-0.029-0.673,0.217
							c-0.126,0.246-0.028,0.547,0.216,0.673c0.16,0.082,2.866,1.452,5.275,1.452c1.023,0,1.992-0.248,2.691-0.946
							c0.195-0.195,0.195-0.512,0-0.707C113.738,9.46,113.422,9.46,113.227,9.655z"/>
						<path fill="#FFFFFF" d="M218.975,186.932l-27.947,27.945c-0.127,0.128-0.162,0.306-0.123,0.469
							c0.021,0.087,0.056,0.171,0.123,0.239l5.514,5.514l-2.135,2.134c-0.195,0.195-0.195,0.513,0,0.707l9.51,9.513
							c0.094,0.093,0.221,0.146,0.354,0.146s0.26-0.053,0.353-0.145l10.09-10.092c0.195-0.195,0.195-0.512,0-0.707
							c-0.194-0.195-0.512-0.195-0.707,0l-9.735,9.738l-8.804-8.806l2.135-2.134c0-0.001,0.001-0.001,0.001-0.001
							s0-0.001,0.001-0.001l1.067-1.067l4.268,4.269c0.195,0.195,0.513,0.195,0.707,0l6.002-6.002c0.195-0.195,0.195-0.512,0-0.707
							c-0.194-0.195-0.512-0.195-0.707,0l-5.647,5.647l-4.269-4.268c-0.194-0.195-0.512-0.195-0.707,0l-1.068,1.067l-5.16-5.16
							l27.594-27.592c0.194-0.195,0.194-0.512,0-0.707C219.486,186.736,219.169,186.736,218.975,186.932z"/>
						<path fill="#FFFFFF" d="M174.542,144.04c0.099,0.097,0.226,0.146,0.354,0.146c0.127,0,0.254-0.049,0.353-0.146
							c0.194-0.194,0.194-0.513,0-0.707l-3.312-3.312l1.513-1.513c0.194-0.194,0.194-0.512,0-0.707l-9.511-9.512
							c-0.188-0.188-0.52-0.188-0.707,0l-1.514,1.513l-5.508-5.508c-0.001-0.001-0.001-0.002-0.002-0.003
							c-0.195-0.194-0.512-0.194-0.707,0l-15.645,15.644c-0.098,0.098-0.146,0.227-0.146,0.354c0,0.129,0.048,0.257,0.146,0.354
							l5.512,5.512l-2.135,2.134c-0.094,0.094-0.146,0.221-0.146,0.354c0,0.133,0.053,0.26,0.146,0.354l9.511,9.51
							c0.098,0.098,0.226,0.146,0.354,0.146c0.127,0,0.254-0.049,0.353-0.147l1.838-1.838l3.313,3.312
							c0.098,0.098,0.226,0.146,0.354,0.146s0.256-0.049,0.354-0.146c0.194-0.194,0.194-0.512,0-0.707l-3.313-3.312l15.232-15.231
							L174.542,144.04z M140.918,140.289l14.938-14.936l5.156,5.157l-1.867,1.867c-0.195,0.195-0.195,0.513,0,0.707l4.27,4.271
							l-11.293,11.293l-4.27-4.271c-0.187-0.188-0.519-0.188-0.707,0l-1.068,1.068L140.918,140.289z M153.1,157.445l-8.805-8.803
							l3.203-3.203l4.27,4.271c0.094,0.093,0.221,0.146,0.354,0.146s0.26-0.051,0.354-0.146l12-12c0.195-0.194,0.195-0.512,0-0.707
							l-4.27-4.271l1.863-1.863c0.002-0.002,0.004-0.002,0.006-0.004s0.002-0.004,0.004-0.006l1.508-1.508l8.805,8.806l-1.509,1.509
							c-0.001,0.001-0.003,0.002-0.005,0.003c-0.002,0.002-0.002,0.004-0.004,0.005l-15.935,15.933c0,0.001-0.001,0.001-0.001,0.001
							s0,0.001-0.001,0.001L153.1,157.445z"/>
						<polygon fill="#FFFFFF" points="193.6,249.021 183.475,238.896 191.328,231.044 190.621,230.337 174.206,246.752 
							174.913,247.459 182.768,239.604 192.893,249.729 191.555,251.065 192.262,251.772 195.643,248.393 194.936,247.686 						"/>
						<path fill="#FFFFFF" d="M180.624,237.46l-1.019,1.019c-0.195,0.195-0.195,0.513,0,0.707c0.098,0.098,0.226,0.146,0.354,0.146
							s0.256-0.049,0.354-0.146l2.744-2.744c0.194-0.194,0.194-0.512,0-0.707c-0.195-0.194-0.513-0.194-0.707,0l-1.019,1.019
							l-4.058-4.057l3.479-3.479c0.121-0.12,0.172-0.295,0.135-0.463c-0.037-0.166-0.158-0.302-0.318-0.36l-6.252-2.244
							c-0.18-0.065-0.385-0.021-0.522,0.117l-0.272,0.272c-0.002,0.002-0.002,0.002-0.002,0.002l-3.107,3.106
							c-0.001,0.002-0.001,0.002-0.002,0.002l-0.271,0.271c-0.137,0.137-0.182,0.34-0.117,0.521l2.242,6.257
							c0.057,0.161,0.193,0.282,0.36,0.319c0.036,0.008,0.073,0.012,0.108,0.012c0.131,0,0.26-0.051,0.353-0.145l3.482-3.482
							L180.624,237.46z M172.938,235.62l-1.869-5.216l3.209-3.207l5.211,1.871L172.938,235.62z"/>
						<path fill="#FFFFFF" d="M90.536,223.538l12.303-12.304c0.032-0.032,0.051-0.07,0.072-0.108
							c0.036-0.021,0.073-0.038,0.104-0.069l7.688-7.688l3.312,3.312c0.098,0.098,0.227,0.146,0.354,0.146s0.256-0.049,0.353-0.146
							c0.195-0.195,0.195-0.512,0-0.707l-3.312-3.312l1.513-1.513c0.195-0.195,0.195-0.512,0-0.707l-9.51-9.51
							c-0.195-0.195-0.512-0.195-0.707,0l-1.514,1.514l-5.512-5.514c-0.195-0.195-0.513-0.195-0.707,0l-27.947,27.945
							c-0.127,0.128-0.162,0.306-0.123,0.469c0.021,0.087,0.056,0.171,0.123,0.239l5.514,5.514l-2.135,2.134
							c-0.195,0.195-0.195,0.513,0,0.707l9.51,9.513c0.094,0.093,0.221,0.146,0.354,0.146s0.26-0.053,0.353-0.145l1.841-1.842
							l3.311,3.311c0.099,0.098,0.227,0.146,0.354,0.146s0.256-0.049,0.353-0.146c0.195-0.195,0.195-0.512,0-0.707l-3.311-3.311
							l7.363-7.364C90.534,223.539,90.535,223.539,90.536,223.538z M68.088,215.23l27.24-27.238l5.158,5.16l-1.867,1.867
							c-0.195,0.194-0.195,0.512,0,0.707l4.268,4.268l-5.644,5.645l-12.304,12.303c-0.002,0.002-0.002,0.004-0.004,0.006
							l-5.644,5.644l-4.269-4.268c-0.194-0.195-0.512-0.195-0.707,0l-1.068,1.067L68.088,215.23z M80.27,232.393l-8.804-8.806
							l2.135-2.134c0-0.001,0.001-0.001,0.001-0.001s0-0.001,0.001-0.001l1.067-1.067l4.268,4.269c0.195,0.195,0.513,0.195,0.707,0
							l6.002-6.002c0.002-0.002,0.002-0.004,0.004-0.006l12.3-12.299l5.997-5.998c0.195-0.195,0.195-0.512,0-0.707l-4.268-4.268
							l1.865-1.865c0.001-0.001,0.002-0.001,0.003-0.002s0.001-0.002,0.002-0.003l1.511-1.511l8.803,8.803l-9.555,9.555
							c-0.032,0.032-0.051,0.071-0.072,0.108c-0.036,0.021-0.073,0.039-0.104,0.069l-12.124,12.125
							c-0.001,0.001-0.002,0.001-0.003,0.002l-7.892,7.894c-0.001,0.001-0.003,0.002-0.004,0.003s-0.002,0.003-0.003,0.004
							L80.27,232.393z"/>
						<path fill="#FFFFFF" d="M148.741,170.247l1.911-1.911c0.093-0.094,0.146-0.221,0.146-0.354s-0.052-0.26-0.146-0.354
							l-27.377-27.377c-0.188-0.188-0.52-0.188-0.707,0l-27.377,27.377c-0.094,0.095-0.146,0.222-0.146,0.354
							s0.053,0.26,0.146,0.354l27.377,27.375c0.098,0.098,0.226,0.146,0.354,0.146s0.256-0.049,0.354-0.146l1.361-1.361l1.221,1.221
							c0.099,0.098,0.227,0.146,0.354,0.146s0.256-0.049,0.353-0.146c0.195-0.194,0.195-0.512,0-0.706l-1.221-1.221l22.69-22.689
							l1.22,1.22c0.098,0.098,0.227,0.146,0.354,0.146c0.129,0,0.256-0.049,0.354-0.146c0.195-0.195,0.195-0.512,0-0.707
							L148.741,170.247z M147.686,169.889c-0.002,0.002-0.004,0.002-0.006,0.004s-0.002,0.004-0.004,0.006l-11.084,11.083
							c-0.021-0.036-0.039-0.074-0.07-0.105l-12.895-12.895l12.873-12.872c0.039-0.039,0.064-0.085,0.088-0.131l13.004,13.004
							L147.686,169.889z M109.254,180.983l-5.937-5.936c0.047-0.024,0.094-0.05,0.133-0.089l26.45-26.451
							c0.038-0.038,0.063-0.084,0.087-0.13l5.938,5.938c-0.047,0.023-0.093,0.048-0.132,0.087l-26.451,26.449
							C109.303,180.891,109.277,180.937,109.254,180.983z M122.922,141.312l6.401,6.401c-0.046,0.023-0.092,0.049-0.13,0.087
							l-26.45,26.451c-0.039,0.039-0.064,0.086-0.088,0.133l-6.403-6.402L122.922,141.312z M122.922,194.65l-13.005-13.004
							c0.047-0.023,0.093-0.049,0.132-0.088l12.871-12.87l12.895,12.895c0.031,0.031,0.069,0.049,0.105,0.069L122.922,194.65z"/>
						<path fill="#FFFFFF" d="M125.02,176.782c-0.195-0.195-0.513-0.195-0.707,0c-0.195,0.194-0.195,0.512,0,0.707l3.276,3.276
							c0.099,0.098,0.226,0.146,0.354,0.146c0.127,0,0.256-0.049,0.353-0.146c0.195-0.195,0.195-0.512,0-0.707L125.02,176.782z"/>
						<path fill="#FFFFFF" d="M132.532,169.27c-0.195-0.194-0.513-0.194-0.707,0c-0.195,0.195-0.195,0.513,0,0.707l3.276,3.277
							c0.099,0.098,0.227,0.146,0.354,0.146s0.256-0.049,0.353-0.146c0.195-0.195,0.195-0.512,0-0.707L132.532,169.27z"/>
						
							<rect x="99.454" y="169.041" transform="matrix(0.9133 0.4072 -0.4072 0.9133 77.9426 -27.1232)" fill="#FFFFFF" width="6.47" height="0.999"/>
						
							<rect x="102.382" y="166.118" transform="matrix(0.9133 0.4073 -0.4073 0.9133 77.0182 -28.5703)" fill="#FFFFFF" width="6.469" height="1"/>
						
							<rect x="105.318" y="163.176" transform="matrix(0.9134 0.4072 -0.4072 0.9134 76.0475 -30.017)" fill="#FFFFFF" width="6.469" height="0.999"/>
						
							<rect x="114.481" y="156.727" transform="matrix(0.7076 0.7066 -0.7066 0.7076 146.3881 -34.5836)" fill="#FFFFFF" width="1.001" height="5.72"/>
						
							<rect x="126.604" y="153.799" transform="matrix(-0.1439 -0.9896 0.9896 -0.1439 -3.3095 305.7356)" fill="#FFFFFF" width="7.974" height="1.002"/>
						
							<rect x="123.233" y="157.17" transform="matrix(-0.144 -0.9896 0.9896 -0.144 -10.4837 306.2725)" fill="#FFFFFF" width="7.974" height="1.001"/>
						
							<rect x="119.87" y="160.547" transform="matrix(-0.1438 -0.9896 0.9896 -0.1438 -17.713 306.7699)" fill="#FFFFFF" width="7.975" height="1.001"/>
						
							<rect x="119.63" y="161.517" transform="matrix(-0.9747 -0.2236 0.2236 -0.9747 200.1527 354.122)" fill="#FFFFFF" width="1" height="8.419"/>
						<path fill="#FFFFFF" d="M175.753,208.17c0.128,0,0.256-0.049,0.353-0.148l0.219-0.219c0.004-0.004,0.009-0.005,0.012-0.008
							l3.716-3.717c0.195-0.195,0.195-0.512,0-0.707l-9.54-9.539c1.235-1.663,5.668-8.646-1.164-15.479
							c-0.195-0.195-0.513-0.195-0.707,0l-0.917,0.917l-0.001-0.001l-8.272,8.272l-2.981-2.981l1.428-1.429
							c0.195-0.194,0.195-0.512,0-0.707c-0.194-0.194-0.512-0.194-0.707,0l-1.78,1.781c-0.093,0.094-0.146,0.222-0.146,0.354
							s0.051,0.26,0.146,0.354l1.53,1.529l-1.572,1.572c-0.195,0.195-0.195,0.512,0,0.707c0.098,0.098,0.226,0.146,0.354,0.146
							c0.129,0,0.256-0.049,0.354-0.146l1.572-1.572l1.098,1.098l-6.987,6.986l-0.459,0.459l0,0l-0.918,0.918
							c-0.093,0.094-0.146,0.221-0.146,0.354s0.052,0.26,0.146,0.354c6.833,6.834,13.817,2.4,15.478,1.166l9.541,9.539
							C175.497,208.121,175.625,208.17,175.753,208.17z M165.568,197.439c-0.293,0.256-7.117,6.101-14.121-0.48l16.982-16.982l0,0
							l0.557-0.557c6.566,6.992,0.738,13.83,0.481,14.122c-0.173,0.199-0.165,0.497,0.022,0.683l9.5,9.5l-3.237,3.236l-9.501-9.5
							C166.064,197.275,165.768,197.266,165.568,197.439z"/>
						<path fill="#FFFFFF" d="M146.627,212.045c-0.002-0.002-0.003-0.006-0.005-0.008c-0.003-0.002-0.006-0.003-0.008-0.006
							l-1.001-1l1.972-1.971c0.093-0.094,0.146-0.221,0.146-0.354s-0.051-0.26-0.146-0.354l-7.28-7.279l1.26-1.26
							c0.194-0.195,0.194-0.513,0-0.707c-0.195-0.195-0.513-0.195-0.707,0l-1.26,1.26l-0.219-0.219
							c-0.865-0.866-2.25-0.894-3.087-0.058c-0.003,0.003-0.005,0.007-0.009,0.011l-9.131,9.131
							c-0.836,0.838-0.812,2.224,0.054,3.088l0.22,0.219l-2.639,2.639c-0.195,0.195-0.195,0.512,0,0.707
							c0.098,0.098,0.227,0.146,0.354,0.146c0.129,0,0.256-0.049,0.354-0.146l2.638-2.638l10.558,10.558
							c0.099,0.098,0.227,0.146,0.354,0.146s0.256-0.049,0.353-0.145l9.143-9.142c0.093-0.095,0.146-0.222,0.146-0.354
							s-0.053-0.26-0.146-0.354L146.627,212.045z M128.49,212.191c-0.002-0.002-0.002-0.004-0.004-0.006s-0.004-0.002-0.006-0.004
							l-0.567-0.567c-0.476-0.476-0.5-1.228-0.054-1.675l7.877-7.877c0.09,0.406,0.293,0.797,0.611,1.117l1.334,1.334
							c0.001,0.001,0.002,0.001,0.003,0.002l6.867,6.868c0.001,0,0.001,0.001,0.001,0.001s0.001,0,0.001,0.001l1.007,1.006
							l-8.435,8.436L128.49,212.191z M146.525,208.707l-1.619,1.617l-6.926-6.926l1.617-1.617L146.525,208.707z M138.672,200.855
							l0.219,0.219l-1.616,1.616l-0.218-0.218c-0.478-0.477-0.503-1.227-0.06-1.671l0.003-0.003c0,0,0-0.001,0.001-0.001
							C137.445,200.354,138.196,200.381,138.672,200.855z M139.044,222.745l-1.211-1.211l8.435-8.436l1.211,1.212L139.044,222.745z"
							/>
						<path fill="#FFFFFF" d="M132.773,246.34h-3.653l0.256-0.256c4.872-4.871-1.856-14.465-2.146-14.871
							c-0.007-0.01-0.018-0.014-0.024-0.022c-0.011-0.014-0.016-0.029-0.028-0.042c-0.021-0.021-0.046-0.029-0.068-0.045
							c-0.021-0.016-0.041-0.031-0.064-0.043c-0.041-0.021-0.083-0.032-0.127-0.04c-0.018-0.004-0.033-0.015-0.052-0.017
							c-0.007-0.001-0.013,0.003-0.019,0.003c-0.05-0.003-0.097,0.007-0.145,0.019c-0.02,0.005-0.042,0.005-0.061,0.012
							c-0.062,0.024-0.121,0.061-0.172,0.111l-0.876,0.876l-11.645-11.644c-0.214-0.201-2.124-1.941-3.718-1.255
							c-1.065,0.46-1.603,1.818-1.649,4.124h-1.248c-0.177,0-0.34,0.094-0.431,0.245l-2.273,3.823
							c-0.092,0.154-0.094,0.348-0.005,0.504s0.255,0.252,0.435,0.252l3.678-0.002h0.449c0.004,0,0.006,0.002,0.01,0.002
							l3.679-0.002c0.181,0,0.347-0.096,0.435-0.252c0.09-0.156,0.088-0.35-0.004-0.504l-2.271-3.821
							c-0.09-0.151-0.253-0.245-0.43-0.245h-0.331h-0.001h-0.691c0.039-1.788,0.405-2.927,1.047-3.205
							c0.838-0.363,2.219,0.672,2.625,1.053l11.634,11.634l-24.333,24.331c-0.052,0.052-0.088,0.112-0.112,0.177
							c-0.008,0.021-0.007,0.044-0.013,0.065c-0.01,0.044-0.02,0.088-0.018,0.133c0,0.008-0.004,0.015-0.003,0.022
							c0.002,0.023,0.016,0.044,0.021,0.066c0.008,0.035,0.016,0.069,0.031,0.103c0.017,0.034,0.038,0.063,0.062,0.093
							c0.012,0.016,0.018,0.034,0.031,0.048c0.009,0.009,0.02,0.012,0.028,0.019c0.013,0.012,0.021,0.028,0.034,0.038
							c0.298,0.213,5.57,3.91,10.277,3.91c1.52,0,2.98-0.393,4.197-1.408l-0.002,3.693c0,0.275,0.225,0.5,0.5,0.5
							c0.276,0,0.5-0.223,0.5-0.5l0.002-4.651l6.342-6.345l5.687-5.686h4.653c0.276,0,0.5-0.223,0.5-0.5
							C133.273,246.564,133.049,246.34,132.773,246.34z M111.997,227.073l-2.072,0.001c-0.003,0-0.006-0.002-0.009-0.002h-1.82
							c-0.001,0-0.002,0-0.002,0l-2.154,0.002l1.681-2.824h0.038c0.004,0,0.006,0.002,0.01,0.002l2.652-0.002L111.997,227.073z
							 M101.693,257.34l16.559-16.559l8.495-8.494c1.274,1.98,5.625,9.387,1.922,13.09l-1.109,1.109l-0.001,0.001l-5.832,5.831
							l-6.487,6.49l-0.001,0.001l-0.454,0.454C111.08,262.967,103.671,258.615,101.693,257.34z"/>
						<path fill="#FFFFFF" d="M113.227,257.654c-1.516,1.52-5.425,0.018-6.803-0.688c-0.248-0.128-0.548-0.028-0.673,0.218
							c-0.126,0.244-0.028,0.547,0.216,0.672c0.16,0.082,2.866,1.453,5.275,1.453c1.023,0,1.992-0.248,2.691-0.947
							c0.195-0.195,0.195-0.512,0-0.707S113.422,257.459,113.227,257.654z"/>
						<path fill="#FFFFFF" d="M212.197,145.211l2.086-2.085c0.195-0.194,0.195-0.512,0-0.707c-0.195-0.194-0.512-0.194-0.707,0
							l-2.438,2.437c0,0.001-0.001,0.001-0.002,0.002l-17.519,17.518c-0.001,0.001-0.001,0.002-0.002,0.003l-2.438,2.438
							c-0.195,0.195-0.195,0.513,0,0.707c0.098,0.098,0.227,0.146,0.354,0.146s0.256-0.049,0.353-0.146l2.087-2.087l9.589,9.589
							c0.099,0.098,0.227,0.146,0.354,0.146s0.256-0.049,0.353-0.146c0.195-0.195,0.195-0.512,0-0.707l-6.75-6.75l16.812-16.811
							l6.749,6.749c0.194,0.195,0.512,0.195,0.707,0c0.194-0.194,0.194-0.512,0-0.707L212.197,145.211z M196.811,164.861
							l-2.132-2.132l16.812-16.812l2.132,2.133L196.811,164.861z"/>
						<path fill="#FFFFFF" d="M203.79,147.335c0.194-0.194,0.194-0.512,0-0.707l-5.521-5.521c-0.194-0.194-0.512-0.194-0.707,0
							l-7.692,7.693c-0.195,0.195-0.195,0.512,0,0.707l5.521,5.52c0.098,0.098,0.226,0.146,0.354,0.146s0.256-0.049,0.354-0.146
							l3.492-3.492l1.156,1.156l-1.298,1.3c-0.195,0.194-0.195,0.513,0,0.707c0.098,0.097,0.226,0.146,0.354,0.146
							s0.257-0.049,0.353-0.146l3.306-3.308c0.194-0.195,0.194-0.512,0-0.707s-0.512-0.195-0.707,0l-1.3,1.301l-1.156-1.156
							L203.79,147.335z M195.744,153.966l-4.812-4.812l6.986-6.986l4.812,4.812L195.744,153.966z"/>
						<path fill="#FFFFFF" d="M192.372,174.341c-0.106-0.368-0.433-0.637-0.896-0.739l-1.5-0.33
							c-0.736-0.16-1.761,0.145-2.291,0.672l-1.719,1.719l-2.025-2.026l2.485-2.485c0.158-0.159,0.192-0.403,0.083-0.599
							c-0.123-0.219-3.044-5.366-6.734-5.877c-1.43-0.198-2.77,0.316-3.979,1.525c-0.002,0.002-0.003,0.006-0.005,0.008
							c-1.205,1.208-1.715,2.544-1.519,3.97c0.512,3.69,5.66,6.612,5.879,6.735c0.076,0.041,0.16,0.062,0.244,0.062
							c0.127,0,0.256-0.05,0.353-0.146l2.485-2.486l2.025,2.026l-1.716,1.717c-0.541,0.539-0.835,1.547-0.671,2.291l0.329,1.498
							c0.149,0.689,0.612,0.934,0.996,0.934c0.206,0,0.521-0.068,0.848-0.396l3.131-3.13l3.411,3.412l-0.857,0.857l-0.139,0.139
							c-0.093,0.094-0.146,0.222-0.146,0.354l0.002,1.97c0,0.277,0.224,0.5,0.5,0.5c0.277,0,0.5-0.224,0.5-0.5l-0.002-1.764
							l0.849-0.849l0.633,0.633c0.099,0.097,0.226,0.146,0.354,0.146c0.128,0,0.256-0.049,0.353-0.146
							c0.195-0.194,0.195-0.513,0-0.707l-0.633-0.633l0.796-0.796l1.764,0.002c0.276,0,0.5-0.223,0.5-0.498
							c0-0.276-0.224-0.5-0.498-0.502l-1.972-0.002c-0.001,0-0.001,0-0.001,0c-0.037,0-0.071,0.014-0.106,0.021
							c-0.027,0.006-0.057,0.006-0.083,0.017c-0.061,0.024-0.117,0.062-0.164,0.108l-0.941,0.941l-3.411-3.411l3.132-3.132
							C192.35,175.111,192.479,174.709,192.372,174.341z M180.318,175.848c-1.104-0.685-4.68-3.094-5.053-5.809
							c-0.156-1.117,0.252-2.143,1.24-3.132c0.001-0.001,0.001-0.003,0.003-0.004c0.988-0.986,2.007-1.392,3.127-1.238
							c2.716,0.375,5.124,3.95,5.81,5.054l-2.564,2.563c-0.002,0.002-0.002,0.004-0.004,0.006L180.318,175.848z M191.307,174.739
							l-6.969,6.969c-0.048,0.048-0.087,0.075-0.113,0.089c-0.015-0.027-0.031-0.07-0.047-0.136l-0.328-1.498
							c-0.093-0.415,0.099-1.067,0.4-1.369l4.143-4.142c0.242-0.242,0.733-0.426,1.142-0.426c0.084,0,0.161,0.008,0.228,0.022
							l1.498,0.33c0.077,0.019,0.12,0.039,0.141,0.041C191.387,174.645,191.359,174.688,191.307,174.739z"/>
						<polygon fill="#FFFFFF" points="190.62,106.338 174.205,122.752 174.912,123.459 182.767,115.604 192.892,125.729 
							191.555,127.066 192.262,127.773 195.643,124.393 194.936,123.686 193.599,125.022 183.474,114.897 191.327,107.045 						"/>
						<path fill="#FFFFFF" d="M115.59,140.521c0.276,0,0.5-0.223,0.5-0.5l0.002-4.651l6.342-6.345l5.687-5.686h4.653
							c0.276,0,0.5-0.223,0.5-0.5c0-0.275-0.225-0.5-0.5-0.5h-3.653l0.256-0.256c4.872-4.871-1.856-14.465-2.146-14.871
							c-0.007-0.01-0.018-0.014-0.024-0.022c-0.011-0.014-0.016-0.029-0.028-0.042c-0.021-0.021-0.046-0.029-0.068-0.045
							c-0.021-0.016-0.041-0.031-0.064-0.043c-0.041-0.021-0.083-0.032-0.127-0.04c-0.018-0.004-0.033-0.015-0.052-0.017
							c-0.007,0-0.013,0.003-0.019,0.003c-0.053-0.003-0.104,0.007-0.154,0.021c-0.016,0.004-0.033,0.004-0.05,0.01
							c-0.062,0.024-0.122,0.061-0.173,0.111l-0.876,0.876L113.95,96.381c-0.214-0.201-2.124-1.943-3.718-1.255
							c-1.065,0.46-1.603,1.818-1.649,4.124h-1.248c-0.177,0-0.34,0.094-0.431,0.245l-2.273,3.823
							c-0.092,0.154-0.094,0.348-0.005,0.504s0.255,0.252,0.435,0.252l3.678-0.002h0.449c0.004,0,0.006,0.002,0.01,0.002
							l3.679-0.002c0.181,0,0.347-0.096,0.435-0.252c0.09-0.156,0.088-0.35-0.004-0.504l-2.271-3.821
							c-0.09-0.151-0.253-0.245-0.43-0.245h-0.331h-0.001h-0.691c0.039-1.788,0.405-2.927,1.047-3.205
							c0.838-0.361,2.219,0.672,2.625,1.053l11.634,11.634l-24.333,24.331c-0.052,0.052-0.088,0.112-0.112,0.177
							c-0.008,0.021-0.007,0.044-0.013,0.065c-0.01,0.044-0.02,0.088-0.018,0.133c0,0.008-0.004,0.015-0.003,0.022
							c0.002,0.023,0.016,0.044,0.021,0.066c0.008,0.035,0.016,0.069,0.031,0.103c0.017,0.034,0.038,0.063,0.062,0.093
							c0.012,0.016,0.018,0.034,0.031,0.048c0.009,0.009,0.02,0.012,0.028,0.019c0.013,0.012,0.021,0.028,0.034,0.038
							c0.298,0.213,5.57,3.91,10.277,3.91c1.52,0,2.98-0.393,4.197-1.408l-0.002,3.693
							C115.09,140.297,115.314,140.521,115.59,140.521z M111.997,103.073l-2.072,0.001c-0.003,0-0.006-0.002-0.009-0.002h-1.82
							c-0.001,0-0.002,0-0.002,0l-2.154,0.002l1.681-2.824h0.038c0.004,0,0.006,0.002,0.01,0.002l2.652-0.002L111.997,103.073z
							 M101.693,133.34l16.559-16.559l8.495-8.494c1.274,1.98,5.625,9.387,1.922,13.09l-1.109,1.109l-0.001,0.001l-5.832,5.831
							l-6.487,6.49l-0.001,0.001l-0.454,0.454C111.08,138.967,103.671,134.614,101.693,133.34z"/>
						<path fill="#FFFFFF" d="M113.227,133.654c-1.516,1.52-5.425,0.019-6.803-0.688c-0.248-0.127-0.548-0.028-0.673,0.218
							c-0.126,0.244-0.028,0.547,0.216,0.672c0.16,0.082,2.866,1.453,5.275,1.453c1.023,0,1.992-0.248,2.691-0.947
							c0.195-0.195,0.195-0.512,0-0.707S113.422,133.459,113.227,133.654z"/>
						<path fill="#FFFFFF" d="M21.368,22.155l-2.134,2.134c-0.093,0.094-0.146,0.221-0.146,0.354c0,0.133,0.052,0.26,0.146,0.354
							l9.511,9.51c0.098,0.097,0.226,0.146,0.354,0.146s0.255-0.049,0.353-0.147l1.838-1.838l3.312,3.312
							c0.098,0.097,0.226,0.146,0.354,0.146s0.256-0.048,0.353-0.146c0.195-0.195,0.195-0.512,0-0.707l-3.312-3.312L47.23,16.729
							l3.312,3.311c0.098,0.097,0.226,0.146,0.354,0.146c0.127,0,0.255-0.049,0.353-0.146c0.195-0.195,0.195-0.512,0-0.707
							l-3.312-3.311l1.513-1.513c0.195-0.195,0.195-0.512,0-0.707l-9.511-9.512c-0.187-0.188-0.519-0.188-0.707,0L37.72,5.804
							l-5.511-5.511c-0.195-0.195-0.512-0.195-0.707,0L15.857,15.936c-0.097,0.098-0.146,0.226-0.146,0.354s0.048,0.257,0.146,0.354
							L21.368,22.155z M39.586,5.352l8.804,8.805l-1.509,1.509c-0.001,0.001-0.003,0.001-0.004,0.002s-0.001,0.003-0.002,0.004
							L29.099,33.446l-8.804-8.803l3.203-3.203l4.269,4.27c0.094,0.093,0.221,0.146,0.354,0.146c0.133,0,0.26-0.052,0.354-0.146
							l12-12c0.195-0.195,0.195-0.512,0-0.707l-4.27-4.27l1.865-1.865c0.001-0.001,0.003-0.001,0.004-0.003s0.001-0.003,0.003-0.004
							L39.586,5.352z M35.144,8.379c-0.195,0.195-0.195,0.512,0,0.707l4.27,4.27L28.121,24.649l-4.269-4.27
							c-0.187-0.188-0.519-0.188-0.707,0l-1.069,1.069l-5.159-5.158L31.855,1.354l5.156,5.157L35.144,8.379z"/>
						<path fill="#FFFFFF" d="M56.887,104.755c-0.038-0.166-0.158-0.302-0.319-0.36l-6.252-2.244
							c-0.18-0.065-0.384-0.021-0.522,0.117l-0.273,0.272c-0.001,0.002-0.001,0.002-0.002,0.002l-3.107,3.106
							c-0.001,0.002-0.001,0.002-0.002,0.002l-0.271,0.271c-0.137,0.137-0.182,0.339-0.117,0.521l2.241,6.257
							c0.057,0.161,0.194,0.282,0.361,0.319c0.036,0.008,0.073,0.012,0.109,0.012c0.131,0,0.259-0.051,0.352-0.146l3.482-3.482
							l4.057,4.057l-1.019,1.019c-0.195,0.195-0.195,0.513,0,0.707c0.098,0.098,0.226,0.146,0.354,0.146s0.256-0.049,0.353-0.146
							l2.744-2.744c0.195-0.194,0.195-0.512,0-0.707c-0.195-0.194-0.512-0.194-0.707,0l-1.018,1.019l-4.057-4.057l3.478-3.479
							C56.873,105.098,56.924,104.923,56.887,104.755z M48.937,111.62l-1.868-5.216l3.209-3.207l5.211,1.871L48.937,111.62z"/>
						<path fill="#FFFFFF" d="M-21.089,87.127c0.036-0.021,0.074-0.039,0.105-0.07l7.688-7.688l3.312,3.312
							c0.098,0.098,0.226,0.146,0.354,0.146s0.256-0.049,0.353-0.146c0.195-0.195,0.195-0.512,0-0.707l-3.312-3.312l1.513-1.513
							c0.195-0.195,0.195-0.513,0-0.707l-9.51-9.51c-0.195-0.195-0.512-0.195-0.707,0l-1.513,1.514l-5.513-5.514
							c-0.195-0.195-0.512-0.195-0.707,0l-27.946,27.945c-0.119,0.119-0.156,0.282-0.13,0.437c0.017,0.099,0.054,0.194,0.13,0.271
							l5.513,5.514l-2.134,2.134c-0.195,0.195-0.195,0.513,0,0.707l9.51,9.513c0.094,0.093,0.221,0.146,0.354,0.146
							c0.132,0,0.259-0.053,0.352-0.145l1.841-1.842l3.311,3.311c0.098,0.098,0.226,0.146,0.354,0.146s0.256-0.049,0.353-0.146
							c0.195-0.195,0.195-0.512,0-0.707l-3.311-3.311l7.363-7.364c0.001-0.001,0.002-0.001,0.003-0.002l12.303-12.304
							C-21.129,87.202-21.111,87.164-21.089,87.127z M-55.912,91.23l27.239-27.238l5.159,5.16l-1.868,1.867
							c-0.195,0.194-0.195,0.512,0,0.707l4.268,4.268l-5.644,5.645L-39.06,93.941c-0.001,0.002-0.002,0.004-0.004,0.006
							l-5.644,5.644l-4.268-4.268c-0.195-0.195-0.512-0.195-0.707,0l-1.068,1.068L-55.912,91.23z M-33.992,98.652
							c-0.001,0.001-0.002,0.001-0.003,0.002l-7.892,7.894c-0.001,0.001-0.003,0.002-0.004,0.003s-0.001,0.003-0.003,0.004
							l-1.837,1.838l-8.803-8.806l3.204-3.203l4.268,4.269c0.195,0.195,0.512,0.195,0.707,0l6.002-6.002
							c0.001-0.002,0.002-0.004,0.004-0.006l12.299-12.299l5.997-5.998c0.195-0.195,0.195-0.512,0-0.707l-4.268-4.268l1.864-1.864
							c0.001-0.001,0.003-0.002,0.004-0.003s0.001-0.003,0.003-0.004l1.509-1.51l8.803,8.803l-9.555,9.555
							c-0.032,0.032-0.051,0.071-0.073,0.109c-0.035,0.021-0.073,0.038-0.104,0.068L-33.992,98.652z"/>
						<path fill="#FFFFFF" d="M-0.725,16.251c-0.187-0.188-0.519-0.188-0.707,0l-27.377,27.377
							c-0.093,0.094-0.146,0.221-0.146,0.354c0,0.133,0.052,0.26,0.146,0.354l27.377,27.375c0.098,0.098,0.226,0.146,0.354,0.146
							s0.256-0.049,0.353-0.146l1.361-1.361l1.222,1.221c0.098,0.098,0.226,0.146,0.354,0.146s0.256-0.049,0.353-0.146
							c0.195-0.194,0.195-0.512,0-0.706l-1.222-1.222l22.691-22.689l1.22,1.221c0.098,0.097,0.226,0.146,0.354,0.146
							s0.256-0.049,0.354-0.147c0.195-0.195,0.195-0.512,0-0.707l-1.221-1.221l1.911-1.91c0.093-0.094,0.146-0.221,0.146-0.354
							c0-0.133-0.052-0.26-0.146-0.354L-0.725,16.251z M-1.427,43.623c-0.002,0.002-0.004,0.002-0.006,0.004
							s-0.002,0.004-0.004,0.006l-13.221,13.22c-0.039,0.039-0.064,0.085-0.087,0.131l-5.938-5.937
							c0.047-0.023,0.094-0.049,0.133-0.088L5.9,24.509c0.039-0.039,0.063-0.084,0.087-0.131l5.938,5.938
							c-0.046,0.023-0.093,0.048-0.132,0.087L-1.427,43.623z M-1.078,17.313l6.402,6.402c-0.046,0.023-0.092,0.048-0.131,0.087
							l-26.45,26.451c-0.039,0.039-0.064,0.085-0.088,0.133l-6.403-6.403L-1.078,17.313z M-1.078,70.65l-13.004-13.003
							c0.047-0.024,0.093-0.049,0.132-0.088l12.872-12.871l12.893,12.895c0.031,0.031,0.07,0.049,0.106,0.07L-1.078,70.65z
							 M23.682,45.893C23.682,45.893,23.682,45.893,23.682,45.893c-0.001,0.001-0.001,0.001-0.001,0.001L12.592,56.982
							c-0.021-0.037-0.04-0.076-0.071-0.107L-0.372,43.981L12.5,31.111c0.039-0.039,0.064-0.085,0.088-0.132l13.004,13.004
							L23.682,45.893z"/>
						<path fill="#FFFFFF" d="M1.019,52.783c-0.195-0.195-0.512-0.195-0.707,0c-0.195,0.195-0.195,0.512,0,0.707l3.277,3.277
							c0.098,0.097,0.226,0.146,0.354,0.146s0.256-0.049,0.353-0.146c0.195-0.195,0.195-0.512,0-0.707L1.019,52.783z"/>
						<path fill="#FFFFFF" d="M8.532,45.271c-0.195-0.195-0.512-0.195-0.707,0c-0.195,0.195-0.195,0.512,0,0.707l3.277,3.277
							c0.098,0.097,0.226,0.146,0.354,0.146s0.256-0.049,0.353-0.146c0.195-0.195,0.195-0.512,0-0.707L8.532,45.271z"/>
						
							<rect x="-24.547" y="45.048" transform="matrix(0.9134 0.4072 -0.4072 0.9134 16.6989 12.6241)" fill="#FFFFFF" width="6.47" height="1"/>
						
							<rect x="-21.617" y="42.117" transform="matrix(0.9133 0.4073 -0.4073 0.9133 15.7635 11.1817)" fill="#FFFFFF" width="6.469" height="1"/>
						
							<rect x="-18.682" y="39.182" transform="matrix(0.9134 0.4072 -0.4072 0.9134 14.8189 9.728)" fill="#FFFFFF" width="6.47" height="1"/>
						
							<rect x="-9.52" y="32.729" transform="matrix(0.7069 0.7074 -0.7074 0.7069 22.5301 16.8127)" fill="#FFFFFF" width="1" height="5.721"/>
						
							<rect x="2.606" y="29.799" transform="matrix(-0.1439 -0.9896 0.9896 -0.1439 -22.442 41.1829)" fill="#FFFFFF" width="7.974" height="1.001"/>
						
							<rect x="-0.765" y="33.17" transform="matrix(-0.1439 -0.9896 0.9896 -0.1439 -29.6342 41.7031)" fill="#FFFFFF" width="7.974" height="1.001"/>
						
							<rect x="-4.137" y="36.544" transform="matrix(-0.1438 -0.9896 0.9896 -0.1438 -36.8305 42.2236)" fill="#FFFFFF" width="7.975" height="1.001"/>
						
							<rect x="-4.38" y="37.519" transform="matrix(-0.9747 -0.2236 0.2236 -0.9747 -16.9945 81.5332)" fill="#FFFFFF" width="1" height="8.419"/>
						<path fill="#FFFFFF" d="M26.234,72.965c0,0.133,0.052,0.26,0.146,0.354c6.833,6.834,13.817,2.4,15.478,1.166l9.541,9.539
							c0.098,0.098,0.226,0.146,0.354,0.146s0.256-0.049,0.353-0.146l0.226-0.226c0.001-0.001,0.003-0.002,0.004-0.003l3.716-3.717
							c0.195-0.195,0.195-0.512,0-0.707l-9.54-9.539c1.235-1.662,5.667-8.645-1.165-15.478c-0.195-0.195-0.512-0.195-0.707,0
							l-0.917,0.917l0,0l-8.273,8.272l-2.981-2.981l1.428-1.428c0.195-0.195,0.195-0.512,0-0.707c-0.195-0.195-0.512-0.195-0.707,0
							l-1.781,1.781c-0.093,0.094-0.146,0.222-0.146,0.354c0,0.133,0.052,0.26,0.146,0.354l1.53,1.529l-1.572,1.571
							c-0.195,0.195-0.195,0.512,0,0.707c0.098,0.098,0.226,0.146,0.354,0.146c0.128,0,0.256-0.049,0.353-0.145l1.572-1.573
							l1.097,1.097l-5.61,5.61l-1.835,1.835l0,0l-0.918,0.918C26.287,72.705,26.234,72.832,26.234,72.965z M44.987,55.42
							c6.566,6.993,0.737,13.83,0.481,14.122c-0.173,0.199-0.165,0.497,0.022,0.683l9.5,9.5l-1.618,1.619l-1.619,1.618l-9.501-9.5
							c-0.187-0.185-0.486-0.194-0.684-0.021c-0.292,0.256-7.117,6.1-14.121-0.481L44.43,55.977l0,0L44.987,55.42z"/>
						<path fill="#FFFFFF" d="M15.044,99.951c0.128,0,0.256-0.049,0.353-0.145l9.142-9.142c0.093-0.095,0.146-0.222,0.146-0.354
							s-0.052-0.26-0.146-0.354l-1.912-1.912c-0.002-0.002-0.003-0.006-0.005-0.008s-0.006-0.003-0.008-0.006l-0.999-0.999
							l1.971-1.97c0.093-0.095,0.146-0.222,0.146-0.354s-0.052-0.26-0.146-0.354l-7.281-7.28l1.259-1.259
							c0.195-0.195,0.195-0.513,0-0.707c-0.195-0.195-0.512-0.195-0.707,0l-1.259,1.259l-0.218-0.218
							c-0.866-0.865-2.251-0.893-3.087-0.057l-9.141,9.141c-0.836,0.838-0.811,2.223,0.054,3.088l0.219,0.219l-2.638,2.639
							c-0.195,0.195-0.195,0.512,0,0.707c0.098,0.098,0.226,0.146,0.354,0.146s0.255-0.049,0.353-0.146l2.638-2.639L14.69,99.805
							C14.788,99.902,14.916,99.951,15.044,99.951z M15.044,98.744l-1.21-1.21l8.434-8.436l1.211,1.212L15.044,98.744z
							 M4.487,88.188c0-0.001,0-0.002-0.001-0.002s-0.001-0.001-0.001-0.001l-0.571-0.571c-0.476-0.477-0.5-1.228-0.054-1.674
							l7.878-7.878c0.09,0.407,0.293,0.799,0.612,1.118l0.568,0.568c0.001,0.001,0.001,0.003,0.003,0.004
							c0.001,0.001,0.002,0.001,0.003,0.002l7.63,7.631c0,0,0,0,0,0h0l1.007,1.007l-8.434,8.436L4.487,88.188z M22.525,84.707
							l-1.618,1.617l-6.516-6.516c0-0.001,0-0.002-0.001-0.002l-0.409-0.409l1.617-1.616L22.525,84.707z M14.672,76.855l0.219,0.219
							l-1.617,1.617l-0.217-0.217c-0.478-0.479-0.503-1.23-0.057-1.675C13.445,76.354,14.195,76.38,14.672,76.855z"/>
						<path fill="#FFFFFF" d="M69.618,38.375c-0.001,0.001-0.002,0.003-0.003,0.004l-2.438,2.438c-0.195,0.195-0.195,0.512,0,0.707
							c0.098,0.097,0.227,0.146,0.354,0.146s0.256-0.048,0.354-0.146l2.086-2.086l9.588,9.588c0.099,0.097,0.227,0.146,0.354,0.146
							s0.256-0.048,0.354-0.146c0.194-0.195,0.194-0.512,0-0.707l-6.75-6.75l16.812-16.811l6.748,6.749
							c0.194,0.195,0.512,0.195,0.707,0c0.194-0.195,0.194-0.512,0-0.707l-9.588-9.588l2.085-2.085c0.195-0.195,0.195-0.512,0-0.707
							s-0.512-0.195-0.707,0l-2.436,2.436c-0.001,0.001-0.003,0.001-0.004,0.002L69.618,38.375z M89.624,24.051L72.812,40.861
							l-2.132-2.131l16.811-16.812L89.624,24.051z"/>
						<path fill="#FFFFFF" d="M65.87,25.508l5.521,5.52c0.098,0.097,0.226,0.146,0.354,0.146s0.256-0.049,0.354-0.146l3.491-3.492
							l1.157,1.156l-1.298,1.299c-0.195,0.195-0.195,0.512,0,0.707c0.098,0.097,0.226,0.146,0.354,0.146s0.257-0.049,0.353-0.146
							l1.65-1.651c0,0,0.001-0.001,0.002-0.001s0.001-0.001,0.001-0.002l1.652-1.653c0.194-0.195,0.194-0.512,0-0.707
							s-0.512-0.195-0.707,0l-1.3,1.301l-1.157-1.156l3.494-3.494c0.194-0.195,0.194-0.512,0-0.707l-5.521-5.52
							c-0.194-0.195-0.512-0.195-0.707,0l-7.692,7.693C65.675,24.996,65.675,25.313,65.87,25.508z M73.918,18.169l4.812,4.812
							l-6.986,6.986l-4.812-4.812L73.918,18.169z"/>
						<path fill="#FFFFFF" d="M62.427,47.149c0.158-0.159,0.192-0.403,0.083-0.598c-0.123-0.219-3.044-5.367-6.735-5.877
							c-1.43-0.194-2.769,0.317-3.978,1.526c-0.002,0.002-0.003,0.005-0.005,0.008c-1.205,1.207-1.714,2.543-1.518,3.969
							c0.511,3.691,5.659,6.612,5.878,6.735c0.076,0.042,0.16,0.063,0.244,0.063c0.128,0,0.256-0.05,0.353-0.147l2.486-2.486
							l2.026,2.026l-1.717,1.717c-0.541,0.54-0.835,1.547-0.671,2.292l0.329,1.497c0.15,0.689,0.613,0.935,0.996,0.935
							c0.206,0,0.521-0.068,0.848-0.395l3.131-3.13l3.411,3.412l-0.996,0.996c-0.093,0.094-0.146,0.221-0.146,0.354l0.002,1.97
							c0,0.277,0.224,0.5,0.5,0.5c0.277,0,0.5-0.224,0.5-0.5l-0.002-1.763l0.85-0.85l0.632,0.633
							c0.099,0.097,0.226,0.146,0.354,0.146c0.128,0,0.256-0.049,0.353-0.146c0.195-0.195,0.195-0.512,0-0.707l-0.632-0.632
							l0.795-0.795l1.764,0.002c0.276,0,0.5-0.224,0.5-0.5c0-0.276-0.224-0.5-0.498-0.5l-1.967-0.002
							c-0.13-0.001-0.26,0.046-0.359,0.145l-0.941,0.942l-3.412-3.411l3.133-3.132c0.334-0.333,0.463-0.736,0.356-1.104
							c-0.106-0.368-0.433-0.638-0.896-0.74l-1.5-0.331c-0.736-0.16-1.762,0.144-2.291,0.672l-1.718,1.718l-2.026-2.026
							L62.427,47.149z M64.393,50.652c0.242-0.242,0.733-0.425,1.142-0.425c0.084,0,0.161,0.007,0.228,0.022l1.498,0.33
							c0.077,0.017,0.12,0.039,0.141,0.041c-0.014,0.026-0.041,0.068-0.094,0.12l-6.969,6.968c-0.048,0.048-0.087,0.075-0.113,0.089
							c-0.015-0.026-0.032-0.069-0.047-0.135l-0.329-1.499c-0.092-0.415,0.099-1.068,0.401-1.369L64.393,50.652z M56.318,51.846
							c-1.104-0.684-4.679-3.093-5.053-5.808c-0.155-1.117,0.252-2.141,1.241-3.131c0.001-0.001,0.001-0.003,0.002-0.004
							c0.989-0.987,2.01-1.394,3.128-1.239c2.715,0.375,5.124,3.95,5.809,5.054l-2.564,2.564c-0.001,0.001-0.001,0.002-0.002,0.003
							L56.318,51.846z"/>
						<path fill="#FFFFFF" d="M-54.382,38.375c-0.001,0.002-0.002,0.004-0.004,0.006l-2.436,2.436c-0.195,0.195-0.195,0.512,0,0.707
							c0.098,0.097,0.226,0.146,0.354,0.146c0.128,0,0.256-0.048,0.353-0.146l2.087-2.087l9.589,9.589
							c0.098,0.097,0.226,0.146,0.354,0.146s0.256-0.048,0.353-0.147c0.195-0.195,0.195-0.512,0-0.707l-6.749-6.749l16.812-16.812
							l6.749,6.75c0.195,0.195,0.512,0.195,0.707,0c0.195-0.195,0.195-0.512,0-0.707l-9.588-9.589l2.085-2.085
							c0.195-0.195,0.195-0.512,0-0.707c-0.195-0.195-0.512-0.195-0.707,0l-2.436,2.436c-0.001,0.001-0.002,0.001-0.003,0.002
							L-54.382,38.375z M-34.376,24.051l-16.812,16.811l-2.132-2.132l16.812-16.812L-34.376,24.051z"/>
						<path fill="#FFFFFF" d="M-52.61,31.028c0.098,0.097,0.226,0.146,0.354,0.146s0.256-0.049,0.353-0.146l3.492-3.492l1.157,1.157
							l-1.298,1.299c-0.195,0.195-0.195,0.512,0,0.707c0.098,0.097,0.226,0.146,0.354,0.146c0.128,0,0.256-0.049,0.353-0.146
							l3.305-3.307c0.195-0.195,0.195-0.512,0-0.707s-0.512-0.195-0.707,0l-1.3,1.301l-1.156-1.157l3.494-3.494
							c0.195-0.195,0.195-0.512,0-0.707l-5.52-5.52c-0.195-0.195-0.512-0.195-0.707,0l-7.693,7.693
							c-0.195,0.195-0.195,0.512,0,0.707L-52.61,31.028z M-50.082,18.169l4.812,4.812l-6.986,6.986l-4.812-4.812L-50.082,18.169z"/>
						<polygon fill="#FFFFFF" points="58.767,-8.393 68.892,1.731 67.555,3.068 68.262,3.775 71.643,0.395 70.936,-0.312 
							69.599,1.024 59.474,-9.1 67.327,-16.953 66.62,-17.66 50.206,-1.246 50.913,-0.539 						"/>
						<path fill="#FFFFFF" d="M-23.588,9.439c0,0.007-0.003,0.013-0.003,0.02c0.001,0.021,0.014,0.039,0.018,0.059
							c0.008,0.04,0.018,0.079,0.036,0.116c0.014,0.029,0.033,0.054,0.053,0.08c0.014,0.019,0.021,0.041,0.039,0.058
							c0.01,0.01,0.024,0.014,0.035,0.023s0.017,0.023,0.028,0.031c0.298,0.213,5.571,3.911,10.277,3.911
							c1.521,0,2.982-0.393,4.197-1.409l-0.001,3.695c0,0.276,0.224,0.5,0.5,0.5c0.276,0,0.5-0.224,0.5-0.5l0.002-4.654l6.339-6.341
							c0.001-0.001,0.002-0.001,0.003-0.002L4.121-0.66h4.652c0.277,0,0.5-0.224,0.5-0.5c0-0.276-0.224-0.5-0.5-0.5H5.121
							l0.256-0.256c4.872-4.872-1.856-14.466-2.145-14.872c-0.009-0.013-0.023-0.019-0.034-0.03
							c-0.008-0.01-0.012-0.023-0.021-0.033c-0.016-0.016-0.036-0.022-0.054-0.036c-0.028-0.021-0.054-0.042-0.085-0.057
							c-0.035-0.017-0.07-0.025-0.107-0.033c-0.022-0.005-0.042-0.018-0.064-0.02c-0.008-0.001-0.015,0.003-0.023,0.003
							c-0.04-0.001-0.079,0.007-0.118,0.015c-0.03,0.006-0.062,0.006-0.089,0.018C2.577-16.937,2.52-16.9,2.47-16.851L-23.446,9.064
							c-0.051,0.051-0.087,0.11-0.111,0.173c-0.009,0.022-0.008,0.045-0.013,0.068C-23.581,9.35-23.59,9.394-23.588,9.439z
							 M4.67-2.623L3.563-1.517C3.561-1.514,3.558-1.512,3.556-1.509l-5.828,5.826c-0.001,0.001-0.002,0.001-0.003,0.002
							l-6.943,6.945c-3.704,3.704-11.112-0.647-13.091-1.923L2.748-15.713C4.023-13.734,8.373-6.326,4.67-2.623z"/>
						<path fill="#FFFFFF" d="M-10.773,9.655c-1.516,1.519-5.426,0.018-6.803-0.689c-0.247-0.126-0.548-0.029-0.673,0.217
							c-0.126,0.246-0.029,0.547,0.216,0.673c0.16,0.082,2.866,1.452,5.275,1.452c1.024,0,1.993-0.248,2.692-0.946
							c0.195-0.195,0.195-0.512,0-0.707C-10.261,9.46-10.578,9.46-10.773,9.655z"/>
						<path fill="#FFFFFF" d="M50.542,144.04c0.098,0.097,0.226,0.146,0.354,0.146c0.127,0,0.255-0.049,0.353-0.146
							c0.195-0.194,0.195-0.513,0-0.707l-3.312-3.312l1.513-1.513c0.195-0.194,0.195-0.512,0-0.707l-9.511-9.512
							c-0.187-0.188-0.519-0.188-0.707,0l-1.513,1.513l-5.508-5.508c-0.001-0.001-0.001-0.002-0.002-0.003
							c-0.195-0.194-0.512-0.194-0.707,0l-15.645,15.644c-0.097,0.098-0.146,0.227-0.146,0.354c0,0.129,0.048,0.257,0.146,0.354
							l5.511,5.512l-2.134,2.134c-0.093,0.094-0.146,0.221-0.146,0.354c0,0.133,0.052,0.26,0.146,0.354l9.511,9.51
							c0.098,0.098,0.226,0.146,0.354,0.146s0.255-0.049,0.353-0.147l1.838-1.838l3.312,3.312c0.098,0.098,0.226,0.146,0.354,0.146
							s0.256-0.049,0.353-0.146c0.195-0.194,0.195-0.512,0-0.707l-3.312-3.312l15.232-15.231L50.542,144.04z M16.917,140.289
							l14.938-14.936l5.156,5.157l-1.868,1.867c-0.195,0.195-0.195,0.513,0,0.707l4.27,4.271l-11.293,11.293l-4.269-4.271
							c-0.187-0.188-0.519-0.188-0.707,0l-1.069,1.068L16.917,140.289z M29.099,157.445l-8.804-8.803l3.203-3.203l4.269,4.271
							c0.094,0.093,0.221,0.146,0.354,0.146c0.133,0,0.26-0.051,0.354-0.146l12-12c0.195-0.194,0.195-0.512,0-0.707l-4.27-4.271
							l1.863-1.863c0.002-0.002,0.004-0.002,0.006-0.004s0.002-0.004,0.004-0.006l1.508-1.508l8.804,8.806l-1.509,1.509
							c-0.001,0.002-0.003,0.002-0.004,0.003s-0.001,0.003-0.002,0.004L29.099,157.445z"/>
						<polygon fill="#FFFFFF" points="69.601,249.022 59.476,238.897 67.328,231.045 66.621,230.338 50.207,246.752 50.914,247.459 
							58.769,239.604 68.894,249.729 67.557,251.066 68.264,251.773 71.645,248.393 70.938,247.686 						"/>
						<path fill="#FFFFFF" d="M56.624,237.46l-1.019,1.019c-0.195,0.195-0.195,0.513,0,0.707c0.098,0.098,0.226,0.146,0.354,0.146
							s0.256-0.049,0.353-0.146l2.744-2.744c0.195-0.194,0.195-0.512,0-0.707c-0.195-0.194-0.512-0.194-0.707,0l-1.018,1.019
							l-4.057-4.057l3.478-3.479c0.121-0.12,0.172-0.295,0.135-0.463c-0.038-0.166-0.158-0.302-0.319-0.36l-6.252-2.244
							c-0.18-0.065-0.384-0.021-0.522,0.117l-0.273,0.272c-0.001,0.002-0.001,0.002-0.002,0.002l-3.107,3.106
							c-0.001,0.002-0.001,0.002-0.002,0.002l-0.271,0.271c-0.137,0.137-0.182,0.34-0.117,0.521l2.241,6.257
							c0.057,0.161,0.194,0.282,0.361,0.319c0.036,0.008,0.073,0.012,0.109,0.012c0.131,0,0.259-0.051,0.352-0.145l3.482-3.482
							L56.624,237.46z M48.937,235.62l-1.868-5.216l3.209-3.207l5.211,1.871L48.937,235.62z"/>
						<path fill="#FFFFFF" d="M-33.464,223.538l12.303-12.304c0.032-0.032,0.05-0.07,0.072-0.107
							c0.036-0.021,0.074-0.039,0.105-0.07l7.688-7.688l3.312,3.312c0.098,0.098,0.226,0.146,0.354,0.146s0.256-0.049,0.353-0.146
							c0.195-0.195,0.195-0.512,0-0.707l-3.312-3.312l1.513-1.513c0.195-0.195,0.195-0.512,0-0.707l-9.51-9.51
							c-0.195-0.195-0.512-0.195-0.707,0l-1.513,1.514l-5.513-5.514c-0.195-0.195-0.512-0.195-0.707,0l-27.946,27.945
							c-0.119,0.119-0.156,0.282-0.13,0.437c0.017,0.099,0.054,0.194,0.13,0.271l5.513,5.514l-2.134,2.134
							c-0.195,0.195-0.195,0.513,0,0.707l9.51,9.513c0.094,0.093,0.221,0.146,0.354,0.146c0.132,0,0.259-0.053,0.352-0.145
							l1.841-1.842l3.311,3.311c0.098,0.098,0.226,0.146,0.354,0.146s0.256-0.049,0.353-0.146c0.195-0.195,0.195-0.512,0-0.707
							l-3.311-3.311l7.363-7.364C-33.466,223.539-33.465,223.539-33.464,223.538z M-55.912,215.23l27.239-27.238l5.159,5.16
							l-1.868,1.867c-0.195,0.194-0.195,0.512,0,0.707l4.268,4.268l-5.644,5.645l-12.303,12.303
							c-0.001,0.002-0.002,0.004-0.004,0.006l-5.644,5.644l-4.268-4.268c-0.195-0.195-0.512-0.195-0.707,0l-1.068,1.068
							L-55.912,215.23z M-43.731,232.393l-8.803-8.806l3.204-3.203l4.268,4.269c0.195,0.195,0.512,0.195,0.707,0l6.002-6.002
							c0.001-0.002,0.002-0.004,0.004-0.006l12.299-12.299l5.997-5.998c0.195-0.195,0.195-0.512,0-0.707l-4.268-4.268l1.864-1.864
							c0.001-0.001,0.003-0.002,0.004-0.003s0.001-0.003,0.003-0.004l1.509-1.51l8.803,8.803l-9.555,9.555
							c-0.032,0.032-0.051,0.071-0.073,0.109c-0.035,0.021-0.073,0.038-0.104,0.068l-12.124,12.125
							c-0.001,0.001-0.002,0.001-0.003,0.002l-7.892,7.894c-0.001,0.001-0.003,0.002-0.004,0.003s-0.001,0.003-0.003,0.004
							L-43.731,232.393z"/>
						<path fill="#FFFFFF" d="M24.741,170.246l1.911-1.91c0.093-0.094,0.146-0.221,0.146-0.354s-0.052-0.26-0.146-0.354
							l-27.377-27.377c-0.187-0.188-0.519-0.188-0.707,0l-27.377,27.377c-0.093,0.095-0.146,0.222-0.146,0.354
							s0.052,0.26,0.146,0.354l27.377,27.375c0.098,0.098,0.226,0.146,0.354,0.146s0.256-0.049,0.353-0.146l1.361-1.361l1.222,1.221
							c0.098,0.098,0.226,0.146,0.354,0.146s0.256-0.049,0.353-0.146c0.195-0.194,0.195-0.512,0-0.706l-1.222-1.222l22.691-22.689
							l1.22,1.221c0.098,0.098,0.226,0.146,0.354,0.146s0.256-0.049,0.353-0.146c0.195-0.195,0.195-0.512,0-0.707L24.741,170.246z
							 M23.684,169.89c-0.001,0.002-0.003,0.002-0.004,0.003s-0.001,0.003-0.002,0.004l-11.086,11.086
							c-0.021-0.037-0.039-0.075-0.07-0.106l-12.894-12.895L12.5,155.109c0.039-0.039,0.064-0.085,0.087-0.132l13.004,13.005
							L23.684,169.89z M-14.746,180.983l-5.937-5.937c0.047-0.023,0.094-0.049,0.133-0.088L5.9,148.508
							c0.039-0.038,0.063-0.084,0.087-0.131l5.938,5.938c-0.047,0.023-0.093,0.048-0.132,0.087l-26.451,26.449
							C-14.697,180.891-14.722,180.938-14.746,180.983z M-1.078,141.312l6.401,6.401c-0.046,0.023-0.092,0.049-0.13,0.087
							l-26.45,26.451c-0.039,0.039-0.065,0.086-0.088,0.133l-6.403-6.402L-1.078,141.312z M-1.078,194.65l-13.005-13.004
							c0.047-0.023,0.093-0.049,0.132-0.088l12.871-12.87l12.894,12.895c0.032,0.031,0.07,0.049,0.106,0.07L-1.078,194.65z"/>
						<path fill="#FFFFFF" d="M1.019,176.782c-0.195-0.195-0.512-0.195-0.707,0c-0.195,0.194-0.195,0.512,0,0.707l3.277,3.276
							c0.098,0.098,0.226,0.146,0.354,0.146s0.256-0.049,0.353-0.146c0.195-0.195,0.195-0.512,0-0.707L1.019,176.782z"/>
						<path fill="#FFFFFF" d="M8.532,169.27c-0.195-0.194-0.512-0.194-0.707,0c-0.195,0.195-0.195,0.513,0,0.707l3.277,3.277
							c0.098,0.098,0.226,0.146,0.354,0.146s0.256-0.049,0.353-0.146c0.195-0.195,0.195-0.512,0-0.707L8.532,169.27z"/>
						
							<rect x="-24.543" y="169.045" transform="matrix(0.9133 0.4072 -0.4072 0.9133 67.1968 23.3725)" fill="#FFFFFF" width="6.47" height="1"/>
						
							<rect x="-21.618" y="166.117" transform="matrix(0.9133 0.4073 -0.4073 0.9133 66.2669 21.9331)" fill="#FFFFFF" width="6.469" height="1"/>
						
							<rect x="-18.678" y="163.179" transform="matrix(0.9133 0.4073 -0.4073 0.9133 65.321 20.4784)" fill="#FFFFFF" width="6.47" height="1"/>
						
							<rect x="-9.519" y="156.727" transform="matrix(0.7071 0.7071 -0.7071 0.7071 110.2039 53.1192)" fill="#FFFFFF" width="1" height="5.721"/>
						
							<rect x="2.604" y="153.797" transform="matrix(-0.1439 -0.9896 0.9896 -0.1439 -145.1522 183.0227)" fill="#FFFFFF" width="7.975" height="1.001"/>
						
							<rect x="-0.766" y="157.169" transform="matrix(-0.1439 -0.9896 0.9896 -0.1439 -152.3444 183.5461)" fill="#FFFFFF" width="7.974" height="1.001"/>
						
							<rect x="-4.136" y="160.549" transform="matrix(-0.1438 -0.9896 0.9896 -0.1438 -159.5466 184.0544)" fill="#FFFFFF" width="7.975" height="1.001"/>
						
							<rect x="-4.374" y="161.523" transform="matrix(-0.9747 -0.2236 0.2236 -0.9747 -44.7159 326.4004)" fill="#FFFFFF" width="1" height="8.419"/>
						<path fill="#FFFFFF" d="M51.753,208.17c0.128,0,0.256-0.049,0.353-0.146l0.226-0.226c0.001-0.001,0.003-0.002,0.004-0.003
							l3.716-3.717c0.195-0.195,0.195-0.512,0-0.707l-9.54-9.539c1.235-1.663,5.667-8.646-1.165-15.479
							c-0.195-0.195-0.512-0.195-0.707,0l-0.917,0.917l-0.001-0.001l-8.272,8.271l-2.981-2.98l1.428-1.429
							c0.195-0.194,0.195-0.512,0-0.707c-0.195-0.194-0.512-0.194-0.707,0l-1.781,1.781c-0.093,0.094-0.146,0.222-0.146,0.354
							s0.052,0.26,0.146,0.354l1.53,1.529l-1.572,1.572c-0.195,0.195-0.195,0.512,0,0.707c0.098,0.098,0.226,0.146,0.354,0.146
							c0.128,0,0.256-0.049,0.353-0.146l1.572-1.572l1.098,1.098l-7.216,7.216l-0.229,0.229l0,0l-0.918,0.918
							c-0.093,0.094-0.146,0.221-0.146,0.354s0.052,0.26,0.146,0.354c6.833,6.834,13.817,2.4,15.478,1.166l9.541,9.539
							C51.497,208.121,51.625,208.17,51.753,208.17z M41.568,197.441c-0.292,0.256-7.117,6.1-14.121-0.481l10.524-10.524
							l7.016-7.016c6.566,6.992,0.737,13.83,0.481,14.122c-0.173,0.199-0.165,0.497,0.022,0.683l9.5,9.5l-1.618,1.619l-1.619,1.618
							l-9.501-9.5C42.065,197.277,41.766,197.268,41.568,197.441z"/>
						<path fill="#FFFFFF" d="M22.625,212.042c-0.001-0.001-0.002-0.003-0.003-0.005s-0.004-0.002-0.005-0.004l-1.003-1.003
							l1.971-1.97c0.093-0.094,0.146-0.221,0.146-0.354s-0.052-0.26-0.146-0.354l-7.28-7.279l1.259-1.26
							c0.195-0.195,0.195-0.513,0-0.707c-0.195-0.195-0.512-0.195-0.707,0l-1.259,1.26l-0.219-0.219
							c-0.866-0.866-2.251-0.894-3.087-0.058c-0.003,0.003-0.005,0.007-0.008,0.011l-9.132,9.131
							c-0.836,0.838-0.811,2.223,0.054,3.088l0.219,0.219l-2.638,2.639c-0.195,0.195-0.195,0.512,0,0.707
							c0.098,0.098,0.226,0.146,0.354,0.146s0.255-0.049,0.353-0.146l2.638-2.639l10.558,10.559
							c0.098,0.098,0.226,0.146,0.354,0.146s0.256-0.049,0.353-0.146l9.142-9.141c0.093-0.094,0.146-0.221,0.146-0.354
							c0-0.134-0.052-0.261-0.146-0.354L22.625,212.042z M4.487,212.188c0-0.001,0-0.002-0.001-0.002s-0.001-0.001-0.001-0.001
							l-0.571-0.571c-0.476-0.477-0.5-1.227-0.054-1.674l7.877-7.877c0.09,0.406,0.293,0.797,0.612,1.117l0.571,0.57
							c0,0.001,0,0.002,0.001,0.002s0.001,0.001,0.001,0.001l0.761,0.761c0.001,0.001,0.003,0.002,0.004,0.003l6.866,6.867
							c0,0,0,0.001,0.001,0.001s0.001,0,0.001,0.001l1.006,1.006l-8.434,8.436L4.487,212.188z M22.525,208.707l-1.618,1.617
							l-6.926-6.927l1.616-1.616L22.525,208.707z M14.672,200.855l0.219,0.219l-1.617,1.616l-0.218-0.218
							c-0.477-0.477-0.502-1.227-0.059-1.671L13,200.799c0,0,0-0.001,0.001-0.001C13.446,200.354,14.194,200.381,14.672,200.855z
							 M15.044,222.744l-1.21-1.21l8.434-8.436l1.211,1.212L15.044,222.744z"/>
						<path fill="#FFFFFF" d="M8.773,246.34H5.12l0.256-0.256c4.872-4.871-1.856-14.465-2.145-14.871
							c-0.007-0.011-0.02-0.016-0.028-0.025c-0.01-0.013-0.014-0.027-0.026-0.039c-0.019-0.019-0.043-0.027-0.064-0.043
							c-0.023-0.017-0.044-0.033-0.07-0.046c-0.04-0.02-0.081-0.03-0.124-0.039c-0.019-0.004-0.034-0.015-0.053-0.017
							c-0.007-0.001-0.013,0.003-0.02,0.003c-0.049-0.003-0.096,0.007-0.143,0.019c-0.021,0.005-0.043,0.004-0.063,0.012
							c-0.062,0.024-0.12,0.062-0.17,0.111l-0.876,0.876l-11.644-11.644c-0.213-0.201-2.124-1.941-3.717-1.255
							c-1.066,0.46-1.604,1.818-1.649,4.124h-1.249c-0.177,0-0.34,0.094-0.43,0.245l-2.274,3.823
							c-0.092,0.154-0.094,0.348-0.005,0.504s0.255,0.252,0.435,0.252l3.678-0.002h0.448c0.003,0,0.006,0.002,0.01,0.002
							l3.679-0.002c0.18,0,0.346-0.096,0.435-0.252s0.087-0.35-0.005-0.504l-2.271-3.821c-0.09-0.151-0.253-0.245-0.43-0.245h-0.331
							c0,0,0,0-0.001,0h-0.691c0.04-1.788,0.405-2.927,1.047-3.205c0.836-0.363,2.219,0.672,2.625,1.053l11.633,11.634
							l-24.333,24.331c-0.052,0.052-0.088,0.112-0.112,0.177c-0.008,0.02-0.007,0.04-0.012,0.061
							c-0.011,0.046-0.02,0.092-0.018,0.139c0,0.007-0.003,0.015-0.003,0.021c0.002,0.022,0.015,0.041,0.019,0.062
							c0.008,0.037,0.017,0.073,0.033,0.108c0.016,0.032,0.037,0.061,0.06,0.089c0.013,0.017,0.019,0.035,0.033,0.05
							c0.009,0.009,0.021,0.012,0.029,0.02c0.013,0.012,0.02,0.027,0.034,0.037c0.298,0.213,5.571,3.91,10.277,3.91
							c1.521,0,2.981-0.393,4.197-1.408l-0.001,3.693c0,0.275,0.224,0.5,0.5,0.5c0.276,0,0.5-0.223,0.5-0.5l0.002-4.652l6.341-6.344
							l5.687-5.686h4.653c0.277,0,0.5-0.223,0.5-0.5C9.273,246.564,9.049,246.34,8.773,246.34z M-12.003,227.073l-2.073,0.001
							c-0.003,0-0.005-0.002-0.008-0.002h-1.821c-0.001,0-0.001,0-0.002,0l-2.153,0.002l1.68-2.824h0.038
							c0.003,0,0.006,0.002,0.01,0.002l2.652-0.002L-12.003,227.073z M-22.308,257.34l25.055-25.053
							c1.275,1.98,5.625,9.387,1.922,13.09l-1.109,1.108c-0.001,0.001-0.001,0.002-0.002,0.003l-5.832,5.83l-6.943,6.945
							C-12.921,262.967-20.329,258.615-22.308,257.34z"/>
						<path fill="#FFFFFF" d="M-10.773,257.654c-1.516,1.52-5.426,0.018-6.803-0.688c-0.247-0.128-0.548-0.028-0.673,0.218
							c-0.126,0.244-0.029,0.547,0.216,0.672c0.16,0.082,2.866,1.453,5.275,1.453c1.024,0,1.993-0.248,2.692-0.947
							c0.195-0.195,0.195-0.512,0-0.707C-10.261,257.459-10.578,257.459-10.773,257.654z"/>
						<path fill="#FFFFFF" d="M97.079,155.507c0.194,0.195,0.512,0.195,0.707,0c0.194-0.194,0.194-0.512,0-0.707l-9.589-9.589
							l2.086-2.085c0.195-0.194,0.195-0.512,0-0.707c-0.195-0.194-0.512-0.194-0.707,0l-2.438,2.437
							c0,0.001-0.001,0.001-0.002,0.002l-17.519,17.518c-0.001,0.001-0.001,0.002-0.002,0.003l-2.438,2.438
							c-0.195,0.195-0.195,0.513,0,0.707c0.098,0.098,0.227,0.146,0.354,0.146s0.256-0.049,0.353-0.146l2.087-2.087l9.589,9.589
							c0.099,0.098,0.227,0.146,0.354,0.146s0.256-0.049,0.353-0.146c0.195-0.195,0.195-0.512,0-0.707l-6.75-6.75l16.812-16.811
							L97.079,155.507z M72.811,164.861l-2.132-2.132l16.812-16.812l2.132,2.133L72.811,164.861z"/>
						<path fill="#FFFFFF" d="M79.79,147.335c0.194-0.194,0.194-0.512,0-0.707l-5.521-5.521c-0.194-0.194-0.512-0.194-0.707,0
							l-7.692,7.693c-0.195,0.195-0.195,0.512,0,0.707l5.521,5.52c0.098,0.098,0.226,0.146,0.354,0.146s0.256-0.049,0.354-0.146
							l3.492-3.492l1.156,1.156l-1.298,1.3c-0.195,0.194-0.195,0.513,0,0.707c0.098,0.097,0.226,0.146,0.354,0.146
							s0.257-0.049,0.353-0.146l3.306-3.308c0.194-0.195,0.194-0.512,0-0.707s-0.512-0.195-0.707,0l-1.3,1.301l-1.156-1.156
							L79.79,147.335z M71.744,153.966l-4.812-4.812l6.986-6.986l4.812,4.812L71.744,153.966z"/>
						<path fill="#FFFFFF" d="M71.561,181.902c0.276,0,0.5-0.223,0.5-0.498c0-0.276-0.224-0.5-0.498-0.502l-1.972-0.002
							c-0.001,0-0.001,0-0.001,0c-0.037,0-0.071,0.014-0.106,0.021c-0.027,0.006-0.057,0.006-0.083,0.017
							c-0.061,0.024-0.117,0.062-0.164,0.108l-0.941,0.941l-3.411-3.411l3.132-3.132c0.334-0.334,0.463-0.736,0.356-1.104
							s-0.433-0.637-0.896-0.739l-1.5-0.33c-0.736-0.16-1.762,0.145-2.291,0.672l-1.718,1.719l-2.026-2.026l2.485-2.485
							c0.158-0.159,0.192-0.403,0.083-0.599c-0.123-0.219-3.044-5.366-6.735-5.877c-1.43-0.198-2.769,0.316-3.978,1.525
							c-0.002,0.002-0.003,0.006-0.005,0.008c-1.205,1.208-1.714,2.544-1.518,3.97c0.511,3.69,5.659,6.612,5.878,6.735
							c0.076,0.041,0.16,0.062,0.244,0.062c0.128,0,0.256-0.05,0.353-0.146l2.486-2.486l2.025,2.026l-1.716,1.717
							c-0.541,0.539-0.835,1.547-0.671,2.291l0.329,1.498c0.15,0.689,0.613,0.934,0.996,0.934c0.206,0,0.521-0.068,0.848-0.396
							l3.131-3.13l3.411,3.412l-0.857,0.857l-0.139,0.139c-0.093,0.094-0.146,0.222-0.146,0.354l0.002,1.97
							c0,0.277,0.224,0.5,0.5,0.5c0.277,0,0.5-0.224,0.5-0.5l-0.002-1.764l0.849-0.849l0.633,0.633
							c0.099,0.097,0.226,0.146,0.354,0.146c0.128,0,0.256-0.049,0.353-0.146c0.195-0.194,0.195-0.513,0-0.707l-0.633-0.633
							l0.796-0.796L71.561,181.902z M56.318,175.848c-1.104-0.685-4.679-3.094-5.053-5.809c-0.155-1.117,0.252-2.143,1.241-3.132
							c0.001-0.001,0.001-0.003,0.002-0.004c0.989-0.986,2.01-1.392,3.128-1.238c2.715,0.375,5.124,3.95,5.809,5.054l-2.564,2.563
							c-0.002,0.002-0.002,0.004-0.004,0.006L56.318,175.848z M60.338,181.708c-0.048,0.048-0.087,0.075-0.113,0.089
							c-0.015-0.027-0.032-0.07-0.047-0.136l-0.329-1.498c-0.092-0.415,0.099-1.067,0.401-1.369l4.143-4.142
							c0.242-0.242,0.733-0.426,1.142-0.426c0.084,0,0.161,0.008,0.228,0.022l1.498,0.33c0.077,0.019,0.12,0.039,0.141,0.041
							c-0.014,0.024-0.041,0.067-0.094,0.119L60.338,181.708z"/>
						<path fill="#FFFFFF" d="M-26.921,155.507c0.195,0.195,0.512,0.195,0.707,0c0.195-0.194,0.195-0.512,0-0.707l-9.588-9.589
							l2.085-2.085c0.195-0.194,0.195-0.512,0-0.707c-0.195-0.194-0.512-0.194-0.707,0l-2.438,2.438
							c0,0.001-0.001,0.001-0.001,0.001l-17.519,17.518c-0.001,0.001-0.002,0.003-0.003,0.005l-2.437,2.437
							c-0.195,0.195-0.195,0.513,0,0.707c0.098,0.098,0.226,0.146,0.354,0.146c0.128,0,0.256-0.049,0.353-0.146l2.087-2.087
							l9.589,9.589c0.098,0.098,0.226,0.146,0.354,0.146s0.256-0.049,0.353-0.146c0.195-0.195,0.195-0.512,0-0.707l-6.75-6.75
							l16.812-16.812L-26.921,155.507z M-51.188,164.861l-2.132-2.132l16.812-16.812l2.132,2.132L-51.188,164.861z"/>
						<path fill="#FFFFFF" d="M-52.256,155.174c0.128,0,0.256-0.049,0.353-0.146l3.493-3.492l1.156,1.157l-1.298,1.299
							c-0.195,0.194-0.195,0.513,0,0.707c0.098,0.097,0.226,0.146,0.354,0.146c0.128,0,0.256-0.049,0.353-0.146l3.305-3.308
							c0.195-0.195,0.195-0.512,0-0.707s-0.512-0.195-0.707,0l-1.3,1.301l-1.156-1.156l3.493-3.493c0.195-0.194,0.195-0.512,0-0.707
							l-5.52-5.521c-0.195-0.194-0.512-0.194-0.707,0l-7.693,7.693c-0.195,0.195-0.195,0.512,0,0.707l5.52,5.52
							C-52.512,155.125-52.384,155.174-52.256,155.174z M-50.082,142.168l4.812,4.812l-6.986,6.985l-4.812-4.812L-50.082,142.168z"
							/>
						<polygon fill="#FFFFFF" points="66.621,106.339 50.206,122.754 50.913,123.461 58.769,115.605 68.893,125.73 67.555,127.067 
							68.262,127.774 71.643,124.394 70.936,123.687 69.6,125.023 59.476,114.898 67.328,107.046 						"/>
						<path fill="#FFFFFF" d="M-8.41,140.521c0.276,0,0.5-0.223,0.5-0.5l0.002-4.652l6.341-6.344l5.687-5.686h4.653
							c0.277,0,0.5-0.223,0.5-0.5c0-0.275-0.224-0.5-0.5-0.5H5.12l0.256-0.256c4.872-4.871-1.856-14.465-2.145-14.871
							c-0.007-0.011-0.02-0.016-0.028-0.025c-0.01-0.013-0.014-0.027-0.026-0.039c-0.019-0.019-0.043-0.027-0.064-0.043
							c-0.023-0.017-0.044-0.033-0.07-0.046c-0.04-0.02-0.081-0.03-0.124-0.039c-0.019-0.004-0.034-0.015-0.053-0.017
							c-0.007,0-0.012,0.003-0.02,0.003c-0.052-0.003-0.102,0.007-0.152,0.021c-0.017,0.004-0.036,0.004-0.052,0.01
							c-0.062,0.024-0.122,0.061-0.172,0.111l-0.876,0.876L-10.05,96.381c-0.213-0.201-2.124-1.943-3.717-1.255
							c-1.066,0.46-1.604,1.818-1.649,4.124h-1.249c-0.177,0-0.34,0.094-0.43,0.245l-2.274,3.823
							c-0.092,0.154-0.094,0.348-0.005,0.504s0.255,0.252,0.435,0.252l3.678-0.002h0.448c0.003,0,0.006,0.002,0.01,0.002
							l3.679-0.002c0.18,0,0.346-0.096,0.435-0.252s0.087-0.35-0.005-0.504l-2.271-3.821c-0.09-0.151-0.253-0.245-0.43-0.245h-0.331
							c0,0,0,0-0.001,0h-0.691c0.04-1.788,0.405-2.927,1.047-3.205c0.836-0.361,2.219,0.672,2.625,1.053l11.633,11.634
							l-24.333,24.331c-0.052,0.052-0.088,0.112-0.112,0.177c-0.008,0.02-0.007,0.04-0.012,0.061
							c-0.011,0.046-0.02,0.092-0.018,0.139c0,0.007-0.003,0.015-0.003,0.021c0.002,0.022,0.015,0.041,0.019,0.062
							c0.008,0.037,0.017,0.073,0.033,0.108c0.016,0.032,0.037,0.061,0.06,0.089c0.013,0.017,0.019,0.035,0.033,0.05
							c0.009,0.009,0.021,0.012,0.029,0.02c0.013,0.012,0.02,0.027,0.034,0.037c0.298,0.213,5.571,3.91,10.277,3.91
							c1.521,0,2.981-0.393,4.197-1.408l-0.001,3.693C-8.91,140.297-8.686,140.521-8.41,140.521z M-12.003,103.073l-2.073,0.001
							c-0.003,0-0.005-0.002-0.008-0.002h-1.821c-0.001,0-0.001,0-0.002,0l-2.153,0.002l1.68-2.824h0.038
							c0.003,0,0.006,0.002,0.01,0.002l2.652-0.002L-12.003,103.073z M-22.308,133.34l25.055-25.053
							c1.275,1.98,5.625,9.387,1.922,13.09l-1.109,1.108c-0.001,0.001-0.001,0.002-0.002,0.003l-5.832,5.83l-6.943,6.945
							C-12.921,138.967-20.329,134.614-22.308,133.34z"/>
						<path fill="#FFFFFF" d="M-10.773,133.654c-1.516,1.52-5.426,0.019-6.803-0.688c-0.247-0.127-0.548-0.028-0.673,0.218
							c-0.126,0.244-0.029,0.547,0.216,0.672c0.16,0.082,2.866,1.453,5.275,1.453c1.024,0,1.993-0.248,2.692-0.947
							c0.195-0.195,0.195-0.512,0-0.707C-10.261,133.459-10.578,133.459-10.773,133.654z"/>
					</g>
				</g>
			</g>
		</g>
	</g>
</g>
</svg>
