<?xml version="1.0" encoding="utf-8"?>
<!-- Generator: Adobe Illustrator 16.0.0, SVG Export Plug-In . SVG Version: 6.00 Build 0)  -->
<!DOCTYPE svg PUBLIC "-//W3C//DTD SVG 1.1//EN" "http://www.w3.org/Graphics/SVG/1.1/DTD/svg11.dtd">
<svg version="1.1" id="Layer_1" xmlns="http://www.w3.org/2000/svg" xmlns:xlink="http://www.w3.org/1999/xlink" x="0px" y="0px"
	 width="40px" height="40px" viewBox="0 0 40 40" enable-background="new 0 0 40 40" xml:space="preserve">
<g>
	<path fill="#696767" d="M17.603,17.875c0,1.323,1.076,2.399,2.398,2.399c1.323,0,2.399-1.076,2.399-2.399s-1.076-2.399-2.399-2.399
		C18.679,15.477,17.603,16.553,17.603,17.875z M21.65,17.875c0,0.909-0.74,1.649-1.649,1.649s-1.648-0.74-1.648-1.649
		s0.739-1.649,1.648-1.649S21.65,16.966,21.65,17.875z"/>
	<circle fill="#696767" cx="18.97" cy="28.69" r="0.542"/>
	<path fill="#696767" d="M33.384,17.437c0.011-0.011,0.024-0.016,0.034-0.028c0.134-0.172,0.102-0.421-0.07-0.555L20.243,6.681
		c-0.142-0.112-0.343-0.112-0.484,0L6.654,16.854c-0.134,0.103-0.181,0.274-0.135,0.426v2.52c-0.03,0.115-0.015,0.239,0.063,0.34
		c0.136,0.174,0.385,0.204,0.556,0.07l2.804-2.177v0.129c-0.01,0.034-0.021,0.068-0.021,0.105V33.01
		c0,0.217,0.177,0.393,0.396,0.393h19.369c0.219,0,0.396-0.176,0.396-0.393V18.268c0-0.036-0.013-0.068-0.021-0.101v-0.133
		l2.573,1.999v0.006h0.009l0.221,0.171c0.072,0.056,0.156,0.083,0.242,0.083c0.117,0,0.234-0.052,0.312-0.153
		c0.122-0.157,0.1-0.373-0.034-0.512V17.437z M18.042,32.55v-7.72h3.918v7.72H18.042z M29.311,18.163
		c-0.011,0.034-0.021,0.068-0.021,0.105v14.349H22.71V24.08h-5.418v8.537h-6.579V18.268c0-0.036-0.012-0.067-0.021-0.1v-0.717
		l9.309-7.226l9.31,7.227V18.163z M20.243,9.412c-0.142-0.111-0.343-0.111-0.484,0L7.27,19.107v-1.73l12.731-9.884l12.633,9.808
		v1.729L20.243,9.412z"/>
</g>
</svg>
