<?xml version="1.0" encoding="utf-8"?>
<!-- Generator: Adobe Illustrator 16.0.0, SVG Export Plug-In . SVG Version: 6.00 Build 0)  -->
<!DOCTYPE svg PUBLIC "-//W3C//DTD SVG 1.1//EN" "http://www.w3.org/Graphics/SVG/1.1/DTD/svg11.dtd">
<svg version="1.1" id="Layer_1" xmlns="http://www.w3.org/2000/svg" xmlns:xlink="http://www.w3.org/1999/xlink" x="0px" y="0px"
	 width="124px" height="124px" viewBox="0 0 124 124" enable-background="new 0 0 124 124" xml:space="preserve">
<g opacity="0.09">
	<g>
		<g>
			<defs>
				<rect id="SVGID_1_" width="124" height="124"/>
			</defs>
			<clipPath id="SVGID_2_">
				<use xlink:href="#SVGID_1_"  overflow="visible"/>
			</clipPath>
			<g clip-path="url(#SVGID_2_)">
				<g>
					<g>
						<path fill="none" stroke="#231F20" stroke-linecap="round" stroke-linejoin="round" stroke-miterlimit="10" d="
							M107.084-55.634"/>
					</g>
				</g>
				<g>
					<g>
						<path fill="none" stroke="#231F20" stroke-miterlimit="10" d="M53.57-16.285"/>
					</g>
				</g>
			</g>
		</g>
		<g>
			<defs>
				<rect id="SVGID_3_" width="124" height="124"/>
			</defs>
			<clipPath id="SVGID_4_">
				<use xlink:href="#SVGID_3_"  overflow="visible"/>
			</clipPath>
			<g clip-path="url(#SVGID_4_)">
				<g>
					<g>
						<path fill="none" stroke="#231F20" stroke-linecap="round" stroke-linejoin="round" stroke-miterlimit="10" d="
							M107.084,68.367"/>
					</g>
				</g>
				<g>
					<g>
						<path fill="none" stroke="#231F20" stroke-miterlimit="10" d="M53.57,107.715"/>
					</g>
				</g>
			</g>
		</g>
		<g>
			<defs>
				<rect id="SVGID_5_" width="124" height="124"/>
			</defs>
			<clipPath id="SVGID_6_">
				<use xlink:href="#SVGID_5_"  overflow="visible"/>
			</clipPath>
			<g clip-path="url(#SVGID_6_)">
				<g>
					<g>
						<path fill="none" stroke="#231F20" stroke-linecap="round" stroke-linejoin="round" stroke-miterlimit="10" d="
							M-16.916-55.634"/>
					</g>
				</g>
				<g>
					<g>
						<path fill="none" stroke="#231F20" stroke-miterlimit="10" d="M-70.43-16.285"/>
					</g>
				</g>
			</g>
		</g>
		<g>
			<defs>
				<rect id="SVGID_7_" width="124" height="124"/>
			</defs>
			<clipPath id="SVGID_8_">
				<use xlink:href="#SVGID_7_"  overflow="visible"/>
			</clipPath>
			<g clip-path="url(#SVGID_8_)">
				<g>
					<g>
						<g>
							<g>
								<path fill="none" stroke="#231F20" stroke-linecap="round" stroke-linejoin="round" stroke-miterlimit="10" d="
									M-16.916,68.367"/>
							</g>
						</g>
						<g>
							<g>
								<path fill="none" stroke="#231F20" stroke-miterlimit="10" d="M-70.43,107.715"/>
							</g>
						</g>
					</g>
					<g>
						<path fill="#FFFFFF" d="M165.906-16.787l-0.061-0.426c-0.02-0.135-0.095-0.256-0.205-0.336l-1.197-0.854
							c-0.117-0.084-0.266-0.112-0.408-0.079l-3.366,0.816c-0.226,0.054-0.383,0.256-0.382,0.487l0.002,1.785
							c0,0.231,0.158,0.432,0.383,0.486l3.362,0.812c0.038,0.01,0.077,0.014,0.116,0.014c0.104,0,0.205-0.032,0.289-0.09
							l1.201-0.853c0.112-0.079,0.187-0.201,0.207-0.337l0.058-0.425h11.665v-1H165.906z M164.889-15.718l-0.841,0.597l-2.759-0.667
							l-0.001-0.999l2.761-0.67l0.84,0.599l0.086,0.542L164.889-15.718z"/>
						<path fill="#FFFFFF" d="M101.657-15.953c-3.048-0.824-6.233-0.026-8.531,2.135c-0.066,0.062-0.104,0.14-0.128,0.222
							c-1.479,0.41-2.838,1.19-3.954,2.305c-3.512,3.514-3.512,9.231,0,12.745c1.703,1.702,3.968,2.64,6.375,2.64
							c1.281,0,2.56-0.277,3.72-0.802l9.549,10.036c0.09,0.093,0.209,0.149,0.338,0.155l3.705,0.184c0.006,0,0.016,0,0.023,0
							c0.133,0,0.26-0.052,0.355-0.146c0.1-0.1,0.152-0.237,0.146-0.378l-0.183-3.704c-0.008-0.154-0.086-0.296-0.213-0.385
							l-2.18-1.526l-0.35-1.995c-0.032-0.184-0.164-0.335-0.344-0.391l-2.332-0.732l-0.228-2.134
							c-0.021-0.206-0.169-0.378-0.368-0.431l-2.847-0.755l-0.46-0.524c1.128-0.644,2.11-1.504,2.863-2.551l13.275,3.958
							c0.047,0.014,0.096,0.021,0.144,0.021c0.077,0,0.155-0.018,0.228-0.058l3.307-1.687c0.125-0.064,0.219-0.179,0.254-0.315
							c0.037-0.136,0.015-0.282-0.061-0.401l-2.006-3.12c-0.084-0.13-0.223-0.214-0.376-0.228l-2.649-0.238l-1.291-1.56
							c-0.119-0.144-0.314-0.208-0.492-0.169l-2.391,0.527l-1.259-1.738c-0.122-0.168-0.333-0.244-0.534-0.189l-2.846,0.761
							l-1.609-0.549C108.441-11.117,105.698-14.856,101.657-15.953z M103.809,2.017l2.659,0.706l0.226,2.118
							c0.021,0.198,0.158,0.364,0.348,0.424l2.355,0.739l0.332,1.899c0.021,0.131,0.097,0.248,0.205,0.324l2.149,1.505l0.144,2.908
							l-2.953-0.146L99.705,2.441l-0.152-0.129c-0.154-0.128-0.369-0.155-0.548-0.065c-1.104,0.554-2.344,0.846-3.587,0.846
							c-2.143,0-4.154-0.834-5.668-2.347c-3.122-3.124-3.122-8.207,0-11.331c1.514-1.514,3.525-2.347,5.666-2.347
							s4.152,0.834,5.665,2.347c2.715,2.715,3.123,6.988,0.97,10.162c-0.128,0.188-0.111,0.439,0.038,0.61l1.472,1.676
							C103.625,1.938,103.711,1.992,103.809,2.017z M110.031-5.413l2.66-0.712l1.248,1.726c0.117,0.162,0.324,0.238,0.514,0.195
							l2.412-0.532l1.23,1.485c0.084,0.102,0.206,0.167,0.34,0.179l2.612,0.235l1.573,2.45l-2.637,1.345l-13.309-3.964l-0.199-0.033
							c-0.192-0.028-0.391,0.053-0.5,0.217c-0.72,1.088-1.712,1.973-2.868,2.602c2.159-3.527,1.634-8.119-1.319-11.071
							c-1.701-1.702-3.965-2.64-6.372-2.64c-0.189,0-0.377,0.016-0.564,0.027c1.908-1.285,4.268-1.7,6.544-1.083
							c3.705,1.006,6.184,4.51,5.896,8.332c-0.017,0.227,0.122,0.437,0.338,0.511l2.111,0.721
							C109.834-5.391,109.936-5.388,110.031-5.413z"/>
						<path fill="#FFFFFF" d="M92.29-8.048c-0.537,0.537-0.833,1.251-0.832,2.01c0,0.756,0.295,1.467,0.83,2
							c0.534,0.536,1.245,0.831,2.002,0.831c0.759,0,1.474-0.296,2.009-0.834c0.534-0.534,0.828-1.244,0.828-2.001
							c0.001-0.757-0.295-1.469-0.83-2.004C95.229-9.116,93.359-9.116,92.29-8.048z M95.592-4.746
							c-0.693,0.695-1.904,0.698-2.597,0.002c-0.347-0.345-0.537-0.804-0.537-1.294c-0.001-0.491,0.19-0.954,0.539-1.302
							c0.346-0.346,0.806-0.536,1.295-0.536c0.491,0,0.951,0.193,1.298,0.539c0.348,0.346,0.537,0.807,0.537,1.297
							C96.127-5.551,95.938-5.091,95.592-4.746z"/>
						<path fill="#FFFFFF" d="M81.318,5.756c-0.194-0.195-0.512-0.195-0.707,0L70.27,16.1c-1.714-1.364-4.199-1.287-5.811,0.253
							l-2.013-2.014c-0.195-0.195-0.512-0.195-0.707,0L44.806,31.27c-0.093,0.094-0.146,0.221-0.146,0.354s0.052,0.26,0.146,0.354
							l10.823,10.825c0.094,0.093,0.221,0.146,0.354,0.146c0.133,0,0.26-0.053,0.354-0.147l1.083-1.083l9.352,9.351
							c0.099,0.097,0.227,0.146,0.354,0.146s0.256-0.049,0.354-0.145l5.42-5.418c0.093-0.094,0.146-0.221,0.146-0.354
							c0-0.133-0.052-0.26-0.146-0.354l-3.441-3.441l1.254-1.255c0.195-0.195,0.195-0.512,0-0.707l-2.547-2.547
							c-0.188-0.188-0.52-0.188-0.707,0l-1.199,1.2l-1.338-3.856c-0.01-0.029-0.03-0.05-0.045-0.076l8.391-8.391
							c0.195-0.195,0.195-0.512,0-0.707l-2.545-2.546c1.54-1.61,1.617-4.096,0.253-5.811L81.318,6.463
							C81.514,6.268,81.514,5.951,81.318,5.756z M67.812,38.054l1.84,1.84l-0.865,0.867l-1.84-1.84L67.812,38.054z M65.41,38.8
							c0.025,0.071,0.064,0.136,0.119,0.19l6.31,6.309l-4.713,4.711l-9-8.998l5.978-5.978L65.41,38.8z M72.208,25.517L55.983,41.742
							L45.866,31.625L62.093,15.4L72.208,25.517z M70.016,21.911l-4.85-4.851c1.345-1.269,3.467-1.251,4.785,0.064
							C71.269,18.441,71.285,20.566,70.016,21.911z"/>
						<path fill="#FFFFFF" d="M86.417-60.443c0.054,0.165,0.19,0.289,0.358,0.329c0.039,0.009,0.078,0.013,0.115,0.013
							c0.131,0,0.258-0.051,0.354-0.146l2.889-2.889l17.057,17.056c0.098,0.097,0.226,0.146,0.354,0.146s0.256-0.048,0.354-0.146
							l5.574-5.574l5.578-5.577c0.002-0.001,0.002-0.004,0.004-0.006l12.129-12.129c0.092-0.094,0.146-0.221,0.146-0.354
							c0-0.133-0.052-0.26-0.146-0.354l-17.057-17.055l2.889-2.888c0.123-0.122,0.172-0.3,0.133-0.468
							c-0.039-0.169-0.164-0.304-0.328-0.359l-10.65-3.552c-0.18-0.06-0.377-0.012-0.512,0.121l-2.808,2.808l-1.944-1.943
							c-0.194-0.195-0.512-0.195-0.706,0l-3.863,3.863c-0.194,0.195-0.194,0.512,0,0.707l1.943,1.943l-4.108,4.108
							c-0.001,0.001-0.001,0.002-0.002,0.003l-11.182,11.18c-0.133,0.134-0.18,0.332-0.12,0.512L86.417-60.443z M113.342-52.94
							l-1.061,1.06L101.83-62.331l5.705-5.706l10.452,10.451L113.342-52.94z M130.121-69.72l-11.427,11.427l-10.806-10.805
							c-0.187-0.188-0.519-0.188-0.707,0l-6.412,6.413c-0.194,0.195-0.194,0.512,0,0.707l10.805,10.806l-4.031,4.031L90.84-63.843
							l11.289-11.29l11.289-11.29L130.121-69.72z M97.396-89.194l3.155-3.156l1.59,1.589l-3.156,3.156L97.396-89.194z
							 M95.178-82.382c0.001-0.001,0.001-0.002,0.002-0.003l4.157-4.157c0,0,0.001-0.001,0.002-0.001l3.863-3.863
							c0.001,0,0.001-0.001,0.001-0.002l2.941-2.941l9.59,3.198l-2.664,2.664c-0.002,0.002-0.004,0.002-0.006,0.004L89.779-64.197
							c0,0-0.001,0.001-0.001,0.001l-2.669,2.669l-3.197-9.59L95.178-82.382z"/>
						<path fill="#FFFFFF" d="M110.139-71.847c0,0.133,0.051,0.26,0.146,0.354l6.309,6.307c0.099,0.097,0.226,0.146,0.354,0.146
							c0.128,0,0.256-0.049,0.353-0.147l4.289-4.289c0.195-0.195,0.195-0.512,0-0.707l-6.307-6.308
							c-0.195-0.195-0.513-0.195-0.707,0l-4.291,4.29C110.191-72.107,110.139-71.98,110.139-71.847z M114.93-75.43l5.6,5.601
							l-3.581,3.582l-5.603-5.6L114.93-75.43z"/>
						<path fill="#FFFFFF" d="M112.499-23.481l7.258-7.257l19.17,19.168l4.361-4.361L124.119-35.1l5.5-5.499l-6.186-6.184
							l-5.406,5.405l-1.715-1.715c-0.188-0.188-0.52-0.188-0.707,0l-3.84,3.841c-0.195,0.195-0.195,0.512,0,0.707l1.865,1.867
							l-4.156,10.172L112.499-23.481z M141.874-15.931l-2.947,2.947l-18.463-18.461l1.557-1.557l1.393-1.39L141.874-15.931z
							 M112.825-38.9l3.133-3.134l1.362,1.362l-3.135,3.134L112.825-38.9z M114.62-36.557l3.761-3.761
							c0.001-0.001,0.001-0.002,0.002-0.002l5.051-5.05l4.771,4.77l-8.064,8.064l-1.091,1.09v0l-6.55,6.55l-1.851-1.851
							L114.62-36.557z"/>
						<path fill="#FFFFFF" d="M168.555,11.718c-0.002-0.002-0.002-0.004-0.004-0.006L151.057-5.782
							c-0.003-0.003-0.007-0.004-0.01-0.007c-0.919-0.915-2.139-1.42-3.436-1.42c-1.301,0-2.524,0.507-3.444,1.427
							c-1.778,1.779-1.869,4.589-0.319,6.5l-18.998,19c-0.176,0.175-0.185,0.444-0.045,0.64V27.3c0,0.157,0.085,0.292,0.206,0.386
							c0.019,0.027,0.03,0.057,0.054,0.081l16.809,16.807c0.094,0.093,0.221,0.146,0.354,0.146s0.26-0.053,0.354-0.146
							l12.761-12.766c0.001-0.001,0.003-0.002,0.005-0.003l13.201-13.202c0.001,0,0.002-0.001,0.003-0.002s0.001-0.002,0.002-0.002
							l0.935-0.935c0.156-0.157,0.182-0.389,0.087-0.576c0.261-0.603,0.403-1.255,0.403-1.931
							C169.977,13.857,169.473,12.636,168.555,11.718z M144.873-5.075c1.463-1.463,4.012-1.463,5.475,0
							c0.002,0.002,0.004,0.002,0.006,0.004l15.422,15.423c-0.222-0.031-0.442-0.065-0.67-0.065c-1.301,0-2.523,0.507-3.442,1.426
							c-0.921,0.92-1.429,2.143-1.429,3.445c0,0.227,0.035,0.447,0.065,0.668L144.873,0.399c-0.001-0.001-0.003-0.001-0.004-0.002
							C143.363-1.113,143.364-3.566,144.873-5.075z M125.805,21.103l3.971,2.635l-3.971,2.632V21.103z M155.046,30.691
							c-0.002,0.001-0.004,0.002-0.006,0.004l-12.813,12.818l-16.136-16.134l4.866-3.225c0.141-0.094,0.225-0.25,0.225-0.418
							c0-0.167-0.084-0.323-0.225-0.416l-4.987-3.31l18.55-18.551l17.142,17.143c0.002,0.002,0.004,0.002,0.006,0.004
							c0.919,0.917,2.139,1.422,3.437,1.422c0.228,0,0.449-0.035,0.671-0.065L155.046,30.691z M167.851,17.886l-0.015,0.014
							c-1.464,1.454-4.009,1.455-5.468-0.006c-0.732-0.73-1.134-1.703-1.134-2.737c0-1.034,0.404-2.007,1.136-2.738
							c0.729-0.731,1.702-1.133,2.735-1.133s2.001,0.401,2.732,1.128l0.005,0.004c0.001,0,0.002,0.001,0.002,0.001
							c0.731,0.731,1.134,1.702,1.134,2.736C168.977,16.188,168.576,17.156,167.851,17.886z"/>
						<path fill="#FFFFFF" d="M163.189-76.153c-0.194-0.195-0.512-0.195-0.707,0l-2.146,2.145l-4.853-4.852
							c-0.194-0.195-0.512-0.195-0.707,0l-8.732,8.733l-0.359-0.148c-0.185-0.076-0.399-0.035-0.543,0.109
							c-0.143,0.143-0.186,0.357-0.108,0.544l0.147,0.358l-2.949,2.95c-0.002,0.002-0.003,0.005-0.005,0.007
							c0,0-0.001,0-0.001,0.001l-12.545,12.544c-0.195,0.195-0.195,0.512,0,0.707l5.205,5.205c0.094,0.093,0.221,0.146,0.354,0.146
							s0.26-0.053,0.354-0.146l2.145-2.145l4.853,4.852c0.095,0.093,0.222,0.146,0.354,0.146s0.26-0.053,0.353-0.147l2.185-2.185
							l4.852,4.851c0.098,0.097,0.227,0.146,0.354,0.146c0.129,0,0.256-0.049,0.354-0.146l3.668-3.667l1.268,3.076
							c0.062,0.155,0.199,0.267,0.363,0.3c0.033,0.007,0.066,0.01,0.098,0.01c0.131,0,0.26-0.052,0.354-0.148l7.45-7.45l1.799,1.798
							c-0.892,1.261-0.719,3.089,0.493,4.301l2.288,2.286c0.001,0.001,0.002,0.001,0.003,0.002l2.28,2.284
							c0.707,0.705,1.621,1.061,2.514,1.061c0.805,0,1.59-0.292,2.18-0.882c1.245-1.246,1.165-3.351-0.178-4.694l-2.286-2.285
							l-2.286-2.287c-1.211-1.212-3.041-1.384-4.301-0.493l-1.799-1.798l7.453-7.453c0.119-0.119,0.171-0.288,0.138-0.452
							c-0.032-0.163-0.146-0.3-0.3-0.364l-3.076-1.268l6.975-6.974c0.194-0.195,0.194-0.512,0-0.707l-5.203-5.204
							c-0.095-0.093-0.222-0.146-0.354-0.146c-0.134,0-0.261,0.052-0.354,0.146l-2.184,2.184L163.189-76.153z M167.062-48.244
							c0.854-0.854,2.326-0.775,3.279,0.178l2.286,2.287l2.286,2.285c0.953,0.953,1.031,2.424,0.178,3.28
							c-0.854,0.853-2.324,0.772-3.279-0.18l-2.283-2.286l-2.288-2.286C166.289-45.918,166.208-47.389,167.062-48.244z
							 M162.836-75.092l4.499,4.498l-6.543,6.542l-6.373-2.626L162.836-75.092z M155.131-77.799l4.497,4.497l-6.212,6.212
							l-6.369-2.624L155.131-77.799z M145.595-68.262l2.624,6.372l-0.428,0.427l-4.498-4.497L145.595-68.262z M137.384-51.057
							c-0.002,0.002-0.002,0.004-0.004,0.006l-2.14,2.14l-4.497-4.498l11.837-11.837l4.496,4.497l-2.672,2.672L137.384-51.057z
							 M145.129-48.39L145.129-48.39l-2.186,2.186l-4.498-4.498l8.799-8.8l0.898-0.898c0.001-0.001,0.001-0.001,0.002-0.001
							l0.486-0.486l2.627,6.369l-4.879,4.879L145.129-48.39z M150.688-43.538l-4.498-4.498l0.075-0.076l5.405-5.405l2.626,6.37
							L150.688-43.538z M171.165-58.694l-6.923,6.922l-2.309-2.308c-0.195-0.195-0.512-0.195-0.707,0
							c-0.194,0.195-0.194,0.512,0,0.707l2.308,2.308l-6.921,6.92l-1.263-3.063c-0.003-0.006-0.005-0.013-0.008-0.019l-3.032-7.357
							c-0.001-0.001-0.001-0.003-0.002-0.005c0,0,0-0.001,0-0.002l-3.038-7.369v0l-0.001-0.002l-2.854-6.931l6.922,2.852
							c0.007,0.003,0.014,0.005,0.021,0.008l7.356,3.032c0.004,0.001,0.008,0.003,0.013,0.005l7.355,3.032
							c0.006,0.002,0.011,0.004,0.016,0.006L171.165-58.694z M168.399-70.244l2.181-2.181l4.496,4.497l-6.914,6.914l-6.368-2.625
							l6.603-6.602C168.397-70.241,168.398-70.243,168.399-70.244z"/>
						<path fill="#FFFFFF" d="M54.109-34.863c-0.167-0.085-0.37-0.068-0.521,0.042l-1.025,0.75c-1.556,1.154-2.518,3.02-2.574,5.003
							c0.002,2.196,1.203,4.233,3.073,5.298l0.007,6.982H41.906l-0.061-0.426c-0.019-0.135-0.094-0.256-0.205-0.336l-1.197-0.854
							c-0.116-0.084-0.263-0.112-0.408-0.079l-3.366,0.816c-0.225,0.054-0.383,0.256-0.382,0.487l0.002,1.785
							c0,0.231,0.158,0.432,0.383,0.486l3.362,0.812c0.038,0.01,0.078,0.014,0.117,0.014c0.103,0,0.204-0.032,0.289-0.09
							l1.201-0.853c0.112-0.079,0.186-0.201,0.206-0.337l0.058-0.425H53.07l0.01,8.995c-0.417,0.23-0.833,0.55-1.266,0.98
							c-1.158,1.16-1.822,2.746-1.822,4.352c0,2.008,0.966,3.881,2.576,5.006l1.022,0.742c0.087,0.063,0.19,0.095,0.294,0.095
							c0.077,0,0.155-0.018,0.228-0.055c0.168-0.085,0.273-0.257,0.273-0.445l0.003-3.719c0-0.929,0.845-1.776,1.772-1.777
							c0.5,0.003,0.89,0.162,1.23,0.503c0.31,0.31,0.511,0.789,0.552,1.276v3.718c0,0.188,0.105,0.36,0.272,0.445
							c0.169,0.086,0.37,0.07,0.521-0.041l1.006-0.731c0.312-0.208,0.518-0.412,0.777-0.669c1.153-1.158,1.815-2.743,1.815-4.35
							c-0.003-2.196-1.2-4.233-3.062-5.298v-9.028h1.062l0.05,1c0.002,0.823,0.281,1.516,0.827,2.059
							c0.529,0.531,1.224,0.836,1.907,0.836c0.064,0,0.13-0.003,0.152-0.006L74.073-11.9c0.819-0.003,1.513-0.283,2.062-0.833
							c0.587-0.589,0.892-1.375,0.823-2.055v-2.728c0.002-0.816-0.275-1.51-0.826-2.062c-0.533-0.53-1.223-0.834-1.895-0.834
							c-0.071,0-0.143,0.004-0.166,0.008L63.27-20.407c-1.526,0.003-2.875,1.342-2.943,2.945l0,0.674h-1.056v-6.965
							c0.41-0.231,0.818-0.548,1.24-0.969c1.154-1.157,1.816-2.741,1.816-4.347c0.002-2.013-0.963-3.887-2.573-5.007l-1.022-0.745
							c-0.153-0.11-0.354-0.125-0.521-0.042c-0.168,0.086-0.273,0.258-0.273,0.446v3.719c0,0.446-0.197,0.898-0.54,1.241
							c-0.341,0.342-0.792,0.537-1.236,0.537c0,0-0.001,0-0.002,0c-0.492,0-0.882-0.16-1.228-0.504
							c-0.312-0.312-0.513-0.79-0.552-1.273l0.002-3.72C54.382-34.605,54.277-34.778,54.109-34.863z M40.888-15.718l-0.84,0.597
							l-2.759-0.667l-0.001-0.999l2.761-0.67l0.84,0.599l0.085,0.542L40.888-15.718z M61.326-17.44
							c0.045-1.046,0.955-1.965,1.945-1.967h10.847c0.464-0.036,0.93,0.16,1.307,0.536c0.36,0.361,0.535,0.804,0.533,1.354
							l0.002,2.779c0.044,0.434-0.155,0.921-0.533,1.299c-0.36,0.361-0.805,0.538-1.356,0.54l-10.844,0.001l-0.11,0.004
							c-0.418,0-0.854-0.197-1.2-0.543c-0.357-0.355-0.531-0.798-0.534-1.377l-0.056-1.105V-17.44z M56.161-27.919
							c0.002,0,0.003,0,0.004,0c0.706,0,1.414-0.302,1.941-0.829c0.53-0.529,0.834-1.239,0.834-1.948v-2.736l0.237,0.173
							c1.35,0.939,2.155,2.505,2.153,4.192c0,1.344-0.555,2.671-1.522,3.64c-0.441,0.438-0.85,0.74-1.253,0.925
							c-0.123,0.056-0.21,0.157-0.256,0.274h-0.028v0.156c-0.001,0.023-0.002,0.045,0,0.068v17.479
							c-0.018,0.199,0.082,0.397,0.272,0.492c1.692,0.844,2.787,2.639,2.79,4.571c0,1.345-0.556,2.672-1.541,3.66
							c-0.218,0.216-0.375,0.372-0.623,0.538L58.94,2.903l-0.001-2.774c-0.058-0.76-0.364-1.469-0.841-1.945
							c-0.523-0.526-1.174-0.794-1.937-0.797c-1.478,0.001-2.774,1.299-2.774,2.777l-0.002,2.739l-0.237-0.172
							c-1.35-0.942-2.156-2.509-2.156-4.191c0-1.344,0.557-2.672,1.528-3.644c0.44-0.439,0.85-0.74,1.249-0.922
							c0.186-0.084,0.293-0.27,0.292-0.462h0.02l-0.019-17.563h-0.004c0-0.184-0.097-0.361-0.272-0.448
							c-1.696-0.846-2.793-2.639-2.795-4.555c0.046-1.665,0.857-3.24,2.167-4.212l0.228-0.166v2.773
							c0.058,0.756,0.365,1.464,0.844,1.943C54.76-28.187,55.41-27.919,56.161-27.919z"/>
						<path fill="#FFFFFF" d="M83.861-31.479l-0.312,2.261c-0.029,0.212,0.08,0.42,0.271,0.516c0.072,0.035,0.147,0.052,0.224,0.052
							c0.13,0,0.258-0.051,0.354-0.146l0.502-0.502c0.01,0.012,0.014,0.026,0.024,0.037l3.404,3.399
							c0.288,0.226,0.801,0.466,1.405,0.466c0.559,0,1.195-0.205,1.805-0.816l2.646-2.646c0.006-0.006,0.013-0.013,0.018-0.019
							l3.378-3.376c1.271-1.271,0.784-2.656,0.31-3.256l-4.062-4.062c-0.001-0.001-0.003-0.001-0.004-0.003L66.445-66.952
							c-0.188-0.188-0.52-0.188-0.707,0l-5.655,5.656c-0.13,0.13-0.178,0.319-0.126,0.495c0.052,0.176,0.194,0.309,0.373,0.348
							l1.729,0.375l-0.019,2.356c-0.002,0.257,0.191,0.474,0.446,0.501l2.04,0.219l-0.129,2.499
							c-0.015,0.265,0.181,0.495,0.444,0.523l2.038,0.221l-0.128,2.345c-0.015,0.255,0.167,0.48,0.419,0.521l2.188,0.353l-0.1,2.336
							c-0.01,0.25,0.166,0.469,0.412,0.513l1.992,0.354l0.048,2.389c0.005,0.246,0.188,0.452,0.433,0.485l1.973,0.267l-0.051,2.468
							c-0.004,0.262,0.193,0.484,0.455,0.508l2.028,0.188L76.402-38.6c-0.016,0.268,0.183,0.501,0.451,0.527l2.065,0.205
							l-0.048,2.415c-0.004,0.254,0.182,0.472,0.436,0.505l2.159,0.286l-0.163,2.466c-0.018,0.271,0.184,0.507,0.455,0.531
							L83.861-31.479z M97.141-34.851c0.07,0.096,0.67,0.954-0.267,1.891l-3.446,3.445c-0.006,0.006-0.013,0.013-0.019,0.019
							l-2.577,2.578c-0.938,0.939-1.794,0.338-1.841,0.309l-3.359-3.359c-0.011-0.011-0.025-0.015-0.037-0.024l1.245-1.245
							c0.013,0.016,0.019,0.035,0.033,0.049l1.945,1.94c0.192,0.151,0.535,0.312,0.937,0.312c0.364,0,0.777-0.132,1.169-0.526
							l3.422-3.422c0.826-0.826,0.502-1.738,0.174-2.15l-1.9-1.9c-0.015-0.015-0.033-0.021-0.05-0.033l1.226-1.225L97.141-34.851z
							 M87.53-31.928l4.349-4.349c0.013,0.016,0.019,0.035,0.033,0.049l1.859,1.855c0.029,0.037,0.273,0.375-0.133,0.781
							l-3.422,3.422c-0.365,0.368-0.674,0.212-0.736,0.174l-1.9-1.9C87.565-31.91,87.547-31.916,87.53-31.928z M79.88-35.88
							l0.048-2.43c0.006-0.26-0.191-0.481-0.451-0.507L77.43-39.02l0.145-2.435c0.016-0.27-0.184-0.503-0.453-0.528l-2.048-0.189
							l0.05-2.449c0.005-0.255-0.182-0.472-0.434-0.506l-1.988-0.27l-0.049-2.371c-0.004-0.238-0.178-0.44-0.411-0.482l-1.966-0.349
							l0.1-2.344c0.01-0.253-0.17-0.474-0.42-0.515l-2.182-0.352l0.129-2.369c0.016-0.265-0.18-0.496-0.444-0.524l-2.04-0.221
							l0.13-2.5c0.015-0.265-0.181-0.495-0.444-0.523l-2.061-0.221l0.018-2.31c0.002-0.237-0.164-0.443-0.394-0.493l-1.23-0.267
							l4.654-4.655l26.995,26.995l-8.342,8.342l0.181-1.307c0.019-0.135-0.019-0.273-0.104-0.38
							c-0.086-0.107-0.211-0.175-0.348-0.187l-2.139-0.189l0.161-2.445c0.017-0.262-0.173-0.494-0.435-0.528L79.88-35.88z"/>
						<path fill="#FFFFFF" d="M44.66-92.375c0,0.133,0.052,0.26,0.146,0.354l10.823,10.824c0.094,0.093,0.221,0.146,0.354,0.146
							c0.133,0,0.26-0.053,0.354-0.146l1.083-1.083l9.352,9.351c0.099,0.097,0.227,0.146,0.354,0.146s0.256-0.049,0.354-0.145
							l5.42-5.419c0.093-0.094,0.146-0.221,0.146-0.354c0-0.133-0.052-0.26-0.146-0.354l-3.441-3.44l1.254-1.255
							c0.195-0.195,0.195-0.512,0-0.707l-2.547-2.548c-0.188-0.188-0.52-0.188-0.707,0l-1.199,1.201l-1.338-3.857
							c-0.01-0.029-0.03-0.05-0.045-0.076l8.393-8.393c0.194-0.195,0.194-0.512,0-0.707l-10.823-10.823
							c-0.195-0.195-0.512-0.195-0.707,0L44.806-92.729C44.713-92.635,44.66-92.508,44.66-92.375z M67.812-85.945l1.84,1.84
							l-0.865,0.867l-1.84-1.84L67.812-85.945z M65.41-85.2c0.025,0.072,0.064,0.137,0.119,0.19l6.31,6.309l-4.713,4.712
							l-8.999-8.998l5.978-5.978L65.41-85.2z M62.093-108.6l10.115,10.116L55.983-82.258L45.866-92.375L62.093-108.6z"/>
						<path fill="#FFFFFF" d="M59.241-99.75c-0.195-0.195-0.512-0.195-0.707,0l-6.97,6.969c-0.195,0.195-0.195,0.512,0,0.707
							c0.098,0.097,0.226,0.146,0.354,0.146s0.256-0.049,0.353-0.146l6.97-6.969C59.436-99.238,59.436-99.555,59.241-99.75z"/>
						<path fill="#FFFFFF" d="M62.65-96.343c-0.195-0.195-0.512-0.195-0.708,0l-6.97,6.97c-0.195,0.195-0.195,0.512,0,0.707
							c0.098,0.097,0.226,0.146,0.354,0.146s0.256-0.048,0.353-0.146l6.97-6.97C62.846-95.831,62.846-96.148,62.65-96.343z"/>
						<path fill="#FFFFFF" d="M141.873-79.426c0.094,0.093,0.221,0.146,0.354,0.146s0.26-0.053,0.354-0.146l12.763-12.767
							c0.001,0,0.002-0.001,0.003-0.001l14.141-14.142c0.195-0.195,0.195-0.512,0-0.707c-0.194-0.195-0.512-0.195-0.707,0
							l-13.736,13.738c-0.001,0.001-0.002,0.001-0.003,0.002l-12.813,12.817L125.771-96.94c-0.194-0.195-0.512-0.195-0.707,0
							c-0.194,0.195-0.194,0.512,0,0.707L141.873-79.426z"/>
						<path fill="#FFFFFF" d="M165.846,106.787c-0.02-0.135-0.095-0.256-0.205-0.336l-1.197-0.854
							c-0.117-0.084-0.266-0.111-0.408-0.078l-3.366,0.815c-0.226,0.054-0.383,0.256-0.382,0.485l0.002,1.785
							c0,0.23,0.158,0.432,0.383,0.486l3.362,0.812c0.038,0.01,0.077,0.014,0.116,0.014c0.104,0,0.205-0.031,0.289-0.089
							l1.201-0.854c0.112-0.078,0.187-0.201,0.207-0.336l0.058-0.426h11.665v-1h-11.664L165.846,106.787z M164.889,108.281
							l-0.841,0.598l-2.759-0.666l-0.001-1.001l2.761-0.67l0.84,0.601l0.086,0.541L164.889,108.281z"/>
						<path fill="#FFFFFF" d="M121.756,120.417c-0.084-0.131-0.223-0.215-0.376-0.229l-2.649-0.237l-1.291-1.562
							c-0.119-0.145-0.314-0.207-0.492-0.168l-2.391,0.525l-1.259-1.738c-0.122-0.166-0.333-0.244-0.534-0.189l-2.846,0.763
							l-1.609-0.549c0.133-4.146-2.61-7.886-6.651-8.982c-3.048-0.825-6.233-0.026-8.531,2.136c-0.066,0.062-0.104,0.139-0.128,0.22
							c-1.479,0.41-2.838,1.189-3.954,2.304c-3.512,3.514-3.512,9.232,0,12.746c1.703,1.701,3.967,2.639,6.375,2.639
							c1.281,0,2.56-0.275,3.72-0.801l9.549,10.035c0.09,0.093,0.209,0.148,0.338,0.154l3.705,0.184
							c0.006,0.002,0.016,0.002,0.023,0.002c0.133,0,0.26-0.053,0.355-0.146c0.1-0.1,0.152-0.237,0.146-0.379l-0.183-3.703
							c-0.008-0.154-0.086-0.297-0.213-0.387l-2.18-1.525l-0.35-1.993c-0.032-0.187-0.164-0.337-0.344-0.394l-2.332-0.729
							l-0.228-2.136c-0.021-0.205-0.169-0.377-0.368-0.43l-2.847-0.756l-0.459-0.523c1.127-0.644,2.109-1.505,2.862-2.551
							l13.275,3.957c0.047,0.016,0.096,0.021,0.144,0.021c0.077,0,0.155-0.018,0.228-0.057l3.307-1.686
							c0.125-0.064,0.219-0.18,0.254-0.316c0.037-0.134,0.015-0.281-0.061-0.399L121.756,120.417z M103.809,126.018l2.659,0.705
							l0.226,2.119c0.021,0.197,0.158,0.363,0.348,0.424l2.355,0.738l0.332,1.9c0.021,0.131,0.097,0.246,0.205,0.322l2.149,1.506
							l0.144,2.908l-2.953-0.146l-9.568-10.053l-0.152-0.129c-0.154-0.127-0.369-0.155-0.548-0.063
							c-1.104,0.553-2.344,0.846-3.587,0.846c-2.143,0-4.154-0.834-5.668-2.346c-3.122-3.125-3.122-8.207,0-11.332
							c1.514-1.515,3.525-2.347,5.666-2.347s4.152,0.832,5.665,2.347c2.715,2.715,3.123,6.987,0.97,10.162
							c-0.128,0.187-0.111,0.438,0.038,0.608l1.472,1.676C103.625,125.939,103.711,125.993,103.809,126.018z M119.984,124.959
							l-13.309-3.965l-0.199-0.033c-0.192-0.029-0.391,0.053-0.5,0.217c-0.72,1.09-1.713,1.974-2.869,2.603
							c2.16-3.525,1.636-8.118-1.318-11.071c-1.701-1.701-3.965-2.639-6.372-2.639c-0.189,0-0.376,0.016-0.563,0.027
							c1.908-1.284,4.267-1.699,6.543-1.082c3.705,1.004,6.184,4.508,5.896,8.329c-0.017,0.229,0.122,0.438,0.338,0.513l2.111,0.721
							c0.093,0.033,0.194,0.035,0.29,0.01l2.66-0.713l1.248,1.727c0.117,0.16,0.324,0.236,0.514,0.195l2.412-0.533l1.23,1.486
							c0.084,0.102,0.206,0.166,0.34,0.18l2.612,0.234l1.573,2.449L119.984,124.959z"/>
						<path fill="#FFFFFF" d="M92.29,115.953c-0.537,0.537-0.833,1.25-0.832,2.01c0,0.756,0.295,1.467,0.83,2
							c0.534,0.535,1.245,0.83,2.002,0.83c0.759,0,1.474-0.295,2.009-0.832c0.534-0.535,0.828-1.246,0.828-2.002
							c0.001-0.758-0.295-1.469-0.83-2.004C95.229,114.885,93.359,114.883,92.29,115.953z M95.592,119.254
							c-0.693,0.695-1.904,0.697-2.597,0.002c-0.347-0.346-0.537-0.805-0.537-1.295c-0.001-0.49,0.19-0.953,0.539-1.301
							c0.346-0.346,0.806-0.537,1.295-0.537c0.491,0,0.951,0.191,1.298,0.539c0.348,0.346,0.537,0.807,0.537,1.297
							C96.127,118.447,95.938,118.908,95.592,119.254z"/>
						<path fill="#FFFFFF" d="M80.611,129.756l-10.343,10.345c-1.714-1.364-4.197-1.287-5.809,0.253l-2.014-2.015
							c-0.195-0.194-0.512-0.194-0.707,0l-16.934,16.933c-0.093,0.094-0.146,0.221-0.146,0.354s0.052,0.26,0.146,0.354
							l10.824,10.824c0.094,0.094,0.221,0.146,0.354,0.146c0.133,0,0.26-0.053,0.353-0.147l1.083-1.083l9.353,9.352
							c0.099,0.098,0.227,0.146,0.354,0.146s0.256-0.049,0.354-0.145l5.42-5.418c0.093-0.094,0.146-0.221,0.146-0.354
							c0-0.133-0.052-0.26-0.146-0.354l-3.441-3.44l1.254-1.256c0.195-0.194,0.195-0.513,0-0.707l-2.547-2.547
							c-0.188-0.188-0.52-0.188-0.707,0l-1.199,1.2l-1.338-3.856c-0.01-0.029-0.031-0.051-0.046-0.077l8.392-8.392
							c0.195-0.195,0.195-0.513,0-0.707l-2.545-2.545c1.54-1.61,1.617-4.096,0.253-5.811l10.343-10.345
							c0.195-0.195,0.195-0.512,0-0.707C81.124,129.561,80.807,129.561,80.611,129.756z M67.812,162.055l1.84,1.84l-0.865,0.867
							l-1.84-1.84L67.812,162.055z M65.41,162.8c0.025,0.072,0.064,0.136,0.119,0.191l6.31,6.309l-4.713,4.711l-9-8.999l5.979-5.979
							L65.41,162.8z M72.208,149.518l-16.225,16.225l-10.117-10.117L62.093,139.4L72.208,149.518z M70.016,145.91l-4.849-4.85
							c1.345-1.269,3.467-1.252,4.784,0.065C71.269,142.442,71.285,144.565,70.016,145.91z"/>
						<path fill="#FFFFFF" d="M59.241,148.25c-0.195-0.195-0.512-0.195-0.707,0l-6.97,6.969c-0.195,0.195-0.195,0.512,0,0.707
							c0.098,0.098,0.226,0.146,0.354,0.146s0.256-0.049,0.353-0.146l6.97-6.969C59.436,148.762,59.436,148.445,59.241,148.25z"/>
						<path fill="#FFFFFF" d="M54.973,158.627c-0.195,0.195-0.195,0.512,0,0.707c0.098,0.098,0.226,0.146,0.354,0.146
							s0.256-0.049,0.353-0.146l6.97-6.969c0.195-0.195,0.195-0.512,0-0.707s-0.512-0.195-0.708,0L54.973,158.627z"/>
						<path fill="#FFFFFF" d="M86.417,63.559c0.054,0.164,0.19,0.287,0.358,0.327c0.039,0.009,0.078,0.015,0.115,0.015
							c0.131,0,0.258-0.053,0.354-0.146l2.889-2.889l17.057,17.055c0.098,0.098,0.226,0.146,0.354,0.146s0.256-0.049,0.354-0.146
							l4.732-4.732c0.002-0.002,0.004-0.002,0.006-0.004l6.414-6.412c0.004-0.004,0.005-0.009,0.009-0.013l12.124-12.125
							c0.092-0.094,0.146-0.221,0.146-0.354c0-0.133-0.052-0.26-0.146-0.354l-17.055-17.055l2.887-2.887
							c0.123-0.123,0.172-0.301,0.133-0.469c-0.039-0.169-0.164-0.304-0.328-0.359l-10.65-3.552c-0.18-0.062-0.377-0.013-0.512,0.12
							l-2.809,2.809l-1.943-1.943c-0.194-0.195-0.512-0.195-0.706,0l-3.863,3.863c-0.194,0.195-0.194,0.512,0,0.707l1.942,1.942
							L94.17,41.21c-0.002,0.001-0.002,0.004-0.004,0.006l-11.18,11.177c-0.133,0.135-0.18,0.332-0.12,0.512L86.417,63.559z
							 M112.281,72.121L101.83,61.669l5.705-5.707l10.452,10.453L112.281,72.121z M130.121,54.281l-11.427,11.427l-10.806-10.806
							c-0.187-0.188-0.519-0.188-0.707,0l-6.412,6.414c-0.194,0.195-0.194,0.512,0,0.707l10.805,10.805l-4.031,4.031L90.84,60.158
							l2.019-2.019l10.085-10.085l10.476-10.475L130.121,54.281z M97.396,34.806l3.155-3.156l1.59,1.589l-3.156,3.156L97.396,34.806
							z M95.178,41.618c0.002-0.002,0.002-0.004,0.004-0.006l4.153-4.152c0.001-0.001,0.003-0.002,0.004-0.003l3.863-3.863
							c0.001-0.001,0.001-0.002,0.002-0.002l2.94-2.94l9.59,3.198l-2.66,2.661c-0.003,0.003-0.007,0.003-0.01,0.006L89.779,59.803
							c-0.001,0.001-0.001,0.002-0.002,0.003l-2.668,2.668l-3.197-9.591L95.178,41.618z"/>
						<path fill="#FFFFFF" d="M110.139,52.153c0,0.133,0.051,0.26,0.146,0.354l6.309,6.307c0.099,0.097,0.226,0.146,0.354,0.146
							c0.128,0,0.256-0.048,0.353-0.147l4.289-4.289c0.195-0.195,0.195-0.512,0-0.707l-6.307-6.309
							c-0.195-0.195-0.513-0.195-0.707,0l-4.291,4.291C110.191,51.893,110.139,52.02,110.139,52.153z M114.93,48.57l5.6,5.602
							l-3.581,3.582l-5.603-5.6L114.93,48.57z"/>
						<path fill="#FFFFFF" d="M112.499,100.52l7.258-7.257l19.17,19.167l4.361-4.361l-19.169-19.169l5.5-5.499l-6.186-6.184
							l-5.406,5.404l-1.715-1.714c-0.188-0.188-0.52-0.188-0.707,0l-3.84,3.84c-0.195,0.194-0.195,0.512,0,0.707l1.865,1.867
							l-4.156,10.172L112.499,100.52z M141.874,108.068l-2.947,2.947l-18.463-18.46l1.527-1.528l1.422-1.42L141.874,108.068z
							 M112.825,85.1l3.133-3.133l1.362,1.361l-3.135,3.135L112.825,85.1z M114.62,87.443l2.619-2.62l6.194-6.193l4.771,4.771
							l-7.7,7.7l-1.455,1.454l-6.55,6.551l-1.851-1.852L114.62,87.443z"/>
						<path fill="#FFFFFF" d="M168.55,135.713l-17.495-17.494c-0.92-0.922-2.144-1.428-3.443-1.428
							c-1.301,0-2.524,0.506-3.444,1.428c-1.778,1.778-1.869,4.589-0.319,6.499l-18.998,18.999c-0.176,0.176-0.185,0.444-0.045,0.64
							v6.944c0,0.156,0.085,0.292,0.207,0.387c0.018,0.026,0.029,0.057,0.053,0.08l16.809,16.808
							c0.094,0.093,0.221,0.146,0.354,0.146s0.26-0.053,0.353-0.146l12.765-12.769c0-0.001,0.001-0.001,0.002-0.002l13.198-13.198
							c0.002-0.002,0.004-0.003,0.006-0.005s0.003-0.004,0.005-0.006l0.932-0.932c0.156-0.156,0.182-0.389,0.087-0.576
							c0.261-0.603,0.403-1.256,0.403-1.932C169.977,137.855,169.471,136.631,168.55,135.713z M144.873,118.926
							c1.463-1.463,4.012-1.463,5.475,0l15.426,15.425c-0.221-0.03-0.441-0.065-0.668-0.065c-1.301,0-2.523,0.508-3.442,1.426
							c-0.921,0.922-1.429,2.145-1.429,3.445c0,0.228,0.035,0.448,0.065,0.67L144.873,124.4c-0.001-0.001-0.002-0.001-0.002-0.001
							C143.363,122.889,143.363,120.436,144.873,118.926z M125.805,145.104l3.971,2.636l-3.971,2.631V145.104z M155.043,154.693
							c-0.001,0.001-0.002,0.001-0.003,0.002l-12.813,12.818l-16.135-16.134l4.865-3.224c0.141-0.094,0.225-0.25,0.225-0.418
							s-0.084-0.324-0.225-0.416l-4.987-3.312l18.55-18.55l17.142,17.141c0.919,0.92,2.142,1.426,3.442,1.426
							c0.228,0,0.449-0.035,0.671-0.065L155.043,154.693z M167.853,141.884l-0.019,0.019c-1.465,1.452-4.008,1.452-5.466-0.008
							c-0.732-0.73-1.134-1.703-1.134-2.738c0-1.033,0.404-2.006,1.136-2.736c0.729-0.732,1.702-1.135,2.735-1.135
							s2.001,0.401,2.732,1.13l0.005,0.005c0.001,0.001,0.001,0.001,0.002,0.001c0.731,0.73,1.134,1.703,1.134,2.735
							C168.977,140.187,168.577,141.152,167.853,141.884z"/>
						<path fill="#FFFFFF" d="M176.139,55.718l-5.203-5.205c-0.095-0.093-0.222-0.146-0.354-0.146c-0.134,0-0.261,0.052-0.354,0.146
							l-2.186,2.185l-4.852-4.85c-0.194-0.195-0.512-0.195-0.707,0l-2.145,2.144l-4.854-4.853c-0.194-0.195-0.512-0.195-0.707,0
							l-8.733,8.735l-0.358-0.148c-0.185-0.078-0.399-0.035-0.543,0.108c-0.143,0.143-0.186,0.357-0.108,0.545l0.147,0.357
							l-2.949,2.95c-0.002,0.002-0.003,0.005-0.005,0.007c0,0-0.001,0-0.001,0.001l-12.545,12.544c-0.195,0.195-0.195,0.513,0,0.707
							l5.205,5.205c0.094,0.094,0.221,0.146,0.354,0.146s0.26-0.053,0.354-0.146l2.145-2.145l4.853,4.852
							c0.095,0.094,0.222,0.146,0.354,0.146s0.26-0.053,0.353-0.146l2.186-2.187l4.851,4.851c0.098,0.098,0.227,0.146,0.354,0.146
							c0.129,0,0.256-0.049,0.354-0.146l3.668-3.666l1.268,3.076c0.062,0.154,0.199,0.268,0.363,0.301
							c0.033,0.006,0.066,0.01,0.098,0.01c0.131,0,0.26-0.053,0.354-0.148l7.45-7.45l1.799,1.798
							c-0.892,1.262-0.719,3.088,0.493,4.302l2.288,2.284l2.283,2.287c0.707,0.705,1.621,1.061,2.514,1.061
							c0.805,0,1.59-0.291,2.18-0.881c1.245-1.246,1.165-3.352-0.178-4.695l-2.286-2.285c-0.002-0.002-0.004-0.002-0.006-0.004
							l-2.28-2.281c-1.211-1.214-3.041-1.384-4.301-0.494l-1.799-1.798l7.453-7.454c0.119-0.116,0.171-0.287,0.138-0.45
							c-0.032-0.164-0.146-0.302-0.3-0.365l-3.076-1.268l6.975-6.975C176.333,56.23,176.333,55.913,176.139,55.718z M167.062,75.757
							c0.854-0.853,2.326-0.774,3.279,0.179l2.286,2.287c0.002,0.002,0.004,0.002,0.006,0.004l2.28,2.279
							c0.953,0.953,1.031,2.424,0.178,3.281c-0.854,0.852-2.324,0.771-3.279-0.18l-2.283-2.287l-2.288-2.284
							C166.289,78.083,166.208,76.611,167.062,75.757z M162.836,48.909l4.498,4.497l-6.543,6.542l-6.372-2.625L162.836,48.909z
							 M155.131,46.2l4.497,4.498l-6.212,6.212l-6.371-2.625L155.131,46.2z M145.594,55.738l2.624,6.372l-0.427,0.428l-4.499-4.497
							L145.594,55.738z M137.384,72.943c-0.002,0.002-0.003,0.006-0.005,0.008l-2.139,2.139l-4.497-4.498l11.837-11.839l4.496,4.499
							L137.384,72.943z M145.129,75.609c-0.001,0.001-0.002,0.003-0.003,0.004l-2.183,2.184l-4.498-4.498l9.691-9.691
							c0.002-0.002,0.002-0.005,0.004-0.006l0.003-0.004c0.001,0,0.001,0,0.001,0l0.486-0.486l2.626,6.37l-2.321,2.322
							L145.129,75.609z M150.688,80.462l-4.498-4.497l3.043-3.044l2.438-2.438l2.626,6.371L150.688,80.462z M171.165,65.307
							l-6.924,6.922l-2.308-2.307c-0.195-0.195-0.512-0.195-0.707,0c-0.194,0.195-0.194,0.512,0,0.707l2.308,2.307l-6.921,6.92
							l-1.263-3.063c-0.003-0.006-0.005-0.011-0.007-0.017l-3.033-7.357c-0.001-0.002-0.001-0.005-0.002-0.007V69.41l-3.039-7.371
							v-0.001c0,0-0.001-0.001-0.001-0.001l-2.854-6.93l6.918,2.851c0.01,0.004,0.019,0.008,0.028,0.011L160.716,61
							c0.003,0.001,0.006,0.002,0.009,0.003l7.355,3.032c0.007,0.003,0.014,0.006,0.021,0.009L171.165,65.307z M168.162,62.986
							l-6.368-2.624l6.603-6.602c0.003-0.003,0.004-0.007,0.007-0.01l2.177-2.177l4.496,4.498L168.162,62.986z"/>
						<path fill="#FFFFFF" d="M60.511,99.282c1.154-1.157,1.816-2.741,1.816-4.349c0.002-2.014-0.963-3.887-2.573-5.006
							l-1.022-0.746c-0.153-0.108-0.354-0.125-0.521-0.041c-0.168,0.086-0.273,0.258-0.273,0.445v3.719
							c0,0.445-0.197,0.898-0.54,1.24c-0.341,0.342-0.792,0.537-1.236,0.537c0,0-0.001,0-0.002,0c-0.492,0-0.882-0.16-1.228-0.504
							c-0.312-0.312-0.513-0.791-0.552-1.273l0.002-3.721c0-0.188-0.105-0.359-0.273-0.445c-0.167-0.084-0.37-0.068-0.521,0.041
							l-1.025,0.75c-1.556,1.154-2.518,3.021-2.574,5.004c0.002,2.197,1.204,4.234,3.073,5.299l0.007,6.98H41.906l-0.061-0.426
							c-0.019-0.135-0.094-0.256-0.205-0.336l-1.197-0.854c-0.116-0.084-0.263-0.111-0.408-0.078l-3.366,0.815
							c-0.225,0.054-0.383,0.256-0.382,0.485l0.002,1.785c0,0.23,0.158,0.432,0.383,0.486l3.362,0.812
							c0.038,0.01,0.078,0.014,0.117,0.014c0.103,0,0.204-0.031,0.289-0.089l1.201-0.854c0.112-0.078,0.186-0.201,0.206-0.336
							l0.058-0.426H53.07l0.01,8.994c-0.417,0.229-0.834,0.55-1.266,0.98c-1.158,1.16-1.822,2.746-1.822,4.352
							c0,2.01,0.966,3.883,2.576,5.006l1.022,0.742c0.087,0.064,0.19,0.096,0.294,0.096c0.077,0,0.155-0.018,0.23-0.055
							c0.168-0.084,0.273-0.256,0.273-0.445l0.003-3.719c0-0.93,0.845-1.775,1.772-1.777c0.5,0.002,0.89,0.162,1.23,0.504
							c0.311,0.311,0.512,0.789,0.55,1.275v3.717c0,0.188,0.105,0.359,0.272,0.445c0.169,0.086,0.37,0.07,0.521-0.041l1.006-0.73
							c0.312-0.209,0.518-0.412,0.777-0.67c1.153-1.156,1.815-2.742,1.815-4.35c-0.003-2.195-1.2-4.233-3.062-5.298v-9.026h1.062
							l0.05,0.999c0.002,0.823,0.281,1.517,0.827,2.06c0.529,0.53,1.224,0.836,1.907,0.836c0.064,0,0.13-0.002,0.152-0.006h10.804
							c0.819-0.004,1.513-0.283,2.062-0.834c0.587-0.588,0.892-1.375,0.823-2.055v-2.729c0.002-0.816-0.275-1.51-0.826-2.062
							c-0.533-0.529-1.223-0.834-1.895-0.834c-0.071,0-0.143,0.004-0.166,0.008l-10.803-0.002c-1.526,0.002-2.875,1.342-2.943,2.945
							l0,0.674h-1.056v-6.962C59.681,100.02,60.089,99.702,60.511,99.282z M40.888,108.281l-0.84,0.598l-2.759-0.666l-0.001-1.001
							l2.761-0.67l0.84,0.601l0.085,0.541L40.888,108.281z M61.326,106.561c0.045-1.047,0.955-1.965,1.945-1.967v0.002h10.847
							c0.464-0.035,0.93,0.159,1.307,0.534c0.36,0.361,0.535,0.804,0.533,1.354l0.002,2.777c0.044,0.437-0.155,0.922-0.533,1.301
							c-0.36,0.359-0.805,0.537-1.356,0.539l-10.844,0.002l-0.11,0.004c-0.418,0-0.854-0.196-1.2-0.543
							c-0.357-0.355-0.531-0.799-0.534-1.379l-0.056-1.104V106.561z M58.555,99.498c-0.124,0.057-0.211,0.158-0.257,0.275h-0.027
							v0.154c-0.001,0.023-0.002,0.045,0,0.068v17.478c-0.018,0.199,0.082,0.398,0.272,0.493c1.692,0.846,2.787,2.639,2.79,4.572
							c0,1.344-0.556,2.672-1.541,3.658c-0.218,0.217-0.375,0.373-0.623,0.539l-0.229,0.166l-0.001-2.773
							c-0.058-0.759-0.364-1.468-0.841-1.945c-0.523-0.525-1.174-0.793-1.937-0.797c-1.478,0.002-2.774,1.299-2.774,2.777
							l-0.002,2.738l-0.237-0.172c-1.35-0.941-2.156-2.51-2.156-4.191c0-1.344,0.557-2.672,1.528-3.643
							c0.44-0.44,0.85-0.74,1.249-0.922c0.186-0.086,0.294-0.271,0.292-0.463h0.02l-0.019-17.564h-0.005
							c-0.001-0.183-0.098-0.358-0.272-0.445c-1.696-0.846-2.793-2.639-2.795-4.555c0.046-1.666,0.857-3.24,2.167-4.213l0.228-0.166
							v2.772c0.058,0.755,0.365,1.464,0.844,1.943c0.532,0.528,1.182,0.797,1.933,0.797c0.002,0,0.003,0,0.004,0
							c0.706,0,1.414-0.304,1.941-0.828c0.53-0.528,0.834-1.239,0.834-1.948v-2.736l0.237,0.174c1.35,0.938,2.155,2.505,2.153,4.191
							c0,1.344-0.555,2.672-1.522,3.641C59.367,99.012,58.958,99.314,58.555,99.498z"/>
						<path fill="#FFFFFF" d="M89.734,98.604c0.559,0,1.195-0.205,1.805-0.815l2.646-2.646c0.006-0.007,0.013-0.013,0.018-0.021
							l3.378-3.375c1.271-1.272,0.784-2.656,0.31-3.256l-3.738-3.737c-0.003-0.003-0.003-0.006-0.006-0.009L66.445,57.043
							c-0.188-0.188-0.52-0.188-0.707,0L60.083,62.7c-0.13,0.129-0.178,0.317-0.126,0.493c0.052,0.177,0.194,0.31,0.373,0.349
							l1.729,0.375l-0.019,2.356c-0.002,0.256,0.191,0.474,0.446,0.5l2.04,0.22l-0.129,2.5c-0.015,0.263,0.181,0.493,0.444,0.522
							l2.038,0.221l-0.128,2.345c-0.015,0.255,0.167,0.479,0.419,0.521l2.188,0.354l-0.1,2.336c-0.01,0.25,0.166,0.469,0.412,0.515
							l1.992,0.354l0.048,2.389c0.005,0.246,0.188,0.451,0.433,0.484l1.973,0.268l-0.051,2.469
							c-0.004,0.263,0.193,0.485,0.455,0.508l2.028,0.188l-0.146,2.433c-0.016,0.269,0.183,0.502,0.451,0.526l2.065,0.205
							l-0.048,2.416c-0.004,0.254,0.182,0.472,0.436,0.504l2.159,0.287l-0.163,2.465c-0.018,0.271,0.184,0.509,0.455,0.531
							l2.104,0.187l-0.312,2.262c-0.029,0.213,0.08,0.42,0.271,0.516c0.072,0.035,0.147,0.053,0.224,0.053
							c0.13,0,0.258-0.051,0.354-0.149l0.5-0.5c0.011,0.012,0.015,0.027,0.026,0.039l3.404,3.399
							C88.617,98.364,89.13,98.604,89.734,98.604z M84.744,93.443l0.181-1.307c0.019-0.135-0.019-0.273-0.104-0.379
							c-0.086-0.107-0.211-0.176-0.348-0.188l-2.139-0.189l0.161-2.443c0.017-0.264-0.173-0.494-0.435-0.529l-2.181-0.287
							l0.048-2.43c0.006-0.262-0.191-0.483-0.451-0.508L77.43,84.98l0.145-2.437c0.016-0.269-0.184-0.502-0.453-0.526l-2.048-0.189
							l0.05-2.449c0.005-0.254-0.182-0.471-0.434-0.506l-1.988-0.27l-0.049-2.371c-0.004-0.238-0.178-0.439-0.411-0.48l-1.966-0.35
							l0.1-2.344c0.01-0.254-0.17-0.476-0.42-0.517l-2.182-0.353l0.129-2.369c0.016-0.264-0.18-0.495-0.444-0.522l-2.04-0.221
							l0.13-2.5c0.015-0.265-0.181-0.494-0.444-0.522l-2.061-0.222l0.018-2.312c0.002-0.235-0.164-0.44-0.394-0.492l-1.23-0.268
							l4.654-4.655l26.995,26.995L84.744,93.443z M91.912,87.773l1.859,1.855c0.029,0.037,0.273,0.375-0.133,0.781l-3.422,3.422
							c-0.365,0.367-0.674,0.211-0.736,0.174l-1.9-1.9c-0.016-0.016-0.035-0.021-0.053-0.034l4.35-4.35
							C91.891,87.738,91.896,87.758,91.912,87.773z M85.593,94.006l1.245-1.245c0.014,0.017,0.02,0.036,0.035,0.052l1.945,1.939
							c0.192,0.15,0.535,0.312,0.937,0.312c0.364,0,0.777-0.133,1.169-0.525l3.422-3.422c0.826-0.828,0.502-1.74,0.174-2.15
							l-1.9-1.9c-0.016-0.016-0.035-0.021-0.053-0.034l1.226-1.226l3.349,3.344c0.07,0.094,0.67,0.953-0.267,1.891l-3.446,3.445
							c-0.006,0.006-0.013,0.012-0.019,0.018l-2.577,2.578c-0.938,0.938-1.794,0.338-1.841,0.309l-3.359-3.358
							C85.62,94.021,85.605,94.017,85.593,94.006z"/>
						<path fill="#FFFFFF" d="M59.241,24.25c-0.195-0.195-0.512-0.195-0.707,0l-6.97,6.969c-0.195,0.195-0.195,0.512,0,0.707
							c0.098,0.097,0.226,0.146,0.354,0.146s0.256-0.049,0.353-0.146l6.97-6.969C59.436,24.762,59.436,24.445,59.241,24.25z"/>
						<path fill="#FFFFFF" d="M54.973,34.627c-0.195,0.195-0.195,0.512,0,0.707c0.098,0.097,0.226,0.146,0.354,0.146
							s0.256-0.049,0.353-0.146l6.97-6.969c0.195-0.195,0.195-0.512,0-0.707c-0.195-0.195-0.512-0.195-0.708,0L54.973,34.627z"/>
						<path fill="#FFFFFF" d="M-22.343-15.952c-3.046-0.824-6.233-0.026-8.531,2.135c-0.066,0.062-0.104,0.14-0.128,0.221
							c-1.479,0.41-2.838,1.19-3.954,2.305c-3.512,3.514-3.512,9.231,0,12.745c1.703,1.702,3.967,2.64,6.375,2.64
							c1.281,0,2.559-0.277,3.72-0.802l9.549,10.036c0.089,0.093,0.209,0.149,0.338,0.155l3.704,0.184c0.007,0,0.016,0,0.024,0
							c0.132,0,0.26-0.052,0.355-0.146c0.1-0.1,0.153-0.237,0.146-0.378l-0.183-3.704c-0.007-0.154-0.086-0.296-0.212-0.385
							l-2.181-1.526l-0.349-1.995c-0.032-0.184-0.164-0.335-0.343-0.391l-2.333-0.732l-0.227-2.134
							c-0.021-0.206-0.169-0.378-0.369-0.431l-2.846-0.755l-0.459-0.524c1.127-0.644,2.11-1.504,2.863-2.55l13.276,3.958
							c0.047,0.014,0.095,0.021,0.143,0.021c0.078,0,0.156-0.018,0.227-0.057l3.307-1.687c0.125-0.064,0.219-0.179,0.255-0.315
							c0.037-0.136,0.014-0.282-0.062-0.401l-2.005-3.12C-2.328-3.716-2.467-3.8-2.62-3.814l-2.649-0.238l-1.292-1.56
							C-6.68-5.756-6.875-5.82-7.053-5.781l-2.39,0.527l-1.259-1.738c-0.121-0.168-0.332-0.244-0.534-0.189l-2.846,0.761
							l-1.609-0.549C-15.558-11.116-18.302-14.855-22.343-15.952z M-20.192,2.017l2.66,0.706l0.225,2.118
							c0.021,0.198,0.158,0.364,0.348,0.424l2.355,0.739l0.332,1.899c0.022,0.131,0.097,0.248,0.205,0.324l2.15,1.505l0.144,2.908
							l-2.953-0.146l-9.569-10.053l-0.152-0.129c-0.153-0.128-0.368-0.155-0.548-0.065c-1.104,0.554-2.344,0.846-3.587,0.846
							c-2.142,0-4.154-0.834-5.668-2.347c-3.122-3.124-3.122-8.207,0-11.331c1.514-1.514,3.526-2.347,5.666-2.347
							c2.141,0,4.152,0.834,5.665,2.347c2.715,2.715,3.123,6.988,0.97,10.162c-0.128,0.188-0.112,0.439,0.038,0.61l1.471,1.676
							C-20.375,1.938-20.289,1.992-20.192,2.017z M-13.969-5.412l2.66-0.712l1.249,1.726c0.117,0.162,0.325,0.238,0.513,0.195
							l2.412-0.532l1.23,1.485c0.085,0.102,0.207,0.167,0.34,0.178l2.613,0.235l1.573,2.45l-2.636,1.345l-13.309-3.964l-0.2-0.033
							c-0.19-0.028-0.39,0.053-0.499,0.217c-0.72,1.088-1.713,1.973-2.869,2.602c2.158-3.527,1.634-8.119-1.319-11.071
							c-1.701-1.702-3.965-2.64-6.372-2.64c-0.189,0-0.375,0.016-0.562,0.027c1.908-1.284,4.267-1.699,6.542-1.082
							c3.705,1.006,6.184,4.51,5.896,8.332c-0.016,0.227,0.122,0.437,0.338,0.511l2.111,0.721
							C-14.166-5.39-14.065-5.387-13.969-5.412z"/>
						<path fill="#FFFFFF" d="M-31.71-8.048c-0.537,0.537-0.833,1.251-0.832,2.01c0,0.756,0.295,1.467,0.83,2
							c0.534,0.536,1.245,0.831,2.002,0.831c0.759,0,1.473-0.296,2.009-0.834c0.534-0.534,0.828-1.244,0.828-2.001
							c0.001-0.757-0.295-1.469-0.83-2.004C-28.772-9.116-30.64-9.116-31.71-8.048z M-28.408-4.746
							c-0.694,0.695-1.904,0.698-2.597,0.002c-0.347-0.345-0.537-0.804-0.537-1.294c-0.001-0.491,0.191-0.954,0.539-1.302
							c0.346-0.346,0.806-0.536,1.295-0.536c0.491,0,0.951,0.193,1.298,0.539c0.347,0.346,0.537,0.807,0.537,1.297
							C-27.873-5.551-28.062-5.091-28.408-4.746z"/>
						<path fill="#FFFFFF" d="M-42.681,5.756c-0.195-0.195-0.512-0.195-0.707,0L-53.731,16.1c-1.714-1.364-4.199-1.287-5.81,0.253
							l-2.013-2.014c-0.195-0.195-0.512-0.195-0.707,0l-16.934,16.931c-0.093,0.094-0.146,0.221-0.146,0.354s0.052,0.26,0.146,0.354
							l10.824,10.824c0.094,0.093,0.221,0.146,0.354,0.146c0.133,0,0.26-0.053,0.353-0.146l1.084-1.083l9.352,9.35
							c0.098,0.097,0.226,0.146,0.354,0.146s0.256-0.049,0.354-0.145l5.42-5.418c0.093-0.094,0.146-0.221,0.146-0.354
							c0-0.133-0.052-0.26-0.146-0.354l-3.441-3.441l1.254-1.255c0.195-0.195,0.195-0.512,0-0.707l-2.547-2.547
							c-0.187-0.188-0.519-0.188-0.707,0l-1.2,1.2l-1.337-3.856c-0.01-0.029-0.03-0.05-0.045-0.076l8.391-8.391
							c0.195-0.195,0.195-0.512,0-0.707l-2.546-2.546c1.542-1.61,1.618-4.095,0.254-5.811l10.343-10.344
							C-42.486,6.268-42.486,5.951-42.681,5.756z M-56.187,38.054l1.84,1.84l-0.866,0.867l-1.84-1.84L-56.187,38.054z M-58.59,38.8
							c0.025,0.071,0.065,0.136,0.119,0.19l6.31,6.309l-4.713,4.711l-8.999-8.997l5.978-5.978L-58.59,38.8z M-51.792,25.517
							l-16.225,16.225l-10.117-10.117L-61.907,15.4L-51.792,25.517z M-53.985,21.911l-4.849-4.85
							c1.346-1.27,3.467-1.252,4.785,0.064C-52.731,18.441-52.715,20.566-53.985,21.911z"/>
						<path fill="#FFFFFF" d="M-37.583-60.443c0.054,0.165,0.191,0.289,0.359,0.329c0.038,0.009,0.077,0.013,0.115,0.013
							c0.13,0,0.258-0.051,0.353-0.147l2.888-2.888l17.057,17.056c0.098,0.097,0.226,0.146,0.354,0.146s0.256-0.048,0.353-0.146
							l4.738-4.738c0,0,0,0,0,0l6.414-6.412c0.002-0.002,0.003-0.005,0.005-0.007L7.181-69.366c0.093-0.094,0.146-0.221,0.146-0.354
							c0-0.133-0.052-0.26-0.146-0.354L-9.875-87.129l2.887-2.887c0.123-0.122,0.173-0.3,0.133-0.468
							c-0.039-0.169-0.164-0.304-0.328-0.359l-10.65-3.552c-0.18-0.06-0.377-0.012-0.512,0.121l-2.807,2.807l-1.943-1.943
							c-0.195-0.195-0.512-0.195-0.707,0l-3.863,3.863c-0.195,0.195-0.195,0.512,0,0.707l1.943,1.943l-4.109,4.109
							c-0.001,0.001-0.001,0.003-0.003,0.004l-11.179,11.178c-0.134,0.134-0.181,0.332-0.121,0.512L-37.583-60.443z M-10.333-53.266
							l-1.386,1.386L-22.17-62.331l5.705-5.706l10.452,10.452L-10.333-53.266z M6.121-69.72L-5.305-58.293l-10.806-10.805
							c-0.187-0.188-0.519-0.188-0.707,0l-6.412,6.413c-0.195,0.195-0.195,0.512,0,0.707l10.804,10.806l-4.031,4.031L-33.16-63.843
							l22.578-22.579L6.121-69.72z M-26.604-89.194l3.156-3.156l1.59,1.589l-3.156,3.156L-26.604-89.194z M-28.822-82.382
							c0.001-0.001,0.001-0.003,0.003-0.004l4.155-4.155c0.001-0.001,0.002-0.001,0.003-0.002l3.863-3.863
							c0.001-0.001,0.001-0.002,0.002-0.003l2.94-2.94l9.59,3.198l-2.664,2.664c-0.002,0.002-0.004,0.002-0.006,0.004
							l-23.285,23.286c0,0,0,0.001-0.001,0.001l-2.669,2.669l-3.197-9.59L-28.822-82.382z"/>
						<path fill="#FFFFFF" d="M-13.862-71.847c0,0.133,0.052,0.26,0.146,0.354l6.309,6.307c0.098,0.097,0.226,0.146,0.354,0.146
							c0.128,0,0.256-0.049,0.353-0.147l4.289-4.289c0.195-0.195,0.195-0.512,0-0.707l-6.307-6.308
							c-0.195-0.195-0.512-0.195-0.707,0l-4.291,4.29C-13.809-72.107-13.862-71.98-13.862-71.847z M-9.07-75.43l5.6,5.601
							l-3.582,3.582l-5.602-5.6L-9.07-75.43z"/>
						<path fill="#FFFFFF" d="M-11.501-23.481l7.257-7.257l19.17,19.168l4.361-4.361L0.119-35.101l5.5-5.5l-6.185-6.183
							l-5.406,5.405l-1.715-1.715c-0.187-0.188-0.519-0.188-0.707,0l-3.84,3.841c-0.195,0.195-0.195,0.512,0,0.707l1.866,1.867
							l-4.157,10.172L-11.501-23.481z M17.874-15.931l-2.947,2.947L-3.537-31.445l0.983-0.983l1.967-1.965L17.874-15.931z
							 M-11.175-38.9l3.133-3.134l1.362,1.362l-3.134,3.134L-11.175-38.9z M-9.38-36.557l3.761-3.761
							c0.001-0.001,0.001-0.002,0.002-0.003l5.05-5.049l4.771,4.77l-8.064,8.064l-1.091,1.09l0,0l-6.55,6.55l-1.85-1.851
							L-9.38-36.557z"/>
						<path fill="#FFFFFF" d="M44.555,11.718c-0.001-0.002-0.002-0.004-0.004-0.006L27.056-5.782
							c-0.001-0.001-0.003-0.002-0.005-0.003c-0.92-0.917-2.141-1.423-3.44-1.423c-1.3,0-2.524,0.507-3.444,1.427
							c-1.778,1.779-1.869,4.589-0.319,6.5l-18.999,19c-0.176,0.176-0.185,0.446-0.044,0.641V27.3c0,0.156,0.084,0.292,0.206,0.386
							c0.018,0.027,0.03,0.058,0.054,0.082l16.808,16.807c0.094,0.093,0.221,0.146,0.354,0.146c0.132,0,0.259-0.053,0.353-0.146
							l12.762-12.768c0.001-0.001,0.003-0.001,0.004-0.002L44.55,18.601l0.937-0.937c0.157-0.157,0.182-0.39,0.086-0.577
							c0.261-0.602,0.403-1.254,0.404-1.93C45.977,13.857,45.472,12.636,44.555,11.718z M20.873-5.075
							c1.463-1.463,4.012-1.463,5.475,0c0.001,0.001,0.002,0.001,0.003,0.002l15.424,15.425c-0.222-0.03-0.442-0.065-0.669-0.065
							c-1.301,0-2.524,0.507-3.443,1.426c-0.921,0.92-1.428,2.143-1.429,3.445c0,0.227,0.035,0.447,0.065,0.668L20.873,0.399
							c-0.001-0.001-0.003-0.001-0.004-0.002C19.363-1.113,19.365-3.566,20.873-5.075z M1.805,21.103l3.971,2.635L1.805,26.37
							V21.103z M31.044,30.692c-0.001,0.001-0.003,0.001-0.004,0.003L18.226,43.513L2.091,27.379l4.866-3.225
							c0.14-0.094,0.224-0.25,0.224-0.418c0-0.167-0.084-0.323-0.224-0.416l-4.988-3.31L20.52,1.459l17.142,17.143
							c0.002,0.002,0.004,0.002,0.006,0.004c0.918,0.917,2.139,1.422,3.437,1.422c0.228,0,0.449-0.035,0.67-0.065L31.044,30.692z
							 M43.849,17.888l-0.01,0.01c-1.463,1.456-4.011,1.457-5.47-0.004c-0.732-0.73-1.134-1.703-1.134-2.737
							c0-1.034,0.404-2.007,1.136-2.738c0.73-0.731,1.702-1.133,2.736-1.133c1.033,0,2.001,0.401,2.732,1.128l0.004,0.004
							c0,0,0.001,0.001,0.002,0.001c0.732,0.731,1.133,1.702,1.133,2.736C44.977,16.188,44.576,17.158,43.849,17.888z"/>
						<path fill="#FFFFFF" d="M18.228-66.307c0,0-0.001,0-0.001,0.001L5.682-53.762c-0.195,0.195-0.195,0.512,0,0.707l5.204,5.205
							c0.094,0.093,0.221,0.146,0.354,0.146c0.133,0,0.26-0.053,0.354-0.147l2.144-2.144l4.853,4.852
							c0.094,0.093,0.221,0.146,0.354,0.146c0.133,0,0.26-0.053,0.354-0.147l2.185-2.185l4.851,4.851
							c0.098,0.097,0.226,0.146,0.354,0.146s0.256-0.049,0.353-0.146l3.667-3.667l1.268,3.077c0.063,0.155,0.2,0.267,0.364,0.3
							c0.033,0.007,0.066,0.01,0.098,0.01c0.131,0,0.259-0.052,0.355-0.147l7.45-7.45l1.797,1.797
							c-0.891,1.261-0.718,3.089,0.494,4.301l2.288,2.286c0.001,0.001,0.002,0.001,0.003,0.002l2.281,2.284
							c0.706,0.705,1.621,1.061,2.513,1.061c0.805,0,1.59-0.292,2.18-0.882c1.245-1.246,1.165-3.351-0.178-4.694l-2.286-2.285
							l-2.286-2.287c-1.211-1.212-3.041-1.384-4.301-0.493l-1.797-1.797l7.454-7.453c0.118-0.119,0.17-0.288,0.137-0.452
							c-0.032-0.163-0.146-0.3-0.3-0.364l-3.078-1.269l6.975-6.975c0.195-0.195,0.195-0.512,0-0.707l-5.203-5.204
							c-0.094-0.093-0.221-0.146-0.354-0.146s-0.26,0.052-0.354,0.146l-2.185,2.184l-4.853-4.851c-0.195-0.195-0.512-0.195-0.707,0
							l-2.146,2.145l-4.853-4.852c-0.195-0.195-0.512-0.195-0.707,0l-8.733,8.733l-0.359-0.148c-0.186-0.076-0.4-0.035-0.544,0.109
							c-0.142,0.143-0.185,0.357-0.108,0.544l0.147,0.358l-2.95,2.95C18.23-66.312,18.229-66.309,18.228-66.307z M43.062-48.244
							c0.855-0.854,2.326-0.775,3.28,0.178l2.286,2.287l2.286,2.285c0.953,0.953,1.032,2.424,0.178,3.28
							c-0.854,0.853-2.324,0.772-3.279-0.18l-2.284-2.286l-2.288-2.286C42.289-45.918,42.208-47.389,43.062-48.244z M21.129-48.39
							c-0.001,0.001-0.002,0.003-0.003,0.005l-2.181,2.181l-4.5-4.499l9.692-9.692l0.005-0.005c0.001-0.001,0.002-0.001,0.003-0.002
							l0.487-0.487l2.626,6.37L21.129-48.39z M26.687-43.538l-4.498-4.497l5.481-5.482l2.625,6.371L26.687-43.538z M44.396-70.24
							c0,0,0.001-0.001,0.001-0.002l2.183-2.183l4.496,4.497l-6.915,6.914l-6.368-2.624L44.396-70.24z M38.836-75.092l4.499,4.498
							l-6.544,6.543l-6.372-2.626L38.836-75.092z M31.131-77.799l4.497,4.497l-6.211,6.212l-6.37-2.625L31.131-77.799z
							 M29.338-66.041c0.005,0.002,0.011,0.004,0.017,0.007L36.716-63c0.002,0.001,0.005,0.002,0.008,0.003l7.361,3.034
							c0.003,0.001,0.007,0.003,0.01,0.004l3.071,1.266l-6.923,6.922l-2.309-2.309c-0.195-0.195-0.512-0.195-0.707,0
							c-0.195,0.195-0.195,0.512,0,0.707l2.309,2.309l-6.921,6.92l-1.266-3.07c-0.001-0.003-0.002-0.005-0.003-0.008l-3.036-7.364
							c-0.001-0.002-0.002-0.005-0.003-0.007l-3.036-7.364c-0.001-0.002-0.002-0.004-0.003-0.007l-2.854-6.93L29.338-66.041z
							 M21.595-68.262l2.624,6.371l-0.427,0.427l-4.499-4.497L21.595-68.262z M23.076-60.749l-2.671,2.672l-7.021,7.02
							c-0.002,0.002-0.002,0.004-0.004,0.006l-2.14,2.14l-4.497-4.498L18.58-65.246L23.076-60.749z"/>
						<path fill="#FFFFFF" d="M-74.008-1.46c0,2.008,0.966,3.881,2.576,5.006l1.022,0.742c0.087,0.063,0.19,0.095,0.294,0.095
							c0.077,0,0.155-0.018,0.228-0.055c0.168-0.085,0.273-0.257,0.273-0.445l0.003-3.719c0-0.929,0.845-1.776,1.772-1.777
							c0.5,0.003,0.89,0.162,1.23,0.503c0.31,0.31,0.511,0.789,0.552,1.276v3.718c0,0.188,0.105,0.36,0.272,0.445
							c0.169,0.086,0.371,0.07,0.521-0.041l1.006-0.731c0.312-0.208,0.518-0.412,0.777-0.669c1.153-1.158,1.815-2.743,1.815-4.35
							c-0.003-2.196-1.2-4.233-3.062-5.298v-9.028h1.062l0.05,1c0.002,0.823,0.281,1.516,0.827,2.059
							c0.529,0.531,1.224,0.836,1.907,0.836c0.065,0,0.13-0.003,0.153-0.008l10.803,0.001c0.819-0.003,1.513-0.283,2.062-0.833
							c0.586-0.589,0.892-1.375,0.823-2.055v-2.728c0.002-0.816-0.275-1.51-0.826-2.062c-0.533-0.53-1.223-0.834-1.895-0.834
							c-0.071,0-0.142,0.004-0.166,0.008l-10.802-0.003c-1.527,0.003-2.875,1.342-2.944,2.945l0,0.674h-1.056v-6.965
							c0.41-0.231,0.818-0.548,1.24-0.969c1.154-1.157,1.816-2.741,1.816-4.347c0.002-2.013-0.963-3.887-2.573-5.007l-1.022-0.745
							c-0.152-0.11-0.353-0.125-0.521-0.042c-0.168,0.086-0.273,0.258-0.273,0.446v3.719c0,0.446-0.197,0.898-0.54,1.241
							c-0.341,0.342-0.792,0.537-1.236,0.537c0,0-0.001,0-0.002,0c-0.492,0-0.882-0.16-1.228-0.504
							c-0.312-0.312-0.513-0.79-0.552-1.273l0.002-3.72c0-0.188-0.105-0.361-0.273-0.446c-0.167-0.085-0.37-0.068-0.521,0.042
							l-1.025,0.75c-1.556,1.154-2.518,3.02-2.574,5.003c0.002,2.196,1.203,4.234,3.074,5.299l0.007,6.981h-11.165l-0.061-0.426
							c-0.019-0.135-0.094-0.256-0.205-0.336l-1.197-0.854c-0.116-0.084-0.263-0.112-0.408-0.079l-3.366,0.816
							c-0.225,0.054-0.383,0.256-0.382,0.487l0.002,1.785c0,0.231,0.158,0.432,0.383,0.486l3.362,0.812
							c0.038,0.01,0.078,0.014,0.117,0.014c0.103,0,0.204-0.032,0.289-0.09l1.201-0.853c0.112-0.079,0.186-0.201,0.206-0.337
							l0.058-0.425h11.167l0.01,8.994c-0.417,0.23-0.835,0.55-1.268,0.981C-73.344-4.652-74.008-3.066-74.008-1.46z M-62.674-17.44
							c0.045-1.046,0.955-1.965,1.945-1.967h10.847c0.458-0.036,0.929,0.16,1.307,0.536c0.36,0.361,0.535,0.804,0.533,1.354
							l0.002,2.779c0.044,0.434-0.156,0.921-0.533,1.299c-0.361,0.361-0.805,0.538-1.357,0.54l-10.844,0.001l-0.11,0.004
							c-0.418,0-0.854-0.197-1.2-0.543c-0.357-0.355-0.531-0.798-0.534-1.377l-0.056-1.105V-17.44z M-83.112-15.718l-0.84,0.597
							l-2.759-0.667l-0.001-0.999l2.761-0.67l0.84,0.599l0.085,0.542L-83.112-15.718z M-70.231-6.026
							c0.186-0.084,0.293-0.27,0.292-0.462h0.021l-0.02-17.563h-0.006c0-0.184-0.097-0.361-0.272-0.448
							c-1.696-0.846-2.793-2.639-2.795-4.555c0.046-1.665,0.857-3.24,2.167-4.212l0.228-0.166v2.773
							c0.058,0.756,0.365,1.464,0.844,1.943c0.532,0.529,1.182,0.797,1.933,0.797c0.002,0,0.003,0,0.004,0
							c0.706,0,1.414-0.302,1.941-0.829c0.53-0.529,0.834-1.239,0.834-1.948v-2.736l0.237,0.173c1.35,0.939,2.155,2.505,2.153,4.192
							c0,1.344-0.555,2.671-1.522,3.64c-0.441,0.438-0.85,0.74-1.253,0.925c-0.123,0.056-0.21,0.157-0.256,0.274h-0.028v0.156
							c-0.001,0.023-0.002,0.045,0,0.068v17.479c-0.018,0.199,0.082,0.397,0.272,0.492c1.692,0.844,2.787,2.639,2.79,4.571
							c0,1.345-0.556,2.672-1.541,3.66c-0.218,0.216-0.375,0.372-0.623,0.538l-0.229,0.167l-0.001-2.774
							c-0.058-0.76-0.364-1.469-0.841-1.945c-0.523-0.526-1.174-0.794-1.937-0.797c-1.478,0.001-2.774,1.299-2.774,2.777
							l-0.002,2.739l-0.237-0.172c-1.35-0.942-2.156-2.509-2.156-4.191c0-1.344,0.557-2.672,1.528-3.644
							C-71.04-5.543-70.63-5.844-70.231-6.026z"/>
						<path fill="#FFFFFF" d="M-40.139-31.479l-0.312,2.261c-0.03,0.212,0.08,0.42,0.272,0.516c0.072,0.035,0.147,0.052,0.223,0.052
							c0.13,0,0.258-0.051,0.354-0.146l0.502-0.502c0.01,0.012,0.014,0.026,0.025,0.037l3.404,3.399
							c0.288,0.226,0.801,0.466,1.405,0.466c0.559,0,1.195-0.205,1.805-0.816l2.646-2.646c0.006-0.006,0.013-0.013,0.018-0.019
							l3.378-3.376c1.271-1.271,0.784-2.656,0.309-3.256l-4.062-4.062c-0.002-0.001-0.004-0.002-0.006-0.004l-27.377-27.377
							c-0.187-0.188-0.519-0.188-0.707,0l-5.655,5.656c-0.13,0.13-0.178,0.319-0.126,0.495c0.052,0.176,0.194,0.309,0.373,0.348
							l1.729,0.375l-0.019,2.356c-0.002,0.257,0.191,0.474,0.446,0.501l2.04,0.219l-0.13,2.499
							c-0.014,0.265,0.181,0.495,0.445,0.523l2.038,0.221l-0.128,2.345c-0.015,0.255,0.167,0.48,0.419,0.521l2.187,0.353
							l-0.099,2.336c-0.01,0.25,0.166,0.469,0.412,0.513l1.992,0.354l0.048,2.389c0.005,0.246,0.189,0.452,0.433,0.485l1.972,0.267
							l-0.05,2.468c-0.005,0.262,0.193,0.484,0.454,0.508l2.029,0.188l-0.145,2.432c-0.016,0.268,0.182,0.501,0.45,0.527
							l2.066,0.205l-0.048,2.415c-0.004,0.254,0.182,0.472,0.435,0.505l2.16,0.286l-0.163,2.466
							c-0.018,0.271,0.184,0.507,0.455,0.531L-40.139-31.479z M-26.86-34.851c0.071,0.096,0.671,0.954-0.266,1.891l-3.446,3.445
							c-0.006,0.006-0.013,0.013-0.019,0.019l-2.577,2.578c-0.939,0.939-1.794,0.338-1.841,0.309l-3.359-3.359
							c-0.011-0.011-0.025-0.015-0.037-0.025l1.245-1.245c0.013,0.016,0.019,0.035,0.033,0.05l1.945,1.94
							c0.193,0.151,0.536,0.312,0.937,0.312c0.364,0,0.777-0.132,1.169-0.526l3.422-3.422c0.826-0.826,0.501-1.738,0.173-2.15
							l-1.9-1.9c-0.015-0.015-0.034-0.021-0.05-0.033l1.225-1.225L-26.86-34.851z M-36.47-31.928l4.349-4.349
							c0.013,0.016,0.019,0.035,0.033,0.05l1.86,1.855c0.029,0.037,0.273,0.375-0.133,0.781l-3.422,3.422
							c-0.367,0.368-0.674,0.212-0.737,0.174l-1.9-1.9C-36.435-31.91-36.454-31.916-36.47-31.928z M-44.119-35.879l0.048-2.43
							c0.005-0.26-0.191-0.481-0.451-0.507l-2.048-0.203l0.145-2.435c0.016-0.27-0.184-0.503-0.453-0.528l-2.048-0.189l0.05-2.449
							c0.005-0.255-0.181-0.472-0.433-0.506l-1.989-0.27l-0.048-2.371c-0.005-0.238-0.178-0.44-0.412-0.482l-1.966-0.349l0.1-2.344
							c0.01-0.253-0.17-0.474-0.42-0.515l-2.182-0.352l0.13-2.369c0.015-0.265-0.18-0.496-0.445-0.524l-2.04-0.221l0.13-2.5
							c0.014-0.265-0.181-0.495-0.445-0.523l-2.06-0.221l0.018-2.31c0.002-0.237-0.164-0.443-0.394-0.493l-1.23-0.267l4.654-4.655
							l26.994,26.994l-8.342,8.342l0.181-1.307c0.018-0.135-0.019-0.273-0.104-0.38c-0.086-0.107-0.211-0.175-0.348-0.187
							l-2.139-0.189l0.162-2.444c0.017-0.262-0.173-0.494-0.434-0.528L-44.119-35.879z"/>
						<path fill="#FFFFFF" d="M-82.225,10.352c-0.222-0.03-0.442-0.065-0.669-0.065c-1.301,0-2.524,0.507-3.443,1.426
							c-0.921,0.92-1.428,2.143-1.429,3.445c0,1.301,0.507,2.524,1.427,3.444c0.919,0.92,2.142,1.427,3.443,1.427
							c0.228,0,0.449-0.035,0.67-0.065l-11.136,11.136c-0.195,0.195-0.195,0.512,0,0.707c0.098,0.097,0.226,0.146,0.354,0.146
							s0.256-0.049,0.353-0.146l13.205-13.204l0.937-0.937c0.157-0.157,0.182-0.39,0.086-0.577c0.261-0.602,0.403-1.254,0.404-1.93
							c0-1.3-0.505-2.521-1.422-3.439c-0.001-0.002-0.002-0.004-0.004-0.006L-96.944-5.782c-0.195-0.195-0.512-0.195-0.707,0
							c-0.195,0.195-0.195,0.512,0,0.707L-82.225,10.352z M-80.157,12.419c0,0,0.001,0.001,0.002,0.001
							c0.732,0.731,1.133,1.702,1.133,2.736c-0.001,1.032-0.402,2.002-1.129,2.732l-0.01,0.01c-1.463,1.456-4.011,1.457-5.47-0.004
							c-0.732-0.73-1.134-1.703-1.134-2.737c0-1.034,0.404-2.007,1.136-2.738c0.73-0.731,1.702-1.133,2.736-1.133
							c1.033,0,2.001,0.401,2.732,1.128L-80.157,12.419z"/>
						<path fill="#FFFFFF" d="M-92.024-43.069c0.063,0.155,0.2,0.267,0.364,0.3c0.033,0.007,0.066,0.01,0.098,0.01
							c0.131,0,0.259-0.052,0.354-0.148l15.611-15.61c0.118-0.119,0.17-0.288,0.137-0.452c-0.032-0.163-0.146-0.3-0.3-0.364
							l-3.076-1.268l6.974-6.975c0.195-0.195,0.195-0.512,0-0.707l-5.203-5.204c-0.094-0.093-0.221-0.146-0.354-0.146
							s-0.26,0.052-0.354,0.146l-2.185,2.184l-4.853-4.851c-0.195-0.195-0.512-0.195-0.707,0l-9.293,9.291
							c-0.049,0.047-0.09,0.103-0.118,0.17c0,0.001,0,0.002,0,0.003c-0.025,0.061-0.038,0.126-0.038,0.191
							c0,0.019,0.008,0.035,0.011,0.054c0.012,0.109,0.052,0.215,0.136,0.299c0.052,0.052,0.112,0.087,0.177,0.112l7.356,3.032
							c0.004,0.002,0.008,0.004,0.013,0.005l7.356,3.032c0.005,0.002,0.01,0.004,0.015,0.006l3.067,1.264l-14.551,14.55
							l-4.307-10.448c-0.104-0.255-0.396-0.375-0.652-0.272c-0.255,0.106-0.376,0.398-0.271,0.653L-92.024-43.069z M-93.581-66.677
							l8.417-8.415l4.499,4.498l-6.543,6.542L-93.581-66.677z M-86.207-63.639l6.603-6.602c0-0.001,0.001-0.002,0.001-0.002
							l2.183-2.182l4.496,4.497l-6.915,6.914L-86.207-63.639z"/>
						<path fill="#FFFFFF" d="M-79.178-41.972c0.001,0.001,0.002,0.001,0.003,0.002l2.281,2.284
							c0.706,0.705,1.621,1.061,2.513,1.061c0.805,0,1.59-0.292,2.18-0.882c1.245-1.246,1.165-3.351-0.178-4.694l-2.286-2.285
							l-2.286-2.287c-1.342-1.343-3.45-1.422-4.694-0.177c-1.243,1.245-1.163,3.35,0.179,4.692L-79.178-41.972z M-80.938-48.244
							c0.855-0.854,2.326-0.775,3.28,0.178l2.286,2.287l2.286,2.285c0.953,0.953,1.032,2.424,0.178,3.28
							c-0.854,0.853-2.324,0.772-3.279-0.18l-2.284-2.286l-2.288-2.286C-81.711-45.918-81.792-47.389-80.938-48.244z"/>
						<path fill="#FFFFFF" d="M-79.341-92.375c0,0.133,0.052,0.26,0.146,0.354l10.824,10.824c0.094,0.093,0.221,0.146,0.354,0.146
							c0.133,0,0.26-0.053,0.353-0.147l1.083-1.083l9.353,9.352c0.098,0.097,0.226,0.146,0.354,0.146s0.256-0.049,0.354-0.145
							l5.42-5.419c0.093-0.094,0.146-0.221,0.146-0.354c0-0.133-0.052-0.26-0.146-0.354l-3.441-3.44l1.254-1.255
							c0.195-0.195,0.195-0.512,0-0.707l-2.547-2.548c-0.187-0.188-0.519-0.188-0.707,0l-1.2,1.201l-1.337-3.857
							c-0.01-0.029-0.03-0.051-0.045-0.077l8.392-8.392c0.195-0.195,0.195-0.512,0-0.707l-10.822-10.823
							c-0.195-0.195-0.512-0.195-0.707,0l-16.934,16.932C-79.288-92.635-79.341-92.508-79.341-92.375z M-56.187-85.945l1.84,1.84
							l-0.866,0.867l-1.84-1.84L-56.187-85.945z M-58.59-85.2c0.025,0.072,0.065,0.137,0.119,0.19l6.31,6.309l-4.713,4.712l-9-8.999
							l5.978-5.978L-58.59-85.2z M-61.907-108.6l10.115,10.116l-16.225,16.226l-10.117-10.117L-61.907-108.6z"/>
						<path fill="#FFFFFF" d="M-64.759-99.75c-0.195-0.195-0.512-0.195-0.707,0l-6.97,6.969c-0.195,0.195-0.195,0.512,0,0.707
							c0.098,0.097,0.226,0.146,0.354,0.146s0.256-0.049,0.353-0.146l6.97-6.969C-64.564-99.238-64.564-99.555-64.759-99.75z"/>
						<path fill="#FFFFFF" d="M-61.35-96.343c-0.195-0.195-0.512-0.195-0.707,0l-6.97,6.97c-0.195,0.195-0.195,0.512,0,0.707
							c0.098,0.097,0.226,0.146,0.354,0.146s0.256-0.048,0.353-0.146l6.97-6.97C-61.155-95.831-61.155-96.148-61.35-96.343z"/>
						<path fill="#FFFFFF" d="M17.873-79.426c0.094,0.093,0.221,0.146,0.354,0.146c0.132,0,0.259-0.053,0.353-0.146l12.762-12.766
							c0.001-0.001,0.003-0.001,0.004-0.002l14.141-14.142c0.195-0.195,0.195-0.512,0-0.707c-0.195-0.195-0.512-0.195-0.707,0
							L31.042-93.305c0,0-0.001,0-0.001,0.001L18.226-80.487L1.772-96.94c-0.195-0.195-0.512-0.195-0.707,0s-0.195,0.512,0,0.707
							L17.873-79.426z"/>
						<path fill="#FFFFFF" d="M-93.008-92.049c0.128,0,0.256-0.049,0.353-0.146l14.142-14.142c0.195-0.195,0.195-0.512,0-0.707
							c-0.195-0.195-0.512-0.195-0.707,0l-14.142,14.142c-0.195,0.195-0.195,0.512,0,0.707
							C-93.264-92.098-93.136-92.049-93.008-92.049z"/>
						<path fill="#FFFFFF" d="M-2.244,120.417c-0.084-0.131-0.223-0.215-0.376-0.229l-2.649-0.237l-1.292-1.562
							c-0.119-0.145-0.314-0.207-0.492-0.168l-2.39,0.525l-1.259-1.738c-0.121-0.166-0.332-0.244-0.534-0.189l-2.846,0.763
							l-1.609-0.549c0.133-4.146-2.611-7.886-6.652-8.982c-3.046-0.825-6.233-0.026-8.531,2.136
							c-0.066,0.062-0.104,0.139-0.128,0.22c-1.479,0.41-2.838,1.189-3.954,2.304c-3.512,3.514-3.512,9.232,0,12.746
							c1.703,1.701,3.967,2.639,6.375,2.639c1.281,0,2.559-0.275,3.72-0.801l9.549,10.035c0.089,0.093,0.209,0.148,0.338,0.154
							l3.704,0.184c0.007,0.002,0.016,0.002,0.024,0.002c0.132,0,0.26-0.053,0.355-0.146c0.1-0.1,0.153-0.237,0.146-0.379
							l-0.183-3.703c-0.007-0.154-0.086-0.297-0.212-0.387l-2.181-1.525l-0.349-1.993c-0.032-0.187-0.164-0.337-0.343-0.394
							l-2.333-0.729l-0.227-2.136c-0.021-0.205-0.169-0.377-0.369-0.43l-2.846-0.756l-0.459-0.524
							c1.127-0.643,2.11-1.504,2.863-2.55l13.276,3.957c0.047,0.016,0.095,0.021,0.143,0.021c0.078,0,0.156-0.018,0.227-0.057
							l3.307-1.686c0.125-0.064,0.219-0.18,0.255-0.316c0.037-0.134,0.014-0.281-0.062-0.399L-2.244,120.417z M-20.192,126.018
							l2.66,0.705l0.225,2.119c0.021,0.197,0.158,0.363,0.348,0.424l2.355,0.738l0.332,1.9c0.022,0.131,0.097,0.246,0.205,0.322
							l2.15,1.506l0.144,2.908l-2.953-0.146l-9.569-10.053l-0.152-0.129c-0.153-0.127-0.368-0.155-0.548-0.063
							c-1.104,0.553-2.344,0.846-3.587,0.846c-2.142,0-4.154-0.834-5.668-2.346c-3.122-3.125-3.122-8.207,0-11.332
							c1.514-1.515,3.526-2.347,5.666-2.347c2.141,0,4.152,0.832,5.665,2.347c2.715,2.715,3.123,6.987,0.97,10.162
							c-0.128,0.187-0.112,0.438,0.038,0.608l1.471,1.676C-20.375,125.939-20.289,125.993-20.192,126.018z M-4.015,124.959
							l-13.309-3.965l-0.2-0.033c-0.19-0.029-0.39,0.053-0.499,0.217c-0.72,1.09-1.713,1.973-2.87,2.603
							c2.159-3.525,1.635-8.118-1.318-11.071c-1.701-1.701-3.965-2.639-6.372-2.639c-0.189,0-0.376,0.016-0.563,0.027
							c1.909-1.284,4.267-1.699,6.542-1.082c3.705,1.004,6.184,4.508,5.896,8.329c-0.016,0.229,0.122,0.438,0.338,0.513l2.111,0.721
							c0.093,0.033,0.194,0.035,0.29,0.01l2.66-0.713l1.249,1.727c0.117,0.16,0.325,0.236,0.513,0.195l2.412-0.533l1.23,1.486
							c0.085,0.102,0.207,0.166,0.34,0.18l2.613,0.234l1.573,2.449L-4.015,124.959z"/>
						<path fill="#FFFFFF" d="M-31.71,115.953c-0.537,0.537-0.833,1.25-0.832,2.01c0,0.756,0.295,1.467,0.83,2
							c0.534,0.535,1.245,0.83,2.002,0.83c0.759,0,1.473-0.295,2.009-0.832c0.534-0.535,0.828-1.246,0.828-2.002
							c0.001-0.758-0.295-1.469-0.83-2.004C-28.772,114.885-30.64,114.883-31.71,115.953z M-28.408,119.254
							c-0.694,0.695-1.904,0.697-2.597,0.002c-0.347-0.346-0.537-0.805-0.537-1.295c-0.001-0.49,0.191-0.953,0.539-1.301
							c0.346-0.346,0.806-0.537,1.295-0.537c0.491,0,0.951,0.191,1.298,0.539c0.347,0.346,0.537,0.807,0.537,1.297
							C-27.873,118.447-28.062,118.908-28.408,119.254z"/>
						<path fill="#FFFFFF" d="M-43.388,129.756l-10.343,10.345c-1.714-1.364-4.197-1.287-5.808,0.253l-2.015-2.015
							c-0.195-0.194-0.512-0.194-0.707,0l-16.934,16.933c-0.093,0.094-0.146,0.221-0.146,0.354s0.052,0.26,0.146,0.354
							l10.824,10.824c0.094,0.094,0.221,0.146,0.354,0.146c0.133,0,0.26-0.053,0.353-0.147l1.083-1.083l9.354,9.352
							c0.098,0.098,0.226,0.146,0.354,0.146s0.256-0.049,0.354-0.145l5.42-5.418c0.093-0.094,0.146-0.221,0.146-0.354
							c0-0.133-0.052-0.26-0.146-0.354l-3.441-3.44l1.254-1.256c0.195-0.194,0.195-0.513,0-0.707l-2.547-2.547
							c-0.187-0.188-0.519-0.188-0.707,0l-1.2,1.2l-1.337-3.856c-0.01-0.029-0.031-0.051-0.045-0.077l8.392-8.392
							c0.195-0.195,0.195-0.513,0-0.707l-2.545-2.546c1.541-1.609,1.616-4.095,0.252-5.81l10.343-10.345
							c0.195-0.195,0.195-0.512,0-0.707C-42.876,129.561-43.193,129.561-43.388,129.756z M-56.187,162.055l1.84,1.84l-0.866,0.867
							l-1.84-1.84L-56.187,162.055z M-58.59,162.8c0.025,0.072,0.065,0.136,0.119,0.191l6.31,6.309l-4.713,4.711l-9-8.999
							l5.979-5.978L-58.59,162.8z M-51.792,149.518l-16.225,16.225l-10.117-10.117l16.227-16.225L-51.792,149.518z M-53.984,145.91
							l-4.849-4.85c1.345-1.269,3.465-1.252,4.784,0.065C-52.731,142.442-52.715,144.565-53.984,145.91z"/>
						<path fill="#FFFFFF" d="M-64.759,148.25c-0.195-0.195-0.512-0.195-0.707,0l-6.97,6.969c-0.195,0.195-0.195,0.512,0,0.707
							c0.098,0.098,0.226,0.146,0.354,0.146s0.256-0.049,0.353-0.146l6.97-6.969C-64.564,148.762-64.564,148.445-64.759,148.25z"/>
						<path fill="#FFFFFF" d="M-69.027,158.627c-0.195,0.195-0.195,0.512,0,0.707c0.098,0.098,0.226,0.146,0.354,0.146
							s0.256-0.049,0.353-0.146l6.97-6.969c0.195-0.195,0.195-0.512,0-0.707c-0.195-0.195-0.512-0.195-0.707,0L-69.027,158.627z"/>
						<path fill="#FFFFFF" d="M-37.583,63.559c0.054,0.164,0.191,0.287,0.359,0.327c0.038,0.009,0.077,0.015,0.115,0.015
							c0.13,0,0.258-0.053,0.353-0.146l2.889-2.889l17.056,17.055c0.098,0.098,0.226,0.146,0.354,0.146s0.256-0.049,0.353-0.146
							l4.731-4.731c0.002-0.002,0.005-0.003,0.008-0.005l6.414-6.412c0.004-0.004,0.005-0.01,0.01-0.015L7.181,54.634
							c0.093-0.094,0.146-0.221,0.146-0.354c0-0.133-0.052-0.26-0.146-0.354L-9.874,36.872l2.886-2.886
							c0.123-0.123,0.173-0.301,0.133-0.469c-0.039-0.169-0.164-0.304-0.328-0.359l-10.65-3.552c-0.18-0.062-0.377-0.013-0.512,0.12
							l-2.807,2.807l-1.943-1.943c-0.195-0.195-0.512-0.195-0.707,0l-3.863,3.863c-0.195,0.195-0.195,0.512,0,0.707l1.943,1.943
							l-4.109,4.109c-0.001,0.001-0.001,0.003-0.003,0.004l-11.179,11.177c-0.134,0.135-0.181,0.332-0.121,0.512L-37.583,63.559z
							 M-11.719,72.121L-22.17,61.669l5.705-5.707l10.452,10.453L-11.719,72.121z M6.121,54.281L-5.306,65.708l-10.805-10.806
							c-0.187-0.188-0.519-0.188-0.707,0l-6.412,6.414c-0.195,0.195-0.195,0.512,0,0.707l10.804,10.805l-4.031,4.031L-33.16,60.158
							l9.205-9.206l1.266-1.266c0,0,0.002-0.001,0.002-0.001l12.106-12.106L6.121,54.281z M-26.604,34.806l3.156-3.156l1.59,1.589
							l-3.156,3.156L-26.604,34.806z M-28.822,41.618c0.001-0.001,0.001-0.003,0.003-0.004l4.155-4.155
							c0.001-0.001,0.002-0.001,0.003-0.002l3.863-3.863c0.001-0.001,0.001-0.002,0.002-0.003l2.94-2.94l9.59,3.198l-2.661,2.661
							c-0.003,0.003-0.006,0.003-0.009,0.006l-23.285,23.287c-0.001,0.001-0.001,0.002-0.002,0.003l-2.668,2.668l-3.197-9.591
							L-28.822,41.618z"/>
						<path fill="#FFFFFF" d="M-13.862,52.153c0,0.133,0.052,0.26,0.146,0.354l6.309,6.307c0.098,0.097,0.226,0.146,0.354,0.146
							c0.128,0,0.256-0.048,0.353-0.147l4.289-4.289c0.195-0.195,0.195-0.512,0-0.707l-6.307-6.309
							c-0.195-0.195-0.512-0.195-0.707,0l-4.291,4.291C-13.809,51.893-13.862,52.02-13.862,52.153z M-9.07,48.57l5.6,5.602
							l-3.582,3.582l-5.602-5.6L-9.07,48.57z"/>
						<path fill="#FFFFFF" d="M-11.501,100.52l7.257-7.258l19.17,19.168l4.361-4.361L0.119,88.899L5.618,83.4l-6.185-6.184
							l-5.406,5.404l-1.715-1.714c-0.187-0.188-0.519-0.188-0.707,0l-3.84,3.84c-0.195,0.194-0.195,0.512,0,0.707l1.866,1.867
							l-4.157,10.172L-11.501,100.52z M17.874,108.068l-2.947,2.947L-3.537,92.555l0.983-0.982l1.967-1.965L17.874,108.068z
							 M-11.175,85.1l3.133-3.133l1.362,1.361l-2.195,2.196l-0.939,0.938L-11.175,85.1z M-9.379,87.443l3.087-3.089l5.725-5.725
							L4.204,83.4l-7.701,7.7l-1.455,1.454h0l-6.55,6.551l-1.85-1.852L-9.379,87.443z"/>
						<path fill="#FFFFFF" d="M45.573,141.087c0.26-0.603,0.403-1.255,0.404-1.931c0-1.301-0.507-2.525-1.427-3.443l-17.495-17.494
							c-0.92-0.922-2.144-1.428-3.444-1.428c-1.3,0-2.524,0.506-3.444,1.428c-1.778,1.778-1.869,4.59-0.319,6.499L0.849,143.717
							c-0.176,0.176-0.185,0.445-0.044,0.641v6.943c0,0.156,0.084,0.292,0.207,0.387c0.018,0.026,0.029,0.057,0.053,0.08
							l16.808,16.808c0.094,0.093,0.221,0.146,0.354,0.146c0.132,0,0.259-0.053,0.353-0.146l12.764-12.769
							c0-0.001,0-0.001,0.001-0.001l13.202-13.2c0.001-0.001,0.002-0.002,0.003-0.003s0.001-0.002,0.002-0.003l0.935-0.935
							C45.644,141.507,45.668,141.274,45.573,141.087z M20.873,118.926c1.463-1.463,4.012-1.463,5.475,0l15.425,15.425
							c-0.221-0.03-0.441-0.065-0.667-0.065c-1.301,0-2.524,0.508-3.443,1.426c-0.921,0.922-1.428,2.145-1.429,3.445
							c0,0.228,0.035,0.448,0.065,0.67L20.873,124.4c0-0.001-0.001-0.001-0.002-0.001C19.363,122.889,19.364,120.436,20.873,118.926
							z M1.805,145.104l3.971,2.636l-3.971,2.631V145.104z M31.042,154.694c0,0-0.001,0.001-0.001,0.001l-12.814,12.818
							L2.092,151.38l4.865-3.224c0.14-0.094,0.224-0.25,0.224-0.418s-0.084-0.324-0.224-0.416l-4.987-3.311l18.55-18.551
							l17.142,17.141c0.919,0.92,2.142,1.426,3.443,1.426c0.228,0,0.449-0.035,0.67-0.065L31.042,154.694z M43.851,141.886
							l-0.015,0.015c-1.464,1.454-4.009,1.455-5.468-0.006c-0.732-0.73-1.134-1.703-1.134-2.738c0-1.033,0.404-2.006,1.136-2.736
							c0.73-0.732,1.702-1.135,2.736-1.135c1.033,0,2.001,0.401,2.732,1.13l0.004,0.005c0,0.001,0.001,0.001,0.002,0.001
							c0.732,0.73,1.133,1.703,1.133,2.735C44.977,140.188,44.576,141.154,43.851,141.886z"/>
						<path fill="#FFFFFF" d="M21.484,76.672l4.85,4.85c0.098,0.098,0.226,0.146,0.354,0.146s0.256-0.049,0.353-0.146l3.667-3.666
							l1.268,3.076c0.063,0.154,0.2,0.268,0.364,0.301c0.033,0.006,0.066,0.01,0.098,0.01c0.131,0,0.259-0.053,0.354-0.146
							l7.451-7.452l1.798,1.798c-0.891,1.262-0.719,3.088,0.493,4.302l2.288,2.284l2.284,2.287c0.706,0.705,1.621,1.061,2.513,1.061
							c0.805,0,1.59-0.291,2.18-0.881c1.245-1.246,1.165-3.352-0.178-4.695l-2.286-2.285c-0.002-0.002-0.004-0.002-0.006-0.004
							l-2.28-2.281c-1.211-1.214-3.04-1.385-4.301-0.494l-1.798-1.798l7.453-7.454c0.118-0.116,0.17-0.287,0.137-0.45
							c-0.032-0.164-0.146-0.302-0.3-0.365l-3.076-1.268l6.974-6.975c0.195-0.195,0.195-0.512,0-0.707l-5.203-5.205
							c-0.094-0.093-0.221-0.146-0.354-0.146s-0.26,0.052-0.354,0.146l-2.186,2.186l-4.852-4.851c-0.195-0.195-0.512-0.195-0.707,0
							l-2.146,2.145l-4.853-4.853c-0.195-0.195-0.512-0.195-0.707,0l-8.733,8.733l-0.358-0.147c-0.186-0.078-0.4-0.035-0.544,0.108
							c-0.142,0.143-0.185,0.357-0.108,0.545l0.147,0.357l-2.95,2.95c-0.002,0.002-0.002,0.005-0.004,0.007c0,0-0.001,0-0.001,0.001
							L5.682,70.238c-0.195,0.195-0.195,0.513,0,0.707l5.204,5.205c0.094,0.094,0.221,0.146,0.354,0.146
							c0.133,0,0.26-0.053,0.354-0.146l2.145-2.145l4.852,4.852c0.094,0.094,0.221,0.146,0.354,0.146
							c0.133,0,0.26-0.053,0.354-0.146L21.484,76.672z M43.062,75.757c0.855-0.853,2.326-0.774,3.28,0.179l2.286,2.287
							c0.002,0.002,0.004,0.002,0.006,0.004l2.28,2.279c0.953,0.953,1.032,2.424,0.178,3.281c-0.854,0.852-2.324,0.771-3.279-0.18
							l-2.284-2.287l-2.288-2.284C42.289,78.083,42.208,76.611,43.062,75.757z M26.687,80.462l-4.497-4.497l5.479-5.481l2.626,6.371
							L26.687,80.462z M44.396,53.761c0.002-0.002,0.003-0.006,0.005-0.008l2.179-2.179l4.496,4.498l-6.914,6.915l-6.369-2.624
							L44.396,53.761z M38.836,48.909l4.498,4.497l-6.543,6.542l-6.371-2.625L38.836,48.909z M31.131,46.201l4.497,4.498
							l-6.211,6.212l-6.371-2.625L31.131,46.201z M29.334,57.958c0.009,0.004,0.018,0.007,0.027,0.011L36.715,61
							c0.003,0.001,0.006,0.002,0.009,0.004l7.355,3.032c0.007,0.003,0.014,0.006,0.021,0.009l3.064,1.263l-6.923,6.922
							l-2.308-2.307c-0.195-0.195-0.512-0.195-0.707,0s-0.195,0.512,0,0.707l2.308,2.307l-6.921,6.92L31.35,76.79
							c-0.002-0.005-0.003-0.009-0.005-0.013l-3.033-7.357c-0.002-0.005-0.003-0.009-0.005-0.013l-3.037-7.367
							c0-0.001,0-0.001-0.001-0.002c0,0-0.001-0.001-0.001-0.001l-2.853-6.93L29.334,57.958z M21.594,55.739l2.624,6.37
							l-0.428,0.428l-4.498-4.496L21.594,55.739z M13.384,72.943c-0.002,0.002-0.003,0.006-0.005,0.008L11.24,75.09l-4.497-4.498
							L18.58,58.753l4.496,4.499L13.384,72.943z M14.446,73.298l9.691-9.69c0.001-0.002,0.002-0.004,0.004-0.006
							c0.001-0.001,0.002-0.001,0.003-0.002l0.488-0.488l2.625,6.37l-6.128,6.128c-0.002,0.002-0.003,0.006-0.005,0.008l-2.179,2.18
							L14.446,73.298z"/>
						<path fill="#FFFFFF" d="M-63.489,99.282c1.154-1.157,1.816-2.741,1.816-4.349c0.002-2.014-0.963-3.887-2.573-5.006
							l-1.022-0.746c-0.152-0.108-0.353-0.125-0.521-0.041c-0.168,0.086-0.273,0.258-0.273,0.445v3.719
							c0,0.445-0.197,0.898-0.54,1.24c-0.341,0.342-0.792,0.537-1.236,0.537c0,0-0.001,0-0.002,0c-0.492,0-0.882-0.16-1.228-0.504
							c-0.312-0.312-0.513-0.791-0.552-1.273l0.002-3.721c0-0.188-0.105-0.359-0.273-0.445c-0.167-0.084-0.37-0.068-0.521,0.041
							l-1.025,0.75c-1.556,1.154-2.518,3.021-2.574,5.004c0.002,2.198,1.204,4.236,3.074,5.3l0.007,6.979h-11.165l-0.061-0.426
							c-0.019-0.135-0.094-0.256-0.205-0.336l-1.197-0.854c-0.116-0.084-0.263-0.111-0.408-0.078l-3.366,0.815
							c-0.225,0.054-0.383,0.256-0.382,0.485l0.002,1.785c0,0.23,0.158,0.432,0.383,0.486l3.362,0.812
							c0.038,0.01,0.078,0.014,0.117,0.014c0.103,0,0.204-0.031,0.289-0.089l1.201-0.854c0.112-0.078,0.186-0.201,0.206-0.336
							l0.058-0.426h11.167l0.01,8.993c-0.417,0.23-0.835,0.55-1.268,0.981c-1.158,1.16-1.822,2.746-1.822,4.352
							c0,2.01,0.966,3.883,2.576,5.006l1.022,0.742c0.087,0.064,0.19,0.096,0.294,0.096c0.077,0,0.155-0.018,0.23-0.055
							c0.168-0.084,0.273-0.256,0.273-0.445l0.003-3.719c0-0.93,0.845-1.775,1.772-1.777c0.5,0.002,0.89,0.162,1.23,0.504
							c0.311,0.311,0.512,0.789,0.55,1.275v3.717c0,0.188,0.105,0.359,0.272,0.445c0.169,0.086,0.371,0.07,0.521-0.041l1.006-0.73
							c0.312-0.209,0.518-0.412,0.777-0.67c1.153-1.156,1.815-2.742,1.815-4.35c-0.003-2.195-1.2-4.233-3.062-5.298v-9.026h1.062
							l0.05,0.999c0.002,0.823,0.281,1.517,0.827,2.06c0.529,0.53,1.224,0.836,1.907,0.836c0.065,0,0.13-0.002,0.153-0.006h10.803
							c0.819-0.004,1.513-0.283,2.062-0.834c0.586-0.588,0.892-1.375,0.823-2.055v-2.729c0.002-0.816-0.275-1.51-0.826-2.062
							c-0.533-0.529-1.223-0.834-1.895-0.834c-0.071,0-0.142,0.004-0.166,0.008l-10.802-0.002c-1.527,0.002-2.875,1.342-2.944,2.945
							l0,0.674h-1.056v-6.962C-64.319,100.02-63.911,99.702-63.489,99.282z M-83.112,108.281l-0.84,0.598l-2.759-0.666l-0.001-1.001
							l2.761-0.67l0.84,0.601l0.085,0.541L-83.112,108.281z M-62.674,106.561c0.045-1.047,0.955-1.965,1.945-1.967v0.002h10.847
							c0.458-0.035,0.929,0.159,1.307,0.534c0.36,0.361,0.535,0.804,0.533,1.354l0.002,2.777c0.044,0.437-0.156,0.922-0.533,1.301
							c-0.361,0.359-0.805,0.537-1.357,0.539l-10.844,0.002l-0.11,0.004c-0.418,0-0.854-0.196-1.2-0.543
							c-0.357-0.355-0.531-0.799-0.534-1.379l-0.056-1.104V106.561z M-65.445,99.498c-0.124,0.057-0.211,0.158-0.257,0.275h-0.027
							v0.154c-0.001,0.023-0.002,0.045,0,0.068v17.478c-0.018,0.199,0.082,0.398,0.272,0.493c1.692,0.846,2.787,2.639,2.79,4.572
							c0,1.344-0.556,2.672-1.541,3.658c-0.218,0.217-0.375,0.373-0.623,0.539l-0.229,0.166l-0.001-2.773
							c-0.058-0.759-0.364-1.468-0.841-1.945c-0.523-0.525-1.174-0.793-1.937-0.797c-1.478,0.002-2.774,1.299-2.774,2.777
							l-0.002,2.738l-0.237-0.172c-1.35-0.941-2.156-2.51-2.156-4.191c0-1.344,0.557-2.672,1.528-3.643
							c0.44-0.44,0.85-0.74,1.249-0.922c0.186-0.086,0.294-0.271,0.292-0.463h0.021l-0.019-17.564h-0.007
							c-0.001-0.183-0.098-0.358-0.272-0.445c-1.696-0.846-2.793-2.639-2.795-4.555c0.046-1.666,0.857-3.24,2.167-4.213l0.228-0.166
							v2.772c0.058,0.755,0.365,1.464,0.844,1.943c0.532,0.528,1.182,0.797,1.933,0.797c0.002,0,0.003,0,0.004,0
							c0.706,0,1.414-0.304,1.941-0.828c0.53-0.528,0.834-1.239,0.834-1.948v-2.736l0.237,0.174c1.35,0.938,2.155,2.505,2.153,4.191
							c0,1.344-0.555,2.672-1.522,3.641C-64.633,99.012-65.042,99.314-65.445,99.498z"/>
						<path fill="#FFFFFF" d="M-34.266,98.604c0.559,0,1.195-0.205,1.805-0.815l2.646-2.646c0.006-0.007,0.013-0.013,0.018-0.021
							l3.378-3.375c1.271-1.272,0.784-2.656,0.309-3.256l-3.739-3.739c-0.002-0.002-0.003-0.005-0.005-0.007l-27.701-27.702
							c-0.187-0.188-0.519-0.188-0.707,0l-5.655,5.657c-0.13,0.129-0.178,0.317-0.126,0.493c0.052,0.177,0.194,0.31,0.373,0.349
							l1.729,0.375l-0.019,2.356c-0.002,0.256,0.191,0.474,0.446,0.5l2.04,0.22l-0.13,2.5c-0.014,0.263,0.181,0.493,0.445,0.522
							l2.038,0.221l-0.128,2.345c-0.015,0.255,0.167,0.479,0.419,0.521l2.187,0.354l-0.099,2.336
							c-0.01,0.25,0.166,0.469,0.412,0.515l1.992,0.354l0.048,2.389c0.005,0.246,0.189,0.451,0.433,0.484l1.972,0.268l-0.05,2.469
							c-0.005,0.263,0.193,0.485,0.454,0.508l2.029,0.188l-0.145,2.433c-0.016,0.269,0.182,0.502,0.45,0.526l2.066,0.205
							l-0.048,2.416c-0.004,0.254,0.182,0.472,0.435,0.504l2.16,0.287l-0.163,2.465c-0.018,0.271,0.184,0.509,0.455,0.531
							l2.103,0.187l-0.312,2.262c-0.03,0.213,0.08,0.42,0.272,0.516c0.072,0.035,0.147,0.053,0.223,0.053
							c0.13,0,0.258-0.051,0.354-0.149l0.5-0.501c0.01,0.013,0.015,0.028,0.026,0.04l3.404,3.399
							C-35.383,98.364-34.87,98.604-34.266,98.604z M-39.256,93.443l0.181-1.307c0.018-0.135-0.019-0.273-0.104-0.379
							c-0.086-0.107-0.211-0.176-0.348-0.188l-2.139-0.189l0.162-2.443c0.017-0.264-0.173-0.494-0.434-0.529l-2.181-0.287
							l0.048-2.43c0.005-0.262-0.191-0.483-0.451-0.508l-2.048-0.203l0.145-2.437c0.016-0.269-0.184-0.502-0.453-0.526l-2.048-0.189
							l0.05-2.449c0.005-0.254-0.181-0.471-0.433-0.506l-1.989-0.27l-0.048-2.371c-0.005-0.238-0.178-0.439-0.412-0.48l-1.966-0.35
							l0.1-2.344c0.01-0.254-0.17-0.476-0.42-0.517l-2.182-0.353l0.13-2.369c0.015-0.264-0.18-0.495-0.445-0.522l-2.04-0.221
							l0.13-2.5c0.014-0.265-0.181-0.494-0.445-0.522l-2.06-0.222l0.018-2.312c0.002-0.235-0.164-0.44-0.394-0.492l-1.23-0.268
							l4.654-4.655l26.994,26.995L-39.256,93.443z M-32.088,87.773l1.86,1.855c0.029,0.037,0.273,0.375-0.133,0.781l-3.422,3.422
							c-0.367,0.367-0.674,0.211-0.737,0.174l-1.9-1.9c-0.016-0.016-0.036-0.021-0.053-0.035l4.35-4.35
							C-32.11,87.738-32.104,87.758-32.088,87.773z M-38.408,94.006l1.246-1.246c0.013,0.018,0.019,0.037,0.035,0.053l1.945,1.939
							c0.193,0.15,0.536,0.312,0.937,0.312c0.364,0,0.777-0.133,1.169-0.525l3.422-3.422c0.826-0.828,0.501-1.74,0.173-2.15
							l-1.9-1.9c-0.016-0.016-0.036-0.021-0.053-0.035l1.226-1.226l3.348,3.345c0.071,0.094,0.671,0.953-0.266,1.891l-3.446,3.445
							c-0.006,0.006-0.013,0.012-0.019,0.018l-2.577,2.578c-0.939,0.938-1.794,0.338-1.841,0.309l-3.359-3.358
							C-38.38,94.021-38.396,94.017-38.408,94.006z"/>
						<path fill="#FFFFFF" d="M-78.427,141.087c0.26-0.603,0.403-1.255,0.404-1.931c0-1.301-0.507-2.525-1.427-3.443l-17.495-17.494
							c-0.195-0.195-0.512-0.195-0.707,0c-0.195,0.195-0.195,0.512,0,0.707l15.425,15.425c-0.221-0.03-0.441-0.065-0.667-0.065
							c-1.301,0-2.524,0.508-3.443,1.426c-0.921,0.922-1.428,2.145-1.429,3.445c0,1.302,0.507,2.525,1.427,3.445
							c0.919,0.92,2.142,1.426,3.443,1.426c0.228,0,0.449-0.035,0.67-0.065l-11.136,11.136c-0.195,0.195-0.195,0.512,0,0.707
							c0.098,0.098,0.226,0.146,0.354,0.146s0.256-0.049,0.353-0.146l13.202-13.2c0.001-0.001,0.002-0.002,0.003-0.003
							s0.001-0.002,0.002-0.003l0.935-0.935C-78.356,141.507-78.332,141.274-78.427,141.087z M-80.149,141.886l-0.015,0.015
							c-1.464,1.454-4.009,1.455-5.468-0.006c-0.732-0.73-1.134-1.703-1.134-2.738c0-1.033,0.404-2.006,1.136-2.736
							c0.73-0.732,1.702-1.135,2.736-1.135c1.033,0,2.001,0.401,2.732,1.13l0.004,0.005c0,0.001,0.001,0.001,0.002,0.001
							c0.732,0.73,1.133,1.703,1.133,2.735C-79.023,140.188-79.424,141.154-80.149,141.886z"/>
						<path fill="#FFFFFF" d="M-95.693,69.409c-0.104-0.255-0.396-0.375-0.652-0.273c-0.255,0.105-0.376,0.398-0.271,0.654
							l4.592,11.142c0.063,0.154,0.2,0.268,0.364,0.301c0.033,0.006,0.066,0.01,0.098,0.01c0.131,0,0.259-0.053,0.354-0.148
							l15.611-15.611c0.118-0.116,0.17-0.287,0.137-0.45c-0.032-0.164-0.146-0.302-0.3-0.365l-3.076-1.268l6.974-6.975
							c0.195-0.195,0.195-0.512,0-0.707l-5.203-5.205c-0.094-0.093-0.221-0.146-0.354-0.146s-0.26,0.052-0.354,0.146l-2.186,2.186
							l-4.852-4.851c-0.195-0.195-0.512-0.195-0.707,0l-9.292,9.29c-0.05,0.047-0.092,0.104-0.119,0.171c0,0.001,0,0.002,0,0.003
							c-0.025,0.061-0.038,0.126-0.038,0.191c0,0.013,0.006,0.025,0.007,0.039c0.009,0.114,0.052,0.227,0.139,0.314
							c0.053,0.053,0.115,0.088,0.181,0.113L-87.285,61c0.003,0.001,0.006,0.002,0.009,0.004l7.355,3.032
							c0.007,0.003,0.014,0.006,0.021,0.009l3.064,1.263l-14.551,14.549L-95.693,69.409z M-93.581,57.324l8.417-8.415l4.498,4.497
							l-6.543,6.542L-93.581,57.324z M-86.207,60.362l6.603-6.601c0.002-0.002,0.003-0.006,0.005-0.008l2.179-2.178l4.496,4.498
							l-6.914,6.915L-86.207,60.362z"/>
						<path fill="#FFFFFF" d="M-74.665,77.514c-0.002-0.002-0.004-0.002-0.006-0.004l-2.28-2.281
							c-1.342-1.345-3.45-1.422-4.694-0.179c-1.243,1.246-1.163,3.349,0.179,4.693l2.288,2.284l2.284,2.287
							c0.706,0.705,1.621,1.061,2.513,1.061c0.805,0,1.59-0.291,2.18-0.881c1.245-1.246,1.165-3.352-0.178-4.695L-74.665,77.514z
							 M-72.908,83.787c-0.854,0.852-2.324,0.771-3.279-0.18l-2.284-2.287l-2.288-2.284c-0.952-0.953-1.033-2.425-0.179-3.279
							c0.855-0.853,2.326-0.774,3.28,0.179l2.286,2.287c0.002,0.002,0.004,0.002,0.006,0.004l2.28,2.279
							C-72.133,81.459-72.054,82.93-72.908,83.787z"/>
						<path fill="#FFFFFF" d="M-64.759,24.25c-0.195-0.195-0.512-0.195-0.707,0l-6.97,6.969c-0.195,0.195-0.195,0.512,0,0.707
							c0.098,0.097,0.226,0.146,0.354,0.146s0.256-0.049,0.353-0.146l6.97-6.969C-64.564,24.762-64.564,24.445-64.759,24.25z"/>
						<path fill="#FFFFFF" d="M-69.027,34.627c-0.195,0.195-0.195,0.512,0,0.707c0.098,0.097,0.226,0.146,0.354,0.146
							s0.256-0.049,0.353-0.146l6.97-6.969c0.195-0.195,0.195-0.512,0-0.707c-0.195-0.195-0.512-0.195-0.707,0L-69.027,34.627z"/>
					</g>
				</g>
			</g>
		</g>
	</g>
</g>
</svg>
