<?xml version="1.0" encoding="utf-8"?>
<!-- Generator: Adobe Illustrator 16.0.0, SVG Export Plug-In . SVG Version: 6.00 Build 0)  -->
<!DOCTYPE svg PUBLIC "-//W3C//DTD SVG 1.1//EN" "http://www.w3.org/Graphics/SVG/1.1/DTD/svg11.dtd">
<svg version="1.1" id="Layer_1" xmlns="http://www.w3.org/2000/svg" xmlns:xlink="http://www.w3.org/1999/xlink" x="0px" y="0px"
	 width="40px" height="40px" viewBox="0 0 40 40" enable-background="new 0 0 40 40" xml:space="preserve">
<path fill="#FFFFFF" d="M29.391,26.764c2.565-2.469,3.978-5.753,3.978-9.248c0-3.346-1.309-6.491-3.67-8.919l0.868-0.835
	c0.149-0.144,0.154-0.381,0.011-0.53c-0.145-0.15-0.382-0.154-0.53-0.011l-1.032,0.993c-0.054,0.019-0.112,0.024-0.154,0.067
	c-0.035,0.036-0.033,0.086-0.051,0.13l-1.301,1.251C25.474,7.812,22.74,6.67,19.728,6.67c-6.261,0-11.354,4.913-11.354,10.952
	c0,2.896,1.182,5.527,3.094,7.488l-1.104,1.062c-0.052,0.019-0.107,0.022-0.148,0.064c-0.033,0.035-0.031,0.083-0.049,0.125
	l-1.132,1.089c-0.149,0.144-0.154,0.381-0.011,0.53c0.074,0.077,0.172,0.115,0.271,0.115c0.094,0,0.188-0.035,0.26-0.104l0.987-0.95
	c2.482,2.247,5.629,3.42,8.813,3.521l0.001,2.614l-3.766,0.001c-0.207,0-0.375,0.168-0.375,0.375s0.168,0.375,0.375,0.375
	l3.971-0.001c0.052,0.027,0.107,0.046,0.17,0.046s0.118-0.019,0.17-0.046l3.973-0.001c0.207,0,0.375-0.168,0.375-0.375
	s-0.168-0.375-0.375-0.375l-3.768,0.001l-0.001-2.607C23.476,30.498,26.824,29.236,29.391,26.764z M19.733,7.42
	c5.849,0,10.607,4.577,10.607,10.202c0,2.723-1.102,5.283-3.102,7.21c-2.005,1.93-4.672,2.993-7.509,2.993
	c-2.893-0.001-5.517-1.124-7.432-2.938c-0.01-0.013-0.006-0.029-0.017-0.041c-0.016-0.017-0.04-0.013-0.058-0.025
	c-1.915-1.847-3.102-4.392-3.102-7.199C9.123,11.997,13.88,7.42,19.733,7.42z M12.009,25.629c2.029,1.821,4.739,2.945,7.722,2.946
	c3.032,0,5.884-1.138,8.028-3.203c2.149-2.069,3.333-4.822,3.332-7.75c0-2.872-1.161-5.481-3.045-7.437l1.112-1.07
	c2.227,2.289,3.46,5.25,3.46,8.401c0,3.289-1.331,6.381-3.747,8.706c-4.889,4.712-12.768,4.804-17.788,0.298L12.009,25.629z"/>
</svg>
