<?xml version="1.0" encoding="utf-8"?>
<!-- Generator: Adobe Illustrator 16.0.0, SVG Export Plug-In . SVG Version: 6.00 Build 0)  -->
<!DOCTYPE svg PUBLIC "-//W3C//DTD SVG 1.1//EN" "http://www.w3.org/Graphics/SVG/1.1/DTD/svg11.dtd">
<svg version="1.1" id="Layer_1" xmlns="http://www.w3.org/2000/svg" xmlns:xlink="http://www.w3.org/1999/xlink" x="0px" y="0px"
	 width="20px" height="20px" viewBox="0 0 20 20" enable-background="new 0 0 20 20" xml:space="preserve">
<g>
	<circle fill="#FFFFFF" cx="9.678" cy="7.856" r="5.682"/>
	<path fill="#FFFFFF" d="M17.311,7.855c0-2.385-1.087-4.584-2.98-6.036c-0.164-0.124-0.399-0.096-0.526,0.07
		c-0.126,0.165-0.095,0.4,0.069,0.526c1.708,1.308,2.688,3.291,2.688,5.44c0,3.778-3.072,6.853-6.85,6.853
		c-0.006,0-0.011,0.003-0.017,0.003s-0.011-0.003-0.017-0.003c-2.146,0-4.13-0.979-5.44-2.688c-0.127-0.164-0.362-0.193-0.526-0.069
		c-0.164,0.127-0.195,0.362-0.069,0.526c1.357,1.769,3.368,2.82,5.567,2.954v1.804H6.494c-0.069,0-0.125,0.056-0.125,0.125v0.522
		c0,0.069,0.056,0.125,0.125,0.125h6.432c0.069,0,0.125-0.056,0.125-0.125V17.36c0-0.069-0.056-0.125-0.125-0.125h-2.75v-1.801
		C14.149,15.192,17.311,11.891,17.311,7.855z"/>
</g>
</svg>
