<?xml version="1.0" encoding="utf-8"?>
<!-- Generator: Adobe Illustrator 16.0.0, SVG Export Plug-In . SVG Version: 6.00 Build 0)  -->
<!DOCTYPE svg PUBLIC "-//W3C//DTD SVG 1.1//EN" "http://www.w3.org/Graphics/SVG/1.1/DTD/svg11.dtd">
<svg version="1.1" id="Layer_1" xmlns="http://www.w3.org/2000/svg" xmlns:xlink="http://www.w3.org/1999/xlink" x="0px" y="0px"
	 width="124px" height="124px" viewBox="0 0 124 124" enable-background="new 0 0 124 124" xml:space="preserve">
<g opacity="0.09">
	<g>
		<defs>
			<rect id="SVGID_1_" y="0" width="124" height="124"/>
		</defs>
		<clipPath id="SVGID_2_">
			<use xlink:href="#SVGID_1_"  overflow="visible"/>
		</clipPath>
		<g clip-path="url(#SVGID_2_)">
			<g>
				<g>
					<g>
						<g>
							<g>
								<path fill="#231F20" d="M208.579,27.674c-0.133,0-0.26-0.053-0.354-0.146L181.48,0.782
									c-0.094-0.094-0.146-0.221-0.146-0.354s0.053-0.26,0.146-0.354l22.831-22.829c0.195-0.195,0.512-0.195,0.707,0L231.763,3.99
									c0.195,0.195,0.195,0.512,0,0.707l-22.83,22.831C208.839,27.622,208.712,27.674,208.579,27.674z M182.541,0.428
									l26.038,26.039l22.123-22.124l-26.037-26.037L182.541,0.428z"/>
							</g>
						</g>
						<g>
							<g>
								<path fill="none" stroke="#231F20" stroke-linecap="round" stroke-linejoin="round" stroke-miterlimit="10" d="
									M181.834,0.428"/>
							</g>
						</g>
						<g>
							<g>
								<path fill="#231F20" d="M212.23,31.325c-0.128,0-0.256-0.049-0.354-0.146L181.48,0.782c-0.195-0.195-0.195-0.512,0-0.707
									s0.512-0.195,0.707,0l30.396,30.396c0.195,0.195,0.195,0.512,0,0.707C212.486,31.276,212.358,31.325,212.23,31.325z"/>
							</g>
						</g>
						<g>
							<g>
								<path fill="#231F20" d="M209.218,33.492c-0.649,0-1.299-0.248-1.794-0.741L179.908,5.235
									c-0.989-0.989-0.99-2.598-0.002-3.586l1.574-1.574c0.195-0.195,0.512-0.195,0.707,0s0.195,0.512,0,0.707l-1.574,1.574
									c-0.288,0.288-0.446,0.673-0.446,1.085s0.159,0.798,0.448,1.087l27.516,27.515c0.6,0.6,1.574,0.599,2.172,0.002l1.574-1.574
									c0.195-0.195,0.512-0.195,0.707,0s0.195,0.512,0,0.707l-1.574,1.574C210.516,33.246,209.867,33.492,209.218,33.492z"/>
							</g>
						</g>
					</g>
				</g>
				<g>
					<g>
						<g>
							<g>
								<path fill="#231F20" d="M122.054,41.797c-3.939,0-7.645-1.534-10.431-4.32c-2.787-2.786-4.321-6.491-4.321-10.432
									c0-3.94,1.535-7.645,4.321-10.431c2.785-2.787,6.49-4.321,10.431-4.321c3.941,0,7.646,1.535,10.433,4.321
									c2.786,2.785,4.321,6.49,4.32,10.431c0,3.94-1.534,7.646-4.32,10.432C129.698,40.263,125.994,41.797,122.054,41.797z
									 M122.054,13.292c-3.674,0-7.127,1.431-9.724,4.028c-2.598,2.597-4.028,6.05-4.028,9.724c0,3.674,1.431,7.127,4.028,9.725
									s6.051,4.027,9.724,4.027s7.127-1.43,9.726-4.027c5.362-5.364,5.362-14.088,0-19.449
									C129.182,14.723,125.728,13.292,122.054,13.292z"/>
							</g>
						</g>
						<g>
							<g>
								<path fill="#231F20" d="M122.025,44.484c-0.276,0-0.5-0.223-0.5-0.5c0-0.275,0.224-0.5,0.5-0.5
									c4.437,0,8.607-1.727,11.744-4.865c3.137-3.137,4.864-7.308,4.863-11.746c0-9.157-7.45-16.607-16.607-16.607
									c-0.276,0-0.5-0.224-0.5-0.5s0.224-0.5,0.5-0.5c9.709,0,17.607,7.898,17.607,17.607c0.001,4.704-1.83,9.126-5.156,12.454
									C131.151,42.652,126.729,44.484,122.025,44.484z"/>
							</g>
						</g>
						<g>
							<g>
								<path fill="none" stroke="#231F20" stroke-miterlimit="10" d="M122.102,39.541"/>
							</g>
						</g>
						<g>
							<g>
								<path fill="#231F20" d="M122.102,46.744c-0.276,0-0.5-0.223-0.5-0.5v-4.986c0-0.275,0.224-0.5,0.5-0.5s0.5,0.225,0.5,0.5
									v4.986C122.602,46.521,122.378,46.744,122.102,46.744z"/>
							</g>
						</g>
						<g>
							<g>
								<path fill="#231F20" d="M122.102,13.256c-0.276,0-0.5-0.224-0.5-0.5V7.688c0-0.276,0.224-0.5,0.5-0.5s0.5,0.224,0.5,0.5
									v5.068C122.602,13.033,122.378,13.256,122.102,13.256z"/>
							</g>
						</g>
						<g>
							<g>
								<g>
									<path fill="#231F20" d="M137.916,43.252c-0.128,0-0.256-0.049-0.354-0.146l-3.787-3.785c-0.195-0.195-0.195-0.512,0-0.707
										s0.512-0.195,0.707,0l3.787,3.785c0.195,0.195,0.195,0.512,0,0.707C138.172,43.203,138.044,43.252,137.916,43.252z"/>
								</g>
							</g>
							<g>
								<g>
									<path fill="#231F20" d="M133.033,48.025c-0.128,0-0.256-0.049-0.354-0.146c-0.195-0.195-0.195-0.512,0-0.707l9.654-9.658
										c0.195-0.195,0.512-0.195,0.707,0s0.195,0.512,0,0.707l-9.654,9.658C133.289,47.977,133.161,48.025,133.033,48.025z"/>
								</g>
							</g>
						</g>
					</g>
					<g>
						<g>
							<path fill="none" stroke="#231F20" stroke-linecap="round" stroke-linejoin="round" stroke-miterlimit="10" d="M123.992-8.83
								"/>
						</g>
					</g>
					<g>
						<g>
							<g>
								<path fill="#231F20" d="M84.579,27.674c-0.133,0-0.26-0.053-0.354-0.146L57.48,0.782c-0.094-0.094-0.146-0.221-0.146-0.354
									s0.053-0.26,0.146-0.354l22.831-22.829c0.195-0.195,0.512-0.195,0.707,0L107.763,3.99c0.195,0.195,0.195,0.512,0,0.707
									l-22.83,22.831C84.839,27.622,84.712,27.674,84.579,27.674z M58.541,0.428l26.038,26.039l22.123-22.124L80.665-21.694
									L58.541,0.428z"/>
							</g>
						</g>
						<g>
							<g>
								<path fill="#231F20" d="M88.23,31.325c-0.128,0-0.256-0.049-0.354-0.146l-3.651-3.65c-0.094-0.094-0.146-0.221-0.146-0.354
									s0.053-0.26,0.146-0.354l22.83-22.831c0.188-0.188,0.52-0.188,0.707,0l3.65,3.65c0.195,0.195,0.195,0.512,0,0.707
									L88.584,31.178C88.486,31.276,88.358,31.325,88.23,31.325z M85.286,27.174l2.944,2.943l22.122-22.124l-2.943-2.943
									L85.286,27.174z"/>
							</g>
						</g>
						<g>
							<g>
								<path fill="none" stroke="#231F20" stroke-linecap="round" stroke-linejoin="round" stroke-miterlimit="10" d="
									M57.834,0.428"/>
							</g>
						</g>
						<g>
							<g>
								<path fill="#231F20" d="M88.23,31.325c-0.128,0-0.256-0.049-0.354-0.146L57.48,0.782c-0.195-0.195-0.195-0.512,0-0.707
									s0.512-0.195,0.707,0l30.396,30.396c0.195,0.195,0.195,0.512,0,0.707C88.486,31.276,88.358,31.325,88.23,31.325z"/>
							</g>
						</g>
						<g>
							<g>
								<path fill="#231F20" d="M85.218,33.492c-0.649,0-1.299-0.248-1.794-0.741L55.908,5.235c-0.989-0.989-0.99-2.598-0.002-3.586
									l1.574-1.574c0.195-0.195,0.512-0.195,0.707,0s0.195,0.512,0,0.707l-1.574,1.574c-0.288,0.288-0.446,0.673-0.446,1.085
									s0.159,0.798,0.448,1.087l27.516,27.515c0.6,0.6,1.574,0.599,2.172,0.002l1.574-1.574c0.195-0.195,0.512-0.195,0.707,0
									s0.195,0.512,0,0.707l-1.574,1.574C86.516,33.246,85.867,33.492,85.218,33.492z"/>
							</g>
						</g>
						<g>
							<g>
								<path fill="#231F20" d="M83.392,32.512c-0.128,0-0.256-0.049-0.354-0.146l-0.913-0.914
									c-0.707-0.709-0.476-2.052,0.525-3.058L107.056,3.99c0.195-0.195,0.512-0.195,0.707,0s0.195,0.512,0,0.707L83.358,29.1
									c-0.619,0.622-0.788,1.381-0.525,1.645l0.912,0.912c0.195,0.194,0.195,0.512,0,0.707
									C83.647,32.463,83.52,32.512,83.392,32.512z"/>
							</g>
						</g>
						<g>
							<g>
								<path fill="#231F20" d="M69.01-0.841c-0.128,0-0.256-0.049-0.354-0.146c-0.195-0.195-0.195-0.512,0-0.707l10.507-10.507
									c0.195-0.195,0.512-0.195,0.707,0s0.195,0.512,0,0.707L69.363-0.988C69.266-0.89,69.138-0.841,69.01-0.841z"/>
							</g>
						</g>
						<g>
							<g>
								<path fill="#231F20" d="M72.673,2.821c-0.128,0-0.256-0.049-0.354-0.146c-0.195-0.195-0.195-0.512,0-0.707L82.825-8.542
									c0.195-0.195,0.512-0.195,0.707,0s0.195,0.512,0,0.707L73.026,2.674C72.929,2.772,72.801,2.821,72.673,2.821z"/>
							</g>
						</g>
					</g>
					<g>
						<g>
							<g>
								<path fill="none" stroke="#231F20" stroke-linecap="round" stroke-linejoin="round" stroke-miterlimit="10" d="
									M82.887,49.684"/>
							</g>
						</g>
						<g>
							<g>
								<path fill="#231F20" d="M101.043,57.08c-0.128,0-0.256-0.049-0.354-0.146c-0.195-0.195-0.195-0.512,0-0.707l2.777-2.777
									c0.195-0.195,0.512-0.195,0.707,0s0.195,0.512,0,0.707l-2.777,2.777C101.299,57.031,101.171,57.08,101.043,57.08z"/>
							</g>
						</g>
						<g>
							<g>
								<path fill="#231F20" d="M94.777,56.02c-0.128,0-0.256-0.049-0.354-0.146c-0.195-0.195-0.195-0.512,0-0.707l2.602-2.602
									c0.195-0.195,0.512-0.195,0.707,0s0.195,0.512,0,0.707l-2.602,2.602C95.033,55.971,94.905,56.02,94.777,56.02z"/>
							</g>
						</g>
						<g>
							<g>
								<path fill="#231F20" d="M89.492,53.979c-0.128,0-0.256-0.049-0.354-0.146c-0.195-0.194-0.195-0.512,0-0.707l2.035-2.037
									c0.195-0.195,0.512-0.195,0.707,0s0.195,0.512,0,0.707l-2.035,2.037C89.748,53.93,89.62,53.979,89.492,53.979z"/>
							</g>
						</g>
						<g>
							<g>
								<path fill="#231F20" d="M85.83,50.316c-0.128,0-0.256-0.049-0.354-0.146c-0.195-0.194-0.195-0.512,0-0.707l2.264-2.266
									c0.195-0.195,0.512-0.195,0.707,0s0.195,0.512,0,0.707l-2.264,2.266C86.086,50.268,85.958,50.316,85.83,50.316z"/>
							</g>
						</g>
						<g>
							<g>
								<path fill="#231F20" d="M92.696,78.977c-0.515,0-1.075-0.094-1.667-0.327c-2.805-1.104-2.897-3.998-2.9-4.12l-2.409-15.75
									l-5.864-5.867l-4.489-1.076c-0.177-0.042-0.315-0.176-0.365-0.35c-0.049-0.175,0-0.361,0.128-0.49l9.963-9.961
									c0.128-0.127,0.315-0.177,0.489-0.127c0.174,0.049,0.309,0.188,0.351,0.364l1.076,4.489l5.866,5.867l15.812,2.41
									c0.033-0.025,2.953,0.086,4.058,2.896c1.112,2.821-0.874,4.609-0.959,4.685L95.689,77.713
									C95.239,78.229,94.146,78.977,92.696,78.977z M76.468,51.072l3.758,0.9c0.09,0.021,0.172,0.068,0.237,0.133l6.08,6.082
									c0.075,0.076,0.125,0.174,0.141,0.278l2.439,15.977c0.009,0.159,0.098,2.421,2.272,3.276
									c2.173,0.855,3.55-0.673,3.564-0.688l7.666-7.667c0.002-0.002,0.005-0.005,0.007-0.008l0.816-0.816
									c0.003-0.002,0.006-0.005,0.009-0.008l7.644-7.643c0.085-0.076,1.562-1.434,0.713-3.588
									c-0.856-2.176-3.119-2.265-3.216-2.268l-16.037-2.441c-0.105-0.016-0.203-0.064-0.278-0.141l-6.082-6.082
									c-0.065-0.064-0.111-0.146-0.133-0.236l-0.901-3.759L76.468,51.072z"/>
							</g>
						</g>
					</g>
					<g>
						<g>
							<g>
								
									<path fill-rule="evenodd" clip-rule="evenodd" fill="none" stroke="#231F20" stroke-linecap="round" stroke-linejoin="round" stroke-miterlimit="10" d="
									M167.82,45.742"/>
							</g>
						</g>
						<g>
							<g>
								<path fill="#231F20" d="M190.377,46.244L190.377,46.244l-15.088-0.002c-0.276,0-0.5-0.224-0.5-0.5
									c0-0.275,0.224-0.5,0.5-0.5l0,0l14.588,0.002l-0.002-9.211l-14.586,0.004c-0.276,0-0.5-0.223-0.5-0.5
									c0-0.275,0.224-0.5,0.5-0.5l15.086-0.004c0.133,0,0.26,0.053,0.354,0.146s0.146,0.221,0.146,0.354l0.002,10.211
									c0,0.133-0.053,0.26-0.146,0.354S190.51,46.244,190.377,46.244z"/>
							</g>
						</g>
						<g>
							<g>
								<path fill="#231F20" d="M152.609,46.244c-0.276,0-0.5-0.223-0.5-0.5l-0.002-10.209c0-0.132,0.053-0.26,0.146-0.354
									s0.221-0.146,0.354-0.146h15.215c0.276,0,0.5,0.225,0.5,0.5c0,0.277-0.224,0.5-0.5,0.5h-14.715l0.002,9.209l14.711-0.002
									c0.276,0,0.5,0.225,0.5,0.5c0,0.276-0.224,0.5-0.5,0.5L152.609,46.244z"/>
							</g>
						</g>
						<g>
							<g>
								<rect x="155.108" y="35.873" fill="#231F20" width="1" height="5.584"/>
							</g>
						</g>
						<g>
							<g>
								<rect x="186.994" y="35.873" fill="#231F20" width="1" height="5.586"/>
							</g>
						</g>
						<g>
							<g>
								<rect x="158.298" y="35.874" fill="#231F20" width="1" height="3.078"/>
							</g>
						</g>
						<g>
							<g>
								<rect x="161.486" y="35.873" fill="#231F20" width="1" height="5.584"/>
							</g>
						</g>
						<g>
							<g>
								<rect x="164.673" y="35.872" fill="#231F20" width="1" height="3.082"/>
							</g>
						</g>
						<g>
							<g>
								<rect x="177.428" y="35.871" fill="#231F20" width="1" height="3.08"/>
							</g>
						</g>
						<g>
							<g>
								<rect x="180.616" y="35.871" fill="#231F20" width="1" height="5.586"/>
							</g>
						</g>
						<g>
							<g>
								<rect x="183.805" y="35.872" fill="#231F20" width="1" height="3.084"/>
							</g>
						</g>
						<g>
							<g>
								<path fill="#231F20" d="M167.818,57.055c-0.133,0-0.26-0.053-0.354-0.146s-0.146-0.221-0.146-0.354l-0.002-10.814
									c0-0.275,0.224-0.5,0.5-0.5s0.5,0.225,0.5,0.5l0.002,10.314l6.471-0.002l-0.002-10.311c0-0.275,0.224-0.5,0.5-0.5
									s0.5,0.225,0.5,0.5l0.002,10.811c0,0.276-0.224,0.5-0.5,0.5L167.818,57.055z"/>
							</g>
						</g>
						<g>
							<g>
								<path fill="#231F20" d="M175.287,46.242L175.287,46.242c-0.276,0-0.5-0.224-0.5-0.5l0.002-18.056l-6.471,0.002
									l-0.002,18.052c0,0.277-0.224,0.5-0.5,0.5l0,0c-0.276,0-0.5-0.224-0.5-0.5l0.002-18.552c0-0.276,0.224-0.5,0.5-0.5
									l7.471-0.002c0.133,0,0.26,0.053,0.354,0.146s0.146,0.221,0.146,0.354l-0.002,18.556
									C175.787,46.02,175.563,46.242,175.287,46.242z"/>
							</g>
						</g>
						<g>
							<g>
								<path fill="#231F20" d="M171.551,63.684L171.551,63.684c-0.179,0-0.344-0.095-0.433-0.25l-3.732-6.469
									c-0.09-0.154-0.09-0.345,0-0.5c0.089-0.154,0.254-0.25,0.433-0.25l7.469-0.002c0.179,0,0.344,0.096,0.433,0.25
									c0.09,0.155,0.09,0.346,0,0.5l-3.736,6.471C171.895,63.589,171.729,63.684,171.551,63.684z M168.684,57.215l2.867,4.969
									l2.87-4.971L168.684,57.215z"/>
							</g>
						</g>
						<g>
							<g>
								<path fill="#231F20" d="M171.463,63.279c-0.179,0-0.344-0.095-0.433-0.249l-0.838-1.449c-0.09-0.155-0.09-0.346,0-0.501
									c0.089-0.154,0.254-0.25,0.433-0.25h1.672c0.179,0,0.344,0.096,0.433,0.25c0.09,0.154,0.09,0.346,0.001,0.5l-0.834,1.449
									C171.807,63.184,171.643,63.279,171.463,63.279C171.463,63.279,171.463,63.279,171.463,63.279z"/>
							</g>
						</g>
						<g>
							<g>
								<path fill="#231F20" d="M175.787,27.964l-1-0.001l0.002-3.07c0,0,0,0,0,0c-0.006,0-0.208-1.176-1.18-1.176l-3.878-0.004
									l0.002-1l3.876,0.004c1.479,0,2.069,1.376,2.175,2.104L175.787,27.964z"/>
							</g>
						</g>
						<g>
							<g>
								<path fill="#231F20" d="M167.318,27.966l-0.002-3.072c0.11-0.8,0.699-2.176,2.177-2.176c0.002,0,0.004,0,0.006,0h3.874v1
									h-3.875c-0.001,0-0.002,0-0.003,0c-0.98,0-1.177,1.198-1.185,1.25l0.008,2.998L167.318,27.966z"/>
							</g>
						</g>
					</g>
					<g>
						<g>
							<g>
								<path fill="#231F20" d="M115.102-14.599c-0.128,0-0.256-0.049-0.354-0.146L95.41-34.082
									c-0.094-0.094-0.146-0.221-0.146-0.354s0.053-0.26,0.146-0.354l36.598-36.596c0.195-0.195,0.512-0.195,0.707,0
									l19.336,19.336c0.094,0.094,0.146,0.221,0.146,0.354s-0.053,0.26-0.146,0.354l-36.596,36.596
									C115.357-14.648,115.229-14.599,115.102-14.599z M96.471-34.435l18.631,18.629l35.889-35.889l-18.629-18.629L96.471-34.435z
									"/>
							</g>
						</g>
						<g>
							<g>
								<path fill="#231F20" d="M127.309-7.474c-0.212,0-0.408-0.135-0.476-0.347l-4.699-14.635
									c-0.085-0.263,0.06-0.544,0.322-0.629c0.263-0.084,0.545,0.061,0.629,0.323l4.699,14.635
									c0.085,0.263-0.06,0.544-0.322,0.629C127.411-7.482,127.359-7.474,127.309-7.474z"/>
							</g>
						</g>
						<g>
							<g>
								<path fill="#231F20" d="M157.906-38.07c-0.051,0-0.103-0.008-0.153-0.024l-14.633-4.703
									c-0.263-0.084-0.407-0.366-0.322-0.629c0.084-0.263,0.366-0.407,0.629-0.323l14.633,4.703
									c0.263,0.084,0.407,0.366,0.322,0.629C158.314-38.205,158.118-38.07,157.906-38.07z"/>
							</g>
						</g>
						<g>
							<g>
								<path fill="#231F20" d="M121.414-10.867c-0.128,0-0.256-0.049-0.354-0.146c-0.195-0.195-0.195-0.512,0-0.707l32.457-32.455
									c0.195-0.195,0.512-0.195,0.707,0s0.195,0.512,0,0.707l-32.457,32.455C121.67-10.916,121.542-10.867,121.414-10.867z"/>
							</g>
						</g>
						<g>
							<g>
								<path fill="#231F20" d="M112.805-16.896c-0.128,0-0.256-0.049-0.354-0.146c-0.195-0.195-0.195-0.512,0-0.707l36.598-36.594
									c0.195-0.195,0.512-0.195,0.707,0s0.195,0.512,0,0.707l-36.598,36.594C113.061-16.945,112.933-16.896,112.805-16.896z"/>
							</g>
						</g>
					</g>
					<g>
						<g>
							<g>
								<path fill="#231F20" d="M167.062,10.153c-4.116,0-10.463-3.686-16.168-9.389c-7.712-7.713-11.359-16.148-8.305-19.203
									c0.721-0.721,1.742-1.087,3.036-1.087c4.117,0,10.463,3.686,16.167,9.39c3.621,3.621,6.492,7.569,8.086,11.117
									c1.659,3.696,1.737,6.568,0.219,8.086C169.377,9.788,168.355,10.153,167.062,10.153z M145.626-18.526
									c-1.019,0-1.803,0.267-2.329,0.794c-2.569,2.57,1.233,10.716,8.305,17.789c5.442,5.441,11.655,9.096,15.461,9.096
									c1.019,0,1.802-0.267,2.328-0.793c1.187-1.187,1.032-3.727-0.425-6.97c-1.544-3.439-4.343-7.281-7.88-10.819
									C155.645-14.87,149.432-18.526,145.626-18.526z"/>
							</g>
						</g>
						<g>
							<g>
								<path fill="#231F20" d="M146.495,4.735c-4.814,0-7.987-1.307-8.704-3.585c-1.297-4.122,5.837-9.915,16.24-13.189
									c4.245-1.335,8.564-2.071,12.161-2.071c4.815,0,7.988,1.307,8.704,3.585c0.646,2.048-0.751,4.558-3.932,7.068
									c-3.052,2.408-7.423,4.582-12.309,6.12C154.412,4,150.093,4.735,146.495,4.735z M166.192-13.11
									c-3.498,0-7.71,0.719-11.86,2.025c-9.54,3.002-16.678,8.468-15.588,11.936c0.569,1.806,3.467,2.885,7.751,2.885
									c3.499,0,7.711-0.72,11.86-2.026c4.773-1.502,9.031-3.615,11.99-5.95c2.79-2.202,4.102-4.383,3.598-5.983
									C173.375-12.031,170.478-13.11,166.192-13.11z"/>
							</g>
						</g>
						<g>
							<g>
								<path fill="#231F20" d="M152.033,14.53C152.032,14.53,152.033,14.53,152.033,14.53c-0.351,0-0.692-0.052-1.018-0.154
									c-2.047-0.644-3.306-3.226-3.542-7.271c-0.228-3.882,0.493-8.71,2.03-13.594c2.99-9.501,8.109-16.396,12.172-16.396
									c0.35,0,0.691,0.052,1.016,0.153c4.122,1.297,4.787,10.463,1.514,20.867C161.218,7.634,156.099,14.53,152.033,14.53z
									 M161.676-21.886c-3.52,0-8.447,6.895-11.219,15.696c-1.501,4.771-2.206,9.472-1.985,13.236
									c0.208,3.549,1.244,5.873,2.845,6.375c0.227,0.072,0.468,0.108,0.716,0.108c3.523,0,8.451-6.894,11.22-15.695
									c3.001-9.541,2.607-18.522-0.861-19.613C162.164-21.85,161.924-21.886,161.676-21.886z"/>
							</g>
						</g>
						<g>
							<g>
								<path fill="#231F20" d="M156.913-1.905c-0.705,0-1.367-0.274-1.864-0.773c-0.501-0.5-0.775-1.165-0.775-1.872
									c0.001-0.706,0.276-1.368,0.776-1.865c0.993-0.996,2.734-0.998,3.735-0.001c1.027,1.03,1.026,2.706-0.002,3.736
									C158.282-2.18,157.618-1.905,156.913-1.905z M156.917-6.188c-0.438,0-0.851,0.171-1.161,0.481
									c-0.311,0.31-0.481,0.721-0.482,1.158c0,0.439,0.171,0.853,0.482,1.165c0.617,0.62,1.697,0.619,2.32-0.002
									c0.639-0.64,0.64-1.682,0.002-2.322C157.768-6.018,157.355-6.188,156.917-6.188z"/>
							</g>
						</g>
					</g>
					<g>
						<g>
							<path fill="#231F20" d="M176.551-26.167l-11.018-11.018l11.018-11.02l11.02,11.02L176.551-26.167z M166.947-37.185
								l9.604,9.604l9.605-9.604l-9.605-9.605L166.947-37.185z"/>
						</g>
					</g>
					<g>
						<g>
							<path fill="#231F20" d="M186.861-15.855l-11.018-11.02l11.018-11.018l11.02,11.018L186.861-15.855z M177.258-26.875
								l9.604,9.605l9.605-9.605l-9.605-9.604L177.258-26.875z"/>
						</g>
					</g>
					<g>
						<g>
							<path fill="#231F20" d="M197.252-26.246l-11.018-11.018l11.018-11.02l11.018,11.02L197.252-26.246z M187.648-37.263
								l9.604,9.604l9.604-9.604l-9.604-9.605L187.648-37.263z"/>
						</g>
					</g>
					<g>
						<g>
							<path fill="#231F20" d="M186.863-36.478l-11.02-11.02l11.02-11.018l11.018,11.018L186.863-36.478z M177.258-47.498
								l9.605,9.605l9.604-9.605l-9.604-9.604L177.258-47.498z"/>
						</g>
					</g>
					<g>
						<g>
							
								<rect x="186.362" y="-50.407" transform="matrix(0.7071 0.7071 -0.7071 0.7071 21.1449 -146.0433)" fill="#231F20" width="1" height="5.818"/>
						</g>
					</g>
					<g>
						<g>
							<g>
								
									<rect x="176.051" y="-40.094" transform="matrix(0.7071 0.7071 -0.7071 0.7071 25.4167 -135.7315)" fill="#231F20" width="1" height="5.817"/>
							</g>
						</g>
						<g>
							<g>
								
									<rect x="173.64" y="-37.686" transform="matrix(0.7071 0.7071 -0.7071 0.7071 25.4157 -135.7311)" fill="#231F20" width="5.82" height="1"/>
							</g>
						</g>
					</g>
					<g>
						<g>
							<g>
								<rect x="183.953" y="-27.375" fill="#231F20" width="5.818" height="1"/>
							</g>
						</g>
						<g>
							<g>
								<rect x="186.361" y="-29.785" fill="#231F20" width="1" height="5.82"/>
							</g>
						</g>
					</g>
				</g>
				<g>
					<g>
						<g>
							<g>
								<path fill="#231F20" d="M66.377,46.244L66.377,46.244l-15.088-0.002c-0.276,0-0.5-0.224-0.5-0.5c0-0.275,0.224-0.5,0.5-0.5
									l0,0l14.588,0.002l-0.002-9.211l-14.586,0.004c-0.276,0-0.5-0.223-0.5-0.5c0-0.275,0.224-0.5,0.5-0.5l15.086-0.004
									c0.133,0,0.26,0.053,0.354,0.146s0.146,0.221,0.146,0.354l0.002,10.211c0,0.133-0.053,0.26-0.146,0.354
									S66.51,46.244,66.377,46.244z"/>
							</g>
						</g>
					</g>
					<g>
						<g>
							<path fill="#231F20" d="M62.861-15.855l-11.018-11.02l11.018-11.018l11.02,11.018L62.861-15.855z M53.258-26.875l9.604,9.605
								l9.605-9.605l-9.605-9.604L53.258-26.875z"/>
						</g>
					</g>
					<g>
						<g>
							<path fill="#231F20" d="M73.252-26.246L62.234-37.263l11.018-11.02l11.018,11.02L73.252-26.246z M63.648-37.263l9.604,9.604
								l9.604-9.604l-9.604-9.605L63.648-37.263z"/>
						</g>
					</g>
					<g>
						<g>
							<path fill="#231F20" d="M62.863-36.478l-11.02-11.02l11.02-11.018l11.018,11.018L62.863-36.478z M53.258-47.498l9.605,9.605
								l9.604-9.605l-9.604-9.604L53.258-47.498z"/>
						</g>
					</g>
				</g>
				<g>
					<g>
						<g>
							<g>
								<path fill="none" stroke="#231F20" stroke-linecap="round" stroke-linejoin="round" stroke-miterlimit="10" d="
									M82.887-74.316"/>
							</g>
						</g>
						<g>
							<g>
								<path fill="#231F20" d="M101.043-66.919c-0.128,0-0.256-0.049-0.354-0.146c-0.195-0.195-0.195-0.512,0-0.707l2.777-2.777
									c0.195-0.195,0.512-0.195,0.707,0s0.195,0.512,0,0.707l-2.777,2.777C101.299-66.968,101.171-66.919,101.043-66.919z"/>
							</g>
						</g>
						<g>
							<g>
								<path fill="#231F20" d="M94.777-67.98c-0.128,0-0.256-0.049-0.354-0.146c-0.195-0.195-0.195-0.512,0-0.707l2.602-2.602
									c0.195-0.195,0.512-0.195,0.707,0s0.195,0.512,0,0.707l-2.602,2.602C95.033-68.029,94.905-67.98,94.777-67.98z"/>
							</g>
						</g>
						<g>
							<g>
								<path fill="#231F20" d="M89.492-70.021c-0.128,0-0.256-0.049-0.354-0.146c-0.195-0.195-0.195-0.512,0-0.707l2.035-2.037
									c0.195-0.195,0.512-0.195,0.707,0c0.195,0.195,0.195,0.512,0,0.707l-2.035,2.037C89.748-70.07,89.62-70.021,89.492-70.021z"
									/>
							</g>
						</g>
						<g>
							<g>
								<path fill="#231F20" d="M85.83-73.683c-0.128,0-0.256-0.049-0.354-0.146c-0.195-0.195-0.195-0.512,0-0.707l2.264-2.266
									c0.195-0.195,0.512-0.195,0.707,0c0.195,0.195,0.195,0.512,0,0.707l-2.264,2.266C86.086-73.732,85.958-73.683,85.83-73.683z
									"/>
							</g>
						</g>
						<g>
							<g>
								<path fill="#231F20" d="M92.696-45.023c-0.515,0-1.075-0.095-1.667-0.328c-2.805-1.104-2.897-3.998-2.9-4.121l-2.409-15.75
									l-5.864-5.867l-4.489-1.076c-0.177-0.042-0.315-0.176-0.365-0.351c-0.049-0.174,0-0.361,0.128-0.489l9.963-9.961
									c0.128-0.127,0.315-0.176,0.489-0.127c0.174,0.049,0.309,0.188,0.351,0.364l1.076,4.49l5.866,5.866l15.812,2.411
									c0.033-0.018,2.953,0.085,4.058,2.895c1.112,2.822-0.874,4.609-0.959,4.684L95.689-46.287
									C95.239-45.772,94.146-45.023,92.696-45.023z M76.468-72.928l3.758,0.901c0.09,0.021,0.172,0.067,0.237,0.133l6.08,6.082
									c0.075,0.075,0.125,0.173,0.141,0.278l2.439,15.977c0.009,0.159,0.098,2.421,2.272,3.276
									c2.173,0.857,3.55-0.673,3.564-0.688l7.666-7.667c0.002-0.002,0.005-0.005,0.007-0.007l0.816-0.816
									c0.003-0.003,0.006-0.005,0.009-0.008l7.644-7.642c0.085-0.077,1.562-1.434,0.713-3.588
									c-0.856-2.176-3.119-2.265-3.216-2.267l-16.037-2.441c-0.105-0.016-0.203-0.065-0.278-0.141l-6.082-6.082
									c-0.065-0.065-0.111-0.147-0.133-0.237l-0.901-3.759L76.468-72.928z"/>
							</g>
						</g>
					</g>
					<g>
						<g>
							<g>
								<path fill="#231F20" d="M167.818-66.945c-0.133,0-0.26-0.053-0.354-0.146s-0.146-0.221-0.146-0.354l-0.002-10.814
									c0-0.276,0.224-0.5,0.5-0.5s0.5,0.224,0.5,0.5l0.002,10.314l6.471-0.002l-0.002-10.311c0-0.276,0.224-0.5,0.5-0.5
									s0.5,0.224,0.5,0.5l0.002,10.811c0,0.276-0.224,0.5-0.5,0.5L167.818-66.945z"/>
							</g>
						</g>
						<g>
							<g>
								<path fill="#231F20" d="M171.551-60.316L171.551-60.316c-0.179,0-0.344-0.095-0.433-0.25l-3.732-6.469
									c-0.09-0.155-0.09-0.345,0-0.5c0.089-0.155,0.254-0.25,0.433-0.25l7.469-0.002c0.179,0,0.344,0.095,0.433,0.25
									c0.09,0.155,0.09,0.345,0,0.5l-3.736,6.471C171.895-60.411,171.729-60.316,171.551-60.316z M168.684-66.785l2.867,4.969
									l2.87-4.971L168.684-66.785z"/>
							</g>
						</g>
						<g>
							<g>
								<path fill="#231F20" d="M171.463-60.72c-0.179,0-0.344-0.095-0.433-0.25l-0.838-1.449c-0.09-0.155-0.09-0.346,0-0.5
									c0.089-0.155,0.254-0.25,0.433-0.25h1.672c0.179,0,0.344,0.095,0.433,0.25c0.09,0.155,0.09,0.345,0.001,0.5l-0.834,1.449
									C171.807-60.816,171.643-60.72,171.463-60.72C171.463-60.72,171.463-60.72,171.463-60.72z"/>
							</g>
						</g>
					</g>
				</g>
			</g>
		</g>
		<g clip-path="url(#SVGID_2_)">
			<g>
				<g>
					<g>
						<g>
							<g>
								<path fill="#231F20" d="M208.579,151.674c-0.133,0-0.26-0.053-0.354-0.146l-26.745-26.746
									c-0.094-0.094-0.146-0.221-0.146-0.354s0.053-0.26,0.146-0.354l22.831-22.828c0.195-0.195,0.512-0.195,0.707,0
									l26.744,26.744c0.195,0.195,0.195,0.512,0,0.707l-22.83,22.83C208.839,151.621,208.712,151.674,208.579,151.674z
									 M182.541,124.428l26.038,26.039l22.123-22.123l-26.037-26.037L182.541,124.428z"/>
							</g>
						</g>
						<g>
							<g>
								<path fill="none" stroke="#231F20" stroke-linecap="round" stroke-linejoin="round" stroke-miterlimit="10" d="
									M181.834,124.428"/>
							</g>
						</g>
						<g>
							<g>
								<path fill="#231F20" d="M212.23,155.324c-0.128,0-0.256-0.049-0.354-0.146l-30.396-30.396c-0.195-0.195-0.195-0.512,0-0.707
									s0.512-0.195,0.707,0l30.396,30.396c0.195,0.195,0.195,0.512,0,0.707C212.486,155.275,212.358,155.324,212.23,155.324z"/>
							</g>
						</g>
						<g>
							<g>
								<path fill="#231F20" d="M209.218,157.492c-0.649,0-1.299-0.248-1.794-0.741l-27.516-27.517
									c-0.989-0.988-0.99-2.598-0.002-3.586l1.574-1.574c0.195-0.195,0.512-0.195,0.707,0s0.195,0.512,0,0.707l-1.574,1.574
									c-0.288,0.289-0.446,0.674-0.446,1.086c0,0.411,0.159,0.797,0.448,1.086l27.516,27.516c0.6,0.6,1.574,0.599,2.172,0.002
									l1.574-1.574c0.195-0.195,0.512-0.195,0.707,0s0.195,0.512,0,0.707l-1.574,1.574
									C210.516,157.246,209.867,157.492,209.218,157.492z"/>
							</g>
						</g>
					</g>
				</g>
				<g>
					<g>
						<g>
							<g>
								<path fill="#231F20" d="M122.054,165.797c-3.939,0-7.645-1.534-10.431-4.32c-2.787-2.786-4.321-6.491-4.321-10.432
									c0-3.941,1.535-7.646,4.321-10.432c2.785-2.786,6.49-4.32,10.431-4.32c3.941,0,7.646,1.534,10.433,4.32
									c2.786,2.785,4.321,6.49,4.32,10.432c0,3.94-1.534,7.646-4.32,10.432C129.698,164.263,125.994,165.797,122.054,165.797z
									 M122.054,137.293c-3.674,0-7.127,1.43-9.724,4.027c-2.598,2.598-4.028,6.051-4.028,9.725s1.431,7.127,4.028,9.725
									s6.051,4.027,9.724,4.027s7.127-1.43,9.726-4.027c5.362-5.363,5.362-14.088,0-19.449
									C129.182,138.723,125.728,137.293,122.054,137.293z"/>
							</g>
						</g>
						<g>
							<g>
								<path fill="#231F20" d="M122.025,168.484c-0.276,0-0.5-0.223-0.5-0.5c0-0.275,0.224-0.5,0.5-0.5
									c4.437,0,8.607-1.727,11.744-4.865c3.137-3.137,4.864-7.309,4.863-11.746c0-9.156-7.45-16.607-16.607-16.607
									c-0.276,0-0.5-0.223-0.5-0.5c0-0.275,0.224-0.5,0.5-0.5c9.709,0,17.607,7.898,17.607,17.607
									c0.001,4.705-1.83,9.127-5.156,12.454C131.151,166.652,126.729,168.484,122.025,168.484z"/>
							</g>
						</g>
						<g>
							<g>
								<path fill="none" stroke="#231F20" stroke-miterlimit="10" d="M122.102,163.541"/>
							</g>
						</g>
						<g>
							<g>
								<path fill="#231F20" d="M122.102,170.744c-0.276,0-0.5-0.223-0.5-0.5v-4.986c0-0.275,0.224-0.5,0.5-0.5s0.5,0.225,0.5,0.5
									v4.986C122.602,170.521,122.378,170.744,122.102,170.744z"/>
							</g>
						</g>
						<g>
							<g>
								<path fill="#231F20" d="M122.102,137.256c-0.276,0-0.5-0.223-0.5-0.5v-5.068c0-0.275,0.224-0.5,0.5-0.5s0.5,0.225,0.5,0.5
									v5.068C122.602,137.033,122.378,137.256,122.102,137.256z"/>
							</g>
						</g>
						<g>
							<g>
								<g>
									<path fill="#231F20" d="M137.916,167.252c-0.128,0-0.256-0.049-0.354-0.146l-3.787-3.785c-0.195-0.195-0.195-0.512,0-0.707
										s0.512-0.195,0.707,0l3.787,3.785c0.195,0.195,0.195,0.512,0,0.707C138.172,167.203,138.044,167.252,137.916,167.252z"/>
								</g>
							</g>
							<g>
								<g>
									<path fill="#231F20" d="M133.033,172.025c-0.128,0-0.256-0.049-0.354-0.146c-0.195-0.195-0.195-0.512,0-0.707l9.654-9.658
										c0.195-0.195,0.512-0.195,0.707,0s0.195,0.512,0,0.707l-9.654,9.658C133.289,171.977,133.161,172.025,133.033,172.025z"/>
								</g>
							</g>
						</g>
					</g>
					<g>
						<g>
							<path fill="none" stroke="#231F20" stroke-linecap="round" stroke-linejoin="round" stroke-miterlimit="10" d="
								M123.992,115.17"/>
						</g>
					</g>
					<g>
						<g>
							<g>
								<path fill="#231F20" d="M84.579,151.674c-0.133,0-0.26-0.053-0.354-0.146L57.48,124.781
									c-0.094-0.094-0.146-0.221-0.146-0.354s0.053-0.26,0.146-0.354l22.831-22.828c0.195-0.195,0.512-0.195,0.707,0
									l26.744,26.744c0.195,0.195,0.195,0.512,0,0.707l-22.83,22.83C84.839,151.621,84.712,151.674,84.579,151.674z
									 M58.541,124.428l26.038,26.039l22.123-22.123l-26.037-26.037L58.541,124.428z"/>
							</g>
						</g>
						<g>
							<g>
								<path fill="#231F20" d="M88.23,155.324c-0.128,0-0.256-0.049-0.354-0.146l-3.651-3.65c-0.094-0.094-0.146-0.221-0.146-0.354
									s0.053-0.26,0.146-0.354l22.83-22.83c0.188-0.188,0.52-0.188,0.707,0l3.65,3.65c0.195,0.195,0.195,0.512,0,0.707
									l-22.829,22.83C88.486,155.275,88.358,155.324,88.23,155.324z M85.286,151.174l2.944,2.943l22.122-22.123l-2.943-2.943
									L85.286,151.174z"/>
							</g>
						</g>
						<g>
							<g>
								<path fill="none" stroke="#231F20" stroke-linecap="round" stroke-linejoin="round" stroke-miterlimit="10" d="
									M57.834,124.428"/>
							</g>
						</g>
						<g>
							<g>
								<path fill="#231F20" d="M88.23,155.324c-0.128,0-0.256-0.049-0.354-0.146L57.48,124.781c-0.195-0.195-0.195-0.512,0-0.707
									s0.512-0.195,0.707,0l30.396,30.396c0.195,0.195,0.195,0.512,0,0.707C88.486,155.275,88.358,155.324,88.23,155.324z"/>
							</g>
						</g>
						<g>
							<g>
								<path fill="#231F20" d="M85.218,157.492c-0.649,0-1.299-0.248-1.794-0.741l-27.516-27.517
									c-0.989-0.988-0.99-2.598-0.002-3.586l1.574-1.574c0.195-0.195,0.512-0.195,0.707,0s0.195,0.512,0,0.707l-1.574,1.574
									c-0.288,0.289-0.446,0.674-0.446,1.086c0,0.411,0.159,0.797,0.448,1.086l27.516,27.516c0.6,0.6,1.574,0.599,2.172,0.002
									l1.574-1.574c0.195-0.195,0.512-0.195,0.707,0s0.195,0.512,0,0.707l-1.574,1.574
									C86.516,157.246,85.867,157.492,85.218,157.492z"/>
							</g>
						</g>
						<g>
							<g>
								<path fill="#231F20" d="M83.392,156.512c-0.128,0-0.256-0.049-0.354-0.146l-0.913-0.914
									c-0.707-0.709-0.476-2.053,0.525-3.058l24.405-24.403c0.195-0.195,0.512-0.195,0.707,0s0.195,0.512,0,0.707L83.358,153.1
									c-0.619,0.622-0.788,1.382-0.525,1.646l0.912,0.912c0.195,0.194,0.195,0.512,0,0.707
									C83.647,156.463,83.52,156.512,83.392,156.512z"/>
							</g>
						</g>
						<g>
							<g>
								<path fill="#231F20" d="M69.01,123.158c-0.128,0-0.256-0.049-0.354-0.146c-0.195-0.195-0.195-0.512,0-0.707l10.507-10.506
									c0.195-0.195,0.512-0.195,0.707,0s0.195,0.512,0,0.707l-10.507,10.506C69.266,123.109,69.138,123.158,69.01,123.158z"/>
							</g>
						</g>
						<g>
							<g>
								<path fill="#231F20" d="M72.673,126.82c-0.128,0-0.256-0.049-0.354-0.146c-0.195-0.195-0.195-0.512,0-0.707l10.506-10.508
									c0.195-0.195,0.512-0.195,0.707,0s0.195,0.512,0,0.707l-10.506,10.508C72.929,126.771,72.801,126.82,72.673,126.82z"/>
							</g>
						</g>
					</g>
					<g>
						<g>
							<g>
								<path fill="none" stroke="#231F20" stroke-linecap="round" stroke-linejoin="round" stroke-miterlimit="10" d="
									M82.887,173.684"/>
							</g>
						</g>
						<g>
							<g>
								<path fill="#231F20" d="M101.043,181.08c-0.128,0-0.256-0.049-0.354-0.146c-0.195-0.195-0.195-0.512,0-0.707l2.777-2.777
									c0.195-0.195,0.512-0.195,0.707,0s0.195,0.512,0,0.707l-2.777,2.777C101.299,181.031,101.171,181.08,101.043,181.08z"/>
							</g>
						</g>
						<g>
							<g>
								<path fill="#231F20" d="M94.777,180.02c-0.128,0-0.256-0.049-0.354-0.146c-0.195-0.195-0.195-0.512,0-0.707l2.602-2.602
									c0.195-0.195,0.512-0.195,0.707,0s0.195,0.512,0,0.707l-2.602,2.602C95.033,179.971,94.905,180.02,94.777,180.02z"/>
							</g>
						</g>
						<g>
							<g>
								<path fill="#231F20" d="M89.492,177.979c-0.128,0-0.256-0.049-0.354-0.146c-0.195-0.194-0.195-0.512,0-0.707l2.035-2.037
									c0.195-0.195,0.512-0.195,0.707,0s0.195,0.512,0,0.707l-2.035,2.037C89.748,177.93,89.62,177.979,89.492,177.979z"/>
							</g>
						</g>
						<g>
							<g>
								<path fill="#231F20" d="M85.83,174.316c-0.128,0-0.256-0.049-0.354-0.146c-0.195-0.194-0.195-0.512,0-0.707l2.264-2.266
									c0.195-0.195,0.512-0.195,0.707,0s0.195,0.512,0,0.707l-2.264,2.266C86.086,174.268,85.958,174.316,85.83,174.316z"/>
							</g>
						</g>
						<g>
							<g>
								<path fill="#231F20" d="M92.696,202.977c-0.515,0-1.075-0.094-1.667-0.327c-2.805-1.104-2.897-3.998-2.9-4.12l-2.409-15.75
									l-5.864-5.867l-4.489-1.076c-0.177-0.042-0.315-0.176-0.365-0.35c-0.049-0.175,0-0.361,0.128-0.49l9.963-9.961
									c0.128-0.127,0.315-0.176,0.489-0.127s0.309,0.188,0.351,0.364l1.076,4.489l5.866,5.867l15.812,2.41
									c0.033-0.001,2.953,0.086,4.058,2.896c1.112,2.821-0.874,4.609-0.959,4.685l-16.096,16.094
									C95.239,202.229,94.146,202.977,92.696,202.977z M76.468,175.072l3.758,0.9c0.09,0.021,0.172,0.068,0.237,0.133l6.08,6.082
									c0.075,0.076,0.125,0.174,0.141,0.278l2.439,15.977c0.009,0.159,0.098,2.421,2.272,3.276
									c2.173,0.857,3.55-0.673,3.564-0.688l7.666-7.667c0.002-0.002,0.005-0.005,0.007-0.008l0.816-0.816
									c0.003-0.002,0.006-0.005,0.009-0.008l7.644-7.643c0.085-0.076,1.562-1.434,0.713-3.588
									c-0.856-2.176-3.119-2.265-3.216-2.268l-16.037-2.441c-0.105-0.016-0.203-0.064-0.278-0.141l-6.082-6.082
									c-0.065-0.064-0.111-0.146-0.133-0.236l-0.901-3.759L76.468,175.072z"/>
							</g>
						</g>
					</g>
					<g>
						<g>
							<g>
								
									<path fill-rule="evenodd" clip-rule="evenodd" fill="none" stroke="#231F20" stroke-linecap="round" stroke-linejoin="round" stroke-miterlimit="10" d="
									M167.82,169.742"/>
							</g>
						</g>
						<g>
							<g>
								<path fill="#231F20" d="M190.377,170.244L190.377,170.244l-15.088-0.002c-0.276,0-0.5-0.224-0.5-0.5
									c0-0.275,0.224-0.5,0.5-0.5l0,0l14.588,0.002l-0.002-9.211l-14.586,0.004c-0.276,0-0.5-0.223-0.5-0.5
									c0-0.275,0.224-0.5,0.5-0.5l15.086-0.004c0.133,0,0.26,0.053,0.354,0.146s0.146,0.221,0.146,0.354l0.002,10.211
									c0,0.133-0.053,0.26-0.146,0.354S190.51,170.244,190.377,170.244z"/>
							</g>
						</g>
						<g>
							<g>
								<path fill="#231F20" d="M152.609,170.244c-0.276,0-0.5-0.223-0.5-0.5l-0.002-10.209c0-0.132,0.053-0.26,0.146-0.354
									s0.221-0.146,0.354-0.146h15.215c0.276,0,0.5,0.225,0.5,0.5c0,0.277-0.224,0.5-0.5,0.5h-14.715l0.002,9.209l14.711-0.002
									c0.276,0,0.5,0.225,0.5,0.5c0,0.276-0.224,0.5-0.5,0.5L152.609,170.244z"/>
							</g>
						</g>
						<g>
							<g>
								<rect x="155.108" y="159.873" fill="#231F20" width="1" height="5.584"/>
							</g>
						</g>
						<g>
							<g>
								<rect x="186.994" y="159.873" fill="#231F20" width="1" height="5.586"/>
							</g>
						</g>
						<g>
							<g>
								<rect x="158.298" y="159.874" fill="#231F20" width="1" height="3.078"/>
							</g>
						</g>
						<g>
							<g>
								<rect x="161.486" y="159.873" fill="#231F20" width="1" height="5.584"/>
							</g>
						</g>
						<g>
							<g>
								<rect x="164.673" y="159.872" fill="#231F20" width="1" height="3.082"/>
							</g>
						</g>
						<g>
							<g>
								<rect x="177.428" y="159.871" fill="#231F20" width="1" height="3.08"/>
							</g>
						</g>
						<g>
							<g>
								<rect x="180.616" y="159.871" fill="#231F20" width="1" height="5.586"/>
							</g>
						</g>
						<g>
							<g>
								<rect x="183.805" y="159.872" fill="#231F20" width="1" height="3.084"/>
							</g>
						</g>
						<g>
							<g>
								<path fill="#231F20" d="M167.818,181.055c-0.133,0-0.26-0.053-0.354-0.146s-0.146-0.221-0.146-0.354l-0.002-10.814
									c0-0.275,0.224-0.5,0.5-0.5s0.5,0.225,0.5,0.5l0.002,10.314l6.471-0.002l-0.002-10.311c0-0.275,0.224-0.5,0.5-0.5
									s0.5,0.225,0.5,0.5l0.002,10.811c0,0.276-0.224,0.5-0.5,0.5L167.818,181.055z"/>
							</g>
						</g>
						<g>
							<g>
								<path fill="#231F20" d="M175.287,170.242L175.287,170.242c-0.276,0-0.5-0.224-0.5-0.5l0.002-18.057l-6.471,0.002
									l-0.002,18.053c0,0.277-0.224,0.5-0.5,0.5l0,0c-0.276,0-0.5-0.224-0.5-0.5l0.002-18.553c0-0.275,0.224-0.5,0.5-0.5
									l7.471-0.002c0.133,0,0.26,0.053,0.354,0.146s0.146,0.221,0.146,0.354l-0.002,18.557
									C175.787,170.02,175.563,170.242,175.287,170.242z"/>
							</g>
						</g>
						<g>
							<g>
								<path fill="#231F20" d="M171.551,187.684L171.551,187.684c-0.179,0-0.344-0.095-0.433-0.25l-3.732-6.469
									c-0.09-0.154-0.09-0.345,0-0.5c0.089-0.154,0.254-0.25,0.433-0.25l7.469-0.002c0.179,0,0.344,0.096,0.433,0.25
									c0.09,0.155,0.09,0.346,0,0.5l-3.736,6.471C171.895,187.589,171.729,187.684,171.551,187.684z M168.684,181.215l2.867,4.969
									l2.87-4.971L168.684,181.215z"/>
							</g>
						</g>
						<g>
							<g>
								<path fill="#231F20" d="M171.463,187.279c-0.179,0-0.344-0.095-0.433-0.249l-0.838-1.449c-0.09-0.155-0.09-0.346,0-0.501
									c0.089-0.154,0.254-0.25,0.433-0.25h1.672c0.179,0,0.344,0.096,0.433,0.25c0.09,0.154,0.09,0.346,0.001,0.5l-0.834,1.449
									C171.807,187.184,171.643,187.279,171.463,187.279C171.463,187.279,171.463,187.279,171.463,187.279z"/>
							</g>
						</g>
						<g>
							<g>
								<path fill="#231F20" d="M175.787,151.964l-1-0.001l0.002-3.07l0,0c-0.006,0-0.208-1.176-1.18-1.176l-3.878-0.004l0.002-1
									l3.876,0.004c1.479,0,2.069,1.377,2.175,2.105L175.787,151.964z"/>
							</g>
						</g>
						<g>
							<g>
								<path fill="#231F20" d="M167.318,151.966l-0.002-3.072c0.11-0.8,0.699-2.177,2.177-2.177c0.002,0,0.004,0,0.006,0h3.874v1
									h-3.875c-0.001,0-0.002,0-0.003,0c-0.98,0-1.177,1.199-1.185,1.25l0.008,2.998L167.318,151.966z"/>
							</g>
						</g>
					</g>
					<g>
						<g>
							<g>
								<path fill="#231F20" d="M115.102,109.4c-0.128,0-0.256-0.049-0.354-0.146L95.41,89.918
									c-0.094-0.094-0.146-0.221-0.146-0.354s0.053-0.26,0.146-0.354l36.598-36.596c0.195-0.195,0.512-0.195,0.707,0
									l19.336,19.336c0.094,0.094,0.146,0.221,0.146,0.354s-0.053,0.26-0.146,0.354l-36.596,36.596
									C115.357,109.352,115.229,109.4,115.102,109.4z M96.471,89.564l18.631,18.629l35.889-35.889l-18.629-18.629L96.471,89.564z"
									/>
							</g>
						</g>
						<g>
							<g>
								<path fill="#231F20" d="M127.309,116.525c-0.212,0-0.408-0.135-0.476-0.347l-4.699-14.635
									c-0.085-0.263,0.06-0.544,0.322-0.629c0.263-0.084,0.545,0.061,0.629,0.323l4.699,14.635
									c0.085,0.263-0.06,0.545-0.322,0.629C127.411,116.518,127.359,116.525,127.309,116.525z"/>
							</g>
						</g>
						<g>
							<g>
								<path fill="#231F20" d="M157.906,85.93c-0.051,0-0.103-0.008-0.153-0.023l-14.633-4.703
									c-0.263-0.084-0.407-0.366-0.322-0.629c0.084-0.264,0.366-0.407,0.629-0.323l14.633,4.703
									c0.263,0.085,0.407,0.366,0.322,0.629C158.314,85.795,158.118,85.93,157.906,85.93z"/>
							</g>
						</g>
						<g>
							<g>
								<path fill="#231F20" d="M121.414,113.133c-0.128,0-0.256-0.049-0.354-0.146c-0.195-0.195-0.195-0.512,0-0.707l32.457-32.455
									c0.195-0.195,0.512-0.195,0.707,0s0.195,0.512,0,0.707l-32.457,32.455C121.67,113.084,121.542,113.133,121.414,113.133z"/>
							</g>
						</g>
						<g>
							<g>
								<path fill="#231F20" d="M112.805,107.104c-0.128,0-0.256-0.049-0.354-0.146c-0.195-0.195-0.195-0.512,0-0.707l36.598-36.594
									c0.195-0.195,0.512-0.195,0.707,0s0.195,0.512,0,0.707l-36.598,36.594C113.061,107.055,112.933,107.104,112.805,107.104z"/>
							</g>
						</g>
					</g>
					<g>
						<g>
							<g>
								<path fill="#231F20" d="M167.062,134.153c-4.116,0-10.463-3.686-16.168-9.39c-7.712-7.713-11.359-16.148-8.305-19.203
									c0.721-0.721,1.742-1.086,3.036-1.086c4.117,0,10.463,3.686,16.167,9.389c3.621,3.621,6.492,7.569,8.086,11.117
									c1.659,3.696,1.737,6.568,0.219,8.086C169.377,133.788,168.355,134.153,167.062,134.153z M145.626,105.475
									c-1.019,0-1.803,0.267-2.329,0.793c-2.569,2.57,1.233,10.717,8.305,17.789c5.442,5.441,11.655,9.097,15.461,9.097
									c1.019,0,1.802-0.267,2.328-0.794c1.187-1.186,1.032-3.727-0.425-6.97c-1.544-3.438-4.343-7.281-7.88-10.819
									C155.645,109.13,149.432,105.475,145.626,105.475z"/>
							</g>
						</g>
						<g>
							<g>
								<path fill="#231F20" d="M146.495,128.735c-4.814,0-7.987-1.307-8.704-3.585c-1.297-4.121,5.837-9.915,16.24-13.189
									c4.245-1.335,8.564-2.07,12.161-2.07c4.815,0,7.988,1.307,8.704,3.585c0.646,2.048-0.751,4.558-3.932,7.067
									c-3.052,2.408-7.423,4.582-12.309,6.12C154.412,128,150.093,128.735,146.495,128.735z M166.192,110.891
									c-3.498,0-7.71,0.719-11.86,2.024c-9.54,3.003-16.678,8.468-15.588,11.936c0.569,1.806,3.467,2.885,7.751,2.885
									c3.499,0,7.711-0.72,11.86-2.026c4.773-1.502,9.031-3.615,11.99-5.95c2.79-2.202,4.102-4.383,3.598-5.983
									C173.375,111.969,170.478,110.891,166.192,110.891z"/>
							</g>
						</g>
						<g>
							<g>
								<path fill="#231F20" d="M152.033,138.529C152.032,138.529,152.033,138.529,152.033,138.529
									c-0.351,0-0.692-0.051-1.018-0.153c-2.047-0.644-3.306-3.226-3.542-7.271c-0.228-3.883,0.493-8.711,2.03-13.595
									c2.99-9.501,8.109-16.396,12.172-16.396c0.35,0,0.691,0.052,1.016,0.153c4.122,1.297,4.787,10.463,1.514,20.867
									C161.218,131.635,156.099,138.529,152.033,138.529z M161.676,102.114c-3.52,0-8.447,6.895-11.219,15.696
									c-1.501,4.771-2.206,9.473-1.985,13.236c0.208,3.549,1.244,5.872,2.845,6.375c0.227,0.072,0.468,0.107,0.716,0.107
									c3.523,0.001,8.451-6.893,11.22-15.694c3.001-9.54,2.607-18.522-0.861-19.613
									C162.164,102.15,161.924,102.114,161.676,102.114z"/>
							</g>
						</g>
						<g>
							<g>
								<path fill="#231F20" d="M156.913,122.096c-0.705,0-1.367-0.275-1.864-0.773c-0.501-0.5-0.775-1.165-0.775-1.872
									c0.001-0.706,0.276-1.368,0.776-1.864c0.993-0.996,2.734-0.998,3.735-0.002c1.027,1.03,1.026,2.706-0.002,3.736
									C158.282,121.82,157.618,122.096,156.913,122.096z M156.917,117.812c-0.438,0-0.851,0.171-1.161,0.481
									c-0.311,0.31-0.481,0.721-0.482,1.158c0,0.439,0.171,0.854,0.482,1.164c0.617,0.62,1.697,0.619,2.32-0.002
									c0.639-0.641,0.64-1.682,0.002-2.322C157.768,117.982,157.355,117.812,156.917,117.812z"/>
							</g>
						</g>
					</g>
					<g>
						<g>
							<path fill="#231F20" d="M176.551,97.832l-11.018-11.018l11.018-11.02l11.02,11.02L176.551,97.832z M166.947,86.814
								l9.604,9.604l9.605-9.604l-9.605-9.605L166.947,86.814z"/>
						</g>
					</g>
					<g>
						<g>
							<path fill="#231F20" d="M186.861,108.145l-11.018-11.02l11.018-11.018l11.02,11.018L186.861,108.145z M177.258,97.125
								l9.604,9.605l9.605-9.605l-9.605-9.604L177.258,97.125z"/>
						</g>
					</g>
					<g>
						<g>
							<path fill="#231F20" d="M197.252,97.754l-11.018-11.018l11.018-11.02l11.018,11.02L197.252,97.754z M187.648,86.736
								l9.604,9.604l9.604-9.604l-9.604-9.605L187.648,86.736z"/>
						</g>
					</g>
					<g>
						<g>
							<path fill="#231F20" d="M186.863,87.521l-11.02-11.02l11.02-11.018l11.018,11.018L186.863,87.521z M177.258,76.502
								l9.605,9.605l9.604-9.605l-9.604-9.604L177.258,76.502z"/>
						</g>
					</g>
					<g>
						<g>
							
								<rect x="186.362" y="73.593" transform="matrix(0.7071 0.7071 -0.7071 0.7071 108.8257 -109.7247)" fill="#231F20" width="1" height="5.818"/>
						</g>
					</g>
					<g>
						<g>
							<g>
								
									<rect x="176.051" y="83.906" transform="matrix(0.7071 0.7071 -0.7071 0.7071 113.0976 -99.4129)" fill="#231F20" width="1" height="5.817"/>
							</g>
						</g>
						<g>
							<g>
								
									<rect x="173.64" y="86.314" transform="matrix(0.7071 0.7071 -0.7071 0.7071 113.0966 -99.4125)" fill="#231F20" width="5.82" height="1"/>
							</g>
						</g>
					</g>
					<g>
						<g>
							<g>
								<rect x="183.953" y="96.625" fill="#231F20" width="5.818" height="1"/>
							</g>
						</g>
						<g>
							<g>
								<rect x="186.361" y="94.215" fill="#231F20" width="1" height="5.82"/>
							</g>
						</g>
					</g>
				</g>
				<g>
					<g>
						<g>
							<g>
								<path fill="#231F20" d="M66.377,170.244L66.377,170.244l-15.088-0.002c-0.276,0-0.5-0.224-0.5-0.5
									c0-0.275,0.224-0.5,0.5-0.5l0,0l14.588,0.002l-0.002-9.211l-14.586,0.004c-0.276,0-0.5-0.223-0.5-0.5
									c0-0.275,0.224-0.5,0.5-0.5l15.086-0.004c0.133,0,0.26,0.053,0.354,0.146s0.146,0.221,0.146,0.354l0.002,10.211
									c0,0.133-0.053,0.26-0.146,0.354S66.51,170.244,66.377,170.244z"/>
							</g>
						</g>
					</g>
					<g>
						<g>
							<path fill="#231F20" d="M62.861,108.145l-11.018-11.02l11.018-11.018l11.02,11.018L62.861,108.145z M53.258,97.125
								l9.604,9.605l9.605-9.605l-9.605-9.604L53.258,97.125z"/>
						</g>
					</g>
					<g>
						<g>
							<path fill="#231F20" d="M73.252,97.754L62.234,86.736l11.018-11.02l11.018,11.02L73.252,97.754z M63.648,86.736l9.604,9.604
								l9.604-9.604l-9.604-9.605L63.648,86.736z"/>
						</g>
					</g>
					<g>
						<g>
							<path fill="#231F20" d="M62.863,87.521l-11.02-11.02l11.02-11.018l11.018,11.018L62.863,87.521z M53.258,76.502l9.605,9.605
								l9.604-9.605l-9.604-9.604L53.258,76.502z"/>
						</g>
					</g>
				</g>
				<g>
					<g>
						<g>
							<g>
								<path fill="none" stroke="#231F20" stroke-linecap="round" stroke-linejoin="round" stroke-miterlimit="10" d="
									M82.887,49.684"/>
							</g>
						</g>
						<g>
							<g>
								<path fill="#231F20" d="M101.043,57.08c-0.128,0-0.256-0.049-0.354-0.146c-0.195-0.195-0.195-0.512,0-0.707l2.777-2.777
									c0.195-0.195,0.512-0.195,0.707,0s0.195,0.512,0,0.707l-2.777,2.777C101.299,57.031,101.171,57.08,101.043,57.08z"/>
							</g>
						</g>
						<g>
							<g>
								<path fill="#231F20" d="M94.777,56.02c-0.128,0-0.256-0.049-0.354-0.146c-0.195-0.195-0.195-0.512,0-0.707l2.602-2.602
									c0.195-0.195,0.512-0.195,0.707,0s0.195,0.512,0,0.707l-2.602,2.602C95.033,55.971,94.905,56.02,94.777,56.02z"/>
							</g>
						</g>
						<g>
							<g>
								<path fill="#231F20" d="M89.492,53.979c-0.128,0-0.256-0.049-0.354-0.146c-0.195-0.194-0.195-0.512,0-0.707l2.035-2.037
									c0.195-0.195,0.512-0.195,0.707,0s0.195,0.512,0,0.707l-2.035,2.037C89.748,53.93,89.62,53.979,89.492,53.979z"/>
							</g>
						</g>
						<g>
							<g>
								<path fill="#231F20" d="M85.83,50.316c-0.128,0-0.256-0.049-0.354-0.146c-0.195-0.194-0.195-0.512,0-0.707l2.264-2.266
									c0.195-0.195,0.512-0.195,0.707,0s0.195,0.512,0,0.707l-2.264,2.266C86.086,50.268,85.958,50.316,85.83,50.316z"/>
							</g>
						</g>
						<g>
							<g>
								<path fill="#231F20" d="M92.696,78.977c-0.515,0-1.075-0.094-1.667-0.327c-2.805-1.104-2.897-3.998-2.9-4.12l-2.409-15.75
									l-5.864-5.867l-4.489-1.076c-0.177-0.042-0.315-0.176-0.365-0.35c-0.049-0.175,0-0.361,0.128-0.49l9.963-9.961
									c0.128-0.127,0.315-0.177,0.489-0.127c0.174,0.049,0.309,0.188,0.351,0.364l1.076,4.489l5.866,5.867l15.812,2.41
									c0.033-0.025,2.953,0.086,4.058,2.896c1.112,2.821-0.874,4.609-0.959,4.685L95.689,77.713
									C95.239,78.229,94.146,78.977,92.696,78.977z M76.468,51.072l3.758,0.9c0.09,0.021,0.172,0.068,0.237,0.133l6.08,6.082
									c0.075,0.076,0.125,0.174,0.141,0.278l2.439,15.977c0.009,0.159,0.098,2.421,2.272,3.276
									c2.173,0.855,3.55-0.673,3.564-0.688l7.666-7.667c0.002-0.002,0.005-0.005,0.007-0.008l0.816-0.816
									c0.003-0.002,0.006-0.005,0.009-0.008l7.644-7.643c0.085-0.076,1.562-1.434,0.713-3.588
									c-0.856-2.176-3.119-2.265-3.216-2.268l-16.037-2.441c-0.105-0.016-0.203-0.064-0.278-0.141l-6.082-6.082
									c-0.065-0.064-0.111-0.146-0.133-0.236l-0.901-3.759L76.468,51.072z"/>
							</g>
						</g>
					</g>
					<g>
						<g>
							<g>
								<path fill="#231F20" d="M167.818,57.055c-0.133,0-0.26-0.053-0.354-0.146s-0.146-0.221-0.146-0.354l-0.002-10.814
									c0-0.275,0.224-0.5,0.5-0.5s0.5,0.225,0.5,0.5l0.002,10.314l6.471-0.002l-0.002-10.311c0-0.275,0.224-0.5,0.5-0.5
									s0.5,0.225,0.5,0.5l0.002,10.811c0,0.276-0.224,0.5-0.5,0.5L167.818,57.055z"/>
							</g>
						</g>
						<g>
							<g>
								<path fill="#231F20" d="M171.551,63.684L171.551,63.684c-0.179,0-0.344-0.095-0.433-0.25l-3.732-6.469
									c-0.09-0.154-0.09-0.345,0-0.5c0.089-0.154,0.254-0.25,0.433-0.25l7.469-0.002c0.179,0,0.344,0.096,0.433,0.25
									c0.09,0.155,0.09,0.346,0,0.5l-3.736,6.471C171.895,63.589,171.729,63.684,171.551,63.684z M168.684,57.215l2.867,4.969
									l2.87-4.971L168.684,57.215z"/>
							</g>
						</g>
						<g>
							<g>
								<path fill="#231F20" d="M171.463,63.279c-0.179,0-0.344-0.095-0.433-0.249l-0.838-1.449c-0.09-0.155-0.09-0.346,0-0.501
									c0.089-0.154,0.254-0.25,0.433-0.25h1.672c0.179,0,0.344,0.096,0.433,0.25c0.09,0.154,0.09,0.346,0.001,0.5l-0.834,1.449
									C171.807,63.184,171.643,63.279,171.463,63.279C171.463,63.279,171.463,63.279,171.463,63.279z"/>
							</g>
						</g>
					</g>
				</g>
			</g>
		</g>
		<g clip-path="url(#SVGID_2_)">
			<g>
				<g>
					<g>
						<g>
							<g>
								<path fill="#231F20" d="M84.579,27.674c-0.133,0-0.26-0.053-0.354-0.146L57.48,0.782c-0.094-0.094-0.146-0.221-0.146-0.354
									s0.053-0.26,0.146-0.354l22.831-22.829c0.195-0.195,0.512-0.195,0.707,0L107.763,3.99c0.195,0.195,0.195,0.512,0,0.707
									l-22.83,22.831C84.839,27.622,84.712,27.674,84.579,27.674z M58.541,0.428l26.038,26.039l22.123-22.124L80.665-21.694
									L58.541,0.428z"/>
							</g>
						</g>
						<g>
							<g>
								<path fill="none" stroke="#231F20" stroke-linecap="round" stroke-linejoin="round" stroke-miterlimit="10" d="
									M57.834,0.428"/>
							</g>
						</g>
						<g>
							<g>
								<path fill="#231F20" d="M88.23,31.325c-0.128,0-0.256-0.049-0.354-0.146L57.48,0.782c-0.195-0.195-0.195-0.512,0-0.707
									s0.512-0.195,0.707,0l30.396,30.396c0.195,0.195,0.195,0.512,0,0.707C88.486,31.276,88.358,31.325,88.23,31.325z"/>
							</g>
						</g>
						<g>
							<g>
								<path fill="#231F20" d="M85.218,33.492c-0.649,0-1.299-0.248-1.794-0.741L55.908,5.235c-0.989-0.989-0.99-2.598-0.002-3.586
									l1.574-1.574c0.195-0.195,0.512-0.195,0.707,0s0.195,0.512,0,0.707l-1.574,1.574c-0.288,0.288-0.446,0.673-0.446,1.085
									s0.159,0.798,0.448,1.087l27.516,27.515c0.6,0.6,1.574,0.599,2.172,0.002l1.574-1.574c0.195-0.195,0.512-0.195,0.707,0
									s0.195,0.512,0,0.707l-1.574,1.574C86.516,33.246,85.867,33.492,85.218,33.492z"/>
							</g>
						</g>
					</g>
				</g>
				<g>
					<g>
						<g>
							<g>
								<path fill="#231F20" d="M-1.946,41.797c-3.939,0-7.645-1.534-10.431-4.32c-2.787-2.786-4.321-6.491-4.321-10.432
									c0-3.94,1.535-7.645,4.321-10.431c2.785-2.787,6.49-4.321,10.431-4.321c3.941,0,7.646,1.535,10.433,4.321
									c2.786,2.785,4.321,6.49,4.32,10.431c0,3.94-1.534,7.646-4.32,10.432C5.698,40.263,1.994,41.797-1.946,41.797z
									 M-1.946,13.292c-3.674,0-7.127,1.431-9.724,4.028c-2.598,2.597-4.028,6.05-4.028,9.724c0,3.674,1.431,7.127,4.028,9.725
									s6.051,4.027,9.724,4.027s7.127-1.43,9.726-4.027c5.362-5.364,5.362-14.088,0-19.449
									C5.182,14.723,1.728,13.292-1.946,13.292z"/>
							</g>
						</g>
						<g>
							<g>
								<path fill="#231F20" d="M-1.975,44.484c-0.276,0-0.5-0.223-0.5-0.5c0-0.275,0.224-0.5,0.5-0.5
									c4.437,0,8.607-1.727,11.744-4.865c3.137-3.137,4.864-7.308,4.863-11.746c0-9.157-7.45-16.607-16.607-16.607
									c-0.276,0-0.5-0.224-0.5-0.5s0.224-0.5,0.5-0.5c9.709,0,17.607,7.898,17.607,17.607c0.001,4.704-1.83,9.126-5.156,12.454
									C7.151,42.652,2.729,44.484-1.975,44.484z"/>
							</g>
						</g>
						<g>
							<g>
								<path fill="none" stroke="#231F20" stroke-miterlimit="10" d="M-1.898,39.541"/>
							</g>
						</g>
						<g>
							<g>
								<path fill="#231F20" d="M-1.898,46.744c-0.276,0-0.5-0.223-0.5-0.5v-4.986c0-0.275,0.224-0.5,0.5-0.5s0.5,0.225,0.5,0.5
									v4.986C-1.398,46.521-1.622,46.744-1.898,46.744z"/>
							</g>
						</g>
						<g>
							<g>
								<path fill="#231F20" d="M-1.898,13.256c-0.276,0-0.5-0.224-0.5-0.5V7.688c0-0.276,0.224-0.5,0.5-0.5s0.5,0.224,0.5,0.5
									v5.068C-1.398,13.033-1.622,13.256-1.898,13.256z"/>
							</g>
						</g>
						<g>
							<g>
								<g>
									<path fill="#231F20" d="M13.916,43.252c-0.128,0-0.256-0.049-0.354-0.146L9.775,39.32c-0.195-0.195-0.195-0.512,0-0.707
										s0.512-0.195,0.707,0l3.787,3.785c0.195,0.195,0.195,0.512,0,0.707C14.172,43.203,14.044,43.252,13.916,43.252z"/>
								</g>
							</g>
							<g>
								<g>
									<path fill="#231F20" d="M9.033,48.025c-0.128,0-0.256-0.049-0.354-0.146c-0.195-0.195-0.195-0.512,0-0.707l9.654-9.658
										c0.195-0.195,0.512-0.195,0.707,0s0.195,0.512,0,0.707l-9.654,9.658C9.289,47.977,9.161,48.025,9.033,48.025z"/>
								</g>
							</g>
						</g>
					</g>
					<g>
						<g>
							<path fill="none" stroke="#231F20" stroke-linecap="round" stroke-linejoin="round" stroke-miterlimit="10" d="M-0.008-8.83"
								/>
						</g>
					</g>
					<g>
						<g>
							<g>
								<path fill="#231F20" d="M-39.421,27.674c-0.133,0-0.26-0.053-0.354-0.146L-66.52,0.782
									c-0.094-0.094-0.146-0.221-0.146-0.354s0.053-0.26,0.146-0.354l22.831-22.829c0.195-0.195,0.512-0.195,0.707,0L-16.237,3.99
									c0.195,0.195,0.195,0.512,0,0.707l-22.83,22.831C-39.161,27.622-39.288,27.674-39.421,27.674z M-65.459,0.428l26.038,26.039
									l22.123-22.124l-26.037-26.037L-65.459,0.428z"/>
							</g>
						</g>
						<g>
							<g>
								<path fill="#231F20" d="M-35.77,31.325c-0.128,0-0.256-0.049-0.354-0.146l-3.651-3.65c-0.094-0.094-0.146-0.221-0.146-0.354
									s0.053-0.26,0.146-0.354l22.83-22.831c0.188-0.188,0.52-0.188,0.707,0l3.65,3.65c0.195,0.195,0.195,0.512,0,0.707
									l-22.829,22.831C-35.514,31.276-35.642,31.325-35.77,31.325z M-38.714,27.174l2.944,2.943l22.122-22.124l-2.943-2.943
									L-38.714,27.174z"/>
							</g>
						</g>
						<g>
							<g>
								<path fill="none" stroke="#231F20" stroke-linecap="round" stroke-linejoin="round" stroke-miterlimit="10" d="
									M-66.166,0.428"/>
							</g>
						</g>
						<g>
							<g>
								<path fill="#231F20" d="M-35.77,31.325c-0.128,0-0.256-0.049-0.354-0.146L-66.52,0.782c-0.195-0.195-0.195-0.512,0-0.707
									s0.512-0.195,0.707,0l30.396,30.396c0.195,0.195,0.195,0.512,0,0.707C-35.514,31.276-35.642,31.325-35.77,31.325z"/>
							</g>
						</g>
						<g>
							<g>
								<path fill="#231F20" d="M-38.782,33.492c-0.649,0-1.299-0.248-1.794-0.741L-68.092,5.235
									c-0.989-0.989-0.99-2.598-0.002-3.586l1.574-1.574c0.195-0.195,0.512-0.195,0.707,0s0.195,0.512,0,0.707l-1.574,1.574
									c-0.288,0.288-0.446,0.673-0.446,1.085s0.159,0.798,0.448,1.087l27.516,27.515c0.6,0.6,1.574,0.599,2.172,0.002l1.574-1.574
									c0.195-0.195,0.512-0.195,0.707,0s0.195,0.512,0,0.707l-1.574,1.574C-37.484,33.246-38.133,33.492-38.782,33.492z"/>
							</g>
						</g>
						<g>
							<g>
								<path fill="#231F20" d="M-40.608,32.512c-0.128,0-0.256-0.049-0.354-0.146l-0.913-0.914
									c-0.707-0.709-0.476-2.052,0.525-3.058L-16.944,3.99c0.195-0.195,0.512-0.195,0.707,0s0.195,0.512,0,0.707L-40.642,29.1
									c-0.619,0.622-0.788,1.381-0.525,1.645l0.912,0.912c0.195,0.194,0.195,0.512,0,0.707
									C-40.353,32.463-40.48,32.512-40.608,32.512z"/>
							</g>
						</g>
						<g>
							<g>
								<path fill="#231F20" d="M-54.99-0.841c-0.128,0-0.256-0.049-0.354-0.146c-0.195-0.195-0.195-0.512,0-0.707l10.507-10.507
									c0.195-0.195,0.512-0.195,0.707,0s0.195,0.512,0,0.707L-54.637-0.988C-54.734-0.89-54.862-0.841-54.99-0.841z"/>
							</g>
						</g>
						<g>
							<g>
								<path fill="#231F20" d="M-51.327,2.821c-0.128,0-0.256-0.049-0.354-0.146c-0.195-0.195-0.195-0.512,0-0.707l10.506-10.509
									c0.195-0.195,0.512-0.195,0.707,0s0.195,0.512,0,0.707L-50.974,2.674C-51.071,2.772-51.199,2.821-51.327,2.821z"/>
							</g>
						</g>
					</g>
					<g>
						<g>
							<g>
								<path fill="none" stroke="#231F20" stroke-linecap="round" stroke-linejoin="round" stroke-miterlimit="10" d="
									M-41.113,49.684"/>
							</g>
						</g>
						<g>
							<g>
								<path fill="#231F20" d="M-22.957,57.08c-0.128,0-0.256-0.049-0.354-0.146c-0.195-0.195-0.195-0.512,0-0.707l2.777-2.777
									c0.195-0.195,0.512-0.195,0.707,0s0.195,0.512,0,0.707l-2.777,2.777C-22.701,57.031-22.829,57.08-22.957,57.08z"/>
							</g>
						</g>
						<g>
							<g>
								<path fill="#231F20" d="M-29.223,56.02c-0.128,0-0.256-0.049-0.354-0.146c-0.195-0.195-0.195-0.512,0-0.707l2.602-2.602
									c0.195-0.195,0.512-0.195,0.707,0s0.195,0.512,0,0.707l-2.602,2.602C-28.967,55.971-29.095,56.02-29.223,56.02z"/>
							</g>
						</g>
						<g>
							<g>
								<path fill="#231F20" d="M-34.508,53.979c-0.128,0-0.256-0.049-0.354-0.146c-0.195-0.194-0.195-0.512,0-0.707l2.035-2.037
									c0.195-0.195,0.512-0.195,0.707,0s0.195,0.512,0,0.707l-2.035,2.037C-34.252,53.93-34.38,53.979-34.508,53.979z"/>
							</g>
						</g>
						<g>
							<g>
								<path fill="#231F20" d="M-38.17,50.316c-0.128,0-0.256-0.049-0.354-0.146c-0.195-0.194-0.195-0.512,0-0.707l2.264-2.266
									c0.195-0.195,0.512-0.195,0.707,0s0.195,0.512,0,0.707l-2.264,2.266C-37.914,50.268-38.042,50.316-38.17,50.316z"/>
							</g>
						</g>
						<g>
							<g>
								<path fill="#231F20" d="M-31.304,78.977c-0.515,0-1.075-0.094-1.667-0.327c-2.805-1.104-2.897-3.998-2.9-4.12l-2.409-15.75
									l-5.864-5.867l-4.489-1.076c-0.177-0.042-0.315-0.176-0.365-0.35c-0.049-0.175,0-0.361,0.128-0.49l9.963-9.961
									c0.128-0.127,0.314-0.177,0.489-0.127c0.174,0.049,0.309,0.188,0.351,0.364l1.076,4.489l5.866,5.867l15.812,2.41
									c0.041-0.025,2.953,0.086,4.058,2.896c1.112,2.821-0.874,4.609-0.959,4.685l-16.096,16.094
									C-28.761,78.229-29.854,78.977-31.304,78.977z M-47.532,51.072l3.758,0.9c0.09,0.021,0.172,0.068,0.237,0.133l6.08,6.082
									c0.075,0.076,0.125,0.174,0.141,0.278l2.439,15.977c0.009,0.159,0.098,2.421,2.272,3.276
									c2.172,0.855,3.551-0.673,3.564-0.688l7.666-7.667c0.002-0.002,0.005-0.005,0.007-0.008l0.816-0.816
									c0.003-0.002,0.006-0.005,0.009-0.008l7.644-7.643c0.085-0.076,1.562-1.434,0.713-3.588
									c-0.856-2.176-3.119-2.265-3.216-2.268l-16.037-2.441c-0.105-0.016-0.203-0.064-0.278-0.141l-6.082-6.082
									c-0.065-0.064-0.111-0.146-0.133-0.236l-0.901-3.759L-47.532,51.072z"/>
							</g>
						</g>
					</g>
					<g>
						<g>
							<g>
								
									<path fill-rule="evenodd" clip-rule="evenodd" fill="none" stroke="#231F20" stroke-linecap="round" stroke-linejoin="round" stroke-miterlimit="10" d="
									M43.82,45.742"/>
							</g>
						</g>
						<g>
							<g>
								<path fill="#231F20" d="M66.377,46.244L66.377,46.244l-15.088-0.002c-0.276,0-0.5-0.224-0.5-0.5c0-0.275,0.224-0.5,0.5-0.5
									l0,0l14.588,0.002l-0.002-9.211l-14.586,0.004c-0.276,0-0.5-0.223-0.5-0.5c0-0.275,0.224-0.5,0.5-0.5l15.086-0.004
									c0.133,0,0.26,0.053,0.354,0.146s0.146,0.221,0.146,0.354l0.002,10.211c0,0.133-0.053,0.26-0.146,0.354
									S66.51,46.244,66.377,46.244z"/>
							</g>
						</g>
						<g>
							<g>
								<path fill="#231F20" d="M28.609,46.244c-0.276,0-0.5-0.223-0.5-0.5l-0.002-10.209c0-0.132,0.053-0.26,0.146-0.354
									s0.221-0.146,0.354-0.146h15.215c0.276,0,0.5,0.225,0.5,0.5c0,0.277-0.224,0.5-0.5,0.5H29.107l0.002,9.209l14.711-0.002
									c0.276,0,0.5,0.225,0.5,0.5c0,0.276-0.224,0.5-0.5,0.5L28.609,46.244z"/>
							</g>
						</g>
						<g>
							<g>
								<rect x="31.108" y="35.873" fill="#231F20" width="1" height="5.584"/>
							</g>
						</g>
						<g>
							<g>
								<rect x="62.994" y="35.873" fill="#231F20" width="1" height="5.586"/>
							</g>
						</g>
						<g>
							<g>
								<rect x="34.298" y="35.874" fill="#231F20" width="1" height="3.078"/>
							</g>
						</g>
						<g>
							<g>
								<rect x="37.486" y="35.873" fill="#231F20" width="1" height="5.584"/>
							</g>
						</g>
						<g>
							<g>
								<rect x="40.673" y="35.872" fill="#231F20" width="1" height="3.082"/>
							</g>
						</g>
						<g>
							<g>
								<rect x="53.428" y="35.871" fill="#231F20" width="1" height="3.08"/>
							</g>
						</g>
						<g>
							<g>
								<rect x="56.616" y="35.871" fill="#231F20" width="1" height="5.586"/>
							</g>
						</g>
						<g>
							<g>
								<rect x="59.805" y="35.872" fill="#231F20" width="1" height="3.084"/>
							</g>
						</g>
						<g>
							<g>
								<path fill="#231F20" d="M43.818,57.055c-0.133,0-0.26-0.053-0.354-0.146s-0.146-0.221-0.146-0.354L43.316,45.74
									c0-0.275,0.224-0.5,0.5-0.5s0.5,0.225,0.5,0.5l0.002,10.314l6.471-0.002l-0.002-10.311c0-0.275,0.224-0.5,0.5-0.5
									s0.5,0.225,0.5,0.5l0.002,10.811c0,0.276-0.224,0.5-0.5,0.5L43.818,57.055z"/>
							</g>
						</g>
						<g>
							<g>
								<path fill="#231F20" d="M51.287,46.242L51.287,46.242c-0.276,0-0.5-0.224-0.5-0.5l0.002-18.056l-6.471,0.002L44.316,45.74
									c0,0.277-0.224,0.5-0.5,0.5l0,0c-0.276,0-0.5-0.224-0.5-0.5l0.002-18.552c0-0.276,0.224-0.5,0.5-0.5l7.471-0.002
									c0.133,0,0.26,0.053,0.354,0.146s0.146,0.221,0.146,0.354l-0.002,18.556C51.787,46.02,51.563,46.242,51.287,46.242z"/>
							</g>
						</g>
						<g>
							<g>
								<path fill="#231F20" d="M47.551,63.684L47.551,63.684c-0.179,0-0.344-0.095-0.433-0.25l-3.732-6.469
									c-0.09-0.154-0.09-0.345,0-0.5c0.089-0.154,0.254-0.25,0.433-0.25l7.469-0.002c0.179,0,0.344,0.096,0.433,0.25
									c0.09,0.155,0.09,0.346,0,0.5l-3.736,6.471C47.895,63.589,47.729,63.684,47.551,63.684z M44.684,57.215l2.867,4.969
									l2.87-4.971L44.684,57.215z"/>
							</g>
						</g>
						<g>
							<g>
								<path fill="#231F20" d="M47.463,63.279c-0.179,0-0.344-0.095-0.433-0.249l-0.838-1.449c-0.09-0.155-0.09-0.346,0-0.501
									c0.089-0.154,0.254-0.25,0.433-0.25h1.672c0.179,0,0.344,0.096,0.433,0.25c0.09,0.154,0.09,0.346,0.001,0.5l-0.834,1.449
									C47.807,63.184,47.643,63.279,47.463,63.279C47.463,63.279,47.463,63.279,47.463,63.279z"/>
							</g>
						</g>
						<g>
							<g>
								<path fill="#231F20" d="M51.787,27.964l-1-0.001l0.002-3.07c0,0,0,0,0,0c-0.006,0-0.208-1.176-1.18-1.176l-3.878-0.004
									l0.002-1l3.876,0.004c1.479,0,2.069,1.376,2.175,2.104L51.787,27.964z"/>
							</g>
						</g>
						<g>
							<g>
								<path fill="#231F20" d="M43.318,27.966l-0.002-3.072c0.11-0.8,0.699-2.176,2.177-2.176c0.002,0,0.004,0,0.006,0h3.874v1
									h-3.875c-0.001,0-0.002,0-0.003,0c-0.98,0-1.177,1.198-1.185,1.25l0.008,2.998L43.318,27.966z"/>
							</g>
						</g>
					</g>
					<g>
						<g>
							<g>
								<path fill="#231F20" d="M-8.898-14.599c-0.128,0-0.256-0.049-0.354-0.146L-28.59-34.082
									c-0.094-0.094-0.146-0.221-0.146-0.354s0.053-0.26,0.146-0.354L8.008-71.384c0.195-0.195,0.512-0.195,0.707,0l19.336,19.336
									c0.094,0.094,0.146,0.221,0.146,0.354s-0.053,0.26-0.146,0.354L-8.545-14.746C-8.643-14.648-8.771-14.599-8.898-14.599z
									 M-27.529-34.435l18.631,18.629L26.99-51.695L8.361-70.324L-27.529-34.435z"/>
							</g>
						</g>
						<g>
							<g>
								<path fill="#231F20" d="M3.309-7.474c-0.212,0-0.408-0.135-0.476-0.347l-4.699-14.635c-0.085-0.263,0.06-0.544,0.322-0.629
									c0.263-0.084,0.545,0.061,0.629,0.323L3.784-8.127c0.085,0.263-0.06,0.544-0.322,0.629C3.411-7.482,3.359-7.474,3.309-7.474
									z"/>
							</g>
						</g>
						<g>
							<g>
								<path fill="#231F20" d="M33.906-38.07c-0.051,0-0.103-0.008-0.153-0.024L19.12-42.797c-0.263-0.084-0.407-0.366-0.322-0.629
									c0.084-0.263,0.366-0.407,0.629-0.323l14.633,4.703c0.263,0.084,0.407,0.366,0.322,0.629
									C34.314-38.205,34.118-38.07,33.906-38.07z"/>
							</g>
						</g>
						<g>
							<g>
								<path fill="#231F20" d="M-2.586-10.867c-0.128,0-0.256-0.049-0.354-0.146c-0.195-0.195-0.195-0.512,0-0.707l32.457-32.455
									c0.195-0.195,0.512-0.195,0.707,0s0.195,0.512,0,0.707L-2.232-11.013C-2.33-10.916-2.458-10.867-2.586-10.867z"/>
							</g>
						</g>
						<g>
							<g>
								<path fill="#231F20" d="M-11.195-16.896c-0.128,0-0.256-0.049-0.354-0.146c-0.195-0.195-0.195-0.512,0-0.707l36.598-36.594
									c0.195-0.195,0.512-0.195,0.707,0s0.195,0.512,0,0.707l-36.598,36.594C-10.939-16.945-11.067-16.896-11.195-16.896z"/>
							</g>
						</g>
					</g>
					<g>
						<g>
							<g>
								<path fill="#231F20" d="M43.062,10.153c-4.116,0-10.463-3.686-16.168-9.389c-7.712-7.713-11.359-16.148-8.305-19.203
									c0.721-0.721,1.742-1.087,3.036-1.087c4.117,0,10.463,3.686,16.167,9.39c3.621,3.621,6.492,7.569,8.086,11.117
									c1.659,3.696,1.737,6.568,0.219,8.086C45.377,9.788,44.355,10.153,43.062,10.153z M21.626-18.526
									c-1.019,0-1.803,0.267-2.329,0.794c-2.569,2.57,1.233,10.716,8.305,17.789c5.442,5.441,11.655,9.096,15.461,9.096
									c1.019,0,1.802-0.267,2.328-0.793c1.187-1.187,1.032-3.727-0.425-6.97c-1.544-3.439-4.343-7.281-7.88-10.819
									C31.645-14.87,25.432-18.526,21.626-18.526z"/>
							</g>
						</g>
						<g>
							<g>
								<path fill="#231F20" d="M22.495,4.735c-4.814,0-7.987-1.307-8.704-3.585c-1.297-4.122,5.837-9.915,16.24-13.189
									c4.245-1.335,8.564-2.071,12.161-2.071c4.815,0,7.988,1.307,8.704,3.585c0.646,2.048-0.751,4.558-3.932,7.068
									c-3.052,2.408-7.423,4.582-12.309,6.12C30.412,4,26.093,4.735,22.495,4.735z M42.192-13.11c-3.498,0-7.71,0.719-11.86,2.025
									c-9.54,3.002-16.678,8.468-15.588,11.936c0.569,1.806,3.467,2.885,7.751,2.885c3.499,0,7.711-0.72,11.86-2.026
									c4.773-1.502,9.031-3.615,11.99-5.95c2.79-2.202,4.102-4.383,3.598-5.983C49.375-12.031,46.478-13.11,42.192-13.11z"/>
							</g>
						</g>
						<g>
							<g>
								<path fill="#231F20" d="M28.033,14.53C28.032,14.53,28.033,14.53,28.033,14.53c-0.351,0-0.692-0.052-1.018-0.154
									c-2.047-0.644-3.306-3.226-3.542-7.271c-0.228-3.882,0.493-8.71,2.03-13.594c2.99-9.501,8.109-16.396,12.172-16.396
									c0.35,0,0.691,0.052,1.016,0.153c4.122,1.297,4.787,10.463,1.514,20.867C37.218,7.634,32.099,14.53,28.033,14.53z
									 M37.676-21.886c-3.52,0-8.447,6.895-11.219,15.696c-1.501,4.771-2.206,9.472-1.985,13.236
									c0.208,3.549,1.244,5.873,2.845,6.375c0.227,0.072,0.468,0.108,0.716,0.108c3.523,0,8.451-6.894,11.22-15.695
									c3.001-9.541,2.607-18.522-0.861-19.613C38.164-21.85,37.924-21.886,37.676-21.886z"/>
							</g>
						</g>
						<g>
							<g>
								<path fill="#231F20" d="M32.913-1.905c-0.705,0-1.367-0.274-1.864-0.773c-0.501-0.5-0.775-1.165-0.775-1.872
									c0.001-0.706,0.276-1.368,0.776-1.865c0.994-0.996,2.734-0.998,3.735-0.001c1.027,1.03,1.026,2.706-0.002,3.736
									C34.282-2.18,33.618-1.905,32.913-1.905z M32.917-6.188c-0.438,0-0.851,0.171-1.161,0.481
									c-0.311,0.31-0.481,0.721-0.482,1.158c0,0.439,0.171,0.853,0.482,1.165c0.618,0.62,1.698,0.619,2.32-0.002
									c0.639-0.64,0.64-1.682,0.002-2.322C33.768-6.018,33.355-6.188,32.917-6.188z"/>
							</g>
						</g>
					</g>
					<g>
						<g>
							<path fill="#231F20" d="M52.551-26.167L41.533-37.185l11.018-11.02l11.02,11.02L52.551-26.167z M42.947-37.185l9.604,9.604
								l9.605-9.604l-9.605-9.605L42.947-37.185z"/>
						</g>
					</g>
					<g>
						<g>
							<path fill="#231F20" d="M62.861-15.855l-11.018-11.02l11.018-11.018l11.02,11.018L62.861-15.855z M53.258-26.875l9.604,9.605
								l9.605-9.605l-9.605-9.604L53.258-26.875z"/>
						</g>
					</g>
					<g>
						<g>
							<path fill="#231F20" d="M73.252-26.246L62.234-37.263l11.018-11.02l11.018,11.02L73.252-26.246z M63.648-37.263l9.604,9.604
								l9.604-9.604l-9.604-9.605L63.648-37.263z"/>
						</g>
					</g>
					<g>
						<g>
							<path fill="#231F20" d="M62.863-36.478l-11.02-11.02l11.02-11.018l11.018,11.018L62.863-36.478z M53.258-47.498l9.605,9.605
								l9.604-9.605l-9.604-9.604L53.258-47.498z"/>
						</g>
					</g>
					<g>
						<g>
							
								<rect x="62.362" y="-50.407" transform="matrix(0.7071 0.7071 -0.7071 0.7071 -15.1739 -58.3621)" fill="#231F20" width="1" height="5.818"/>
						</g>
					</g>
					<g>
						<g>
							<g>
								
									<rect x="52.051" y="-40.094" transform="matrix(0.7071 0.7071 -0.7071 0.7071 -10.902 -48.0503)" fill="#231F20" width="1" height="5.817"/>
							</g>
						</g>
						<g>
							<g>
								
									<rect x="49.64" y="-37.686" transform="matrix(0.7071 0.7071 -0.7071 0.7071 -10.903 -48.0499)" fill="#231F20" width="5.82" height="1"/>
							</g>
						</g>
					</g>
					<g>
						<g>
							<g>
								<rect x="59.953" y="-27.375" fill="#231F20" width="5.818" height="1"/>
							</g>
						</g>
						<g>
							<g>
								<rect x="62.361" y="-29.785" fill="#231F20" width="1" height="5.82"/>
							</g>
						</g>
					</g>
				</g>
				<g>
					<g>
						<g>
							<g>
								<path fill="#231F20" d="M-57.623,46.244L-57.623,46.244l-15.088-0.002c-0.276,0-0.5-0.224-0.5-0.5
									c0-0.275,0.224-0.5,0.5-0.5l0,0l14.588,0.002l-0.002-9.211l-14.586,0.004c-0.276,0-0.5-0.223-0.5-0.5
									c0-0.275,0.224-0.5,0.5-0.5l15.086-0.004c0.133,0,0.26,0.053,0.354,0.146s0.146,0.221,0.146,0.354l0.002,10.211
									c0,0.133-0.053,0.26-0.146,0.354S-57.49,46.244-57.623,46.244z"/>
							</g>
						</g>
					</g>
					<g>
						<g>
							<path fill="#231F20" d="M-61.139-15.855l-11.018-11.02l11.018-11.018l11.02,11.018L-61.139-15.855z M-70.742-26.875
								l9.604,9.605l9.605-9.605l-9.605-9.604L-70.742-26.875z"/>
						</g>
					</g>
					<g>
						<g>
							<path fill="#231F20" d="M-50.748-26.246l-11.018-11.018l11.018-11.02l11.018,11.02L-50.748-26.246z M-60.352-37.263
								l9.604,9.604l9.604-9.604l-9.604-9.605L-60.352-37.263z"/>
						</g>
					</g>
					<g>
						<g>
							<path fill="#231F20" d="M-61.137-36.478l-11.02-11.02l11.02-11.018l11.018,11.018L-61.137-36.478z M-70.742-47.498
								l9.605,9.605l9.604-9.605l-9.604-9.604L-70.742-47.498z"/>
						</g>
					</g>
				</g>
				<g>
					<g>
						<g>
							<g>
								<path fill="none" stroke="#231F20" stroke-linecap="round" stroke-linejoin="round" stroke-miterlimit="10" d="
									M-41.113-74.316"/>
							</g>
						</g>
						<g>
							<g>
								<path fill="#231F20" d="M-22.957-66.919c-0.128,0-0.256-0.049-0.354-0.146c-0.195-0.195-0.195-0.512,0-0.707l2.777-2.777
									c0.195-0.195,0.512-0.195,0.707,0s0.195,0.512,0,0.707l-2.777,2.777C-22.701-66.968-22.829-66.919-22.957-66.919z"/>
							</g>
						</g>
						<g>
							<g>
								<path fill="#231F20" d="M-29.223-67.98c-0.128,0-0.256-0.049-0.354-0.146c-0.195-0.195-0.195-0.512,0-0.707l2.602-2.602
									c0.195-0.195,0.512-0.195,0.707,0s0.195,0.512,0,0.707l-2.602,2.602C-28.967-68.029-29.095-67.98-29.223-67.98z"/>
							</g>
						</g>
						<g>
							<g>
								<path fill="#231F20" d="M-34.508-70.021c-0.128,0-0.256-0.049-0.354-0.146c-0.195-0.195-0.195-0.512,0-0.707l2.035-2.037
									c0.195-0.195,0.512-0.195,0.707,0c0.195,0.195,0.195,0.512,0,0.707l-2.035,2.037C-34.252-70.07-34.38-70.021-34.508-70.021z
									"/>
							</g>
						</g>
						<g>
							<g>
								<path fill="#231F20" d="M-38.17-73.683c-0.128,0-0.256-0.049-0.354-0.146c-0.195-0.195-0.195-0.512,0-0.707l2.264-2.266
									c0.195-0.195,0.512-0.195,0.707,0c0.195,0.195,0.195,0.512,0,0.707l-2.264,2.266C-37.914-73.732-38.042-73.683-38.17-73.683
									z"/>
							</g>
						</g>
						<g>
							<g>
								<path fill="#231F20" d="M-31.304-45.023c-0.515,0-1.075-0.095-1.667-0.328c-2.805-1.104-2.897-3.998-2.9-4.121l-2.409-15.75
									l-5.864-5.867l-4.489-1.076c-0.177-0.042-0.315-0.176-0.365-0.351c-0.049-0.174,0-0.361,0.128-0.489l9.963-9.961
									c0.128-0.127,0.314-0.176,0.489-0.127c0.174,0.049,0.309,0.188,0.351,0.364l1.076,4.49l5.866,5.866l15.812,2.411
									c0.041-0.018,2.953,0.085,4.058,2.895c1.112,2.822-0.874,4.609-0.959,4.684l-16.096,16.095
									C-28.761-45.772-29.854-45.023-31.304-45.023z M-47.532-72.928l3.758,0.901c0.09,0.021,0.172,0.067,0.237,0.133l6.08,6.082
									c0.075,0.075,0.125,0.173,0.141,0.278l2.439,15.977c0.009,0.159,0.098,2.421,2.272,3.276
									c2.172,0.857,3.551-0.673,3.564-0.688l7.666-7.667c0.002-0.002,0.005-0.005,0.007-0.007l0.816-0.816
									c0.003-0.003,0.006-0.005,0.009-0.008l7.644-7.642c0.085-0.077,1.562-1.434,0.713-3.588
									c-0.856-2.176-3.119-2.265-3.216-2.267l-16.037-2.441c-0.105-0.016-0.203-0.065-0.278-0.141l-6.082-6.082
									c-0.065-0.065-0.111-0.147-0.133-0.237l-0.901-3.759L-47.532-72.928z"/>
							</g>
						</g>
					</g>
					<g>
						<g>
							<g>
								<path fill="#231F20" d="M43.818-66.945c-0.133,0-0.26-0.053-0.354-0.146s-0.146-0.221-0.146-0.354l-0.002-10.814
									c0-0.276,0.224-0.5,0.5-0.5s0.5,0.224,0.5,0.5l0.002,10.314l6.471-0.002l-0.002-10.311c0-0.276,0.224-0.5,0.5-0.5
									s0.5,0.224,0.5,0.5l0.002,10.811c0,0.276-0.224,0.5-0.5,0.5L43.818-66.945z"/>
							</g>
						</g>
						<g>
							<g>
								<path fill="#231F20" d="M47.551-60.316L47.551-60.316c-0.179,0-0.344-0.095-0.433-0.25l-3.732-6.469
									c-0.09-0.155-0.09-0.345,0-0.5c0.089-0.155,0.254-0.25,0.433-0.25l7.469-0.002c0.179,0,0.344,0.095,0.433,0.25
									c0.09,0.155,0.09,0.345,0,0.5l-3.736,6.471C47.895-60.411,47.729-60.316,47.551-60.316z M44.684-66.785l2.867,4.969
									l2.87-4.971L44.684-66.785z"/>
							</g>
						</g>
						<g>
							<g>
								<path fill="#231F20" d="M47.463-60.72c-0.179,0-0.344-0.095-0.433-0.25l-0.838-1.449c-0.09-0.155-0.09-0.346,0-0.5
									c0.089-0.155,0.254-0.25,0.433-0.25h1.672c0.179,0,0.344,0.095,0.433,0.25c0.09,0.155,0.09,0.345,0.001,0.5l-0.834,1.449
									C47.807-60.816,47.643-60.72,47.463-60.72C47.463-60.72,47.463-60.72,47.463-60.72z"/>
							</g>
						</g>
					</g>
				</g>
			</g>
		</g>
		<g clip-path="url(#SVGID_2_)">
			<g>
				<g>
					<g>
						<g>
							<g>
								<path fill="#231F20" d="M84.579,151.674c-0.133,0-0.26-0.053-0.354-0.146L57.48,124.781
									c-0.094-0.094-0.146-0.221-0.146-0.354s0.053-0.26,0.146-0.354l22.831-22.828c0.195-0.195,0.512-0.195,0.707,0
									l26.744,26.744c0.195,0.195,0.195,0.512,0,0.707l-22.83,22.83C84.839,151.621,84.712,151.674,84.579,151.674z
									 M58.541,124.428l26.038,26.039l22.123-22.123l-26.037-26.037L58.541,124.428z"/>
							</g>
						</g>
						<g>
							<g>
								<path fill="none" stroke="#231F20" stroke-linecap="round" stroke-linejoin="round" stroke-miterlimit="10" d="
									M57.834,124.428"/>
							</g>
						</g>
						<g>
							<g>
								<path fill="#231F20" d="M88.23,155.324c-0.128,0-0.256-0.049-0.354-0.146L57.48,124.781c-0.195-0.195-0.195-0.512,0-0.707
									s0.512-0.195,0.707,0l30.396,30.396c0.195,0.195,0.195,0.512,0,0.707C88.486,155.275,88.358,155.324,88.23,155.324z"/>
							</g>
						</g>
						<g>
							<g>
								<path fill="#231F20" d="M85.218,157.492c-0.649,0-1.299-0.248-1.794-0.741l-27.516-27.517
									c-0.989-0.988-0.99-2.598-0.002-3.586l1.574-1.574c0.195-0.195,0.512-0.195,0.707,0s0.195,0.512,0,0.707l-1.574,1.574
									c-0.288,0.289-0.446,0.674-0.446,1.086c0,0.411,0.159,0.797,0.448,1.086l27.516,27.516c0.6,0.6,1.574,0.599,2.172,0.002
									l1.574-1.574c0.195-0.195,0.512-0.195,0.707,0s0.195,0.512,0,0.707l-1.574,1.574
									C86.516,157.246,85.867,157.492,85.218,157.492z"/>
							</g>
						</g>
					</g>
				</g>
				<g>
					<g>
						<g>
							<g>
								<path fill="#231F20" d="M-1.946,165.797c-3.939,0-7.645-1.534-10.431-4.32c-2.787-2.786-4.321-6.491-4.321-10.432
									c0-3.941,1.535-7.646,4.321-10.432c2.785-2.786,6.49-4.32,10.431-4.32c3.941,0,7.646,1.534,10.433,4.32
									c2.786,2.785,4.321,6.49,4.32,10.432c0,3.94-1.534,7.646-4.32,10.432C5.698,164.263,1.994,165.797-1.946,165.797z
									 M-1.946,137.293c-3.674,0-7.127,1.43-9.724,4.027c-2.598,2.598-4.028,6.051-4.028,9.725s1.431,7.127,4.028,9.725
									s6.051,4.027,9.724,4.027s7.127-1.43,9.726-4.027c5.362-5.363,5.362-14.088,0-19.449
									C5.182,138.723,1.728,137.293-1.946,137.293z"/>
							</g>
						</g>
						<g>
							<g>
								<path fill="#231F20" d="M-1.975,168.484c-0.276,0-0.5-0.223-0.5-0.5c0-0.275,0.224-0.5,0.5-0.5
									c4.437,0,8.607-1.727,11.744-4.865c3.137-3.137,4.864-7.309,4.863-11.746c0-9.156-7.45-16.607-16.607-16.607
									c-0.276,0-0.5-0.223-0.5-0.5c0-0.275,0.224-0.5,0.5-0.5c9.709,0,17.607,7.898,17.607,17.607
									c0.001,4.705-1.83,9.127-5.156,12.454C7.151,166.652,2.729,168.484-1.975,168.484z"/>
							</g>
						</g>
						<g>
							<g>
								<path fill="none" stroke="#231F20" stroke-miterlimit="10" d="M-1.898,163.541"/>
							</g>
						</g>
						<g>
							<g>
								<path fill="#231F20" d="M-1.898,170.744c-0.276,0-0.5-0.223-0.5-0.5v-4.986c0-0.275,0.224-0.5,0.5-0.5s0.5,0.225,0.5,0.5
									v4.986C-1.398,170.521-1.622,170.744-1.898,170.744z"/>
							</g>
						</g>
						<g>
							<g>
								<path fill="#231F20" d="M-1.898,137.256c-0.276,0-0.5-0.223-0.5-0.5v-5.068c0-0.275,0.224-0.5,0.5-0.5s0.5,0.225,0.5,0.5
									v5.068C-1.398,137.033-1.622,137.256-1.898,137.256z"/>
							</g>
						</g>
						<g>
							<g>
								<g>
									<path fill="#231F20" d="M13.916,167.252c-0.128,0-0.256-0.049-0.354-0.146l-3.787-3.785c-0.195-0.195-0.195-0.512,0-0.707
										s0.512-0.195,0.707,0l3.787,3.785c0.195,0.195,0.195,0.512,0,0.707C14.172,167.203,14.044,167.252,13.916,167.252z"/>
								</g>
							</g>
							<g>
								<g>
									<path fill="#231F20" d="M9.033,172.025c-0.128,0-0.256-0.049-0.354-0.146c-0.195-0.195-0.195-0.512,0-0.707l9.654-9.658
										c0.195-0.195,0.512-0.195,0.707,0s0.195,0.512,0,0.707l-9.654,9.658C9.289,171.977,9.161,172.025,9.033,172.025z"/>
								</g>
							</g>
						</g>
					</g>
					<g>
						<g>
							<path fill="none" stroke="#231F20" stroke-linecap="round" stroke-linejoin="round" stroke-miterlimit="10" d="
								M-0.008,115.17"/>
						</g>
					</g>
					<g>
						<g>
							<g>
								<path fill="#231F20" d="M-39.421,151.674c-0.133,0-0.26-0.053-0.354-0.146l-26.745-26.746
									c-0.094-0.094-0.146-0.221-0.146-0.354s0.053-0.26,0.146-0.354l22.831-22.828c0.195-0.195,0.512-0.195,0.707,0
									l26.744,26.744c0.195,0.195,0.195,0.512,0,0.707l-22.83,22.83C-39.161,151.621-39.288,151.674-39.421,151.674z
									 M-65.459,124.428l26.038,26.039l22.123-22.123l-26.037-26.037L-65.459,124.428z"/>
							</g>
						</g>
						<g>
							<g>
								<path fill="#231F20" d="M-35.77,155.324c-0.128,0-0.256-0.049-0.354-0.146l-3.651-3.65
									c-0.094-0.094-0.146-0.221-0.146-0.354s0.053-0.26,0.146-0.354l22.83-22.83c0.188-0.188,0.52-0.188,0.707,0l3.65,3.65
									c0.195,0.195,0.195,0.512,0,0.707l-22.829,22.83C-35.514,155.275-35.642,155.324-35.77,155.324z M-38.714,151.174
									l2.944,2.943l22.122-22.123l-2.943-2.943L-38.714,151.174z"/>
							</g>
						</g>
						<g>
							<g>
								<path fill="none" stroke="#231F20" stroke-linecap="round" stroke-linejoin="round" stroke-miterlimit="10" d="
									M-66.166,124.428"/>
							</g>
						</g>
						<g>
							<g>
								<path fill="#231F20" d="M-35.77,155.324c-0.128,0-0.256-0.049-0.354-0.146l-30.396-30.396c-0.195-0.195-0.195-0.512,0-0.707
									s0.512-0.195,0.707,0l30.396,30.396c0.195,0.195,0.195,0.512,0,0.707C-35.514,155.275-35.642,155.324-35.77,155.324z"/>
							</g>
						</g>
						<g>
							<g>
								<path fill="#231F20" d="M-38.782,157.492c-0.649,0-1.299-0.248-1.794-0.741l-27.516-27.517
									c-0.989-0.988-0.99-2.598-0.002-3.586l1.574-1.574c0.195-0.195,0.512-0.195,0.707,0s0.195,0.512,0,0.707l-1.574,1.574
									c-0.288,0.289-0.446,0.674-0.446,1.086c0,0.411,0.159,0.797,0.448,1.086l27.516,27.516c0.6,0.6,1.574,0.599,2.172,0.002
									l1.574-1.574c0.195-0.195,0.512-0.195,0.707,0s0.195,0.512,0,0.707l-1.574,1.574
									C-37.484,157.246-38.133,157.492-38.782,157.492z"/>
							</g>
						</g>
						<g>
							<g>
								<path fill="#231F20" d="M-40.608,156.512c-0.128,0-0.256-0.049-0.354-0.146l-0.913-0.914
									c-0.707-0.709-0.476-2.053,0.525-3.058l24.405-24.403c0.195-0.195,0.512-0.195,0.707,0s0.195,0.512,0,0.707L-40.642,153.1
									c-0.619,0.622-0.788,1.382-0.525,1.646l0.912,0.912c0.195,0.194,0.195,0.512,0,0.707
									C-40.353,156.463-40.48,156.512-40.608,156.512z"/>
							</g>
						</g>
						<g>
							<g>
								<path fill="#231F20" d="M-54.99,123.158c-0.128,0-0.256-0.049-0.354-0.146c-0.195-0.195-0.195-0.512,0-0.707l10.507-10.506
									c0.195-0.195,0.512-0.195,0.707,0s0.195,0.512,0,0.707l-10.507,10.506C-54.734,123.109-54.862,123.158-54.99,123.158z"/>
							</g>
						</g>
						<g>
							<g>
								<path fill="#231F20" d="M-51.327,126.82c-0.128,0-0.256-0.049-0.354-0.146c-0.195-0.195-0.195-0.512,0-0.707l10.506-10.508
									c0.195-0.195,0.512-0.195,0.707,0s0.195,0.512,0,0.707l-10.506,10.508C-51.071,126.771-51.199,126.82-51.327,126.82z"/>
							</g>
						</g>
					</g>
					<g>
						<g>
							<g>
								<path fill="none" stroke="#231F20" stroke-linecap="round" stroke-linejoin="round" stroke-miterlimit="10" d="
									M-41.113,173.684"/>
							</g>
						</g>
						<g>
							<g>
								<path fill="#231F20" d="M-22.957,181.08c-0.128,0-0.256-0.049-0.354-0.146c-0.195-0.195-0.195-0.512,0-0.707l2.777-2.777
									c0.195-0.195,0.512-0.195,0.707,0s0.195,0.512,0,0.707l-2.777,2.777C-22.701,181.031-22.829,181.08-22.957,181.08z"/>
							</g>
						</g>
						<g>
							<g>
								<path fill="#231F20" d="M-29.223,180.02c-0.128,0-0.256-0.049-0.354-0.146c-0.195-0.195-0.195-0.512,0-0.707l2.602-2.602
									c0.195-0.195,0.512-0.195,0.707,0s0.195,0.512,0,0.707l-2.602,2.602C-28.967,179.971-29.095,180.02-29.223,180.02z"/>
							</g>
						</g>
						<g>
							<g>
								<path fill="#231F20" d="M-34.508,177.979c-0.128,0-0.256-0.049-0.354-0.146c-0.195-0.194-0.195-0.512,0-0.707l2.035-2.037
									c0.195-0.195,0.512-0.195,0.707,0s0.195,0.512,0,0.707l-2.035,2.037C-34.252,177.93-34.38,177.979-34.508,177.979z"/>
							</g>
						</g>
						<g>
							<g>
								<path fill="#231F20" d="M-38.17,174.316c-0.128,0-0.256-0.049-0.354-0.146c-0.195-0.194-0.195-0.512,0-0.707l2.264-2.266
									c0.195-0.195,0.512-0.195,0.707,0s0.195,0.512,0,0.707l-2.264,2.266C-37.914,174.268-38.042,174.316-38.17,174.316z"/>
							</g>
						</g>
						<g>
							<g>
								<path fill="#231F20" d="M-31.304,202.977c-0.515,0-1.075-0.094-1.667-0.327c-2.805-1.104-2.897-3.998-2.9-4.12l-2.409-15.75
									l-5.864-5.867l-4.489-1.076c-0.177-0.042-0.315-0.176-0.365-0.35c-0.049-0.175,0-0.361,0.128-0.49l9.963-9.961
									c0.128-0.127,0.314-0.176,0.489-0.127c0.174,0.049,0.309,0.188,0.351,0.364l1.076,4.489l5.866,5.867l15.812,2.41
									c0.041-0.001,2.953,0.086,4.058,2.896c1.112,2.821-0.874,4.609-0.959,4.685l-16.096,16.094
									C-28.761,202.229-29.854,202.977-31.304,202.977z M-47.532,175.072l3.758,0.9c0.09,0.021,0.172,0.068,0.237,0.133
									l6.08,6.082c0.075,0.076,0.125,0.174,0.141,0.278l2.439,15.977c0.009,0.159,0.098,2.421,2.272,3.276
									c2.172,0.857,3.551-0.673,3.564-0.688l7.666-7.667c0.002-0.002,0.005-0.005,0.007-0.008l0.816-0.816
									c0.003-0.002,0.006-0.005,0.009-0.008l7.644-7.643c0.085-0.076,1.562-1.434,0.713-3.588
									c-0.856-2.176-3.119-2.265-3.216-2.268l-16.037-2.441c-0.105-0.016-0.203-0.064-0.278-0.141l-6.082-6.082
									c-0.065-0.064-0.111-0.146-0.133-0.236l-0.901-3.759L-47.532,175.072z"/>
							</g>
						</g>
					</g>
					<g>
						<g>
							<g>
								
									<path fill-rule="evenodd" clip-rule="evenodd" fill="none" stroke="#231F20" stroke-linecap="round" stroke-linejoin="round" stroke-miterlimit="10" d="
									M43.82,169.742"/>
							</g>
						</g>
						<g>
							<g>
								<path fill="#231F20" d="M66.377,170.244L66.377,170.244l-15.088-0.002c-0.276,0-0.5-0.224-0.5-0.5
									c0-0.275,0.224-0.5,0.5-0.5l0,0l14.588,0.002l-0.002-9.211l-14.586,0.004c-0.276,0-0.5-0.223-0.5-0.5
									c0-0.275,0.224-0.5,0.5-0.5l15.086-0.004c0.133,0,0.26,0.053,0.354,0.146s0.146,0.221,0.146,0.354l0.002,10.211
									c0,0.133-0.053,0.26-0.146,0.354S66.51,170.244,66.377,170.244z"/>
							</g>
						</g>
						<g>
							<g>
								<path fill="#231F20" d="M28.609,170.244c-0.276,0-0.5-0.223-0.5-0.5l-0.002-10.209c0-0.132,0.053-0.26,0.146-0.354
									s0.221-0.146,0.354-0.146h15.215c0.276,0,0.5,0.225,0.5,0.5c0,0.277-0.224,0.5-0.5,0.5H29.107l0.002,9.209l14.711-0.002
									c0.276,0,0.5,0.225,0.5,0.5c0,0.276-0.224,0.5-0.5,0.5L28.609,170.244z"/>
							</g>
						</g>
						<g>
							<g>
								<rect x="31.108" y="159.873" fill="#231F20" width="1" height="5.584"/>
							</g>
						</g>
						<g>
							<g>
								<rect x="62.994" y="159.873" fill="#231F20" width="1" height="5.586"/>
							</g>
						</g>
						<g>
							<g>
								<rect x="34.298" y="159.874" fill="#231F20" width="1" height="3.078"/>
							</g>
						</g>
						<g>
							<g>
								<rect x="37.486" y="159.873" fill="#231F20" width="1" height="5.584"/>
							</g>
						</g>
						<g>
							<g>
								<rect x="40.673" y="159.872" fill="#231F20" width="1" height="3.082"/>
							</g>
						</g>
						<g>
							<g>
								<rect x="53.428" y="159.871" fill="#231F20" width="1" height="3.08"/>
							</g>
						</g>
						<g>
							<g>
								<rect x="56.616" y="159.871" fill="#231F20" width="1" height="5.586"/>
							</g>
						</g>
						<g>
							<g>
								<rect x="59.805" y="159.872" fill="#231F20" width="1" height="3.084"/>
							</g>
						</g>
						<g>
							<g>
								<path fill="#231F20" d="M43.818,181.055c-0.133,0-0.26-0.053-0.354-0.146s-0.146-0.221-0.146-0.354l-0.002-10.814
									c0-0.275,0.224-0.5,0.5-0.5s0.5,0.225,0.5,0.5l0.002,10.314l6.471-0.002l-0.002-10.311c0-0.275,0.224-0.5,0.5-0.5
									s0.5,0.225,0.5,0.5l0.002,10.811c0,0.276-0.224,0.5-0.5,0.5L43.818,181.055z"/>
							</g>
						</g>
						<g>
							<g>
								<path fill="#231F20" d="M51.287,170.242L51.287,170.242c-0.276,0-0.5-0.224-0.5-0.5l0.002-18.057l-6.471,0.002
									l-0.002,18.053c0,0.277-0.224,0.5-0.5,0.5l0,0c-0.276,0-0.5-0.224-0.5-0.5l0.002-18.553c0-0.275,0.224-0.5,0.5-0.5
									l7.471-0.002c0.133,0,0.26,0.053,0.354,0.146s0.146,0.221,0.146,0.354l-0.002,18.557
									C51.787,170.02,51.563,170.242,51.287,170.242z"/>
							</g>
						</g>
						<g>
							<g>
								<path fill="#231F20" d="M47.551,187.684L47.551,187.684c-0.179,0-0.344-0.095-0.433-0.25l-3.732-6.469
									c-0.09-0.154-0.09-0.345,0-0.5c0.089-0.154,0.254-0.25,0.433-0.25l7.469-0.002c0.179,0,0.344,0.096,0.433,0.25
									c0.09,0.155,0.09,0.346,0,0.5l-3.736,6.471C47.895,187.589,47.729,187.684,47.551,187.684z M44.684,181.215l2.867,4.969
									l2.87-4.971L44.684,181.215z"/>
							</g>
						</g>
						<g>
							<g>
								<path fill="#231F20" d="M47.463,187.279c-0.179,0-0.344-0.095-0.433-0.249l-0.838-1.449c-0.09-0.155-0.09-0.346,0-0.501
									c0.089-0.154,0.254-0.25,0.433-0.25h1.672c0.179,0,0.344,0.096,0.433,0.25c0.09,0.154,0.09,0.346,0.001,0.5l-0.834,1.449
									C47.807,187.184,47.643,187.279,47.463,187.279C47.463,187.279,47.463,187.279,47.463,187.279z"/>
							</g>
						</g>
						<g>
							<g>
								<path fill="#231F20" d="M51.787,151.964l-1-0.001l0.002-3.07l0,0c-0.006,0-0.208-1.176-1.18-1.176l-3.878-0.004l0.002-1
									l3.876,0.004c1.479,0,2.069,1.377,2.175,2.105L51.787,151.964z"/>
							</g>
						</g>
						<g>
							<g>
								<path fill="#231F20" d="M43.318,151.966l-0.002-3.072c0.11-0.8,0.699-2.177,2.177-2.177c0.002,0,0.004,0,0.006,0h3.874v1
									h-3.875c-0.001,0-0.002,0-0.003,0c-0.98,0-1.177,1.199-1.185,1.25l0.008,2.998L43.318,151.966z"/>
							</g>
						</g>
					</g>
					<g>
						<g>
							<g>
								<path fill="#231F20" d="M-8.898,109.4c-0.128,0-0.256-0.049-0.354-0.146L-28.59,89.918
									c-0.094-0.094-0.146-0.221-0.146-0.354s0.053-0.26,0.146-0.354L8.008,52.615c0.195-0.195,0.512-0.195,0.707,0l19.336,19.336
									c0.094,0.094,0.146,0.221,0.146,0.354s-0.053,0.26-0.146,0.354l-36.596,36.596C-8.643,109.352-8.771,109.4-8.898,109.4z
									 M-27.529,89.564l18.631,18.629L26.99,72.305L8.361,53.676L-27.529,89.564z"/>
							</g>
						</g>
						<g>
							<g>
								<path fill="#231F20" d="M3.309,116.525c-0.212,0-0.408-0.135-0.476-0.347l-4.699-14.635
									c-0.085-0.263,0.06-0.544,0.322-0.629c0.263-0.084,0.545,0.061,0.629,0.323l4.699,14.635
									c0.085,0.263-0.06,0.545-0.322,0.629C3.411,116.518,3.359,116.525,3.309,116.525z"/>
							</g>
						</g>
						<g>
							<g>
								<path fill="#231F20" d="M33.906,85.93c-0.051,0-0.103-0.008-0.153-0.023L19.12,81.203c-0.263-0.084-0.407-0.366-0.322-0.629
									c0.084-0.264,0.366-0.407,0.629-0.323l14.633,4.703c0.263,0.085,0.407,0.366,0.322,0.629
									C34.314,85.795,34.118,85.93,33.906,85.93z"/>
							</g>
						</g>
						<g>
							<g>
								<path fill="#231F20" d="M-2.586,113.133c-0.128,0-0.256-0.049-0.354-0.146c-0.195-0.195-0.195-0.512,0-0.707l32.457-32.455
									c0.195-0.195,0.512-0.195,0.707,0s0.195,0.512,0,0.707l-32.457,32.455C-2.33,113.084-2.458,113.133-2.586,113.133z"/>
							</g>
						</g>
						<g>
							<g>
								<path fill="#231F20" d="M-11.195,107.104c-0.128,0-0.256-0.049-0.354-0.146c-0.195-0.195-0.195-0.512,0-0.707l36.598-36.594
									c0.195-0.195,0.512-0.195,0.707,0s0.195,0.512,0,0.707l-36.598,36.594C-10.939,107.055-11.067,107.104-11.195,107.104z"/>
							</g>
						</g>
					</g>
					<g>
						<g>
							<g>
								<path fill="#231F20" d="M43.062,134.153c-4.116,0-10.463-3.686-16.168-9.39c-7.712-7.713-11.359-16.148-8.305-19.203
									c0.721-0.721,1.742-1.086,3.036-1.086c4.117,0,10.463,3.686,16.167,9.389c3.621,3.621,6.492,7.569,8.086,11.117
									c1.659,3.696,1.737,6.568,0.219,8.086C45.377,133.788,44.355,134.153,43.062,134.153z M21.626,105.475
									c-1.019,0-1.803,0.267-2.329,0.793c-2.569,2.57,1.233,10.717,8.305,17.789c5.442,5.441,11.655,9.097,15.461,9.097
									c1.019,0,1.802-0.267,2.328-0.794c1.187-1.186,1.032-3.727-0.425-6.97c-1.544-3.438-4.343-7.281-7.88-10.819
									C31.645,109.13,25.432,105.475,21.626,105.475z"/>
							</g>
						</g>
						<g>
							<g>
								<path fill="#231F20" d="M22.495,128.735c-4.814,0-7.987-1.307-8.704-3.585c-1.297-4.121,5.837-9.915,16.24-13.189
									c4.245-1.335,8.564-2.07,12.161-2.07c4.815,0,7.988,1.307,8.704,3.585c0.646,2.048-0.751,4.558-3.932,7.067
									c-3.052,2.408-7.423,4.582-12.309,6.12C30.412,128,26.093,128.735,22.495,128.735z M42.192,110.891
									c-3.498,0-7.71,0.719-11.86,2.024c-9.54,3.003-16.678,8.468-15.588,11.936c0.569,1.806,3.467,2.885,7.751,2.885
									c3.499,0,7.711-0.72,11.86-2.026c4.773-1.502,9.031-3.615,11.99-5.95c2.79-2.202,4.102-4.383,3.598-5.983
									C49.375,111.969,46.478,110.891,42.192,110.891z"/>
							</g>
						</g>
						<g>
							<g>
								<path fill="#231F20" d="M28.033,138.529C28.032,138.529,28.033,138.529,28.033,138.529c-0.351,0-0.692-0.051-1.018-0.153
									c-2.047-0.644-3.306-3.226-3.542-7.271c-0.228-3.883,0.493-8.711,2.03-13.595c2.99-9.501,8.109-16.396,12.172-16.396
									c0.35,0,0.691,0.052,1.016,0.153c4.122,1.297,4.787,10.463,1.514,20.867C37.218,131.635,32.099,138.529,28.033,138.529z
									 M37.676,102.114c-3.52,0-8.447,6.895-11.219,15.696c-1.501,4.771-2.206,9.473-1.985,13.236
									c0.208,3.549,1.244,5.872,2.845,6.375c0.227,0.072,0.468,0.107,0.716,0.107c3.523,0.001,8.451-6.893,11.22-15.694
									c3.001-9.54,2.607-18.522-0.861-19.613C38.164,102.15,37.924,102.114,37.676,102.114z"/>
							</g>
						</g>
						<g>
							<g>
								<path fill="#231F20" d="M32.913,122.096c-0.705,0-1.367-0.275-1.864-0.773c-0.501-0.5-0.775-1.165-0.775-1.872
									c0.001-0.706,0.276-1.368,0.776-1.864c0.994-0.996,2.734-0.998,3.735-0.002c1.027,1.03,1.026,2.706-0.002,3.736
									C34.282,121.82,33.618,122.096,32.913,122.096z M32.917,117.812c-0.438,0-0.851,0.171-1.161,0.481
									c-0.311,0.31-0.481,0.721-0.482,1.158c0,0.439,0.171,0.854,0.482,1.164c0.618,0.62,1.698,0.619,2.32-0.002
									c0.639-0.641,0.64-1.682,0.002-2.322C33.768,117.982,33.355,117.812,32.917,117.812z"/>
							</g>
						</g>
					</g>
					<g>
						<g>
							<path fill="#231F20" d="M52.551,97.832L41.533,86.814l11.018-11.02l11.02,11.02L52.551,97.832z M42.947,86.814l9.604,9.604
								l9.605-9.604l-9.605-9.605L42.947,86.814z"/>
						</g>
					</g>
					<g>
						<g>
							<path fill="#231F20" d="M62.861,108.145l-11.018-11.02l11.018-11.018l11.02,11.018L62.861,108.145z M53.258,97.125
								l9.604,9.605l9.605-9.605l-9.605-9.604L53.258,97.125z"/>
						</g>
					</g>
					<g>
						<g>
							<path fill="#231F20" d="M73.252,97.754L62.234,86.736l11.018-11.02l11.018,11.02L73.252,97.754z M63.648,86.736l9.604,9.604
								l9.604-9.604l-9.604-9.605L63.648,86.736z"/>
						</g>
					</g>
					<g>
						<g>
							<path fill="#231F20" d="M62.863,87.521l-11.02-11.02l11.02-11.018l11.018,11.018L62.863,87.521z M53.258,76.502l9.605,9.605
								l9.604-9.605l-9.604-9.604L53.258,76.502z"/>
						</g>
					</g>
					<g>
						<g>
							
								<rect x="62.362" y="73.593" transform="matrix(0.7071 0.7071 -0.7071 0.7071 72.507 -22.0435)" fill="#231F20" width="1" height="5.818"/>
						</g>
					</g>
					<g>
						<g>
							<g>
								
									<rect x="52.051" y="83.906" transform="matrix(0.7071 0.7071 -0.7071 0.7071 76.7789 -11.7316)" fill="#231F20" width="1" height="5.817"/>
							</g>
						</g>
						<g>
							<g>
								
									<rect x="49.64" y="86.314" transform="matrix(0.7071 0.7071 -0.7071 0.7071 76.7779 -11.7312)" fill="#231F20" width="5.82" height="1"/>
							</g>
						</g>
					</g>
					<g>
						<g>
							<g>
								<rect x="59.953" y="96.625" fill="#231F20" width="5.818" height="1"/>
							</g>
						</g>
						<g>
							<g>
								<rect x="62.361" y="94.215" fill="#231F20" width="1" height="5.82"/>
							</g>
						</g>
					</g>
				</g>
				<g>
					<g>
						<g>
							<g>
								<path fill="#231F20" d="M-57.623,170.244L-57.623,170.244l-15.088-0.002c-0.276,0-0.5-0.224-0.5-0.5
									c0-0.275,0.224-0.5,0.5-0.5l0,0l14.588,0.002l-0.002-9.211l-14.586,0.004c-0.276,0-0.5-0.223-0.5-0.5
									c0-0.275,0.224-0.5,0.5-0.5l15.086-0.004c0.133,0,0.26,0.053,0.354,0.146s0.146,0.221,0.146,0.354l0.002,10.211
									c0,0.133-0.053,0.26-0.146,0.354S-57.49,170.244-57.623,170.244z"/>
							</g>
						</g>
					</g>
					<g>
						<g>
							<path fill="#231F20" d="M-61.139,108.145l-11.018-11.02l11.018-11.018l11.02,11.018L-61.139,108.145z M-70.742,97.125
								l9.604,9.605l9.605-9.605l-9.605-9.604L-70.742,97.125z"/>
						</g>
					</g>
					<g>
						<g>
							<path fill="#231F20" d="M-50.748,97.754l-11.018-11.018l11.018-11.02l11.018,11.02L-50.748,97.754z M-60.352,86.736
								l9.604,9.604l9.604-9.604l-9.604-9.605L-60.352,86.736z"/>
						</g>
					</g>
					<g>
						<g>
							<path fill="#231F20" d="M-61.137,87.521l-11.02-11.02l11.02-11.018l11.018,11.018L-61.137,87.521z M-70.742,76.502
								l9.605,9.605l9.604-9.605l-9.604-9.604L-70.742,76.502z"/>
						</g>
					</g>
				</g>
				<g>
					<g>
						<g>
							<g>
								<path fill="none" stroke="#231F20" stroke-linecap="round" stroke-linejoin="round" stroke-miterlimit="10" d="
									M-41.113,49.684"/>
							</g>
						</g>
						<g>
							<g>
								<path fill="#231F20" d="M-22.957,57.08c-0.128,0-0.256-0.049-0.354-0.146c-0.195-0.195-0.195-0.512,0-0.707l2.777-2.777
									c0.195-0.195,0.512-0.195,0.707,0s0.195,0.512,0,0.707l-2.777,2.777C-22.701,57.031-22.829,57.08-22.957,57.08z"/>
							</g>
						</g>
						<g>
							<g>
								<path fill="#231F20" d="M-29.223,56.02c-0.128,0-0.256-0.049-0.354-0.146c-0.195-0.195-0.195-0.512,0-0.707l2.602-2.602
									c0.195-0.195,0.512-0.195,0.707,0s0.195,0.512,0,0.707l-2.602,2.602C-28.967,55.971-29.095,56.02-29.223,56.02z"/>
							</g>
						</g>
						<g>
							<g>
								<path fill="#231F20" d="M-34.508,53.979c-0.128,0-0.256-0.049-0.354-0.146c-0.195-0.194-0.195-0.512,0-0.707l2.035-2.037
									c0.195-0.195,0.512-0.195,0.707,0s0.195,0.512,0,0.707l-2.035,2.037C-34.252,53.93-34.38,53.979-34.508,53.979z"/>
							</g>
						</g>
						<g>
							<g>
								<path fill="#231F20" d="M-38.17,50.316c-0.128,0-0.256-0.049-0.354-0.146c-0.195-0.194-0.195-0.512,0-0.707l2.264-2.266
									c0.195-0.195,0.512-0.195,0.707,0s0.195,0.512,0,0.707l-2.264,2.266C-37.914,50.268-38.042,50.316-38.17,50.316z"/>
							</g>
						</g>
						<g>
							<g>
								<path fill="#231F20" d="M-31.304,78.977c-0.515,0-1.075-0.094-1.667-0.327c-2.805-1.104-2.897-3.998-2.9-4.12l-2.409-15.75
									l-5.864-5.867l-4.489-1.076c-0.177-0.042-0.315-0.176-0.365-0.35c-0.049-0.175,0-0.361,0.128-0.49l9.963-9.961
									c0.128-0.127,0.314-0.177,0.489-0.127c0.174,0.049,0.309,0.188,0.351,0.364l1.076,4.489l5.866,5.867l15.812,2.41
									c0.041-0.025,2.953,0.086,4.058,2.896c1.112,2.821-0.874,4.609-0.959,4.685l-16.096,16.094
									C-28.761,78.229-29.854,78.977-31.304,78.977z M-47.532,51.072l3.758,0.9c0.09,0.021,0.172,0.068,0.237,0.133l6.08,6.082
									c0.075,0.076,0.125,0.174,0.141,0.278l2.439,15.977c0.009,0.159,0.098,2.421,2.272,3.276
									c2.172,0.855,3.551-0.673,3.564-0.688l7.666-7.667c0.002-0.002,0.005-0.005,0.007-0.008l0.816-0.816
									c0.003-0.002,0.006-0.005,0.009-0.008l7.644-7.643c0.085-0.076,1.562-1.434,0.713-3.588
									c-0.856-2.176-3.119-2.265-3.216-2.268l-16.037-2.441c-0.105-0.016-0.203-0.064-0.278-0.141l-6.082-6.082
									c-0.065-0.064-0.111-0.146-0.133-0.236l-0.901-3.759L-47.532,51.072z"/>
							</g>
						</g>
					</g>
					<g>
						<g>
							<g>
								<path fill="#231F20" d="M43.818,57.055c-0.133,0-0.26-0.053-0.354-0.146s-0.146-0.221-0.146-0.354L43.316,45.74
									c0-0.275,0.224-0.5,0.5-0.5s0.5,0.225,0.5,0.5l0.002,10.314l6.471-0.002l-0.002-10.311c0-0.275,0.224-0.5,0.5-0.5
									s0.5,0.225,0.5,0.5l0.002,10.811c0,0.276-0.224,0.5-0.5,0.5L43.818,57.055z"/>
							</g>
						</g>
						<g>
							<g>
								<path fill="#231F20" d="M47.551,63.684L47.551,63.684c-0.179,0-0.344-0.095-0.433-0.25l-3.732-6.469
									c-0.09-0.154-0.09-0.345,0-0.5c0.089-0.154,0.254-0.25,0.433-0.25l7.469-0.002c0.179,0,0.344,0.096,0.433,0.25
									c0.09,0.155,0.09,0.346,0,0.5l-3.736,6.471C47.895,63.589,47.729,63.684,47.551,63.684z M44.684,57.215l2.867,4.969
									l2.87-4.971L44.684,57.215z"/>
							</g>
						</g>
						<g>
							<g>
								<path fill="#231F20" d="M47.463,63.279c-0.179,0-0.344-0.095-0.433-0.249l-0.838-1.449c-0.09-0.155-0.09-0.346,0-0.501
									c0.089-0.154,0.254-0.25,0.433-0.25h1.672c0.179,0,0.344,0.096,0.433,0.25c0.09,0.154,0.09,0.346,0.001,0.5l-0.834,1.449
									C47.807,63.184,47.643,63.279,47.463,63.279C47.463,63.279,47.463,63.279,47.463,63.279z"/>
							</g>
						</g>
					</g>
				</g>
			</g>
		</g>
	</g>
</g>
</svg>
