<?xml version="1.0" encoding="utf-8"?>
<!-- Generator: Adobe Illustrator 16.0.0, SVG Export Plug-In . SVG Version: 6.00 Build 0)  -->
<!DOCTYPE svg PUBLIC "-//W3C//DTD SVG 1.1//EN" "http://www.w3.org/Graphics/SVG/1.1/DTD/svg11.dtd">
<svg version="1.1" id="Layer_1" xmlns="http://www.w3.org/2000/svg" xmlns:xlink="http://www.w3.org/1999/xlink" x="0px" y="0px"
	 width="124px" height="124px" viewBox="0 0 124 124" enable-background="new 0 0 124 124" xml:space="preserve">
<g opacity="0.09">
	<g>
		<g>
			<defs>
				<rect id="SVGID_1_" width="124" height="124"/>
			</defs>
			<clipPath id="SVGID_2_">
				<use xlink:href="#SVGID_1_"  overflow="visible"/>
			</clipPath>
			<g clip-path="url(#SVGID_2_)">
				<g>
					<g>
						<g>
							<path fill="none" stroke="#231F20" stroke-linecap="round" stroke-linejoin="round" stroke-miterlimit="10" d="
								M181.834,0.428"/>
						</g>
					</g>
					<g>
						<g>
							<g>
								<path fill="none" stroke="#231F20" stroke-miterlimit="10" d="M122.102,39.541"/>
							</g>
						</g>
						<g>
							<g>
								<path fill="none" stroke="#231F20" stroke-linecap="round" stroke-linejoin="round" stroke-miterlimit="10" d="
									M123.992-8.83"/>
							</g>
						</g>
						<g>
							<g>
								<path fill="none" stroke="#231F20" stroke-linecap="round" stroke-linejoin="round" stroke-miterlimit="10" d="
									M57.834,0.428"/>
							</g>
						</g>
						<g>
							<g>
								<path fill="none" stroke="#231F20" stroke-linecap="round" stroke-linejoin="round" stroke-miterlimit="10" d="
									M82.887,49.684"/>
							</g>
						</g>
						<g>
							<g>
								<path fill="none" stroke="#231F20" stroke-linecap="round" stroke-linejoin="round" stroke-miterlimit="10" d="
									M167.82,45.742"/>
							</g>
						</g>
					</g>
					<g>
						<g>
							<path fill="none" stroke="#231F20" stroke-linecap="round" stroke-linejoin="round" stroke-miterlimit="10" d="
								M82.887-74.316"/>
						</g>
					</g>
				</g>
			</g>
		</g>
		<g>
			<defs>
				<rect id="SVGID_3_" width="124" height="124"/>
			</defs>
			<clipPath id="SVGID_4_">
				<use xlink:href="#SVGID_3_"  overflow="visible"/>
			</clipPath>
			<g clip-path="url(#SVGID_4_)">
				<g>
					<g>
						<g>
							<path fill="none" stroke="#231F20" stroke-linecap="round" stroke-linejoin="round" stroke-miterlimit="10" d="
								M181.834,124.428"/>
						</g>
					</g>
					<g>
						<g>
							<g>
								<path fill="none" stroke="#231F20" stroke-miterlimit="10" d="M122.102,163.541"/>
							</g>
						</g>
						<g>
							<g>
								<path fill="none" stroke="#231F20" stroke-linecap="round" stroke-linejoin="round" stroke-miterlimit="10" d="
									M123.992,115.17"/>
							</g>
						</g>
						<g>
							<g>
								<path fill="none" stroke="#231F20" stroke-linecap="round" stroke-linejoin="round" stroke-miterlimit="10" d="
									M57.834,124.428"/>
							</g>
						</g>
						<g>
							<g>
								<path fill="none" stroke="#231F20" stroke-linecap="round" stroke-linejoin="round" stroke-miterlimit="10" d="
									M82.887,173.684"/>
							</g>
						</g>
						<g>
							<g>
								<path fill="none" stroke="#231F20" stroke-linecap="round" stroke-linejoin="round" stroke-miterlimit="10" d="
									M167.82,169.742"/>
							</g>
						</g>
					</g>
					<g>
						<g>
							<path fill="none" stroke="#231F20" stroke-linecap="round" stroke-linejoin="round" stroke-miterlimit="10" d="
								M82.887,49.684"/>
						</g>
					</g>
				</g>
			</g>
		</g>
		<g>
			<defs>
				<rect id="SVGID_5_" width="124" height="124"/>
			</defs>
			<clipPath id="SVGID_6_">
				<use xlink:href="#SVGID_5_"  overflow="visible"/>
			</clipPath>
			<g clip-path="url(#SVGID_6_)">
				<g>
					<g>
						<g>
							<path fill="none" stroke="#231F20" stroke-linecap="round" stroke-linejoin="round" stroke-miterlimit="10" d="M57.834,0.428
								"/>
						</g>
					</g>
					<g>
						<g>
							<g>
								<path fill="none" stroke="#231F20" stroke-miterlimit="10" d="M-1.898,39.541"/>
							</g>
						</g>
						<g>
							<g>
								<path fill="none" stroke="#231F20" stroke-linecap="round" stroke-linejoin="round" stroke-miterlimit="10" d="M-0.008-8.83
									"/>
							</g>
						</g>
						<g>
							<g>
								<path fill="none" stroke="#231F20" stroke-linecap="round" stroke-linejoin="round" stroke-miterlimit="10" d="
									M-66.166,0.428"/>
							</g>
						</g>
						<g>
							<g>
								<path fill="none" stroke="#231F20" stroke-linecap="round" stroke-linejoin="round" stroke-miterlimit="10" d="
									M-41.113,49.684"/>
							</g>
						</g>
						<g>
							<g>
								<path fill="none" stroke="#231F20" stroke-linecap="round" stroke-linejoin="round" stroke-miterlimit="10" d="
									M43.82,45.742"/>
							</g>
						</g>
					</g>
					<g>
						<g>
							<path fill="none" stroke="#231F20" stroke-linecap="round" stroke-linejoin="round" stroke-miterlimit="10" d="
								M-41.113-74.316"/>
						</g>
					</g>
				</g>
			</g>
		</g>
		<g>
			<defs>
				<rect id="SVGID_7_" width="124" height="124"/>
			</defs>
			<clipPath id="SVGID_8_">
				<use xlink:href="#SVGID_7_"  overflow="visible"/>
			</clipPath>
			<g clip-path="url(#SVGID_8_)">
				<g>
					<g>
						<g>
							<path fill="none" stroke="#231F20" stroke-linecap="round" stroke-linejoin="round" stroke-miterlimit="10" d="
								M57.834,124.428"/>
						</g>
					</g>
					<g>
						<g>
							<g>
								<path fill="none" stroke="#231F20" stroke-miterlimit="10" d="M-1.898,163.541"/>
							</g>
						</g>
						<g>
							<g>
								<path fill="none" stroke="#231F20" stroke-linecap="round" stroke-linejoin="round" stroke-miterlimit="10" d="
									M-0.008,115.17"/>
							</g>
						</g>
						<g>
							<g>
								<path fill="none" stroke="#231F20" stroke-linecap="round" stroke-linejoin="round" stroke-miterlimit="10" d="
									M-66.166,124.428"/>
							</g>
						</g>
						<g>
							<g>
								<path fill="none" stroke="#231F20" stroke-linecap="round" stroke-linejoin="round" stroke-miterlimit="10" d="
									M-41.113,173.684"/>
							</g>
						</g>
						<g>
							<g>
								<path fill="none" stroke="#231F20" stroke-linecap="round" stroke-linejoin="round" stroke-miterlimit="10" d="
									M43.82,169.742"/>
							</g>
						</g>
					</g>
					<g>
						<g>
							<g>
								<path fill="none" stroke="#231F20" stroke-linecap="round" stroke-linejoin="round" stroke-miterlimit="10" d="
									M-41.113,49.684"/>
							</g>
						</g>
						<g>
							<path fill="#FFFFFF" d="M204.311-22.755L181.48,0.074c-0.001,0.001-0.001,0.002-0.002,0.003l-1.572,1.572
								c-0.988,0.988-0.987,2.597,0.002,3.586l27.516,27.516c0.495,0.493,1.145,0.741,1.794,0.741s1.298-0.246,1.792-0.74
								l1.574-1.574c0.195-0.195,0.195-0.512,0-0.707c-0.001-0.001-0.002-0.001-0.003-0.002l-3.294-3.294l22.477-22.478
								c0.194-0.195,0.194-0.512,0-0.707l-26.746-26.745C204.822-22.95,204.506-22.95,204.311-22.755z M210.303,32.045
								c-0.598,0.597-1.572,0.598-2.172-0.002L180.615,4.528c-0.289-0.289-0.448-0.675-0.448-1.087s0.158-0.797,0.446-1.085
								l1.221-1.22l26.391,26.392c0,0,0,0,0.001,0l3.297,3.297L210.303,32.045z M208.579,26.467L182.541,0.428l22.124-22.122
								l26.037,26.037L208.579,26.467z"/>
							<path fill="#FFFFFF" d="M111.623,16.614c-2.786,2.786-4.321,6.491-4.321,10.431c0,3.941,1.534,7.646,4.321,10.432
								c2.679,2.678,6.21,4.184,9.979,4.298v1.96c-0.044,0.075-0.076,0.157-0.076,0.249c0,0.093,0.032,0.175,0.076,0.25v2.011
								c0,0.277,0.225,0.5,0.5,0.5c0.276,0,0.5-0.223,0.5-0.5v-1.788c4.321-0.139,8.368-1.825,11.511-4.799l3.041,3.04l-4.474,4.475
								c-0.195,0.195-0.195,0.512,0,0.707c0.098,0.097,0.225,0.146,0.354,0.146c0.128,0,0.256-0.048,0.354-0.146l4.647-4.65
								c0.086-0.021,0.169-0.057,0.235-0.123c0.066-0.067,0.102-0.149,0.123-0.235l4.647-4.65c0.194-0.195,0.194-0.512,0-0.707
								c-0.194-0.195-0.513-0.195-0.707,0l-4.474,4.475l-3.041-3.039c3.1-3.283,4.814-7.544,4.813-12.077
								c0-9.515-7.589-17.27-17.03-17.578V7.688c0-0.276-0.224-0.5-0.5-0.5c-0.275,0-0.5,0.224-0.5,0.5v1.829
								c-0.044,0.075-0.076,0.157-0.076,0.25s0.032,0.175,0.076,0.25v2.299C117.831,12.429,114.301,13.935,111.623,16.614z
								 M108.302,27.044c0-3.674,1.431-7.127,4.028-9.724c2.597-2.597,6.05-4.028,9.725-4.028c3.674,0,7.127,1.431,9.725,4.028
								c5.363,5.361,5.363,14.085,0,19.449c-2.553,2.552-5.935,3.969-9.535,4.018c-0.046-0.014-0.092-0.029-0.143-0.029
								c-0.057,0-0.109,0.015-0.16,0.033c-3.631-0.029-7.042-1.45-9.611-4.021C109.732,34.171,108.302,30.718,108.302,27.044z
								 M138.632,26.873c0.001,4.438-1.726,8.609-4.862,11.746c-3.001,3.001-6.949,4.693-11.168,4.837v-1.686
								c3.733-0.136,7.227-1.637,9.885-4.293c2.787-2.786,4.32-6.492,4.32-10.432c0.002-3.941-1.533-7.646-4.32-10.431
								c-2.656-2.656-6.15-4.159-9.885-4.294v-2.024C131.49,10.603,138.632,17.91,138.632,26.873z"/>
							<path fill="#FFFFFF" d="M107.768,3.996c-0.002-0.002-0.002-0.004-0.004-0.006L81.018-22.755
								c-0.194-0.195-0.512-0.195-0.707,0L57.48,0.074c-0.001,0.001-0.001,0.002-0.002,0.003l-1.572,1.572
								c-0.988,0.988-0.987,2.597,0.002,3.586l26.217,26.217l0,0l0.913,0.914c0.001,0.001,0.002,0.001,0.003,0.002l0.383,0.383
								c0.495,0.493,1.145,0.741,1.794,0.741s1.298-0.246,1.792-0.74l1.574-1.574l22.828-22.831c0.195-0.195,0.195-0.512,0-0.707
								L107.768,3.996z M80.665-21.694l26.037,26.037l-0.331,0.332l-15.4,15.4l-6.393,6.392L58.541,0.428L80.665-21.694z
								 M56.167,3.441c0-0.412,0.158-0.797,0.446-1.085l1.221-1.22l26.038,26.038l-1.221,1.22c-0.412,0.414-0.686,0.883-0.825,1.344
								l-25.21-25.21C56.326,4.239,56.167,3.853,56.167,3.441z M86.303,32.045c-0.598,0.597-1.572,0.598-2.172-0.002l-0.386-0.386
								l0,0l-0.912-0.912c-0.263-0.264-0.095-1.023,0.524-1.645l1.22-1.219l2.945,2.945L86.303,32.045z M88.23,30.117l-2.943-2.942
								L107.41,5.051l2.941,2.942L88.23,30.117z"/>
							<path fill="#FFFFFF" d="M79.87-12.201c-0.195-0.195-0.513-0.195-0.707,0L68.656-1.694c-0.195,0.195-0.195,0.512,0,0.707
								c0.098,0.097,0.226,0.146,0.354,0.146c0.129,0,0.256-0.049,0.354-0.147L79.87-11.494
								C80.064-11.689,80.064-12.006,79.87-12.201z"/>
							<path fill="#FFFFFF" d="M83.532-8.542c-0.195-0.195-0.513-0.195-0.707,0L72.318,1.968c-0.194,0.195-0.194,0.512,0,0.707
								c0.099,0.097,0.227,0.146,0.354,0.146s0.257-0.049,0.353-0.147L83.532-7.835C83.727-8.03,83.727-8.347,83.532-8.542z"/>
							<path fill="#FFFFFF" d="M95.264-34.436c0,0.133,0.053,0.26,0.146,0.354l19.338,19.337c0.098,0.097,0.227,0.146,0.354,0.146
								s0.256-0.049,0.354-0.147l6.93-6.929l2.098,6.534l-3.422,3.421c-0.195,0.195-0.195,0.512,0,0.707
								c0.098,0.097,0.226,0.146,0.354,0.146s0.256-0.049,0.354-0.146l3.059-3.058l2.007,6.25c0.067,0.212,0.265,0.347,0.476,0.347
								c0.051,0,0.103-0.008,0.153-0.024c0.263-0.085,0.407-0.366,0.322-0.629l-2.164-6.739l25.396-25.394l6.737,2.166
								c0.05,0.016,0.103,0.024,0.153,0.024c0.212,0,0.408-0.135,0.476-0.347c0.085-0.263-0.059-0.545-0.321-0.629l-6.25-2.008
								l2.414-2.414c0.194-0.195,0.194-0.512,0-0.707c-0.195-0.195-0.513-0.195-0.707,0l-2.776,2.776l-6.534-2.1l7.844-7.844
								c0.094-0.094,0.146-0.221,0.146-0.354c0-0.133-0.053-0.26-0.146-0.354l-19.336-19.336c-0.195-0.195-0.512-0.195-0.707,0
								L95.41-34.79C95.316-34.696,95.264-34.569,95.264-34.436z M149.945-40.603l-24.669,24.667l-2.098-6.534l20.233-20.233
								L149.945-40.603z M142.897-43.602c-0.001,0.001-0.002,0.002-0.004,0.004l-20.609,20.609
								c-0.001,0.001-0.002,0.002-0.003,0.002l-7.18,7.18l-1.59-1.589l35.892-35.888l1.588,1.588L142.897-43.602z M132.361-70.324
								l16.335,16.334l-35.892,35.888L96.471-34.435L132.361-70.324z"/>
							<path fill="#FFFFFF" d="M153.972-16.449c-3.138-1.956-6.08-3.077-8.347-3.077c-1.294,0-2.314,0.366-3.036,1.087
								c-1.941,1.942-1.167,6.06,1.63,10.782c-4.662,2.894-7.252,6.187-6.428,8.807c0.717,2.278,3.891,3.585,8.704,3.585
								c0.313,0,0.639-0.013,0.963-0.024c-0.027,0.827-0.03,1.633,0.015,2.394c0.236,4.045,1.495,6.627,3.543,7.271
								c0.325,0.102,0.666,0.154,1.018,0.154c2.481,0,5.353-2.577,7.895-6.737c2.678,1.507,5.163,2.36,7.135,2.36
								c1.293,0,2.314-0.365,3.035-1.086c1.518-1.518,1.439-4.39-0.22-8.086c-0.395-0.878-0.869-1.782-1.412-2.699
								c0.905-0.562,1.742-1.143,2.498-1.739c3.181-2.51,4.578-5.02,3.933-7.068c-0.713-2.265-3.853-3.568-8.619-3.583
								c-0.021-4.604-1.244-7.887-3.586-8.624c-0.325-0.101-0.666-0.153-1.017-0.153C159.256-22.885,156.467-20.43,153.972-16.449z
								 M143.297-17.732c0.526-0.527,1.311-0.794,2.329-0.794c2.066,0,4.844,1.084,7.82,2.94c-0.8,1.369-1.56,2.895-2.262,4.545
								c-2.255,0.859-4.309,1.828-6.096,2.863C142.557-12.442,141.714-16.147,143.297-17.732z M161.086-9.429
								c1.146,1.147,2.205,2.327,3.179,3.513c-0.279,1.229-0.613,2.484-1.012,3.75c-0.257,0.816-0.537,1.609-0.828,2.389
								c-1.301,0.541-2.658,1.043-4.069,1.487c-1.281,0.403-2.566,0.743-3.836,1.031c-0.985-0.834-1.964-1.729-2.918-2.684
								c-0.773-0.774-1.501-1.562-2.192-2.353c0.29-1.282,0.636-2.584,1.048-3.895c0.445-1.415,0.951-2.773,1.494-4.069
								c0.776-0.29,1.565-0.57,2.381-0.826c1.28-0.403,2.564-0.743,3.834-1.03C159.151-11.28,160.131-10.384,161.086-9.429z
								 M159.396-12.377c2.048-0.404,4.027-0.646,5.848-0.709c-0.063,1.817-0.298,3.816-0.715,5.923
								c-0.854-1.005-1.766-2-2.737-2.972C161.003-10.924,160.202-11.67,159.396-12.377z M165.056-4.926
								c0.742,0.96,1.417,1.919,2.02,2.868c-1.053,0.609-2.183,1.191-3.386,1.735c0.178-0.507,0.351-1.02,0.516-1.543
								C164.531-2.901,164.807-3.92,165.056-4.926z M161.926,1.504c-0.724,1.777-1.523,3.429-2.366,4.904
								c-1.327-0.806-2.695-1.768-4.063-2.864c1.049-0.256,2.105-0.55,3.158-0.881C159.776,2.31,160.867,1.919,161.926,1.504z
								 M153.288,3.003c-1.653,0.327-3.26,0.545-4.777,0.652c0.104-1.504,0.315-3.093,0.639-4.734
								c0.559,0.617,1.135,1.232,1.745,1.843C151.683,1.552,152.483,2.297,153.288,3.003z M148.605-3.244
								c-1.135-1.371-2.134-2.739-2.979-4.069c1.505-0.87,3.194-1.699,5.029-2.446c-0.41,1.049-0.798,2.14-1.153,3.27
								C149.16-5.401,148.865-4.317,148.605-3.244z M154.031-12.039c-0.52,0.164-1.024,0.338-1.527,0.514
								c0.569-1.251,1.172-2.433,1.799-3.508c0.953,0.634,1.919,1.34,2.887,2.114C156.141-12.664,155.083-12.37,154.031-12.039z
								 M146.495,3.736c-4.284,0-7.183-1.079-7.751-2.885c-0.672-2.138,1.789-5.034,6.006-7.645c0.99,1.561,2.187,3.172,3.575,4.787
								c-0.425,1.985-0.704,3.912-0.822,5.718C147.163,3.723,146.823,3.736,146.495,3.736z M152.033,13.529
								c-0.248,0-0.489-0.036-0.717-0.108c-1.601-0.502-2.637-2.826-2.844-6.375c-0.045-0.757-0.042-1.561-0.013-2.386
								c1.828-0.122,3.782-0.402,5.788-0.834c1.612,1.341,3.229,2.499,4.796,3.449C156.708,11.089,154.124,13.529,152.033,13.529z
								 M168.966,1.39c1.457,3.243,1.612,5.783,0.425,6.97c-0.525,0.526-1.309,0.793-2.328,0.793c-1.786,0-4.105-0.813-6.624-2.23
								c1.003-1.759,1.942-3.761,2.775-5.95c1.572-0.672,3.045-1.405,4.391-2.185C168.128-0.327,168.586,0.544,168.966,1.39z
								 M173.943-10.223c0.504,1.6-0.809,3.781-3.598,5.983c-0.728,0.574-1.536,1.135-2.409,1.677
								c-0.758-1.195-1.621-2.404-2.588-3.609c0.543-2.484,0.845-4.828,0.91-6.935C170.508-13.096,173.378-12.021,173.943-10.223z
								 M161.676-21.886c0.248,0,0.488,0.036,0.717,0.107c1.898,0.597,2.868,3.568,2.871,7.692c-2.113,0.07-4.435,0.373-6.827,0.887
								c-1.208-1.004-2.417-1.904-3.607-2.694C157.122-19.558,159.635-21.886,161.676-21.886z"/>
							<path fill="#FFFFFF" d="M155.049-2.678c0.497,0.499,1.159,0.773,1.864,0.773s1.369-0.275,1.87-0.775
								c1.027-1.03,1.029-2.706,0.002-3.736c-1.001-0.997-2.742-0.995-3.735,0.001c-0.5,0.497-0.774,1.159-0.776,1.865
								C154.273-3.843,154.548-3.178,155.049-2.678z M155.756-5.707c0.311-0.31,0.723-0.481,1.161-0.481s0.851,0.17,1.161,0.48
								c0.638,0.64,0.637,1.682-0.002,2.322c-0.623,0.621-1.703,0.622-2.32,0.002c-0.311-0.312-0.482-0.726-0.482-1.165
								C155.275-4.986,155.445-5.397,155.756-5.707z"/>
							<path fill="#FFFFFF" d="M175.843-26.875l11.019,11.02l11.02-11.02l0,0l10.389-10.389l-11.018-11.02l-0.078,0.079
								l-10.311-10.311l-11.021,11.018l0.001,0l-10.311,10.312L175.843-26.875L175.843-26.875z M186.861-17.27l-9.603-9.604
								l9.604-9.603l9.604,9.603L186.861-17.27z M197.252-27.659l-9.604-9.604l9.604-9.605l9.604,9.605L197.252-27.659z
								 M186.863-57.102l9.604,9.604l-9.604,9.605l-9.605-9.605L186.863-57.102z M166.947-37.185l9.604-9.605l4.806,4.806
								l4.798,4.798l-9.604,9.604L166.947-37.185z"/>
							
								<rect x="186.361" y="-50.408" transform="matrix(0.7071 0.7071 -0.7071 0.7071 21.1432 -146.0428)" fill="#FFFFFF" width="1" height="5.818"/>
							<polygon fill="#FFFFFF" points="178.96,-38.889 178.253,-39.596 176.549,-37.893 174.844,-39.598 174.137,-38.891 
								175.842,-37.186 174.14,-35.483 174.847,-34.776 176.549,-36.479 178.252,-34.775 178.959,-35.482 177.256,-37.186 							
								"/>
							<polygon fill="#FFFFFF" points="187.361,-29.785 186.361,-29.785 186.361,-27.375 183.953,-27.375 183.953,-26.375 
								186.361,-26.375 186.361,-23.965 187.361,-23.965 187.361,-26.375 189.771,-26.375 189.771,-27.375 187.361,-27.375 							
								"/>
							<path fill="#FFFFFF" d="M75.367-72.165l4.488,1.076l5.865,5.867l2.408,15.75c0.003,0.123,0.096,3.017,2.9,4.121
								c0.592,0.233,1.152,0.328,1.666,0.328c1.451,0,2.543-0.749,2.994-1.264l16.097-16.096c0.085-0.075,2.071-1.862,0.959-4.684
								c-1.104-2.81-4.024-2.913-4.058-2.895l-15.812-2.411l-4.426-4.426c-0.001-0.001-0.001-0.002-0.002-0.003
								s-0.002-0.001-0.003-0.002l-1.436-1.436l-1.075-4.49c-0.043-0.176-0.178-0.315-0.352-0.364c-0.174-0.049-0.361,0-0.489,0.127
								l-9.963,9.961c-0.128,0.128-0.177,0.315-0.128,0.489C75.052-72.341,75.189-72.207,75.367-72.165z M85.167-81.624l0.901,3.759
								c0.021,0.09,0.068,0.172,0.133,0.237l1.183,1.183l-1.907,1.909c-0.195,0.195-0.195,0.512,0,0.707
								c0.098,0.097,0.226,0.146,0.354,0.146s0.256-0.049,0.354-0.146l1.907-1.909l2.955,2.955l-1.907,1.91
								c-0.195,0.195-0.195,0.512,0,0.707c0.098,0.097,0.225,0.146,0.354,0.146c0.128,0,0.256-0.049,0.354-0.146l1.907-1.91
								l0.53,0.531c0.074,0.076,0.173,0.125,0.277,0.141l3.849,0.586l-1.986,1.986c-0.194,0.195-0.194,0.512,0,0.707
								c0.099,0.097,0.226,0.146,0.354,0.146c0.127,0,0.256-0.049,0.353-0.146l2.507-2.506l5.132,0.781l-2.079,2.079
								c-0.195,0.195-0.195,0.512,0,0.707c0.098,0.097,0.226,0.146,0.354,0.146s0.256-0.049,0.354-0.146l2.599-2.6l4.603,0.701
								c0.098,0.002,2.36,0.091,3.217,2.267c0.849,2.154-0.629,3.511-0.713,3.588l-7.645,7.642
								c-0.003,0.003-0.006,0.005-0.009,0.008l-0.816,0.816c-0.002,0.002-0.005,0.005-0.007,0.007l-7.666,7.667
								c-0.014,0.015-1.391,1.545-3.564,0.688c-2.174-0.854-2.263-3.117-2.271-3.276l-2.439-15.977
								c-0.016-0.105-0.065-0.203-0.141-0.278l-6.08-6.082c-0.064-0.066-0.146-0.112-0.236-0.133l-3.759-0.901L85.167-81.624z"/>
							<path fill="#FFFFFF" d="M167.337-67.352c-0.016,0.108-0.008,0.219,0.05,0.316l3.731,6.469c0.089,0.155,0.254,0.25,0.433,0.25
								c0.178,0,0.344-0.095,0.434-0.25l3.736-6.471c0.057-0.098,0.064-0.208,0.05-0.316c0.006-0.032,0.019-0.061,0.019-0.094
								l-0.002-10.811c0-0.276-0.225-0.5-0.5-0.5c-0.276,0-0.5,0.224-0.5,0.5l0.002,10.311l-6.471,0.002l-0.002-10.314
								c0-0.276-0.225-0.5-0.5-0.5c-0.276,0-0.5,0.224-0.5,0.5l0.002,10.814C167.318-67.413,167.331-67.383,167.337-67.352z
								 M172.327-63.161c-0.011-0.001-0.02-0.008-0.03-0.008h-1.526l-2.087-3.616l5.737-0.002L172.327-63.161z"/>
							<path fill="#FFFFFF" d="M205.018,101.246c-0.195-0.195-0.512-0.195-0.707,0l-22.83,22.828l-1.574,1.574
								c-0.988,0.988-0.987,2.598,0.002,3.586l27.516,27.517c0.495,0.493,1.145,0.741,1.794,0.741s1.298-0.246,1.792-0.74
								l1.574-1.574c0.195-0.195,0.195-0.512,0-0.707c-0.001-0.001-0.002-0.001-0.003-0.002l-3.296-3.295l22.477-22.477
								c0.195-0.195,0.195-0.512,0-0.707L205.018,101.246z M210.303,156.045c-0.598,0.598-1.572,0.598-2.172-0.002l-27.516-27.516
								c-0.289-0.289-0.448-0.676-0.448-1.086c0-0.412,0.158-0.797,0.446-1.086l1.221-1.221l26.391,26.393
								c0.001,0.001,0.002,0.001,0.003,0.002l3.296,3.295L210.303,156.045z M208.579,150.467l-26.038-26.039l22.124-22.121
								l26.037,26.037L208.579,150.467z"/>
							<path fill="#FFFFFF" d="M142.333,161.514l-4.474,4.476l-3.041-3.039c3.1-3.282,4.814-7.543,4.813-12.077
								c0-9.515-7.589-17.271-17.03-17.578v-1.607c0-0.274-0.224-0.5-0.5-0.5c-0.275,0-0.5,0.226-0.5,0.5v1.829
								c-0.044,0.075-0.076,0.157-0.076,0.249c0,0.094,0.032,0.176,0.076,0.25v2.3c-3.771,0.113-7.301,1.619-9.979,4.298
								c-2.786,2.785-4.321,6.49-4.321,10.432s1.534,7.646,4.321,10.432c2.679,2.68,6.21,4.185,9.979,4.298v1.961
								c-0.044,0.074-0.076,0.156-0.076,0.249s0.032,0.175,0.076,0.25v2.01c0,0.277,0.225,0.5,0.5,0.5c0.276,0,0.5-0.223,0.5-0.5
								v-1.788c4.322-0.139,8.368-1.824,11.511-4.799l3.041,3.039l-4.474,4.476c-0.195,0.195-0.195,0.512,0,0.707
								c0.098,0.098,0.225,0.146,0.354,0.146c0.128,0,0.256-0.049,0.354-0.146l4.647-4.65c0.086-0.021,0.168-0.056,0.235-0.123
								c0.066-0.066,0.102-0.149,0.123-0.234l4.647-4.65c0.194-0.195,0.194-0.512,0-0.707S142.527,161.318,142.333,161.514z
								 M108.302,151.045c0-3.674,1.431-7.127,4.028-9.725c2.597-2.598,6.05-4.027,9.725-4.027c3.674,0,7.127,1.43,9.725,4.027
								c5.363,5.361,5.363,14.087,0,19.449c-2.552,2.552-5.932,3.969-9.531,4.018c-0.047-0.015-0.095-0.029-0.146-0.029
								c-0.059,0-0.112,0.015-0.164,0.033c-3.63-0.03-7.039-1.451-9.607-4.021C109.732,158.172,108.302,154.719,108.302,151.045z
								 M122.602,165.771c3.733-0.136,7.227-1.637,9.885-4.294c2.787-2.785,4.32-6.492,4.32-10.432
								c0.002-3.941-1.533-7.646-4.32-10.432c-2.656-2.656-6.15-4.158-9.885-4.294v-2.024c8.889,0.308,16.03,7.616,16.03,16.578
								c0.001,4.438-1.726,8.609-4.862,11.746c-3.001,3.001-6.949,4.693-11.168,4.837V165.771z"/>
							<path fill="#FFFFFF" d="M79.87,111.799c-0.195-0.195-0.513-0.195-0.707,0l-10.507,10.506c-0.195,0.195-0.195,0.512,0,0.707
								c0.098,0.098,0.226,0.146,0.354,0.146c0.129,0,0.256-0.049,0.354-0.146l10.507-10.506
								C80.064,112.311,80.064,111.994,79.87,111.799z"/>
							<path fill="#FFFFFF" d="M83.532,116.166c0.194-0.195,0.194-0.512,0-0.707c-0.195-0.195-0.513-0.195-0.707,0l-10.507,10.508
								c-0.194,0.195-0.194,0.512,0,0.707c0.099,0.098,0.227,0.146,0.354,0.146s0.257-0.049,0.353-0.146L83.532,116.166z"/>
							<path fill="#FFFFFF" d="M108.688,178.039l-15.812-2.41l-4.422-4.422c-0.002-0.003-0.003-0.007-0.006-0.01
								s-0.007-0.004-0.01-0.006l-1.429-1.43l-1.075-4.488c-0.043-0.176-0.178-0.315-0.352-0.364c-0.174-0.05-0.361,0-0.489,0.127
								l-9.963,9.961c-0.128,0.129-0.177,0.315-0.128,0.489c0.05,0.175,0.188,0.309,0.365,0.351l4.488,1.076l5.865,5.867
								l2.408,15.75c0.003,0.122,0.096,3.016,2.9,4.12c0.592,0.232,1.152,0.326,1.666,0.326c1.451,0,2.543-0.748,2.994-1.263
								l16.097-16.094c0.085-0.076,2.071-1.864,0.959-4.685C111.641,178.125,108.721,178.038,108.688,178.039z M111.102,184.889
								l-7.645,7.643c-0.003,0.003-0.006,0.006-0.009,0.008l-0.816,0.816c-0.002,0.002-0.005,0.006-0.007,0.008l-7.666,7.666
								c-0.014,0.016-1.391,1.546-3.564,0.688c-2.174-0.854-2.263-3.116-2.271-3.276l-2.439-15.977
								c-0.016-0.104-0.065-0.201-0.141-0.277l-6.08-6.082c-0.064-0.065-0.146-0.112-0.236-0.133l-3.759-0.9l8.699-8.699
								l0.901,3.759c0.021,0.091,0.068,0.173,0.133,0.236l1.185,1.185l-1.909,1.91c-0.195,0.195-0.195,0.514,0,0.707
								c0.098,0.098,0.226,0.146,0.354,0.146s0.256-0.049,0.354-0.146l1.909-1.91l2.955,2.955l-1.909,1.911
								c-0.195,0.194-0.195,0.513,0,0.707c0.098,0.097,0.225,0.146,0.354,0.146c0.128,0,0.256-0.049,0.354-0.146l1.909-1.911
								l0.528,0.528c0.074,0.077,0.173,0.125,0.277,0.141l3.852,0.587l-1.989,1.989c-0.194,0.194-0.194,0.513,0,0.707
								c0.099,0.097,0.226,0.146,0.354,0.146c0.127,0,0.256-0.049,0.353-0.146l2.51-2.51l5.131,0.781l-2.081,2.081
								c-0.195,0.195-0.195,0.513,0,0.707c0.098,0.098,0.226,0.146,0.354,0.146s0.256-0.049,0.354-0.146l2.602-2.602l4.6,0.7
								c0.098,0.003,2.36,0.092,3.217,2.268C112.663,183.454,111.186,184.812,111.102,184.889z"/>
							<path fill="#FFFFFF" d="M190.729,159.18c-0.094-0.094-0.221-0.146-0.354-0.146l-14.587,0.004l0.001-7.852
								c0-0.005-0.003-0.009-0.003-0.014l-0.002-2.35c-0.106-0.729-0.696-2.105-2.175-2.105l-3.877-0.004v0.004h-0.233
								c-0.002,0-0.004,0-0.006,0c-1.478,0-2.067,1.377-2.177,2.178l0.002,2.961l-0.001,7.18h-14.71
								c-0.133,0-0.262,0.052-0.354,0.146c-0.093,0.094-0.146,0.221-0.146,0.354l0.002,10.209c0,0.277,0.224,0.5,0.5,0.5
								l14.707-0.002l0.002,10.312c0,0.032,0.013,0.062,0.019,0.094c-0.016,0.108-0.008,0.219,0.05,0.316l3.731,6.469
								c0.089,0.155,0.254,0.25,0.433,0.25c0.178,0,0.344-0.095,0.434-0.25l3.736-6.471c0.057-0.098,0.064-0.208,0.05-0.316
								c0.006-0.031,0.019-0.061,0.019-0.094l-0.002-10.311l14.59,0.002c0.133,0,0.262-0.053,0.354-0.146
								c0.094-0.094,0.146-0.221,0.146-0.354l-0.002-10.211C190.875,159.4,190.823,159.271,190.729,159.18z M168.318,151.954v-0.267
								l6.469-0.002v0.277h0.002l-0.002,17.779l0.002,10.311l-6.471,0.002l-0.002-10.293c0-0.007,0.004-0.013,0.004-0.02
								s-0.004-0.013-0.004-0.02l0.001-10.164c0.001-0.008,0.005-0.015,0.005-0.023c0-0.008-0.004-0.016-0.005-0.023l0.001-7.547
								l0,0V151.954z M169.495,147.717c0.001,0,0.002,0,0.003,0h3.875l0,0h0.236c0.972,0,1.174,1.176,1.18,1.176l-0.001,1.793
								l-6.473,0.002l-0.005-1.721C168.318,148.916,168.516,147.717,169.495,147.717z M153.107,160.035h2v5.422h1v-5.422h2.19v2.917
								h1v-2.917h2.188v5.422h1v-5.422h2.187v2.919h1v-2.919h1.645l-0.001,9.207l-14.207,0.002L153.107,160.035z M172.327,184.838
								c-0.011,0-0.02-0.008-0.03-0.008h-1.527l-2.086-3.615l5.737-0.002L172.327,184.838z M175.787,169.242l0.001-9.205l1.64-0.001
								v2.915h1v-2.915h2.188v5.421h1v-5.422h2.188v2.921h1v-2.922h2.189v5.425h1v-5.426h1.881l0.002,9.211L175.787,169.242z"/>
							<path fill="#FFFFFF" d="M157.753,85.907c0.05,0.015,0.103,0.022,0.153,0.022c0.212,0,0.408-0.135,0.476-0.346
								c0.085-0.264-0.059-0.544-0.321-0.629l-6.25-2.009l2.414-2.414c0.194-0.195,0.194-0.513,0-0.707
								c-0.195-0.195-0.513-0.195-0.707,0l-2.777,2.777l-6.534-2.1l7.845-7.845c0.094-0.094,0.146-0.221,0.146-0.354
								c0-0.134-0.053-0.261-0.146-0.354l-19.336-19.336c-0.195-0.195-0.512-0.195-0.707,0L95.41,89.21
								c-0.094,0.095-0.146,0.222-0.146,0.354s0.053,0.26,0.146,0.354l17.039,17.038c0.001,0,0.001,0.001,0.002,0.002
								s0.002,0.001,0.002,0.001l2.295,2.295c0.098,0.098,0.227,0.146,0.354,0.146s0.256-0.049,0.354-0.146l6.93-6.93l2.098,6.533
								l-3.422,3.422c-0.195,0.195-0.195,0.513,0,0.707c0.098,0.098,0.226,0.146,0.354,0.146s0.256-0.049,0.354-0.146l3.059-3.059
								l2.007,6.25c0.067,0.213,0.265,0.348,0.476,0.348c0.051,0,0.103-0.008,0.153-0.024c0.263-0.084,0.407-0.366,0.322-0.629
								l-2.163-6.738l25.394-25.393L157.753,85.907z M132.361,53.675l16.335,16.335l-35.892,35.888L96.471,89.564L132.361,53.675z
								 M115.102,108.193l-1.59-1.589l35.891-35.888l1.589,1.588l-28.706,28.705c-0.002,0.002-0.004,0.004-0.006,0.006
								L115.102,108.193z M125.277,108.063l-2.098-6.534l20.231-20.231l6.534,2.1L125.277,108.063z"/>
							<path fill="#FFFFFF" d="M159.928,131.793c2.679,1.507,5.163,2.359,7.135,2.359c1.293,0,2.314-0.364,3.035-1.086
								c1.518-1.519,1.439-4.391-0.22-8.086c-0.395-0.879-0.868-1.782-1.412-2.698c0.905-0.562,1.742-1.144,2.498-1.739
								c3.181-2.509,4.578-5.02,3.933-7.066c-0.713-2.265-3.853-3.568-8.619-3.584c-0.021-4.604-1.243-7.888-3.586-8.625
								c-0.325-0.102-0.666-0.153-1.017-0.153c-2.419,0-5.209,2.456-7.704,6.437c-3.137-1.955-6.08-3.076-8.346-3.076
								c-1.294,0-2.314,0.364-3.036,1.086c-1.941,1.941-1.167,6.06,1.63,10.782c-4.662,2.895-7.252,6.188-6.428,8.808
								c0.717,2.277,3.891,3.584,8.704,3.584c0.313,0,0.639-0.013,0.963-0.023c-0.027,0.827-0.03,1.633,0.015,2.395
								c0.236,4.045,1.495,6.627,3.543,7.271c0.325,0.103,0.666,0.153,1.018,0.153C154.515,138.529,157.386,135.953,159.928,131.793
								z M168.966,125.391c1.457,3.242,1.612,5.783,0.425,6.969c-0.525,0.527-1.309,0.795-2.328,0.795
								c-1.786,0-4.105-0.813-6.625-2.231c1.004-1.759,1.943-3.761,2.775-5.95c1.573-0.672,3.046-1.404,4.391-2.185
								C168.128,123.673,168.586,124.544,168.966,125.391z M151.602,124.057c-0.773-0.773-1.501-1.562-2.192-2.353
								c0.29-1.281,0.636-2.584,1.048-3.894c0.445-1.415,0.951-2.773,1.494-4.069c0.776-0.289,1.565-0.569,2.381-0.826
								c1.281-0.403,2.565-0.742,3.835-1.03c0.985,0.835,1.964,1.73,2.919,2.686c1.146,1.147,2.205,2.327,3.179,3.514
								c-0.279,1.229-0.613,2.483-1.012,3.75c-0.257,0.816-0.537,1.609-0.829,2.389c-1.3,0.541-2.658,1.043-4.068,1.487
								c-1.281,0.403-2.566,0.743-3.836,1.03C153.534,125.906,152.556,125.011,151.602,124.057z M153.289,127.003
								c-1.653,0.327-3.261,0.546-4.778,0.652c0.104-1.505,0.315-3.094,0.64-4.735c0.558,0.617,1.134,1.233,1.744,1.844
								C151.683,125.552,152.483,126.297,153.289,127.003z M148.604,120.756c-1.134-1.37-2.133-2.738-2.978-4.068
								c1.505-0.869,3.193-1.698,5.029-2.445c-0.41,1.049-0.798,2.138-1.153,3.268C149.16,118.599,148.865,119.683,148.604,120.756z
								 M152.504,112.475c0.569-1.251,1.172-2.433,1.799-3.508c0.953,0.634,1.92,1.34,2.887,2.114
								c-1.049,0.255-2.106,0.549-3.158,0.88C153.512,112.124,153.007,112.299,152.504,112.475z M159.397,111.623
								c2.048-0.404,4.026-0.646,5.847-0.709c-0.063,1.816-0.298,3.815-0.715,5.922c-0.854-1.005-1.766-2.001-2.737-2.973
								C161.004,113.075,160.202,112.33,159.397,111.623z M165.056,119.074c0.742,0.961,1.417,1.92,2.02,2.869
								c-1.054,0.608-2.183,1.19-3.386,1.735c0.177-0.508,0.351-1.021,0.516-1.545C164.531,121.098,164.807,120.079,165.056,119.074
								z M158.654,126.663c1.122-0.354,2.213-0.743,3.271-1.159c-0.724,1.777-1.523,3.43-2.366,4.904
								c-1.327-0.806-2.695-1.769-4.063-2.864C156.545,127.289,157.602,126.995,158.654,126.663z M173.943,113.777
								c0.504,1.6-0.809,3.781-3.598,5.982c-0.728,0.574-1.535,1.135-2.409,1.677c-0.757-1.195-1.621-2.405-2.588-3.609
								c0.543-2.483,0.844-4.827,0.91-6.935C170.507,110.904,173.378,111.979,173.943,113.777z M161.676,102.114
								c0.248,0,0.488,0.036,0.717,0.106c1.898,0.598,2.868,3.568,2.871,7.693c-2.113,0.069-4.435,0.372-6.826,0.886
								c-1.208-1.005-2.418-1.904-3.608-2.694C157.122,104.441,159.635,102.114,161.676,102.114z M143.297,106.268
								c0.526-0.525,1.311-0.793,2.329-0.793c2.066,0,4.843,1.084,7.819,2.939c-0.799,1.368-1.56,2.895-2.262,4.546
								c-2.254,0.858-4.308,1.828-6.095,2.862C142.557,111.558,141.714,107.853,143.297,106.268z M146.495,127.736
								c-4.284,0-7.183-1.079-7.751-2.885c-0.672-2.139,1.789-5.034,6.006-7.646c0.99,1.561,2.187,3.172,3.575,4.787
								c-0.425,1.985-0.704,3.912-0.822,5.718C147.163,127.724,146.823,127.736,146.495,127.736z M152.033,137.527
								c-0.248,0-0.489-0.034-0.717-0.106c-1.601-0.503-2.637-2.826-2.844-6.375c-0.045-0.757-0.042-1.561-0.012-2.387
								c1.827-0.121,3.782-0.402,5.787-0.833c1.613,1.341,3.23,2.498,4.796,3.448C156.708,135.089,154.124,137.528,152.033,137.527z
								"/>
							<path fill="#FFFFFF" d="M158.785,117.585c-1.001-0.996-2.742-0.994-3.735,0.002c-0.5,0.496-0.774,1.158-0.776,1.864
								c0,0.707,0.274,1.372,0.775,1.872c0.497,0.497,1.159,0.772,1.864,0.772s1.369-0.275,1.87-0.775
								C159.811,120.291,159.812,118.615,158.785,117.585z M158.076,120.613c-0.623,0.621-1.703,0.621-2.32,0.002
								c-0.311-0.311-0.482-0.725-0.482-1.164c0.002-0.438,0.172-0.848,0.482-1.158s0.723-0.48,1.161-0.48s0.851,0.17,1.161,0.479
								C158.716,118.932,158.715,119.973,158.076,120.613z"/>
							<path fill="#FFFFFF" d="M186.861,108.145l10.391-10.391l0.629-0.629l10.389-10.389l-11.018-11.021l-0.078,0.078
								l-10.311-10.312l-11.021,11.019l0.001,0.001l-10.311,10.312l10.311,10.311h-0.001L186.861,108.145z M186.861,106.73
								l-9.604-9.605l9.604-9.603l9.604,9.603L186.861,106.73z M197.252,96.34l-9.604-9.604l9.604-9.605l9.604,9.605L197.252,96.34z
								 M196.467,76.502l-9.604,9.605l-9.605-9.605l9.605-9.604L196.467,76.502z M166.947,86.814l9.604-9.605l9.604,9.604
								l-9.604,9.604L166.947,86.814z"/>
							
								<rect x="183.953" y="76" transform="matrix(-0.7071 0.7071 -0.7071 -0.7071 373.0859 -1.5372)" fill="#FFFFFF" width="5.817" height="1"/>
							<polygon fill="#FFFFFF" points="178.961,85.109 178.254,84.402 176.551,86.105 174.845,84.4 174.138,85.107 175.843,86.813 
								174.141,88.516 174.848,89.223 176.55,87.521 178.253,89.224 178.96,88.516 177.258,86.812 							"/>
							<polygon fill="#FFFFFF" points="187.361,94.215 186.361,94.215 186.361,96.625 183.953,96.625 183.953,97.625 
								186.361,97.625 186.361,100.035 187.361,100.035 187.361,97.625 189.771,97.625 189.771,96.625 187.361,96.625 							"/>
							<path fill="#FFFFFF" d="M108.688,54.039l-15.812-2.41l-4.42-4.42c-0.003-0.004-0.004-0.009-0.008-0.012
								s-0.009-0.004-0.012-0.008l-1.427-1.427l-1.075-4.489c-0.043-0.176-0.178-0.315-0.352-0.364c-0.174-0.05-0.361,0-0.489,0.127
								l-9.963,9.961c-0.128,0.129-0.177,0.315-0.128,0.49c0.05,0.174,0.188,0.308,0.365,0.35l4.488,1.076l5.865,5.867l2.408,15.75
								c0.003,0.123,0.096,3.017,2.9,4.121c0.592,0.232,1.152,0.326,1.666,0.326c1.451,0,2.543-0.748,2.994-1.264l16.097-16.093
								c0.085-0.076,2.071-1.864,0.959-4.685C111.641,54.125,108.721,54.014,108.688,54.039z M111.102,60.888l-7.645,7.643
								c-0.003,0.003-0.006,0.006-0.009,0.008l-0.816,0.816c-0.002,0.002-0.005,0.006-0.007,0.008l-7.666,7.666
								c-0.014,0.016-1.391,1.544-3.564,0.688c-2.174-0.854-2.263-3.116-2.271-3.276l-2.439-15.977
								c-0.016-0.104-0.065-0.202-0.141-0.278l-6.08-6.082c-0.064-0.065-0.146-0.112-0.236-0.133l-3.759-0.9l8.699-8.699
								l0.901,3.759c0.021,0.09,0.068,0.172,0.133,0.236l1.184,1.184l-1.908,1.911c-0.195,0.195-0.195,0.513,0,0.707
								c0.098,0.097,0.226,0.146,0.354,0.146s0.256-0.048,0.354-0.146l1.908-1.911l2.956,2.955l-1.909,1.912
								c-0.195,0.195-0.195,0.513,0,0.707c0.098,0.097,0.225,0.146,0.354,0.146c0.128,0,0.256-0.049,0.354-0.146l1.909-1.912
								l0.528,0.529c0.074,0.077,0.173,0.125,0.277,0.141l3.853,0.586l-1.99,1.99c-0.194,0.195-0.194,0.512,0,0.707
								c0.099,0.097,0.226,0.146,0.354,0.146c0.127,0,0.256-0.049,0.353-0.146l2.511-2.51l5.13,0.781l-2.081,2.082
								c-0.195,0.195-0.195,0.512,0,0.707c0.098,0.097,0.226,0.146,0.354,0.146s0.256-0.049,0.354-0.146l2.602-2.602l4.6,0.7
								c0.098,0.003,2.36,0.092,3.217,2.268C112.663,59.454,111.186,60.812,111.102,60.888z"/>
							<path fill="#FFFFFF" d="M167.318,56.555c0,0.032,0.013,0.062,0.019,0.094c-0.016,0.108-0.008,0.219,0.05,0.316l3.731,6.469
								c0.089,0.155,0.254,0.25,0.433,0.25c0.178,0,0.344-0.095,0.434-0.25l3.736-6.471c0.057-0.098,0.064-0.208,0.05-0.316
								c0.006-0.031,0.019-0.06,0.019-0.093l-0.002-10.311l14.59,0.002c0.133,0,0.262-0.052,0.354-0.146
								c0.094-0.094,0.146-0.221,0.146-0.354l-0.002-10.211c0-0.133-0.052-0.261-0.146-0.354c-0.094-0.093-0.221-0.146-0.354-0.146
								l-14.587,0.004l0.001-7.851c0-0.005-0.003-0.009-0.003-0.014l-0.002-2.352c-0.106-0.728-0.696-2.104-2.175-2.104
								l-3.877-0.004v0.005h-0.233c-0.002,0-0.004,0-0.006,0c-1.478,0-2.067,1.376-2.177,2.176l0.002,2.961l-0.001,7.18h-14.71
								c-0.133,0-0.262,0.052-0.354,0.146c-0.093,0.094-0.146,0.222-0.146,0.354l0.002,10.209c0,0.277,0.224,0.5,0.5,0.5
								l14.707-0.002L167.318,56.555z M168.318,27.955v-0.267l6.469-0.002v0.277h0.002l-0.002,17.779l0.002,10.311l-6.471,0.002
								l-0.002-10.293c0-0.007,0.004-0.013,0.004-0.02s-0.004-0.013-0.004-0.02l0.001-10.164c0.001-0.008,0.005-0.015,0.005-0.023
								s-0.004-0.015-0.005-0.023l0.001-7.546l0,0V27.955z M172.328,60.838c-0.012,0-0.021-0.008-0.031-0.008h-1.527l-2.086-3.615
								l5.737-0.002L172.328,60.838z M177.428,36.037v2.915h1v-2.915l2.188,0v5.421h1v-5.422l2.188,0v2.921h1v-2.921l2.189,0v5.425
								h1v-5.425l1.881,0l0.002,9.211l-14.09-0.002l0.001-9.205L177.428,36.037z M169.495,23.718c0.001,0,0.002,0,0.003,0h3.875
								v-0.001h0.236c0.972,0,1.174,1.176,1.18,1.176l-0.001,1.793l-6.473,0.002l-0.005-1.72
								C168.318,24.916,168.516,23.718,169.495,23.718z M153.107,36.035h2v5.422h1v-5.422h2.19v2.917h1v-2.917h2.188v5.422h1v-5.422
								h2.187v2.919h1v-2.919h1.645l-0.001,9.207l-14.207,0.002L153.107,36.035z"/>
							<path fill="#FFFFFF" d="M-12.377,16.614c-2.786,2.786-4.321,6.491-4.321,10.431c0,3.941,1.534,7.646,4.321,10.432
								c2.679,2.679,6.21,4.185,9.979,4.298v1.959c-0.044,0.075-0.077,0.157-0.077,0.25c0,0.094,0.033,0.176,0.077,0.251v2.009
								c0,0.277,0.224,0.5,0.5,0.5s0.5-0.223,0.5-0.5v-1.789c4.322-0.139,8.369-1.825,11.51-4.798l3.04,3.04l-4.473,4.475
								c-0.195,0.195-0.195,0.512,0,0.707c0.098,0.097,0.226,0.146,0.354,0.146c0.128,0,0.256-0.048,0.353-0.146l4.648-4.65
								c0.086-0.021,0.168-0.057,0.235-0.124c0.066-0.066,0.102-0.148,0.123-0.234l4.648-4.65c0.195-0.195,0.195-0.512,0-0.707
								c-0.195-0.195-0.512-0.195-0.707,0l-4.473,4.475l-3.042-3.04c3.1-3.283,4.814-7.543,4.813-12.076
								c0-9.514-7.589-17.27-17.03-17.578V7.688c0-0.276-0.224-0.5-0.5-0.5s-0.5,0.224-0.5,0.5v1.828
								c-0.044,0.075-0.077,0.157-0.077,0.25s0.033,0.176,0.077,0.25v2.298C-6.169,12.428-9.699,13.935-12.377,16.614z
								 M-15.698,27.044c0-3.674,1.43-7.127,4.028-9.724c2.597-2.597,6.05-4.028,9.724-4.028c3.674,0,7.128,1.431,9.726,4.028
								c5.362,5.361,5.362,14.085,0,19.449c-2.553,2.552-5.935,3.969-9.536,4.018c-0.046-0.014-0.092-0.029-0.142-0.029
								c-0.057,0-0.109,0.015-0.161,0.033c-3.631-0.029-7.042-1.45-9.611-4.021C-14.267,34.171-15.698,30.718-15.698,27.044z
								 M14.632,26.873c0.001,4.438-1.726,8.609-4.863,11.746c-3,3-6.948,4.693-11.167,4.837V41.77
								c3.733-0.136,7.227-1.637,9.885-4.293c2.786-2.786,4.32-6.492,4.32-10.432c0.001-3.941-1.534-7.646-4.32-10.431
								c-2.656-2.656-6.15-4.158-9.885-4.294v-2.024C7.491,10.603,14.632,17.911,14.632,26.873z"/>
							<path fill="#FFFFFF" d="M-16.235,3.993c-0.001-0.001-0.001-0.002-0.002-0.003l-26.745-26.745
								c-0.195-0.195-0.512-0.195-0.707,0L-66.52,0.074c-0.001,0.001-0.001,0.002-0.002,0.003l-1.572,1.572
								c-0.988,0.988-0.987,2.597,0.002,3.586l26.217,26.217l0,0l0.913,0.914c0.001,0.001,0.002,0.001,0.003,0.002l0.383,0.383
								c0.495,0.493,1.145,0.741,1.794,0.741c0.649,0,1.298-0.246,1.792-0.74l1.574-1.574c0.001-0.001,0.001-0.002,0.002-0.003
								l22.826-22.828c0.195-0.195,0.195-0.512,0-0.707L-16.235,3.993z M-43.335-21.694l26.037,26.037l-9.915,9.915l-12.209,12.208
								L-65.459,0.428L-43.335-21.694z M-67.833,3.441c0-0.412,0.158-0.797,0.446-1.085l1.221-1.22l26.037,26.038l-1.221,1.22
								c-0.412,0.414-0.685,0.883-0.824,1.344l-25.21-25.21C-67.674,4.239-67.833,3.853-67.833,3.441z M-37.697,32.045
								c-0.598,0.597-1.572,0.598-2.172-0.002l-0.386-0.386l0,0l-0.912-0.912c-0.263-0.264-0.094-1.023,0.525-1.645l1.219-1.219
								l2.945,2.945L-37.697,32.045z M-35.77,30.117l-2.943-2.943L-16.59,5.05l2.942,2.943L-35.77,30.117z"/>
							<path fill="#FFFFFF" d="M-44.13-12.201c-0.195-0.195-0.512-0.195-0.707,0L-55.344-1.694c-0.195,0.195-0.195,0.512,0,0.707
								c0.098,0.097,0.226,0.146,0.354,0.146c0.128,0,0.256-0.049,0.353-0.147l10.507-10.506
								C-43.935-11.689-43.935-12.006-44.13-12.201z"/>
							<path fill="#FFFFFF" d="M-40.468-8.541c-0.195-0.195-0.512-0.195-0.707,0L-51.681,1.968c-0.195,0.195-0.195,0.512,0,0.707
								c0.098,0.097,0.226,0.146,0.354,0.146s0.256-0.049,0.353-0.147l10.506-10.508C-40.273-8.029-40.273-8.346-40.468-8.541z"/>
							<path fill="#FFFFFF" d="M-28.736-34.436c0,0.133,0.052,0.26,0.146,0.354l19.338,19.337c0.098,0.097,0.226,0.146,0.354,0.146
								c0.127,0,0.255-0.049,0.353-0.147l6.93-6.929l2.098,6.533L-2.94-11.72c-0.195,0.195-0.195,0.512,0,0.707
								c0.098,0.097,0.226,0.146,0.354,0.146s0.256-0.049,0.354-0.146l3.058-3.058l2.007,6.25c0.068,0.212,0.264,0.347,0.476,0.347
								c0.05,0,0.102-0.008,0.153-0.024c0.262-0.085,0.407-0.366,0.322-0.629l-2.164-6.738l25.395-25.394l6.737,2.166
								c0.05,0.016,0.102,0.024,0.153,0.024c0.212,0,0.408-0.135,0.476-0.347c0.085-0.263-0.059-0.545-0.322-0.629l-6.25-2.009
								l2.414-2.413c0.195-0.195,0.195-0.512,0-0.707c-0.195-0.195-0.512-0.195-0.707,0l-2.777,2.776l-6.532-2.1l7.842-7.842
								c0.093-0.094,0.146-0.221,0.146-0.354c0-0.133-0.052-0.26-0.146-0.354L8.715-71.384c-0.195-0.195-0.512-0.195-0.707,0
								L-28.59-34.79C-28.683-34.696-28.736-34.569-28.736-34.436z M25.945-40.603L1.276-15.937l-2.098-6.533l20.234-20.233
								L25.945-40.603z M18.895-43.599C18.895-43.599,18.895-43.599,18.895-43.599L-1.716-22.988
								c-0.001,0.001-0.002,0.002-0.003,0.002l-7.179,7.18l-1.59-1.59l35.89-35.886l1.588,1.587L18.895-43.599z M8.361-70.324
								l16.334,16.335l-35.89,35.886l-16.334-16.332L8.361-70.324z"/>
							<path fill="#FFFFFF" d="M29.972-16.449c-3.138-1.955-6.081-3.077-8.347-3.077c-1.294,0-2.315,0.366-3.036,1.087
								c-1.941,1.942-1.167,6.06,1.63,10.782c-4.662,2.894-7.252,6.187-6.428,8.807c0.717,2.278,3.89,3.585,8.704,3.585
								c0.313,0,0.639-0.013,0.963-0.024c-0.027,0.827-0.029,1.633,0.015,2.394c0.236,4.045,1.495,6.627,3.542,7.271
								c0.326,0.102,0.667,0.154,1.018,0.154c2.481,0,5.353-2.577,7.894-6.737c2.679,1.507,5.164,2.36,7.135,2.36
								c1.293,0,2.315-0.365,3.035-1.086c1.518-1.518,1.44-4.39-0.219-8.086c-0.395-0.878-0.869-1.782-1.412-2.699
								c0.905-0.562,1.743-1.143,2.498-1.739c3.181-2.51,4.578-5.02,3.932-7.068c-0.711-2.265-3.853-3.568-8.619-3.583
								c-0.021-4.604-1.244-7.887-3.586-8.624c-0.325-0.101-0.666-0.153-1.016-0.153C35.256-22.885,32.467-20.43,29.972-16.449z
								 M19.297-17.732c0.526-0.527,1.31-0.794,2.329-0.794c2.066,0,4.844,1.084,7.82,2.94c-0.799,1.368-1.56,2.895-2.262,4.545
								c-2.254,0.859-4.308,1.828-6.095,2.863C18.557-12.442,17.713-16.148,19.297-17.732z M37.086-9.429
								c1.146,1.147,2.205,2.327,3.179,3.513c-0.279,1.229-0.613,2.484-1.012,3.75c-0.257,0.816-0.538,1.609-0.829,2.389
								c-1.301,0.541-2.659,1.043-4.069,1.487c-1.281,0.403-2.566,0.743-3.835,1.031c-0.985-0.834-1.963-1.729-2.917-2.684
								c-0.774-0.774-1.501-1.562-2.192-2.353c0.289-1.282,0.635-2.584,1.047-3.894c0.446-1.415,0.952-2.773,1.494-4.069
								c0.776-0.29,1.566-0.57,2.381-0.826c1.281-0.403,2.565-0.743,3.834-1.03C35.152-11.28,36.131-10.384,37.086-9.429z
								 M35.396-12.377c2.048-0.404,4.027-0.646,5.848-0.709c-0.064,1.817-0.298,3.816-0.715,5.923
								c-0.854-1.005-1.766-2-2.737-2.972C37.003-10.924,36.202-11.67,35.396-12.377z M41.056-4.926
								c0.742,0.96,1.417,1.919,2.02,2.868c-1.053,0.609-2.183,1.191-3.385,1.735c0.177-0.507,0.351-1.02,0.515-1.543
								C40.531-2.901,40.807-3.92,41.056-4.926z M37.926,1.504c-0.724,1.777-1.523,3.428-2.367,4.903
								c-1.326-0.806-2.695-1.768-4.063-2.863c1.049-0.256,2.106-0.55,3.159-0.881C35.777,2.31,36.868,1.919,37.926,1.504z
								 M29.288,3.003c-1.653,0.326-3.26,0.545-4.777,0.651c0.104-1.504,0.315-3.093,0.639-4.734
								c0.558,0.617,1.133,1.232,1.744,1.843C27.682,1.552,28.483,2.297,29.288,3.003z M24.605-3.244
								c-1.134-1.37-2.133-2.739-2.979-4.068c1.506-0.87,3.195-1.699,5.03-2.446c-0.411,1.049-0.798,2.14-1.154,3.27
								C25.16-5.401,24.865-4.317,24.605-3.244z M30.031-12.039c-0.52,0.164-1.024,0.338-1.527,0.513
								c0.57-1.25,1.172-2.432,1.799-3.507c0.953,0.633,1.919,1.34,2.887,2.114C32.14-12.664,31.083-12.37,30.031-12.039z
								 M22.495,3.736c-4.284,0-7.182-1.079-7.751-2.885c-0.672-2.138,1.789-5.034,6.006-7.645c0.99,1.561,2.187,3.172,3.576,4.788
								c-0.425,1.985-0.705,3.912-0.822,5.717C23.164,3.723,22.823,3.736,22.495,3.736z M28.033,13.529
								c-0.248,0-0.489-0.036-0.716-0.108c-1.601-0.502-2.637-2.826-2.845-6.375c-0.044-0.757-0.042-1.561-0.012-2.386
								c1.827-0.122,3.782-0.402,5.788-0.833c1.612,1.341,3.229,2.499,4.795,3.449C32.708,11.089,30.124,13.529,28.033,13.529z
								 M44.966,1.39c1.457,3.243,1.612,5.783,0.425,6.97c-0.526,0.526-1.309,0.793-2.328,0.793c-1.787,0-4.106-0.813-6.625-2.231
								c1.003-1.758,1.942-3.76,2.775-5.949c1.573-0.672,3.045-1.405,4.391-2.185C44.128-0.327,44.586,0.544,44.966,1.39z
								 M49.943-10.223c0.504,1.6-0.808,3.781-3.598,5.983c-0.728,0.574-1.536,1.135-2.409,1.676
								c-0.757-1.195-1.621-2.404-2.588-3.608c0.543-2.484,0.845-4.828,0.911-6.936C46.507-13.096,49.378-12.021,49.943-10.223z
								 M37.676-21.886c0.248,0,0.488,0.036,0.716,0.107c1.898,0.597,2.869,3.568,2.872,7.692c-2.114,0.07-4.436,0.373-6.828,0.887
								c-1.208-1.004-2.417-1.904-3.607-2.694C33.122-19.558,35.635-21.886,37.676-21.886z"/>
							<path fill="#FFFFFF" d="M31.049-2.678c0.497,0.499,1.159,0.773,1.864,0.773s1.369-0.275,1.87-0.775
								c1.028-1.03,1.029-2.706,0.002-3.736c-1.001-0.997-2.741-0.995-3.735,0.001c-0.5,0.497-0.775,1.159-0.776,1.865
								C30.274-3.843,30.548-3.178,31.049-2.678z M31.756-5.707c0.31-0.31,0.723-0.481,1.161-0.481s0.851,0.17,1.161,0.48
								c0.638,0.64,0.637,1.682-0.002,2.322c-0.622,0.621-1.702,0.622-2.32,0.002c-0.311-0.312-0.482-0.726-0.482-1.165
								C31.275-4.986,31.445-5.397,31.756-5.707z"/>
							<path fill="#FFFFFF" d="M51.843-26.875l11.019,11.02l10.705-10.706L84.27-37.263l-11.018-11.02l-0.078,0.078L62.863-58.516
								L51.843-47.498l0,0l-10.31,10.312L51.843-26.875L51.843-26.875z M62.861-17.27l-9.603-9.604l9.604-9.603l9.604,9.603
								L62.861-17.27z M73.252-27.659l-9.604-9.604l9.604-9.605l9.604,9.605L73.252-27.659z M62.863-57.102l9.604,9.604
								l-9.604,9.605l-9.605-9.605L62.863-57.102z M42.947-37.185l9.604-9.605l4.806,4.806l4.798,4.798l-9.605,9.604L42.947-37.185z
								"/>
							
								<rect x="59.953" y="-47.998" transform="matrix(0.7071 -0.7071 0.7071 0.7071 52.0027 30.5384)" fill="#FFFFFF" width="5.817" height="1"/>
							<polygon fill="#FFFFFF" points="54.961,-38.889 54.254,-39.596 52.55,-37.892 50.845,-39.597 50.138,-38.89 51.843,-37.185 
								50.141,-35.482 50.848,-34.775 52.55,-36.478 54.253,-34.775 54.96,-35.482 53.257,-37.185 							"/>
							<polygon fill="#FFFFFF" points="63.361,-29.785 62.361,-29.785 62.361,-27.375 59.953,-27.375 59.953,-26.375 
								62.361,-26.375 62.361,-23.965 63.361,-23.965 63.361,-26.375 65.771,-26.375 65.771,-27.375 63.361,-27.375 							"/>
							<path fill="#FFFFFF" d="M-73.211,45.742c0,0.276,0.224,0.5,0.5,0.5l15.088,0.002c0.133,0,0.261-0.052,0.354-0.146
								c0.093-0.094,0.146-0.221,0.146-0.354l-0.002-10.211c0-0.133-0.052-0.261-0.146-0.354c-0.094-0.093-0.221-0.146-0.354-0.146
								l-15.086,0.004c-0.276,0-0.5,0.225-0.5,0.5c0,0.277,0.224,0.5,0.5,0.5l14.586-0.004l0.002,9.211l-14.588-0.002
								C-72.987,45.242-73.211,45.467-73.211,45.742z"/>
							<path fill="#FFFFFF" d="M-61.139-15.855l10.391-10.391l0.629-0.629l10.389-10.389l-11.018-11.02l-0.079,0.079l-10.311-10.311
								l-11.02,11.018l10.312,10.312l-10.312,10.312L-61.139-15.855z M-50.748-27.659l-9.604-9.604l9.604-9.605l9.604,9.605
								L-50.748-27.659z M-61.137-57.102l9.604,9.604l-9.604,9.605l-9.605-9.605L-61.137-57.102z M-61.137-36.478L-61.137-36.478
								l9.604,9.603l-9.605,9.605l-9.604-9.605L-61.137-36.478L-61.137-36.478z"/>
							<path fill="#FFFFFF" d="M-48.633-72.165l4.489,1.076l5.864,5.867l2.409,15.75c0.003,0.123,0.095,3.017,2.9,4.121
								c0.592,0.233,1.152,0.328,1.667,0.328c1.45,0,2.543-0.749,2.994-1.265l16.096-16.095c0.085-0.075,2.071-1.862,0.959-4.684
								c-1.105-2.81-4.017-2.913-4.058-2.895l-15.812-2.411l-4.427-4.427c0,0,0-0.001-0.001-0.001s-0.001,0-0.001-0.001
								l-1.437-1.437l-1.076-4.49c-0.042-0.176-0.177-0.315-0.351-0.364c-0.175-0.049-0.361,0-0.489,0.127l-9.963,9.961
								c-0.128,0.128-0.177,0.315-0.128,0.489C-48.948-72.341-48.81-72.207-48.633-72.165z M-38.833-81.624l0.901,3.759
								c0.022,0.09,0.068,0.172,0.133,0.237l1.183,1.183l-1.908,1.909c-0.195,0.195-0.195,0.512,0,0.707
								c0.098,0.097,0.226,0.146,0.354,0.146s0.256-0.049,0.353-0.146l1.908-1.909l2.955,2.955l-1.907,1.91
								c-0.195,0.195-0.195,0.512,0,0.707c0.098,0.097,0.226,0.146,0.354,0.146s0.256-0.049,0.353-0.146l1.907-1.91l0.531,0.531
								c0.075,0.076,0.173,0.125,0.278,0.141l3.848,0.585l-1.986,1.986c-0.195,0.195-0.195,0.512,0,0.707
								c0.098,0.097,0.226,0.146,0.354,0.146s0.256-0.049,0.353-0.146l2.506-2.506l5.132,0.781l-2.079,2.079
								c-0.195,0.195-0.195,0.512,0,0.707c0.098,0.097,0.226,0.146,0.354,0.146s0.256-0.049,0.353-0.146l2.6-2.6l4.603,0.701
								c0.097,0.002,2.36,0.091,3.216,2.267c0.849,2.154-0.628,3.511-0.713,3.588l-7.644,7.642
								c-0.003,0.003-0.006,0.005-0.009,0.008l-0.816,0.816c-0.002,0.002-0.005,0.005-0.007,0.007l-7.666,7.667
								c-0.013,0.015-1.392,1.545-3.564,0.688c-2.174-0.854-2.263-3.117-2.272-3.276l-2.439-15.977
								c-0.016-0.105-0.066-0.203-0.141-0.278l-6.08-6.082c-0.065-0.066-0.147-0.112-0.237-0.133l-3.758-0.901L-38.833-81.624z"/>
							<path fill="#FFFFFF" d="M43.336-67.351c-0.015,0.108-0.007,0.218,0.05,0.316l3.732,6.469c0.089,0.155,0.254,0.25,0.433,0.25
								c0.178,0,0.344-0.095,0.434-0.25l3.736-6.471c0.057-0.098,0.064-0.208,0.049-0.317c0.006-0.031,0.019-0.06,0.019-0.093
								l-0.002-10.811c0-0.276-0.224-0.5-0.5-0.5s-0.5,0.224-0.5,0.5l0.002,10.311l-6.471,0.002l-0.002-10.314
								c0-0.276-0.224-0.5-0.5-0.5s-0.5,0.224-0.5,0.5l0.002,10.814C43.318-67.412,43.33-67.382,43.336-67.351z M48.327-63.161
								c-0.011-0.001-0.02-0.008-0.03-0.008h-1.526l-2.086-3.616l5.737-0.002L48.327-63.161z"/>
							<path fill="#FFFFFF" d="M82.125,155.452L82.125,155.452l0.913,0.914c0.001,0.001,0.002,0.001,0.003,0.002l0.383,0.383
								c0.495,0.493,1.145,0.741,1.794,0.741s1.298-0.246,1.792-0.74l1.574-1.574c0.002-0.002,0.002-0.004,0.004-0.006
								l22.824-22.824c0.195-0.195,0.195-0.513,0-0.707l-3.648-3.648c-0.001-0.001-0.001-0.002-0.002-0.003l-26.744-26.744
								c-0.194-0.195-0.512-0.195-0.707,0L57.48,124.073c-0.001,0.001-0.001,0.002-0.002,0.003l-1.572,1.572
								c-0.988,0.988-0.987,2.598,0.002,3.586L82.125,155.452z M86.303,156.045c-0.598,0.598-1.572,0.598-2.172-0.002l-1.299-1.299
								c-0.261-0.265-0.093-1.022,0.525-1.645l1.22-1.22l2.945,2.945L86.303,156.045z M88.23,154.117l-2.792-2.791l-0.152-0.152
								l22.123-22.123l2.942,2.943L88.23,154.117z M80.665,102.307l26.036,26.037l-22.122,22.122l-3-2.999l-23.038-23.039
								L80.665,102.307z M56.613,126.355l1.221-1.221l26.038,26.039l-1.221,1.221c-0.412,0.413-0.686,0.883-0.825,1.343
								l-25.21-25.21c-0.289-0.289-0.448-0.676-0.448-1.086C56.167,127.029,56.325,126.645,56.613,126.355z"/>
							<path fill="#FFFFFF" d="M18.333,161.514l-4.474,4.476l-3.042-3.039c3.1-3.282,4.815-7.543,4.814-12.077
								c0-9.514-7.589-17.27-17.03-17.578v-1.607c0-0.274-0.224-0.5-0.5-0.5s-0.5,0.226-0.5,0.5v1.828
								c-0.044,0.075-0.077,0.157-0.077,0.25c0,0.094,0.033,0.177,0.077,0.251v2.299c-3.771,0.113-7.301,1.619-9.979,4.298
								c-2.786,2.785-4.321,6.49-4.321,10.432s1.534,7.646,4.321,10.432c2.679,2.68,6.21,4.185,9.979,4.298v1.96
								c-0.044,0.074-0.077,0.157-0.077,0.25c0,0.094,0.033,0.176,0.077,0.251v2.009c0,0.277,0.224,0.5,0.5,0.5s0.5-0.223,0.5-0.5
								v-1.788c4.322-0.139,8.369-1.824,11.51-4.799l3.041,3.039l-4.474,4.476c-0.195,0.195-0.195,0.512,0,0.707
								c0.098,0.098,0.226,0.146,0.354,0.146c0.128,0,0.256-0.049,0.353-0.146l4.648-4.65c0.085-0.021,0.168-0.056,0.235-0.123
								c0.067-0.066,0.102-0.149,0.123-0.234l4.648-4.65c0.195-0.195,0.195-0.512,0-0.707S18.528,161.318,18.333,161.514z
								 M-15.698,151.045c0-3.674,1.43-7.127,4.028-9.725c2.597-2.598,6.05-4.027,9.724-4.027c3.674,0,7.128,1.43,9.726,4.027
								c5.362,5.361,5.362,14.087,0,19.449c-2.552,2.552-5.932,3.968-9.531,4.018c-0.047-0.015-0.095-0.029-0.146-0.029
								c-0.059,0-0.113,0.015-0.165,0.033c-3.629-0.03-7.038-1.451-9.607-4.021C-14.267,158.172-15.698,154.719-15.698,151.045z
								 M-1.398,165.771c3.733-0.137,7.227-1.637,9.885-4.294c2.786-2.785,4.32-6.492,4.32-10.432
								c0.001-3.941-1.534-7.646-4.32-10.432c-2.656-2.656-6.15-4.157-9.885-4.294v-2.024c8.889,0.308,16.03,7.616,16.03,16.578
								c0.001,4.438-1.726,8.609-4.863,11.746c-3,3-6.948,4.693-11.167,4.837V165.771z"/>
							<path fill="#FFFFFF" d="M-41.875,155.452L-41.875,155.452l0.913,0.914c0.001,0.001,0.002,0.001,0.003,0.002l0.383,0.383
								c0.495,0.493,1.145,0.741,1.794,0.741c0.649,0,1.298-0.246,1.792-0.74l1.574-1.574c0.002-0.002,0.002-0.004,0.004-0.006
								l22.824-22.824c0.195-0.195,0.195-0.513,0-0.707l-3.65-3.65l-26.744-26.744c-0.195-0.195-0.512-0.195-0.707,0l-22.831,22.828
								l-1.574,1.574c-0.988,0.988-0.987,2.598,0.002,3.586L-41.875,155.452z M-37.697,156.045
								c-0.598,0.598-1.572,0.598-2.172-0.002l-1.298-1.299c-0.262-0.265-0.092-1.022,0.525-1.645l1.22-1.22l2.945,2.945
								L-37.697,156.045z M-35.77,154.117l-2.944-2.943l18.409-18.408l3.714-3.715l2.943,2.943L-35.77,154.117z M-43.335,102.307
								l26.037,26.037l-11.85,11.85l-10.274,10.272l-26.038-26.038L-43.335,102.307z M-67.387,126.355l1.22-1.221l26.038,26.039
								l-1.221,1.221c-0.412,0.413-0.685,0.883-0.825,1.343l-25.21-25.21c-0.289-0.289-0.448-0.676-0.448-1.086
								C-67.833,127.029-67.675,126.645-67.387,126.355z"/>
							<path fill="#FFFFFF" d="M-44.13,111.799c-0.195-0.195-0.512-0.195-0.707,0l-10.507,10.506c-0.195,0.195-0.195,0.512,0,0.707
								c0.098,0.098,0.226,0.146,0.354,0.146c0.128,0,0.256-0.049,0.353-0.146l10.507-10.506
								C-43.935,112.311-43.935,111.994-44.13,111.799z"/>
							<path fill="#FFFFFF" d="M-40.468,115.459c-0.195-0.195-0.512-0.195-0.707,0l-10.506,10.508c-0.195,0.195-0.195,0.512,0,0.707
								c0.098,0.098,0.226,0.146,0.354,0.146s0.256-0.049,0.353-0.146l10.506-10.508C-40.273,115.971-40.273,115.654-40.468,115.459
								z"/>
							<path fill="#FFFFFF" d="M-15.313,178.039l-15.812-2.41l-4.423-4.424c-0.002-0.002-0.003-0.006-0.005-0.008
								s-0.005-0.003-0.008-0.005l-1.43-1.431l-1.076-4.488c-0.042-0.176-0.177-0.315-0.351-0.364c-0.175-0.05-0.361,0-0.489,0.127
								l-9.963,9.961c-0.128,0.129-0.177,0.315-0.128,0.489c0.05,0.175,0.188,0.309,0.365,0.351l4.489,1.076l5.864,5.867
								l2.409,15.75c0.003,0.122,0.095,3.016,2.9,4.12c0.592,0.232,1.152,0.326,1.667,0.326c1.45,0,2.543-0.748,2.994-1.263
								l16.096-16.094c0.085-0.076,2.071-1.864,0.959-4.685C-12.36,178.125-15.272,178.038-15.313,178.039z M-12.899,184.889
								l-7.644,7.643c-0.003,0.003-0.006,0.006-0.009,0.008l-0.816,0.816c-0.002,0.002-0.005,0.006-0.007,0.008l-7.666,7.666
								c-0.013,0.016-1.392,1.546-3.564,0.688c-2.174-0.854-2.263-3.116-2.272-3.276l-2.439-15.977
								c-0.016-0.104-0.066-0.201-0.141-0.277l-6.08-6.082c-0.065-0.065-0.147-0.112-0.237-0.133l-3.758-0.9l8.699-8.699
								l0.901,3.759c0.022,0.091,0.068,0.173,0.133,0.236l1.184,1.185l-1.909,1.91c-0.195,0.195-0.195,0.514,0,0.707
								c0.098,0.098,0.226,0.146,0.354,0.146s0.256-0.049,0.353-0.146l1.909-1.911l2.955,2.956l-1.909,1.911
								c-0.195,0.194-0.195,0.513,0,0.707c0.098,0.097,0.226,0.146,0.354,0.146s0.256-0.049,0.353-0.146l1.909-1.911l0.529,0.528
								c0.075,0.077,0.173,0.125,0.278,0.141l3.851,0.586l-1.989,1.99c-0.195,0.194-0.195,0.513,0,0.707
								c0.098,0.097,0.226,0.146,0.354,0.146s0.256-0.049,0.353-0.146l2.51-2.51l5.131,0.781l-2.082,2.081
								c-0.195,0.195-0.195,0.513,0,0.707c0.098,0.098,0.226,0.146,0.354,0.146s0.256-0.049,0.353-0.146l2.602-2.602l4.6,0.7
								c0.097,0.003,2.36,0.092,3.216,2.268C-11.337,183.454-12.814,184.812-12.899,184.889z"/>
							<path fill="#FFFFFF" d="M66.729,159.18c-0.094-0.094-0.221-0.146-0.354-0.146l-14.587,0.004l0.001-7.852
								c0-0.005-0.002-0.009-0.003-0.014l-0.002-2.35c-0.106-0.729-0.696-2.105-2.175-2.105l-3.876-0.004v0.004h-0.234
								c-0.002,0-0.004,0-0.006,0c-1.478,0-2.067,1.377-2.177,2.178l0.002,2.961l-0.001,7.18h-14.71
								c-0.133,0-0.261,0.052-0.354,0.146c-0.093,0.094-0.146,0.221-0.146,0.354l0.002,10.209c0,0.277,0.224,0.5,0.5,0.5
								l14.707-0.002l0.002,10.312c0,0.032,0.012,0.062,0.019,0.094c-0.015,0.109-0.007,0.219,0.05,0.316l3.732,6.469
								c0.089,0.155,0.254,0.25,0.433,0.25c0.178,0,0.344-0.095,0.434-0.25l3.736-6.471c0.057-0.098,0.064-0.208,0.049-0.317
								c0.006-0.031,0.019-0.06,0.019-0.093l-0.002-10.311l14.59,0.002c0.133,0,0.262-0.053,0.354-0.146
								c0.094-0.094,0.146-0.221,0.146-0.354l-0.002-10.211C66.875,159.4,66.823,159.271,66.729,159.18z M44.318,151.954v-0.267
								l6.469-0.002v0.277h0.002l-0.002,17.779l0.002,10.311l-6.471,0.002l-0.002-10.293c0-0.007,0.004-0.013,0.004-0.02
								s-0.003-0.013-0.004-0.02l0.001-10.164c0-0.008,0.005-0.015,0.005-0.023s-0.004-0.016-0.005-0.023l0.001-7.547l0,0V151.954z
								 M45.495,147.717c0.001,0,0.002,0,0.003,0h3.875l0,0h0.236c0.972,0,1.174,1.176,1.18,1.176l-0.001,1.793l-6.474,0.002
								l-0.004-1.721C44.318,148.916,44.515,147.717,45.495,147.717z M29.107,160.035h2.001v5.422h1v-5.422h2.19v2.917h1v-2.917
								h2.188v5.422h1v-5.422h2.187v2.919h1v-2.919h1.644l-0.001,9.207l-14.207,0.002L29.107,160.035z M48.328,184.838
								c-0.011,0-0.02-0.008-0.031-0.008H46.77l-2.086-3.615l5.737-0.002L48.328,184.838z M51.787,169.242l0.001-9.205l1.64-0.001
								v2.915h1v-2.915h2.188v5.421h1v-5.422h2.189v2.921h1v-2.922h2.189v5.425h1v-5.426h1.881l0.002,9.211L51.787,169.242z"/>
							<path fill="#FFFFFF" d="M33.753,85.907c0.05,0.015,0.102,0.022,0.153,0.022c0.212,0,0.408-0.135,0.476-0.347
								c0.085-0.263-0.059-0.544-0.322-0.629l-6.25-2.009l2.414-2.413c0.195-0.195,0.195-0.513,0-0.707
								c-0.195-0.195-0.512-0.195-0.707,0l-2.777,2.776l-6.532-2.1l7.843-7.843c0.093-0.095,0.146-0.222,0.146-0.354
								s-0.052-0.26-0.146-0.354L8.715,52.615c-0.195-0.195-0.512-0.195-0.707,0L-28.59,89.21c-0.093,0.095-0.146,0.222-0.146,0.354
								s0.052,0.26,0.146,0.354l17.04,17.038c0,0,0.001,0.001,0.001,0.002s0.001,0.001,0.002,0.001l2.295,2.295
								c0.098,0.098,0.226,0.146,0.354,0.146c0.127,0,0.255-0.049,0.353-0.146l6.93-6.93l2.098,6.532l-3.422,3.422
								c-0.195,0.195-0.195,0.513,0,0.707c0.098,0.098,0.226,0.146,0.354,0.146s0.256-0.049,0.353-0.146l3.059-3.059l2.007,6.25
								c0.068,0.213,0.264,0.348,0.476,0.348c0.05,0,0.102-0.008,0.153-0.024c0.262-0.084,0.407-0.366,0.322-0.629l-2.164-6.739
								l25.395-25.392L33.753,85.907z M8.361,53.676L24.696,70.01l-35.891,35.887l-16.334-16.332L8.361,53.676z M-8.898,108.193
								l-1.59-1.59l35.89-35.887l1.588,1.588L-1.714,101.01c-0.002,0.002-0.004,0.004-0.006,0.006L-8.898,108.193z M1.277,108.062
								l-2.097-6.532l20.233-20.233l6.532,2.101L1.277,108.062z"/>
							<path fill="#FFFFFF" d="M35.927,131.793c2.679,1.507,5.164,2.359,7.135,2.359c1.293,0,2.315-0.364,3.035-1.086
								c1.518-1.519,1.44-4.391-0.219-8.086c-0.395-0.879-0.869-1.782-1.412-2.698c0.905-0.562,1.742-1.144,2.498-1.739
								c3.181-2.509,4.578-5.02,3.932-7.066c-0.711-2.265-3.853-3.568-8.619-3.584c-0.021-4.604-1.244-7.888-3.586-8.625
								c-0.325-0.102-0.666-0.153-1.016-0.153c-2.418,0-5.208,2.456-7.704,6.437c-3.138-1.955-6.08-3.076-8.346-3.076
								c-1.294,0-2.315,0.364-3.036,1.086c-1.941,1.941-1.167,6.06,1.63,10.782c-4.663,2.895-7.252,6.188-6.428,8.808
								c0.717,2.277,3.89,3.584,8.704,3.584c0.313,0,0.639-0.013,0.963-0.023c-0.027,0.827-0.029,1.633,0.015,2.395
								c0.236,4.045,1.495,6.627,3.542,7.271c0.326,0.103,0.667,0.153,1.018,0.153C30.514,138.529,33.386,135.953,35.927,131.793z
								 M44.966,125.391c1.457,3.242,1.612,5.783,0.425,6.969c-0.526,0.527-1.309,0.795-2.328,0.795
								c-1.787,0-4.106-0.813-6.625-2.231c1.003-1.759,1.942-3.761,2.775-5.95c1.572-0.672,3.045-1.404,4.391-2.185
								C44.128,123.673,44.586,124.544,44.966,125.391z M27.602,124.057c-0.774-0.774-1.501-1.562-2.192-2.353
								c0.29-1.281,0.635-2.584,1.047-3.894c0.446-1.415,0.952-2.773,1.494-4.069c0.776-0.289,1.566-0.569,2.381-0.826
								c1.281-0.403,2.565-0.742,3.835-1.03c0.985,0.835,1.964,1.73,2.919,2.686c1.146,1.147,2.205,2.327,3.179,3.514
								c-0.279,1.229-0.613,2.483-1.012,3.75c-0.257,0.816-0.538,1.609-0.829,2.389c-1.301,0.541-2.659,1.043-4.069,1.487
								c-1.281,0.403-2.565,0.743-3.835,1.03C29.535,125.906,28.556,125.011,27.602,124.057z M29.288,127.003
								c-1.653,0.327-3.26,0.546-4.777,0.652c0.104-1.505,0.316-3.093,0.639-4.734c0.558,0.616,1.133,1.232,1.744,1.843
								C27.682,125.552,28.483,126.297,29.288,127.003z M24.605,120.756c-1.134-1.37-2.133-2.739-2.978-4.068
								c1.505-0.869,3.194-1.698,5.029-2.445c-0.41,1.049-0.798,2.138-1.153,3.268C25.16,118.599,24.865,119.683,24.605,120.756z
								 M28.504,112.475c0.57-1.251,1.172-2.433,1.799-3.508c0.953,0.634,1.92,1.34,2.887,2.114
								c-1.049,0.255-2.106,0.549-3.159,0.88C29.512,112.124,29.007,112.299,28.504,112.475z M35.397,111.623
								c2.048-0.404,4.027-0.646,5.847-0.709c-0.064,1.816-0.298,3.815-0.714,5.922c-0.854-1.005-1.766-2.001-2.738-2.973
								C37.003,113.075,36.203,112.33,35.397,111.623z M41.055,119.074c0.743,0.961,1.417,1.92,2.02,2.868
								c-1.053,0.609-2.183,1.191-3.385,1.735c0.177-0.507,0.351-1.02,0.516-1.544C40.531,121.098,40.807,120.079,41.055,119.074z
								 M34.655,126.663c1.122-0.354,2.213-0.743,3.271-1.159c-0.724,1.777-1.523,3.429-2.367,4.904
								c-1.327-0.806-2.695-1.769-4.063-2.864C32.545,127.289,33.603,126.995,34.655,126.663z M49.943,113.777
								c0.504,1.6-0.808,3.781-3.598,5.982c-0.728,0.574-1.536,1.135-2.408,1.677c-0.758-1.195-1.622-2.405-2.589-3.61
								c0.543-2.482,0.844-4.826,0.911-6.934C46.506,110.904,49.378,111.979,49.943,113.777z M37.676,102.114
								c0.248,0,0.488,0.036,0.716,0.106c1.898,0.598,2.869,3.568,2.872,7.693c-2.114,0.069-4.435,0.372-6.827,0.886
								c-1.208-1.005-2.417-1.904-3.607-2.694C33.123,104.441,35.635,102.114,37.676,102.114z M19.297,106.268
								c0.526-0.525,1.31-0.793,2.329-0.793c2.066,0,4.844,1.084,7.82,2.939c-0.799,1.368-1.56,2.895-2.262,4.546
								c-2.253,0.858-4.307,1.828-6.095,2.862C18.557,111.558,17.713,107.852,19.297,106.268z M22.495,127.736
								c-4.284,0-7.182-1.079-7.751-2.885c-0.672-2.139,1.789-5.034,6.006-7.646c0.99,1.561,2.186,3.172,3.575,4.787
								c-0.425,1.985-0.705,3.912-0.822,5.718C23.164,127.724,22.823,127.736,22.495,127.736z M28.033,137.527
								c-0.248,0-0.489-0.034-0.716-0.106c-1.601-0.503-2.637-2.826-2.845-6.375c-0.044-0.757-0.042-1.561-0.012-2.387
								c1.828-0.121,3.782-0.402,5.788-0.833c1.612,1.341,3.229,2.498,4.795,3.448C32.708,135.089,30.124,137.528,28.033,137.527z"
								/>
							<path fill="#FFFFFF" d="M34.785,117.585c-1.001-0.996-2.741-0.994-3.735,0.002c-0.5,0.496-0.775,1.158-0.776,1.864
								c0,0.707,0.274,1.372,0.775,1.872c0.497,0.497,1.159,0.772,1.864,0.772s1.369-0.275,1.87-0.775
								C35.811,120.291,35.812,118.615,34.785,117.585z M34.076,120.613c-0.622,0.621-1.702,0.621-2.32,0.002
								c-0.311-0.311-0.482-0.725-0.482-1.164c0.001-0.438,0.171-0.848,0.482-1.158c0.31-0.311,0.723-0.48,1.161-0.48
								s0.851,0.17,1.161,0.479C34.716,118.932,34.715,119.973,34.076,120.613z"/>
							<path fill="#FFFFFF" d="M62.861,108.145l10.391-10.391l0.629-0.629L84.27,86.736L73.252,75.716l-0.078,0.078L62.863,65.482
								L51.843,76.501l0,0.001l-10.31,10.312l10.31,10.311h0L62.861,108.145z M62.861,106.73l-9.604-9.605l9.604-9.603l9.604,9.603
								L62.861,106.73z M73.252,96.34l-9.604-9.604l9.604-9.605l9.604,9.605L73.252,96.34z M72.467,76.502l-9.604,9.605
								l-9.605-9.605l9.605-9.604L72.467,76.502z M42.947,86.814l9.604-9.605l9.604,9.604l-9.605,9.604L42.947,86.814z"/>
							
								<rect x="59.953" y="76.001" transform="matrix(-0.7071 0.7071 -0.7071 -0.7071 161.4068 86.1385)" fill="#FFFFFF" width="5.818" height="1"/>
							<polygon fill="#FFFFFF" points="54.961,85.111 54.254,84.404 52.551,86.107 50.846,84.402 50.139,85.109 51.844,86.814 
								50.141,88.517 50.848,89.224 52.551,87.521 54.254,89.225 54.961,88.518 53.258,86.814 							"/>
							<polygon fill="#FFFFFF" points="63.361,94.215 62.361,94.215 62.361,96.625 59.953,96.625 59.953,97.625 62.361,97.625 
								62.361,100.035 63.361,100.035 63.361,97.625 65.771,97.625 65.771,96.625 63.361,96.625 							"/>
							<path fill="#FFFFFF" d="M-57.271,159.18c-0.094-0.094-0.221-0.146-0.354-0.146l-15.086,0.004c-0.276,0-0.5,0.225-0.5,0.5
								c0,0.277,0.224,0.5,0.5,0.5l14.586-0.004l0.002,9.211l-14.588-0.002c-0.276,0-0.5,0.225-0.5,0.5s0.224,0.5,0.5,0.5
								l15.088,0.002c0.133,0,0.261-0.053,0.354-0.146c0.093-0.094,0.146-0.221,0.146-0.354l-0.002-10.211
								C-57.125,159.4-57.177,159.271-57.271,159.18z"/>
							<path fill="#FFFFFF" d="M-61.139,108.145l10.391-10.391l0,0l11.018-11.018l-11.018-11.021l-0.078,0.078l-10.311-10.312
								l-11.02,11.019l10.312,10.312l-10.312,10.312L-61.139,108.145z M-61.138,106.73l-9.604-9.605l9.604-9.604l9.605,9.604
								L-61.138,106.73z M-50.748,96.34l-9.604-9.604l9.604-9.605l9.604,9.605L-50.748,96.34z M-61.137,66.898l9.604,9.604
								l-9.604,9.605l-9.605-9.605L-61.137,66.898z"/>
							<path fill="#FFFFFF" d="M-15.313,54.039l-15.812-2.41l-4.421-4.421c-0.003-0.003-0.004-0.008-0.007-0.011
								s-0.007-0.004-0.01-0.007l-1.428-1.428l-1.076-4.489c-0.042-0.176-0.177-0.315-0.351-0.364c-0.175-0.05-0.361,0-0.489,0.127
								l-9.963,9.961c-0.128,0.129-0.177,0.315-0.128,0.49c0.05,0.174,0.188,0.308,0.365,0.35l4.489,1.076l5.864,5.867l2.409,15.75
								c0.003,0.123,0.095,3.017,2.9,4.121c0.592,0.232,1.152,0.326,1.667,0.326c1.45,0,2.543-0.748,2.994-1.263l16.096-16.094
								c0.085-0.076,2.071-1.864,0.959-4.685C-12.36,54.125-15.272,54.014-15.313,54.039z M-12.899,60.888l-7.644,7.643
								c-0.003,0.003-0.006,0.006-0.009,0.008l-0.816,0.816c-0.002,0.002-0.005,0.006-0.007,0.008l-7.666,7.666
								c-0.013,0.016-1.392,1.544-3.564,0.688c-2.174-0.854-2.263-3.116-2.272-3.276l-2.439-15.977
								c-0.016-0.104-0.066-0.202-0.141-0.278l-6.08-6.082c-0.065-0.065-0.147-0.112-0.237-0.133l-3.758-0.9l8.699-8.699
								l0.901,3.759c0.022,0.09,0.068,0.172,0.133,0.236l1.184,1.184l-1.909,1.911c-0.195,0.195-0.195,0.513,0,0.707
								c0.098,0.097,0.226,0.146,0.354,0.146s0.256-0.048,0.353-0.146l1.909-1.911l2.956,2.956l-1.909,1.912
								c-0.195,0.195-0.195,0.513,0,0.707c0.098,0.097,0.226,0.146,0.354,0.146s0.256-0.049,0.353-0.146l1.909-1.912l0.529,0.529
								c0.075,0.077,0.173,0.125,0.278,0.141l3.852,0.586l-1.99,1.99c-0.195,0.195-0.195,0.512,0,0.707
								c0.098,0.097,0.226,0.146,0.354,0.146s0.256-0.049,0.353-0.146l2.51-2.51l5.131,0.781l-2.082,2.082
								c-0.195,0.195-0.195,0.512,0,0.707c0.098,0.097,0.226,0.146,0.354,0.146s0.256-0.049,0.353-0.146l2.602-2.602l4.6,0.7
								c0.097,0.003,2.36,0.092,3.216,2.268C-11.337,59.454-12.814,60.812-12.899,60.888z"/>
							<path fill="#FFFFFF" d="M43.318,56.555c0,0.033,0.012,0.062,0.019,0.094c-0.015,0.109-0.007,0.219,0.05,0.316l3.732,6.469
								c0.089,0.155,0.254,0.25,0.433,0.25c0.178,0,0.344-0.095,0.434-0.25l3.736-6.471c0.057-0.098,0.064-0.208,0.049-0.318
								c0.006-0.031,0.019-0.06,0.019-0.093l-0.002-10.31l14.59,0.002c0.133,0,0.262-0.052,0.354-0.146
								c0.094-0.094,0.146-0.221,0.146-0.354l-0.002-10.211c0-0.133-0.052-0.261-0.146-0.354c-0.094-0.093-0.221-0.146-0.354-0.146
								l-14.587,0.004l0.001-7.851c0-0.005-0.002-0.009-0.003-0.014l-0.002-2.352c-0.106-0.728-0.696-2.104-2.175-2.104
								l-3.876-0.004v0.005h-0.234c-0.002,0-0.004,0-0.006,0c-1.478,0-2.067,1.376-2.177,2.176l0.002,2.961l-0.001,7.18h-14.71
								c-0.133,0-0.261,0.052-0.354,0.146c-0.093,0.094-0.146,0.222-0.146,0.354l0.002,10.209c0,0.277,0.224,0.5,0.5,0.5
								l14.707-0.002L43.318,56.555z M44.318,27.955v-0.267l6.469-0.002v0.277h0.002l-0.002,17.778l0,0v0v0l0,0l0.002,10.31
								l-6.471,0.002l-0.002-10.292c0-0.007,0.004-0.013,0.004-0.02s-0.003-0.013-0.004-0.02l0.001-10.164
								c0-0.008,0.005-0.015,0.005-0.023s-0.004-0.015-0.005-0.023l0.001-7.546l0,0V27.955z M48.328,60.838
								c-0.011,0-0.02-0.008-0.031-0.008H46.77l-2.085-3.615l5.737-0.002L48.328,60.838z M53.428,36.037v2.915h1v-2.915l2.188,0
								v5.421h1v-5.422l2.189,0v2.921h1v-2.921l2.189,0v5.425h1v-5.425l1.881,0l0.002,9.211l-14.09-0.002l0.001-9.205L53.428,36.037
								z M45.495,23.718c0.001,0,0.002,0,0.003,0h3.875v-0.001h0.236c0.972,0,1.174,1.176,1.18,1.176l-0.001,1.793l-6.474,0.002
								l-0.004-1.72C44.318,24.916,44.515,23.718,45.495,23.718z M29.107,36.035h2.001v5.422h1v-5.422h2.19v2.917h1v-2.917h2.188
								v5.422h1v-5.422h2.187v2.919h1v-2.919h1.644l-0.001,9.207l-14.207,0.002L29.107,36.035z"/>
						</g>
					</g>
				</g>
			</g>
		</g>
	</g>
</g>
</svg>
