<?xml version="1.0" encoding="utf-8"?>
<!-- Generator: Adobe Illustrator 16.0.0, SVG Export Plug-In . SVG Version: 6.00 Build 0)  -->
<!DOCTYPE svg PUBLIC "-//W3C//DTD SVG 1.1//EN" "http://www.w3.org/Graphics/SVG/1.1/DTD/svg11.dtd">
<svg version="1.1" id="Layer_1" xmlns="http://www.w3.org/2000/svg" xmlns:xlink="http://www.w3.org/1999/xlink" x="0px" y="0px"
	 width="40px" height="40px" viewBox="0 0 40 40" enable-background="new 0 0 40 40" xml:space="preserve">
<path fill="#FFFFFF" d="M32.674,14.051l-4.612-5.246c-0.058-0.065-0.136-0.109-0.222-0.123L24.356,8.12
	c-0.117-0.019-0.24,0.02-0.325,0.105l-3.349,3.35l-3.349-3.35c-0.085-0.085-0.207-0.124-0.325-0.105l-3.484,0.563
	c-0.085,0.014-0.164,0.057-0.222,0.123l-4.612,5.246c-0.022,0.025-0.017,0.059-0.031,0.087c-0.001,0.001-0.004,0.001-0.005,0.002
	l-1.324,1.478c-0.138,0.154-0.125,0.392,0.029,0.53c0.016,0.014,0.038,0.01,0.055,0.021c0.007,0.008,0.004,0.02,0.012,0.028
	l4.031,4.031c0.025,0.025,0.061,0.021,0.09,0.037c0.126,0.125,0.324,0.151,0.476,0.044l0.799-0.567v11.61
	c0,0.028,0.01,0.053,0.016,0.079c-0.006,0.026-0.016,0.051-0.016,0.08c0,0.207,0.168,0.375,0.375,0.375h13.25
	c0.207,0,0.375-0.168,0.375-0.375v-2.412c0-0.003-0.001-0.005-0.001-0.008s0.001-0.005,0.001-0.008V16.63l2.067,1.293
	c0.147,0.093,0.34,0.071,0.464-0.053l3.308-3.307C32.797,14.424,32.805,14.199,32.674,14.051z M26.069,31.135h-12.5v-12.12
	c0-0.14-0.078-0.269-0.203-0.333c-0.124-0.064-0.273-0.054-0.389,0.027l-1.158,0.822l-3.687-3.687l0.876-0.978l3.005,3.004
	c0.124,0.124,0.317,0.146,0.464,0.053l2.067-1.293v12.452c0,0.207,0.168,0.375,0.375,0.375h11.149V31.135z M29.031,17.129
	l-2.388-1.495c-0.115-0.072-0.261-0.076-0.38-0.01c-0.119,0.066-0.193,0.192-0.193,0.328v12.754H15.295V15.953
	c0-0.136-0.074-0.262-0.193-0.328c-0.12-0.066-0.265-0.063-0.38,0.01l-2.388,1.495l-2.849-2.848l4.292-4.88l3.162-0.511l3.479,3.479
	c0.141,0.141,0.39,0.141,0.53,0l3.479-3.479l3.162,0.511l4.292,4.88L29.031,17.129z"/>
</svg>
