<?xml version="1.0" encoding="utf-8"?>
<!-- Generator: Adobe Illustrator 18.1.1, SVG Export Plug-In . SVG Version: 6.00 Build 0)  -->
<svg version="1.1" id="Слой_1" xmlns="http://www.w3.org/2000/svg" xmlns:xlink="http://www.w3.org/1999/xlink" x="0px" y="0px"
	 viewBox="0 0 18.2 18.1" enable-background="new 0 0 18.2 18.1" xml:space="preserve">
<path fill="#FFFFFF" d="M12.9,9.1l4.5-4.5c1.3-1.3,0.7-2.3-0.4-3.3c-1.1-1.1-2.2-1.8-3.4-0.5L9.1,5.3L4.6,0.7C3.3-0.5,2.3,0,1.3,1.1
	c-1.1,1-1.7,2.2-0.5,3.5l4.5,4.5l-4.5,4.5C-0.5,14.9-0.1,16,1,17.1c1,1,2.3,1.6,3.6,0.4l4.5-4.5l4.5,4.5c1.3,1.3,2.2,0.4,3.3-0.6
	c1.1-1.1,1.8-1.9,0.5-3.2L12.9,9.1z"/>
</svg>
