<?xml version="1.0" encoding="utf-8"?>
<!-- Generator: Adobe Illustrator 16.0.0, SVG Export Plug-In . SVG Version: 6.00 Build 0)  -->
<!DOCTYPE svg PUBLIC "-//W3C//DTD SVG 1.1//EN" "http://www.w3.org/Graphics/SVG/1.1/DTD/svg11.dtd">
<svg version="1.1" id="Layer_1" xmlns="http://www.w3.org/2000/svg" xmlns:xlink="http://www.w3.org/1999/xlink" x="0px" y="0px"
	 width="40px" height="40px" viewBox="0 0 40 40" enable-background="new 0 0 40 40" xml:space="preserve">
<g>
	<path fill="#696767" d="M20.304,30.723c-2.11,0.316-4.208-0.213-5.917-1.48s-2.823-3.126-3.135-5.231
		c-0.031-0.206-0.218-0.349-0.426-0.316c-0.205,0.03-0.346,0.222-0.316,0.426c0.342,2.305,1.56,4.338,3.431,5.725
		c1.518,1.126,3.317,1.717,5.173,1.717c0.432,0,0.866-0.032,1.301-0.097c0.205-0.03,0.346-0.222,0.316-0.426
		C20.7,30.834,20.505,30.692,20.304,30.723z"/>
	<path fill="#696767" d="M14.841,28.239c1.092,0.81,2.387,1.235,3.723,1.235c0.31,0,0.623-0.023,0.935-0.069
		c0.205-0.03,0.346-0.222,0.316-0.426c-0.031-0.205-0.225-0.347-0.426-0.316c-1.459,0.219-2.917-0.148-4.101-1.026
		c-1.185-0.879-1.956-2.166-2.172-3.626c-0.03-0.205-0.217-0.346-0.426-0.316c-0.205,0.03-0.347,0.221-0.316,0.426
		C12.618,25.778,13.495,27.241,14.841,28.239z"/>
	<path fill="#696767" d="M27.79,12.207c-1.744-1.543-3.992-2.309-6.311-2.173c-0.207,0.013-0.364,0.19-0.352,0.397
		c0.013,0.207,0.186,0.36,0.397,0.352c2.119-0.136,4.174,0.575,5.768,1.986c1.594,1.41,2.543,3.357,2.672,5.482
		c0.012,0.199,0.177,0.352,0.374,0.352c0.008,0,0.016,0,0.023,0c0.207-0.013,0.364-0.19,0.352-0.397
		C30.572,15.88,29.534,13.75,27.79,12.207z"/>
	<path fill="#696767" d="M26.483,13.671c-1.255-1.111-2.871-1.659-4.54-1.563c-0.207,0.013-0.364,0.191-0.352,0.397
		s0.186,0.367,0.397,0.352c1.471-0.093,2.892,0.398,3.997,1.376c1.104,0.978,1.762,2.328,1.851,3.801
		c0.012,0.199,0.177,0.353,0.374,0.353c0.008,0,0.016,0,0.023,0c0.207-0.013,0.364-0.19,0.352-0.397
		C28.484,16.315,27.738,14.782,26.483,13.671z"/>
	<path fill="#696767" d="M20.215,6.934c-7.513,0-13.625,6.112-13.625,13.625c0,7.514,6.112,13.627,13.625,13.627
		c7.514,0,13.627-6.113,13.627-13.627C33.842,13.046,27.729,6.934,20.215,6.934z M20.215,33.437
		c-7.099,0-12.875-5.776-12.875-12.877c0-7.1,5.776-12.875,12.875-12.875c7.101,0,12.877,5.776,12.877,12.875
		C33.092,27.66,27.315,33.437,20.215,33.437z"/>
	<path fill="#696767" d="M20.215,15.932c-2.741,0-4.971,2.229-4.971,4.969s2.23,4.97,4.971,4.97c2.74,0,4.97-2.229,4.97-4.97
		S22.955,15.932,20.215,15.932z M20.215,25.121c-2.327,0-4.221-1.893-4.221-4.22c0-2.327,1.894-4.219,4.221-4.219
		c2.327,0,4.22,1.893,4.22,4.219C24.435,23.229,22.542,25.121,20.215,25.121z"/>
	<path fill="#696767" d="M20.215,18.776c-1.172,0-2.126,0.953-2.126,2.125s0.954,2.126,2.126,2.126s2.126-0.954,2.126-2.126
		S21.387,18.776,20.215,18.776z M20.215,22.277c-0.759,0-1.376-0.617-1.376-1.376c0-0.758,0.617-1.375,1.376-1.375
		s1.376,0.617,1.376,1.375C21.591,21.66,20.974,22.277,20.215,22.277z"/>
</g>
</svg>
