<?xml version="1.0" encoding="utf-8"?>
<!-- Generator: Adobe Illustrator 16.0.0, SVG Export Plug-In . SVG Version: 6.00 Build 0)  -->
<!DOCTYPE svg PUBLIC "-//W3C//DTD SVG 1.1//EN" "http://www.w3.org/Graphics/SVG/1.1/DTD/svg11.dtd">
<svg version="1.1" id="Layer_1" xmlns="http://www.w3.org/2000/svg" xmlns:xlink="http://www.w3.org/1999/xlink" x="0px" y="0px"
	 width="124px" height="124px" viewBox="0 0 124 124" enable-background="new 0 0 124 124" xml:space="preserve">
<g opacity="0.09">
	<defs>
		<rect id="SVGID_1_" y="0" opacity="0.09" width="124" height="124"/>
	</defs>
	<clipPath id="SVGID_2_">
		<use xlink:href="#SVGID_1_"  overflow="visible"/>
	</clipPath>
	<g clip-path="url(#SVGID_2_)">
		<g>
			<g>
				<g>
					<path fill="#2F292B" d="M2.354,108.646c-0.128,0-0.255-0.049-0.353-0.146l-17.912-17.838c-0.196-0.195-0.196-0.512-0.002-0.708
						l28.617-28.739c0.094-0.094,0.221-0.146,0.354-0.147h0.001c0.132,0,0.259,0.052,0.353,0.146l17.914,17.841
						c0.196,0.195,0.196,0.512,0.002,0.708L2.708,108.499C2.61,108.598,2.481,108.646,2.354,108.646z M-14.852,90.306l17.204,17.134
						l27.913-28.028L13.061,62.275L-14.852,90.306z"/>
				</g>
			</g>
			<g>
				<g>
					<path fill="#2F292B" d="M2.229,113.229c-0.128,0-0.255-0.048-0.353-0.145l-2.229-2.217c-0.094-0.093-0.147-0.221-0.147-0.353
						c0-0.133,0.052-0.261,0.146-0.354l33.326-33.469c0.094-0.094,0.221-0.146,0.354-0.146h0.001c0.132,0,0.259,0.052,0.353,0.146
						l2.227,2.219c0.196,0.194,0.196,0.511,0.002,0.707L2.583,113.082C2.485,113.18,2.356,113.229,2.229,113.229z M0.707,110.512
						l1.52,1.51l32.619-32.757l-1.519-1.513L0.707,110.512z"/>
				</g>
			</g>
			<g>
				<g>
					<path fill="#2F292B" d="M84.724,26.799c-1.194,0-2.376-0.495-3.242-1.359L70.007,14.013c-1.751-1.742-1.758-4.585-0.014-6.339
						l4.848-4.868c0.845-0.847,1.974-1.314,3.179-1.314c1.196,0,2.319,0.461,3.163,1.297l11.471,11.43
						c1.751,1.746,1.843,4.502,0.207,6.146l-1.28,1.285c-1.326,1.331-2.891,2.901-3.954,3.972
						C86.866,26.382,85.836,26.799,84.724,26.799z M78.02,2.493c-0.938,0-1.814,0.362-2.47,1.02L70.702,8.38
						c-1.355,1.362-1.351,3.571,0.01,4.924l11.475,11.428c1.298,1.293,3.532,1.381,4.731,0.185c1.062-1.07,2.627-2.641,3.953-3.972
						l1.28-1.285c1.248-1.252,1.156-3.375-0.204-4.731L80.478,3.499C79.823,2.851,78.95,2.493,78.02,2.493z"/>
				</g>
			</g>
			<g>
				<g>
					<path fill="#2F292B" d="M41.953,10.801c-0.133,0-0.26-0.053-0.354-0.146l-2.547-2.541c-0.195-0.195-0.195-0.512,0-0.707
						c0.195-0.196,0.512-0.195,0.707-0.001l2.192,2.188l22.271-22.365L48.965-27.969L44.417-23.4
						c-0.195,0.196-0.512,0.196-0.707,0.002c-0.196-0.195-0.196-0.511-0.002-0.707l4.9-4.924c0.094-0.094,0.221-0.147,0.354-0.147
						h0.001c0.132,0,0.259,0.052,0.353,0.146l15.967,15.903c0.196,0.195,0.196,0.512,0.002,0.707L42.308,10.654
						C42.214,10.748,42.087,10.801,41.953,10.801L41.953,10.801z"/>
				</g>
			</g>
			<g>
				<g>
					<path fill="#2F292B" d="M40.485,69.465c-4.539,0-8.81-1.764-12.025-4.968c-3.227-3.212-5.008-7.489-5.017-12.042
						c-0.009-4.552,1.756-8.835,4.968-12.06c3.222-3.235,7.511-5.017,12.078-5.017c4.54,0,8.812,1.764,12.029,4.968
						c3.225,3.212,5.005,7.489,5.013,12.042c0.009,4.553-1.756,8.836-4.968,12.061C49.341,67.684,45.052,69.465,40.485,69.465z
						 M40.489,36.378c-4.299,0-8.337,1.677-11.369,4.723c-3.024,3.035-4.686,7.067-4.677,11.352s1.686,8.311,4.722,11.335
						c3.027,3.016,7.048,4.676,11.32,4.676c4.298,0,8.336-1.678,11.369-4.723c3.024-3.035,4.686-7.067,4.677-11.353
						c-0.008-4.286-1.684-8.311-4.718-11.334C48.784,38.04,44.763,36.378,40.489,36.378z"/>
				</g>
			</g>
			<g>
				<g>
					<path fill="#2F292B" d="M40.833,58.652c-1.568,0-3.044-0.61-4.156-1.719c-2.298-2.289-2.306-6.022-0.018-8.323
						c1.115-1.118,2.598-1.734,4.174-1.734c1.566,0,3.041,0.609,4.15,1.716c2.301,2.29,2.311,6.026,0.021,8.329
						C43.889,58.038,42.407,58.652,40.833,58.652z M40.833,47.877c-1.309,0-2.54,0.511-3.465,1.439
						c-1.899,1.91-1.893,5.009,0.014,6.909c0.924,0.92,2.149,1.427,3.451,1.427c1.308,0,2.538-0.51,3.464-1.437
						c1.899-1.911,1.892-5.013-0.019-6.914C43.356,48.383,42.134,47.877,40.833,47.877z"/>
				</g>
			</g>
			<g>
				<g>
					<path fill="#2F292B" d="M40.83,56.943c-1.112,0-2.159-0.432-2.946-1.216c-0.791-0.789-1.228-1.838-1.229-2.954
						c-0.002-1.116,0.432-2.166,1.221-2.956c0.789-0.794,1.841-1.231,2.96-1.231c1.111,0,2.156,0.432,2.942,1.217
						c0.792,0.789,1.23,1.838,1.232,2.956c0.001,1.115-0.432,2.164-1.221,2.953C43.003,56.505,41.951,56.943,40.83,56.943z
						 M40.835,49.586c-0.852,0-1.651,0.333-2.252,0.937c-0.601,0.602-0.93,1.4-0.929,2.249c0.001,0.849,0.333,1.646,0.936,2.247
						c1.199,1.196,3.298,1.192,4.49-0.013c0.602-0.601,0.931-1.398,0.93-2.246c-0.002-0.85-0.335-1.648-0.938-2.249
						C42.474,49.915,41.68,49.586,40.835,49.586z"/>
				</g>
			</g>
			<g>
				<g>
					<path fill="#2F292B" d="M7.708,88.08c-0.858,0-1.665-0.334-2.273-0.938c-1.261-1.256-1.267-3.301-0.014-4.559
						c1.219-1.218,3.337-1.224,4.557-0.009c1.259,1.253,1.265,3.296,0.012,4.554C9.384,87.742,8.573,88.08,7.708,88.08z
						 M7.706,82.637c-0.596,0-1.155,0.232-1.577,0.654c-0.863,0.865-0.858,2.275,0.011,3.143c0.841,0.836,2.307,0.832,3.14-0.008
						c0.864-0.869,0.861-2.278-0.007-3.143C8.854,82.866,8.297,82.637,7.706,82.637z"/>
				</g>
			</g>
			<g>
				<g>
					<path fill="#2F292B" d="M16.254,36.253c-0.132,0-0.259-0.052-0.353-0.146L-6.72,13.58c-0.196-0.195-0.196-0.512-0.002-0.708
						L6.448-0.353C6.542-0.446,6.669-0.499,6.802-0.5h0.001c0.132,0,0.259,0.052,0.353,0.146l22.619,22.527
						c0.196,0.195,0.196,0.512,0.002,0.707L16.608,36.106C16.515,36.2,16.388,36.253,16.254,36.253L16.254,36.253z M-5.66,13.224
						l21.912,21.823l12.463-12.517L6.804,0.708L-5.66,13.224z"/>
				</g>
			</g>
			<g>
				<g>
					<path fill="#2F292B" d="M12.539,32.554c-0.128,0-0.255-0.048-0.353-0.146L-6.72,13.58c-0.196-0.195-0.196-0.512-0.002-0.708
						L6.448-0.353C6.542-0.446,6.669-0.499,6.802-0.5h0.001c0.132,0,0.259,0.052,0.353,0.146l18.908,18.833
						c0.095,0.094,0.147,0.221,0.147,0.354s-0.052,0.26-0.146,0.354L12.894,32.407C12.796,32.505,12.667,32.554,12.539,32.554z
						 M-5.66,13.224l18.198,18.124l12.466-12.512L6.804,0.708L-5.66,13.224z"/>
				</g>
			</g>
			<g>
				<g>
					<path fill="#2F292B" d="M61.662,37.567c-0.132,0-0.259-0.052-0.353-0.146l-4.365-4.351c-0.196-0.195-0.196-0.511-0.002-0.707
						l5.873-5.894c0.094-0.094,0.221-0.147,0.354-0.147h0.001c0.132,0,0.259,0.052,0.353,0.146l4.363,4.349
						c0.196,0.195,0.196,0.511,0.002,0.707l-5.871,5.896C61.923,37.514,61.796,37.566,61.662,37.567L61.662,37.567z M58.004,32.715
						l3.657,3.645l5.165-5.187l-3.655-3.643L58.004,32.715z"/>
				</g>
			</g>
			<g>
				<g>
					<g>
						<path fill="#2F292B" d="M47.287-20.042c-0.128,0-0.255-0.048-0.353-0.146c-0.196-0.195-0.196-0.512-0.002-0.708l4.902-4.923
							c0.195-0.196,0.512-0.196,0.707-0.002c0.196,0.195,0.196,0.512,0.002,0.708l-4.902,4.923
							C47.544-20.091,47.415-20.042,47.287-20.042z"/>
					</g>
				</g>
				<g>
					<g>
						<path fill="#2F292B" d="M32.721,12.908c-0.132,0-0.259-0.052-0.353-0.146L16.399-3.142c-0.095-0.094-0.147-0.221-0.147-0.354
							s0.052-0.26,0.146-0.354l22.98-23.073c0.094-0.094,0.221-0.146,0.354-0.147h0.001c0.132,0,0.259,0.052,0.353,0.146
							L56.05-11.019c0.095,0.093,0.147,0.221,0.147,0.353c0,0.133-0.052,0.26-0.146,0.354L33.075,12.76
							C32.981,12.854,32.854,12.907,32.721,12.908L32.721,12.908z M17.459-3.498l15.26,15.199L54.99-10.663l-15.257-15.2
							L17.459-3.498z"/>
					</g>
				</g>
				<g>
					<g>
						<path fill="#2F292B" d="M39.963-23.384c0.248,0.249,0.25,0.655,0.004,0.905c-0.25,0.247-0.654,0.247-0.904-0.002
							c-0.25-0.247-0.248-0.65,0-0.897C39.312-23.628,39.713-23.631,39.963-23.384z"/>
					</g>
					<g>
						<path fill="#2F292B" d="M39.516-21.794c-0.305,0-0.591-0.118-0.806-0.333c-0.215-0.211-0.334-0.496-0.334-0.799
							c-0.001-0.305,0.118-0.591,0.334-0.807c0.431-0.429,1.175-0.431,1.604-0.007c0.443,0.445,0.446,1.167,0.009,1.611
							C40.104-21.911,39.818-21.794,39.516-21.794z"/>
					</g>
				</g>
				<g>
					<g>
						<path fill="#2F292B" d="M38.006-21.42c0.25,0.249,0.25,0.651,0,0.9c-0.246,0.252-0.65,0.25-0.9,0.006
							c-0.248-0.249-0.25-0.654,0-0.905C37.355-21.667,37.756-21.668,38.006-21.42z"/>
					</g>
					<g>
						<path fill="#2F292B" d="M37.556-19.831c-0.301,0-0.585-0.116-0.8-0.325c-0.447-0.449-0.447-1.172-0.005-1.616
							c0.438-0.433,1.179-0.428,1.607-0.003c0.216,0.216,0.335,0.501,0.335,0.805s-0.119,0.589-0.335,0.804
							C38.149-19.952,37.862-19.831,37.556-19.831z"/>
					</g>
				</g>
				<g>
					<g>
						<path fill="#2F292B" d="M36.053-19.455c0.248,0.248,0.25,0.65,0.002,0.9c-0.252,0.251-0.654,0.248-0.904,0.001
							c-0.248-0.248-0.248-0.651,0.002-0.901C35.4-19.704,35.803-19.704,36.053-19.455z"/>
					</g>
					<g>
						<path fill="#2F292B" d="M35.603-17.867c-0.303,0-0.588-0.118-0.804-0.331c-0.445-0.445-0.444-1.167,0-1.61
							c0.428-0.43,1.177-0.43,1.606,0c0.443,0.442,0.444,1.163,0.004,1.606C36.192-17.985,35.906-17.867,35.603-17.867z"/>
					</g>
				</g>
				<g>
					<g>
						<path fill="#2F292B" d="M20.332,0.567c-0.128,0-0.255-0.048-0.353-0.146c-0.196-0.195-0.196-0.511-0.002-0.707l22.98-23.067
							c0.195-0.196,0.512-0.196,0.707-0.001c0.196,0.195,0.196,0.511,0.002,0.707L20.687,0.42
							C20.589,0.518,20.46,0.567,20.332,0.567z"/>
					</g>
				</g>
			</g>
			<g>
				<g>
					<path fill="#2F292B" d="M21.574,26.667c0.338,0.335,0.338,0.88,0.002,1.218c-0.336,0.336-0.881,0.334-1.217,0.001
						c-0.336-0.332-0.338-0.878-0.002-1.216C20.693,26.334,21.234,26.334,21.574,26.667z"/>
				</g>
				<g>
					<path fill="#2F292B" d="M20.968,28.637c-0.362,0-0.703-0.141-0.96-0.396c-0.257-0.253-0.399-0.594-0.401-0.957
						c-0.002-0.365,0.14-0.708,0.396-0.967c0.513-0.514,1.402-0.516,1.921-0.007c0.26,0.257,0.402,0.598,0.404,0.961
						c0.001,0.364-0.14,0.708-0.397,0.966C21.673,28.495,21.332,28.637,20.968,28.637z M20.966,26.918
						c-0.096,0-0.187,0.038-0.255,0.106c-0.067,0.068-0.104,0.159-0.104,0.256c0,0.095,0.037,0.184,0.104,0.25
						c0.139,0.137,0.377,0.136,0.512,0.001c0.067-0.068,0.105-0.16,0.105-0.257c-0.001-0.096-0.038-0.185-0.105-0.252
						C21.154,26.956,21.062,26.918,20.966,26.918z"/>
				</g>
			</g>
			<g>
				<g>
					<path fill="#2F292B" d="M77.723,10.74c-0.128,0-0.255-0.048-0.353-0.146l-1.877-1.869c-0.196-0.195-0.196-0.512-0.002-0.708
						c0.195-0.195,0.512-0.196,0.707-0.001l1.877,1.869c0.196,0.195,0.196,0.512,0.002,0.708
						C77.979,10.69,77.851,10.74,77.723,10.74z"/>
				</g>
			</g>
			<g>
				<g>
					<path fill="#2F292B" d="M64.465,32.574c-0.128,0-0.256-0.049-0.353-0.146l-2.033-2.026c-0.196-0.195-0.196-0.511-0.002-0.707
						c0.195-0.196,0.514-0.195,0.707-0.001l2.033,2.026c0.196,0.195,0.196,0.511,0.002,0.707
						C64.722,32.525,64.593,32.574,64.465,32.574z"/>
				</g>
			</g>
			<g>
				<g>
					<path fill="#2F292B" d="M62.473,34.577c-0.128,0-0.255-0.048-0.353-0.146l-2.037-2.029c-0.196-0.195-0.196-0.511-0.002-0.707
						c0.195-0.196,0.512-0.196,0.707-0.001l2.037,2.029c0.196,0.195,0.196,0.511,0.002,0.707
						C62.729,34.528,62.601,34.577,62.473,34.577z"/>
				</g>
			</g>
			<g>
				<g>
					<path fill="#2F292B" d="M56.199,34.318c-0.128,0-0.255-0.048-0.353-0.146l-11.27-11.222c-0.095-0.094-0.147-0.221-0.147-0.354
						s0.052-0.26,0.146-0.354l8.066-8.098c0.195-0.196,0.512-0.196,0.707-0.001L64.62,25.368c0.095,0.094,0.147,0.221,0.147,0.354
						s-0.052,0.26-0.146,0.354l-8.068,8.096C56.456,34.269,56.327,34.318,56.199,34.318z M45.637,22.595l10.562,10.516l7.362-7.387
						L52.997,15.206L45.637,22.595z"/>
				</g>
			</g>
			<g>
				<g>
					<path fill="#2F292B" d="M70.715,41.975c-0.132,0-0.259-0.052-0.353-0.146l-5.281-5.259c-0.094-0.094-0.147-0.221-0.147-0.354
						c0-0.132,0.052-0.26,0.146-0.354l8.066-8.101c0.094-0.094,0.221-0.146,0.354-0.147H73.5c0.132,0,0.259,0.052,0.353,0.146
						l5.279,5.258c0.196,0.195,0.196,0.512,0.002,0.707l-8.064,8.102C70.976,41.922,70.849,41.975,70.715,41.975L70.715,41.975z
						 M66.141,36.215l4.572,4.553l7.359-7.393l-4.571-4.552L66.141,36.215z"/>
				</g>
			</g>
			<g>
				<g>
					<path fill="#2F292B" d="M7.547,93.322l-3.884-1.031l0.302-2.549c-0.21-0.148-0.421-0.328-0.608-0.512
						c-0.192-0.196-0.363-0.397-0.522-0.6L0.3,88.946l-1.044-3.884l2.357-1.01c0.057-0.525,0.192-1.049,0.395-1.543l-1.594-1.971
						l2.898-2.904l2.032,1.524c0.493-0.212,1-0.345,1.536-0.413l0.986-2.348l3.888,1.029l-0.304,2.545
						c0.205,0.151,0.414,0.326,0.605,0.514c0.195,0.199,0.367,0.401,0.526,0.609l2.531-0.322l1.039,3.885l-2.354,1.009
						c-0.047,0.483-0.178,0.993-0.39,1.536l1.593,1.974L12.1,92.082l-2.03-1.522c-0.471,0.202-0.978,0.336-1.535,0.409L7.547,93.322
						z M4.759,91.547l2.206,0.586l0.663-1.564c0.127-0.318,0.429-0.549,0.781-0.592c0.465-0.061,0.891-0.172,1.295-0.339
						c0.266-0.124,0.687-0.091,0.969,0.124l1.333,1l1.656-1.658l-1.044-1.301c-0.22-0.289-0.269-0.658-0.136-0.975
						c0.175-0.449,0.285-0.878,0.333-1.297c0.044-0.346,0.269-0.643,0.586-0.781l1.562-0.67l-0.59-2.207l-1.805,0.216
						c-0.299,0-0.589-0.142-0.776-0.38c-0.139-0.182-0.283-0.353-0.442-0.514c-0.157-0.154-0.335-0.303-0.519-0.443
						c-0.274-0.215-0.413-0.548-0.374-0.895l0.201-1.686l-2.21-0.585l-0.663,1.56c-0.135,0.32-0.433,0.547-0.778,0.592
						c-0.45,0.057-0.875,0.169-1.302,0.342c-0.288,0.125-0.686,0.086-0.961-0.121l-1.339-1.003l-1.652,1.656l1.041,1.302
						c0.213,0.281,0.264,0.646,0.143,0.965c-0.173,0.422-0.286,0.859-0.342,1.311c-0.049,0.348-0.272,0.645-0.585,0.781l-1.563,0.67
						l0.593,2.207l1.816-0.215c0.301,0,0.58,0.14,0.768,0.385c0.133,0.168,0.278,0.342,0.439,0.506
						c0.154,0.15,0.334,0.303,0.517,0.443c0.271,0.205,0.417,0.548,0.378,0.891L4.759,91.547z"/>
				</g>
			</g>
			<g>
				<g>
					<path fill="#2F292B" d="M9.205,24.188c-0.128,0-0.256-0.049-0.354-0.146l-1.738-1.736c-0.195-0.195-0.195-0.512,0-0.707
						s0.512-0.195,0.707,0l1.738,1.736c0.195,0.195,0.195,0.512,0,0.707C9.461,24.139,9.333,24.188,9.205,24.188z"/>
				</g>
			</g>
			<g>
				<g>
					<path fill="#2F292B" d="M9.205,24.188c-0.128,0-0.255-0.048-0.353-0.146c-0.196-0.195-0.196-0.511-0.002-0.707l1.734-1.741
						c0.195-0.196,0.512-0.196,0.707-0.001c0.196,0.195,0.196,0.511,0.002,0.707L9.56,24.041
						C9.462,24.139,9.333,24.188,9.205,24.188z"/>
				</g>
			</g>
			<g>
				<g>
					<g>
						<path fill="#2F292B" d="M17.33,16.033c-0.128,0-0.256-0.049-0.354-0.146l-1.74-1.736c-0.195-0.195-0.195-0.512,0-0.707
							c0.195-0.196,0.512-0.195,0.707-0.001l1.74,1.736c0.195,0.195,0.195,0.512,0,0.707C17.586,15.984,17.458,16.033,17.33,16.033z
							"/>
					</g>
				</g>
				<g>
					<g>
						<path fill="#2F292B" d="M15.594,17.769c-0.128,0-0.256-0.049-0.354-0.146c-0.195-0.195-0.195-0.512,0-0.707l1.736-1.736
							c0.195-0.195,0.512-0.195,0.707,0s0.195,0.512,0,0.707l-1.736,1.736C15.85,17.72,15.722,17.769,15.594,17.769z"/>
					</g>
				</g>
			</g>
			<g>
				<g>
					<path fill="#2F292B" d="M3.332,18.339c-0.128,0-0.256-0.049-0.354-0.146L1.24,16.458c-0.195-0.195-0.195-0.512,0-0.707
						c0.195-0.196,0.512-0.195,0.707-0.001l1.738,1.735c0.195,0.195,0.195,0.512,0,0.707C3.588,18.291,3.46,18.339,3.332,18.339z"/>
				</g>
			</g>
			<g>
				<g>
					<path fill="#2F292B" d="M1.594,16.604c-0.128,0-0.255-0.048-0.353-0.146c-0.196-0.195-0.196-0.512-0.002-0.708l1.732-1.739
						c0.195-0.196,0.512-0.196,0.707-0.001c0.196,0.195,0.196,0.512,0.002,0.708l-1.732,1.739
						C1.851,16.555,1.722,16.604,1.594,16.604z"/>
				</g>
			</g>
			<g>
				<g>
					<g>
						<path fill="#2F292B" d="M11.453,10.181c-0.128,0-0.256-0.049-0.354-0.146L9.361,8.301c-0.195-0.195-0.195-0.512,0-0.707
							c0.195-0.196,0.512-0.195,0.707-0.001l1.738,1.734c0.195,0.195,0.195,0.512,0,0.707
							C11.709,10.132,11.581,10.181,11.453,10.181z"/>
					</g>
				</g>
				<g>
					<g>
						<path fill="#2F292B" d="M7.988,10.19c-0.127,0-0.254-0.048-0.352-0.145C7.44,9.851,7.438,9.534,7.633,9.338l1.727-1.743
							c0.194-0.196,0.511-0.197,0.707-0.003c0.196,0.194,0.198,0.511,0.004,0.708l-1.727,1.743
							C8.246,10.141,8.117,10.19,7.988,10.19z"/>
					</g>
				</g>
			</g>
			<g>
				<g>
					<g>
						<path fill="#2F292B" d="M-36.508,79.732c-0.128,0-0.256-0.049-0.354-0.146c-0.195-0.195-0.195-0.512,0-0.707l40.57-40.613
							c0.195-0.195,0.512-0.195,0.707,0c0.195,0.195,0.195,0.512,0,0.707l-40.57,40.613C-36.252,79.684-36.38,79.732-36.508,79.732z
							"/>
					</g>
				</g>
				<g>
					<g>
						<g>
							<path fill="#2F292B" d="M-31.432,84.805c-0.133,0-0.26-0.053-0.354-0.146l-24.904-24.882c-0.195-0.195-0.195-0.512,0-0.707
								l40.57-40.611c0.195-0.195,0.512-0.195,0.707,0L9.492,43.335c0.195,0.195,0.195,0.512,0,0.707l-40.57,40.616
								C-31.172,84.752-31.299,84.805-31.432,84.805L-31.432,84.805z M-55.629,59.422l24.197,24.176L8.432,43.689l-24.197-24.171
								L-55.629,59.422z"/>
						</g>
					</g>
					<g>
						<g>
							<path fill="#2F292B" d="M-1.256,65.184c-0.081,0-0.164-0.02-0.24-0.062l-6.842-3.739c-0.242-0.133-0.331-0.437-0.198-0.679
								c0.132-0.242,0.437-0.331,0.679-0.199l6.842,3.739c0.242,0.133,0.331,0.437,0.198,0.679
								C-0.908,65.089-1.079,65.184-1.256,65.184z"/>
						</g>
					</g>
					<g>
						<g>
							<path fill="#2F292B" d="M-10.037,73.977c-0.177,0-0.348-0.094-0.438-0.26l-3.748-6.844c-0.133-0.242-0.044-0.545,0.198-0.678
								c0.24-0.133,0.546-0.045,0.679,0.197l3.748,6.844c0.133,0.242,0.044,0.547-0.198,0.68
								C-9.873,73.957-9.955,73.977-10.037,73.977z"/>
						</g>
					</g>
					<g>
						<g>
							<path fill="#2F292B" d="M-11.42,75.363c-0.128,0-0.256-0.049-0.354-0.146c-0.195-0.194-0.195-0.512,0-0.707l11.578-11.586
								c0.195-0.195,0.512-0.195,0.707,0c0.195,0.195,0.195,0.512,0,0.708l-11.578,11.586
								C-11.164,75.314-11.292,75.363-11.42,75.363z"/>
						</g>
					</g>
					<g>
						<g>
							<path fill="#2F292B" d="M-13.615,63.242c-0.571,0-1.109-0.222-1.515-0.625c-0.835-0.84-0.836-2.204-0.004-3.042
								c0.816-0.813,2.23-0.81,3.041,0.002c0.835,0.835,0.835,2.196-0.001,3.034C-12.501,63.019-13.041,63.242-13.615,63.242z
								 M-13.614,59.947c-0.307,0-0.595,0.119-0.812,0.335c-0.443,0.447-0.442,1.178,0.004,1.628
								c0.43,0.428,1.188,0.429,1.622-0.006c0.446-0.446,0.446-1.173,0-1.62C-13.018,60.067-13.307,59.947-13.614,59.947z"/>
						</g>
					</g>
				</g>
			</g>
			<g>
				<g>
					<g>
						<path fill="#2F292B" d="M102.268,10.73c-0.133,0-0.26-0.053-0.354-0.146L48.572-42.758c-0.195-0.195-0.195-0.512,0-0.707
							l14.275-14.275c0.195-0.195,0.512-0.195,0.707,0L116.896-4.4c0.195,0.195,0.195,0.512,0,0.707l-14.275,14.276
							C102.527,10.677,102.4,10.73,102.268,10.73z M49.633-43.112l52.635,52.635l13.568-13.569L63.201-56.68L49.633-43.112z"/>
					</g>
				</g>
				<g>
					<g>
						<path fill="#2F292B" d="M72.217-19.475c-0.128,0-0.256-0.049-0.354-0.146c-0.195-0.195-0.195-0.512,0-0.707l14.199-14.199
							c0.195-0.195,0.512-0.195,0.707,0s0.195,0.512,0,0.707L72.57-19.622C72.473-19.524,72.345-19.475,72.217-19.475z"/>
					</g>
				</g>
				<g>
					<g>
						<path fill="#2F292B" d="M68.574-23.079c-0.128,0-0.256-0.049-0.354-0.146c-0.195-0.195-0.195-0.512,0-0.707L82.42-38.131
							c0.195-0.195,0.512-0.195,0.707,0s0.195,0.512,0,0.707L68.928-23.225C68.83-23.127,68.702-23.079,68.574-23.079z"/>
					</g>
				</g>
				<g>
					<g>
						<path fill="#2F292B" d="M80.766-15.67c-0.128,0-0.256-0.049-0.354-0.146c-0.195-0.195-0.195-0.512,0-0.707l5.666-5.666
							c0.195-0.195,0.512-0.195,0.707,0s0.195,0.512,0,0.707l-5.666,5.666C81.021-15.719,80.894-15.67,80.766-15.67z"/>
					</g>
				</g>
				<g>
					<g>
						<path fill="#2F292B" d="M99.548-3.927c-1.406,0-2.672-0.837-3.223-2.132c-0.754-1.778,0.079-3.836,1.854-4.589
							c0.437-0.185,0.896-0.279,1.366-0.279c1.407,0,2.672,0.837,3.223,2.132c0.754,1.777-0.078,3.835-1.854,4.589
							C100.478-4.021,100.019-3.927,99.548-3.927z M99.546-9.927c-0.335,0-0.663,0.067-0.976,0.2
							c-1.269,0.538-1.863,2.008-1.325,3.277c0.525,1.235,2.035,1.854,3.278,1.324c1.269-0.538,1.863-2.008,1.325-3.277
							C101.455-9.329,100.552-9.927,99.546-9.927z"/>
					</g>
				</g>
				<g>
					<g>
						<path fill="#2F292B" d="M88.817-22.936c-0.604,0-1.146-0.359-1.382-0.916c-0.322-0.762,0.034-1.644,0.796-1.965
							c0.743-0.313,1.651,0.053,1.967,0.794c0.322,0.763-0.035,1.646-0.796,1.968C89.216-22.976,89.019-22.936,88.817-22.936z
							 M88.817-24.936c-0.067,0-0.134,0.014-0.196,0.041c-0.254,0.107-0.372,0.401-0.264,0.655c0.104,0.247,0.402,0.372,0.654,0.265
							c0.254-0.108,0.373-0.402,0.266-0.657C89.199-24.816,89.019-24.936,88.817-24.936z"/>
					</g>
				</g>
				<g>
					<g>
						<path fill="#2F292B" d="M64.012-32.133c-0.133,0-0.26-0.053-0.354-0.146l-1.914-1.914c-0.094-0.094-0.146-0.221-0.146-0.354
							s0.053-0.26,0.146-0.354l9.959-9.958c0.195-0.195,0.512-0.195,0.707,0l1.914,1.913c0.094,0.094,0.146,0.221,0.146,0.354
							s-0.053,0.26-0.146,0.354l-9.959,9.959C64.271-32.186,64.145-32.133,64.012-32.133z M62.805-34.547l1.207,1.207l9.252-9.252
							l-1.207-1.206L62.805-34.547z"/>
					</g>
				</g>
				<g>
					<g>
						<path fill="#2F292B" d="M79.316-26.575c-0.127,0-0.254-0.048-0.352-0.145l-3.643-3.604c-0.196-0.194-0.198-0.511-0.004-0.707
							c0.193-0.197,0.51-0.198,0.707-0.004l3.643,3.604c0.196,0.194,0.198,0.511,0.004,0.707
							C79.574-26.624,79.445-26.575,79.316-26.575z"/>
					</g>
				</g>
			</g>
		</g>
		<g>
			<g>
				<g>
					<path fill="#2F292B" d="M2.354,232.637c-0.128,0-0.255-0.048-0.353-0.145l-17.912-17.84c-0.196-0.194-0.196-0.512-0.002-0.707
						l28.617-28.739c0.094-0.094,0.221-0.146,0.354-0.147h0.001c0.132,0,0.259,0.053,0.353,0.146l17.914,17.842
						c0.196,0.195,0.196,0.512,0.002,0.707L2.708,232.49C2.61,232.588,2.481,232.637,2.354,232.637z M-14.852,214.297L2.353,231.43
						l27.913-28.027l-17.205-17.137L-14.852,214.297z"/>
				</g>
			</g>
			<g>
				<g>
					<path fill="#2F292B" d="M2.229,237.221c-0.128,0-0.255-0.049-0.353-0.146l-2.229-2.215c-0.094-0.094-0.147-0.221-0.147-0.354
						s0.052-0.26,0.146-0.354l33.326-33.469c0.094-0.094,0.221-0.146,0.354-0.147h0.001c0.132,0,0.259,0.053,0.353,0.146
						l2.227,2.217c0.196,0.195,0.196,0.512,0.002,0.708L2.583,237.073C2.485,237.171,2.356,237.221,2.229,237.221z M0.707,234.502
						l1.52,1.512l32.619-32.759l-1.519-1.513L0.707,234.502z"/>
				</g>
			</g>
			<g>
				<g>
					<path fill="#2F292B" d="M84.724,150.789c-1.194,0-2.376-0.494-3.242-1.358l-11.475-11.427c-0.846-0.84-1.312-1.965-1.315-3.166
						c-0.002-1.199,0.46-2.326,1.302-3.172l4.848-4.868c0.845-0.847,1.974-1.313,3.179-1.313c1.196,0,2.319,0.461,3.163,1.297
						l11.471,11.429c1.751,1.746,1.844,4.503,0.207,6.146l-1.203,1.207c-1.342,1.348-2.947,2.958-4.031,4.05
						C86.866,150.372,85.836,150.789,84.724,150.789z M78.02,126.484c-0.938,0-1.814,0.361-2.47,1.02l-4.848,4.867
						c-0.653,0.656-1.012,1.532-1.011,2.466c0.002,0.933,0.364,1.806,1.021,2.458l11.475,11.428
						c1.298,1.293,3.532,1.381,4.731,0.184c1.083-1.09,2.688-2.702,4.031-4.05l1.202-1.207c1.248-1.252,1.156-3.374-0.204-4.731
						l-11.47-11.428C79.823,126.842,78.95,126.484,78.02,126.484z"/>
				</g>
			</g>
			<g>
				<g>
					<path fill="#2F292B" d="M41.953,134.793c-0.133,0-0.26-0.053-0.354-0.146l-2.547-2.541c-0.195-0.195-0.195-0.512,0-0.707
						c0.195-0.196,0.512-0.195,0.707-0.001l2.192,2.188l22.271-22.366L48.965,96.021l-4.548,4.568
						c-0.195,0.197-0.512,0.197-0.707,0.002c-0.196-0.194-0.196-0.512-0.002-0.707l4.9-4.922c0.094-0.095,0.221-0.147,0.354-0.148
						h0.001c0.132,0,0.259,0.053,0.353,0.146l15.967,15.902c0.196,0.194,0.196,0.512,0.002,0.707l-22.977,23.075
						C42.214,134.739,42.087,134.793,41.953,134.793L41.953,134.793z"/>
				</g>
			</g>
			<g>
				<g>
					<path fill="#2F292B" d="M40.485,193.456c-4.539,0-8.81-1.765-12.025-4.968c-3.227-3.213-5.008-7.49-5.017-12.042
						s1.756-8.835,4.968-12.06c3.223-3.235,7.512-5.018,12.079-5.018c4.539,0,8.812,1.764,12.028,4.967
						c6.656,6.633,6.677,17.445,0.045,24.104C49.341,191.674,45.052,193.456,40.485,193.456z M40.49,160.369
						c-4.3,0-8.337,1.678-11.37,4.724c-3.024,3.035-4.686,7.067-4.677,11.352c0.009,4.285,1.686,8.312,4.722,11.335
						c3.027,3.016,7.048,4.677,11.32,4.677c4.298,0,8.336-1.677,11.369-4.723c6.243-6.267,6.225-16.445-0.041-22.688
						C48.784,162.029,44.764,160.369,40.49,160.369z"/>
				</g>
			</g>
			<g>
				<g>
					<path fill="#2F292B" d="M40.832,182.643c-1.567,0-3.044-0.609-4.155-1.718c-2.298-2.289-2.306-6.022-0.018-8.323
						c1.114-1.118,2.597-1.734,4.174-1.734c1.566,0,3.041,0.61,4.15,1.717c2.301,2.289,2.311,6.025,0.021,8.328
						C43.889,182.029,42.407,182.643,40.832,182.643z M40.833,171.867c-1.31,0-2.54,0.512-3.465,1.44
						c-1.899,1.909-1.894,5.009,0.014,6.909c0.924,0.92,2.148,1.426,3.45,1.426c1.308,0,2.538-0.51,3.465-1.436
						c1.899-1.911,1.892-5.014-0.019-6.914C43.356,172.373,42.133,171.867,40.833,171.867z"/>
				</g>
			</g>
			<g>
				<g>
					<path fill="#2F292B" d="M40.83,180.934c-1.112,0-2.159-0.432-2.946-1.217c-1.632-1.627-1.636-4.277-0.01-5.909
						c0.79-0.794,1.842-1.23,2.961-1.23c1.111,0,2.156,0.432,2.942,1.216c0.793,0.789,1.23,1.84,1.232,2.957
						c0.001,1.114-0.433,2.162-1.221,2.951C43.003,180.496,41.951,180.934,40.83,180.934z M40.835,173.577
						c-0.852,0-1.651,0.333-2.252,0.937c-1.238,1.24-1.234,3.258,0.007,4.495c1.201,1.196,3.297,1.19,4.49-0.013
						c0.601-0.602,0.931-1.398,0.93-2.245c-0.002-0.85-0.335-1.648-0.938-2.249C42.474,173.905,41.68,173.577,40.835,173.577z"/>
				</g>
			</g>
			<g>
				<g>
					<path fill="#2F292B" d="M7.708,212.071c-0.858,0-1.665-0.333-2.273-0.938c-1.261-1.256-1.266-3.301-0.014-4.559
						c1.219-1.218,3.337-1.223,4.557-0.01c1.259,1.255,1.264,3.299,0.012,4.557C9.384,211.733,8.573,212.071,7.708,212.071z
						 M7.706,206.627c-0.596,0-1.156,0.232-1.577,0.654c-0.863,0.865-0.858,2.276,0.012,3.144c0.839,0.835,2.306,0.833,3.139-0.009
						c0.864-0.868,0.861-2.277-0.007-3.143C8.854,206.857,8.297,206.627,7.706,206.627z"/>
				</g>
			</g>
			<g>
				<g>
					<path fill="#2F292B" d="M16.254,160.244c-0.132,0-0.259-0.052-0.353-0.145L-6.72,137.57c-0.196-0.195-0.196-0.512-0.002-0.708
						l13.17-13.225c0.094-0.094,0.221-0.146,0.354-0.147h0.001c0.132,0,0.259,0.053,0.353,0.146l22.619,22.527
						c0.196,0.195,0.196,0.512,0.002,0.707l-13.168,13.227C16.515,160.191,16.388,160.244,16.254,160.244L16.254,160.244z
						 M-5.66,137.214l21.912,21.823l12.463-12.517L6.804,124.697L-5.66,137.214z"/>
				</g>
			</g>
			<g>
				<g>
					<path fill="#2F292B" d="M12.539,156.545c-0.128,0-0.255-0.048-0.353-0.145L-6.72,137.57c-0.196-0.195-0.196-0.512-0.002-0.708
						l13.17-13.225c0.094-0.094,0.221-0.146,0.354-0.147h0.001c0.132,0,0.259,0.053,0.353,0.146l18.908,18.834
						c0.095,0.094,0.147,0.221,0.147,0.354s-0.052,0.26-0.146,0.354l-13.172,13.221C12.796,156.496,12.667,156.545,12.539,156.545z
						 M-5.66,137.214l18.198,18.124l12.466-12.512l-18.2-18.129L-5.66,137.214z"/>
				</g>
			</g>
			<g>
				<g>
					<path fill="#2F292B" d="M61.662,161.557c-0.132,0-0.259-0.052-0.353-0.146l-4.365-4.35c-0.095-0.093-0.147-0.221-0.147-0.353
						c0-0.133,0.052-0.26,0.146-0.354l5.873-5.894c0.195-0.196,0.512-0.196,0.707-0.001l4.363,4.348
						c0.196,0.194,0.196,0.511,0.002,0.707l-5.871,5.896C61.923,161.504,61.796,161.557,61.662,161.557L61.662,161.557z
						 M58.004,156.706l3.657,3.644l5.165-5.187l-3.655-3.642L58.004,156.706z"/>
				</g>
			</g>
			<g>
				<g>
					<g>
						<path fill="#2F292B" d="M47.287,103.949c-0.128,0-0.255-0.049-0.353-0.146c-0.196-0.194-0.196-0.512-0.002-0.707l4.902-4.923
							c0.195-0.195,0.512-0.196,0.707-0.001c0.196,0.194,0.196,0.512,0.002,0.707l-4.902,4.923
							C47.544,103.899,47.415,103.949,47.287,103.949z"/>
					</g>
				</g>
				<g>
					<g>
						<path fill="#2F292B" d="M32.721,136.898c-0.132,0-0.259-0.052-0.353-0.145L16.399,120.85
							c-0.196-0.195-0.196-0.512-0.002-0.708l22.98-23.074c0.094-0.094,0.221-0.146,0.354-0.147h0.001
							c0.132,0,0.259,0.053,0.353,0.146l15.965,15.906c0.196,0.195,0.196,0.512,0.002,0.707l-22.977,23.072
							C32.981,136.846,32.854,136.898,32.721,136.898L32.721,136.898z M17.459,120.493l15.26,15.198l22.271-22.363L39.733,98.127
							L17.459,120.493z"/>
					</g>
				</g>
				<g>
					<g>
						<path fill="#2F292B" d="M39.963,100.607c0.248,0.248,0.25,0.654,0.004,0.904c-0.25,0.246-0.654,0.246-0.904-0.002
							c-0.25-0.246-0.248-0.65,0-0.896C39.312,100.363,39.713,100.359,39.963,100.607z"/>
					</g>
					<g>
						<path fill="#2F292B" d="M39.515,102.196c-0.304,0-0.589-0.118-0.805-0.331c-0.215-0.213-0.334-0.497-0.334-0.801
							c-0.001-0.305,0.118-0.591,0.334-0.807c0.431-0.429,1.175-0.431,1.604-0.006c0.444,0.444,0.447,1.166,0.008,1.611
							C40.104,102.08,39.818,102.196,39.515,102.196z"/>
					</g>
				</g>
				<g>
					<g>
						<circle fill="#2F292B" cx="37.556" cy="103.023" r="0.639"/>
					</g>
					<g>
						<path fill="#2F292B" d="M37.555,104.16c-0.301,0-0.584-0.115-0.799-0.325c-0.448-0.45-0.447-1.173-0.004-1.616
							c0.435-0.43,1.178-0.431,1.606-0.002c0.216,0.213,0.335,0.498,0.335,0.803s-0.118,0.591-0.335,0.807
							C38.148,104.039,37.861,104.16,37.555,104.16z"/>
					</g>
				</g>
				<g>
					<g>
						<path fill="#2F292B" d="M36.053,104.535c0.248,0.25,0.25,0.65,0.002,0.9c-0.252,0.252-0.654,0.25-0.904,0.002
							c-0.248-0.248-0.248-0.652,0.002-0.902C35.4,104.287,35.803,104.287,36.053,104.535z"/>
					</g>
					<g>
						<path fill="#2F292B" d="M35.603,106.124c-0.303,0-0.588-0.117-0.804-0.331c-0.445-0.445-0.444-1.166,0-1.611
							c0.43-0.428,1.175-0.428,1.606-0.001c0.442,0.444,0.443,1.165,0.004,1.607C36.192,106.006,35.906,106.124,35.603,106.124z"/>
					</g>
				</g>
				<g>
					<g>
						<path fill="#2F292B" d="M20.332,124.557c-0.128,0-0.255-0.048-0.353-0.146c-0.196-0.194-0.196-0.511-0.002-0.707l22.98-23.066
							c0.195-0.196,0.512-0.196,0.707-0.001c0.196,0.195,0.196,0.512,0.002,0.707l-22.98,23.066
							C20.589,124.508,20.46,124.557,20.332,124.557z"/>
					</g>
				</g>
			</g>
			<g>
				<g>
					<path fill="#2F292B" d="M21.574,150.658c0.338,0.336,0.338,0.879,0.002,1.219c-0.336,0.334-0.881,0.334-1.217,0
						c-0.336-0.332-0.338-0.877-0.002-1.215C20.693,150.326,21.234,150.326,21.574,150.658z"/>
				</g>
				<g>
					<path fill="#2F292B" d="M20.968,152.627c-0.362,0-0.704-0.141-0.961-0.396c-0.256-0.252-0.398-0.592-0.4-0.955
						c-0.002-0.364,0.14-0.707,0.396-0.967c0.513-0.514,1.402-0.516,1.921-0.008c0.534,0.531,0.536,1.395,0.008,1.928
						C21.673,152.486,21.331,152.627,20.968,152.627z M20.966,150.909c-0.096,0-0.187,0.038-0.255,0.106
						c-0.067,0.067-0.104,0.158-0.104,0.256c0,0.094,0.037,0.184,0.104,0.25c0.139,0.137,0.377,0.136,0.512,0.001
						c0.14-0.141,0.14-0.37-0.001-0.511C21.154,150.947,21.062,150.909,20.966,150.909z"/>
				</g>
			</g>
			<g>
				<g>
					<path fill="#2F292B" d="M77.723,134.73c-0.128,0-0.255-0.048-0.353-0.145l-1.877-1.869c-0.196-0.195-0.196-0.512-0.002-0.708
						c0.195-0.195,0.512-0.196,0.707-0.001l1.877,1.869c0.196,0.194,0.196,0.512,0.002,0.707
						C77.979,134.682,77.851,134.73,77.723,134.73z"/>
				</g>
			</g>
			<g>
				<g>
					<path fill="#2F292B" d="M64.465,156.564c-0.128,0-0.256-0.049-0.353-0.146l-2.033-2.026c-0.196-0.195-0.196-0.512-0.002-0.707
						c0.195-0.196,0.514-0.195,0.707-0.001l2.033,2.026c0.196,0.195,0.196,0.512,0.002,0.707
						C64.722,156.516,64.593,156.564,64.465,156.564z"/>
				</g>
			</g>
			<g>
				<g>
					<path fill="#2F292B" d="M62.473,158.568c-0.128,0-0.255-0.049-0.353-0.146l-2.037-2.029c-0.196-0.195-0.196-0.512-0.002-0.707
						c0.195-0.196,0.512-0.196,0.707-0.001l2.037,2.029c0.196,0.194,0.196,0.511,0.002,0.707
						C62.729,158.52,62.601,158.568,62.473,158.568z"/>
				</g>
			</g>
			<g>
				<g>
					<path fill="#2F292B" d="M56.199,158.309c-0.128,0-0.255-0.048-0.353-0.145l-11.27-11.223c-0.095-0.094-0.147-0.221-0.147-0.354
						s0.052-0.26,0.146-0.354l8.066-8.097c0.195-0.196,0.512-0.195,0.707-0.002l11.271,11.225c0.095,0.094,0.147,0.221,0.147,0.354
						s-0.052,0.26-0.146,0.354l-8.068,8.096C56.456,158.26,56.327,158.309,56.199,158.309z M45.637,146.585l10.562,10.517
						l7.362-7.387l-10.563-10.518L45.637,146.585z"/>
				</g>
			</g>
			<g>
				<g>
					<path fill="#2F292B" d="M70.715,165.967c-0.132,0-0.259-0.053-0.353-0.146l-5.281-5.26c-0.196-0.195-0.196-0.512-0.002-0.707
						l8.066-8.1c0.094-0.094,0.221-0.146,0.354-0.146H73.5c0.132,0,0.259,0.052,0.353,0.145l5.279,5.258
						c0.196,0.195,0.196,0.512,0.002,0.707l-8.064,8.102C70.976,165.913,70.849,165.966,70.715,165.967L70.715,165.967z
						 M66.141,160.205l4.572,4.555l7.359-7.394l-4.571-4.552L66.141,160.205z"/>
				</g>
			</g>
			<g>
				<g>
					<path fill="#2F292B" d="M7.547,217.312l-3.884-1.03l0.302-2.549c-0.21-0.148-0.421-0.326-0.608-0.512
						c-0.193-0.195-0.363-0.397-0.523-0.602L0.3,212.938l-1.044-3.885l2.357-1.009c0.057-0.524,0.192-1.048,0.395-1.543
						l-1.594-1.972l2.898-2.904l2.032,1.525c0.493-0.211,1-0.346,1.536-0.412l0.986-2.349l3.888,1.03l-0.304,2.544
						c0.206,0.151,0.414,0.326,0.606,0.515c0.193,0.196,0.366,0.398,0.525,0.607l2.532-0.322l1.038,3.885l-2.354,1.009
						c-0.047,0.484-0.178,0.995-0.39,1.536l1.593,1.975l-2.902,2.904l-2.03-1.522c-0.475,0.204-0.981,0.337-1.535,0.41
						L7.547,217.312z M4.759,215.537l2.206,0.586l0.663-1.562c0.127-0.322,0.43-0.553,0.784-0.593
						c0.459-0.061,0.885-0.172,1.293-0.339c0.262-0.123,0.685-0.092,0.966,0.123l1.335,1l1.656-1.657l-1.044-1.301
						c-0.22-0.288-0.269-0.657-0.136-0.975c0.175-0.45,0.285-0.878,0.333-1.298c0.044-0.346,0.269-0.643,0.586-0.781l1.562-0.67
						l-0.591-2.207l-1.806,0.217c-0.299,0-0.588-0.144-0.775-0.383c-0.138-0.18-0.281-0.35-0.44-0.51
						c-0.158-0.156-0.337-0.305-0.52-0.445c-0.274-0.213-0.413-0.547-0.374-0.895l0.201-1.684l-2.21-0.586l-0.663,1.559
						c-0.135,0.32-0.434,0.548-0.778,0.593c-0.45,0.058-0.875,0.169-1.302,0.343c-0.296,0.126-0.689,0.082-0.961-0.122l-1.339-1.004
						l-1.652,1.656l1.041,1.303c0.213,0.28,0.265,0.646,0.143,0.964c-0.173,0.422-0.286,0.86-0.342,1.312
						c-0.049,0.349-0.272,0.645-0.585,0.78l-1.563,0.67l0.593,2.208l1.816-0.216c0.3,0,0.579,0.139,0.767,0.383
						c0.134,0.172,0.28,0.346,0.44,0.508c0.154,0.152,0.334,0.303,0.517,0.444c0.271,0.206,0.418,0.548,0.378,0.891L4.759,215.537z"
						/>
				</g>
			</g>
			<g>
				<g>
					<path fill="#2F292B" d="M9.205,148.18c-0.128,0-0.256-0.049-0.354-0.146l-1.738-1.736c-0.195-0.195-0.195-0.512,0-0.707
						s0.512-0.195,0.707,0l1.738,1.736c0.195,0.194,0.195,0.512,0,0.707C9.461,148.131,9.333,148.18,9.205,148.18z"/>
				</g>
			</g>
			<g>
				<g>
					<path fill="#2F292B" d="M9.205,148.18c-0.128,0-0.255-0.049-0.353-0.146c-0.196-0.195-0.196-0.512-0.002-0.707l1.734-1.741
						c0.195-0.196,0.512-0.196,0.707-0.001c0.196,0.195,0.196,0.512,0.002,0.707l-1.734,1.741
						C9.462,148.131,9.333,148.18,9.205,148.18z"/>
				</g>
			</g>
			<g>
				<g>
					<g>
						<path fill="#2F292B" d="M17.33,140.023c-0.128,0-0.256-0.049-0.354-0.146l-1.74-1.736c-0.195-0.195-0.195-0.512,0-0.707
							c0.195-0.196,0.512-0.195,0.707-0.001l1.74,1.736c0.195,0.195,0.195,0.512,0,0.707
							C17.586,139.975,17.458,140.023,17.33,140.023z"/>
					</g>
				</g>
				<g>
					<g>
						<path fill="#2F292B" d="M15.594,141.76c-0.128,0-0.256-0.049-0.354-0.146c-0.195-0.195-0.195-0.512,0-0.707l1.736-1.736
							c0.195-0.195,0.512-0.195,0.707,0s0.195,0.512,0,0.707l-1.736,1.736C15.85,141.711,15.722,141.76,15.594,141.76z"/>
					</g>
				</g>
			</g>
			<g>
				<g>
					<path fill="#2F292B" d="M3.332,142.33c-0.128,0-0.256-0.049-0.354-0.146l-1.738-1.735c-0.195-0.195-0.195-0.512,0-0.707
						c0.195-0.196,0.512-0.195,0.707-0.001l1.738,1.735c0.195,0.195,0.195,0.512,0,0.707C3.588,142.281,3.46,142.33,3.332,142.33z"
						/>
				</g>
			</g>
			<g>
				<g>
					<path fill="#2F292B" d="M1.594,140.594c-0.128,0-0.256-0.049-0.353-0.146c-0.196-0.194-0.196-0.511-0.002-0.707l1.732-1.738
						c0.195-0.196,0.514-0.195,0.707-0.001c0.196,0.195,0.196,0.512,0.002,0.707l-1.732,1.738
						C1.851,140.545,1.722,140.594,1.594,140.594z"/>
				</g>
			</g>
			<g>
				<g>
					<g>
						<path fill="#2F292B" d="M11.453,134.172c-0.128,0-0.256-0.049-0.354-0.146l-1.738-1.734c-0.195-0.195-0.195-0.512,0-0.707
							c0.195-0.196,0.512-0.195,0.707-0.001l1.738,1.734c0.195,0.195,0.195,0.512,0,0.707
							C11.709,134.123,11.581,134.172,11.453,134.172z"/>
					</g>
				</g>
				<g>
					<g>
						<path fill="#2F292B" d="M7.988,134.18c-0.127,0-0.255-0.048-0.352-0.145c-0.196-0.194-0.198-0.511-0.004-0.707l1.727-1.742
							c0.194-0.195,0.513-0.197,0.707-0.003c0.196,0.194,0.198,0.511,0.004,0.707l-1.727,1.742
							C8.246,134.131,8.117,134.18,7.988,134.18z"/>
					</g>
				</g>
			</g>
			<g>
				<g>
					<g>
						<path fill="#2F292B" d="M-36.508,203.723c-0.128,0-0.256-0.049-0.354-0.146c-0.195-0.194-0.195-0.512,0-0.707l40.57-40.611
							c0.195-0.195,0.512-0.195,0.707,0c0.195,0.194,0.195,0.512,0,0.707l-40.57,40.611
							C-36.252,203.674-36.38,203.723-36.508,203.723z"/>
					</g>
				</g>
				<g>
					<g>
						<g>
							<path fill="#2F292B" d="M-31.432,208.795c-0.133,0-0.26-0.053-0.354-0.146l-24.904-24.881c-0.195-0.195-0.195-0.512,0-0.707
								l40.57-40.611c0.195-0.195,0.512-0.195,0.707,0l24.904,24.877c0.195,0.194,0.195,0.512,0,0.707l-40.57,40.615
								C-31.172,208.742-31.299,208.795-31.432,208.795L-31.432,208.795z M-55.629,183.413l24.197,24.175L8.432,167.68
								l-24.197-24.17L-55.629,183.413z"/>
						</g>
					</g>
					<g>
						<g>
							<path fill="#2F292B" d="M-1.256,189.174c-0.081,0-0.164-0.02-0.239-0.062l-6.842-3.738c-0.243-0.133-0.332-0.437-0.199-0.679
								c0.132-0.242,0.438-0.331,0.678-0.199l6.842,3.738c0.243,0.133,0.332,0.437,0.199,0.679
								C-0.908,189.079-1.079,189.174-1.256,189.174z"/>
						</g>
					</g>
					<g>
						<g>
							<path fill="#2F292B" d="M-10.037,197.967c-0.177,0-0.348-0.094-0.438-0.26l-3.748-6.844
								c-0.133-0.242-0.044-0.545,0.198-0.678c0.24-0.133,0.546-0.045,0.679,0.197l3.748,6.844c0.133,0.242,0.044,0.547-0.198,0.68
								C-9.873,197.947-9.955,197.967-10.037,197.967z"/>
						</g>
					</g>
					<g>
						<g>
							<path fill="#2F292B" d="M-11.42,199.354c-0.128,0-0.256-0.049-0.354-0.146c-0.195-0.194-0.195-0.512,0-0.707l11.578-11.586
								c0.195-0.195,0.512-0.195,0.707,0s0.195,0.512,0,0.707l-11.578,11.586C-11.164,199.305-11.292,199.354-11.42,199.354z"/>
						</g>
					</g>
					<g>
						<g>
							<path fill="#2F292B" d="M-13.615,187.233c-0.571,0-1.109-0.222-1.515-0.624c-0.835-0.84-0.836-2.204-0.004-3.042
								c0.816-0.813,2.23-0.81,3.041,0.002c0.835,0.835,0.835,2.196-0.001,3.034C-12.501,187.01-13.041,187.233-13.615,187.233z
								 M-13.614,183.938c-0.307,0-0.595,0.119-0.812,0.335c-0.443,0.447-0.442,1.179,0.004,1.629
								c0.43,0.428,1.188,0.429,1.622-0.007c0.446-0.446,0.446-1.173,0-1.62C-13.018,184.059-13.307,183.938-13.614,183.938z"/>
						</g>
					</g>
				</g>
			</g>
			<g>
				<g>
					<g>
						<path fill="#2F292B" d="M102.268,134.721c-0.133,0-0.26-0.053-0.354-0.146L48.572,81.232c-0.195-0.195-0.195-0.512,0-0.707
							L62.848,66.25c0.188-0.188,0.52-0.188,0.707,0l53.342,53.342c0.195,0.195,0.195,0.512,0,0.707l-14.275,14.275
							C102.527,134.668,102.4,134.721,102.268,134.721z M49.633,80.879l52.635,52.635l13.568-13.568L63.201,67.311L49.633,80.879z"
							/>
					</g>
				</g>
				<g>
					<g>
						<path fill="#2F292B" d="M72.217,104.516c-0.128,0-0.256-0.049-0.354-0.146c-0.195-0.195-0.195-0.512,0-0.707l14.199-14.199
							c0.195-0.195,0.512-0.195,0.707,0s0.195,0.512,0,0.707L72.57,104.369C72.473,104.467,72.345,104.516,72.217,104.516z"/>
					</g>
				</g>
				<g>
					<g>
						<path fill="#2F292B" d="M80.766,108.32c-0.128,0-0.256-0.049-0.354-0.146c-0.195-0.195-0.195-0.512,0-0.707l5.666-5.666
							c0.195-0.195,0.512-0.195,0.707,0s0.195,0.512,0,0.707l-5.666,5.666C81.021,108.271,80.894,108.32,80.766,108.32z"/>
					</g>
				</g>
				<g>
					<g>
						<path fill="#2F292B" d="M99.549,120.063c-1.407,0-2.673-0.837-3.224-2.132c-0.753-1.777,0.079-3.836,1.854-4.59
							c0.437-0.185,0.896-0.278,1.365-0.278c1.407,0,2.673,0.837,3.224,2.133c0.754,1.776-0.078,3.835-1.854,4.589
							C100.478,119.97,100.019,120.063,99.549,120.063z M99.545,114.063c-0.335,0-0.663,0.067-0.975,0.199
							c-1.269,0.538-1.862,2.009-1.325,3.278c0.525,1.232,2.031,1.853,3.278,1.323c1.269-0.538,1.863-2.009,1.325-3.276
							C101.455,114.662,100.551,114.063,99.545,114.063z"/>
					</g>
				</g>
				<g>
					<g>
						<path fill="#2F292B" d="M88.816,101.055c-0.604,0-1.146-0.359-1.381-0.914c-0.321-0.762,0.035-1.644,0.795-1.967
							c0.748-0.318,1.652,0.053,1.968,0.795c0.322,0.763-0.035,1.645-0.796,1.967C89.216,101.015,89.019,101.055,88.816,101.055z
							 M88.816,99.055c-0.066,0-0.133,0.014-0.195,0.04c-0.253,0.107-0.371,0.401-0.264,0.657c0.104,0.245,0.402,0.37,0.654,0.264
							c0.254-0.108,0.373-0.402,0.266-0.656C89.199,99.175,89.018,99.055,88.816,99.055z"/>
					</g>
				</g>
				<g>
					<g>
						<path fill="#2F292B" d="M64.012,91.857c-0.128,0-0.256-0.049-0.354-0.146l-1.914-1.914c-0.195-0.195-0.195-0.512,0-0.707
							l9.959-9.959c0.195-0.195,0.512-0.195,0.707,0l1.914,1.914c0.195,0.195,0.195,0.512,0,0.707l-9.959,9.959
							C64.268,91.809,64.14,91.857,64.012,91.857z M62.805,89.443l1.207,1.207l9.252-9.252l-1.207-1.207L62.805,89.443z"/>
					</g>
				</g>
			</g>
		</g>
		<g>
			<g>
				<g>
					<path fill="#2F292B" d="M126.353,108.646c-0.128,0-0.255-0.049-0.353-0.146l-17.911-17.838
						c-0.196-0.195-0.196-0.512-0.002-0.708l28.619-28.739c0.094-0.094,0.221-0.146,0.354-0.147h0.001
						c0.132,0,0.259,0.052,0.353,0.146l17.914,17.841c0.196,0.195,0.196,0.512,0.002,0.708l-28.622,28.736
						C126.609,108.598,126.48,108.646,126.353,108.646z M109.148,90.306l17.203,17.134l27.916-28.028l-17.206-17.136L109.148,90.306
						z"/>
				</g>
			</g>
			<g>
				<g>
					<path fill="#2F292B" d="M126.228,113.229c-0.128,0-0.255-0.048-0.353-0.145l-2.228-2.217c-0.094-0.094-0.147-0.221-0.147-0.354
						c0-0.132,0.052-0.26,0.146-0.354l33.328-33.469c0.094-0.094,0.221-0.146,0.354-0.146h0.001c0.132,0,0.259,0.052,0.353,0.146
						l2.227,2.219c0.196,0.194,0.196,0.511,0.002,0.707l-33.327,33.466C126.484,113.18,126.355,113.229,126.228,113.229z
						 M124.707,110.512l1.519,1.51l32.622-32.757l-1.519-1.513L124.707,110.512z"/>
				</g>
			</g>
			<g>
				<g>
					<path fill="#2F292B" d="M208.725,26.799c-1.193,0-2.376-0.495-3.243-1.358l-11.473-11.428
						c-1.751-1.742-1.758-4.585-0.014-6.339l4.848-4.868c0.845-0.847,1.974-1.314,3.178-1.314c1.196,0,2.319,0.461,3.162,1.297
						l11.473,11.43c1.75,1.747,1.842,4.503,0.207,6.146l-1.545,1.55c-1.266,1.27-2.698,2.706-3.69,3.707
						C210.867,26.382,209.837,26.799,208.725,26.799z M202.021,2.493c-0.937,0-1.813,0.362-2.469,1.02l-4.848,4.867
						c-1.355,1.362-1.351,3.571,0.01,4.924l11.473,11.428c1.3,1.294,3.534,1.381,4.731,0.185c0.992-1,2.425-2.438,3.691-3.708
						l1.544-1.55c1.247-1.251,1.155-3.374-0.204-4.731L204.478,3.499C203.824,2.851,202.951,2.493,202.021,2.493z"/>
				</g>
			</g>
			<g>
				<g>
					<path fill="#2F292B" d="M165.953,10.801c-0.133,0-0.26-0.053-0.354-0.146l-2.547-2.541c-0.195-0.195-0.195-0.512,0-0.707
						c0.195-0.196,0.512-0.195,0.707-0.001l2.192,2.188l22.272-22.365l-15.258-15.198l-4.548,4.569
						c-0.195,0.196-0.512,0.196-0.707,0.002c-0.196-0.195-0.196-0.511-0.002-0.707l4.9-4.924c0.094-0.094,0.221-0.147,0.354-0.147
						h0.001c0.132,0,0.259,0.052,0.353,0.146l15.967,15.903c0.196,0.195,0.196,0.512,0.002,0.708l-22.979,23.074
						C166.214,10.748,166.087,10.801,165.953,10.801L165.953,10.801z"/>
				</g>
			</g>
			<g>
				<g>
					<path fill="#2F292B" d="M164.486,69.465c-4.539,0-8.81-1.764-12.024-4.968c-3.227-3.212-5.008-7.489-5.017-12.042
						c-0.009-4.552,1.756-8.835,4.968-12.06c3.221-3.235,7.51-5.017,12.077-5.017c4.54,0,8.812,1.764,12.028,4.968
						c3.226,3.212,5.006,7.488,5.015,12.042c0.009,4.553-1.756,8.836-4.968,12.061C173.343,67.684,169.053,69.465,164.486,69.465z
						 M164.49,36.378c-4.3,0-8.337,1.677-11.368,4.723c-3.024,3.036-4.686,7.067-4.677,11.353s1.686,8.311,4.722,11.335
						c3.026,3.016,7.047,4.676,11.319,4.676c4.299,0,8.337-1.678,11.37-4.723c3.024-3.035,4.686-7.067,4.677-11.353
						c-0.008-4.286-1.685-8.311-4.72-11.334C172.785,38.039,168.764,36.378,164.49,36.378z"/>
				</g>
			</g>
			<g>
				<g>
					<path fill="#2F292B" d="M164.833,58.652c-1.568,0-3.044-0.61-4.156-1.719c-2.298-2.289-2.305-6.023-0.016-8.323
						c1.115-1.118,2.597-1.734,4.173-1.734c1.566,0,3.041,0.609,4.151,1.715c2.301,2.292,2.309,6.028,0.02,8.329
						C167.89,58.038,166.409,58.652,164.833,58.652z M164.834,47.877c-1.309,0-2.539,0.511-3.464,1.439
						c-1.9,1.909-1.896,5.009,0.012,6.909c0.924,0.92,2.149,1.427,3.451,1.427c1.309,0,2.538-0.51,3.464-1.437
						c1.899-1.91,1.893-5.012-0.017-6.915C167.357,48.383,166.134,47.877,164.834,47.877z"/>
				</g>
			</g>
			<g>
				<g>
					<path fill="#2F292B" d="M164.831,56.943c-1.112,0-2.159-0.432-2.947-1.216c-0.791-0.789-1.228-1.838-1.229-2.954
						c-0.001-1.116,0.433-2.166,1.222-2.956c0.788-0.794,1.839-1.231,2.959-1.231c1.111,0,2.156,0.432,2.943,1.217
						c0.792,0.79,1.229,1.84,1.231,2.958c0.001,1.115-0.432,2.163-1.22,2.951C167.005,56.505,165.953,56.943,164.831,56.943z
						 M164.836,49.586c-0.852,0-1.65,0.333-2.251,0.937c-0.601,0.602-0.931,1.4-0.93,2.249c0.001,0.849,0.333,1.646,0.935,2.247
						c1.201,1.197,3.299,1.191,4.492-0.013c0.601-0.601,0.93-1.397,0.929-2.244c-0.001-0.85-0.334-1.649-0.938-2.25
						C166.475,49.915,165.681,49.586,164.836,49.586z"/>
				</g>
			</g>
			<g>
				<g>
					<path fill="#2F292B" d="M131.709,88.08c-0.858,0-1.666-0.334-2.272-0.938c-1.261-1.255-1.267-3.3-0.014-4.558
						c1.221-1.219,3.341-1.221,4.556-0.009c1.258,1.252,1.264,3.296,0.013,4.554C133.384,87.742,132.573,88.08,131.709,88.08z
						 M131.707,82.637c-0.595,0-1.154,0.232-1.576,0.654c-0.863,0.865-0.858,2.275,0.011,3.143c0.841,0.836,2.306,0.833,3.14-0.009
						c0.863-0.868,0.858-2.277-0.009-3.142C132.854,82.866,132.299,82.637,131.707,82.637z"/>
				</g>
			</g>
			<g>
				<g>
					<path fill="#2F292B" d="M140.256,36.253c-0.132,0-0.259-0.052-0.353-0.146L117.28,13.58c-0.095-0.094-0.147-0.221-0.147-0.354
						s0.052-0.26,0.146-0.354L130.45-0.353c0.195-0.195,0.512-0.196,0.707-0.001l22.619,22.527c0.196,0.195,0.196,0.512,0.002,0.707
						L140.61,36.106C140.517,36.2,140.39,36.253,140.256,36.253L140.256,36.253z M118.34,13.224l21.914,21.823l12.463-12.517
						L130.806,0.708L118.34,13.224z"/>
				</g>
			</g>
			<g>
				<g>
					<path fill="#2F292B" d="M136.541,32.554c-0.128,0-0.255-0.048-0.353-0.146L117.28,13.58c-0.095-0.094-0.147-0.221-0.147-0.354
						s0.052-0.26,0.146-0.354L130.45-0.353c0.094-0.094,0.221-0.146,0.354-0.147h0.001c0.132,0,0.259,0.052,0.353,0.146
						l18.908,18.833c0.095,0.094,0.147,0.221,0.147,0.354s-0.052,0.26-0.146,0.354l-13.172,13.221
						C136.798,32.505,136.669,32.554,136.541,32.554z M118.34,13.224l18.2,18.124l12.466-12.512l-18.2-18.127L118.34,13.224z"/>
				</g>
			</g>
			<g>
				<g>
					<path fill="#2F292B" d="M185.664,37.567c-0.132,0-0.259-0.052-0.353-0.146l-4.367-4.351c-0.095-0.093-0.147-0.221-0.147-0.353
						c0-0.133,0.052-0.26,0.146-0.354l5.873-5.894c0.195-0.196,0.512-0.196,0.707-0.001l4.365,4.349
						c0.196,0.195,0.196,0.511,0.002,0.707l-5.871,5.896C185.925,37.514,185.798,37.566,185.664,37.567L185.664,37.567z
						 M182.004,32.715l3.659,3.645l5.165-5.187l-3.657-3.643L182.004,32.715z"/>
				</g>
			</g>
			<g>
				<g>
					<g>
						<path fill="#2F292B" d="M171.289-20.042c-0.128,0-0.255-0.048-0.353-0.146c-0.196-0.195-0.196-0.512-0.002-0.707l4.9-4.924
							c0.195-0.196,0.512-0.196,0.707-0.002c0.196,0.195,0.196,0.512,0.002,0.707l-4.9,4.924
							C171.546-20.091,171.417-20.042,171.289-20.042z"/>
					</g>
				</g>
				<g>
					<g>
						<path fill="#2F292B" d="M156.721,12.908c-0.132,0-0.259-0.052-0.353-0.146L140.401-3.143
							c-0.196-0.195-0.196-0.511-0.002-0.707l22.979-23.073c0.094-0.094,0.221-0.146,0.354-0.147h0.001
							c0.132,0,0.259,0.052,0.353,0.146l15.967,15.905c0.095,0.093,0.147,0.22,0.147,0.353s-0.052,0.26-0.146,0.354L157.075,12.76
							C156.981,12.854,156.854,12.907,156.721,12.908L156.721,12.908z M141.461-3.498l15.258,15.199l22.273-22.364l-15.259-15.2
							L141.461-3.498z"/>
					</g>
				</g>
				<g>
					<g>
						<path fill="#2F292B" d="M163.963-23.384c0.248,0.249,0.252,0.655,0.004,0.905c-0.25,0.247-0.652,0.247-0.904-0.002
							c-0.25-0.247-0.246-0.65,0-0.897C163.312-23.628,163.713-23.631,163.963-23.384z"/>
					</g>
					<g>
						<path fill="#2F292B" d="M163.517-21.794c-0.304,0-0.59-0.118-0.806-0.332c-0.215-0.212-0.333-0.495-0.334-0.798
							c-0.002-0.305,0.116-0.592,0.331-0.808c0.434-0.432,1.178-0.433,1.606-0.008c0.445,0.447,0.447,1.169,0.007,1.613
							C164.104-21.911,163.818-21.794,163.517-21.794z"/>
					</g>
				</g>
				<g>
					<g>
						<path fill="#2F292B" d="M162.008-21.42c0.248,0.249,0.25,0.651,0,0.9c-0.246,0.252-0.65,0.25-0.9,0.006
							c-0.248-0.249-0.252-0.654,0-0.905C161.355-21.667,161.756-21.668,162.008-21.42z"/>
					</g>
					<g>
						<path fill="#2F292B" d="M161.558-19.831c-0.301,0-0.585-0.116-0.8-0.325c-0.449-0.451-0.448-1.174-0.003-1.617
							c0.428-0.428,1.172-0.429,1.604-0.003c0.446,0.448,0.446,1.169,0.002,1.611C162.151-19.952,161.864-19.831,161.558-19.831z"/>
					</g>
				</g>
				<g>
					<g>
						<path fill="#2F292B" d="M160.053-19.455c0.25,0.248,0.25,0.65,0.004,0.9c-0.252,0.251-0.654,0.248-0.904,0.001
							c-0.248-0.248-0.25-0.651,0-0.901C159.402-19.704,159.805-19.704,160.053-19.455z"/>
					</g>
					<g>
						<path fill="#2F292B" d="M159.604-17.867c-0.303,0-0.588-0.118-0.804-0.331c-0.445-0.445-0.445-1.167-0.002-1.61
							c0.432-0.431,1.179-0.43,1.608,0c0.441,0.438,0.444,1.158,0.006,1.604C160.194-17.985,159.908-17.867,159.604-17.867z"/>
					</g>
				</g>
				<g>
					<g>
						<path fill="#2F292B" d="M144.332,0.567c-0.128,0-0.255-0.048-0.353-0.146c-0.196-0.195-0.196-0.511-0.002-0.707l22.982-23.067
							c0.195-0.196,0.512-0.196,0.707-0.001c0.196,0.195,0.196,0.511,0.002,0.707L144.687,0.42
							C144.589,0.518,144.46,0.567,144.332,0.567z"/>
					</g>
				</g>
			</g>
			<g>
				<g>
					<path fill="#2F292B" d="M145.574,26.667c0.338,0.335,0.338,0.88,0.002,1.218c-0.334,0.336-0.881,0.334-1.215,0.001
						c-0.336-0.332-0.338-0.878-0.004-1.216C144.695,26.334,145.236,26.334,145.574,26.667z"/>
				</g>
				<g>
					<path fill="#2F292B" d="M144.969,28.637c-0.363,0-0.704-0.141-0.961-0.396c-0.256-0.253-0.398-0.594-0.399-0.958
						c-0.001-0.363,0.139-0.705,0.394-0.963c0.521-0.518,1.408-0.516,1.923-0.007c0.259,0.256,0.401,0.597,0.403,0.96
						c0.001,0.364-0.14,0.708-0.397,0.966C145.675,28.495,145.334,28.637,144.969,28.637z M144.967,26.918
						c-0.096,0-0.188,0.038-0.257,0.107c-0.064,0.066-0.103,0.157-0.102,0.254c0,0.096,0.037,0.186,0.104,0.252
						c0.139,0.138,0.376,0.136,0.509,0.002c0.068-0.069,0.106-0.161,0.106-0.258c-0.001-0.096-0.038-0.185-0.105-0.252
						C145.154,26.956,145.063,26.918,144.967,26.918z"/>
				</g>
			</g>
			<g>
				<g>
					<path fill="#2F292B" d="M201.725,10.74c-0.128,0-0.255-0.048-0.353-0.146l-1.877-1.869c-0.196-0.195-0.196-0.512-0.002-0.708
						c0.195-0.195,0.512-0.196,0.707-0.001l1.877,1.869c0.196,0.195,0.196,0.512,0.002,0.708
						C201.981,10.69,201.853,10.74,201.725,10.74z"/>
				</g>
			</g>
			<g>
				<g>
					<path fill="#2F292B" d="M188.467,32.574c-0.128,0-0.255-0.048-0.353-0.146l-2.035-2.026c-0.196-0.195-0.196-0.512-0.002-0.708
						c0.195-0.195,0.512-0.196,0.707-0.001l2.035,2.026c0.196,0.195,0.196,0.512,0.002,0.708
						C188.724,32.524,188.595,32.574,188.467,32.574z"/>
				</g>
			</g>
			<g>
				<g>
					<path fill="#2F292B" d="M186.475,34.577c-0.128,0-0.255-0.048-0.353-0.146l-2.037-2.029c-0.196-0.195-0.196-0.511-0.002-0.707
						c0.195-0.196,0.512-0.196,0.707-0.001l2.037,2.029c0.196,0.195,0.196,0.511,0.002,0.707
						C186.731,34.528,186.603,34.577,186.475,34.577z"/>
				</g>
			</g>
			<g>
				<g>
					<path fill="#2F292B" d="M180.201,34.318c-0.128,0-0.255-0.048-0.353-0.146l-11.27-11.222c-0.095-0.094-0.147-0.221-0.147-0.354
						s0.052-0.26,0.146-0.354l8.066-8.098c0.195-0.196,0.512-0.196,0.707-0.001l11.271,11.224c0.095,0.094,0.147,0.221,0.147,0.354
						s-0.052,0.26-0.146,0.354l-8.068,8.096C180.458,34.269,180.329,34.318,180.201,34.318z M169.639,22.595L180.2,33.111
						l7.362-7.387l-10.563-10.518L169.639,22.595z"/>
				</g>
			</g>
			<g>
				<g>
					<path fill="#2F292B" d="M194.715,41.975c-0.132,0-0.259-0.052-0.353-0.146l-5.281-5.259c-0.095-0.094-0.147-0.221-0.147-0.354
						c0-0.132,0.052-0.26,0.146-0.354l8.068-8.101c0.195-0.195,0.512-0.196,0.707-0.001l5.279,5.258
						c0.196,0.195,0.196,0.512,0.002,0.708l-8.066,8.101C194.976,41.922,194.849,41.975,194.715,41.975L194.715,41.975z
						 M190.141,36.215l4.572,4.553l7.361-7.393l-4.571-4.552L190.141,36.215z"/>
				</g>
			</g>
			<g>
				<g>
					<path fill="#2F292B" d="M131.549,93.322l-3.883-1.031l0.298-2.549c-0.208-0.148-0.417-0.326-0.605-0.512
						c-0.193-0.195-0.362-0.396-0.522-0.6l-2.535,0.315l-1.045-3.884l2.356-1.01c0.057-0.527,0.194-1.052,0.397-1.544l-1.595-1.97
						l2.896-2.904l2.033,1.524c0.495-0.212,1.002-0.345,1.538-0.413l0.986-2.348l3.886,1.029l-0.304,2.545
						c0.207,0.152,0.418,0.328,0.607,0.516c0.194,0.197,0.368,0.4,0.526,0.609l2.529-0.324l1.041,3.885l-2.354,1.009
						c-0.047,0.478-0.178,0.988-0.392,1.536l1.596,1.973l-2.903,2.906l-2.032-1.521c-0.473,0.203-0.979,0.336-1.535,0.408
						L131.549,93.322z M128.76,91.547l2.207,0.586l0.66-1.563c0.128-0.319,0.429-0.55,0.782-0.593
						c0.463-0.061,0.89-0.172,1.298-0.34c0.258-0.121,0.688-0.09,0.969,0.128l1.332,0.997l1.655-1.658l-1.045-1.301
						c-0.217-0.291-0.266-0.656-0.138-0.97c0.179-0.46,0.29-0.888,0.337-1.302c0.044-0.348,0.27-0.646,0.588-0.783l1.561-0.668
						l-0.592-2.207l-1.803,0.216c-0.3,0-0.591-0.142-0.778-0.38c-0.138-0.184-0.284-0.354-0.442-0.514
						c-0.157-0.156-0.337-0.305-0.519-0.445c-0.272-0.209-0.413-0.544-0.374-0.893l0.201-1.686l-2.208-0.585l-0.663,1.56
						c-0.135,0.32-0.433,0.547-0.778,0.592c-0.45,0.057-0.875,0.169-1.302,0.342c-0.287,0.125-0.684,0.086-0.96-0.119l-1.341-1.005
						l-1.652,1.656l1.041,1.302c0.213,0.281,0.264,0.646,0.143,0.965c-0.174,0.421-0.288,0.857-0.344,1.311
						c-0.049,0.35-0.273,0.646-0.587,0.781l-1.561,0.67l0.594,2.207l1.816-0.215c0.298,0,0.577,0.139,0.766,0.381
						c0.135,0.172,0.278,0.344,0.44,0.508c0.155,0.152,0.333,0.303,0.517,0.443c0.276,0.209,0.421,0.554,0.377,0.898L128.76,91.547z
						"/>
				</g>
			</g>
			<g>
				<g>
					<path fill="#2F292B" d="M133.207,24.188c-0.128,0-0.256-0.049-0.354-0.146l-1.738-1.736c-0.195-0.195-0.195-0.512,0-0.707
						s0.512-0.195,0.707,0l1.738,1.736c0.195,0.195,0.195,0.512,0,0.707C133.463,24.139,133.335,24.188,133.207,24.188z"/>
				</g>
			</g>
			<g>
				<g>
					<path fill="#2F292B" d="M133.207,24.188c-0.128,0-0.255-0.048-0.353-0.146c-0.196-0.195-0.196-0.511-0.002-0.707l1.732-1.741
						c0.195-0.196,0.512-0.196,0.707-0.002c0.196,0.195,0.196,0.511,0.002,0.707l-1.732,1.741
						C133.464,24.139,133.335,24.188,133.207,24.188z"/>
				</g>
			</g>
			<g>
				<g>
					<g>
						<path fill="#2F292B" d="M141.332,16.033c-0.128,0-0.256-0.049-0.354-0.146l-1.74-1.736c-0.195-0.195-0.195-0.512,0-0.707
							c0.195-0.196,0.512-0.195,0.707-0.001l1.74,1.736c0.195,0.195,0.195,0.512,0,0.707
							C141.588,15.984,141.46,16.033,141.332,16.033z"/>
					</g>
				</g>
				<g>
					<g>
						<path fill="#2F292B" d="M139.596,17.769c-0.128,0-0.256-0.049-0.354-0.146c-0.195-0.195-0.195-0.512,0-0.707l1.736-1.736
							c0.195-0.195,0.512-0.195,0.707,0s0.195,0.512,0,0.707l-1.736,1.736C139.852,17.72,139.724,17.769,139.596,17.769z"/>
					</g>
				</g>
			</g>
			<g>
				<g>
					<path fill="#2F292B" d="M127.334,18.339c-0.128,0-0.256-0.049-0.353-0.146l-1.741-1.735c-0.196-0.195-0.196-0.511-0.002-0.707
						c0.195-0.196,0.514-0.195,0.707-0.001l1.741,1.735c0.196,0.195,0.196,0.511,0.002,0.707
						C127.591,18.291,127.462,18.339,127.334,18.339z"/>
				</g>
			</g>
			<g>
				<g>
					<path fill="#2F292B" d="M125.593,16.604c-0.128,0-0.256-0.049-0.354-0.146c-0.195-0.195-0.195-0.512,0-0.707l1.735-1.739
						c0.195-0.196,0.512-0.195,0.707-0.001c0.195,0.195,0.195,0.512,0,0.707l-1.735,1.739
						C125.849,16.555,125.721,16.604,125.593,16.604z"/>
				</g>
			</g>
			<g>
				<g>
					<g>
						<path fill="#2F292B" d="M135.455,10.181c-0.128,0-0.256-0.049-0.353-0.146l-1.74-1.734c-0.196-0.195-0.196-0.511-0.002-0.707
							c0.195-0.196,0.514-0.195,0.707-0.001l1.74,1.734c0.196,0.195,0.196,0.511,0.002,0.707
							C135.712,10.132,135.583,10.181,135.455,10.181z"/>
					</g>
				</g>
				<g>
					<g>
						<path fill="#2F292B" d="M131.988,10.19c-0.127,0-0.254-0.048-0.352-0.145c-0.196-0.194-0.198-0.511-0.004-0.708l1.727-1.743
							c0.194-0.196,0.511-0.197,0.707-0.003c0.196,0.194,0.198,0.511,0.004,0.708l-1.727,1.743
							C132.246,10.141,132.117,10.19,131.988,10.19z"/>
					</g>
				</g>
			</g>
			<g>
				<g>
					<g>
						<path fill="#2F292B" d="M87.492,79.732c-0.128,0-0.256-0.049-0.354-0.146c-0.195-0.195-0.195-0.512,0-0.707l40.572-40.613
							c0.195-0.195,0.512-0.195,0.707,0c0.195,0.195,0.195,0.512,0,0.707L87.846,79.586C87.748,79.684,87.62,79.732,87.492,79.732z"
							/>
					</g>
				</g>
				<g>
					<g>
						<g>
							<path fill="#2F292B" d="M92.568,84.805c-0.133,0-0.26-0.053-0.354-0.146L67.312,59.776c-0.195-0.195-0.195-0.512,0-0.707
								l40.568-40.611c0.195-0.195,0.512-0.195,0.707,0l24.904,24.878c0.195,0.195,0.195,0.512,0,0.707l-40.57,40.616
								C92.828,84.752,92.701,84.805,92.568,84.805L92.568,84.805z M68.373,59.422l24.195,24.176l39.863-39.908l-24.197-24.171
								L68.373,59.422z"/>
						</g>
					</g>
					<g>
						<g>
							<path fill="#2F292B" d="M122.744,65.184c-0.081,0-0.164-0.02-0.24-0.062l-6.84-3.74c-0.242-0.132-0.331-0.436-0.198-0.678
								s0.437-0.331,0.679-0.199l6.84,3.739c0.242,0.133,0.331,0.437,0.198,0.679C123.092,65.089,122.921,65.184,122.744,65.184z"/>
						</g>
					</g>
					<g>
						<g>
							<path fill="#2F292B" d="M113.963,73.977c-0.177,0-0.348-0.094-0.438-0.26l-3.748-6.844c-0.133-0.242-0.044-0.545,0.198-0.678
								c0.24-0.133,0.546-0.045,0.679,0.197l3.748,6.844c0.133,0.242,0.044,0.547-0.198,0.68
								C114.127,73.957,114.045,73.977,113.963,73.977z"/>
						</g>
					</g>
					<g>
						<g>
							<path fill="#2F292B" d="M112.58,75.363c-0.128,0-0.256-0.049-0.354-0.146c-0.195-0.194-0.195-0.512,0-0.707l11.578-11.586
								c0.195-0.195,0.512-0.195,0.707,0c0.195,0.195,0.195,0.512,0,0.708l-11.578,11.586
								C112.836,75.314,112.708,75.363,112.58,75.363z"/>
						</g>
					</g>
					<g>
						<g>
							<path fill="#2F292B" d="M110.385,63.242c-0.571,0-1.109-0.222-1.515-0.625c-0.834-0.839-0.835-2.202-0.005-3.041
								c0.818-0.814,2.231-0.81,3.042,0.001c0.835,0.835,0.835,2.196-0.001,3.034C111.499,63.019,110.959,63.242,110.385,63.242z
								 M110.386,59.947c-0.307,0-0.595,0.119-0.812,0.335c-0.442,0.448-0.442,1.179,0.004,1.628
								c0.431,0.428,1.188,0.429,1.622-0.006c0.446-0.446,0.446-1.173,0-1.62C110.982,60.067,110.693,59.947,110.386,59.947z"/>
						</g>
					</g>
				</g>
			</g>
			<g>
				<g>
					<g>
						<path fill="#2F292B" d="M226.27,10.73c-0.133,0-0.26-0.053-0.354-0.146l-53.342-53.342c-0.195-0.195-0.195-0.512,0-0.707
							l14.275-14.275c0.195-0.195,0.512-0.195,0.707,0L240.898-4.4c0.195,0.195,0.195,0.512,0,0.707l-14.275,14.276
							C226.529,10.677,226.402,10.73,226.27,10.73z M173.635-43.112L226.27,9.523l13.568-13.569L187.203-56.68L173.635-43.112z"/>
					</g>
				</g>
				<g>
					<g>
						<path fill="#2F292B" d="M196.217-19.475c-0.128,0-0.256-0.049-0.354-0.146c-0.195-0.195-0.195-0.512,0-0.707l14.199-14.199
							c0.195-0.195,0.512-0.195,0.707,0s0.195,0.512,0,0.707L196.57-19.622C196.473-19.524,196.345-19.475,196.217-19.475z"/>
					</g>
				</g>
				<g>
					<g>
						<path fill="#2F292B" d="M192.576-23.079c-0.128,0-0.256-0.049-0.354-0.146c-0.195-0.195-0.195-0.512,0-0.707l14.199-14.199
							c0.195-0.195,0.512-0.195,0.707,0s0.195,0.512,0,0.707L192.93-23.225C192.832-23.127,192.704-23.079,192.576-23.079z"/>
					</g>
				</g>
				<g>
					<g>
						<path fill="#2F292B" d="M204.768-15.67c-0.128,0-0.256-0.049-0.354-0.146c-0.195-0.195-0.195-0.512,0-0.707l5.666-5.666
							c0.195-0.195,0.512-0.195,0.707,0s0.195,0.512,0,0.707l-5.666,5.666C205.023-15.719,204.896-15.67,204.768-15.67z"/>
					</g>
				</g>
				<g>
					<g>
						<path fill="#2F292B" d="M223.55-3.927c-1.408,0-2.674-0.837-3.223-2.133c-0.365-0.861-0.373-1.812-0.023-2.679
							c0.351-0.867,1.018-1.545,1.878-1.91c0.436-0.185,0.896-0.279,1.366-0.279c1.407,0,2.672,0.837,3.221,2.133
							c0.753,1.776-0.078,3.834-1.853,4.588C224.479-4.021,224.021-3.927,223.55-3.927z M223.548-9.927
							c-0.336,0-0.664,0.067-0.976,0.199c-0.615,0.261-1.091,0.745-1.341,1.364c-0.25,0.619-0.244,1.298,0.016,1.913
							c0.522,1.234,2.032,1.855,3.278,1.324c1.268-0.539,1.86-2.009,1.323-3.277C225.456-9.33,224.553-9.927,223.548-9.927z"/>
					</g>
				</g>
				<g>
					<g>
						<path fill="#2F292B" d="M212.819-22.936c-0.604,0-1.146-0.359-1.382-0.916c-0.156-0.366-0.16-0.774-0.01-1.146
							c0.149-0.372,0.436-0.663,0.806-0.819c0.742-0.314,1.652,0.054,1.966,0.795c0.156,0.367,0.16,0.775,0.01,1.147
							c-0.15,0.371-0.436,0.662-0.805,0.818C213.218-22.976,213.021-22.936,212.819-22.936z M212.818-24.936
							c-0.066,0-0.133,0.014-0.195,0.04c-0.123,0.052-0.219,0.149-0.269,0.273c-0.05,0.124-0.049,0.259,0.004,0.381
							c0.105,0.249,0.404,0.373,0.655,0.267c0.123-0.052,0.218-0.149,0.269-0.273c0.05-0.124,0.049-0.259-0.004-0.382
							C213.2-24.816,213.02-24.936,212.818-24.936z"/>
					</g>
				</g>
				<g>
					<g>
						<path fill="#2F292B" d="M188.014-32.133c-0.133,0-0.26-0.053-0.354-0.146l-1.914-1.914c-0.094-0.094-0.146-0.221-0.146-0.354
							s0.053-0.26,0.146-0.354l9.959-9.958c0.094-0.094,0.221-0.146,0.354-0.146l0,0c0.133,0,0.26,0.053,0.354,0.146l1.912,1.913
							c0.195,0.195,0.195,0.512,0,0.707l-9.957,9.959C188.273-32.186,188.146-32.133,188.014-32.133z M186.807-34.547l1.207,1.207
							l9.25-9.252l-1.205-1.206L186.807-34.547z"/>
					</g>
				</g>
				<g>
					<g>
						<path fill="#2F292B" d="M203.316-26.575c-0.127,0-0.254-0.048-0.352-0.145l-3.641-3.604c-0.196-0.194-0.198-0.511-0.004-0.707
							c0.193-0.197,0.51-0.198,0.707-0.004l3.641,3.604c0.196,0.194,0.198,0.511,0.004,0.707
							C203.574-26.624,203.445-26.575,203.316-26.575z"/>
					</g>
				</g>
			</g>
		</g>
	</g>
</g>
</svg>
