<?xml version="1.0" encoding="utf-8"?>
<!-- Generator: Adobe Illustrator 16.0.0, SVG Export Plug-In . SVG Version: 6.00 Build 0)  -->
<!DOCTYPE svg PUBLIC "-//W3C//DTD SVG 1.1//EN" "http://www.w3.org/Graphics/SVG/1.1/DTD/svg11.dtd">
<svg version="1.1" id="Layer_1" xmlns="http://www.w3.org/2000/svg" xmlns:xlink="http://www.w3.org/1999/xlink" x="0px" y="0px"
	 width="124px" height="124px" viewBox="0 0 124 124" enable-background="new 0 0 124 124" xml:space="preserve">
<g opacity="0.09" enable-background="new    ">
	<g>
		<defs>
			<rect id="SVGID_1_" width="124" height="124"/>
		</defs>
		<clipPath id="SVGID_2_">
			<use xlink:href="#SVGID_1_"  overflow="visible"/>
		</clipPath>
		<g clip-path="url(#SVGID_2_)">
			<path fill="#FFFFFF" d="M-0.5,110.514c0,0.133,0.053,0.26,0.147,0.354l2.229,2.217c0.098,0.098,0.225,0.145,0.353,0.145
				c0.127,0,0.256-0.049,0.354-0.146l33.326-33.465c0.194-0.196,0.194-0.514-0.002-0.707l-2.227-2.219
				c-0.094-0.094-0.221-0.146-0.353-0.146h-0.001c-0.133,0-0.26,0.053-0.354,0.146l-2.001,2.01L13.412,61.214
				c-0.094-0.094-0.221-0.146-0.353-0.146h-0.001c-0.133,0.001-0.26,0.053-0.354,0.147l-28.617,28.739
				c-0.194,0.196-0.194,0.513,0.002,0.708l17.56,17.487l-2.002,2.011C-0.448,110.253-0.5,110.381-0.5,110.514z M2.352,107.439
				l-17.204-17.133l27.913-28.032l17.203,17.136L18.96,90.763L2.352,107.439z M15.084,96.072l16.244-16.309
				c0.003-0.004,0.004-0.009,0.008-0.012l1.991-2l1.519,1.514L2.227,112.021l-1.52-1.51L15.084,96.072z"/>
			<path fill="#FFFFFF" d="M84.725,26.799c1.111,0,2.142-0.417,2.902-1.177c1.062-1.071,2.628-2.641,3.954-3.972l1.28-1.285
				c1.636-1.644,1.543-4.4-0.207-6.146L81.184,2.789c-0.845-0.836-1.968-1.297-3.164-1.297c-1.205,0-2.334,0.467-3.179,1.314
				l-4.848,4.868c-1.744,1.754-1.737,4.597,0.014,6.339L81.482,25.44C82.348,26.304,83.529,26.799,84.725,26.799z M70.702,8.38
				l4.848-4.867c0.656-0.658,1.532-1.02,2.47-1.02c0.931,0,1.804,0.358,2.459,1.006l11.469,11.43
				c1.359,1.356,1.451,3.479,0.203,4.731l-1.279,1.285c-1.326,1.331-2.891,2.902-3.953,3.972c-1.199,1.196-3.434,1.108-4.73-0.185
				L70.712,13.304C69.352,11.951,69.348,9.742,70.702,8.38z"/>
			<path fill="#FFFFFF" d="M44.417-23.4l4.548-4.569l2.515,2.505l-4.548,4.567c-0.194,0.196-0.194,0.513,0.002,0.708
				c0.098,0.098,0.225,0.146,0.353,0.146s0.257-0.049,0.354-0.148l4.548-4.567l12.034,11.986L41.951,9.594l-2.192-2.188
				c-0.195-0.194-0.512-0.195-0.707,0.001c-0.195,0.195-0.195,0.512,0,0.707l2.547,2.541c0.094,0.093,0.221,0.146,0.354,0.146
				c0.134,0,0.261-0.053,0.355-0.147L65.285-12.42c0.193-0.195,0.193-0.512-0.002-0.707L52.546-25.812
				c-0.002-0.002-0.003-0.006-0.005-0.008s-0.006-0.003-0.008-0.005l-3.217-3.204c-0.094-0.094-0.221-0.146-0.353-0.146h-0.001
				c-0.133,0-0.26,0.053-0.354,0.147l-4.9,4.924c-0.194,0.196-0.194,0.512,0.002,0.707C43.905-23.204,44.222-23.204,44.417-23.4z"/>
			<path fill="#FFFFFF" d="M57.531,52.388c-0.008-4.553-1.788-8.83-5.013-12.042c-3.217-3.204-7.489-4.968-12.029-4.968
				c-4.567,0-8.856,1.782-12.078,5.017c-3.212,3.225-4.977,7.508-4.968,12.06c0.009,4.553,1.79,8.83,5.017,12.042
				c3.215,3.204,7.486,4.968,12.025,4.968c4.567,0,8.856-1.781,12.078-5.016C55.775,61.224,57.54,56.941,57.531,52.388z
				 M40.485,68.464c-4.272,0-8.293-1.659-11.32-4.676c-3.036-3.024-4.713-7.05-4.722-11.335c-0.009-4.285,1.653-8.317,4.677-11.352
				c3.032-3.046,7.07-4.723,11.369-4.723c4.274,0,8.295,1.662,11.324,4.676c3.034,3.023,4.71,7.048,4.718,11.334
				c0.009,4.286-1.653,8.318-4.677,11.353C48.821,66.786,44.783,68.464,40.485,68.464z"/>
			<path fill="#FFFFFF" d="M40.833,46.876c-1.576,0-3.059,0.616-4.174,1.734c-2.288,2.301-2.28,6.034,0.018,8.323
				c1.112,1.109,2.588,1.719,4.156,1.719c1.574,0,3.056-0.614,4.171-1.731c2.29-2.303,2.28-6.039-0.021-8.329
				C43.874,47.485,42.399,46.876,40.833,46.876z M44.297,56.215c-0.926,0.927-2.156,1.437-3.464,1.437
				c-1.302,0-2.527-0.507-3.451-1.427c-1.907-1.9-1.913-4.999-0.014-6.909c0.925-0.928,2.156-1.439,3.465-1.439
				c1.301,0,2.523,0.506,3.445,1.424C46.189,51.202,46.196,54.304,44.297,56.215z"/>
			<path fill="#FFFFFF" d="M40.836,48.586c-1.119,0-2.171,0.437-2.96,1.231c-0.789,0.79-1.223,1.84-1.221,2.956
				c0.001,1.116,0.438,2.165,1.229,2.954c0.787,0.784,1.834,1.216,2.946,1.216c1.121,0,2.173-0.438,2.959-1.231
				c0.789-0.789,1.222-1.838,1.221-2.953c-0.002-1.118-0.44-2.167-1.232-2.956C42.992,49.018,41.947,48.586,40.836,48.586z
				 M43.08,55.006c-1.192,1.205-3.291,1.209-4.49,0.013c-0.603-0.601-0.935-1.398-0.936-2.247s0.328-1.647,0.929-2.249
				c0.601-0.604,1.4-0.937,2.252-0.937c0.845,0,1.639,0.329,2.237,0.925c0.603,0.601,0.936,1.399,0.938,2.249
				C44.011,53.608,43.682,54.405,43.08,55.006z"/>
			<path fill="#FFFFFF" d="M5.421,82.583c-1.253,1.258-1.247,3.303,0.014,4.56c0.608,0.604,1.415,0.938,2.273,0.938
				c0.865,0,1.676-0.338,2.282-0.952c1.253-1.258,1.247-3.301-0.012-4.554C8.758,81.359,6.64,81.365,5.421,82.583z M9.28,86.426
				c-0.833,0.84-2.299,0.844-3.14,0.008c-0.869-0.867-0.874-2.277-0.011-3.143c0.422-0.422,0.981-0.654,1.577-0.654
				c0.591,0,1.148,0.229,1.567,0.646C10.141,84.148,10.144,85.557,9.28,86.426z"/>
			<path fill="#FFFFFF" d="M12.186,32.408c0,0,0.001,0.001,0.002,0.001l3.713,3.697c0.094,0.094,0.221,0.146,0.353,0.146
				c0.134,0,0.261-0.053,0.354-0.147L29.777,22.88c0.194-0.195,0.194-0.512-0.002-0.707L7.156-0.354
				C7.062-0.448,6.935-0.5,6.803-0.5H6.802c-0.133,0.001-0.26,0.054-0.354,0.147l-13.17,13.225
				c-0.194,0.196-0.194,0.513,0.002,0.708L12.186,32.408z M16.252,35.047l-3.005-2.993L25.713,19.54l3.002,2.99L16.252,35.047z
				 M6.804,0.708l18.2,18.128L12.538,31.348L-5.66,13.224L6.804,0.708z"/>
			<path fill="#FFFFFF" d="M61.662,37.567c0.134-0.001,0.261-0.053,0.355-0.147l5.872-5.896c0.193-0.196,0.193-0.512-0.002-0.707
				l-4.009-3.996l0.743-0.745c0.094-0.094,0.146-0.221,0.146-0.354c0-0.133-0.053-0.26-0.147-0.354L53.348,14.143
				c-0.195-0.195-0.512-0.195-0.707,0.001l-8.066,8.098c-0.094,0.094-0.146,0.221-0.146,0.354c0,0.133,0.052,0.26,0.147,0.354
				l11.27,11.222c0.098,0.098,0.225,0.146,0.353,0.146c0.128,0,0.257-0.049,0.354-0.146l0.746-0.748l4.01,3.997
				C61.403,37.515,61.53,37.567,61.662,37.567z M56.199,33.111L45.637,22.595l7.36-7.389l10.563,10.518l-0.734,0.737
				c-0.003,0.003-0.008,0.004-0.012,0.008l-5.873,5.894c-0.002,0.002-0.003,0.006-0.005,0.008L56.199,33.111z M63.172,27.531
				l3.654,3.642l-5.165,5.187l-3.657-3.645L63.172,27.531z"/>
			<path fill="#FFFFFF" d="M32.368,12.762c0.094,0.094,0.221,0.146,0.353,0.146c0.133-0.001,0.26-0.054,0.354-0.148l22.976-23.072
				c0.094-0.094,0.146-0.221,0.146-0.354c0-0.132-0.052-0.26-0.147-0.353L40.086-26.924c-0.094-0.094-0.221-0.146-0.353-0.146
				h-0.001c-0.133,0.001-0.26,0.053-0.354,0.147L16.398-3.85c-0.094,0.094-0.146,0.221-0.146,0.354c0,0.133,0.052,0.26,0.147,0.354
				L32.368,12.762z M32.719,11.701L21.039,0.067l22.276-22.362L54.99-10.663L32.719,11.701z M39.733-25.863L42.606-23L20.329-0.64
				l-2.87-2.858L39.733-25.863z"/>
			<path fill="#FFFFFF" d="M39.516-21.794c0.302,0,0.588-0.117,0.807-0.335c0.437-0.444,0.434-1.166-0.009-1.611
				c-0.429-0.424-1.173-0.422-1.604,0.007c-0.216,0.216-0.335,0.502-0.334,0.807c0,0.303,0.119,0.588,0.334,0.799
				C38.925-21.912,39.211-21.794,39.516-21.794z"/>
			<path fill="#FFFFFF" d="M37.556-19.831c0.306,0,0.593-0.121,0.802-0.335c0.216-0.215,0.335-0.5,0.335-0.804
				c0-0.304-0.119-0.589-0.335-0.805c-0.428-0.425-1.169-0.43-1.607,0.003c-0.442,0.444-0.442,1.167,0.005,1.616
				C36.971-19.947,37.255-19.831,37.556-19.831z"/>
			<path fill="#FFFFFF" d="M34.799-18.198c0.216,0.213,0.501,0.331,0.804,0.331s0.589-0.118,0.806-0.335
				c0.44-0.443,0.439-1.164-0.004-1.606c-0.429-0.43-1.178-0.43-1.606,0C34.355-19.365,34.354-18.643,34.799-18.198z"/>
			<path fill="#FFFFFF" d="M21.924,26.31c-0.519-0.509-1.408-0.507-1.921,0.007c-0.256,0.259-0.398,0.602-0.396,0.967
				c0.002,0.363,0.144,0.704,0.401,0.957c0.257,0.255,0.598,0.396,0.96,0.396c0.364,0,0.705-0.142,0.963-0.4
				c0.257-0.258,0.398-0.602,0.397-0.966C22.326,26.908,22.184,26.567,21.924,26.31z"/>
			<path fill="#FFFFFF" d="M76.198,8.016c-0.195-0.195-0.513-0.194-0.707,0.001c-0.194,0.196-0.194,0.513,0.002,0.708l1.877,1.869
				c0.098,0.098,0.226,0.146,0.353,0.146c0.129,0,0.256-0.05,0.354-0.147c0.194-0.196,0.194-0.513-0.002-0.708L76.198,8.016z"/>
			<path fill="#FFFFFF" d="M64.111,32.428c0.098,0.097,0.226,0.146,0.354,0.146s0.258-0.049,0.354-0.147
				c0.195-0.196,0.195-0.512-0.002-0.707l-2.032-2.026c-0.193-0.194-0.512-0.195-0.707,0.001c-0.194,0.196-0.194,0.512,0.002,0.707
				L64.111,32.428z"/>
			<path fill="#FFFFFF" d="M62.473,34.577c0.128,0,0.255-0.049,0.354-0.147c0.194-0.196,0.194-0.512-0.002-0.707l-2.037-2.029
				c-0.195-0.195-0.512-0.195-0.707,0.001c-0.194,0.196-0.194,0.512,0.002,0.707l2.037,2.029
				C62.218,34.529,62.345,34.577,62.473,34.577z"/>
			<path fill="#FFFFFF" d="M70.361,41.829c0.095,0.094,0.222,0.146,0.354,0.146c0.135,0,0.262-0.053,0.355-0.148l8.063-8.102
				c0.194-0.195,0.194-0.512-0.002-0.707l-5.278-5.258c-0.095-0.094-0.222-0.146-0.354-0.146c-0.133,0.001-0.26,0.053-0.354,0.146
				l-8.066,8.101c-0.094,0.094-0.146,0.222-0.146,0.354c0,0.133,0.053,0.26,0.147,0.354L70.361,41.829z M73.501,28.823l4.571,4.552
				l-7.359,7.393l-4.572-4.553L73.501,28.823z"/>
			<path fill="#FFFFFF" d="M13.797,85.666l2.354-1.009l-1.039-3.886l-2.531,0.322c-0.159-0.208-0.331-0.41-0.526-0.609
				c-0.191-0.188-0.4-0.362-0.605-0.514l0.304-2.545l-3.888-1.029L6.88,78.745c-0.536,0.067-1.043,0.2-1.536,0.413l-2.032-1.524
				l-2.898,2.904l1.594,1.971c-0.203,0.494-0.338,1.019-0.395,1.543l-2.357,1.011L0.3,88.945l2.535-0.315
				c0.159,0.203,0.33,0.404,0.522,0.601c0.187,0.184,0.398,0.363,0.608,0.512l-0.302,2.549l3.884,1.031l0.988-2.354
				c0.557-0.072,1.064-0.207,1.535-0.408l2.03,1.521l2.9-2.906l-1.593-1.974C13.619,86.659,13.75,86.148,13.797,85.666z
				 M13.662,89.104l-1.656,1.658l-1.333-1c-0.282-0.215-0.703-0.248-0.969-0.123c-0.404,0.166-0.83,0.277-1.295,0.338
				c-0.352,0.043-0.654,0.274-0.781,0.592l-0.663,1.564l-2.206-0.586l0.199-1.689c0.039-0.342-0.107-0.686-0.378-0.891
				c-0.183-0.14-0.363-0.293-0.517-0.443c-0.161-0.164-0.306-0.338-0.439-0.506c-0.188-0.244-0.467-0.385-0.768-0.385L1.04,87.848
				l-0.593-2.207l1.563-0.67c0.313-0.136,0.536-0.433,0.585-0.781c0.056-0.451,0.169-0.889,0.342-1.311
				c0.121-0.318,0.07-0.684-0.143-0.965l-1.041-1.303l1.652-1.655l1.339,1.003c0.275,0.207,0.673,0.246,0.961,0.121
				c0.427-0.173,0.852-0.285,1.302-0.342c0.345-0.045,0.643-0.272,0.778-0.592l0.663-1.561l2.21,0.585l-0.201,1.687
				c-0.039,0.347,0.1,0.68,0.374,0.895c0.184,0.141,0.362,0.289,0.519,0.443c0.159,0.16,0.303,0.332,0.442,0.514
				c0.187,0.238,0.477,0.38,0.776,0.38l1.805-0.216l0.59,2.207l-1.562,0.67c-0.317,0.139-0.542,0.436-0.586,0.781
				c-0.048,0.419-0.158,0.848-0.333,1.297c-0.133,0.316-0.084,0.686,0.136,0.975L13.662,89.104z"/>
			<path fill="#FFFFFF" d="M10.584,21.594L9.203,22.98L7.82,21.599c-0.195-0.195-0.512-0.195-0.707,0
				c-0.195,0.195-0.195,0.512,0,0.707l1.738,1.736c0.046,0.046,0.1,0.079,0.156,0.103c0.063,0.028,0.13,0.043,0.198,0.043
				c0.064,0,0.128-0.012,0.188-0.037c0.061-0.024,0.118-0.061,0.167-0.11l1.733-1.741c0.194-0.196,0.194-0.512-0.002-0.707
				C11.096,21.398,10.779,21.398,10.584,21.594z"/>
			<path fill="#FFFFFF" d="M16.622,15.534l-1.382,1.382c-0.195,0.195-0.195,0.512,0,0.707c0.098,0.097,0.226,0.146,0.354,0.146
				c0.128,0,0.256-0.049,0.353-0.146l1.736-1.736c0.098-0.098,0.146-0.226,0.146-0.354c0-0.128-0.048-0.256-0.146-0.354l-1.74-1.736
				c-0.195-0.194-0.512-0.195-0.707,0.001c-0.195,0.195-0.195,0.512,0,0.707L16.622,15.534z"/>
			<path fill="#FFFFFF" d="M2.301,16.103l1.379-1.385c0.194-0.196,0.194-0.513-0.002-0.708c-0.195-0.195-0.512-0.195-0.707,0.001
				L1.239,15.75c-0.102,0.103-0.146,0.238-0.142,0.372c0.004,0.123,0.05,0.244,0.143,0.336l1.738,1.735
				c0.098,0.097,0.226,0.146,0.354,0.146s0.256-0.048,0.353-0.147c0.195-0.195,0.195-0.512,0-0.707L2.301,16.103z"/>
			<path fill="#FFFFFF" d="M10.068,7.593C10.068,7.593,10.067,7.593,10.068,7.593L10.068,7.593c-0.023-0.023-0.051-0.033-0.076-0.05
				c-0.03-0.021-0.057-0.046-0.09-0.059c-0.027-0.011-0.056-0.01-0.084-0.017c-0.035-0.007-0.068-0.02-0.104-0.02
				c-0.02,0-0.038,0.009-0.058,0.011C9.611,7.464,9.567,7.467,9.525,7.484C9.519,7.487,9.513,7.494,9.507,7.497
				C9.455,7.521,9.404,7.551,9.361,7.594c0,0,0,0.001-0.001,0.001l0,0L7.633,9.338C7.438,9.534,7.44,9.851,7.636,10.045
				c0.098,0.097,0.225,0.145,0.352,0.145c0.129,0,0.258-0.049,0.356-0.147l1.374-1.387l1.382,1.379
				c0.098,0.097,0.226,0.146,0.354,0.146s0.256-0.049,0.353-0.147c0.195-0.195,0.195-0.512,0-0.707L10.068,7.593z"/>
			<path fill="#FFFFFF" d="M-31.786,84.659c0.094,0.093,0.221,0.146,0.354,0.146c0.133,0,0.26-0.053,0.354-0.146l17.177-17.196
				l3.247,5.928l-1.12,1.12c-0.195,0.195-0.195,0.514,0,0.707c0.098,0.098,0.226,0.146,0.354,0.146s0.256-0.049,0.353-0.146
				L0.511,63.632c0.195-0.196,0.195-0.513,0-0.708c-0.195-0.195-0.512-0.195-0.707,0l-1.143,1.144l-5.933-3.243L9.492,44.042
				c0.195-0.195,0.195-0.512,0-0.707l-24.905-24.876c-0.195-0.195-0.512-0.195-0.707,0L-56.69,59.07
				c-0.195,0.195-0.195,0.512,0,0.707L-31.786,84.659z M-2.076,64.805l-7.842,7.848l-3.247-5.928l5.156-5.162L-2.076,64.805z
				 M-31.432,83.598l-4.369-4.365L4.063,39.325l4.369,4.364L-31.432,83.598z M-15.765,19.518l19.121,19.1l-39.865,39.907
				l-19.12-19.104L-15.765,19.518z"/>
			<path fill="#FFFFFF" d="M-12.093,59.577c-0.811-0.812-2.225-0.815-3.041-0.002c-0.832,0.838-0.831,2.202,0.004,3.042
				c0.406,0.402,0.944,0.625,1.515,0.625c0.574,0,1.114-0.223,1.521-0.631C-11.258,61.773-11.258,60.412-12.093,59.577z
				 M-12.8,61.904c-0.434,0.435-1.192,0.434-1.622,0.006c-0.446-0.45-0.447-1.181-0.004-1.628c0.217-0.216,0.505-0.335,0.812-0.335
				c0.307,0,0.596,0.12,0.814,0.337C-12.354,60.731-12.354,61.458-12.8,61.904z"/>
			<path fill="#FFFFFF" d="M101.914,10.584c0.094,0.093,0.221,0.146,0.354,0.146s0.26-0.053,0.354-0.147l14.275-14.276
				c0.194-0.195,0.194-0.512,0-0.707L86.771-34.524c-0.001-0.001-0.001-0.002-0.002-0.002s-0.002-0.001-0.002-0.001L63.555-57.74
				c-0.195-0.195-0.513-0.195-0.707,0L48.572-43.465c-0.195,0.195-0.195,0.512,0,0.707L101.914,10.584z M85.709-34.173l-6.395,6.394
				l-2.932-2.9l6.409-6.41L85.709-34.173z M75.676-29.973l2.932,2.9l-6.468,6.468l-2.916-2.917L75.676-29.973z M102.268,9.523
				L72.847-19.898l13.569-13.567l29.42,29.42L102.268,9.523z M63.201-56.68l18.884,18.884l-6.757,6.757
				c-0.004,0.003-0.009,0.004-0.012,0.008c-0.003,0.003-0.004,0.007-0.007,0.011l-6.793,6.792L49.633-43.112L63.201-56.68z"/>
			<path fill="#FFFFFF" d="M86.078-22.189l-5.666,5.666c-0.195,0.195-0.195,0.512,0,0.707c0.098,0.097,0.227,0.146,0.354,0.146
				c0.129,0,0.256-0.049,0.354-0.146l5.666-5.666c0.195-0.195,0.195-0.512,0-0.707S86.273-22.384,86.078-22.189z"/>
			<path fill="#FFFFFF" d="M99.548-3.927c0.472,0,0.931-0.094,1.366-0.279c1.775-0.754,2.607-2.812,1.854-4.589
				c-0.551-1.295-1.815-2.132-3.223-2.132c-0.47,0-0.929,0.094-1.365,0.279c-1.775,0.753-2.609,2.811-1.854,4.589
				C96.876-4.764,98.143-3.927,99.548-3.927z M98.57-9.727c0.312-0.133,0.641-0.2,0.976-0.2c1.006,0,1.909,0.598,2.302,1.524
				c0.539,1.269-0.056,2.739-1.324,3.277c-1.244,0.53-2.754-0.089-3.278-1.324C96.707-7.719,97.301-9.189,98.57-9.727z"/>
			<path fill="#FFFFFF" d="M88.816-22.936c0.203,0,0.399-0.04,0.586-0.119c0.761-0.322,1.117-1.205,0.796-1.968
				c-0.316-0.741-1.224-1.107-1.968-0.794c-0.762,0.321-1.117,1.203-0.795,1.965C87.671-23.295,88.213-22.936,88.816-22.936z
				 M88.621-24.895c0.062-0.027,0.129-0.041,0.195-0.041c0.203,0,0.383,0.12,0.461,0.304c0.106,0.255-0.012,0.549-0.266,0.657
				c-0.253,0.107-0.551-0.018-0.654-0.265C88.249-24.494,88.367-24.788,88.621-24.895z"/>
			<path fill="#FFFFFF" d="M74.324-42.238c0.093-0.094,0.146-0.221,0.146-0.354c0-0.133-0.053-0.26-0.146-0.354l-1.914-1.913
				c-0.195-0.195-0.512-0.195-0.707,0l-9.959,9.958c-0.093,0.094-0.146,0.221-0.146,0.354c0,0.133,0.052,0.26,0.146,0.354
				l1.914,1.914c0.094,0.093,0.221,0.146,0.354,0.146s0.26-0.053,0.354-0.146L74.324-42.238z M62.805-34.547l9.252-9.251
				l1.207,1.206l-9.252,9.252L62.805-34.547z"/>
			<path fill="#FFFFFF" d="M33.68,200.682c-0.094-0.093-0.221-0.146-0.353-0.146h-0.001c-0.133,0.001-0.26,0.053-0.354,0.147
				l-2.001,2.01l-17.559-17.488c-0.094-0.094-0.221-0.146-0.353-0.146h-0.001c-0.133,0.002-0.26,0.053-0.354,0.147l-28.617,28.739
				c-0.194,0.195-0.194,0.513,0.002,0.707l17.56,17.489l-2.002,2.011c-0.094,0.094-0.146,0.221-0.146,0.354s0.053,0.26,0.147,0.354
				l2.229,2.216c0.098,0.097,0.225,0.146,0.353,0.146c0.127,0,0.256-0.05,0.354-0.147l33.326-33.466
				c0.194-0.196,0.194-0.514-0.002-0.709L33.68,200.682z M2.353,231.43l-17.205-17.133l27.913-28.031l17.205,17.136l-6.046,6.072
				L2.353,231.43z M2.227,236.014l-1.52-1.512l11.865-11.916l18.756-18.832c0.003-0.004,0.004-0.009,0.008-0.012l1.991-2
				l1.519,1.513L2.227,236.014z"/>
			<path fill="#FFFFFF" d="M81.184,126.782c-0.844-0.837-1.967-1.298-3.162-1.298c-1.205,0-2.334,0.467-3.18,1.313l-4.848,4.868
				c-0.842,0.846-1.305,1.973-1.303,3.172c0.004,1.201,0.47,2.326,1.315,3.166l11.476,11.428c0.865,0.863,2.047,1.357,3.242,1.357
				c1.111,0,2.142-0.417,2.903-1.175c1.084-1.093,2.688-2.702,4.031-4.05l1.202-1.207c1.638-1.644,1.545-4.4-0.207-6.146
				L81.184,126.782z M92.15,143.65l-1.201,1.207c-1.344,1.348-2.948,2.959-4.031,4.05c-1.199,1.196-3.434,1.108-4.73-0.185
				l-11.476-11.428c-0.657-0.652-1.019-1.525-1.021-2.458c-0.002-0.935,0.357-1.81,1.011-2.466l4.848-4.867
				c0.656-0.658,1.532-1.02,2.47-1.02c0.931,0,1.804,0.357,2.457,1.007l11.471,11.428C93.307,140.275,93.398,142.398,92.15,143.65z"
				/>
			<path fill="#FFFFFF" d="M41.599,134.646c0.094,0.094,0.221,0.146,0.354,0.146c0.134,0,0.261-0.054,0.355-0.148l22.977-23.076
				c0.193-0.194,0.193-0.512-0.002-0.707L49.316,94.96c-0.094-0.093-0.221-0.146-0.353-0.146h-0.001
				c-0.133,0-0.26,0.053-0.354,0.147l-4.9,4.922c-0.194,0.195-0.194,0.513,0.002,0.707c0.195,0.195,0.512,0.195,0.707-0.002
				l4.548-4.567l2.516,2.506l-4.548,4.568c-0.194,0.195-0.194,0.514,0.002,0.707c0.098,0.098,0.225,0.146,0.353,0.146
				s0.257-0.051,0.354-0.147l4.548-4.568l12.033,11.987l-22.271,22.365l-2.192-2.188c-0.195-0.194-0.512-0.195-0.707,0
				c-0.195,0.195-0.195,0.513,0,0.707L41.599,134.646z"/>
			<path fill="#FFFFFF" d="M40.49,159.368c-4.567,0-8.856,1.782-12.079,5.018c-3.212,3.226-4.977,7.509-4.968,12.06
				c0.009,4.553,1.79,8.83,5.017,12.043c3.215,3.203,7.486,4.968,12.025,4.968c4.567,0,8.856-1.782,12.078-5.017
				c6.632-6.66,6.611-17.472-0.045-24.104C49.302,161.132,45.029,159.368,40.49,159.368z M51.854,187.734
				c-3.033,3.046-7.071,4.723-11.369,4.723c-4.272,0-8.293-1.661-11.32-4.677c-3.036-3.023-4.713-7.05-4.722-11.335
				c-0.009-4.285,1.653-8.317,4.677-11.353c3.033-3.046,7.07-4.724,11.37-4.724c4.274,0,8.294,1.66,11.323,4.677
				C58.079,171.289,58.097,181.467,51.854,187.734z"/>
			<path fill="#FFFFFF" d="M40.833,170.868c-1.577,0-3.06,0.616-4.174,1.733c-2.288,2.301-2.28,6.034,0.018,8.323
				c1.111,1.109,2.588,1.718,4.155,1.718c1.575,0,3.057-0.613,4.172-1.729c2.29-2.304,2.28-6.039-0.021-8.328
				C43.874,171.479,42.399,170.868,40.833,170.868z M44.297,180.206c-0.927,0.926-2.157,1.437-3.465,1.437
				c-1.302,0-2.526-0.507-3.45-1.427c-1.908-1.899-1.913-5-0.014-6.909c0.925-0.928,2.155-1.439,3.465-1.439
				c1.3,0,2.523,0.506,3.445,1.425C46.189,175.191,46.196,178.295,44.297,180.206z"/>
			<path fill="#FFFFFF" d="M40.835,172.578c-1.119,0-2.171,0.436-2.961,1.23c-1.626,1.631-1.622,4.281,0.01,5.908
				c0.787,0.785,1.834,1.217,2.946,1.217c1.121,0,2.173-0.438,2.958-1.231c0.788-0.789,1.222-1.837,1.221-2.951
				c-0.002-1.117-0.439-2.168-1.232-2.957C42.991,173.01,41.946,172.578,40.835,172.578z M43.08,178.996
				c-1.193,1.203-3.289,1.209-4.49,0.013c-1.241-1.237-1.245-3.255-0.007-4.495c0.601-0.604,1.4-0.937,2.252-0.937
				c0.845,0,1.639,0.327,2.237,0.925c0.603,0.602,0.936,1.398,0.938,2.249C44.011,177.598,43.681,178.395,43.08,178.996z"/>
			<path fill="#FFFFFF" d="M5.421,206.574c-1.252,1.258-1.247,3.303,0.014,4.559c0.608,0.605,1.415,0.938,2.273,0.938
				c0.865,0,1.676-0.338,2.282-0.949c1.252-1.258,1.247-3.303-0.012-4.557C8.758,205.352,6.64,205.355,5.421,206.574z M9.28,210.416
				c-0.833,0.842-2.3,0.844-3.139,0.009c-0.87-0.868-0.875-2.278-0.012-3.144c0.421-0.422,0.981-0.654,1.577-0.654
				c0.591,0,1.148,0.23,1.567,0.646C10.141,208.139,10.144,209.548,9.28,210.416z"/>
			<path fill="#FFFFFF" d="M12.186,156.4c0,0,0.001,0.001,0.001,0.001l3.713,3.698c0.094,0.092,0.221,0.145,0.353,0.145
				c0.134,0,0.261-0.053,0.355-0.146l13.168-13.228c0.194-0.195,0.194-0.513-0.002-0.707L7.156,123.637
				c-0.094-0.094-0.221-0.146-0.353-0.146H6.802c-0.133,0.001-0.26,0.053-0.354,0.146l-13.17,13.225
				c-0.194,0.197-0.194,0.514,0.002,0.709L12.186,156.4z M16.252,159.037l-3.005-2.993l12.467-12.514l3.001,2.989L16.252,159.037z
				 M6.804,124.697l18.2,18.129l-12.466,12.512L-5.66,137.214L6.804,124.697z"/>
			<path fill="#FFFFFF" d="M67.887,154.807l-4.01-3.995l0.743-0.745c0.094-0.094,0.146-0.221,0.146-0.354s-0.052-0.26-0.146-0.354
				l-11.271-11.226c-0.195-0.192-0.512-0.194-0.707,0.002l-8.066,8.097c-0.094,0.095-0.146,0.222-0.146,0.354
				c0,0.134,0.052,0.261,0.147,0.354l11.27,11.223c0.098,0.097,0.225,0.145,0.353,0.145c0.128,0,0.257-0.049,0.353-0.146
				l0.747-0.749l4.011,3.997c0.094,0.094,0.221,0.146,0.353,0.146c0.134,0,0.261-0.053,0.355-0.146l5.872-5.896
				C68.082,155.318,68.082,155.001,67.887,154.807z M56.199,157.102l-10.562-10.517l7.361-7.388l10.562,10.518l-0.739,0.742
				c-0.002,0.001-0.004,0.002-0.005,0.003l-5.874,5.894c-0.001,0.002-0.002,0.004-0.003,0.006L56.199,157.102z M61.661,160.35
				l-3.657-3.644l5.167-5.185l3.655,3.642L61.661,160.35z"/>
			<path fill="#FFFFFF" d="M32.721,136.898c0.133,0,0.26-0.053,0.354-0.146l22.977-23.072c0.194-0.195,0.194-0.512-0.002-0.707
				L40.085,97.066c-0.094-0.092-0.221-0.146-0.353-0.146h-0.001c-0.133,0.001-0.26,0.054-0.354,0.147l-22.98,23.074
				c-0.194,0.195-0.194,0.512,0.002,0.707l15.969,15.903C32.462,136.846,32.589,136.898,32.721,136.898z M32.719,135.691
				l-11.681-11.634l22.277-22.361l11.675,11.632L32.719,135.691z M39.733,98.127l2.874,2.863l-22.278,22.361l-2.87-2.858
				L39.733,98.127z"/>
			<path fill="#FFFFFF" d="M39.515,102.195c0.303,0,0.589-0.115,0.807-0.334c0.439-0.444,0.436-1.166-0.008-1.61
				c-0.429-0.425-1.173-0.423-1.604,0.006c-0.216,0.216-0.335,0.502-0.334,0.808c0,0.304,0.119,0.588,0.334,0.801
				C38.926,102.078,39.211,102.195,39.515,102.195z"/>
			<path fill="#FFFFFF" d="M37.555,104.16c0.306,0,0.593-0.121,0.803-0.333c0.217-0.216,0.335-0.502,0.335-0.808
				c0-0.305-0.119-0.59-0.335-0.803c-0.428-0.429-1.171-0.428-1.606,0.002c-0.443,0.443-0.444,1.166,0.004,1.616
				C36.971,104.045,37.254,104.16,37.555,104.16z"/>
			<path fill="#FFFFFF" d="M34.799,105.793c0.216,0.214,0.501,0.331,0.804,0.331s0.589-0.118,0.806-0.336
				c0.439-0.442,0.438-1.163-0.004-1.606c-0.431-0.428-1.176-0.428-1.606,0C34.355,104.627,34.354,105.348,34.799,105.793z"/>
			<path fill="#FFFFFF" d="M21.924,150.301c-0.519-0.508-1.408-0.506-1.921,0.008c-0.256,0.26-0.398,0.604-0.396,0.967
				s0.144,0.703,0.4,0.955c0.257,0.256,0.599,0.396,0.961,0.396c0.363,0,0.705-0.141,0.964-0.398
				C22.46,151.695,22.458,150.832,21.924,150.301z"/>
			<path fill="#FFFFFF" d="M76.198,132.007c-0.195-0.194-0.513-0.194-0.707,0.001c-0.194,0.196-0.194,0.514,0.002,0.708l1.877,1.869
				c0.098,0.097,0.226,0.146,0.353,0.146c0.129,0,0.256-0.049,0.354-0.147c0.194-0.194,0.194-0.513-0.002-0.707L76.198,132.007z"/>
			<path fill="#FFFFFF" d="M62.077,153.686c-0.194,0.194-0.194,0.512,0.002,0.707l2.032,2.025c0.098,0.098,0.226,0.146,0.354,0.146
				s0.258-0.049,0.354-0.147c0.195-0.194,0.195-0.513-0.002-0.707l-2.032-2.026C62.591,153.49,62.272,153.489,62.077,153.686z"/>
			<path fill="#FFFFFF" d="M60.788,155.686c-0.195-0.195-0.512-0.195-0.707,0c-0.194,0.195-0.194,0.513,0.002,0.707l2.037,2.029
				c0.098,0.098,0.225,0.146,0.353,0.146c0.128,0,0.255-0.049,0.354-0.147c0.194-0.196,0.194-0.513-0.002-0.707L60.788,155.686z"/>
			<path fill="#FFFFFF" d="M73.854,151.753c-0.095-0.093-0.222-0.146-0.354-0.146h-0.001c-0.133,0-0.26,0.053-0.354,0.146
				l-8.065,8.1c-0.194,0.195-0.194,0.513,0.002,0.707l5.28,5.26c0.095,0.094,0.222,0.146,0.354,0.146
				c0.135-0.001,0.262-0.054,0.355-0.146l8.063-8.103c0.194-0.194,0.194-0.512-0.002-0.707L73.854,151.753z M70.713,164.76
				l-4.572-4.555l7.36-7.391l4.571,4.552L70.713,164.76z"/>
			<path fill="#FFFFFF" d="M13.797,209.657l2.354-1.009l-1.038-3.885l-2.532,0.321c-0.159-0.209-0.332-0.411-0.525-0.606
				c-0.192-0.189-0.4-0.364-0.606-0.516l0.304-2.544l-3.888-1.03l-0.986,2.35c-0.536,0.066-1.043,0.201-1.536,0.412l-2.032-1.525
				l-2.898,2.904l1.594,1.972c-0.203,0.495-0.338,1.019-0.395,1.543l-2.357,1.009l1.044,3.885l2.534-0.318
				c0.16,0.205,0.33,0.406,0.523,0.602c0.187,0.187,0.398,0.364,0.608,0.512l-0.302,2.55l3.884,1.03l0.986-2.353
				c0.554-0.073,1.06-0.206,1.535-0.41l2.03,1.522L15,213.168l-1.593-1.975C13.619,210.652,13.75,210.141,13.797,209.657z
				 M13.662,213.096l-1.656,1.656l-1.335-1c-0.281-0.215-0.704-0.246-0.966-0.123c-0.408,0.167-0.834,0.278-1.293,0.339
				c-0.354,0.04-0.657,0.271-0.784,0.593l-0.663,1.562l-2.206-0.586l0.199-1.688c0.04-0.344-0.107-0.686-0.378-0.892
				c-0.183-0.142-0.363-0.292-0.517-0.444c-0.16-0.162-0.306-0.336-0.44-0.508c-0.188-0.244-0.467-0.383-0.767-0.383l-1.816,0.216
				l-0.593-2.208l1.563-0.67c0.313-0.135,0.536-0.432,0.585-0.779c0.056-0.453,0.169-0.891,0.342-1.312
				c0.122-0.318,0.07-0.684-0.143-0.965l-1.041-1.303l1.652-1.656l1.339,1.005c0.272,0.204,0.665,0.248,0.961,0.122
				c0.427-0.174,0.852-0.285,1.302-0.344c0.344-0.045,0.643-0.272,0.778-0.593l0.663-1.559l2.21,0.586l-0.201,1.685
				c-0.039,0.348,0.1,0.682,0.374,0.895c0.183,0.14,0.362,0.289,0.52,0.445c0.159,0.16,0.302,0.33,0.44,0.51
				c0.187,0.238,0.476,0.383,0.775,0.383l1.806-0.217l0.591,2.207l-1.562,0.67c-0.317,0.138-0.542,0.435-0.586,0.781
				c-0.048,0.42-0.158,0.848-0.333,1.297c-0.133,0.318-0.084,0.688,0.136,0.976L13.662,213.096z"/>
			<path fill="#FFFFFF" d="M10.584,145.586l-1.381,1.387l-1.383-1.382c-0.195-0.194-0.512-0.194-0.707,0
				c-0.195,0.195-0.195,0.513,0,0.707l1.738,1.736c0.098,0.097,0.226,0.146,0.354,0.146c0.064,0,0.128-0.013,0.188-0.036
				c0.023-0.01,0.042-0.029,0.063-0.042c0.035-0.021,0.072-0.037,0.102-0.067c0,0,0,0,0-0.001h0l1.734-1.741
				c0.194-0.194,0.194-0.513-0.002-0.707C11.096,145.391,10.779,145.391,10.584,145.586z"/>
			<path fill="#FFFFFF" d="M16.623,139.524l-1.382,1.383c-0.195,0.194-0.195,0.512,0,0.707c0.098,0.097,0.226,0.146,0.354,0.146
				c0.128,0,0.256-0.049,0.353-0.146l1.736-1.736c0.098-0.098,0.146-0.226,0.146-0.354c0-0.128-0.048-0.257-0.146-0.354l-1.74-1.735
				c-0.195-0.194-0.512-0.195-0.707,0c-0.195,0.195-0.195,0.512,0,0.707L16.623,139.524z"/>
			<path fill="#FFFFFF" d="M2.3,140.094l1.38-1.385c0.194-0.195,0.194-0.512-0.002-0.707c-0.193-0.193-0.512-0.195-0.707,0.001
				l-1.732,1.738c-0.098,0.1-0.146,0.229-0.144,0.359c0.001,0.127,0.049,0.252,0.146,0.349l1.738,1.734
				c0.098,0.098,0.226,0.146,0.354,0.146s0.256-0.049,0.353-0.146c0.195-0.195,0.195-0.513,0-0.707L2.3,140.094z"/>
			<path fill="#FFFFFF" d="M10.068,131.584c-0.049-0.049-0.105-0.085-0.166-0.109c-0.039-0.016-0.08-0.018-0.121-0.023
				c-0.023-0.003-0.045-0.013-0.068-0.013c-0.026,0-0.051,0.011-0.078,0.015c-0.037,0.007-0.075,0.008-0.11,0.022
				c-0.061,0.024-0.118,0.062-0.167,0.11l-1.727,1.742c-0.194,0.195-0.192,0.513,0.004,0.707c0.097,0.097,0.225,0.145,0.352,0.145
				c0.129,0,0.258-0.049,0.355-0.147l1.374-1.386l1.383,1.379c0.098,0.098,0.226,0.146,0.354,0.146s0.256-0.049,0.353-0.146
				c0.195-0.195,0.195-0.512,0-0.707L10.068,131.584z"/>
			<path fill="#FFFFFF" d="M-10.654,197.38l-1.12,1.121c-0.195,0.194-0.195,0.513,0,0.707c0.098,0.097,0.226,0.146,0.354,0.146
				s0.256-0.049,0.353-0.146l11.578-11.586c0.195-0.195,0.195-0.513,0-0.707c-0.195-0.194-0.512-0.194-0.707,0l-1.143,1.144
				l-5.934-3.242l16.764-16.782c0.195-0.195,0.195-0.513,0-0.707l-24.904-24.877c-0.195-0.195-0.512-0.195-0.707,0l-40.57,40.61
				c-0.195,0.195-0.195,0.513,0,0.707l24.904,24.881c0.094,0.094,0.221,0.146,0.354,0.146c0.133,0,0.26-0.053,0.353-0.146
				l17.178-17.197L-10.654,197.38z M-2.074,188.795l-7.843,7.849l-3.247-5.93l5.155-5.161L-2.074,188.795z M-15.765,143.51
				L3.357,162.61l-39.865,39.906l-19.121-19.104L-15.765,143.51z M-31.432,207.588l-4.369-4.365l39.865-39.906l4.368,4.363
				l-22.609,22.634l0,0L-31.432,207.588z"/>
			<path fill="#FFFFFF" d="M-13.615,187.232c0.574,0,1.114-0.223,1.521-0.629c0.836-0.838,0.836-2.199,0.001-3.035
				c-0.811-0.812-2.225-0.814-3.041-0.002c-0.832,0.839-0.831,2.203,0.004,3.043C-14.724,187.011-14.186,187.232-13.615,187.232z
				 M-14.426,184.273c0.217-0.217,0.505-0.336,0.812-0.336c0.307,0,0.596,0.121,0.814,0.338c0.446,0.447,0.446,1.174,0,1.619
				c-0.434,0.437-1.192,0.436-1.622,0.008C-14.868,185.452-14.869,184.721-14.426,184.273z"/>
			<path fill="#FFFFFF" d="M86.771,89.467c-0.001-0.001-0.001-0.002-0.002-0.003s-0.002-0.001-0.003-0.002L63.555,66.25
				c-0.187-0.188-0.519-0.188-0.707,0L48.572,80.525c-0.195,0.195-0.195,0.512,0,0.707l53.342,53.343
				c0.094,0.093,0.221,0.146,0.354,0.146s0.26-0.053,0.354-0.146l14.274-14.275c0.195-0.195,0.195-0.512,0-0.707L86.771,89.467z
				 M63.201,67.311l22.508,22.508l-13.568,13.568L49.633,80.879L63.201,67.311z M102.268,133.514l-29.421-29.421l13.569-13.567
				l29.42,29.42L102.268,133.514z"/>
			<path fill="#FFFFFF" d="M86.078,101.801l-5.666,5.666c-0.195,0.195-0.195,0.512,0,0.707c0.098,0.098,0.227,0.146,0.354,0.146
				c0.129,0,0.256-0.049,0.354-0.146l5.666-5.666c0.195-0.195,0.195-0.512,0-0.707S86.273,101.605,86.078,101.801z"/>
			<path fill="#FFFFFF" d="M99.549,120.062c0.471,0,0.93-0.092,1.365-0.277c1.775-0.754,2.607-2.812,1.854-4.59
				c-0.551-1.295-1.816-2.133-3.224-2.133c-0.469,0-0.928,0.094-1.364,0.278c-1.775,0.755-2.607,2.813-1.854,4.591
				C96.876,119.227,98.143,120.062,99.549,120.062z M98.57,114.262c0.312-0.132,0.64-0.199,0.975-0.199
				c1.006,0,1.91,0.6,2.303,1.524c0.539,1.267-0.056,2.738-1.324,3.276c-1.248,0.529-2.754-0.092-3.278-1.323
				C96.708,116.271,97.301,114.8,98.57,114.262z"/>
			<path fill="#FFFFFF" d="M88.816,101.055c0.203,0,0.399-0.039,0.586-0.119c0.761-0.322,1.117-1.203,0.796-1.967
				c-0.316-0.742-1.22-1.113-1.968-0.795c-0.76,0.323-1.116,1.205-0.795,1.967C87.67,100.695,88.212,101.055,88.816,101.055z
				 M88.621,99.096c0.062-0.027,0.129-0.041,0.195-0.041c0.201,0,0.383,0.12,0.461,0.305c0.106,0.255-0.012,0.549-0.266,0.656
				c-0.253,0.106-0.551-0.019-0.654-0.264C88.25,99.496,88.368,99.202,88.621,99.096z"/>
			<path fill="#FFFFFF" d="M74.324,81.752c0.195-0.195,0.195-0.512,0-0.707l-1.914-1.914c-0.195-0.195-0.512-0.195-0.707,0
				l-9.959,9.959c-0.195,0.195-0.195,0.512,0,0.707l1.914,1.914c0.098,0.098,0.226,0.146,0.354,0.146
				c0.129,0,0.256-0.049,0.354-0.146L74.324,81.752z M62.805,89.443l9.252-9.252l1.207,1.207l-9.252,9.252L62.805,89.443z"/>
			<path fill="#FFFFFF" d="M157.682,76.689c-0.094-0.094-0.221-0.146-0.353-0.146h-0.001c-0.133,0-0.26,0.052-0.354,0.146
				l-2.002,2.011l-17.559-17.486c-0.094-0.094-0.221-0.146-0.354-0.146c-0.134,0.001-0.261,0.053-0.354,0.147l-28.619,28.739
				c-0.194,0.196-0.194,0.513,0.002,0.708l17.559,17.487l-2.001,2.01c-0.095,0.094-0.146,0.222-0.146,0.354s0.053,0.26,0.146,0.354
				l2.229,2.217c0.098,0.098,0.225,0.145,0.354,0.145c0.127,0,0.256-0.049,0.355-0.146l33.327-33.466
				c0.194-0.196,0.194-0.513-0.002-0.707L157.682,76.689z M126.352,107.439l-17.203-17.133l27.912-28.031l17.205,17.134
				l-15.812,15.88L126.352,107.439z M126.227,112.021l-1.52-1.51l14.44-14.501l16.183-16.247c0.004-0.004,0.005-0.009,0.008-0.013
				l1.991-1.999l1.519,1.514L126.227,112.021z"/>
			<path fill="#FFFFFF" d="M205.184,2.789c-0.844-0.836-1.967-1.297-3.162-1.297c-1.205,0-2.334,0.467-3.179,1.314l-4.848,4.868
				c-1.744,1.754-1.737,4.597,0.014,6.339l11.474,11.428c0.867,0.863,2.05,1.358,3.242,1.358c1.112,0,2.143-0.417,2.903-1.177
				c0.992-1.001,2.424-2.437,3.69-3.707l1.545-1.55c1.635-1.643,1.543-4.399-0.207-6.146L205.184,2.789z M216.152,19.659
				l-1.543,1.55c-1.267,1.27-2.699,2.708-3.691,3.708c-1.197,1.196-3.432,1.109-4.73-0.185l-11.474-11.428
				c-1.36-1.353-1.364-3.562-0.01-4.924l4.848-4.867c0.656-0.658,1.532-1.02,2.47-1.02c0.93,0,1.803,0.358,2.457,1.006
				l11.471,11.429C217.309,16.285,217.4,18.408,216.152,19.659z"/>
			<path fill="#FFFFFF" d="M168.417-23.4l4.548-4.569l2.516,2.505l-4.547,4.568c-0.193,0.195-0.193,0.512,0.002,0.707
				c0.099,0.098,0.226,0.146,0.354,0.146s0.257-0.049,0.354-0.148l4.546-4.568l12.034,11.987L165.951,9.594l-2.192-2.188
				c-0.194-0.194-0.512-0.195-0.707,0.001c-0.194,0.195-0.194,0.512,0,0.707l2.548,2.541c0.094,0.093,0.221,0.146,0.354,0.146
				c0.134,0,0.261-0.053,0.354-0.146l22.979-23.074c0.193-0.196,0.193-0.513-0.002-0.708l-12.736-12.686
				c-0.003-0.002-0.004-0.006-0.006-0.008s-0.006-0.003-0.008-0.005l-3.217-3.204c-0.094-0.094-0.221-0.146-0.354-0.146h-0.001
				c-0.133,0-0.26,0.053-0.354,0.147l-4.899,4.924c-0.194,0.196-0.194,0.512,0.002,0.707
				C167.904-23.204,168.223-23.204,168.417-23.4z"/>
			<path fill="#FFFFFF" d="M164.49,35.378c-4.567,0-8.856,1.782-12.077,5.017c-3.212,3.225-4.978,7.508-4.968,12.06
				c0.009,4.553,1.789,8.83,5.017,12.042c3.214,3.204,7.485,4.968,12.024,4.968c4.566,0,8.856-1.781,12.078-5.016
				c3.213-3.225,4.978-7.508,4.969-12.061c-0.01-4.554-1.789-8.83-5.016-12.042C173.302,37.142,169.029,35.378,164.49,35.378z
				 M175.855,63.742c-3.032,3.045-7.07,4.723-11.369,4.723c-4.272,0-8.293-1.66-11.319-4.676c-3.036-3.024-4.713-7.049-4.722-11.335
				c-0.01-4.286,1.652-8.317,4.677-11.353c3.03-3.046,7.067-4.723,11.368-4.723c4.273,0,8.295,1.661,11.322,4.677
				c3.035,3.023,4.713,7.048,4.721,11.334C180.542,56.675,178.88,60.707,175.855,63.742z"/>
			<path fill="#FFFFFF" d="M164.834,46.876c-1.576,0-3.059,0.616-4.173,1.734c-2.289,2.3-2.282,6.034,0.016,8.323
				c1.112,1.109,2.589,1.719,4.156,1.719c1.576,0,3.058-0.614,4.172-1.732c2.289-2.301,2.281-6.037-0.021-8.329
				C167.875,47.485,166.4,46.876,164.834,46.876z M168.297,56.215c-0.926,0.927-2.154,1.437-3.464,1.437
				c-1.302,0-2.526-0.507-3.451-1.427c-1.907-1.9-1.911-5-0.012-6.909c0.925-0.928,2.155-1.439,3.464-1.439
				c1.3,0,2.523,0.506,3.445,1.423C170.189,51.203,170.195,54.305,168.297,56.215z"/>
			<path fill="#FFFFFF" d="M164.836,48.586c-1.12,0-2.171,0.437-2.959,1.231c-0.789,0.79-1.223,1.84-1.223,2.956
				c0.002,1.116,0.438,2.165,1.229,2.954c0.788,0.784,1.835,1.216,2.947,1.216c1.122,0,2.174-0.438,2.959-1.231
				c0.788-0.788,1.221-1.836,1.22-2.951c-0.002-1.118-0.439-2.168-1.23-2.958C166.992,49.018,165.947,48.586,164.836,48.586z
				 M167.082,55.006c-1.193,1.204-3.291,1.21-4.492,0.013c-0.602-0.601-0.934-1.398-0.936-2.247c0-0.849,0.33-1.647,0.931-2.249
				c0.601-0.604,1.399-0.937,2.251-0.937c0.846,0,1.639,0.329,2.237,0.926c0.604,0.601,0.937,1.4,0.938,2.25
				C168.012,53.609,167.684,54.405,167.082,55.006z"/>
			<path fill="#FFFFFF" d="M129.423,82.584c-1.253,1.258-1.247,3.303,0.015,4.559c0.605,0.604,1.414,0.938,2.271,0.938
				c0.864,0,1.675-0.338,2.283-0.951c1.251-1.258,1.244-3.302-0.014-4.554C132.764,81.363,130.645,81.365,129.423,82.584z
				 M133.282,86.425c-0.834,0.843-2.3,0.845-3.14,0.009c-0.869-0.867-0.875-2.277-0.012-3.143c0.422-0.422,0.98-0.654,1.576-0.654
				c0.592,0,1.146,0.229,1.566,0.646C134.141,84.148,134.145,85.557,133.282,86.425z"/>
			<path fill="#FFFFFF" d="M136.188,32.408C136.188,32.409,136.188,32.409,136.188,32.408l3.715,3.699
				c0.095,0.094,0.222,0.146,0.354,0.146c0.135,0,0.262-0.053,0.354-0.147l13.168-13.226c0.195-0.195,0.195-0.512-0.002-0.707
				l-6.433-6.407l-16.185-16.12c-0.048-0.048-0.104-0.084-0.166-0.109c-0.017-0.007-0.034-0.005-0.052-0.01
				c-0.044-0.013-0.089-0.027-0.136-0.027c-0.007,0-0.013,0.003-0.02,0.004c-0.059,0.002-0.117,0.012-0.172,0.035
				c-0.061,0.025-0.116,0.062-0.163,0.108l-13.171,13.225c-0.094,0.094-0.146,0.221-0.146,0.354c0,0.133,0.053,0.26,0.146,0.354
				L136.188,32.408z M140.254,35.047l-3.006-2.993l12.467-12.514l3.002,2.99L140.254,35.047z M130.807,0.709l18.199,18.127
				L136.54,31.348l-18.2-18.124L130.807,0.709z"/>
			<path fill="#FFFFFF" d="M191.889,30.817l-4.01-3.996l0.743-0.746c0.094-0.094,0.146-0.221,0.146-0.354
				c0-0.133-0.052-0.26-0.146-0.354L177.35,14.143c-0.195-0.195-0.512-0.195-0.707,0.001l-8.065,8.098
				c-0.095,0.094-0.146,0.221-0.146,0.354c0,0.133,0.051,0.26,0.146,0.354l11.27,11.222c0.098,0.098,0.226,0.146,0.354,0.146
				s0.257-0.049,0.354-0.147l0.744-0.747l4.012,3.997c0.094,0.094,0.222,0.146,0.354,0.146c0.134-0.001,0.261-0.053,0.355-0.147
				l5.871-5.896C192.084,31.328,192.084,31.012,191.889,30.817z M180.2,33.111l-10.562-10.516l7.36-7.389l10.563,10.518
				l-0.734,0.737c-0.004,0.003-0.008,0.004-0.012,0.008l-5.873,5.894c-0.002,0.002-0.003,0.005-0.005,0.007L180.2,33.111z
				 M185.663,36.36l-3.658-3.644l5.167-5.185l3.656,3.642L185.663,36.36z"/>
			<path fill="#FFFFFF" d="M156.368,12.762c0.094,0.094,0.221,0.146,0.353,0.146c0.133-0.001,0.26-0.054,0.354-0.148l22.979-23.072
				c0.094-0.094,0.146-0.221,0.146-0.354s-0.052-0.26-0.147-0.353l-15.967-15.905c-0.094-0.094-0.221-0.146-0.354-0.146
				c-0.133,0.001-0.26,0.053-0.354,0.147L140.398-3.85c-0.193,0.196-0.193,0.512,0.002,0.707L156.368,12.762z M156.719,11.701
				l-11.68-11.634l22.276-22.36l11.677,11.63L156.719,11.701z M163.732-25.863L166.606-23L144.33-0.641l-2.869-2.857L163.732-25.863
				z"/>
			<path fill="#FFFFFF" d="M163.518-21.794c0.301,0,0.586-0.117,0.803-0.333c0.441-0.444,0.438-1.166-0.006-1.613
				c-0.429-0.425-1.172-0.424-1.606,0.008c-0.215,0.216-0.333,0.503-0.331,0.808c0.001,0.303,0.119,0.586,0.334,0.798
				C162.927-21.912,163.213-21.794,163.518-21.794z"/>
			<path fill="#FFFFFF" d="M161.559-19.831c0.305,0,0.592-0.121,0.803-0.334c0.443-0.442,0.443-1.163-0.002-1.611
				c-0.433-0.426-1.176-0.425-1.604,0.003c-0.444,0.443-0.446,1.166,0.003,1.617C160.973-19.947,161.257-19.831,161.559-19.831z"/>
			<path fill="#FFFFFF" d="M158.8-18.198c0.216,0.213,0.501,0.331,0.804,0.331c0.305,0,0.59-0.118,0.809-0.337
				c0.438-0.446,0.436-1.166-0.006-1.604c-0.43-0.43-1.176-0.431-1.608,0C158.355-19.365,158.355-18.643,158.8-18.198z"/>
			<path fill="#FFFFFF" d="M145.926,26.313c-0.515-0.509-1.402-0.511-1.923,0.007c-0.255,0.258-0.396,0.6-0.394,0.963
				c0,0.364,0.143,0.705,0.398,0.958c0.258,0.255,0.598,0.396,0.961,0.396c0.365,0,0.706-0.142,0.963-0.398
				c0.258-0.258,0.398-0.602,0.397-0.966C146.327,26.91,146.186,26.569,145.926,26.313z"/>
			<path fill="#FFFFFF" d="M200.2,8.016c-0.195-0.195-0.513-0.194-0.707,0.001c-0.194,0.196-0.194,0.513,0.002,0.708l1.877,1.869
				c0.099,0.098,0.226,0.146,0.353,0.146c0.129,0,0.256-0.05,0.354-0.147c0.194-0.196,0.194-0.513-0.002-0.708L200.2,8.016z"/>
			<path fill="#FFFFFF" d="M186.784,29.693c-0.195-0.195-0.513-0.194-0.707,0.001c-0.194,0.196-0.194,0.513,0.002,0.708l2.034,2.026
				c0.099,0.098,0.226,0.146,0.354,0.146c0.129,0,0.258-0.05,0.354-0.147c0.195-0.196,0.195-0.513-0.002-0.708L186.784,29.693z"/>
			<path fill="#FFFFFF" d="M184.79,31.694c-0.194-0.195-0.513-0.195-0.707,0.001c-0.194,0.196-0.194,0.512,0.002,0.707l2.037,2.029
				c0.099,0.098,0.226,0.146,0.353,0.146c0.129,0,0.256-0.049,0.354-0.147c0.194-0.196,0.194-0.512-0.002-0.707L184.79,31.694z"/>
			<path fill="#FFFFFF" d="M197.855,27.76c-0.195-0.195-0.513-0.194-0.707,0.001l-8.068,8.101c-0.094,0.094-0.146,0.222-0.146,0.354
				c0,0.133,0.053,0.26,0.147,0.354l5.28,5.259c0.095,0.094,0.222,0.146,0.354,0.146c0.135,0,0.262-0.053,0.355-0.148l8.065-8.101
				c0.194-0.196,0.194-0.513-0.002-0.708L197.855,27.76z M194.713,40.768l-4.572-4.553l7.362-7.392l4.571,4.552L194.713,40.768z"/>
			<path fill="#FFFFFF" d="M137.799,85.665l2.354-1.009l-1.041-3.885l-2.528,0.324c-0.158-0.21-0.332-0.412-0.526-0.609
				c-0.188-0.188-0.399-0.364-0.606-0.516l0.304-2.546l-3.886-1.028l-0.986,2.348c-0.536,0.068-1.043,0.201-1.538,0.413
				l-2.033-1.524l-2.896,2.904l1.595,1.97c-0.203,0.492-0.34,1.017-0.396,1.544l-2.356,1.01l1.045,3.885l2.535-0.315
				c0.16,0.204,0.329,0.405,0.522,0.601c0.188,0.186,0.396,0.363,0.604,0.512l-0.298,2.549l3.883,1.031l0.984-2.355
				c0.556-0.072,1.062-0.205,1.535-0.408l2.031,1.521l2.903-2.906l-1.596-1.973C137.621,86.652,137.752,86.143,137.799,85.665z
				 M137.663,89.104l-1.655,1.658l-1.332-0.996c-0.281-0.219-0.711-0.25-0.969-0.129c-0.408,0.168-0.835,0.279-1.298,0.34
				c-0.353,0.043-0.654,0.274-0.782,0.594l-0.66,1.562l-2.207-0.586l0.197-1.684c0.044-0.344-0.102-0.689-0.377-0.898
				c-0.184-0.14-0.361-0.291-0.518-0.443c-0.162-0.164-0.305-0.336-0.439-0.508c-0.189-0.242-0.468-0.381-0.766-0.381l-1.816,0.215
				l-0.594-2.207l1.561-0.67c0.314-0.135,0.538-0.431,0.588-0.781c0.055-0.453,0.17-0.89,0.344-1.311
				c0.121-0.318,0.069-0.684-0.144-0.965l-1.041-1.303l1.652-1.655l1.341,1.005c0.275,0.205,0.673,0.244,0.96,0.119
				c0.427-0.173,0.853-0.285,1.302-0.342c0.346-0.045,0.643-0.272,0.778-0.592l0.663-1.561l2.208,0.585l-0.201,1.687
				c-0.039,0.349,0.103,0.684,0.374,0.893c0.182,0.141,0.361,0.289,0.52,0.445c0.157,0.16,0.303,0.33,0.441,0.514
				c0.188,0.238,0.479,0.38,0.777,0.38l1.804-0.216l0.592,2.207l-1.562,0.668c-0.317,0.137-0.543,0.436-0.588,0.783
				c-0.047,0.414-0.157,0.842-0.336,1.302c-0.129,0.313-0.08,0.679,0.138,0.97L137.663,89.104z"/>
			<path fill="#FFFFFF" d="M134.584,21.594l-1.379,1.386l-1.383-1.381c-0.195-0.195-0.512-0.195-0.707,0
				c-0.195,0.195-0.195,0.512,0,0.707l1.738,1.736c0.099,0.098,0.226,0.146,0.354,0.146s0.256-0.049,0.354-0.146
				c0.002-0.002,0.002-0.004,0.004-0.006l1.729-1.737c0.193-0.196,0.193-0.512-0.002-0.707
				C135.096,21.398,134.779,21.398,134.584,21.594z"/>
			<path fill="#FFFFFF" d="M140.625,15.534l-1.383,1.382c-0.195,0.195-0.195,0.512,0,0.707c0.098,0.097,0.226,0.146,0.354,0.146
				c0.129,0,0.256-0.049,0.354-0.146l1.736-1.736c0.098-0.098,0.146-0.226,0.146-0.354c0-0.128-0.048-0.256-0.146-0.354l-1.74-1.736
				c-0.195-0.194-0.512-0.195-0.707,0.001c-0.195,0.195-0.195,0.512,0,0.707L140.625,15.534z"/>
			<path fill="#FFFFFF" d="M126.299,16.103l1.383-1.385c0.194-0.195,0.194-0.512,0-0.707c-0.195-0.194-0.513-0.195-0.707,0.001
				l-1.736,1.739c-0.194,0.195-0.194,0.512,0,0.707c0.002,0.002,0.004,0.002,0.006,0.004l1.736,1.731
				c0.098,0.097,0.226,0.146,0.354,0.146s0.257-0.048,0.354-0.147c0.194-0.196,0.194-0.512-0.002-0.707L126.299,16.103z"/>
			<path fill="#FFFFFF" d="M134.07,7.597c-0.002-0.002-0.002-0.004-0.004-0.006c-0.196-0.194-0.514-0.193-0.707,0.003l-1.728,1.743
				c-0.194,0.197-0.192,0.514,0.005,0.708c0.098,0.097,0.225,0.145,0.352,0.145c0.129,0,0.258-0.049,0.354-0.148l1.374-1.387
				l1.385,1.38c0.098,0.097,0.226,0.146,0.354,0.146s0.257-0.049,0.354-0.147c0.194-0.196,0.194-0.512-0.002-0.707L134.07,7.597z"/>
			<path fill="#FFFFFF" d="M133.491,44.043c0.194-0.195,0.194-0.512,0-0.707l-5.072-5.067c-0.001-0.001-0.001-0.002-0.002-0.003
				s-0.002-0.001-0.003-0.002l-19.827-19.806c-0.194-0.195-0.512-0.195-0.707,0L67.312,59.069c-0.195,0.195-0.195,0.512,0,0.707
				l24.901,24.883c0.095,0.093,0.222,0.146,0.354,0.146s0.26-0.053,0.353-0.146L110.1,67.461l3.246,5.929l-1.119,1.12
				c-0.195,0.195-0.195,0.514,0,0.707c0.098,0.098,0.226,0.146,0.354,0.146s0.256-0.049,0.354-0.146l11.578-11.586
				c0.194-0.196,0.194-0.513,0-0.708c-0.195-0.195-0.513-0.195-0.707,0l-1.143,1.144l-5.934-3.243L133.491,44.043z M108.234,19.519
				l19.122,19.101L87.492,78.525L68.373,59.422L108.234,19.519z M92.568,83.598l-4.369-4.365l39.864-39.906l4.368,4.363
				l-22.604,22.629c-0.001,0.002-0.004,0.003-0.005,0.005L92.568,83.598z M121.925,64.806l-7.842,7.847l-3.247-5.929l5.156-5.162
				L121.925,64.806z"/>
			<path fill="#FFFFFF" d="M110.385,63.242c0.574,0,1.114-0.223,1.521-0.631c0.836-0.838,0.836-2.199,0.001-3.034
				c-0.812-0.811-2.224-0.815-3.042-0.001c-0.83,0.839-0.829,2.202,0.005,3.041C109.275,63.02,109.814,63.242,110.385,63.242z
				 M109.574,60.282c0.217-0.216,0.505-0.335,0.812-0.335c0.307,0,0.596,0.12,0.813,0.337c0.446,0.447,0.446,1.174,0,1.62
				c-0.435,0.435-1.191,0.434-1.622,0.006C109.132,61.461,109.132,60.73,109.574,60.282z"/>
			<path fill="#FFFFFF" d="M240.898-4.4l-53.342-53.34c-0.195-0.195-0.513-0.195-0.707,0l-14.275,14.275
				c-0.195,0.195-0.195,0.512,0,0.707l53.342,53.342c0.094,0.093,0.221,0.146,0.354,0.146s0.26-0.053,0.354-0.147l14.275-14.276
				C241.093-3.888,241.093-4.205,240.898-4.4z M193.226-23.521l6.452-6.452l2.93,2.9l-6.467,6.467L193.226-23.521z M203.314-27.779
				l-2.93-2.9l6.409-6.41l2.916,2.916L203.314-27.779z M187.203-56.68l18.884,18.883l-6.759,6.759
				c-0.003,0.003-0.007,0.004-0.01,0.007s-0.004,0.006-0.006,0.009l-6.794,6.794l-18.884-18.884L187.203-56.68z M226.27,9.523
				l-29.422-29.422l13.569-13.567l29.421,29.421L226.27,9.523z"/>
			<path fill="#FFFFFF" d="M210.08-22.189l-5.666,5.666c-0.195,0.195-0.195,0.512,0,0.707c0.098,0.097,0.227,0.146,0.354,0.146
				c0.129,0,0.256-0.049,0.354-0.146l5.666-5.666c0.195-0.195,0.195-0.512,0-0.707S210.275-22.384,210.08-22.189z"/>
			<path fill="#FFFFFF" d="M223.55-3.927c0.472,0,0.929-0.094,1.366-0.28c1.775-0.754,2.605-2.812,1.854-4.588
				c-0.549-1.296-1.814-2.133-3.222-2.133c-0.47,0-0.93,0.094-1.366,0.279c-0.859,0.365-1.527,1.043-1.877,1.91
				c-0.351,0.867-0.343,1.818,0.022,2.679C220.876-4.764,222.143-3.927,223.55-3.927z M221.23-8.364
				c0.25-0.619,0.727-1.103,1.342-1.364c0.312-0.132,0.64-0.199,0.976-0.199c1.005,0,1.908,0.597,2.3,1.523
				c0.537,1.268-0.055,2.738-1.322,3.277c-1.246,0.531-2.756-0.09-3.278-1.324C220.986-7.066,220.98-7.745,221.23-8.364z"/>
			<path fill="#FFFFFF" d="M212.818-22.936c0.203,0,0.399-0.04,0.586-0.121c0.369-0.156,0.654-0.447,0.805-0.818
				c0.15-0.372,0.146-0.78-0.01-1.147c-0.314-0.741-1.225-1.109-1.967-0.795c-0.369,0.156-0.656,0.447-0.806,0.819
				s-0.146,0.78,0.011,1.146C211.673-23.295,212.215-22.936,212.818-22.936z M212.354-24.623c0.051-0.124,0.146-0.221,0.27-0.273
				c0.062-0.026,0.129-0.04,0.195-0.04c0.201,0,0.382,0.12,0.459,0.306c0.054,0.123,0.055,0.258,0.005,0.382
				c-0.052,0.124-0.146,0.221-0.269,0.273c-0.252,0.106-0.551-0.018-0.656-0.267C212.305-24.364,212.305-24.499,212.354-24.623z"/>
			<path fill="#FFFFFF" d="M198.325-42.239c0.194-0.195,0.194-0.512,0-0.707l-1.912-1.913c-0.095-0.093-0.222-0.146-0.354-0.146
				s-0.26,0.052-0.354,0.146l-9.959,9.958c-0.094,0.094-0.146,0.221-0.146,0.354c0,0.133,0.053,0.26,0.146,0.354l1.914,1.914
				c0.094,0.093,0.221,0.146,0.354,0.146s0.26-0.053,0.354-0.147L198.325-42.239z M186.807-34.547l9.252-9.251l1.205,1.206
				l-9.25,9.252L186.807-34.547z"/>
		</g>
	</g>
</g>
</svg>
