<?xml version="1.0" encoding="utf-8"?>
<!-- Generator: Adobe Illustrator 16.0.0, SVG Export Plug-In . SVG Version: 6.00 Build 0)  -->
<!DOCTYPE svg PUBLIC "-//W3C//DTD SVG 1.1//EN" "http://www.w3.org/Graphics/SVG/1.1/DTD/svg11.dtd">
<svg version="1.1" id="Layer_1" xmlns="http://www.w3.org/2000/svg" xmlns:xlink="http://www.w3.org/1999/xlink" x="0px" y="0px"
	 width="20px" height="20px" viewBox="0 0 20 20" enable-background="new 0 0 20 20" xml:space="preserve">
<path fill-rule="evenodd" clip-rule="evenodd" fill="#696767" d="M16.157,6.161c-0.307-0.603-1.276-2.214-3.029-1.372
	c-0.926,0.447-1.77,0.627-2.358,0.63H10H9.23c-0.588-0.003-1.431-0.183-2.358-0.63C5.119,3.946,4.15,5.558,3.844,6.161
	c-0.306,0.6-3.174,7.708-1.171,9.035c1.943,1.291,2.716-2.757,7.328-2.757s5.386,4.048,7.328,2.757
	C19.33,13.868,16.462,6.76,16.157,6.161z M6.562,10.716c-1.262,0-2.283-1.024-2.283-2.286c0-1.259,1.021-2.282,2.283-2.282
	c1.261,0,2.284,1.022,2.284,2.282C8.846,9.692,7.823,10.716,6.562,10.716z M11.326,10.095c-0.508,0-0.92-0.414-0.92-0.92
	c0-0.509,0.412-0.92,0.92-0.92c0.508,0,0.92,0.412,0.92,0.92C12.246,9.682,11.833,10.095,11.326,10.095z M13.297,12.015
	c-0.508,0-0.92-0.413-0.92-0.921s0.412-0.92,0.92-0.92c0.509,0,0.921,0.412,0.921,0.92S13.806,12.015,13.297,12.015z M13.297,8.174
	c-0.508,0-0.92-0.412-0.92-0.92s0.412-0.921,0.92-0.921c0.509,0,0.921,0.413,0.921,0.921S13.806,8.174,13.297,8.174z M15.16,10.095
	c-0.507,0-0.92-0.414-0.92-0.921c0-0.508,0.413-0.919,0.92-0.919c0.509,0,0.92,0.412,0.92,0.919
	C16.081,9.682,15.669,10.095,15.16,10.095z"/>
</svg>
