<?xml version="1.0" encoding="utf-8"?>
<!-- Generator: Adobe Illustrator 16.0.0, SVG Export Plug-In . SVG Version: 6.00 Build 0)  -->
<!DOCTYPE svg PUBLIC "-//W3C//DTD SVG 1.1//EN" "http://www.w3.org/Graphics/SVG/1.1/DTD/svg11.dtd">
<svg version="1.1" id="Layer_1" xmlns="http://www.w3.org/2000/svg" xmlns:xlink="http://www.w3.org/1999/xlink" x="0px" y="0px"
	 width="40px" height="40px" viewBox="0 0 40 40" enable-background="new 0 0 40 40" xml:space="preserve">
<g>
	<g>
		<path fill="#FFFFFF" d="M31.624,30.668C31.623,30.668,31.623,30.668,31.624,30.668c-1.128,0-2.111-0.834-3.25-1.8
			C26.526,27.301,24.227,25.35,20,25.35s-6.525,1.95-8.372,3.518c-1.139,0.967-2.123,1.801-3.25,1.801
			c-0.511,0-1.01-0.167-1.528-0.51C2.78,27.46,8.725,13.848,8.793,13.716c0.579-1.139,1.868-3.049,3.99-3.049
			c0.597,0,1.221,0.154,1.854,0.459c1.403,0.678,2.863,1.069,4.005,1.076h2.717c1.142-0.007,2.602-0.398,4.003-1.076
			c0.634-0.305,1.257-0.459,1.854-0.459c2.123,0,3.411,1.91,3.991,3.049c0.067,0.132,6.012,13.744,1.942,16.442
			C32.633,30.501,32.133,30.668,31.624,30.668z M20,24.6c4.502,0,7.021,2.137,8.859,3.696c1.068,0.906,1.912,1.622,2.764,1.622h0
			c0.357,0,0.721-0.126,1.111-0.385c3.079-2.041-1.24-13.6-2.196-15.478c-0.501-0.985-1.6-2.639-3.322-2.639
			c-0.484,0-0.998,0.13-1.529,0.385c-1.498,0.724-3.075,1.144-4.327,1.15h-2.721c-1.252-0.007-2.83-0.427-4.329-1.15
			c-0.53-0.255-1.044-0.385-1.528-0.385c-1.723,0-2.821,1.653-3.322,2.639c-0.956,1.878-5.274,13.437-2.196,15.478
			c1.322,0.875,2.361,0.049,3.878-1.237C12.981,26.735,15.498,24.6,20,24.6z"/>
	</g>
	<g>
		<path fill="#FFFFFF" d="M13.928,22.306c-2.431,0-4.408-1.979-4.408-4.411c0-2.429,1.978-4.405,4.408-4.405
			s4.408,1.977,4.408,4.405C18.336,20.327,16.358,22.306,13.928,22.306z M13.928,14.239c-2.017,0-3.658,1.64-3.658,3.655
			c0,2.019,1.641,3.661,3.658,3.661s3.658-1.643,3.658-3.661C17.586,15.879,15.945,14.239,13.928,14.239z"/>
	</g>
	<g>
		<path fill="#FFFFFF" d="M25.844,17.687c-1.059,0-1.92-0.861-1.92-1.92s0.861-1.92,1.92-1.92s1.92,0.861,1.92,1.92
			S26.902,17.687,25.844,17.687z M25.844,14.597c-0.645,0-1.17,0.524-1.17,1.17s0.525,1.17,1.17,1.17s1.17-0.524,1.17-1.17
			S26.489,14.597,25.844,14.597z"/>
	</g>
	<g>
		<path fill="#FFFFFF" d="M28.971,20.91c-1.059,0-1.92-0.861-1.92-1.92s0.861-1.92,1.92-1.92s1.92,0.861,1.92,1.92
			S30.029,20.91,28.971,20.91z M28.971,17.82c-0.645,0-1.17,0.524-1.17,1.17s0.525,1.17,1.17,1.17s1.17-0.524,1.17-1.17
			S29.616,17.82,28.971,17.82z"/>
	</g>
	<g>
		<path fill="#FFFFFF" d="M25.844,24.134c-1.059,0-1.92-0.861-1.92-1.92s0.861-1.92,1.92-1.92s1.92,0.861,1.92,1.92
			S26.902,24.134,25.844,24.134z M25.844,21.044c-0.645,0-1.17,0.524-1.17,1.17s0.525,1.17,1.17,1.17s1.17-0.524,1.17-1.17
			S26.489,21.044,25.844,21.044z"/>
	</g>
	<g>
		<path fill="#FFFFFF" d="M22.533,20.911c-1.059,0-1.92-0.861-1.92-1.92c0-1.06,0.861-1.921,1.92-1.921s1.92,0.861,1.92,1.921
			C24.453,20.05,23.592,20.911,22.533,20.911z M22.533,17.82c-0.645,0-1.17,0.525-1.17,1.171s0.525,1.17,1.17,1.17
			s1.17-0.524,1.17-1.17S23.178,17.82,22.533,17.82z"/>
	</g>
</g>
</svg>
