<?xml version="1.0" encoding="utf-8"?>
<!-- Generator: Adobe Illustrator 16.0.0, SVG Export Plug-In . SVG Version: 6.00 Build 0)  -->
<!DOCTYPE svg PUBLIC "-//W3C//DTD SVG 1.1//EN" "http://www.w3.org/Graphics/SVG/1.1/DTD/svg11.dtd">
<svg version="1.1" id="Layer_1" xmlns="http://www.w3.org/2000/svg" xmlns:xlink="http://www.w3.org/1999/xlink" x="0px" y="0px"
	 width="124px" height="124px" viewBox="0 0 124 124" enable-background="new 0 0 124 124" xml:space="preserve">
<g opacity="0.09">
	<g>
		<rect fill="none" width="124" height="124"/>
		<rect fill="none" width="124" height="124"/>
		<rect fill="none" width="124" height="124"/>
		<g>
			<defs>
				<rect id="SVGID_1_" width="124" height="124"/>
			</defs>
			<clipPath id="SVGID_2_">
				<use xlink:href="#SVGID_1_"  overflow="visible"/>
			</clipPath>
			<g clip-path="url(#SVGID_2_)">
				<path fill="#FFFFFF" d="M175.214,1.905c-2.204,2.204-3.446,5.259-3.384,8.271c-5.109-0.086-9.798,3.445-11.217,8.341
					c-1.344,4.651,0.462,9.236,4.714,11.967c2.327,1.5,5.138,2.198,8.845,2.198c0.922,0,1.926-0.042,3.068-0.128l1.976-0.156
					c3.015-0.241,6.132-0.491,9.161-0.491c1.766,0,3.364,0.082,4.887,0.251c0.15,0.014,0.301-0.037,0.408-0.144
					c0.107-0.108,0.161-0.258,0.145-0.409c-0.526-4.747-0.168-9.629,0.244-14.223c0.314-3.511,0.67-7.491-0.58-10.997
					c-1.225-3.444-3.494-5.977-6.393-7.135c-1.189-0.475-2.47-0.715-3.806-0.715C180.296-1.465,177.355-0.237,175.214,1.905z
					 M186.718,0.178c2.628,1.05,4.695,3.373,5.822,6.542c1.175,3.301,0.83,7.164,0.524,10.573
					c-0.399,4.447-0.746,9.165-0.307,13.806c-1.374-0.131-2.814-0.194-4.381-0.194c-3.07,0-6.207,0.251-9.24,0.494l-1.973,0.156
					c-1.117,0.085-2.096,0.126-2.992,0.126c-3.506,0-6.145-0.647-8.304-2.039c-3.865-2.482-5.511-6.639-4.293-10.847
					c1.278-4.416,5.509-7.621,10.06-7.621c0.227,0,0.456,0.009,0.684,0.024c0.145,0.011,0.289-0.042,0.392-0.145
					c0.104-0.103,0.157-0.245,0.146-0.391c-0.219-2.904,0.928-5.913,3.066-8.051c1.955-1.956,4.637-3.077,7.361-3.077
					C184.491-0.466,185.648-0.249,186.718,0.178z"/>
				<path fill="#FFFFFF" d="M42.509,16.255c-1.716,1.813-2.548,3.691-2.475,5.583c0.099,2.588,1.87,4.219,1.945,4.287
					c0.096,0.087,0.216,0.129,0.336,0.129c0.136,0,0.273-0.056,0.372-0.165c0.185-0.205,0.169-0.521-0.035-0.706
					c-0.015-0.014-1.534-1.412-1.618-3.584c-0.063-1.613,0.679-3.247,2.202-4.857c0.189-0.201,0.18-0.517-0.02-0.707
					C43.015,16.046,42.699,16.055,42.509,16.255z"/>
				<path fill="#FFFFFF" d="M160.942-34.981c-0.91-1.108-2.411-3.26-2.329-5.333c0.043-1.087,0.509-1.995,1.425-2.774
					c0.21-0.179,0.235-0.495,0.058-0.705c-0.18-0.211-0.496-0.235-0.705-0.057c-1.125,0.957-1.722,2.134-1.775,3.497
					c-0.1,2.505,1.68,4.975,2.666,6.145c-3.049,0.407-7.003,3.131-8.621,7.037c-1.488,3.592-0.557,7.323,2.627,10.506
					c5.371,5.37,11.783,5.95,14.292,5.95c3.922,0,6.903-1.222,7.255-2.971c0.561-2.799,1.667-3.909,1.689-3.932
					c0.013-0.011,1.121-1.116,3.918-1.677c1.018-0.203,1.875-1.297,2.416-3.081c1.221-4.033,0.793-12.278-5.394-18.466
					c-2.205-2.205-4.597-3.322-7.112-3.322c-2.646,0-5.283,1.263-7.429,3.557C162.309-38.883,161.222-36.805,160.942-34.981z
					 M171.352-43.166c2.239,0,4.395,1.02,6.405,3.028c5.875,5.877,6.294,13.667,5.144,17.469c-0.41,1.353-1.045,2.269-1.655,2.391
					c-3.142,0.63-4.392,1.912-4.425,1.949c-0.055,0.051-1.338,1.302-1.967,4.445c-0.209,1.042-2.666,2.167-6.273,2.167h-0.001
					c-2.384,0-8.478-0.552-13.584-5.657c-3.687-3.689-3.347-7.157-2.41-9.416c1.581-3.816,5.729-6.476,8.465-6.476
					c0.116,0,0.224-0.045,0.311-0.118c0.094-0.019,0.186-0.055,0.257-0.128c0.071-0.071,0.107-0.16,0.127-0.251
					c0.076-0.09,0.124-0.201,0.124-0.32c-0.001-1.739,1.093-4.032,2.786-5.843C165.786-41.136,168.161-43.166,171.352-43.166z"/>
				<path fill="#FFFFFF" d="M156.038-20.149c-0.185-0.206-0.499-0.224-0.706-0.04c-0.206,0.184-0.225,0.5-0.04,0.706
					c0.226,0.254,5.135,5.679,11.19,5.679c0.633,0,1.277-0.059,1.931-0.189c0.272-0.054,0.446-0.317,0.394-0.588
					c-0.056-0.272-0.322-0.448-0.589-0.393C161.878-13.709,156.098-20.084,156.038-20.149z"/>
				<path fill="#FFFFFF" d="M62.618,62.404c0.276,0,0.5-0.223,0.5-0.5l0.001-5.523c0-0.276-0.225-0.5-0.5-0.5
					c-0.276,0-0.5,0.224-0.5,0.5l-0.001,5.523C62.118,62.18,62.342,62.404,62.618,62.404z"/>
				<path fill="#FFFFFF" d="M73.279,62.404c0.277,0,0.5-0.223,0.5-0.5v-5.523c0-0.276-0.225-0.5-0.5-0.5c-0.276,0-0.5,0.224-0.5,0.5
					v5.523C72.779,62.18,73.003,62.404,73.279,62.404z"/>
				<path fill="#FFFFFF" d="M91.023-12.789c-0.002-0.002-0.002-0.004-0.004-0.006l-6.223-6.221c-3.318-3.317-8.5-3.535-11.554-0.482
					c-1.484,1.484-2.247,3.507-2.147,5.698c0.098,2.173,1.033,4.25,2.635,5.851l6.219,6.22c0.001,0.001,0.001,0.002,0.002,0.003
					l6.22,6.219c1.603,1.602,3.681,2.538,5.853,2.636c0.127,0.006,0.252,0.008,0.377,0.008c2.045,0,3.923-0.759,5.32-2.158
					c3.053-3.053,2.834-8.236-0.484-11.553L91.023-12.789z M72.094-13.845c-0.086-1.907,0.573-3.663,1.856-4.946
					c2.661-2.662,7.211-2.447,10.14,0.482l5.869,5.868l-9.653,9.654l-5.868-5.87C73.014-10.08,72.182-11.923,72.094-13.845z
					 M97.014,4.272c-1.283,1.285-3.043,1.944-4.945,1.858c-1.922-0.086-3.766-0.919-5.19-2.344L81.012-2.08l9.653-9.653l5.864,5.866
					C99.458-2.939,99.675,1.609,97.014,4.272z"/>
				<path fill="#FFFFFF" d="M85.195-25.955c0.318,1.593,1.097,3.046,2.252,4.203c1.554,1.554,3.621,2.41,5.818,2.41
					s4.264-0.858,5.818-2.411c1.555-1.553,2.41-3.62,2.41-5.818c0-0.529-0.053-1.05-0.149-1.559
					c0.015-0.067,0.018-0.138,0.003-0.209c-0.017-0.077-0.054-0.144-0.1-0.201c-0.354-1.444-1.086-2.771-2.164-3.849
					c-1.555-1.555-3.621-2.411-5.818-2.411s-4.264,0.856-5.818,2.411C85.499-31.44,84.658-28.661,85.195-25.955z M98.377-22.46
					c-1.365,1.365-3.18,2.117-5.111,2.117c-1.931,0-3.746-0.752-5.111-2.117c-0.878-0.878-1.49-1.958-1.825-3.137l14.08-3.029
					c0.051,0.347,0.085,0.698,0.085,1.055C100.494-25.64,99.742-23.825,98.377-22.46z M93.266-34.8c1.93,0,3.746,0.753,5.111,2.118
					c0.871,0.871,1.489,1.926,1.825,3.077l-14.084,3.03c-0.309-2.241,0.427-4.497,2.036-6.107C89.52-34.048,91.334-34.8,93.266-34.8
					z"/>
				<path fill="#FFFFFF" d="M105.795-23.27c-2.197,0-4.264,0.856-5.818,2.41c-1.949,1.949-2.791,4.728-2.252,7.434
					c0.318,1.595,1.098,3.048,2.252,4.203c1.553,1.555,3.621,2.411,5.818,2.411c2.198,0,4.266-0.856,5.818-2.411
					c3.207-3.207,3.207-8.428,0-11.637C110.061-22.414,107.993-23.27,105.795-23.27z M110.906-9.93
					c-1.365,1.366-3.182,2.118-5.111,2.118s-3.746-0.752-5.111-2.118c-1.015-1.014-1.699-2.291-1.979-3.691
					c-0.473-2.377,0.266-4.819,1.979-6.531c1.365-1.365,3.18-2.117,5.111-2.117s3.746,0.752,5.111,2.116
					C113.725-17.333,113.725-12.747,110.906-9.93z"/>
				<path fill="#FFFFFF" d="M111.662-29.138c0,0.53,0.053,1.052,0.149,1.562c-0.014,0.067-0.017,0.137-0.001,0.208
					c0.016,0.076,0.053,0.14,0.097,0.197c0.354,1.445,1.086,2.773,2.166,3.852c1.553,1.554,3.62,2.41,5.817,2.41
					c2.198,0,4.264-0.856,5.818-2.41c1.948-1.948,2.79-4.728,2.252-7.436c-0.318-1.593-1.098-3.046-2.252-4.203
					c-1.553-1.554-3.62-2.41-5.818-2.41c-2.197,0-4.264,0.856-5.817,2.41C112.518-33.403,111.662-31.336,111.662-29.138z
					 M125.002-24.025c-1.365,1.365-3.182,2.117-5.111,2.117s-3.746-0.752-5.111-2.117c-0.871-0.871-1.489-1.926-1.825-3.077
					l14.084-3.03C127.348-27.89,126.61-25.634,125.002-24.025z M119.891-36.367c1.93,0,3.746,0.752,5.111,2.117
					c0.879,0.879,1.49,1.96,1.825,3.14l-14.08,3.029c-0.051-0.347-0.085-0.699-0.085-1.056c0-1.931,0.752-3.747,2.117-5.113
					C116.145-35.615,117.96-36.367,119.891-36.367z"/>
				<path fill="#FFFFFF" d="M107.359-33.438c2.199,0,4.266-0.857,5.82-2.41c1.947-1.946,2.789-4.725,2.252-7.434
					c-0.318-1.593-1.098-3.046-2.252-4.203c-1.555-1.554-3.621-2.41-5.82-2.41c-2.196,0-4.262,0.856-5.816,2.41
					c-1.555,1.553-2.411,3.62-2.411,5.818s0.856,4.264,2.411,5.818C103.096-34.294,105.163-33.438,107.359-33.438z M102.25-46.779
					c1.365-1.365,3.18-2.117,5.109-2.117c1.932,0,3.746,0.752,5.113,2.116c1.014,1.016,1.698,2.293,1.979,3.691
					c0.472,2.381-0.268,4.822-1.979,6.532c-1.367,1.366-3.183,2.118-5.113,2.118c-1.93,0-3.744-0.752-5.109-2.118
					c-1.366-1.365-2.118-3.18-2.118-5.111S100.884-45.414,102.25-46.779z"/>
				<path fill="#FFFFFF" d="M109.141,40.608c0.098,0.097,0.226,0.146,0.354,0.146s0.256-0.049,0.354-0.146
					c0.194-0.195,0.194-0.512,0-0.707l-4.746-4.746c-0.195-0.195-0.513-0.195-0.707,0c-0.195,0.195-0.195,0.512,0,0.707
					L109.141,40.608z"/>
				<path fill="#FFFFFF" d="M95.197,50.793l4.67,4.67c0.001,0.001,0.002,0.001,0.003,0.002l0.804,0.804c0,0,0.001,0.001,0.001,0.001
					l2.53,2.531c0.094,0.093,0.221,0.146,0.354,0.146s0.26-0.052,0.354-0.146l7.776-7.777c0.194-0.195,0.194-0.512,0-0.707
					c-0.002-0.001-0.004-0.002-0.006-0.004l-0.67-0.67l6.012-6.013c0.094-0.094,0.146-0.221,0.146-0.354
					c0-0.133-0.052-0.26-0.146-0.354l-12.068-12.068c-0.195-0.195-0.512-0.195-0.707,0l-0.494,0.494l-4.736-4.737
					c-0.187-0.188-0.519-0.188-0.707,0l-0.584,0.584l-8.33-8.328c-0.127-0.127-0.311-0.177-0.486-0.128
					c-0.173,0.047-0.309,0.184-0.352,0.358l-1.709,6.705c-0.045,0.171,0.006,0.352,0.131,0.477l5.832,5.832l-0.586,0.586
					c-0.094,0.094-0.146,0.222-0.146,0.354c0,0.133,0.052,0.26,0.146,0.354l4.734,4.734l-0.492,0.492
					c-0.093,0.094-0.146,0.221-0.146,0.354c0,0.133,0.052,0.26,0.146,0.354l1.108,1.107c-1.021,0.231-1.974,0.725-2.747,1.499
					C92.493,44.286,92.657,48.255,95.197,50.793z M87.891,25.773l1.422-5.578l7.709,7.708l-3.499,3.5L87.891,25.773z M93.289,33.051
					l5.378-5.379l4.382,4.383l-5.379,5.377L93.289,33.051z M97.531,38.985l7.072-7.07l11.361,11.361l-5.658,5.659l-1.953-1.954
					c-0.001-0.001-0.001-0.002-0.002-0.003l-4.67-4.67c-1.358-1.359-3.126-2.03-4.835-2.009L97.531,38.985z M102.975,43.015
					l4.668,4.668c0.001,0.001,0.001,0.002,0.002,0.003l2.983,2.985l-7.069,7.07l-1.728-1.729c-0.001-0.001-0.001-0.002-0.002-0.002
					l-3.338-3.338c-0.001-0.001-0.002-0.001-0.003-0.002l-2.584-2.584c-2.15-2.149-2.313-5.483-0.365-7.434
					C97.49,40.702,100.826,40.865,102.975,43.015z"/>
				<path fill="#FFFFFF" d="M135.507,1.077l-3.125,3.124c-0.487-0.529-1.403-1.444-3.083-3.124c-0.529-0.528-1.451-0.526-1.979,0
					l-1.906,1.907c-0.262,0.262-0.407,0.613-0.407,0.988c-0.001,0.375,0.144,0.727,0.407,0.99l3.104,3.103l-3.104,3.104
					c-0.264,0.263-0.408,0.614-0.408,0.989s0.145,0.726,0.408,0.989l1.904,1.907c0.529,0.526,1.453,0.526,1.979,0
					c1.682-1.681,2.598-2.597,3.084-3.125l3.126,3.125c0.263,0.263,0.614,0.408,0.988,0.408c0.375,0,0.728-0.145,0.989-0.41
					l1.906-1.905c0.262-0.262,0.408-0.613,0.408-0.987c0.001-0.376-0.145-0.728-0.408-0.992l-3.104-3.104l3.104-3.104
					c0.545-0.546,0.545-1.433,0-1.978l-1.904-1.905C136.958,0.549,136.029,0.55,135.507,1.077z M138.682,4.254l-3.457,3.458
					c-0.094,0.094-0.146,0.221-0.146,0.354c0,0.133,0.052,0.26,0.146,0.354l3.457,3.458c0.075,0.075,0.116,0.175,0.115,0.283
					c0,0.106-0.04,0.205-0.115,0.28l-1.906,1.906c-0.147,0.147-0.414,0.148-0.562,0l-3.459-3.458
					c-0.093-0.094-0.221-0.146-0.354-0.146c-0.135,0-0.262,0.054-0.356,0.15c-0.071,0.073-3.454,3.455-3.454,3.455
					c-0.148,0.148-0.415,0.147-0.562,0l-1.905-1.907c-0.075-0.074-0.115-0.173-0.115-0.281c0-0.108,0.04-0.207,0.115-0.282
					l3.458-3.458c0.093-0.094,0.146-0.222,0.146-0.354c0-0.133-0.053-0.26-0.146-0.354l-3.458-3.456
					c-0.074-0.074-0.114-0.174-0.114-0.282s0.04-0.207,0.114-0.281l1.907-1.907c0.146-0.149,0.414-0.15,0.562,0
					c0,0,3.381,3.381,3.452,3.454c0.093,0.094,0.222,0.149,0.354,0.149h0.002c0.132,0,0.26-0.052,0.354-0.146l3.46-3.458
					c0.149-0.149,0.413-0.149,0.562,0.001l1.906,1.905C138.837,3.846,138.837,4.099,138.682,4.254z"/>
				<path fill="#FFFFFF" d="M139.504-17.206c-0.188-0.188-0.52-0.188-0.707,0L128.744-7.152l-3.21-3.208
					c-0.195-0.195-0.513-0.195-0.707,0L113.76,0.705c-0.093,0.094-0.146,0.221-0.146,0.354c0,0.133,0.053,0.26,0.146,0.354
					l3.21,3.209l-10.055,10.055c-0.093,0.094-0.146,0.221-0.146,0.354c0,0.133,0.051,0.26,0.146,0.354l20.017,20.014
					c0.098,0.097,0.226,0.146,0.354,0.146s0.256-0.049,0.354-0.146L159.52,3.518c0.195-0.195,0.195-0.512,0-0.707L139.504-17.206z
					 M114.82,1.059l10.359-10.36l2.857,2.855l-10.36,10.36L114.82,1.059z M127.286,34.338l-19.31-19.307l31.176-31.176L158.46,3.164
					L127.286,34.338z"/>
				<path fill="#FFFFFF" d="M146.86,73.533c0.272-0.198,0.534-0.412,0.784-0.641c0.062-0.068,0.109-0.147,0.169-0.217
					c1.455,1.356,3.231,2.028,5.165,2.028c1.127,0,2.307-0.226,3.505-0.671c1.996-0.741,4.042-2.094,5.979-4.031
					c3.964-3.965,7.494-9.535-0.458-17.488l-5.431-5.431c0.66-0.911,1.029-1.995,1.031-3.141c0.002-1.44-0.555-2.791-1.569-3.806
					c-1.013-1.012-2.36-1.57-3.798-1.57c-1.441,0-2.795,0.561-3.815,1.58c-2.103,2.101-2.106,5.516-0.01,7.613
					c1.013,1.012,2.36,1.569,3.798,1.569c1.394,0,2.701-0.534,3.706-1.489l5.381,5.381c2.503,2.503,3.796,4.729,4.258,6.729
					c0.125,0.545,0.189,1.074,0.199,1.586c0.061,3.076-1.827,5.586-3.999,7.758c-4.167,4.167-8.824,5.454-12.118,3.517
					c-0.428-0.252-0.829-0.565-1.207-0.927c1.348-1.972,1.957-4.474,1.877-7.218c-0.158-5.39-2.948-11.692-7.894-16.636
					c-1.391-1.393-3.303-2.305-5.241-2.501c-1.764-0.179-3.406,0.257-4.591,1.199l-0.727-0.726c-0.66-0.659-1.811-0.658-2.469,0
					l-0.439,0.439c-0.33,0.33-0.512,0.768-0.512,1.235c0,0.466,0.182,0.904,0.512,1.232l1.761,1.762
					c0.33,0.329,0.767,0.51,1.233,0.51s0.904-0.181,1.233-0.509l0.443-0.441c0.678-0.68,0.678-1.787-0.001-2.468l-0.323-0.323
					c0.976-0.732,2.323-1.065,3.778-0.915c1.713,0.173,3.402,0.98,4.635,2.213c4.635,4.634,7.322,10.658,7.56,15.76
					c0.142,3.061-0.598,5.789-2.327,7.688c-5.099,4.648-16.072,2.219-23.486-5.195c-1.294-1.295-2.172-3.061-2.408-4.845
					c-0.029-0.22-0.048-0.436-0.057-0.649c-0.051-1.25,0.248-2.367,0.849-3.2l0.417,0.417c0.33,0.329,0.768,0.511,1.234,0.511
					s0.904-0.182,1.234-0.51l0.44-0.441c0.329-0.329,0.511-0.767,0.51-1.233c0-0.466-0.183-0.904-0.512-1.233l-1.761-1.762
					c-0.658-0.659-1.811-0.657-2.467,0l-0.44,0.44c-0.33,0.329-0.513,0.768-0.511,1.234c0,0.466,0.182,0.904,0.511,1.233
					l0.629,0.629c-0.921,1.192-1.311,2.867-1.067,4.696c0.262,1.999,1.244,3.975,2.691,5.421c1.589,1.589,3.317,2.955,5.111,4.083
					c3.947,2.48,8.21,3.807,11.988,3.807C142.521,75.587,144.954,74.924,146.86,73.533z M149.12,47.053
					c-1.706-1.707-1.701-4.488,0.01-6.199c0.83-0.83,1.935-1.287,3.108-1.287c1.17,0,2.268,0.454,3.091,1.277
					c0.825,0.825,1.278,1.925,1.276,3.097s-0.459,2.274-1.287,3.102c-0.828,0.829-1.932,1.286-3.107,1.286
					C151.041,48.329,149.943,47.876,149.12,47.053z M132.912,49.523l-0.441,0.44c-0.283,0.281-0.775,0.279-1.055,0l-1.762-1.763
					c-0.141-0.139-0.219-0.326-0.219-0.524c0-0.199,0.078-0.386,0.219-0.527l0.441-0.44c0.139-0.14,0.326-0.218,0.525-0.218
					s0.387,0.077,0.527,0.219l1.762,1.759C133.2,48.76,133.2,49.233,132.912,49.523z M121.201,55.191l0.439-0.44
					c0.141-0.14,0.327-0.218,0.527-0.218c0.199,0,0.387,0.078,0.527,0.217l1.76,1.762c0.141,0.141,0.219,0.329,0.219,0.527
					c0,0.198-0.076,0.385-0.217,0.525l-0.441,0.441c-0.281,0.281-0.772,0.281-1.054,0l-1.761-1.761
					c-0.141-0.14-0.219-0.327-0.219-0.526C120.982,55.519,121.061,55.332,121.201,55.191z"/>
				<path fill="#FFFFFF" d="M150.188,41.91c-0.545,0.545-0.849,1.271-0.852,2.044c-0.003,0.775,0.295,1.502,0.84,2.047
					c0.545,0.542,1.268,0.841,2.037,0.841c0.775,0,1.506-0.302,2.055-0.853c0.547-0.546,0.85-1.273,0.853-2.045
					c0.003-0.774-0.297-1.501-0.843-2.045C153.189,40.81,151.282,40.814,150.188,41.91z M153.561,45.283
					c-0.718,0.717-1.965,0.722-2.679,0.011c-0.354-0.355-0.549-0.829-0.547-1.335c0.002-0.507,0.201-0.984,0.56-1.342
					c0.36-0.36,0.838-0.559,1.348-0.559c0.503,0,0.975,0.194,1.328,0.548c0.355,0.356,0.551,0.829,0.549,1.335
					C154.117,44.448,153.918,44.924,153.561,45.283z"/>
				<path fill="#FFFFFF" d="M69.953-50.566c3.482,0,6.669-1.269,8.973-3.572c2.577-2.576,3.831-6.161,3.532-10.093
					c-0.297-3.903-2.093-7.684-5.056-10.647c-3.241-3.241-7.528-5.099-11.764-5.099c-3.485,0-6.673,1.269-8.978,3.575
					c-2.576,2.575-3.83,6.158-3.53,10.09c0.297,3.903,2.093,7.685,5.057,10.648C61.429-52.424,65.717-50.566,69.953-50.566z
					 M57.369-75.696c2.117-2.116,5.053-3.282,8.27-3.282c3.973,0,8.004,1.752,11.057,4.805c2.795,2.794,4.488,6.351,4.767,10.016
					c0.276,3.636-0.875,6.943-3.241,9.31c-2.115,2.115-5.051,3.28-8.267,3.28c-3.974,0-8.003-1.751-11.058-4.805
					c-2.795-2.795-4.488-6.352-4.767-10.017C53.851-70.025,55.003-73.33,57.369-75.696z"/>
				<path fill="#FFFFFF" d="M52.635-52.892c-0.195,0.195-0.195,0.512,0,0.707l2.072,2.072c0.098,0.097,0.226,0.146,0.354,0.146
					c0.127,0,0.255-0.049,0.353-0.146l2.624-2.624c3.566,2.964,7.952,4.633,12.289,4.633c3.492,0,6.723-1.099,9.27-3.111
					l4.307,4.309l-3.899,3.9c-0.194,0.195-0.194,0.512,0,0.707l1.361,1.361c0.098,0.097,0.226,0.146,0.354,0.146
					s0.257-0.049,0.353-0.146l4.252-4.252c0.001-0.001,0.002-0.001,0.003-0.002l1.544-1.544c0.002-0.002,0.004-0.002,0.006-0.004
					l4.255-4.254c0.195-0.195,0.195-0.512,0-0.707l-1.362-1.363c-0.094-0.093-0.221-0.146-0.354-0.146s-0.26,0.052-0.354,0.146
					l-3.901,3.902l-4.303-4.304c4.996-6.313,3.876-16.292-2.852-23.018c-3.787-3.787-8.797-5.959-13.745-5.959
					c-4.064,0-7.781,1.48-10.469,4.168c-5.776,5.777-5.449,15.639,0.468,22.756L52.635-52.892z M55.06-51.173l-1.365-1.365
					l2.235-2.236c0.217,0.238,0.423,0.482,0.653,0.713c0.229,0.229,0.477,0.434,0.714,0.651L55.06-51.173z M85.805-48.101
					c0.188,0.188,0.52,0.188,0.707,0l3.901-3.902l0.655,0.656l-3.901,3.9L85.62-45.9c-0.001,0.001-0.002,0.001-0.003,0.002l-3.9,3.9
					l-0.654-0.654l3.9-3.9c0.195-0.195,0.195-0.512,0-0.707l-4.61-4.612c0.146-0.134,0.302-0.258,0.442-0.399
					c0.143-0.142,0.262-0.299,0.396-0.446L85.805-48.101z M55.498-77.566c2.499-2.499,5.966-3.875,9.762-3.875
					c4.686,0,9.438,2.065,13.038,5.666c6.779,6.778,7.582,17.006,1.79,22.799c-2.499,2.498-5.966,3.874-9.762,3.874
					c-4.684,0-9.435-2.065-13.036-5.665C50.511-61.546,49.707-71.774,55.498-77.566z"/>
				<path fill="#FFFFFF" d="M68.273-57.49c0.276,0,0.5-0.224,0.5-0.5v-15.15c0-0.276-0.225-0.5-0.5-0.5c-0.276,0-0.5,0.224-0.5,0.5
					v15.15C67.773-57.714,67.997-57.49,68.273-57.49z"/>
				<path fill="#FFFFFF" d="M122.746-56.302c5.083,5.084,11.604,7.889,17.1,7.889c3.057,0,5.799-0.867,7.799-2.695
					c0.062-0.068,0.109-0.146,0.169-0.216c1.454,1.356,3.231,2.029,5.165,2.029c3.006,0,6.385-1.604,9.484-4.702
					c3.964-3.965,7.494-9.535-0.458-17.488l-6.014-6.014l-0.707,0.707l6.014,6.014c7.282,7.283,4.318,12.213,0.458,16.074
					c-4.709,4.708-10.039,5.732-13.326,2.588c3.996-5.846,1.447-16.393-6.016-23.854c-1.391-1.393-3.303-2.305-5.241-2.501
					c-1.981-0.201-3.813,0.37-5.011,1.568l0.707,0.707c0.984-0.985,2.523-1.452,4.203-1.28c1.713,0.173,3.402,0.98,4.635,2.213
					c7.416,7.414,9.845,18.387,5.232,23.449c-5.099,4.648-16.072,2.219-23.486-5.196c-1.294-1.294-2.172-3.06-2.408-4.845
					c-0.232-1.757,0.193-3.324,1.17-4.3l-0.707-0.707c-1.197,1.198-1.729,3.071-1.453,5.139
					C120.316-59.725,121.299-57.749,122.746-56.302z"/>
				<path fill="#FFFFFF" d="M187.088,123.252c-1.189-0.475-2.47-0.715-3.806-0.715c-2.986,0-5.927,1.227-8.068,3.369
					c-2.204,2.203-3.446,5.258-3.384,8.271c-5.109-0.112-9.798,3.444-11.217,8.341c-1.344,4.65,0.462,9.236,4.714,11.967
					c2.327,1.5,5.138,2.197,8.845,2.197c0.922,0,1.926-0.041,3.068-0.129l1.976-0.154c3.015-0.241,6.132-0.491,9.161-0.491
					c1.766,0,3.364,0.082,4.887,0.252c0.15,0.015,0.301-0.037,0.408-0.144c0.107-0.107,0.161-0.258,0.145-0.41
					c-0.526-4.746-0.168-9.629,0.244-14.223c0.314-3.51,0.67-7.49-0.58-10.996C192.256,126.943,189.986,124.409,187.088,123.252z
					 M193.064,141.294c-0.399,4.448-0.746,9.164-0.307,13.806c-1.374-0.13-2.814-0.193-4.381-0.193c-3.07,0-6.207,0.252-9.24,0.494
					l-1.973,0.156c-1.117,0.084-2.096,0.125-2.992,0.125c-3.506,0-6.145-0.646-8.304-2.039c-3.865-2.482-5.511-6.639-4.293-10.847
					c1.278-4.416,5.509-7.621,10.06-7.621c0.227,0,0.456,0.009,0.684,0.026c0.145,0.007,0.289-0.042,0.392-0.146
					c0.104-0.103,0.157-0.246,0.146-0.392c-0.219-2.904,0.928-5.913,3.066-8.052c1.955-1.954,4.637-3.075,7.361-3.075
					c1.208,0,2.365,0.216,3.435,0.644c2.628,1.049,4.695,3.372,5.822,6.541C193.715,134.021,193.37,137.884,193.064,141.294z"/>
				<path fill="#FFFFFF" d="M42.509,140.255c-1.716,1.812-2.548,3.69-2.475,5.583c0.099,2.587,1.87,4.219,1.945,4.286
					c0.096,0.088,0.216,0.13,0.336,0.13c0.136,0,0.273-0.056,0.372-0.166c0.185-0.204,0.169-0.52-0.035-0.705
					c-0.015-0.015-1.534-1.412-1.618-3.584c-0.063-1.613,0.679-3.248,2.202-4.857c0.189-0.2,0.18-0.518-0.02-0.707
					C43.015,140.046,42.699,140.055,42.509,140.255z"/>
				<path fill="#FFFFFF" d="M175.834,110.312c0.561-2.799,1.667-3.91,1.689-3.933c0.013-0.011,1.121-1.116,3.918-1.677
					c1.018-0.203,1.875-1.299,2.416-3.081c1.221-4.033,0.793-12.278-5.394-18.466c-2.205-2.204-4.597-3.321-7.112-3.321
					c-2.646,0-5.283,1.263-7.429,3.558c-1.614,1.724-2.7,3.801-2.98,5.624c-0.91-1.107-2.411-3.259-2.329-5.333
					c0.043-1.086,0.509-1.994,1.425-2.773c0.21-0.18,0.235-0.495,0.058-0.705c-0.18-0.21-0.496-0.236-0.705-0.057
					c-1.125,0.957-1.722,2.134-1.775,3.496c-0.1,2.505,1.68,4.976,2.666,6.146c-3.049,0.409-7.003,3.134-8.621,7.038
					c-1.488,3.592-0.557,7.322,2.627,10.506c5.371,5.37,11.783,5.95,14.292,5.95C172.501,113.284,175.482,112.062,175.834,110.312z
					 M152.585,97.21c1.581-3.815,5.729-6.476,8.465-6.476c0.116,0,0.224-0.046,0.311-0.118c0.094-0.019,0.186-0.056,0.257-0.13
					c0.07-0.07,0.106-0.158,0.126-0.248c0.076-0.089,0.125-0.201,0.125-0.321c-0.001-1.737,1.093-4.031,2.786-5.842
					c1.132-1.211,3.507-3.24,6.697-3.24c2.239,0,4.395,1.019,6.405,3.026c5.875,5.878,6.294,13.668,5.144,17.47
					c-0.41,1.353-1.045,2.269-1.655,2.392c-3.142,0.629-4.392,1.91-4.425,1.947c-0.055,0.051-1.338,1.303-1.967,4.445
					c-0.209,1.043-2.666,2.168-6.273,2.168h-0.001c-2.384,0-8.478-0.553-13.584-5.657C151.309,102.938,151.648,99.469,152.585,97.21
					z"/>
				<path fill="#FFFFFF" d="M168.807,109.419c-0.056-0.272-0.322-0.448-0.589-0.394c-6.34,1.266-12.12-5.109-12.18-5.174
					c-0.185-0.207-0.499-0.225-0.706-0.041c-0.206,0.185-0.225,0.5-0.04,0.705c0.226,0.256,5.135,5.68,11.19,5.68
					c0.633,0,1.277-0.057,1.931-0.188C168.686,109.952,168.859,109.689,168.807,109.419z"/>
				<path fill="#FFFFFF" d="M82.458,183.77c-0.297-3.903-2.093-7.685-5.056-10.647c-3.241-3.241-7.528-5.099-11.764-5.099
					c-3.485,0-6.673,1.269-8.978,3.574c-2.576,2.575-3.83,6.158-3.53,10.09c0.297,3.903,2.093,7.685,5.057,10.648
					c3.241,3.24,7.529,5.1,11.765,5.1c3.482,0,6.669-1.271,8.973-3.574C81.503,191.285,82.757,187.701,82.458,183.77z
					 M78.221,193.154c-2.115,2.115-5.051,3.281-8.267,3.281c-3.974,0-8.003-1.752-11.058-4.807
					c-2.795-2.795-4.488-6.354-4.767-10.018c-0.278-3.637,0.874-6.941,3.24-9.307c2.117-2.117,5.053-3.283,8.27-3.283
					c3.973,0,8.004,1.752,11.057,4.807c2.795,2.794,4.488,6.352,4.767,10.018C81.738,187.48,80.587,190.788,78.221,193.154z"/>
				<path fill="#FFFFFF" d="M90.768,194.938c-0.094-0.094-0.221-0.146-0.354-0.146s-0.26,0.052-0.354,0.146l-3.901,3.901
					l-4.303-4.304c4.642-5.865,3.999-14.892-1.51-21.537l2.814-2.814c0.093-0.095,0.146-0.222,0.146-0.354
					c0-0.134-0.052-0.261-0.146-0.354l-2.071-2.07c-0.195-0.194-0.512-0.194-0.707,0l-2.81,2.81
					c-3.571-2.977-7.966-4.655-12.313-4.655c-4.064,0-7.781,1.479-10.469,4.168c-5.776,5.777-5.449,15.638,0.468,22.756
					l-2.624,2.625c-0.195,0.195-0.195,0.513,0,0.707l2.072,2.072c0.098,0.098,0.226,0.146,0.354,0.146
					c0.127,0,0.255-0.049,0.353-0.146l2.623-2.623c3.567,2.962,7.951,4.633,12.289,4.633c3.492,0,6.723-1.099,9.27-3.11l4.307,4.31
					l-3.899,3.899c-0.194,0.194-0.194,0.512,0,0.707l1.361,1.36c0.098,0.098,0.226,0.146,0.354,0.146s0.257-0.049,0.353-0.146
					l4.252-4.252c0.001-0.001,0.002-0.001,0.003-0.002l1.541-1.541c0.003-0.003,0.006-0.004,0.009-0.006l4.255-4.255
					c0.195-0.194,0.195-0.512,0-0.707L90.768,194.938z M80.736,168.465l1.365,1.363l-2.424,2.423
					c-0.224-0.245-0.436-0.496-0.673-0.733c-0.222-0.222-0.461-0.419-0.691-0.63L80.736,168.465z M55.06,196.827l-1.365-1.365
					l2.234-2.235c0.218,0.237,0.423,0.482,0.654,0.713c0.229,0.229,0.476,0.433,0.714,0.65L55.06,196.827z M57.29,193.232
					c-6.779-6.778-7.583-17.006-1.792-22.799c2.499-2.498,5.966-3.875,9.762-3.875c4.686,0,9.438,2.065,13.038,5.666
					c6.779,6.778,7.582,17.006,1.79,22.799c-2.499,2.498-5.966,3.875-9.762,3.875C65.643,198.898,60.891,196.833,57.29,193.232z
					 M87.167,200.553L85.62,202.1c-0.001,0.001-0.002,0.001-0.003,0.002l-3.9,3.9l-0.654-0.654l3.9-3.899
					c0.195-0.195,0.195-0.513,0-0.707l-4.61-4.612c0.146-0.134,0.302-0.258,0.442-0.398c0.143-0.143,0.262-0.299,0.396-0.446
					l4.613,4.614c0.188,0.188,0.52,0.188,0.707,0l3.901-3.901l0.655,0.655L87.167,200.553z"/>
				<path fill="#FFFFFF" d="M62.619,179.881c-0.276,0-0.5,0.225-0.5,0.5l-0.001,5.523c0,0.275,0.224,0.5,0.5,0.5s0.5-0.223,0.5-0.5
					l0.001-5.523C63.119,180.105,62.895,179.881,62.619,179.881z"/>
				<path fill="#FFFFFF" d="M73.279,179.881c-0.276,0-0.5,0.225-0.5,0.5v5.523c0,0.275,0.224,0.5,0.5,0.5c0.277,0,0.5-0.223,0.5-0.5
					v-5.523C73.779,180.105,73.555,179.881,73.279,179.881z"/>
				<path fill="#FFFFFF" d="M68.273,174.359c-0.276,0-0.5,0.225-0.5,0.5v15.15c0,0.276,0.224,0.5,0.5,0.5s0.5-0.224,0.5-0.5v-15.15
					C68.773,174.584,68.549,174.359,68.273,174.359z"/>
				<path fill="#FFFFFF" d="M79.949,122.271c0.001,0.001,0.001,0.002,0.002,0.003l6.22,6.219c1.603,1.603,3.681,2.537,5.853,2.636
					c0.127,0.006,0.252,0.009,0.377,0.009c2.045,0,3.923-0.759,5.32-2.158c3.053-3.053,2.834-8.235-0.484-11.553l-6.213-6.215
					c-0.002-0.002-0.002-0.004-0.004-0.006l-6.223-6.221c-3.318-3.317-8.5-3.536-11.554-0.482c-1.484,1.482-2.247,3.507-2.147,5.698
					c0.098,2.172,1.033,4.25,2.635,5.851L79.949,122.271z M97.014,128.271c-1.283,1.285-3.043,1.942-4.945,1.858
					c-1.922-0.087-3.766-0.92-5.19-2.345l-5.866-5.865l9.653-9.652l5.864,5.865C99.458,121.061,99.675,125.609,97.014,128.271z
					 M73.95,105.209c2.661-2.662,7.211-2.447,10.14,0.482l5.869,5.868l-9.653,9.653l-5.868-5.87
					c-1.424-1.423-2.256-3.266-2.344-5.188C72.008,108.248,72.667,106.491,73.95,105.209z"/>
				<path fill="#FFFFFF" d="M85.195,98.045c0.318,1.594,1.097,3.046,2.252,4.203c1.554,1.554,3.621,2.409,5.818,2.409
					s4.264-0.857,5.818-2.41c1.555-1.554,2.41-3.62,2.41-5.817c0-0.529-0.053-1.051-0.149-1.559c0.015-0.067,0.018-0.139,0.003-0.21
					c-0.017-0.078-0.054-0.145-0.1-0.203c-0.354-1.443-1.086-2.77-2.164-3.847c-1.555-1.555-3.621-2.411-5.818-2.411
					s-4.264,0.856-5.818,2.411C85.499,92.561,84.658,95.339,85.195,98.045z M98.377,101.54c-1.365,1.364-3.18,2.116-5.111,2.116
					c-1.931,0-3.746-0.752-5.111-2.116c-0.878-0.879-1.49-1.958-1.825-3.137l14.08-3.029c0.051,0.347,0.085,0.698,0.085,1.056
					C100.494,98.359,99.742,100.175,98.377,101.54z M93.266,89.2c1.93,0,3.746,0.752,5.111,2.118
					c0.871,0.871,1.489,1.926,1.824,3.075l-14.083,3.03c-0.309-2.241,0.427-4.496,2.036-6.105C89.52,89.952,91.334,89.2,93.266,89.2
					z"/>
				<path fill="#FFFFFF" d="M105.795,117.188c2.198,0,4.266-0.855,5.818-2.41c3.207-3.207,3.207-8.428,0-11.637
					c-1.553-1.555-3.62-2.41-5.818-2.41c-2.197,0-4.264,0.855-5.818,2.41c-1.949,1.949-2.791,4.728-2.252,7.435
					c0.318,1.594,1.098,3.047,2.252,4.202C101.529,116.332,103.598,117.188,105.795,117.188z M100.684,103.848
					c1.365-1.365,3.18-2.117,5.111-2.117s3.746,0.752,5.111,2.115c2.818,2.82,2.818,7.406,0,10.223
					c-1.365,1.367-3.182,2.119-5.111,2.119s-3.746-0.752-5.111-2.119c-1.015-1.014-1.699-2.291-1.979-3.69
					C98.232,108.001,98.971,105.559,100.684,103.848z"/>
				<path fill="#FFFFFF" d="M107.359,90.562c2.199,0,4.266-0.857,5.82-2.41c1.947-1.947,2.789-4.726,2.252-7.436
					c-0.318-1.592-1.098-3.045-2.252-4.201c-1.555-1.555-3.621-2.41-5.82-2.41c-2.196,0-4.262,0.855-5.816,2.41
					c-1.555,1.553-2.411,3.619-2.411,5.817s0.856,4.265,2.411,5.817C103.096,89.706,105.163,90.562,107.359,90.562z M102.25,77.221
					c1.365-1.365,3.18-2.117,5.109-2.117c1.932,0,3.746,0.752,5.113,2.115c1.014,1.018,1.698,2.295,1.979,3.691
					c0.472,2.381-0.268,4.822-1.979,6.531c-1.367,1.367-3.183,2.119-5.113,2.119c-1.93,0-3.744-0.752-5.109-2.119
					c-1.366-1.364-2.118-3.181-2.118-5.11C100.132,80.4,100.884,78.585,102.25,77.221z"/>
				<path fill="#FFFFFF" d="M111.811,96.631c0.016,0.076,0.052,0.14,0.096,0.197c0.354,1.446,1.087,2.774,2.167,3.854
					c1.553,1.555,3.62,2.409,5.817,2.409c2.198,0,4.264-0.856,5.818-2.407c1.948-1.949,2.79-4.729,2.252-7.438
					c-0.318-1.592-1.098-3.045-2.252-4.202c-1.553-1.554-3.62-2.409-5.818-2.409c-2.197,0-4.264,0.855-5.817,2.409
					c-1.556,1.554-2.411,3.622-2.411,5.819c0,0.529,0.053,1.051,0.149,1.561C111.797,96.49,111.795,96.56,111.811,96.631z
					 M125.002,99.975c-1.365,1.363-3.182,2.115-5.111,2.115s-3.746-0.752-5.111-2.115c-0.871-0.871-1.489-1.926-1.825-3.077
					l14.084-3.03C127.347,96.109,126.61,98.364,125.002,99.975z M114.779,89.75c1.365-1.364,3.181-2.116,5.111-2.116
					c1.93,0,3.746,0.752,5.111,2.115c0.879,0.88,1.49,1.961,1.825,3.14l-14.08,3.029c-0.051-0.348-0.085-0.699-0.085-1.057
					C112.662,92.932,113.414,91.116,114.779,89.75z"/>
				<path fill="#FFFFFF" d="M104.957,154.854c-0.195-0.194-0.512-0.194-0.707,0l-0.494,0.494l-4.736-4.736
					c-0.187-0.188-0.519-0.188-0.707,0l-0.584,0.584l-8.33-8.328c-0.127-0.127-0.311-0.178-0.486-0.128
					c-0.173,0.046-0.309,0.183-0.352,0.356l-1.709,6.705c-0.045,0.172,0.006,0.354,0.131,0.479l5.832,5.831l-0.586,0.587
					c-0.094,0.094-0.146,0.222-0.146,0.354c0,0.133,0.052,0.26,0.146,0.354l4.734,4.734l-0.492,0.491
					c-0.093,0.094-0.146,0.221-0.146,0.354c0,0.134,0.052,0.261,0.146,0.354l1.108,1.107c-1.021,0.23-1.974,0.725-2.747,1.499
					c-2.339,2.341-2.175,6.31,0.365,8.848l4.67,4.67c0.001,0.001,0.002,0.001,0.003,0.002l0.805,0.805l2.53,2.531
					c0.094,0.094,0.221,0.146,0.354,0.146s0.26-0.053,0.354-0.146l7.776-7.777c0.194-0.194,0.194-0.512,0-0.707
					c-0.002-0.002-0.004-0.002-0.006-0.004l-0.67-0.67l6.012-6.013c0.094-0.094,0.146-0.221,0.146-0.354
					c0-0.133-0.052-0.26-0.146-0.354L104.957,154.854z M87.891,149.773l1.422-5.578l7.709,7.707l-3.499,3.5L87.891,149.773z
					 M93.289,157.051l5.378-5.379l4.382,4.383l-5.379,5.377L93.289,157.051z M103.559,181.741l-1.729-1.73
					c-0.001,0-0.001-0.001-0.001-0.001l-3.338-3.338c-0.001-0.001-0.002-0.001-0.003-0.002l-2.584-2.584
					c-2.15-2.148-2.313-5.484-0.365-7.434c1.951-1.95,5.287-1.787,7.436,0.363l4.67,4.67l2.983,2.985L103.559,181.741z
					 M110.307,172.935l-1.955-1.956l-4.67-4.67c-1.358-1.359-3.126-2.03-4.835-2.01l-1.315-1.314l7.072-7.069l11.361,11.36
					L110.307,172.935z"/>
				<path fill="#FFFFFF" d="M104.395,159.861l4.746,4.746c0.098,0.098,0.226,0.146,0.354,0.146s0.256-0.049,0.354-0.146
					c0.194-0.194,0.194-0.512,0-0.707l-4.746-4.746c-0.195-0.194-0.513-0.194-0.707,0
					C104.199,159.35,104.199,159.667,104.395,159.861z"/>
				<path fill="#FFFFFF" d="M129.297,139.055c1.682-1.681,2.598-2.597,3.084-3.125l3.126,3.125c0.263,0.262,0.614,0.407,0.988,0.407
					c0.375,0,0.728-0.146,0.989-0.409l1.906-1.904c0.262-0.263,0.408-0.612,0.408-0.987c0.001-0.375-0.145-0.726-0.408-0.991
					l-3.104-3.104l3.104-3.104c0.545-0.546,0.545-1.433,0-1.978l-1.904-1.904c-0.528-0.529-1.457-0.528-1.979-0.001l-3.125,3.124
					c-0.487-0.529-1.403-1.444-3.083-3.124c-0.529-0.528-1.451-0.526-1.979,0l-1.906,1.907c-0.262,0.261-0.407,0.611-0.407,0.986
					c-0.001,0.377,0.144,0.728,0.407,0.99l3.104,3.104l-3.104,3.104c-0.264,0.264-0.408,0.615-0.408,0.99s0.145,0.725,0.408,0.988
					l1.904,1.906C127.848,139.579,128.771,139.58,129.297,139.055z M126.007,136.161c0-0.107,0.04-0.207,0.115-0.282l3.458-3.458
					c0.093-0.094,0.146-0.221,0.146-0.354c0-0.133-0.053-0.26-0.146-0.354l-3.458-3.456c-0.074-0.073-0.114-0.175-0.114-0.282
					c0-0.106,0.04-0.207,0.114-0.281l1.907-1.906c0.146-0.148,0.414-0.148,0.562,0c0,0,3.381,3.381,3.452,3.454
					c0.093,0.093,0.222,0.147,0.354,0.147h0.002c0.132,0,0.26-0.052,0.354-0.146l3.46-3.458c0.149-0.148,0.413-0.148,0.562,0.001
					l1.906,1.905c0.155,0.154,0.155,0.408,0,0.562l-3.457,3.458c-0.094,0.095-0.146,0.222-0.146,0.354s0.052,0.26,0.146,0.354
					l3.457,3.458c0.075,0.075,0.116,0.175,0.115,0.283c0,0.106-0.04,0.206-0.115,0.28l-1.906,1.906
					c-0.147,0.146-0.414,0.147-0.562,0l-3.459-3.459c-0.093-0.094-0.221-0.146-0.354-0.146c-0.135,0-0.262,0.055-0.356,0.149
					c-0.071,0.073-3.454,3.455-3.454,3.455c-0.148,0.148-0.415,0.147-0.562,0l-1.905-1.906
					C126.047,136.368,126.007,136.268,126.007,136.161z"/>
				<path fill="#FFFFFF" d="M126.932,159.398c0.098,0.098,0.226,0.146,0.354,0.146s0.256-0.049,0.354-0.146l31.881-31.881
					c0.194-0.195,0.194-0.513,0-0.707l-20.016-20.017c-0.188-0.188-0.52-0.188-0.707,0l-10.053,10.054l-3.21-3.209
					c-0.195-0.195-0.513-0.195-0.707,0l-11.067,11.066c-0.093,0.094-0.146,0.221-0.146,0.354s0.053,0.26,0.146,0.354l3.21,3.209
					l-10.055,10.055c-0.093,0.095-0.146,0.222-0.146,0.354s0.051,0.26,0.146,0.354L126.932,159.398z M114.82,125.059l10.359-10.359
					l2.857,2.855l-10.36,10.36L114.82,125.059z M139.152,107.855l19.308,19.309l-31.174,31.174l-19.31-19.307L139.152,107.855z"/>
				<path fill="#FFFFFF" d="M156.574,171.083c0.66-0.91,1.029-1.994,1.031-3.14c0.002-1.44-0.555-2.791-1.569-3.807
					c-1.013-1.012-2.36-1.568-3.798-1.568c-1.441,0-2.795,0.56-3.815,1.578c-2.103,2.101-2.106,5.517-0.01,7.613
					c1.013,1.012,2.36,1.569,3.798,1.569c1.394,0,2.701-0.533,3.706-1.489l5.381,5.381c7.282,7.284,4.318,12.213,0.458,16.073
					c-4.708,4.708-10.038,5.732-13.325,2.59c3.995-5.845,1.446-16.394-6.017-23.853c-1.391-1.395-3.303-2.305-5.241-2.502
					c-1.764-0.178-3.406,0.258-4.591,1.2l-0.727-0.727c-0.66-0.659-1.811-0.659-2.469-0.001l-0.439,0.439
					c-0.33,0.33-0.512,0.769-0.512,1.235c0,0.464,0.182,0.903,0.512,1.231l1.761,1.763c0.33,0.328,0.767,0.511,1.233,0.511
					s0.904-0.183,1.233-0.51l0.443-0.441c0.678-0.68,0.678-1.787-0.001-2.467l-0.324-0.323c0.976-0.732,2.324-1.065,3.779-0.915
					c1.713,0.173,3.402,0.979,4.635,2.213c7.416,7.414,9.845,18.387,5.232,23.449c-5.094,4.646-16.071,2.219-23.486-5.196
					c-1.294-1.296-2.172-3.062-2.408-4.845c-0.199-1.509,0.089-2.875,0.791-3.851l0.418,0.418c0.33,0.328,0.768,0.511,1.234,0.511
					s0.904-0.183,1.234-0.512l0.44-0.439c0.329-0.33,0.511-0.768,0.51-1.234c0-0.464-0.183-0.903-0.512-1.232l-1.761-1.762
					c-0.658-0.658-1.811-0.656-2.467,0l-0.44,0.439c-0.33,0.33-0.513,0.769-0.511,1.234c0,0.467,0.182,0.905,0.511,1.233
					l0.629,0.629c-0.921,1.193-1.311,2.868-1.067,4.696c0.262,1.998,1.244,3.975,2.691,5.421c5.083,5.084,11.604,7.89,17.1,7.89
					c3.057-0.001,5.799-0.867,7.799-2.695c0.062-0.068,0.109-0.147,0.169-0.217c1.455,1.356,3.231,2.028,5.165,2.028
					c3.006,0,6.385-1.603,9.484-4.703c3.964-3.964,7.493-9.535-0.458-17.487L156.574,171.083z M149.12,171.052
					c-1.706-1.706-1.701-4.487,0.01-6.198c0.83-0.83,1.935-1.287,3.108-1.287c1.17,0,2.268,0.455,3.091,1.275
					c0.825,0.826,1.278,1.926,1.276,3.098s-0.459,2.274-1.287,3.103c-0.828,0.829-1.932,1.286-3.107,1.286
					C151.041,172.328,149.943,171.875,149.12,171.052z M132.912,173.521l-0.441,0.439c-0.283,0.282-0.775,0.279-1.055,0.001
					l-1.762-1.763c-0.141-0.139-0.219-0.326-0.219-0.524s0.078-0.385,0.219-0.526l0.441-0.44c0.139-0.14,0.326-0.217,0.525-0.217
					s0.387,0.077,0.527,0.217l1.762,1.759C133.2,172.758,133.2,173.232,132.912,173.521z M121.201,179.191l0.439-0.44
					c0.141-0.142,0.327-0.218,0.527-0.218c0.199,0,0.387,0.076,0.527,0.218l1.76,1.763c0.141,0.139,0.219,0.327,0.219,0.526
					c0,0.198-0.076,0.384-0.217,0.524l-0.441,0.441c-0.281,0.279-0.772,0.28-1.054-0.001l-1.761-1.761
					c-0.141-0.141-0.219-0.328-0.219-0.526S121.061,179.332,121.201,179.191z"/>
				<path fill="#FFFFFF" d="M150.188,165.91c-0.545,0.546-0.849,1.271-0.852,2.044c-0.003,0.776,0.295,1.502,0.84,2.047
					c0.545,0.543,1.268,0.842,2.037,0.842c0.775,0,1.506-0.303,2.055-0.853c0.547-0.547,0.85-1.272,0.853-2.047
					c0.003-0.773-0.297-1.5-0.843-2.045C153.189,164.809,151.282,164.814,150.188,165.91z M153.561,169.284
					c-0.718,0.716-1.965,0.722-2.679,0.011c-0.354-0.355-0.549-0.829-0.547-1.336c0.002-0.506,0.201-0.982,0.56-1.342
					c0.36-0.36,0.838-0.559,1.348-0.559c0.503,0,0.975,0.194,1.328,0.549c0.355,0.355,0.551,0.828,0.549,1.334
					C154.117,168.449,153.918,168.926,153.561,169.284z"/>
				<path fill="#FFFFFF" d="M44.578,113.284c0.001,0,0.001,0,0.002,0c2.696,0,4.947-0.577,6.206-1.507
					c0.572-0.423,0.938-0.918,1.048-1.465c0.561-2.799,1.667-3.91,1.69-3.933c0.012-0.011,1.12-1.116,3.917-1.677
					c1.018-0.203,1.875-1.299,2.416-3.081c1.221-4.033,0.794-12.278-5.393-18.466c-2.205-2.204-4.597-3.321-7.112-3.321
					c-2.646,0-5.283,1.263-7.429,3.558c-1.614,1.725-2.7,3.802-2.98,5.625c-0.91-1.108-2.411-3.26-2.33-5.334
					c0.043-1.086,0.509-1.994,1.425-2.773c0.21-0.18,0.236-0.495,0.057-0.705c-0.179-0.21-0.496-0.236-0.705-0.057
					c-1.124,0.957-1.721,2.134-1.775,3.496c-0.1,2.506,1.68,4.976,2.666,6.146c-0.013,0.002-0.025,0.002-0.039,0.004
					c-3.043,0.427-6.972,3.146-8.582,7.034c-1.488,3.592-0.556,7.322,2.627,10.506c4.28,4.279,9.215,5.514,12.315,5.84
					C43.392,113.257,44.069,113.284,44.578,113.284z M40.654,84.075c1.132-1.211,3.507-3.24,6.698-3.24
					c2.239,0,4.394,1.019,6.405,3.026c5.875,5.878,6.294,13.668,5.143,17.47c-0.41,1.353-1.044,2.269-1.655,2.392
					c-3.141,0.629-4.391,1.91-4.425,1.947c-0.055,0.051-1.337,1.303-1.967,4.445c-0.078,0.391-0.472,0.794-1.125,1.145
					c-1.087,0.584-2.893,1.023-5.148,1.023c0,0,0,0-0.001,0c-2.383,0-8.477-0.553-13.584-5.657
					c-3.226-3.228-3.369-6.286-2.727-8.515c0.092-0.317,0.2-0.619,0.317-0.901c1.581-3.815,5.73-6.476,8.465-6.476
					c0.116,0,0.223-0.046,0.312-0.118c0.094-0.019,0.184-0.056,0.256-0.13c0.07-0.069,0.105-0.156,0.125-0.247
					c0.077-0.089,0.125-0.202,0.125-0.322C37.867,88.18,38.961,85.886,40.654,84.075z"/>
				<path fill="#FFFFFF" d="M69.953,73.436c3.482,0,6.669-1.271,8.973-3.574c2.577-2.576,3.831-6.16,3.532-10.092
					c-0.297-3.903-2.093-7.684-5.056-10.647c-3.241-3.241-7.528-5.099-11.764-5.099c-3.485,0-6.673,1.269-8.978,3.575
					c-2.576,2.575-3.83,6.158-3.53,10.09c0.297,3.903,2.093,7.685,5.057,10.648C61.429,71.576,65.717,73.436,69.953,73.436z
					 M57.369,48.304c2.117-2.116,5.053-3.282,8.27-3.282c3.973,0,8.004,1.752,11.057,4.806c2.795,2.794,4.488,6.351,4.767,10.016
					c0.276,3.637-0.875,6.943-3.241,9.311c-2.115,2.115-5.051,3.279-8.267,3.279c-3.974,0-8.003-1.752-11.058-4.806
					c-2.795-2.795-4.488-6.352-4.767-10.017C53.851,53.975,55.003,50.67,57.369,48.304z"/>
				<path fill="#FFFFFF" d="M79.596,72.786l4.307,4.31l-3.899,3.899c-0.194,0.194-0.194,0.512,0,0.707l1.361,1.36
					c0.098,0.098,0.226,0.146,0.354,0.146s0.257-0.049,0.353-0.146l4.252-4.252c0.001-0.001,0.002-0.001,0.003-0.002l1.544-1.544
					c0.002-0.002,0.004-0.002,0.006-0.004l4.255-4.254c0.195-0.194,0.195-0.512,0-0.707l-1.362-1.362
					c-0.094-0.094-0.221-0.146-0.354-0.146s-0.26,0.052-0.354,0.146l-3.901,3.901l-4.303-4.304
					c4.642-5.865,3.999-14.893-1.51-21.538l2.814-2.814c0.093-0.094,0.146-0.221,0.146-0.354c0-0.133-0.052-0.26-0.146-0.354
					l-2.071-2.07c-0.195-0.195-0.512-0.195-0.707,0l-2.809,2.809c-3.572-2.977-7.967-4.656-12.314-4.656
					c-4.064,0-7.781,1.48-10.469,4.168c-5.776,5.777-5.449,15.638,0.468,22.756l-2.624,2.625c-0.195,0.195-0.195,0.513,0,0.707
					l2.072,2.072c0.098,0.098,0.226,0.146,0.354,0.146c0.127,0,0.255-0.049,0.353-0.146l2.623-2.623
					c3.567,2.962,7.951,4.633,12.289,4.633C73.818,75.896,77.049,74.798,79.596,72.786z M85.805,75.898
					c0.188,0.188,0.52,0.188,0.707,0l3.901-3.901l0.655,0.655l-3.901,3.9L85.62,78.1c-0.001,0.001-0.002,0.001-0.003,0.002l-3.9,3.9
					l-0.654-0.654l3.9-3.899c0.195-0.195,0.195-0.513,0-0.707l-4.61-4.612c0.146-0.134,0.302-0.258,0.442-0.398
					c0.143-0.143,0.262-0.299,0.396-0.446L85.805,75.898z M80.736,44.465l1.365,1.363l-2.424,2.423
					c-0.224-0.246-0.436-0.497-0.673-0.734c-0.222-0.222-0.461-0.419-0.691-0.629L80.736,44.465z M55.498,46.434
					c2.499-2.499,5.966-3.875,9.762-3.875c4.686,0,9.438,2.065,13.038,5.666c6.779,6.778,7.582,17.005,1.79,22.798
					c-2.499,2.498-5.966,3.875-9.762,3.875c-4.684,0-9.435-2.065-13.036-5.666C50.511,62.454,49.707,52.226,55.498,46.434z
					 M55.06,72.827l-1.365-1.365l2.234-2.235c0.218,0.237,0.423,0.482,0.654,0.713c0.229,0.229,0.476,0.433,0.714,0.65L55.06,72.827
					z"/>
				<path fill="#FFFFFF" d="M68.273,66.51c0.276,0,0.5-0.224,0.5-0.5V50.86c0-0.276-0.225-0.5-0.5-0.5c-0.276,0-0.5,0.224-0.5,0.5
					v15.15C67.773,66.286,67.997,66.51,68.273,66.51z"/>
				<path fill="#FFFFFF" d="M69.48,6.385c-1.225-3.444-3.494-5.977-6.393-7.135c-1.19-0.475-2.47-0.715-3.806-0.715
					c-2.986,0-5.927,1.228-8.068,3.37c-2.204,2.204-3.446,5.259-3.384,8.271c-5.082-0.086-9.798,3.445-11.216,8.341
					c-1.345,4.651,0.461,9.236,4.713,11.967c2.327,1.5,5.138,2.198,8.845,2.198c0.922,0,1.926-0.042,3.068-0.128l1.976-0.156
					c3.015-0.241,6.131-0.491,9.161-0.491c1.766,0,3.364,0.082,4.887,0.251c0.149,0.014,0.301-0.037,0.408-0.144
					c0.107-0.108,0.161-0.258,0.145-0.409c-0.526-4.747-0.168-9.629,0.244-14.223C70.375,13.871,70.73,9.891,69.48,6.385z
					 M50.172,31.681c-3.506,0-6.145-0.647-8.304-2.039c-3.865-2.482-5.511-6.639-4.293-10.847c1.279-4.416,5.509-7.621,10.06-7.621
					c0.227,0,0.456,0.009,0.684,0.025c0.142,0.011,0.288-0.042,0.391-0.145c0.104-0.103,0.157-0.245,0.146-0.391c0,0,0,0,0-0.001
					l0,0c-0.027-0.363-0.033-0.727-0.019-1.091c0.103-2.551,1.214-5.088,3.085-6.959c1.955-1.956,4.637-3.077,7.361-3.077
					c1.208,0,2.365,0.217,3.435,0.644c2.628,1.05,4.695,3.373,5.822,6.542c0.587,1.65,0.795,3.441,0.817,5.246
					c0.022,1.804-0.141,3.622-0.293,5.326c-0.25,2.78-0.479,5.665-0.508,8.572c-0.018,1.743,0.036,3.494,0.201,5.234
					c-1.374-0.131-2.814-0.194-4.381-0.194c-3.07,0-6.207,0.251-9.24,0.494l-1.973,0.156C52.047,31.64,51.068,31.681,50.172,31.681z
					"/>
				<path fill="#FFFFFF" d="M-54.519,6.385c-1.225-3.444-3.495-5.977-6.393-7.135c-1.19-0.475-2.47-0.715-3.806-0.715
					c-2.986,0-5.927,1.228-8.068,3.37c-2.204,2.204-3.446,5.259-3.384,8.271c-0.065-0.002-0.131-0.002-0.195-0.002
					c-4.987,0-9.622,3.509-11.021,8.343c-1.345,4.651,0.461,9.236,4.713,11.967c2.327,1.5,5.138,2.198,8.845,2.198
					c0.922,0,1.926-0.042,3.068-0.128l1.975-0.156c3.014-0.241,6.131-0.491,9.162-0.491c1.765,0,3.364,0.082,4.886,0.251
					c0.149,0.014,0.301-0.037,0.409-0.144c0.108-0.108,0.161-0.258,0.144-0.409c-0.526-4.747-0.167-9.629,0.244-14.223
					C-53.625,13.871-53.269,9.891-54.519,6.385z M-54.936,17.294c-0.399,4.447-0.746,9.165-0.306,13.806
					c-1.374-0.131-2.815-0.194-4.381-0.194c-3.071,0-6.208,0.251-9.242,0.494l-1.971,0.155c-1.117,0.085-2.096,0.126-2.992,0.126
					c-3.506,0-6.145-0.647-8.304-2.039c-3.865-2.482-5.511-6.639-4.293-10.847c1.279-4.416,5.509-7.621,10.06-7.621
					c0.227,0,0.456,0.009,0.684,0.025c0.145,0.011,0.288-0.042,0.391-0.145c0.104-0.103,0.157-0.245,0.146-0.391
					c-0.219-2.904,0.927-5.913,3.066-8.051c1.955-1.956,4.637-3.077,7.361-3.077c1.208,0,2.365,0.217,3.435,0.644
					c2.627,1.05,4.695,3.373,5.822,6.542C-54.285,10.022-54.63,13.885-54.936,17.294z"/>
				<path fill="#FFFFFF" d="M-81.491,16.255c-1.716,1.813-2.548,3.691-2.475,5.583c0.099,2.588,1.87,4.219,1.945,4.287
					c0.096,0.087,0.216,0.129,0.336,0.129c0.136,0,0.273-0.056,0.372-0.165c0.185-0.205,0.169-0.521-0.035-0.706
					c-0.015-0.014-1.534-1.412-1.618-3.584c-0.063-1.613,0.679-3.247,2.202-4.857c0.189-0.201,0.18-0.517-0.02-0.707
					C-80.985,16.046-81.301,16.055-81.491,16.255z"/>
				<path fill="#FFFFFF" d="M36.942-34.981c-0.91-1.108-2.411-3.26-2.33-5.333c0.043-1.087,0.509-1.995,1.425-2.774
					c0.21-0.179,0.236-0.495,0.057-0.705c-0.179-0.211-0.496-0.235-0.705-0.057c-1.124,0.957-1.721,2.134-1.775,3.497
					c-0.1,2.505,1.679,4.975,2.666,6.145c-0.013,0.001-0.025,0.001-0.039,0.003c-3.043,0.426-6.972,3.145-8.582,7.034
					c-1.488,3.592-0.556,7.323,2.627,10.506c4.28,4.279,9.215,5.514,12.315,5.84c0.79,0.083,1.467,0.11,1.976,0.11
					c0.001,0,0.001,0,0.002,0c2.696,0,4.947-0.578,6.206-1.507c0.572-0.423,0.938-0.918,1.048-1.464
					c0.561-2.799,1.667-3.909,1.69-3.932c0.012-0.011,1.12-1.116,3.917-1.677c1.018-0.203,1.875-1.297,2.416-3.081
					c1.221-4.033,0.794-12.278-5.393-18.466c-2.205-2.205-4.597-3.322-7.112-3.322c-2.646,0-5.283,1.263-7.429,3.557
					C38.309-38.883,37.223-36.805,36.942-34.981z M47.352-43.166c2.239,0,4.394,1.02,6.405,3.028
					c5.875,5.877,6.294,13.667,5.143,17.469c-0.41,1.353-1.044,2.269-1.655,2.391c-3.141,0.63-4.391,1.912-4.425,1.949
					c-0.055,0.051-1.337,1.302-1.967,4.445c-0.078,0.391-0.472,0.793-1.125,1.144c-1.087,0.584-2.893,1.023-5.148,1.023
					c0,0,0,0-0.001,0c-2.383,0-8.477-0.552-13.584-5.657c-3.226-3.228-3.369-6.287-2.727-8.514c0.092-0.318,0.2-0.62,0.317-0.902
					c1.482-3.578,5.222-6.139,7.937-6.445c0.181-0.021,0.357-0.031,0.528-0.031c0.116,0,0.223-0.045,0.311-0.118
					c0.094-0.019,0.185-0.055,0.256-0.128c0.07-0.071,0.106-0.159,0.126-0.25c0.077-0.09,0.125-0.202,0.125-0.321
					c-0.001-1.739,1.093-4.032,2.786-5.843C41.786-41.136,44.161-43.166,47.352-43.166z"/>
				<path fill="#FFFFFF" d="M32.038-20.149c-0.184-0.206-0.499-0.224-0.706-0.04c-0.206,0.184-0.224,0.5-0.04,0.706
					c0.226,0.254,5.135,5.679,11.19,5.679c0.633,0,1.278-0.059,1.931-0.189c0.272-0.054,0.447-0.317,0.393-0.588
					c-0.055-0.272-0.322-0.448-0.588-0.393C37.878-13.709,32.096-20.084,32.038-20.149z"/>
				<path fill="#FFFFFF" d="M-61.382,62.404c0.277,0,0.5-0.223,0.5-0.5l0.001-5.523c0-0.276-0.224-0.5-0.5-0.5
					c-0.276,0-0.5,0.224-0.5,0.5l-0.001,5.523C-61.882,62.18-61.658,62.404-61.382,62.404z"/>
				<path fill="#FFFFFF" d="M-50.721,62.404c0.277,0,0.5-0.223,0.5-0.5v-5.523c0-0.276-0.224-0.5-0.5-0.5
					c-0.276,0-0.5,0.224-0.5,0.5v5.523C-51.221,62.18-50.997,62.404-50.721,62.404z"/>
				<path fill="#FFFFFF" d="M-32.979-12.792c-0.001-0.001-0.001-0.002-0.002-0.003l-6.222-6.221
					c-3.317-3.317-8.5-3.535-11.554-0.482c-1.484,1.484-2.247,3.507-2.148,5.698c0.099,2.173,1.034,4.25,2.635,5.851l6.219,6.22
					c0.001,0.001,0.001,0.002,0.002,0.003l6.22,6.219c1.602,1.602,3.68,2.538,5.853,2.636c0.126,0.006,0.251,0.008,0.376,0.008
					c2.045,0,3.923-0.759,5.321-2.158c3.052-3.053,2.834-8.236-0.484-11.553L-32.979-12.792z M-51.906-13.845
					c-0.086-1.907,0.573-3.663,1.856-4.946c2.661-2.662,7.211-2.447,10.14,0.482l5.869,5.868l-9.653,9.654l-5.869-5.87
					C-50.987-10.08-51.819-11.923-51.906-13.845z M-26.986,4.272c-1.283,1.285-3.042,1.944-4.946,1.858
					c-1.921-0.086-3.765-0.919-5.19-2.344l-5.866-5.865l9.653-9.654l5.864,5.866C-24.542-2.939-24.325,1.609-26.986,4.272z"/>
				<path fill="#FFFFFF" d="M-38.804-25.955c0.317,1.593,1.096,3.046,2.251,4.203c1.554,1.554,3.621,2.41,5.819,2.41
					c2.197,0,4.263-0.858,5.818-2.411c1.555-1.553,2.41-3.62,2.41-5.818c0-0.529-0.052-1.05-0.149-1.559
					c0.015-0.067,0.018-0.138,0.002-0.209c-0.017-0.077-0.053-0.143-0.099-0.201c-0.354-1.444-1.086-2.771-2.165-3.849
					c-1.554-1.555-3.621-2.411-5.818-2.411c-2.198,0-4.264,0.856-5.819,2.411C-38.501-31.44-39.342-28.661-38.804-25.955z
					 M-25.623-22.46c-1.365,1.365-3.18,2.117-5.111,2.117c-1.931,0-3.747-0.752-5.112-2.117c-0.877-0.878-1.49-1.958-1.824-3.137
					l14.08-3.029c0.051,0.347,0.085,0.698,0.085,1.055C-23.506-25.64-24.258-23.825-25.623-22.46z M-30.734-34.8
					c1.93,0,3.746,0.753,5.111,2.118c0.871,0.871,1.49,1.926,1.825,3.077l-14.083,3.03c-0.31-2.24,0.426-4.497,2.035-6.107
					C-34.481-34.048-32.666-34.8-30.734-34.8z"/>
				<path fill="#FFFFFF" d="M-18.205-23.27c-2.197,0-4.264,0.856-5.819,2.41c-1.948,1.949-2.79,4.728-2.251,7.434
					c0.318,1.595,1.097,3.048,2.251,4.203c1.554,1.555,3.621,2.411,5.819,2.411c2.198,0,4.265-0.856,5.818-2.411
					c3.208-3.207,3.208-8.428,0-11.637C-13.94-22.414-16.007-23.27-18.205-23.27z M-13.094-9.93
					c-1.365,1.366-3.181,2.118-5.111,2.118c-1.93,0-3.746-0.752-5.112-2.118c-1.014-1.014-1.699-2.291-1.978-3.691
					c-0.473-2.377,0.266-4.819,1.978-6.531c1.366-1.365,3.181-2.117,5.112-2.117c1.932,0,3.746,0.752,5.111,2.116
					C-10.276-17.333-10.276-12.747-13.094-9.93z"/>
				<path fill="#FFFFFF" d="M-12.338-29.138c0,0.53,0.052,1.052,0.149,1.561c-0.014,0.067-0.017,0.138-0.001,0.209
					c0.016,0.076,0.053,0.14,0.097,0.197c0.354,1.445,1.086,2.773,2.166,3.852c1.553,1.554,3.62,2.41,5.818,2.41
					c2.198,0,4.264-0.856,5.818-2.41c1.948-1.948,2.79-4.728,2.252-7.436c-0.318-1.593-1.097-3.046-2.252-4.203
					c-1.553-1.554-3.62-2.41-5.818-2.41c-2.198,0-4.264,0.856-5.818,2.41C-11.482-33.403-12.338-31.336-12.338-29.138z
					 M1.002-24.025c-1.365,1.365-3.181,2.117-5.111,2.117c-1.93,0-3.746-0.752-5.111-2.117c-0.872-0.871-1.49-1.926-1.826-3.077
					l14.084-3.03C3.348-27.89,2.611-25.634,1.002-24.025z M-4.109-36.367c1.93,0,3.746,0.752,5.111,2.117
					c0.878,0.879,1.491,1.96,1.826,3.14l-14.081,3.029c-0.051-0.347-0.085-0.699-0.085-1.056c0-1.931,0.752-3.747,2.118-5.113
					C-7.855-35.615-6.04-36.367-4.109-36.367z"/>
				<path fill="#FFFFFF" d="M-16.64-33.438c2.199,0,4.265-0.857,5.819-2.41c1.948-1.946,2.79-4.725,2.252-7.434
					c-0.318-1.593-1.097-3.046-2.252-4.203c-1.554-1.554-3.621-2.41-5.819-2.41c-2.197,0-4.263,0.856-5.817,2.41
					c-1.555,1.553-2.411,3.62-2.411,5.818s0.856,4.264,2.411,5.818C-20.904-34.294-18.837-33.438-16.64-33.438z M-21.75-46.779
					c1.365-1.365,3.179-2.117,5.11-2.117c1.931,0,3.746,0.752,5.112,2.116c1.015,1.016,1.699,2.293,1.979,3.691
					c0.472,2.381-0.267,4.822-1.979,6.532c-1.366,1.366-3.182,2.118-5.112,2.118c-1.93,0-3.745-0.752-5.11-2.118
					c-1.366-1.365-2.118-3.18-2.118-5.111S-23.116-45.414-21.75-46.779z"/>
				<path fill="#FFFFFF" d="M-14.86,40.608c0.098,0.097,0.226,0.146,0.354,0.146s0.256-0.049,0.353-0.146
					c0.195-0.195,0.195-0.512,0-0.707l-4.746-4.746c-0.195-0.195-0.512-0.195-0.707,0c-0.195,0.195-0.195,0.512,0,0.707
					L-14.86,40.608z"/>
				<path fill="#FFFFFF" d="M-28.803,50.793l4.67,4.67c0.001,0.001,0.002,0.001,0.003,0.002l0.804,0.804c0,0,0,0.001,0.001,0.001
					l2.53,2.531c0.094,0.093,0.221,0.146,0.354,0.146c0.132,0,0.259-0.052,0.354-0.146l7.776-7.777c0.195-0.195,0.195-0.512,0-0.707
					c-0.001-0.001-0.002-0.001-0.003-0.002l-0.672-0.672l6.012-6.013c0.093-0.094,0.146-0.221,0.146-0.354
					c0-0.133-0.052-0.26-0.146-0.354l-12.069-12.068c-0.195-0.195-0.512-0.195-0.707,0l-0.494,0.494l-4.736-4.737
					c-0.187-0.188-0.519-0.188-0.707,0l-0.584,0.584l-8.331-8.328c-0.126-0.127-0.311-0.177-0.486-0.128
					c-0.173,0.047-0.308,0.184-0.352,0.358l-1.709,6.705c-0.044,0.171,0.006,0.352,0.131,0.477l5.833,5.832l-0.586,0.586
					c-0.093,0.094-0.146,0.222-0.146,0.354c0,0.133,0.052,0.26,0.146,0.354l4.735,4.734l-0.492,0.492
					c-0.093,0.094-0.146,0.221-0.146,0.354c0,0.133,0.052,0.26,0.146,0.354l1.108,1.107c-1.02,0.231-1.974,0.725-2.747,1.499
					C-31.507,44.286-31.343,48.255-28.803,50.793z M-36.109,25.773l1.422-5.578l7.708,7.708l-3.499,3.5L-36.109,25.773z
					 M-30.711,33.051l5.378-5.379l4.382,4.383l-5.379,5.377L-30.711,33.051z M-26.469,38.985l7.072-7.07l11.362,11.361l-5.659,5.659
					l-1.95-1.951c-0.002-0.002-0.002-0.004-0.004-0.006l-4.67-4.67c-1.358-1.359-3.126-2.03-4.836-2.009L-26.469,38.985z
					 M-21.025,43.015l4.665,4.665c0.001,0.002,0.002,0.004,0.004,0.006l2.984,2.985l-7.069,7.07l-1.729-1.729
					c0,0-0.001-0.001-0.001-0.002l-3.338-3.338c-0.001-0.001-0.002-0.001-0.003-0.002l-2.584-2.583
					c-2.15-2.149-2.313-5.483-0.365-7.434C-26.509,40.702-23.174,40.865-21.025,43.015z"/>
				<path fill="#FFFFFF" d="M11.507,1.078L8.382,4.202C7.895,3.673,6.979,2.758,5.299,1.078c-0.528-0.528-1.452-0.526-1.978,0
					L1.414,2.985C1.152,3.247,1.007,3.598,1.007,3.973C1.006,4.348,1.151,4.7,1.414,4.963l3.104,3.102l-3.104,3.104
					c-0.263,0.263-0.408,0.614-0.408,0.989s0.144,0.726,0.408,0.989l1.905,1.907c0.528,0.526,1.453,0.526,1.978,0
					c1.681-1.681,2.597-2.597,3.084-3.125l3.126,3.125c0.262,0.263,0.614,0.408,0.988,0.408c0.375,0,0.727-0.145,0.99-0.409
					l1.905-1.905c0.263-0.262,0.409-0.613,0.409-0.987c0.001-0.376-0.144-0.728-0.408-0.992l-3.104-3.104l3.104-3.104
					c0.545-0.546,0.545-1.433,0-1.978l-1.905-1.905C12.958,0.55,12.03,0.551,11.507,1.078z M14.682,4.254l-3.458,3.458
					c-0.093,0.094-0.146,0.221-0.146,0.354c0,0.133,0.052,0.26,0.146,0.354l3.458,3.458c0.075,0.075,0.116,0.175,0.115,0.283
					c0,0.106-0.04,0.205-0.115,0.28l-1.906,1.906c-0.148,0.147-0.415,0.148-0.563,0l-3.459-3.458
					c-0.093-0.094-0.221-0.146-0.354-0.146c-0.134,0-0.262,0.054-0.357,0.15c-0.071,0.073-3.454,3.455-3.454,3.455
					c-0.148,0.148-0.415,0.147-0.563,0l-1.905-1.907c-0.075-0.074-0.115-0.173-0.115-0.281c0-0.108,0.04-0.207,0.115-0.282
					L5.579,8.42c0.093-0.094,0.146-0.222,0.146-0.354c0-0.133-0.052-0.26-0.146-0.354L2.121,4.256
					C2.047,4.182,2.007,4.082,2.007,3.974s0.04-0.208,0.114-0.282l1.908-1.907c0.147-0.149,0.414-0.15,0.563,0
					c0,0,3.381,3.381,3.452,3.454c0.093,0.094,0.221,0.149,0.355,0.149H8.4c0.133,0,0.261-0.052,0.354-0.145l3.46-3.458
					c0.148-0.149,0.412-0.149,0.562,0.001l1.906,1.905C14.837,3.846,14.837,4.099,14.682,4.254z"/>
				<path fill="#FFFFFF" d="M15.504-17.206c-0.187-0.188-0.519-0.188-0.707,0L4.744-7.152l-3.209-3.208
					c-0.195-0.195-0.512-0.195-0.707,0L-10.24,0.705c-0.093,0.094-0.146,0.221-0.146,0.354c0,0.133,0.052,0.26,0.146,0.354
					l3.209,3.209l-10.054,10.055c-0.093,0.094-0.146,0.221-0.146,0.354c0,0.133,0.052,0.26,0.146,0.354L2.931,35.399
					c0.098,0.097,0.226,0.146,0.354,0.146s0.256-0.049,0.354-0.147L35.52,3.518c0.195-0.195,0.195-0.512,0-0.707L15.504-17.206z
					 M-9.18,1.059L1.18-9.301l2.856,2.855l-10.36,10.36L-9.18,1.059z M3.285,34.338l-19.308-19.307l31.174-31.176L34.459,3.164
					L3.285,34.338z"/>
				<path fill="#FFFFFF" d="M33.606,43.943c0.002-1.44-0.555-2.791-1.57-3.806c-1.013-1.012-2.36-1.57-3.797-1.57
					c-1.442,0-2.796,0.561-3.816,1.58c-2.102,2.101-2.106,5.516-0.01,7.613c1.013,1.012,2.361,1.569,3.798,1.569
					c1.395,0,2.701-0.534,3.707-1.489l5.38,5.381c2.503,2.503,3.796,4.729,4.257,6.729c0.126,0.545,0.19,1.074,0.2,1.586
					c0.06,3.076-1.828,5.586-4,7.758c-4.167,4.167-8.825,5.454-12.118,3.517c-0.428-0.252-0.829-0.565-1.207-0.927
					c1.347-1.972,1.957-4.474,1.876-7.218c-0.158-5.39-2.948-11.692-7.893-16.636c-1.391-1.393-3.303-2.305-5.241-2.501
					c-1.763-0.179-3.406,0.257-4.591,1.199l-0.727-0.726c-0.66-0.659-1.81-0.658-2.468,0l-0.44,0.439
					c-0.33,0.33-0.512,0.768-0.512,1.235c0,0.466,0.182,0.904,0.512,1.232l1.761,1.762c0.33,0.329,0.767,0.51,1.234,0.51
					c0.466,0,0.904-0.181,1.233-0.509l0.443-0.441c0.678-0.68,0.678-1.787-0.001-2.468l-0.323-0.323
					c0.975-0.732,2.321-1.065,3.778-0.915c1.713,0.173,3.403,0.98,4.635,2.213c4.635,4.634,7.322,10.658,7.559,15.76
					c0.142,3.061-0.598,5.789-2.327,7.688c-5.098,4.648-16.073,2.219-23.486-5.195c-1.294-1.295-2.172-3.061-2.408-4.845
					c-0.029-0.22-0.048-0.436-0.057-0.649c-0.05-1.25,0.248-2.368,0.849-3.2l0.417,0.417c0.33,0.329,0.768,0.511,1.234,0.511
					c0.467,0,0.905-0.182,1.234-0.51l0.441-0.441c0.329-0.329,0.511-0.767,0.51-1.233c0-0.466-0.183-0.904-0.512-1.233l-1.76-1.762
					c-0.659-0.659-1.811-0.657-2.468,0l-0.44,0.44c-0.33,0.329-0.512,0.768-0.511,1.234c0,0.466,0.182,0.904,0.511,1.233
					l0.629,0.629c-0.921,1.192-1.311,2.867-1.068,4.696c0.263,1.999,1.245,3.975,2.692,5.421c1.588,1.589,3.317,2.955,5.111,4.083
					c3.947,2.48,8.209,3.807,11.989,3.807c2.674-0.001,5.107-0.664,7.015-2.055c0.272-0.198,0.534-0.412,0.784-0.641
					c0.062-0.068,0.109-0.147,0.169-0.217c1.454,1.356,3.231,2.028,5.165,2.028c1.127,0,2.307-0.226,3.504-0.671
					c1.996-0.741,4.042-2.094,5.979-4.031c3.964-3.965,7.494-9.535-0.458-17.488l-5.43-5.431
					C33.234,46.172,33.604,45.089,33.606,43.943z M8.912,49.523l-0.442,0.44c-0.283,0.281-0.774,0.279-1.054,0L5.654,48.2
					c-0.141-0.139-0.218-0.326-0.218-0.524c0-0.199,0.077-0.386,0.219-0.527l0.44-0.44c0.14-0.14,0.327-0.218,0.526-0.218
					c0.199,0,0.387,0.077,0.528,0.219l1.761,1.759C9.2,48.76,9.2,49.233,8.912,49.523z M-2.799,55.191l0.44-0.44
					c0.14-0.14,0.327-0.218,0.527-0.218c0.199,0,0.386,0.078,0.527,0.217l1.76,1.762c0.141,0.141,0.219,0.329,0.219,0.527
					c0,0.198-0.077,0.385-0.217,0.525l-0.441,0.441c-0.282,0.281-0.773,0.281-1.054,0l-1.761-1.761
					c-0.141-0.14-0.218-0.327-0.218-0.526C-3.018,55.519-2.94,55.332-2.799,55.191z M25.12,47.053
					c-1.706-1.707-1.701-4.488,0.01-6.199c0.83-0.83,1.934-1.287,3.109-1.287c1.169,0,2.267,0.454,3.09,1.277
					c0.825,0.825,1.279,1.925,1.277,3.097s-0.459,2.274-1.287,3.102c-0.829,0.829-1.933,1.286-3.108,1.286
					C27.041,48.329,25.943,47.876,25.12,47.053z"/>
				<path fill="#FFFFFF" d="M26.188,41.91c-0.546,0.545-0.849,1.271-0.852,2.044c-0.003,0.775,0.295,1.502,0.84,2.047
					c0.544,0.542,1.267,0.841,2.037,0.841c0.776,0,1.506-0.302,2.055-0.853c0.547-0.546,0.849-1.273,0.852-2.045
					c0.003-0.774-0.297-1.501-0.842-2.045C29.189,40.81,27.282,40.814,26.188,41.91z M29.56,45.283
					c-0.717,0.717-1.965,0.722-2.678,0.011c-0.355-0.355-0.549-0.829-0.547-1.335c0.002-0.507,0.201-0.984,0.559-1.342
					c0.361-0.36,0.839-0.559,1.348-0.559c0.503,0,0.975,0.194,1.328,0.548c0.356,0.356,0.551,0.829,0.549,1.335
					C30.117,44.448,29.918,44.924,29.56,45.283z"/>
				<path fill="#FFFFFF" d="M-87.129-34.294l-0.033,0.034c-3.105,0.123-7.46,2.94-9.178,7.088
					c-1.488,3.592-0.556,7.323,2.627,10.506c5.372,5.37,11.784,5.95,14.291,5.95c0.001,0,0.001,0,0.002,0
					c3.921,0,6.903-1.222,7.254-2.971c0.561-2.799,1.667-3.909,1.69-3.932c0.012-0.011,1.12-1.116,3.917-1.677
					c1.018-0.203,1.875-1.297,2.416-3.081c1.221-4.033,0.794-12.278-5.393-18.466c-2.205-2.205-4.597-3.322-7.112-3.322
					c-2.646,0-5.283,1.263-7.429,3.557C-85.898-38.662-87.052-36.265-87.129-34.294z M-76.648-43.166
					c2.239,0,4.394,1.02,6.405,3.028c5.875,5.877,6.294,13.667,5.143,17.469c-0.41,1.353-1.044,2.269-1.655,2.391
					c-3.141,0.63-4.391,1.912-4.425,1.949c-0.055,0.051-1.337,1.302-1.967,4.445c-0.208,1.042-2.665,2.167-6.272,2.167
					c0,0-0.001,0-0.002,0c-2.383,0-8.477-0.552-13.584-5.657c-3.688-3.689-3.347-7.157-2.41-9.416
					c1.581-3.817,5.73-6.476,8.465-6.476c0.133,0,0.26-0.052,0.353-0.146l0.318-0.317c0.094-0.093,0.147-0.221,0.147-0.354
					c-0.001-1.739,1.093-4.032,2.786-5.843C-82.214-41.136-79.839-43.166-76.648-43.166z"/>
				<path fill="#FFFFFF" d="M-91.962-20.149c-0.184-0.206-0.499-0.224-0.706-0.04c-0.206,0.184-0.224,0.5-0.04,0.706
					c0.226,0.254,5.135,5.679,11.19,5.679c0.633,0,1.278-0.059,1.931-0.189c0.272-0.054,0.447-0.317,0.393-0.588
					c-0.055-0.272-0.323-0.448-0.588-0.393C-86.123-13.709-91.904-20.084-91.962-20.149z"/>
				<path fill="#FFFFFF" d="M-54.047-50.566c3.483,0,6.669-1.269,8.973-3.572c2.577-2.576,3.831-6.161,3.532-10.093
					c-0.297-3.903-2.093-7.684-5.056-10.647c-3.241-3.241-7.528-5.099-11.764-5.099c-3.484,0-6.672,1.269-8.977,3.575
					c-2.576,2.575-3.83,6.158-3.53,10.09c0.297,3.903,2.093,7.685,5.057,10.648C-62.571-52.424-58.283-50.566-54.047-50.566z
					 M-66.631-75.696c2.117-2.116,5.053-3.282,8.27-3.282c3.972,0,8.003,1.752,11.057,4.805c2.794,2.794,4.487,6.351,4.766,10.016
					c0.277,3.636-0.875,6.943-3.242,9.31c-2.115,2.115-5.05,3.28-8.266,3.28c-3.973,0-8.003-1.751-11.058-4.805
					c-2.795-2.795-4.488-6.352-4.767-10.017C-70.149-70.025-68.997-73.33-66.631-75.696z"/>
				<path fill="#FFFFFF" d="M-71.365-52.892c-0.195,0.195-0.195,0.512,0,0.707l2.072,2.072c0.098,0.097,0.226,0.146,0.354,0.146
					c0.127,0,0.255-0.049,0.353-0.146l2.624-2.624c3.566,2.964,7.951,4.633,12.289,4.633c3.492,0,6.722-1.099,9.269-3.111
					l4.308,4.309l-3.9,3.9c-0.195,0.195-0.195,0.512,0,0.707l1.361,1.361c0.098,0.097,0.226,0.146,0.354,0.146
					c0.128,0,0.256-0.049,0.352-0.146l4.252-4.252c0.001-0.001,0.002-0.001,0.003-0.002l1.544-1.544
					c0.002-0.002,0.004-0.002,0.006-0.004l4.255-4.254c0.195-0.195,0.195-0.512,0-0.707l-1.362-1.363
					c-0.094-0.093-0.221-0.146-0.354-0.146s-0.26,0.052-0.354,0.146l-3.901,3.902l-4.303-4.303
					c4.997-6.313,3.876-16.292-2.852-23.019c-3.787-3.787-8.797-5.959-13.745-5.959c-4.064,0-7.781,1.48-10.469,4.168
					c-5.776,5.777-5.449,15.639,0.468,22.756L-71.365-52.892z M-68.94-51.173l-1.365-1.365l2.235-2.236
					c0.217,0.238,0.423,0.482,0.653,0.713c0.229,0.229,0.477,0.434,0.714,0.651L-68.94-51.173z M-38.195-48.101
					c0.187,0.188,0.519,0.188,0.707,0l3.901-3.902l0.655,0.656l-3.901,3.9L-38.38-45.9c-0.001,0.001-0.002,0.001-0.003,0.002
					l-3.9,3.9l-0.654-0.654l3.9-3.9c0.195-0.195,0.195-0.512,0-0.707l-4.611-4.612c0.146-0.134,0.302-0.258,0.443-0.399
					c0.142-0.142,0.261-0.299,0.396-0.446L-38.195-48.101z M-68.502-77.566c2.499-2.499,5.966-3.875,9.762-3.875
					c4.685,0,9.437,2.065,13.038,5.666c6.779,6.778,7.582,17.006,1.79,22.799c-2.499,2.498-5.966,3.874-9.762,3.874
					c-4.684,0-9.435-2.065-13.036-5.665C-73.489-61.546-74.293-71.774-68.502-77.566z"/>
				<path fill="#FFFFFF" d="M-55.727-57.49c0.277,0,0.5-0.224,0.5-0.5v-15.15c0-0.276-0.224-0.5-0.5-0.5s-0.5,0.224-0.5,0.5v15.15
					C-56.227-57.714-56.003-57.49-55.727-57.49z"/>
				<path fill="#FFFFFF" d="M-1.254-56.302c5.083,5.084,11.603,7.889,17.1,7.889c3.056,0,5.798-0.867,7.799-2.695
					c0.062-0.068,0.109-0.147,0.168-0.216c1.454,1.356,3.231,2.029,5.166,2.029c3.006,0,6.385-1.604,9.484-4.702
					c3.964-3.965,7.494-9.535-0.458-17.488l-6.014-6.014l-0.707,0.707l6.014,6.014c7.282,7.283,4.318,12.213,0.458,16.074
					c-4.708,4.708-10.041,5.732-13.325,2.588c3.995-5.846,1.446-16.393-6.017-23.854c-1.391-1.393-3.303-2.305-5.241-2.501
					c-1.981-0.201-3.814,0.37-5.011,1.568l0.707,0.707c0.984-0.985,2.521-1.452,4.203-1.28c1.713,0.173,3.403,0.98,4.635,2.213
					c7.416,7.414,9.845,18.387,5.232,23.449c-5.098,4.648-16.073,2.219-23.486-5.196c-1.294-1.294-2.172-3.06-2.408-4.845
					c-0.232-1.757,0.193-3.324,1.17-4.3l-0.707-0.707c-1.198,1.198-1.728,3.071-1.454,5.139
					C-3.683-59.725-2.701-57.749-1.254-56.302z"/>
				<path fill="#FFFFFF" d="M-85.537-53.997c3.964-3.965,7.494-9.535-0.458-17.488l-6.014-6.014l-0.707,0.707l6.014,6.014
					c7.282,7.283,4.318,12.213,0.458,16.074c-4.762,4.762-10.166,5.762-13.441,2.486l-0.707,0.707
					c1.489,1.488,3.346,2.216,5.371,2.216C-92.015-49.295-88.636-50.899-85.537-53.997z"/>
				<path fill="#FFFFFF" d="M55.216,156.398c3.015-0.241,6.131-0.491,9.161-0.491c1.766,0,3.364,0.082,4.887,0.252
					c0.149,0.015,0.301-0.037,0.408-0.144c0.107-0.107,0.161-0.258,0.145-0.41c-0.526-4.746-0.168-9.629,0.244-14.223
					c0.314-3.51,0.67-7.49-0.58-10.996c-1.225-3.443-3.494-5.978-6.393-7.135c-1.19-0.475-2.47-0.715-3.806-0.715
					c-2.986,0-5.927,1.227-8.068,3.369c-2.204,2.203-3.446,5.258-3.384,8.271c-5.082-0.112-9.798,3.444-11.216,8.341
					c-1.345,4.65,0.461,9.236,4.713,11.967c2.327,1.5,5.138,2.197,8.845,2.197c0.922,0,1.926-0.041,3.068-0.129L55.216,156.398z
					 M50.172,155.682c-3.506,0-6.145-0.646-8.304-2.039c-3.865-2.482-5.511-6.639-4.293-10.847c1.279-4.416,5.509-7.621,10.06-7.621
					c0.227,0,0.456,0.009,0.684,0.026c0.142,0.007,0.288-0.042,0.391-0.146c0.104-0.103,0.157-0.246,0.146-0.392
					c-0.219-2.904,0.927-5.913,3.066-8.052c1.955-1.954,4.637-3.075,7.361-3.075c1.208,0,2.365,0.216,3.435,0.644
					c2.628,1.049,4.695,3.372,5.822,6.541c1.175,3.301,0.83,7.163,0.524,10.573c-0.399,4.448-0.746,9.164-0.307,13.806
					c-1.374-0.13-2.814-0.193-4.381-0.193c-3.071,0-6.208,0.252-9.242,0.494l-1.971,0.156
					C52.047,155.641,51.068,155.682,50.172,155.682z"/>
				<path fill="#FFFFFF" d="M-68.785,156.398c3.014-0.241,6.131-0.491,9.162-0.491c1.765,0,3.364,0.082,4.886,0.252
					c0.149,0.015,0.301-0.037,0.409-0.144c0.108-0.107,0.161-0.258,0.144-0.41c-0.526-4.746-0.167-9.629,0.244-14.223
					c0.315-3.51,0.671-7.49-0.579-10.996c-1.225-3.443-3.495-5.978-6.393-7.135c-1.19-0.475-2.47-0.715-3.806-0.715
					c-2.986,0-5.927,1.227-8.068,3.369c-2.204,2.203-3.446,5.258-3.384,8.271c-0.065-0.002-0.131-0.002-0.195-0.002
					c-4.987,0-9.622,3.509-11.021,8.343c-1.345,4.65,0.461,9.236,4.713,11.967c2.327,1.5,5.138,2.197,8.845,2.197
					c0.922,0,1.926-0.041,3.068-0.129L-68.785,156.398z M-73.828,155.682c-3.506,0-6.145-0.646-8.304-2.039
					c-3.865-2.482-5.511-6.639-4.293-10.847c1.279-4.416,5.509-7.621,10.06-7.621c0.227,0,0.456,0.009,0.684,0.026
					c0.145,0.007,0.288-0.042,0.391-0.146c0.104-0.103,0.157-0.246,0.146-0.392c-0.219-2.904,0.927-5.913,3.066-8.052
					c1.955-1.954,4.637-3.075,7.361-3.075c1.208,0,2.365,0.216,3.435,0.644c2.627,1.049,4.695,3.372,5.822,6.541
					c1.175,3.301,0.83,7.163,0.524,10.573c-0.399,4.448-0.746,9.164-0.306,13.806c-1.374-0.13-2.815-0.193-4.381-0.193
					c-3.071,0-6.208,0.252-9.242,0.494l-1.971,0.156C-71.953,155.641-72.932,155.682-73.828,155.682z"/>
				<path fill="#FFFFFF" d="M-81.491,140.255c-1.716,1.812-2.548,3.69-2.475,5.583c0.099,2.587,1.87,4.219,1.945,4.286
					c0.096,0.088,0.216,0.13,0.336,0.13c0.136,0,0.273-0.056,0.372-0.166c0.185-0.204,0.169-0.52-0.035-0.705
					c-0.015-0.015-1.534-1.412-1.618-3.584c-0.063-1.613,0.679-3.248,2.202-4.857c0.189-0.2,0.18-0.518-0.02-0.707
					C-80.985,140.046-81.301,140.055-81.491,140.255z"/>
				<path fill="#FFFFFF" d="M32.038,103.852c-0.184-0.207-0.499-0.225-0.706-0.041c-0.206,0.185-0.224,0.5-0.04,0.705
					c0.226,0.256,5.135,5.68,11.19,5.68c0.633,0,1.278-0.057,1.931-0.188c0.272-0.055,0.447-0.317,0.393-0.588
					c-0.055-0.272-0.322-0.448-0.588-0.394C37.878,110.291,32.096,103.916,32.038,103.852z"/>
				<path fill="#FFFFFF" d="M-41.542,183.77c-0.297-3.903-2.093-7.685-5.056-10.647c-3.241-3.241-7.528-5.099-11.764-5.099
					c-3.484,0-6.672,1.269-8.977,3.574c-2.576,2.575-3.83,6.158-3.53,10.09c0.297,3.903,2.093,7.685,5.057,10.648
					c3.241,3.24,7.529,5.1,11.765,5.1c3.483,0,6.669-1.271,8.973-3.574C-42.497,191.285-41.243,187.701-41.542,183.77z
					 M-45.78,193.154c-2.115,2.115-5.05,3.281-8.266,3.281c-3.973,0-8.003-1.752-11.058-4.807
					c-2.795-2.795-4.488-6.354-4.767-10.018c-0.278-3.637,0.874-6.941,3.24-9.307c2.117-2.117,5.053-3.283,8.27-3.283
					c3.972,0,8.003,1.752,11.057,4.807c2.794,2.794,4.487,6.352,4.766,10.018C-42.261,187.48-43.413,190.788-45.78,193.154z"/>
				<path fill="#FFFFFF" d="M-33.232,194.938c-0.094-0.094-0.221-0.146-0.354-0.146s-0.26,0.052-0.354,0.146l-3.901,3.901
					l-4.303-4.303c4.642-5.866,4-14.893-1.509-21.538l2.814-2.814c0.093-0.095,0.146-0.222,0.146-0.354
					c0-0.134-0.052-0.261-0.146-0.354l-2.071-2.07c-0.195-0.194-0.512-0.194-0.707,0l-2.809,2.81
					c-3.572-2.977-7.966-4.655-12.314-4.655c-4.064,0-7.781,1.479-10.469,4.168c-5.776,5.777-5.449,15.638,0.468,22.756
					l-2.624,2.625c-0.195,0.195-0.195,0.513,0,0.707l2.072,2.072c0.098,0.098,0.226,0.146,0.354,0.146
					c0.127,0,0.255-0.049,0.353-0.146l2.623-2.623c3.567,2.962,7.952,4.633,12.289,4.633c3.492,0,6.722-1.099,9.269-3.11l4.308,4.31
					l-3.9,3.899c-0.195,0.194-0.195,0.512,0,0.707l1.361,1.36c0.098,0.098,0.226,0.146,0.354,0.146c0.128,0,0.256-0.049,0.352-0.146
					l4.252-4.252c0.001-0.001,0.002-0.001,0.003-0.002l1.542-1.541c0.002-0.003,0.006-0.004,0.008-0.006l4.255-4.255
					c0.195-0.194,0.195-0.512,0-0.707L-33.232,194.938z M-43.263,168.465l1.364,1.363l-2.424,2.423
					c-0.223-0.245-0.435-0.496-0.672-0.733c-0.222-0.222-0.461-0.419-0.691-0.63L-43.263,168.465z M-68.94,196.827l-1.365-1.365
					l2.234-2.235c0.218,0.237,0.423,0.482,0.654,0.713c0.229,0.229,0.476,0.433,0.714,0.65L-68.94,196.827z M-66.71,193.232
					c-6.779-6.778-7.583-17.006-1.792-22.799c2.499-2.498,5.966-3.875,9.762-3.875c4.685,0,9.437,2.065,13.038,5.666
					c6.779,6.778,7.582,17.006,1.79,22.799c-2.499,2.498-5.966,3.875-9.762,3.875C-58.358,198.898-63.109,196.833-66.71,193.232z
					 M-36.833,200.553l-1.547,1.547c-0.001,0.001-0.002,0.001-0.003,0.002l-3.9,3.9l-0.654-0.654l3.9-3.899
					c0.195-0.195,0.195-0.513,0-0.707l-4.61-4.612c0.146-0.134,0.301-0.258,0.442-0.398c0.142-0.143,0.262-0.299,0.396-0.446
					l4.614,4.614c0.187,0.188,0.519,0.188,0.707,0l3.901-3.901l0.655,0.655L-36.833,200.553z"/>
				<path fill="#FFFFFF" d="M-61.381,179.881c-0.276,0-0.5,0.225-0.5,0.5l-0.001,5.523c0,0.275,0.224,0.5,0.5,0.5
					c0.277,0,0.5-0.223,0.5-0.5l0.001-5.523C-60.881,180.105-61.105,179.881-61.381,179.881z"/>
				<path fill="#FFFFFF" d="M-50.721,179.881c-0.276,0-0.5,0.225-0.5,0.5v5.523c0,0.275,0.224,0.5,0.5,0.5
					c0.277,0,0.5-0.223,0.5-0.5v-5.523C-50.221,180.105-50.445,179.881-50.721,179.881z"/>
				<path fill="#FFFFFF" d="M-55.727,174.359c-0.276,0-0.5,0.225-0.5,0.5v15.15c0,0.276,0.224,0.5,0.5,0.5
					c0.277,0,0.5-0.224,0.5-0.5v-15.15C-55.227,174.584-55.451,174.359-55.727,174.359z"/>
				<path fill="#FFFFFF" d="M-44.051,122.271c0.001,0.001,0.001,0.002,0.002,0.003l6.22,6.219c1.602,1.603,3.68,2.537,5.853,2.636
					c0.126,0.006,0.251,0.009,0.376,0.009c2.045,0,3.923-0.759,5.321-2.158c3.052-3.053,2.834-8.235-0.484-11.553l-6.216-6.218
					c-0.001-0.001-0.001-0.002-0.002-0.003l-6.222-6.221c-3.317-3.317-8.5-3.536-11.554-0.482c-1.484,1.482-2.247,3.507-2.148,5.698
					c0.099,2.172,1.034,4.25,2.635,5.851L-44.051,122.271z M-26.986,128.271c-1.283,1.285-3.042,1.942-4.946,1.858
					c-1.921-0.087-3.765-0.92-5.19-2.345l-5.866-5.865l9.653-9.653l5.864,5.866C-24.542,121.061-24.325,125.609-26.986,128.271z
					 M-50.05,105.209c2.661-2.662,7.211-2.447,10.14,0.482l5.869,5.868l-9.653,9.653l-5.869-5.87
					c-1.424-1.423-2.256-3.266-2.343-5.188C-51.992,108.248-51.333,106.491-50.05,105.209z"/>
				<path fill="#FFFFFF" d="M-38.804,98.045c0.317,1.594,1.096,3.046,2.251,4.203c1.554,1.554,3.621,2.409,5.819,2.409
					c2.197,0,4.263-0.857,5.818-2.41c1.555-1.554,2.41-3.62,2.41-5.817c0-0.529-0.052-1.051-0.149-1.559
					c0.015-0.067,0.018-0.138,0.002-0.21c-0.017-0.078-0.053-0.145-0.099-0.202c-0.354-1.443-1.085-2.771-2.164-3.848
					c-1.554-1.555-3.621-2.411-5.818-2.411c-2.198,0-4.264,0.856-5.819,2.411C-38.501,92.561-39.342,95.339-38.804,98.045z
					 M-25.623,101.54c-1.365,1.364-3.18,2.116-5.111,2.116c-1.931,0-3.747-0.752-5.112-2.116c-0.877-0.879-1.49-1.958-1.825-3.137
					l14.08-3.029c0.051,0.348,0.085,0.698,0.085,1.056C-23.506,98.359-24.258,100.175-25.623,101.54z M-30.734,89.2
					c1.93,0,3.746,0.752,5.111,2.118c0.871,0.871,1.489,1.926,1.825,3.075l-14.083,3.03c-0.309-2.241,0.427-4.496,2.036-6.105
					C-34.481,89.952-32.666,89.2-30.734,89.2z"/>
				<path fill="#FFFFFF" d="M-18.205,117.188c2.198,0,4.265-0.855,5.818-2.41c3.208-3.207,3.208-8.428,0-11.637
					c-1.553-1.555-3.62-2.41-5.818-2.41c-2.197,0-4.264,0.855-5.819,2.41c-1.948,1.949-2.79,4.728-2.251,7.435
					c0.318,1.594,1.097,3.047,2.251,4.202C-22.47,116.332-20.403,117.188-18.205,117.188z M-23.317,103.848
					c1.366-1.365,3.181-2.117,5.112-2.117c1.932,0,3.746,0.752,5.111,2.115c2.818,2.82,2.818,7.406,0,10.223
					c-1.365,1.367-3.181,2.119-5.111,2.119c-1.93,0-3.746-0.752-5.112-2.119c-1.014-1.014-1.699-2.291-1.978-3.69
					C-25.768,108.001-25.029,105.559-23.317,103.848z"/>
				<path fill="#FFFFFF" d="M-16.64,90.562c2.199,0,4.265-0.857,5.819-2.41c1.948-1.947,2.79-4.726,2.252-7.436
					c-0.318-1.592-1.097-3.045-2.252-4.201c-1.554-1.555-3.621-2.41-5.819-2.41c-2.197,0-4.263,0.855-5.817,2.41
					c-1.555,1.553-2.411,3.619-2.411,5.817s0.856,4.265,2.411,5.817C-20.904,89.706-18.837,90.562-16.64,90.562z M-21.75,77.221
					c1.365-1.365,3.179-2.117,5.11-2.117c1.931,0,3.746,0.752,5.112,2.115c1.015,1.018,1.699,2.295,1.979,3.691
					c0.472,2.381-0.267,4.822-1.979,6.531c-1.366,1.367-3.182,2.119-5.112,2.119c-1.93,0-3.745-0.752-5.11-2.119
					c-1.366-1.364-2.118-3.181-2.118-5.11C-23.868,80.4-23.116,78.585-21.75,77.221z"/>
				<path fill="#FFFFFF" d="M-12.19,96.631c0.016,0.076,0.052,0.14,0.097,0.197c0.353,1.446,1.086,2.774,2.167,3.854
					c1.553,1.555,3.62,2.409,5.818,2.409c2.198,0,4.264-0.856,5.818-2.407c1.948-1.949,2.79-4.729,2.252-7.438
					c-0.318-1.592-1.097-3.045-2.252-4.202c-1.553-1.554-3.62-2.409-5.818-2.409c-2.198,0-4.264,0.855-5.818,2.409
					c-1.555,1.554-2.411,3.622-2.411,5.819c0,0.529,0.052,1.051,0.149,1.56C-12.203,96.489-12.205,96.56-12.19,96.631z
					 M1.002,99.975c-1.365,1.363-3.181,2.115-5.111,2.115c-1.93,0-3.746-0.752-5.111-2.115c-0.871-0.871-1.49-1.926-1.826-3.077
					l14.084-3.03C3.347,96.109,2.611,98.364,1.002,99.975z M-9.22,89.75c1.365-1.364,3.18-2.116,5.111-2.116
					c1.93,0,3.746,0.752,5.111,2.115c0.878,0.88,1.491,1.961,1.826,3.14l-14.081,3.029c-0.051-0.348-0.085-0.699-0.085-1.057
					C-11.338,92.932-10.586,91.116-9.22,89.75z"/>
				<path fill="#FFFFFF" d="M-19.043,154.854c-0.195-0.194-0.512-0.194-0.707,0l-0.494,0.494l-4.736-4.736
					c-0.187-0.188-0.519-0.188-0.707,0l-0.584,0.584l-8.331-8.328c-0.126-0.127-0.311-0.178-0.486-0.128
					c-0.173,0.046-0.308,0.183-0.352,0.356l-1.709,6.705c-0.044,0.172,0.006,0.354,0.131,0.479l5.833,5.831l-0.586,0.587
					c-0.093,0.094-0.146,0.222-0.146,0.354c0,0.133,0.052,0.26,0.146,0.354l4.735,4.734l-0.492,0.491
					c-0.093,0.094-0.146,0.221-0.146,0.354c0,0.134,0.052,0.261,0.146,0.354l1.108,1.107c-1.02,0.23-1.974,0.725-2.747,1.499
					c-2.339,2.341-2.175,6.31,0.365,8.848l4.67,4.67c0.001,0.001,0.002,0.001,0.003,0.002l0.805,0.805l2.53,2.531
					c0.094,0.094,0.221,0.146,0.354,0.146c0.132,0,0.259-0.053,0.354-0.146l7.776-7.777c0.195-0.194,0.195-0.512,0-0.707
					c-0.001-0.001-0.002-0.001-0.003-0.002l-0.672-0.672l6.012-6.013c0.093-0.094,0.146-0.221,0.146-0.354
					c0-0.133-0.052-0.26-0.146-0.354L-19.043,154.854z M-36.109,149.773l1.422-5.578l7.709,7.707l-3.5,3.5L-36.109,149.773z
					 M-30.711,157.051l5.378-5.379l4.382,4.383l-5.378,5.377L-30.711,157.051z M-20.441,181.741l-1.729-1.73l0-0.001l-3.338-3.338
					c-0.001-0.001-0.002-0.001-0.003-0.002l-2.584-2.584c-2.15-2.148-2.313-5.484-0.365-7.434c1.952-1.95,5.287-1.787,7.436,0.363
					l4.667,4.667c0.001,0.001,0.001,0.002,0.002,0.003l2.984,2.984L-20.441,181.741z M-13.693,172.935l-1.953-1.953
					c-0.001-0.001-0.001-0.002-0.002-0.003l-4.67-4.67c-1.358-1.359-3.126-2.031-4.835-2.01l-1.315-1.314l0.492-0.491
					c0-0.001,0-0.001,0.001-0.001s0-0.001,0-0.001l6.579-6.576l11.362,11.36L-13.693,172.935z"/>
				<path fill="#FFFFFF" d="M-19.606,159.861l4.746,4.746c0.098,0.098,0.226,0.146,0.354,0.146s0.256-0.049,0.353-0.146
					c0.195-0.194,0.195-0.512,0-0.707l-4.746-4.746c-0.195-0.194-0.512-0.194-0.707,0C-19.801,159.35-19.801,159.667-19.606,159.861
					z"/>
				<path fill="#FFFFFF" d="M5.297,139.055c1.681-1.681,2.597-2.597,3.084-3.125l3.126,3.125c0.262,0.262,0.614,0.407,0.988,0.407
					c0.375,0,0.727-0.146,0.99-0.409l1.905-1.904c0.263-0.263,0.409-0.612,0.409-0.987c0.001-0.375-0.144-0.726-0.408-0.991
					l-3.104-3.104l3.104-3.104c0.545-0.546,0.545-1.433,0-1.978l-1.905-1.904c-0.528-0.529-1.456-0.528-1.979-0.001l-3.125,3.124
					c-0.487-0.529-1.403-1.444-3.083-3.124c-0.528-0.528-1.452-0.526-1.978,0l-1.907,1.907c-0.262,0.261-0.407,0.611-0.407,0.986
					c-0.001,0.377,0.144,0.728,0.407,0.99l3.104,3.104l-3.104,3.104c-0.263,0.264-0.408,0.615-0.408,0.99s0.144,0.725,0.408,0.988
					l1.905,1.906C3.847,139.579,4.772,139.58,5.297,139.055z M2.007,136.161c0-0.107,0.04-0.207,0.115-0.282l3.458-3.458
					c0.093-0.094,0.146-0.221,0.146-0.354c0-0.133-0.052-0.26-0.146-0.354l-3.458-3.456c-0.074-0.073-0.114-0.175-0.114-0.282
					c0-0.106,0.04-0.207,0.114-0.281l1.907-1.906c0.147-0.148,0.414-0.148,0.563,0c0,0,3.381,3.381,3.452,3.454
					c0.093,0.093,0.221,0.147,0.355,0.147H8.4c0.132,0,0.26-0.052,0.354-0.146l3.46-3.458c0.148-0.148,0.412-0.148,0.562,0.001
					l1.906,1.905c0.155,0.154,0.155,0.408,0,0.562l-3.458,3.458c-0.093,0.095-0.146,0.222-0.146,0.354s0.052,0.26,0.146,0.354
					l3.458,3.458c0.075,0.075,0.116,0.175,0.115,0.283c0,0.106-0.04,0.206-0.115,0.28l-1.906,1.906
					c-0.148,0.146-0.415,0.147-0.563,0l-3.459-3.459c-0.093-0.094-0.221-0.146-0.354-0.146c-0.134,0-0.262,0.055-0.356,0.149
					c-0.071,0.073-3.454,3.455-3.454,3.455c-0.148,0.148-0.415,0.147-0.563,0l-1.905-1.906
					C2.047,136.368,2.007,136.268,2.007,136.161z"/>
				<path fill="#FFFFFF" d="M2.931,159.398c0.098,0.098,0.226,0.146,0.354,0.146s0.256-0.049,0.354-0.146l31.88-31.881
					c0.195-0.195,0.195-0.513,0-0.707l-20.015-20.017c-0.187-0.188-0.519-0.188-0.707,0L4.744,116.848l-3.209-3.209
					c-0.195-0.195-0.512-0.195-0.707,0l-11.067,11.066c-0.093,0.094-0.146,0.221-0.146,0.354s0.052,0.26,0.146,0.354l3.21,3.209
					l-10.055,10.055c-0.093,0.095-0.146,0.222-0.146,0.354s0.052,0.26,0.146,0.354L2.931,159.398z M-9.18,125.059l10.36-10.359
					l2.856,2.855l-10.36,10.36L-9.18,125.059z M15.152,107.855l19.308,19.309L3.286,158.338l-19.309-19.307L15.152,107.855z"/>
				<path fill="#FFFFFF" d="M32.575,171.084c0.66-0.911,1.03-1.995,1.031-3.141c0.002-1.44-0.555-2.791-1.57-3.807
					c-1.013-1.012-2.36-1.568-3.797-1.568c-1.442,0-2.796,0.56-3.816,1.578c-2.102,2.101-2.106,5.517-0.01,7.613
					c1.013,1.012,2.361,1.569,3.798,1.569c1.395,0,2.701-0.533,3.707-1.489l5.38,5.381c7.282,7.284,4.318,12.213,0.458,16.073
					c-4.708,4.708-10.04,5.731-13.325,2.59c3.994-5.845,1.445-16.394-6.017-23.853c-1.391-1.395-3.303-2.305-5.241-2.502
					c-1.763-0.178-3.406,0.258-4.591,1.2l-0.727-0.727c-0.66-0.659-1.81-0.659-2.468-0.001l-0.44,0.439
					c-0.33,0.33-0.512,0.769-0.512,1.235c0,0.464,0.182,0.903,0.512,1.231l1.761,1.763c0.33,0.328,0.767,0.511,1.234,0.511
					c0.466,0,0.904-0.183,1.233-0.51l0.443-0.441c0.678-0.68,0.678-1.787-0.001-2.467l-0.324-0.324
					c0.975-0.731,2.322-1.064,3.779-0.914c1.713,0.173,3.403,0.979,4.635,2.213c7.416,7.414,9.845,18.387,5.232,23.449
					c-5.094,4.646-16.071,2.219-23.486-5.196c-1.294-1.296-2.172-3.062-2.408-4.845c-0.199-1.509,0.089-2.875,0.792-3.851
					l0.417,0.418c0.33,0.328,0.768,0.511,1.234,0.511c0.467,0,0.905-0.183,1.234-0.512l0.441-0.439
					c0.329-0.33,0.511-0.768,0.51-1.234c0-0.464-0.183-0.903-0.512-1.232l-1.76-1.762c-0.659-0.658-1.811-0.656-2.468,0l-0.44,0.439
					c-0.33,0.33-0.512,0.769-0.511,1.234c0,0.467,0.182,0.905,0.511,1.233l0.628,0.629c-0.921,1.192-1.31,2.868-1.067,4.696
					c0.263,1.998,1.245,3.975,2.692,5.421c5.083,5.084,11.603,7.89,17.1,7.89c3.056-0.001,5.798-0.867,7.799-2.695
					c0.062-0.068,0.109-0.147,0.169-0.217c1.454,1.356,3.231,2.028,5.165,2.028c3.006,0,6.385-1.603,9.484-4.703
					c3.964-3.964,7.493-9.535-0.458-17.487L32.575,171.084z M25.12,171.052c-1.706-1.706-1.701-4.487,0.01-6.198
					c0.83-0.83,1.934-1.287,3.109-1.287c1.169,0,2.267,0.455,3.09,1.275c0.825,0.826,1.279,1.926,1.277,3.098
					s-0.459,2.274-1.287,3.103c-0.829,0.829-1.933,1.286-3.108,1.286C27.041,172.328,25.943,171.875,25.12,171.052z M8.912,173.521
					l-0.442,0.439c-0.283,0.282-0.774,0.279-1.054,0.001l-1.762-1.763c-0.141-0.139-0.218-0.326-0.218-0.524
					s0.077-0.385,0.219-0.526l0.44-0.44c0.14-0.14,0.327-0.217,0.526-0.217c0.199,0,0.387,0.077,0.528,0.217l1.761,1.759
					C9.2,172.758,9.2,173.232,8.912,173.521z M-2.799,179.191l0.44-0.44c0.14-0.142,0.327-0.218,0.527-0.218
					c0.199,0,0.386,0.076,0.527,0.218l1.76,1.763c0.141,0.139,0.219,0.327,0.219,0.526c0,0.198-0.077,0.384-0.217,0.524
					l-0.441,0.441c-0.282,0.279-0.773,0.28-1.054-0.001l-1.761-1.761c-0.141-0.141-0.218-0.328-0.218-0.526
					C-3.018,179.52-2.94,179.332-2.799,179.191z"/>
				<path fill="#FFFFFF" d="M26.188,165.91c-0.546,0.546-0.849,1.271-0.852,2.044c-0.003,0.776,0.295,1.502,0.84,2.047
					c0.544,0.543,1.267,0.842,2.037,0.842c0.776,0,1.506-0.303,2.055-0.853c0.547-0.547,0.849-1.272,0.852-2.047
					c0.003-0.773-0.297-1.5-0.842-2.045C29.189,164.809,27.282,164.814,26.188,165.91z M29.56,169.284
					c-0.717,0.716-1.965,0.722-2.678,0.011c-0.355-0.355-0.549-0.829-0.547-1.336c0.002-0.506,0.201-0.982,0.559-1.342
					c0.361-0.36,0.839-0.559,1.348-0.559c0.503,0,0.975,0.194,1.328,0.549c0.356,0.355,0.551,0.828,0.549,1.334
					C30.117,168.449,29.918,168.926,29.56,169.284z"/>
				<path fill="#FFFFFF" d="M-87.129,89.706l-0.033,0.033c-3.105,0.124-7.46,2.942-9.178,7.089
					c-1.488,3.592-0.556,7.322,2.627,10.506c5.372,5.37,11.784,5.95,14.291,5.95c0.001,0,0.001,0,0.002,0
					c3.921,0,6.903-1.222,7.254-2.972c0.561-2.799,1.667-3.91,1.69-3.933c0.012-0.011,1.12-1.116,3.917-1.677
					c1.018-0.203,1.875-1.299,2.416-3.081c1.221-4.033,0.794-12.278-5.393-18.466c-2.205-2.204-4.597-3.321-7.112-3.321
					c-2.646,0-5.283,1.263-7.429,3.558C-85.898,85.338-87.052,87.734-87.129,89.706z M-76.648,80.835
					c2.239,0,4.394,1.019,6.405,3.026c5.875,5.878,6.294,13.668,5.143,17.47c-0.41,1.353-1.044,2.269-1.655,2.392
					c-3.141,0.629-4.391,1.91-4.425,1.947c-0.055,0.051-1.337,1.303-1.967,4.445c-0.208,1.043-2.665,2.168-6.272,2.168
					c0,0-0.001,0-0.002,0c-2.383,0-8.477-0.553-13.584-5.657c-3.688-3.688-3.347-7.157-2.41-9.416
					c1.581-3.817,5.73-6.476,8.465-6.476c0.133,0,0.26-0.053,0.353-0.146l0.318-0.316c0.094-0.092,0.147-0.221,0.147-0.354
					c-0.001-1.737,1.093-4.031,2.786-5.842C-82.214,82.864-79.839,80.835-76.648,80.835z"/>
				<path fill="#FFFFFF" d="M-91.962,103.852c-0.184-0.207-0.499-0.225-0.706-0.041c-0.206,0.185-0.224,0.5-0.04,0.705
					c0.226,0.256,5.135,5.68,11.19,5.68c0.633,0,1.278-0.057,1.931-0.188c0.272-0.055,0.447-0.317,0.393-0.588
					c-0.055-0.272-0.323-0.448-0.588-0.394C-86.123,110.291-91.904,103.916-91.962,103.852z"/>
				<path fill="#FFFFFF" d="M-92.009,170.5l-0.707,0.707l6.014,6.014c7.282,7.284,4.318,12.213,0.458,16.073
					c-4.762,4.763-10.166,5.763-13.441,2.487l-0.707,0.707c1.489,1.488,3.346,2.216,5.371,2.216c3.006,0,6.385-1.603,9.484-4.703
					c3.964-3.964,7.493-9.535-0.458-17.487L-92.009,170.5z"/>
				<path fill="#FFFFFF" d="M-54.047,73.436c3.483,0,6.669-1.271,8.973-3.574c2.577-2.576,3.831-6.16,3.532-10.092
					c-0.297-3.903-2.093-7.684-5.056-10.647c-3.241-3.241-7.528-5.099-11.764-5.099c-3.484,0-6.672,1.269-8.977,3.575
					c-2.576,2.575-3.83,6.158-3.53,10.09c0.297,3.903,2.093,7.685,5.057,10.648C-62.571,71.576-58.283,73.436-54.047,73.436z
					 M-66.631,48.304c2.117-2.116,5.053-3.282,8.27-3.282c3.972,0,8.003,1.752,11.057,4.806c2.794,2.794,4.487,6.351,4.766,10.016
					c0.277,3.637-0.875,6.943-3.242,9.311c-2.115,2.115-5.05,3.279-8.266,3.279c-3.973,0-8.003-1.752-11.058-4.806
					c-2.795-2.795-4.488-6.352-4.767-10.017C-70.149,53.975-68.997,50.67-66.631,48.304z"/>
				<path fill="#FFFFFF" d="M-44.405,72.786l4.308,4.31l-3.9,3.899c-0.195,0.194-0.195,0.512,0,0.707l1.361,1.36
					c0.098,0.098,0.226,0.146,0.354,0.146c0.128,0,0.256-0.049,0.352-0.146l4.252-4.252c0.001-0.001,0.002-0.001,0.003-0.002
					l1.544-1.544c0.002-0.002,0.004-0.002,0.006-0.004l4.255-4.254c0.195-0.194,0.195-0.512,0-0.707l-1.362-1.362
					c-0.094-0.094-0.221-0.146-0.354-0.146s-0.26,0.052-0.354,0.146l-3.901,3.901l-4.303-4.303c4.642-5.866,4-14.893-1.509-21.539
					l2.814-2.814c0.093-0.094,0.146-0.221,0.146-0.354c0-0.133-0.052-0.26-0.146-0.354l-2.071-2.07
					c-0.195-0.195-0.512-0.195-0.707,0l-2.809,2.809c-3.572-2.977-7.966-4.656-12.314-4.656c-4.064,0-7.781,1.48-10.469,4.168
					c-5.776,5.777-5.449,15.638,0.468,22.756l-2.624,2.625c-0.195,0.195-0.195,0.513,0,0.707l2.072,2.072
					c0.098,0.098,0.226,0.146,0.354,0.146c0.127,0,0.255-0.049,0.353-0.146l2.623-2.623c3.567,2.962,7.952,4.633,12.289,4.633
					C-50.182,75.896-46.952,74.798-44.405,72.786z M-38.195,75.898c0.187,0.188,0.519,0.188,0.707,0l3.901-3.901l0.655,0.655
					l-3.901,3.9L-38.38,78.1c-0.001,0.001-0.002,0.001-0.003,0.002l-3.9,3.9l-0.654-0.654l3.9-3.899
					c0.195-0.195,0.195-0.513,0-0.707l-4.61-4.612c0.146-0.134,0.301-0.258,0.442-0.398c0.142-0.143,0.262-0.299,0.396-0.446
					L-38.195,75.898z M-43.263,44.465l1.364,1.363l-2.423,2.423c-0.224-0.246-0.436-0.497-0.673-0.734
					c-0.222-0.222-0.461-0.418-0.691-0.629L-43.263,44.465z M-68.502,46.434c2.499-2.499,5.966-3.875,9.762-3.875
					c4.685,0,9.437,2.065,13.038,5.666c6.779,6.778,7.582,17.005,1.79,22.798c-2.499,2.498-5.966,3.875-9.762,3.875
					c-4.684,0-9.435-2.065-13.036-5.666C-73.489,62.454-74.293,52.226-68.502,46.434z M-68.94,72.827l-1.365-1.365l2.234-2.235
					c0.218,0.237,0.423,0.482,0.654,0.713c0.229,0.229,0.476,0.433,0.714,0.65L-68.94,72.827z"/>
				<path fill="#FFFFFF" d="M-55.727,66.51c0.277,0,0.5-0.224,0.5-0.5V50.86c0-0.276-0.224-0.5-0.5-0.5s-0.5,0.224-0.5,0.5v15.15
					C-56.227,66.286-56.003,66.51-55.727,66.51z"/>
				<path fill="#FFFFFF" d="M-91.516,74.033c1.996-0.741,4.042-2.094,5.979-4.031c3.964-3.965,7.494-9.535-0.458-17.488
					l-6.014-6.014l-0.707,0.707l6.014,6.014c2.503,2.503,3.796,4.729,4.257,6.729c0.126,0.545,0.19,1.074,0.2,1.586
					c0.06,3.076-1.828,5.586-4,7.758c-4.167,4.167-8.825,5.454-12.118,3.517c-0.471-0.277-0.914-0.62-1.323-1.029l-0.707,0.707
					c1.489,1.488,3.346,2.216,5.371,2.216C-93.894,74.704-92.714,74.479-91.516,74.033z"/>
			</g>
		</g>
	</g>
</g>
</svg>
