<?xml version="1.0" encoding="utf-8"?>
<!-- Generator: Adobe Illustrator 16.0.0, SVG Export Plug-In . SVG Version: 6.00 Build 0)  -->
<!DOCTYPE svg PUBLIC "-//W3C//DTD SVG 1.1//EN" "http://www.w3.org/Graphics/SVG/1.1/DTD/svg11.dtd">
<svg version="1.1" id="Layer_1" xmlns="http://www.w3.org/2000/svg" xmlns:xlink="http://www.w3.org/1999/xlink" x="0px" y="0px"
	 width="20px" height="20px" viewBox="0 0 20 20" enable-background="new 0 0 20 20" xml:space="preserve">
<path fill="#FFFFFF" d="M12.972,5.411V2.554h-1.196V2.552H8.233v0.002H7.027v2.857H2.958v10.479h6.245h1.595h6.243V5.411H12.972z
	 M8.457,3.981h3.087v1.43H8.457V3.981z M13.454,11.231c0,0.21-0.172,0.386-0.386,0.386h-2.102v2.104
	c0,0.211-0.174,0.386-0.387,0.386H9.421c-0.213,0-0.387-0.175-0.386-0.386l-0.001-2.104c0.001,0-2.104,0-2.104,0
	c-0.212,0-0.385-0.176-0.385-0.386V10.07c0-0.212,0.173-0.386,0.385-0.385h2.104L9.034,7.582C9.032,7.371,9.208,7.196,9.42,7.196
	h1.159c0.213,0,0.387,0.173,0.385,0.386c0,0,0.002,2.104,0,2.103l2.104,0.001c0.214-0.001,0.386,0.172,0.386,0.386V11.231z"/>
</svg>
