<?xml version="1.0" encoding="utf-8"?>
<!-- Generator: Adobe Illustrator 16.0.0, SVG Export Plug-In . SVG Version: 6.00 Build 0)  -->
<!DOCTYPE svg PUBLIC "-//W3C//DTD SVG 1.1//EN" "http://www.w3.org/Graphics/SVG/1.1/DTD/svg11.dtd">
<svg version="1.1" id="Layer_1" xmlns="http://www.w3.org/2000/svg" xmlns:xlink="http://www.w3.org/1999/xlink" x="0px" y="0px"
	 width="40px" height="40px" viewBox="0 0 40 40" enable-background="new 0 0 40 40" xml:space="preserve">
<g>
	<path fill="#696767" d="M24.878,19.812H21.91v-2.969c0-0.545-0.444-0.988-0.99-0.988h-1.843c-0.546,0-0.991,0.443-0.991,0.988
		l0.002,2.969h-2.971c-0.265,0-0.513,0.104-0.701,0.292c-0.187,0.188-0.289,0.437-0.288,0.698v1.842
		c0,0.547,0.444,0.992,0.989,0.992h2.968l0.002,2.969c0,0.546,0.444,0.99,0.989,0.99h1.843c0.546,0,0.99-0.444,0.99-0.99v-2.971
		l2.971,0.002c0.543-0.003,0.987-0.447,0.99-0.992l-0.002-1.842C25.869,20.256,25.426,19.812,24.878,19.812z M24.879,22.886
		l-3.344-0.002c-0.1,0-0.195,0.039-0.265,0.109s-0.11,0.166-0.11,0.266v3.346c0,0.133-0.108,0.24-0.24,0.24h-1.843
		c-0.13,0-0.239-0.11-0.239-0.24l-0.002-3.344c0-0.207-0.168-0.375-0.375-0.375h-3.343c-0.132,0-0.239-0.108-0.239-0.242V20.8
		c0-0.062,0.024-0.122,0.069-0.167c0.045-0.046,0.105-0.071,0.169-0.071h3.346c0.1,0,0.195-0.04,0.265-0.11s0.11-0.166,0.11-0.265
		l-0.002-3.344c0-0.129,0.11-0.238,0.241-0.238h1.843c0.132,0,0.24,0.107,0.24,0.238v3.344c0,0.207,0.168,0.375,0.375,0.375h3.346
		c0.131,0,0.238,0.108,0.238,0.241l0.002,1.839C25.12,22.775,25.011,22.885,24.879,22.886z"/>
	<path fill="#696767" d="M31.667,11.671h-5.94l-0.001-2.072c0-0.758-0.617-1.375-1.375-1.375h-8.703
		c-0.758,0-1.375,0.617-1.375,1.375v2.072h-5.94c-0.758,0-1.375,0.617-1.375,1.375v17.355c0,0.758,0.617,1.375,1.375,1.375h23.335
		c0.758,0,1.375-0.617,1.375-1.375V13.046C33.042,12.288,32.426,11.671,31.667,11.671z M15.022,9.599
		c0-0.345,0.28-0.625,0.625-0.625h8.703c0.345,0,0.625,0.28,0.625,0.625l0.001,2.072h-9.955V9.599z M32.292,30.401
		c0,0.345-0.28,0.625-0.625,0.625H8.333c-0.345,0-0.625-0.28-0.625-0.625V13.046c0-0.345,0.28-0.625,0.625-0.625h23.335
		c0.345,0,0.625,0.28,0.625,0.625V30.401z"/>
</g>
</svg>
